<svg xmlns="http://www.w3.org/2000/svg" width="142.451" height="132.688" viewBox="0 0 142.451 132.688">
  <g id="category_based_service_request" transform="translate(0 -13.09)">
    <path id="Path_11372" data-name="Path 11372" d="M41.16,20.86H58.623v81.251H41.16Z" transform="translate(63.316 25.797)" fill="#da4765"/>
    <path id="Path_11373" data-name="Path 11373" d="M29.78,25.84H47.243V94.425H29.78Z" transform="translate(45.811 33.458)" fill="#59cbef"/>
    <path id="Path_11374" data-name="Path 11374" d="M18.41,34.24H35.873V81.528H18.41Z" transform="translate(28.32 46.38)" fill="#a488b7"/>
    <path id="Path_11375" data-name="Path 11375" d="M7.04,38.65H24.5V74.745H7.04Z" transform="translate(10.83 53.164)" fill="#7ca3c2"/>
    <path id="Path_11376" data-name="Path 11376" d="M4.366,145.778A4.366,4.366,0,0,1,0,141.412V17.456a4.366,4.366,0,0,1,8.732,0v119.59H138.085a4.366,4.366,0,1,1,0,8.732Z" transform="translate(0 0)" fill="#5e5e61"/>
  </g>
</svg>
