<svg id="device_alerts-total" xmlns="http://www.w3.org/2000/svg" width="152.805" height="152.713" viewBox="0 0 152.805 152.713">
  <path id="Path_35" data-name="Path 35" d="M0,71.468c.391-2.851.663-5.729,1.194-8.552Q7.32,30.434,34.878,12.137A74.46,74.46,0,0,1,69.172.124c.783-.08,1.573-.08,2.459-.124V31.716c-20.864,3.813-34.6,15.455-38.906,36.439A43.18,43.18,0,0,0,52,113.444c17.874,11.143,35.437,9.646,52.4-2.108l22.393,22.393c-.224.2-.631.6-1.066.962a75.078,75.078,0,0,1-43.745,17.822A76.543,76.543,0,0,1,1.274,90.176C.715,87.154.419,84.08,0,81.03V71.468Z" transform="translate(0)" fill="#003ecf"/>
  <path id="Path_36" data-name="Path 36" d="M203.81.35c35.7,1.106,69.412,31.752,71.324,71.228H243.49c-4.076-22.357-17.215-35.552-39.68-39.665Z" transform="translate(-122.441 -0.21)" fill="#d20000"/>
  <path id="Path_37" data-name="Path 37" d="M279.17,226.076a44.284,44.284,0,0,0,9.362-22.876h31.987a75.257,75.257,0,0,1-18.772,45.449C294.2,241.1,286.724,233.63,279.17,226.076Z" transform="translate(-167.714 -122.074)" fill="#00bb4b"/>
</svg>
