<svg xmlns="http://www.w3.org/2000/svg" width="15.961" height="15.484" viewBox="0 0 15.961 15.484">
  <g id="bacnet" transform="translate(0.002 0)">
    <g id="Layer_1" data-name="Layer 1" transform="translate(-0.002 0)">
      <path id="Path_3517" data-name="Path 3517" d="M3.237,10.337a1.782,1.782,0,0,1,1.732-.528,1.089,1.089,0,0,1,.936,1c.052.978.057,1.959.059,2.938a.4.4,0,0,1-.246.286c-.44.1-.265.428-.28.674-.017.288.208.291.416.291h2.19c.2,0,.39-.018.39-.28,0-.239.088-.5-.245-.637a2.341,2.341,0,0,1-.729-3.872,1.907,1.907,0,0,1,2.96.6,5.143,5.143,0,0,1,.254,1.078c.05.28-.087.415-.382.411-.625-.008-1.248,0-1.872,0-.141,0-.283.016-.449.026a.818.818,0,0,0,.536.876.721.721,0,0,0,.907-.293c.138-.208,1-.193,1.106.021a.417.417,0,0,1-.052.328,1.554,1.554,0,0,1-1.153.829c-.326.046-.4.223-.4.521s.127.4.411.4c.743-.008,1.487.009,2.23-.01.176,0,.485-.087.5-.171.042-.258.069-.627-.078-.785a1.758,1.758,0,0,1-.43-1.317c0-.517.017-1.035-.012-1.551-.007-.132-.164-.253-.238-.387a1.732,1.732,0,0,1-.221-.484c-.035-.188-.036-.395.232-.479.1-.031.233-.186.222-.267-.066-.475.248-.658.585-.838.161-.086.318-.178.581-.326.019.357.049.633.045.908,0,.309.02.542.429.551.354.007.284.314.295.545s-.047.407-.321.394c-.324-.016-.408.154-.4.443.012.517.006,1.034.006,1.552,0,.258.112.426.384.375.329-.063.338.154.379.367.045.237.059.527-.237.533-.715.015-.748.443-.692.976.045.427-.237.455-.563.455q-5.257-.006-10.514,0c-.332,0-.665-.015-1,0C.137,15.5,0,15.349,0,14.97c.012-1.564,0-3.13,0-4.695,0-.663,0-1.326,0-1.99,0-.511.026-.536.544-.536q5.615,0,11.23,0h3.106a1.334,1.334,0,0,0,.356-.02c.072-.021.171-.108.173-.169a.248.248,0,0,0-.161-.178,1.948,1.948,0,0,0-.435-.024Q7.748,7.359.68,7.353c-.227,0-.615.127-.625-.216-.011-.4.4-.227.629-.25a5.4,5.4,0,0,1,.877,0C1.937,6.908,2,6.7,2,6.39s-.069-.483-.42-.467C1.2,5.941.832,5.917.46,5.929.143,5.938,0,5.811,0,5.485Q.011,3.018,0,.551c0-.33.15-.443.463-.44C1.287.121,2.111.1,2.933.119c1.1.026,1.864.8,1.659,1.714a4.868,4.868,0,0,1-.519,1.025l.246.189A1.442,1.442,0,0,1,4.85,4.636,1.512,1.512,0,0,1,3.539,5.851c-.21.026-.421.06-.632.072-.469.028-.668.323-.48.763a.4.4,0,0,0,.3.182c1.5.012,3,.007,4.5.009.236,0,.334-.116.332-.344,0-.5.017-1.009-.013-1.51a.461.461,0,0,0-.258-.348c-.214-.046-.495-.111-.619.191-.086.208-.155.424-.238.633a1.052,1.052,0,0,1-1.267.381c-.065-.052-.048-.267,0-.383.549-1.438,1.11-2.869,1.669-4.3.048-.124.1-.247.147-.37C7.268.1,7.521-.04,8.3.132a.5.5,0,0,1,.312.26c.718,1.768,1.424,3.542,2.131,5.316a.8.8,0,0,1,0,.192c-.369,0-.743.018-1.113-.013-.089-.008-.186-.171-.239-.281a4.248,4.248,0,0,1-.241-.631.428.428,0,0,0-.472-.328c-.7-.015-.711-.009-.711.691,0,.384.007.769,0,1.154-.005.264.1.389.375.388,1.527,0,3.053,0,4.58-.013a.454.454,0,0,0,.349-.255c.039-.224.129-.516-.225-.63a4.142,4.142,0,0,1-.891-.329,2.916,2.916,0,0,1-1.294-2.96,3.5,3.5,0,0,1,.223-.963A2.626,2.626,0,0,1,15.12.521a3.794,3.794,0,0,1,.684.951c.026.039.036.142.022.148a5.136,5.136,0,0,1-.8.34.439.439,0,0,1-.382-.142A1.329,1.329,0,0,0,13.2,1.1a1.277,1.277,0,0,0-1.008,1.233,7.136,7.136,0,0,0,.044,1.617,1.188,1.188,0,0,0,1.174,1,1.131,1.131,0,0,0,1.211-.832c.1-.3.241-.353.528-.26.868.274.9.352.4,1.139a2.089,2.089,0,0,1-1.453.954c-.388.072-.4.305-.387.605.015.342.256.315.483.316.451,0,.9,0,1.354,0,.26,0,.376.119.395.384.061.869.045.894-.826.894H1.095c-.611,0-.612,0-.612.625v5.69c0,.495.026.522.515.523q1.712,0,3.425,0c.576,0,.79-.388.522-.908a1.331,1.331,0,0,1-.156-.551c-.019-.7,0-1.406-.011-2.108,0-.493-.163-.719-.517-.77a.813.813,0,0,0-.882.591,2.8,2.8,0,0,0-.1.7c-.015.57-.011,1.14,0,1.711,0,.269-.117.414-.382.374s-.711.2-.727-.291c-.038-1.205-.02-2.413,0-3.62a.406.406,0,0,1,.282-.283c.25,0,.573-.172.733.188A1.729,1.729,0,0,1,3.237,10.337ZM2.2,4.864c.238,0,.477.018.713,0,.488-.046.755-.31.744-.705a.741.741,0,0,0-.784-.686c-.369-.021-.741.009-1.11-.014s-.493.116-.485.48C1.3,5.009,1.179,4.875,2.2,4.864Zm.039-2.522V2.338c.172.008.344.02.516.022.4,0,.632-.184.664-.53a.552.552,0,0,0-.547-.645,8.282,8.282,0,0,0-.989-.029c-.6,0-.6,0-.6.592s0,.6.6.6Zm5.688-.616-.108-.005c-.2.54-.4,1.078-.576,1.624-.021.062.09.24.148.243.376.022.754.011,1.226.011Zm.85,9.841c.132,0,.264,0,.4,0,.359-.013.458-.134.262-.428a1.016,1.016,0,0,0-.62-.46c-.223-.018-.484.19-.692.349a.418.418,0,0,0-.1.387c.035.086.229.124.359.149A2.081,2.081,0,0,0,8.775,11.568Z" transform="translate(0.002 0)" fill="#fff"/>
      <path id="Path_3518" data-name="Path 3518" d="M549.347,343.45l.275.4.271-.4.111.011q.016.338.031.677l-.086.026-.069-.095-.609.091v-.7Z" transform="translate(-534.972 -334.51)" fill="#fff"/>
      <path id="Path_3519" data-name="Path 3519" d="M524.11,343.38l-.23-.81h.482Z" transform="translate(-510.243 -333.653)" fill="#fff"/>
    </g>
  </g>
</svg>
