<svg id="datahoist" xmlns="http://www.w3.org/2000/svg" width="18.603" height="18.376" viewBox="0 0 18.603 18.376">
  <g id="Layer_1" data-name="Layer 1">
    <path id="Path_3504" data-name="Path 3504" d="M9.451,0a2.238,2.238,0,0,1,1.1.764q2.81,2.816,5.626,5.625c.657.656,1.323,1.3,1.981,1.958a1.2,1.2,0,0,1,0,1.86l-7.935,7.935c-.068.068-.14.131-.25.234v-.263c0-1.347,0-2.695,0-4.042a.83.83,0,0,0-.233-.619.312.312,0,0,1-.067-.2c-.007-.3,0-.591-.006-.886,0-.131.037-.178.17-.2a3.862,3.862,0,0,0,2.85-1.869,3.852,3.852,0,0,0,.121-3.992A3.833,3.833,0,0,0,9.372,4.2a3.845,3.845,0,0,0-2.726.972A3.825,3.825,0,0,0,5.263,7.907,3.767,3.767,0,0,0,5.9,10.394a3.986,3.986,0,0,0,2.814,1.778c.142.021.184.068.179.206-.009.3,0,.591-.006.886a.272.272,0,0,1-.064.178.818.818,0,0,0-.251.649q0,1.966,0,3.931v.27c-.087-.076-.137-.116-.181-.16L.432,10.172A1.783,1.783,0,0,1,0,9.414v-.3A2.282,2.282,0,0,1,.74,8.111L8.082.768A2.258,2.258,0,0,1,9.156,0Z" fill="#fff"/>
    <path id="Path_3505" data-name="Path 3505" d="M250.925,205.078A3.055,3.055,0,1,1,247.986,202,3.05,3.05,0,0,1,250.925,205.078Z" transform="translate(-238.598 -196.87)" fill="#fff"/>
  </g>
</svg>
