<svg xmlns="http://www.w3.org/2000/svg" width="19.859" height="13.54" viewBox="0 0 19.859 13.54">
  <g id="dev_status" transform="translate(0 0.001)">
    <path id="XMLID_785_" d="M2.7,30v1.354a.426.426,0,0,0,.451.451H15.338V30Zm7.673,1.354a.451.451,0,1,1,.451-.451A.426.426,0,0,1,10.373,31.354Z" transform="translate(-2.7 -21.877)" fill="#fff"/>
    <path id="XMLID_777_" d="M18.373,37.805H15.665V36H13.859v1.805H11.151a.451.451,0,0,0,0,.9h7.222a.451.451,0,1,0,0-.9Z" transform="translate(-7.089 -25.169)" fill="#fff"/>
    <path id="XMLID_784_" d="M32.7,36v2.257a.426.426,0,0,0,.451.451h5.416a.426.426,0,0,0,.451-.451V36Zm3.159,1.805a.451.451,0,1,1,.451-.451A.426.426,0,0,1,35.859,37.805Z" transform="translate(-19.159 -25.169)" fill="#fff"/>
    <path id="XMLID_754_" d="M38.567,18H33.151a.426.426,0,0,0-.451.451v4.062h1.354a.426.426,0,0,0,.451-.451V20.437l-.135.135a.447.447,0,1,1-.632-.632l.9-.9c.045-.045.09-.09.135-.09a.494.494,0,0,1,.361,0c.045.045.09.045.135.09l.9.9a.436.436,0,0,1,0,.632.436.436,0,0,1-.632,0l-.135-.135v1.625a1.33,1.33,0,0,1-1.354,1.354H32.7v1.805h6.319v-6.77A.426.426,0,0,0,38.567,18Z" transform="translate(-19.159 -15.293)" fill="#fff"/>
    <path id="XMLID_772_" d="M13.984,14.708a.426.426,0,0,0-.451.451v1.625l.135-.135a.447.447,0,0,1,.632.632l-.9.9c-.045.045-.09.09-.135.09-.045.045-.09.045-.181.045s-.135,0-.181-.045-.09-.045-.135-.09l-.9-.9a.447.447,0,1,1,.632-.632l.135.135V15.159a1.33,1.33,0,0,1,1.354-1.354h4.062V12.451A.426.426,0,0,0,17.594,12H3.151a.426.426,0,0,0-.451.451v6.77H15.338V15.159a1.335,1.335,0,0,1,.09-.451Z" transform="translate(-2.7 -12.001)" fill="#fff"/>
  </g>
</svg>
