<svg xmlns="http://www.w3.org/2000/svg" width="25.055" height="15.484" viewBox="0 0 25.055 15.484">
  <g id="lorawan" transform="translate(0 -0.004)">
    <g id="Layer_1" data-name="Layer 1" transform="translate(0 0.004)">
      <path id="Path_3506" data-name="Path 3506" d="M345.812,99.167c.337.589.66,1.154.984,1.719l.516.9c.1.176.078.215-.128.215-.556,0-1.112,0-1.667,0a.26.26,0,0,1-.257-.156c-.375-.688-.756-1.369-1.134-2.053a.065.065,0,0,1-.008-.015c-.066-.3-.286-.332-.541-.318a4.093,4.093,0,0,1-.464,0c-.154-.009-.214.044-.213.206.007.715,0,1.429.007,2.144,0,.14-.03.2-.177.194-.493-.006-.985,0-1.478,0-.125,0-.181-.028-.18-.172q.008-3.345,0-6.69c0-.275,0-.277.275-.277,1.135,0,2.269-.008,3.4,0a2.91,2.91,0,0,1,1.335.266,1.939,1.939,0,0,1,.857.784,2.507,2.507,0,0,1,.175,2.011,1.867,1.867,0,0,1-1.088,1.148C345.966,99.1,345.9,99.129,345.812,99.167Zm-2.865-2.894a1.655,1.655,0,0,0-.042.249c0,.463,0,.925,0,1.388,0,.123.046.175.172.174.516,0,1.031.008,1.545-.007a.776.776,0,0,0,.626-.337,1.128,1.128,0,0,0,.11-.876.669.669,0,0,0-.647-.584c-.584-.019-1.167-.006-1.762-.006Z" transform="translate(-329.344 -91.601)" fill="#fff"/>
      <path id="Path_3507" data-name="Path 3507" d="M542.2,147.145c-.128.092-.223.172-.33.234a2.3,2.3,0,0,1-2.072.216,1.487,1.487,0,0,1-.982-1.53,1.639,1.639,0,0,1,1.186-1.57,9.3,9.3,0,0,1,1.873-.407c.147-.023.217-.062.191-.224-.016-.1.015-.206,0-.306-.044-.357-.422-.425-.739-.422a1.506,1.506,0,0,0-.25.049.546.546,0,0,0-.425.465c-.041.163-.131.2-.284.2-.372-.008-.745,0-1.117,0-.141,0-.2-.037-.19-.2a1.479,1.479,0,0,1,1.219-1.426,4.12,4.12,0,0,1,2.549.123,1.134,1.134,0,0,1,.788.977c.039.407.024.819.034,1.229.005.194.02.387.024.581.014.684.023,1.368.039,2.051a.948.948,0,0,0,.055.25c.032.1,0,.156-.106.157-.413,0-.825.005-1.238-.006-.056,0-.13-.076-.159-.134A1.306,1.306,0,0,1,542.2,147.145Zm-.1-1.719-.043-.012c0-.057,0-.114,0-.172.013-.151-.037-.192-.189-.141-.227.078-.465.122-.69.2a2.677,2.677,0,0,0-.6.279.519.519,0,0,0,.03.834.979.979,0,0,0,1.32-.416c.071-.188.116-.385.173-.577Z" transform="translate(-520.293 -137.189)" fill="#fff"/>
      <path id="Path_3508" data-name="Path 3508" d="M153.021,145.38a2.873,2.873,0,0,1-.181,1.138,2.21,2.21,0,0,1-.881,1.108,3.186,3.186,0,0,1-2.446.45,2.586,2.586,0,0,1-1.788-1.188,2.452,2.452,0,0,1-.375-1.233,4.861,4.861,0,0,1,.077-1.175,2.34,2.34,0,0,1,1.144-1.576,3.28,3.28,0,0,1,2.342-.341,2.466,2.466,0,0,1,1.834,1.352,4.564,4.564,0,0,1,.269,1.053A2.057,2.057,0,0,1,153.021,145.38Zm-1.593-.078a6.892,6.892,0,0,0-.118-.705,1.083,1.083,0,0,0-1.068-.83,1.05,1.05,0,0,0-1.146.764,2.349,2.349,0,0,0-.086,1.232,1.352,1.352,0,0,0,.406.83,1.208,1.208,0,0,0,1.224.2,1,1,0,0,0,.464-.35A1.917,1.917,0,0,0,151.428,145.3Z" transform="translate(-142.279 -137.588)" fill="#fff"/>
      <path id="Path_3509" data-name="Path 3509" d="M1.833,97.6v2.556c0,.213.01.223.224.223H4.309c.285,0,.281,0,.278.278,0,.378-.007.755,0,1.132,0,.131-.042.172-.166.172q-2.131,0-4.263,0c-.13,0-.16-.053-.16-.177Q.006,98.491,0,95.2v-.12c-.009-.256-.01-.257.241-.257H1.619c.213,0,.217.013.216.223,0,.852,0,1.7,0,2.556Z" transform="translate(0 -91.56)" fill="#fff"/>
      <path id="Path_3510" data-name="Path 3510" d="M110.345.95a7.1,7.1,0,0,0-3.211.764c-.161.085-.319.178-.478.268-.09.052-.172.06-.241-.034-.121-.172-.241-.349-.363-.52-.075-.106-.044-.169.059-.235a7.349,7.349,0,0,1,1.919-.859,7.524,7.524,0,0,1,4.409,0,7.406,7.406,0,0,1,1.933.874c.216.138.224.156.076.368-.1.14-.2.275-.3.418-.069.1-.135.111-.243.052a9,9,0,0,0-1.081-.553,9.928,9.928,0,0,0-1.429-.413A9.017,9.017,0,0,0,110.345.95Z" transform="translate(-102.367 -0.004)" fill="#fff"/>
      <path id="Path_3511" data-name="Path 3511" d="M110.186,391.734a8.03,8.03,0,0,1-3.809-1.022c-.138-.081-.278-.158-.415-.241-.081-.048-.141-.11-.073-.208.128-.182.26-.361.388-.542.069-.095.138-.094.234-.034a6.4,6.4,0,0,0,1.774.806,5.111,5.111,0,0,0,1.481.237c.456-.013.916.017,1.366-.041a6.081,6.081,0,0,0,2.207-.715c.154-.086.307-.177.466-.252a.164.164,0,0,1,.153.029c.134.172.256.35.381.528.083.118.062.2-.069.275a7.588,7.588,0,0,1-2.04.88c-.481.121-.977.177-1.469.251C110.566,391.721,110.364,391.721,110.186,391.734Z" transform="translate(-102.22 -376.25)" fill="#fff"/>
      <path id="Path_3512" data-name="Path 3512" d="M137.7,354.811a6.2,6.2,0,0,1-3-.69c-.165-.091-.328-.184-.494-.273-.111-.059-.106-.133-.042-.223.089-.126.18-.25.261-.381.064-.1.133-.106.228-.046a5.061,5.061,0,0,0,1.238.577,5.306,5.306,0,0,0,2.218.206,5.211,5.211,0,0,0,2.091-.721c.095-.057.153-.045.212.046.072.11.156.211.232.318.112.158.1.221-.059.317a5.56,5.56,0,0,1-1.725.691C138.4,354.726,137.942,354.775,137.7,354.811Z" transform="translate(-129.505 -341.017)" fill="#fff"/>
      <path id="Path_3513" data-name="Path 3513" d="M137.174,49a6.166,6.166,0,0,1,3.243.94c.119.077.145.147.061.261s-.174.241-.258.363-.167.05-.254.01a13.306,13.306,0,0,0-1.265-.562,4.324,4.324,0,0,0-1.863-.2c-.272.031-.548.049-.815.105a5.152,5.152,0,0,0-1.556.619c-.116.069-.169.05-.234-.05a3.254,3.254,0,0,0-.247-.351c-.1-.122-.051-.2.06-.257.206-.112.409-.229.622-.326a5.808,5.808,0,0,1,2.137-.52C136.949,49.023,137.091,49.006,137.174,49Z" transform="translate(-129.327 -47.316)" fill="#fff"/>
      <path id="Path_3514" data-name="Path 3514" d="M166.224,97.418a3.293,3.293,0,0,1-.323.388c-.031.029-.158-.022-.226-.062a3.768,3.768,0,0,0-2.584-.439,3.038,3.038,0,0,0-1.125.4c-.193.12-.213.109-.342-.077-.222-.322-.221-.325.138-.5a4.355,4.355,0,0,1,2.376-.477,5.007,5.007,0,0,1,1.115.255,6.632,6.632,0,0,1,.859.413A.639.639,0,0,1,166.224,97.418Z" transform="translate(-155.921 -93.309)" fill="#fff"/>
      <path id="Path_3515" data-name="Path 3515" d="M164.356,320.144a4.774,4.774,0,0,1-2.466-.644c-.115-.065-.141-.142-.056-.249a.319.319,0,0,0,.019-.029c.2-.326.206-.318.541-.141a3.611,3.611,0,0,0,2.866.284,7,7,0,0,0,.8-.333.155.155,0,0,1,.23.06c.034.053.069.105.107.155.153.2.147.229-.086.349A4.724,4.724,0,0,1,164.356,320.144Z" transform="translate(-156.222 -307.995)" fill="#fff"/>
      <path id="Path_3516" data-name="Path 3516" d="M676.373,140.856a4.878,4.878,0,0,1,.177-.495c.029-.061.126-.088.193-.13a.52.52,0,0,1,.083.174c.013.216.016.434.01.65,0,.052-.056.1-.087.155a.487.487,0,0,1-.08-.155c-.012-.124,0-.249,0-.429-.069.175-.113.309-.174.435a.781.781,0,0,1-.134.155.739.739,0,0,1-.144-.15c-.053-.1-.084-.21-.147-.317a1.713,1.713,0,0,1,0,.294.555.555,0,0,1-.1.167.52.52,0,0,1-.08-.172c-.01-.159,0-.319,0-.479s-.117-.153-.228-.157-.138.072-.138.167v.463c0,.087,0,.2-.126.172-.041-.008-.083-.116-.088-.18-.011-.147,0-.3,0-.445,0-.114-.04-.182-.175-.176-.045,0-.093-.054-.14-.084.039-.033.075-.09.116-.094.181-.014.364-.016.546-.016.1,0,.2.021.3.018.19,0,.211.147.259.27s.078.237.117.355Z" transform="translate(-651.785 -135.39)" fill="#fff"/>
      <ellipse id="Ellipse_521" data-name="Ellipse 521" cx="1.641" cy="0.012" rx="1.641" ry="0.012" transform="translate(1.497 8.721)" fill="#fff"/>
      <ellipse id="Ellipse_522" data-name="Ellipse 522" cx="0.742" cy="0.012" rx="0.742" ry="0.012" transform="translate(18.812 6.697)" fill="#fff"/>
    </g>
  </g>
</svg>
