<svg xmlns="http://www.w3.org/2000/svg" width="1165" height="330.977" viewBox="0 0 1165 330.977">
  <g id="MONNIT_CLOUD" transform="translate(-3498 -2311)">
    <path id="Path_10032" data-name="Path 10032" d="M285,161H232Q222,120,212,79h-2c-.639,1.234-1.64,1.435-2,2v2h-1v2l-2,1v2l-2,1v2l-2,1q-1,3-2,6h-1q-.5,1.5-1,3l-2,1v2h-1v2l-2,1q-.5,2-1,4h-1l-1,3-2,1v2h-1v2l-2,1-1,4-2,1-1,4-2,1v2l-2,1-1,4-2,1c-.733,1.134-.87,4.378-2,5H114q-3-5.5-6-11l-2-1-1-4h-1l-1-3-2-1v-2l-2-1-1-4-2-1v-2H95v-2l-3-2-1-4-2-1q-.5-2-1-4l-2-1a23.775,23.775,0,0,0-5-8q7.5-35,15-70v1h1q3.5,6.5,7,13l2,1,2,6,2,1v2l2,1q.5,2,1,4h1q.5,1.5,1,3l2,1v2h1v2l2,1q.5,2,1,4l2,1q.5,2,1,4l2,1v2h1v2l2,1v2l2,1q.5,2,1,4l2,1v2l2,1q1,3,2,6l2,1v2c.4.6,1.334.805,2,2,1.135-.845.146.126,1-1,2.255-1.532,4.618-5.608,6-8V85l3-2V81h1l1-4h1q.5-1.5,1-3l2-1,1-4h1V67l2-1V64l2-1q1-3,2-6h1q.5-1.5,1-3l2-1q1-3,2-6l2-1V44l2-1,1-4,2-1q.5-2,1-4l2-1,1-3h1q1-3,2-6l3-2q1-3,2-6l2-1V13l8-7,1-2,4-1V2h3V1h7c7.43-.012,12.521,1.38,17,4q.5,1,1,2h2l2,3h1v2l2,1v2l2,1c1.273,2.691,1.331,5.548,2,8h1v3h1v4h1q.5,3.5,1,7h1q.5,3.5,1,7h1v3h1v3h1v4h1v3h1v3h1v5h1v3h1v3h1v3h1v4h1v3h1v4h1v3h1q.5,3.5,1,7h1l2,10h1q.5,4,1,8h1v3h1v3h1v4h1v3h1v3h1q.5,3.5,1,7h1q.5,3.5,1,7h1v4h1Q283.5,154.5,285,161ZM353,1c14.381-.152,32.756-.554,44,2h5V4h3V5h2V6h3V7h2V8h2V9h2v1h2v1h2l2,3h2l2,3h2l4,5q2,1.5,4,3v2l3,2v2q1,.5,2,1,.5,1.5,1,3h1v2l2,1q.5,2.5,1,5h1q.5,2,1,4h1v3h1v3h1v3h1v5c3.113,10.211,4.361,25.893,1,37v5h-1v5h-1v3h-1v2h-1v3h-1v3h-1l-1,4h-1l-1,4-2,1v2l-2,1v2q-1,.5-2,1v2l-9,8-3,4h-2l-2,3h-2q-.5,1-1,2h-2v1h-2v1h-2v1h-2v1h-2v1h-3c-9.634,3.825-21.223,5-35,5H357v-1h-9v-1h-3v-1h-3v-1h-3v-1h-3v-1l-6-2v-1h-2v-1l-3-1-1-2h-2l-2-3h-2l-7-8-6-5v-2l-2-1-1-3h-1v-2l-2-1q-.5-1.5-1-3h-1v-3h-1v-2l-2-1q-.5-3-1-6h-1v-2h-1l-1-7c-3.03-11.684-3.713-27.321,0-39V57h1q.5-3,1-6h1V49h1q1.5-4.5,3-9l2-1q.5-2,1-4,1-.5,2-1l1-3,3-2V27l6-5,4-5h2q1-1.5,2-3h2q.5-1,1-2h2q.5-1,1-2l17-7C346.616,1.848,350.527,3.19,353,1ZM82,3h7V4c-2.462,2.637-.771,4.217-2,8H86v4H85v4H84q-.5,5-1,10H82c-1.057,3.131-.036,6.871-2,9-2.168,1.917-9.123,1-13,1H32V39c2.32-2.32.844-4.788,2-8h1V28h1V24h1V20h1l1-7h1c1.125-3.148-.079-5.82,2-8,1.719-1.474,5.794-.6,9-1H73C76.2,3.995,80.289,4.482,82,3ZM615,89V4h49V121c0,14.815,2.644,35.853-9,39-2.484,2.8-3.1.842-7,2v1h-8v-1h-6v-1l-6-2v-1h-2l-1-2-4-1-1-2h-2l-1-2-3-2v-1h-2l-4-5h-2l-2-3-3-1q-3-3.5-6-7h-2l-2-3-3-1q-3-3.5-6-7h-2q-1.5-2-3-4h-2l-4-5h-2q-3-3.5-6-7h-2l-3-4h-2q-3-3.5-6-7h-2l-3-4h-2l-4-5h-2q-1-1.5-2-3l-9-7v86c-4.088,1.5-11.357,1-17,1H477V53c0-8.626-1.857-33.833,2-38V13h1q3-3.5,6-7h2c2.522-2.516,7.935-2.016,13-2,10.267.311,14.995,3.746,21,8l2,3h2q1,1.5,2,3h1l1,2h2l5,6h2q2,2.5,4,5h2l2,3,3,1q3,3.5,6,7h2q1,1.5,2,3l3,1q3,3.5,6,7h2q1.5,2,3,4h2l4,5h2q3,3.5,6,7h2q1.5,2,3,4h2q3,3.5,6,7h2q1.5,2,3,4h2v1C610.371,86.978,611.53,88.418,615,89ZM828,4h50v98c0,13.49,2.217,41.771-2,51h-1v2q-4,3.5-8,7l-14,1v-1h-5v-1h-3v-1l-6-2v-1h-2l-2-3h-2q-2-2.5-4-5h-2q-1.5-2-3-4h-2q-2.5-3-5-6h-2l-2-3h-1l-1-2h-2q-2.5-3-5-6h-2q-.5-1-1-2h-1l-1-2h-2l-4-5h-2l-5-6h-2l-4-5h-2q-2.5-3-5-6h-2q-1.5-2-3-4h-2l-4-5h-2l-5-6h-2q-1.5-2-3-4h-2q-.5-1-1-2c-2.345-2.21-4.264-4.125-8-5v86H691V46c0-15.285-3.234-35.716,9-39,3.8-4.346,21.609-3.874,27-1l1,2h2l1,2h2l2,3h2q3,3.5,6,7h2q1.5,2,3,4h2l4,5h2l5,6h2l2,3h1l1,2h2q2.5,3,5,6h2q2,2.5,4,5h2l3,4h2q3,3.5,6,7h2l4,5h2l5,6h2l4,5h2q1.5,2,3,4h2q.5,1,1,2a31.3,31.3,0,0,0,8,6Zm79,0h48V161H907Zm96,0h162V5q-15.495,20-31,40h-47V161h-48V45H974V44c2.671-1.724,2.423-3.673,4-6l2-1V35l2-1,1-3,3-2V27l3-2,1-3,2-1V19l2-1V16l3-2q.5-1.5,1-3l2-1c.331-1,.671-2,1-3h1C1002.33,6,1002.67,5,1003,4ZM344,57h-2l-7,14v6h-1a48.19,48.19,0,0,0,1,10v6h1v3h1q1,3,2,6h1v2l3,2,1,3,3,1,2,3h2q.5,1,1,2h3v1h2v1h5c10.95,3.222,25.488-.39,32-5l4-5,3-2v-2q1-.5,2-1,1.5-4.5,3-9h1q.5-8,1-16h-1V71h-1V68h-1V65h-1V63q-1-.5-2-1V60l-2-1V57l-2-1q-1.5-2-3-4l-4-1q-.5-1-1-2h-2V48l-6-1V46c-3.434-1.072-22.825.136-25,1v1h-2v1h-3q-.5,1-1,2C347.616,53.193,345.24,52.363,344,57ZM77,55c-7.666,35-15.335,70.3-23,105H0q2.5-10.5,5-21H6c.666-4,8.358-34.878,12-45V90h1V87h1V82h1q1-5.5,2-11h1V68h1V64h1c1.82-3.158-.067-5.86,2-8,2.169-1.17,9.123-1,13-1Z" transform="translate(3498 2310.118)" fill="#4a9abe" fill-rule="evenodd"/>
    <path id="Path_10033" data-name="Path 10033" d="M103.86-85.983q-2.373-1.266-5.1-2.531a46.257,46.257,0,0,0-5.972-2.254,55.8,55.8,0,0,0-7-1.622,49.4,49.4,0,0,0-8.187-.633A44.072,44.072,0,0,0,59.445-89.5,39.241,39.241,0,0,0,46.2-80.051a40.2,40.2,0,0,0-8.147,13.764,49.231,49.231,0,0,0-2.769,16.532A35.228,35.228,0,0,0,37.415-37.02a25.025,25.025,0,0,0,6.091,9.294A26.1,26.1,0,0,0,53-22.03a37.427,37.427,0,0,0,12.419,1.938,52.831,52.831,0,0,0,8.147-.593,57.674,57.674,0,0,0,7.2-1.582,61.588,61.588,0,0,0,6.447-2.254q3.045-1.266,5.814-2.689L87.645-3.085A62.945,62.945,0,0,1,74.711.672,88.372,88.372,0,0,1,58.772,1.978a60.427,60.427,0,0,1-21.278-3.52,43.847,43.847,0,0,1-15.9-10.006,43.538,43.538,0,0,1-9.927-15.543A56.526,56.526,0,0,1,8.227-47.3a79.806,79.806,0,0,1,1.9-17.442A68.056,68.056,0,0,1,15.86-80.8a61.8,61.8,0,0,1,9.65-13.882A58.289,58.289,0,0,1,39.195-105.6a69.8,69.8,0,0,1,17.877-7.159,88.81,88.81,0,0,1,22.109-2.571,80.22,80.22,0,0,1,8.859.475q4.271.475,8.147,1.226t7.159,1.661q3.283.91,5.814,1.78ZM169.883,0H102.172L126.3-113.432h25.787L132.468-21.041h41.845ZM296.26-66.6a80.413,80.413,0,0,1-1.187,13.685,78.035,78.035,0,0,1-3.52,13.329A72.7,72.7,0,0,1,285.7-27.211a60.276,60.276,0,0,1-8.187,10.837,62.157,62.157,0,0,1-8.622,7.594,52.545,52.545,0,0,1-10.165,5.774,60.363,60.363,0,0,1-11.9,3.678,69.348,69.348,0,0,1-13.843,1.305A51.206,51.206,0,0,1,212.927-1.74a42.862,42.862,0,0,1-14.911-10.244,44.238,44.238,0,0,1-9.294-15.464,57.037,57.037,0,0,1-3.2-19.38,83.214,83.214,0,0,1,1.266-14.515,72.779,72.779,0,0,1,3.836-13.764,70.58,70.58,0,0,1,6.407-12.577,63.437,63.437,0,0,1,8.9-10.956,61.113,61.113,0,0,1,8.543-6.842,58.873,58.873,0,0,1,9.888-5.26,58.444,58.444,0,0,1,11.391-3.4A68.235,68.235,0,0,1,248.8-115.33a53.808,53.808,0,0,1,19.261,3.322,41.735,41.735,0,0,1,14.99,9.611,43.66,43.66,0,0,1,9.729,15.346A56.656,56.656,0,0,1,296.26-66.6Zm-27.053.87a37.541,37.541,0,0,0-1.622-11.47,24.584,24.584,0,0,0-4.627-8.583,19.793,19.793,0,0,0-7.317-5.379,24.45,24.45,0,0,0-9.769-1.859A25.952,25.952,0,0,0,233.849-90.1a33.037,33.037,0,0,0-10.125,8.147,36.1,36.1,0,0,0-4.746,7.277,57.579,57.579,0,0,0-3.48,8.7,66.258,66.258,0,0,0-2.175,9.374,60.867,60.867,0,0,0-.751,9.453,37.541,37.541,0,0,0,1.622,11.47,23.749,23.749,0,0,0,4.627,8.5,19.947,19.947,0,0,0,7.238,5.26,23.7,23.7,0,0,0,9.453,1.819,28.106,28.106,0,0,0,12.379-2.848A29.4,29.4,0,0,0,258.212-31.4a37.866,37.866,0,0,0,4.825-7.475,54.713,54.713,0,0,0,3.4-8.662,67.882,67.882,0,0,0,2.057-9.176A59.8,59.8,0,0,0,269.207-65.733ZM401.359-46.2A114.272,114.272,0,0,1,395.268-26.1a47.379,47.379,0,0,1-9.848,15.188,40.351,40.351,0,0,1-15.227,9.571q-9.1,3.322-22.228,3.322a52.362,52.362,0,0,1-17.086-2.61,35.561,35.561,0,0,1-12.894-7.554,33.071,33.071,0,0,1-8.147-12.023,42.844,42.844,0,0,1-2.848-16.1,71.788,71.788,0,0,1,.633-9.057q.633-4.944,1.582-9.215l12.656-58.852h25.787l-12.814,59.01q-.87,4.192-1.582,8.385a43.637,43.637,0,0,0-.712,7.119,22.045,22.045,0,0,0,1.384,8.108,16.177,16.177,0,0,0,3.876,5.893,16.655,16.655,0,0,0,5.854,3.6,20.964,20.964,0,0,0,7.238,1.226,25.414,25.414,0,0,0,8.385-1.345,18.215,18.215,0,0,0,6.961-4.43,28.384,28.384,0,0,0,5.458-8.187,59.029,59.029,0,0,0,3.955-12.617l14.4-66.762h25.787ZM526.312-67.553a83.135,83.135,0,0,1-1.819,17.442A69.223,69.223,0,0,1,519-34.093,59.88,59.88,0,0,1,509.7-20.329a55.854,55.854,0,0,1-13.25,10.758,67.243,67.243,0,0,1-17.363,7.04A85.754,85.754,0,0,1,457.494,0H411.615l24.126-113.432h39.867a64.733,64.733,0,0,1,21.951,3.4,44.868,44.868,0,0,1,15.86,9.453,38.815,38.815,0,0,1,9.65,14.476A51.228,51.228,0,0,1,526.312-67.553Zm-27.053,1.978a33.85,33.85,0,0,0-1.78-11.351,21.3,21.3,0,0,0-5.458-8.5,24.482,24.482,0,0,0-9.294-5.339,42.43,42.43,0,0,0-13.289-1.859H457.019l-15.267,71.9h15.583a45.18,45.18,0,0,0,17.4-3.2,37.017,37.017,0,0,0,13.21-9.1,40.375,40.375,0,0,0,8.385-14.159A54.809,54.809,0,0,0,499.259-65.575Z" transform="translate(3816 2640)" fill="#4a9abe"/>
  </g>
</svg>
