<svg xmlns="http://www.w3.org/2000/svg" width="1165" height="331.14" viewBox="0 0 1165 331.14">
  <path id="MONNIT_ENTERPRISE" d="M285,161H232Q222,120,212,79h-2c-.639,1.234-1.64,1.435-2,2v2h-1v2l-2,1v2l-2,1v2l-2,1q-1,3-2,6h-1q-.5,1.5-1,3l-2,1v2h-1v2l-2,1q-.5,2-1,4h-1l-1,3-2,1v2h-1v2l-2,1-1,4-2,1-1,4-2,1v2l-2,1-1,4-2,1c-.733,1.134-.87,4.378-2,5H114q-3-5.5-6-11l-2-1-1-4h-1l-1-3-2-1v-2l-2-1-1-4-2-1v-2H95v-2l-3-2-1-4-2-1q-.5-2-1-4l-2-1a23.775,23.775,0,0,0-5-8q7.5-35,15-70v1h1q3.5,6.5,7,13l2,1,2,6,2,1v2l2,1q.5,2,1,4h1q.5,1.5,1,3l2,1v2h1v2l2,1q.5,2,1,4l2,1q.5,2,1,4l2,1v2h1v2l2,1v2l2,1q.5,2,1,4l2,1v2l2,1q1,3,2,6l2,1v2c.4.6,1.334.805,2,2,1.135-.845.146.126,1-1,2.255-1.532,4.618-5.608,6-8V85l3-2V81h1l1-4h1q.5-1.5,1-3l2-1,1-4h1V67l2-1V64l2-1q1-3,2-6h1q.5-1.5,1-3l2-1q1-3,2-6l2-1V44l2-1,1-4,2-1q.5-2,1-4l2-1,1-3h1q1-3,2-6l3-2q1-3,2-6l2-1V13l8-7,1-2,4-1V2h3V1h7c7.43-.012,12.521,1.38,17,4q.5,1,1,2h2l2,3h1v2l2,1v2l2,1c1.273,2.691,1.331,5.548,2,8h1v3h1v4h1q.5,3.5,1,7h1q.5,3.5,1,7h1v3h1v3h1v4h1v3h1v3h1v5h1v3h1v3h1v3h1v4h1v3h1v4h1v3h1q.5,3.5,1,7h1l2,10h1q.5,4,1,8h1v3h1v3h1v4h1v3h1v3h1q.5,3.5,1,7h1q.5,3.5,1,7h1v4h1Q283.5,154.5,285,161ZM353,1c14.381-.152,32.756-.554,44,2h5V4h3V5h2V6h3V7h2V8h2V9h2v1h2v1h2l2,3h2l2,3h2l4,5q2,1.5,4,3v2l3,2v2q1,.5,2,1,.5,1.5,1,3h1v2l2,1q.5,2.5,1,5h1q.5,2,1,4h1v3h1v3h1v3h1v5c3.113,10.211,4.361,25.893,1,37v5h-1v5h-1v3h-1v2h-1v3h-1v3h-1l-1,4h-1l-1,4-2,1v2l-2,1v2q-1,.5-2,1v2l-9,8-3,4h-2l-2,3h-2q-.5,1-1,2h-2v1h-2v1h-2v1h-2v1h-2v1h-3c-9.634,3.825-21.223,5-35,5H357v-1h-9v-1h-3v-1h-3v-1h-3v-1h-3v-1l-6-2v-1h-2v-1l-3-1-1-2h-2l-2-3h-2l-7-8-6-5v-2l-2-1-1-3h-1v-2l-2-1q-.5-1.5-1-3h-1v-3h-1v-2l-2-1q-.5-3-1-6h-1v-2h-1l-1-7c-3.03-11.684-3.713-27.321,0-39V57h1q.5-3,1-6h1V49h1q1.5-4.5,3-9l2-1q.5-2,1-4,1-.5,2-1l1-3,3-2V27l6-5,4-5h2q1-1.5,2-3h2q.5-1,1-2h2q.5-1,1-2l17-7C346.616,1.848,350.527,3.19,353,1ZM82,3h7V4c-2.462,2.637-.771,4.217-2,8H86v4H85v4H84q-.5,5-1,10H82c-1.057,3.131-.036,6.871-2,9-2.168,1.917-9.123,1-13,1H32V39c2.32-2.32.844-4.788,2-8h1V28h1V24h1V20h1l1-7h1c1.125-3.148-.079-5.82,2-8,1.719-1.474,5.794-.6,9-1H73C76.2,3.995,80.289,4.482,82,3ZM615,89V4h49V121c0,14.815,2.644,35.853-9,39-2.484,2.8-3.1.842-7,2v1h-8v-1h-6v-1l-6-2v-1h-2l-1-2-4-1-1-2h-2l-1-2-3-2v-1h-2l-4-5h-2l-2-3-3-1q-3-3.5-6-7h-2l-2-3-3-1q-3-3.5-6-7h-2q-1.5-2-3-4h-2l-4-5h-2q-3-3.5-6-7h-2l-3-4h-2q-3-3.5-6-7h-2l-3-4h-2l-4-5h-2q-1-1.5-2-3l-9-7v86c-4.088,1.5-11.357,1-17,1H477V53c0-8.626-1.857-33.833,2-38V13h1q3-3.5,6-7h2c2.522-2.516,7.935-2.016,13-2,10.267.311,14.995,3.746,21,8l2,3h2q1,1.5,2,3h1l1,2h2l5,6h2q2,2.5,4,5h2l2,3,3,1q3,3.5,6,7h2q1,1.5,2,3l3,1q3,3.5,6,7h2q1.5,2,3,4h2l4,5h2q3,3.5,6,7h2q1.5,2,3,4h2q3,3.5,6,7h2q1.5,2,3,4h2v1C610.371,86.978,611.53,88.418,615,89ZM828,4h50v98c0,13.49,2.217,41.771-2,51h-1v2q-4,3.5-8,7l-14,1v-1h-5v-1h-3v-1l-6-2v-1h-2l-2-3h-2q-2-2.5-4-5h-2q-1.5-2-3-4h-2q-2.5-3-5-6h-2l-2-3h-1l-1-2h-2q-2.5-3-5-6h-2q-.5-1-1-2h-1l-1-2h-2l-4-5h-2l-5-6h-2l-4-5h-2q-2.5-3-5-6h-2q-1.5-2-3-4h-2l-4-5h-2l-5-6h-2q-1.5-2-3-4h-2q-.5-1-1-2c-2.345-2.21-4.264-4.125-8-5v86H691V46c0-15.285-3.234-35.716,9-39,3.8-4.346,21.609-3.874,27-1l1,2h2l1,2h2l2,3h2q3,3.5,6,7h2q1.5,2,3,4h2l4,5h2l5,6h2l2,3h1l1,2h2q2.5,3,5,6h2q2,2.5,4,5h2l3,4h2q3,3.5,6,7h2l4,5h2l5,6h2l4,5h2q1.5,2,3,4h2q.5,1,1,2a31.3,31.3,0,0,0,8,6Zm79,0h48V161H907Zm96,0h162V5q-15.495,20-31,40h-47V161h-48V45H974V44c2.671-1.724,2.423-3.673,4-6l2-1V35l2-1,1-3,3-2V27l3-2,1-3,2-1V19l2-1V16l3-2q.5-1.5,1-3l2-1c.331-1,.671-2,1-3h1C1002.33,6,1002.67,5,1003,4ZM344,57h-2l-7,14v6h-1a48.19,48.19,0,0,0,1,10v6h1v3h1q1,3,2,6h1v2l3,2,1,3,3,1,2,3h2q.5,1,1,2h3v1h2v1h5c10.95,3.222,25.488-.39,32-5l4-5,3-2v-2q1-.5,2-1,1.5-4.5,3-9h1q.5-8,1-16h-1V71h-1V68h-1V65h-1V63q-1-.5-2-1V60l-2-1V57l-2-1q-1.5-2-3-4l-4-1q-.5-1-1-2h-2V48l-6-1V46c-3.434-1.072-22.825.136-25,1v1h-2v1h-3q-.5,1-1,2C347.616,53.193,345.24,52.363,344,57ZM77,55c-7.666,35-15.335,70.3-23,105H0q2.5-10.5,5-21H6q1-6,2-12c3.665-10.112,6.358-22.877,10-33V90h1V87h1V82h1q1-5.5,2-11h1V68h1V64h1c1.82-3.158-.067-5.86,2-8,2.169-1.17,9.123-1,13-1ZM958,252h-5v1H931q-.5-4-1-8h-1v-2h-1q-.5-1.5-1-3l-6-2v-1c-4.405-1.552-18.243.577-20,2l-1,3c-2.118,2.215-.535,6.491,0,9l8,5,4,1v1l4,1v1h2v1h3v1l4,1v1h2v1h2v1h2v1h2v1h2v1l3,1,1,2h2q1.5,2,3,4h1v2l2,1v2h1v2h1v4h1v5h1q-1,7.5-2,15h-1l-1,4h-1v2l-2,1v2q-2,1.5-4,3-2.5,3-5,6l-4,1v1l-6,2v1c-5.545,2.381-14.255,2-22,2l-17-1c-17.464-5.58-28.353-17.116-28-41h5v-1h8a82.9,82.9,0,0,0,14-1c-.262,7.711.973,16.508,7,18,1.758,1.813,16.336,3.463,21,2v-1h4l1-2h2v-2l2-1v-9l-3-2v-1l-6-2v-1h-2v-1l-6-2v-1h-3v-1l-4-1v-1h-3l-1-2-6-2q-.5-1-1-2h-2v-1h-2l-2-3q-2.5-2-5-4v-2h-1l-1-4h-1v-3h-1v-6h-1v-6h1v-5h1v-3h1v-3h1v-2h1v-2l4-3q3-3.5,6-7c8.791-5.887,27.415-8.849,40-5h5C945.1,219.866,958.2,232.71,958,252ZM100,215h87c-.074,4.988-1.812,9.328-3,13s.255,7.612-2,10c-2.414,2.126-10.773,1-15,1H124v1h-1c-.26,7.61-2.806,11.278-3,19h56c-.32,5.951-2.542,13.551-4,18v5h-1c-2.413,2.126-10.773,1-15,1H114q-2.5,12-5,24h63c.41,4.515-3.086,21.137-5,23-2.485,2.173-18.37,1-24,1H76Q88,273.006,100,215Zm157,63c.15-6.6,2.311-12.742,4-18q1-7.5,2-15,3.5-15,7-30h26a43.973,43.973,0,0,1-3,14v5h-1v5h-1l-1,9h-1v4h-1q-.5,5-1,10c-3.745,11.847-5.253,26.345-9,38v5h-1v5h-1v5h-1v5h-1c-1.158,3.694.235,7.6-2,10-2.346,2.108-19.1,1.86-25,1-.448-1.191-.473-2.7-1-4h-1v-3h-1l-1-4h-1q-.5-3-1-6h-1q-.5-2-1-4h-1q-.5-3-1-6h-1v-2h-1v-3h-1q-.5-2-1-4h-1v-3h-1v-2h-1v-3h-1v-2h-1q-.5-2.5-1-5h-1q-.5-3-1-6c-1.239-2.8-2.415-2.487-3-7h-3q-6.5,32-13,64H179q3.5-17.5,7-35h1l1-10c3.776-11.479,5.289-26.143,9-38v-5h1v-5h1v-5h1v-5h1v-5h1q.5-3.5,1-7h1c2.308-2.077,19.1-1.086,24-1,8.665,21,17.334,42.2,26,63Zm50-63h92c-.221,8.367-3.447,16.665-5,24H362c-.012,5.705-1.685,9.9-3,14v5h-1v5h-1q-.5,4.5-1,9h-1v4h-1q-1,8-2,16c-3.691,12.281-6.432,26.194-9,39H315c.514-7.011,3.105-15.074,5-21q1.5-10.5,3-21h1l1-9h1v-4h1q.5-4.5,1-9h1v-5a77.8,77.8,0,0,0,4-23H302Q304.5,227,307,215Zm101,0h87c-.349,5.753-2.4,13.126-4,18v5h-1c-2.535,2.232-11.6,1-16,1H431c-.58,6.828-2.865,11.952-3,20h56l-5,24H422c-1.408,7.757-4.662,15.108-5,24h63c-.074,4.989-1.812,9.329-3,13s.255,7.613-2,10c-2.485,2.173-18.37,1-24,1H384Q396,273.006,408,215Zm103,0h40c6.83,0,15.783-.522,21,1h6v1c2.735.991,5.746.609,8,2l1,2h2l1,2,5,4,1,4h1q.5,2,1,4h1q.5,10,1,20h-1v4h-1v3c-2.169,4.934-6.381,8.453-10,12q-1,1.5-2,3l-15,6v4c4.442,2.775,5.672,8.978,8,14h1v2h1v2h1v2h1q1,3,2,6h1v3h1v2h1v3h1q1.5,5,3,10H563l-1-3h-1v-3h-1v-3h-1v-2h-1q-.5-3-1-6h-1q-.5-2-1-4h-1v-3h-1l-1-4h-1v-3h-1v-2h-1v-2h-1v-2h-1v-2l-5-4-1-2h-4c-1.35-1.783-8.393-1.1-12-1v1h-1c-.017,4.235-1.1,7.109-2,10l-1,10c-2.273,7.341-5.093,17.3-6,25H487Q499,273.006,511,215ZM626,331H597v-1c2.178-2.574.814-6.342,2-10h1v-4h1v-4h1v-5c3.344-10.333,4.559-23.823,8-34v-4h1q.5-4.5,1-9h1v-5h1v-6h1v-5h1v-5h1v-5h1v-4h1v-4h1c1.187-3.694-.236-7.586,2-10,2.412-2.126,10.774-1,15-1h40c2.326,1.987,6.876.745,10,2v1l6,2,1,2,7,6v2h1v2h1c1.444,3.291,3.673,16.477,2,22h-1v4h-1v3h-1q-1.5,4.5-3,9-1,.5-2,1c-12.556,18.589-31.254,18.353-62,18-.844,1.134.127.145-1,1-.146,5.9-1.816,9.3-3,13q-.5,5-1,10C628.324,318.2,626.431,324.464,626,331Zm99-116h39c6.839,0,15.772-.5,21,1h7v1h3v1h2v1l5,1,1,2,5,4v2l2,1,1,4h1v3h1v3h1v16h-1q-.5,3-1,6h-1q-1,3-2,6l-2,1v2l-5,4-2,3-15,6v4c2.4,1.641.631.758,2,3h1v2l2,1v2h1v2h1v2h1v2h1l2,6h1v3h1v2h1v2h1v2h1v3h1l4,12H776c-1.314-8.457-5.489-16.132-9-23q-1.5-5-3-10l-2-1v-2h-1v-2h-1c-1.809-3.1-2.066-5.012-6-6-2.545-2.442-9.828-2.1-15-2-.845,1.135.126.146-1,1-3,15-6,30.1-9,45H701c.11-5.7,1.683-9.03,3-14v-5h1q.5-4.5,1-9h1v-4h1v-5h1v-6h1v-5h1v-5h1v-5h1v-4h1v-4h1v-5h1q.5-4.5,1-9h1v-5h1q.5-5.5,1-11A186.414,186.414,0,0,0,725,215Zm138,0q-4,17.5-8,35-.5,5-1,10c-3.768,11.926-5.278,26.112-9,38v5h-1v5h-1v5h-1v5h-1v4h-1c-1.2,3.7.518,5.517-2,8-2.421,2.17-21.764,1.84-27,1-.007-5.687,1.653-10.7,3-15v-5h1v-5h1v-5h1v-5h1v-4h1v-5h1v-4h1v-5c2.8-8.857,4.7-20.348,7-29v-4h1v-6h1v-4h1v-5h1v-5h1c1.137-3.62-.313-6.59,2-9C837.457,213.8,857.65,214.915,863,215Zm118,0h87q-2.505,12-5,24h-59c-.28,7.539-2.85,11.76-3,20h56q-2.505,12-5,24H995c-1.389,8.249-4.654,15.52-5,24h63c.4,4.457-3.19,21.136-5,23-2.48,2.173-18.37,1-24,1H957Q969,273.006,981,215ZM530,263c16.263.416,30.26,1.357,38-7l2-1c.844-1.272,3.167-8.07,2-11-2.674-6.718-26.547-5.267-37-5v1h-1Q532,251.5,530,263Zm115-24q-2.5,13-5,26c12.355.367,31.632.1,34-9,3.948-3.234,3.79-8.694,2-14l-3-1C669.592,237.582,652.179,238.9,645,239Zm99,24c10-.334,20.1-.667,30-1v-1l6-2c2.7-4.681,5.82-6.249,6-14-1.138-1.139-.4,0-1-2-3.122-1.816-3.388-2.819-9-3-2.42-2.171-21.763-1.085-27-1-.845,1.135.126.146-1,1C747.344,247.978,744.231,254.23,744,263Z" transform="translate(0 -0.882)" fill="#4a9abe" fill-rule="evenodd"/>
</svg>
