<svg id="my_devices" data-name="my devices" xmlns="http://www.w3.org/2000/svg" width="20.246" height="15.209" viewBox="0 0 20.246 15.209">
  <g id="Layer_1" data-name="Layer 1">
    <path id="Path_3520" data-name="Path 3520" d="M15.694,0a3.4,3.4,0,0,1,.478.162,1.272,1.272,0,0,1,.746,1.167c.008.27,0,.541,0,.812,0,.13-.054.184-.182.181q-.295-.007-.589,0c-.124,0-.166-.056-.166-.173q0-.366,0-.732a.423.423,0,0,0-.425-.469A2.284,2.284,0,0,0,15.315.94H1.6c-.519,0-.655.133-.654.646q.013,4.935.026,9.87c0,.391.133.525.524.525H9.379c.38,0,.344-.031.346.355,0,.142,0,.284,0,.426,0,.123-.05.173-.17.166-.067,0-.136,0-.2,0H1.65A1.408,1.408,0,0,1,0,11.741V1.219c.02-.064.04-.128.059-.192A1.35,1.35,0,0,1,.97.077C1.053.05,1.137.026,1.22,0Z" fill="#fff"/>
    <path id="Path_3521" data-name="Path 3521" d="M388.757,98.96v3.453a1.36,1.36,0,0,1-1.447,1.451h-1.992c-.264,0-.264,0-.266-.274v-.366c0-.3,0-.3.3-.3h1.91c.405,0,.552-.145.552-.551q0-3.4,0-6.8c0-.411-.154-.561-.568-.561h-4.552c-.419,0-.56.143-.561.563,0,.7,0,1.395,0,2.092,0,.178-.054.245-.233.233a5.277,5.277,0,0,0-.528,0c-.125,0-.186-.038-.185-.173,0-.8-.012-1.6.01-2.4a1.321,1.321,0,0,1,1.294-1.247q2.479-.017,4.959,0a1.337,1.337,0,0,1,1.3,1.374c.006,1.171,0,2.342,0,3.513Z" transform="translate(-368.512 -90.937)" fill="#fff"/>
    <path id="Path_3522" data-name="Path 3522" d="M316.274,236.714c0-.778,0-1.557,0-2.335a1.339,1.339,0,0,1,1.395-1.4q1.219-.007,2.438,0a1.337,1.337,0,0,1,1.385,1.385c0,1.563-.006,3.126.006,4.69a1.379,1.379,0,0,1-1.392,1.381c-.831-.033-1.666-.007-2.5-.008a1.317,1.317,0,0,1-1.333-1.323c-.006-.8,0-1.6,0-2.395Zm4.269,0h0v-2.275c0-.359-.149-.512-.5-.513q-1.159,0-2.318,0c-.354,0-.505.153-.505.51v4.55c0,.357.148.5.511.5h2.3c.371,0,.514-.145.514-.519Q320.544,237.844,320.543,236.717Z" transform="translate(-305.751 -225.231)" fill="#fff"/>
  </g>
</svg>
