<svg xmlns="http://www.w3.org/2000/svg" width="15.27" height="15.27" viewBox="0 0 15.27 15.27">
  <g id="network_tools" transform="translate(-0.001)">
    <path id="Path_1711" data-name="Path 1711" d="M3.257.529A2.74,2.74,0,0,0,.529,3.257v9.813A2.74,2.74,0,0,0,3.257,15.8h9.813A2.74,2.74,0,0,0,15.8,13.071V3.257A2.74,2.74,0,0,0,13.071.529Zm0,1.528h9.813a1.182,1.182,0,0,1,1.2,1.2v9.813a1.182,1.182,0,0,1-1.2,1.2H3.257a1.182,1.182,0,0,1-1.2-1.2V3.257A1.182,1.182,0,0,1,3.257,2.057Z" transform="translate(-0.529 -0.529)" fill="#fff"/>
    <path id="Path_1712" data-name="Path 1712" d="M6.122,1.323A1.758,1.758,0,0,0,4.377,3.068v.546H3.068A1.758,1.758,0,0,0,1.323,5.359v4.91a1.758,1.758,0,0,0,1.745,1.745h7.2a1.758,1.758,0,0,0,1.745-1.745V5.359a1.758,1.758,0,0,0-1.745-1.745H8.959V3.068A1.758,1.758,0,0,0,7.214,1.323Zm0,1.527H7.214a.2.2,0,0,1,.218.218V4.377a.764.764,0,0,0,.763.764h2.073a.2.2,0,0,1,.218.218v4.91a.2.2,0,0,1-.218.218h-7.2a.2.2,0,0,1-.218-.218V5.359a.2.2,0,0,1,.218-.218H5.141A.764.764,0,0,0,5.9,4.377V3.068a.2.2,0,0,1,.218-.218Z" transform="translate(0.968 0.967)" fill="#fff"/>
    <path id="Path_1713" data-name="Path 1713" d="M2.087,1.322a.764.764,0,0,0,0,1.528h.761a.764.764,0,0,0,0-1.528Zm8.4,0a.764.764,0,1,0,0,1.528h.761a.764.764,0,1,0,0-1.528Z" transform="translate(0.969 0.966)" fill="#fff"/>
  </g>
</svg>
