<svg xmlns="http://www.w3.org/2000/svg" width="20.965" height="20.965" viewBox="0 0 20.965 20.965">
  <g id="info" transform="translate(-1727 -148.035)">
    <rect id="Rectangle_3138" data-name="Rectangle 3138" width="5" height="14" transform="translate(1735 152)" fill="none"/>
    <path id="Path_3284" data-name="Path 3284" d="M9.482,0a9.482,9.482,0,1,0,9.482,9.482A9.483,9.483,0,0,0,9.482,0Z" transform="translate(1728 149.035)" fill="none" stroke="#3693ff" stroke-width="2"/>
    <path id="Path_3451" data-name="Path 3451" d="M8.3,7.139a.945.945,0,1,1,1.891,0v5.727a.945.945,0,1,1-1.891,0Zm.945-2.673a.946.946,0,1,1,.946-.945A.946.946,0,0,1,9.242,4.465Z" transform="translate(1728.24 150.324)" fill="#3693ff" stroke="#3693ff" stroke-width="1"/>
  </g>
</svg>
