<svg xmlns="http://www.w3.org/2000/svg" width="32.785" height="32.785" viewBox="0 0 32.785 32.785">
  <g id="Refresh_2" data-name="Refresh 2" transform="translate(-92.154 -627.615) rotate(60)">
    <path id="Path_3666" data-name="Path 3666" d="M0,0H24V24H0Z" transform="translate(600 216)" fill="none"/>
    <path id="Path_3553" data-name="Path 3553" d="M5.979,14.668A6.577,6.577,0,0,0,8.3,19.7V16.654a.993.993,0,1,1,1.986,0v5.3a.993.993,0,0,1-.993.993h-5.3a.993.993,0,0,1,0-1.986H6.722a8.552,8.552,0,0,1-2.729-6.29A8.657,8.657,0,0,1,11.852,6.1a.993.993,0,0,1,.171,1.979,6.658,6.658,0,0,0-6.044,6.591ZM21.207,6.392h-5.3a.993.993,0,0,0-.993.993v5.3a.993.993,0,0,0,1.986,0V9.639a6.572,6.572,0,0,1,2.317,5.028,6.658,6.658,0,0,1-6.044,6.594.993.993,0,0,0,.084,1.983h.086A8.657,8.657,0,0,0,21.2,14.671a8.545,8.545,0,0,0-2.73-6.29H21.2a.993.993,0,0,0,0-1.986Z" transform="translate(599.4 213.209)" fill="#fff"/>
  </g>
</svg>
