<svg xmlns="http://www.w3.org/2000/svg" xmlns:xlink="http://www.w3.org/1999/xlink" width="66" height="66" viewBox="0 0 66 66">
  <defs>
    <filter id="Ellipse_260" x="0" y="0" width="66" height="66" filterUnits="userSpaceOnUse">
      <feOffset dy="3" input="SourceAlpha"/>
      <feGaussianBlur stdDeviation="3" result="blur"/>
      <feFlood flood-opacity="0.161"/>
      <feComposite operator="in" in2="blur"/>
      <feComposite in="SourceGraphic"/>
    </filter>
  </defs>
  <g id="Group_2092" data-name="Group 2092" transform="translate(4.427 1.001)">
    <g transform="matrix(1, 0, 0, 1, -4.43, -1)" filter="url(#Ellipse_260)">
      <circle id="Ellipse_260-2" data-name="Ellipse 260" cx="24" cy="24" r="24" transform="translate(9 6)" fill="#272727"/>
    </g>
    <g id="Group_2092-2" data-name="Group 2092">
      <path id="Path_2688" data-name="Path 2688" d="M0,0H58V58H0Z" fill="none"/>
      <path id="Path_2689" data-name="Path 2689" d="M26.167,2A24.167,24.167,0,1,0,50.333,26.167,24.175,24.175,0,0,0,26.167,2Zm0,43.5A19.333,19.333,0,1,1,45.5,26.167,19.359,19.359,0,0,1,26.167,45.5Zm9.377-28.3-14.21,14.21L16.79,26.868a2.409,2.409,0,1,0-3.407,3.407l6.259,6.259a2.407,2.407,0,0,0,3.408,0L38.975,20.608a2.407,2.407,0,0,0,0-3.408,2.436,2.436,0,0,0-3.432,0Z" transform="translate(2.833 2.833)" fill="#6fdd00"/>
    </g>
  </g>
</svg>
