<svg xmlns="http://www.w3.org/2000/svg" width="300" height="300" viewBox="0 0 300 300">
  <g id="Group_1790" data-name="Group 1790" transform="translate(2052 -16017)">
    <rect id="Rectangle_553" data-name="Rectangle 553" width="300" height="300" transform="translate(-2052 16017)" fill="none"/>
    <g id="Group_1617" data-name="Group 1617" transform="translate(-9204.145 7482.798)">
      <path id="Path_547" data-name="Path 547" d="M202.12,342.86v47.819H380.337V342.86Zm40.4,42.977c-10.627,0-19.24-7.969-19.24-18.6a19.24,19.24,0,0,1,38.479,0C261.761,377.868,253.147,385.837,242.522,385.837Zm48.518-6.019a12.578,12.578,0,1,1,12.578-12.578A12.579,12.579,0,0,1,291.04,379.818Zm45.3,5.054c-10.092,0-18.274-7.539-18.274-17.631a18.274,18.274,0,1,1,36.549,0C354.613,377.333,346.431,384.872,336.339,384.872Z" transform="translate(7010.557 8380.219)" fill="#f34775"/>
      <path id="Path_548" data-name="Path 548" d="M414.431,381.5c-6.106-.069-11.443-3.678-13.182-9.177a17.246,17.246,0,0,1-.558-2.5c.154.96,0-.476-.009-.554-.028-.448-.021-.9-.016-1.346s.044-.891.08-1.335c.119-1.422-.161.85.092-.54a18.2,18.2,0,0,1,.82-2.9c.469-1.3-.368.756.216-.487.181-.381.388-.751.593-1.119s.436-.719.666-1.07c.039-.06.864-1.153.294-.439a18.5,18.5,0,0,1,1.714-1.835c.3-.289.625-.558.946-.825-.657.547.65-.434.79-.524a18.406,18.406,0,0,1,2.224-1.211c-.836.4.432-.156.5-.181.4-.147.818-.264,1.231-.381s.841-.207,1.266-.294c1.383-.287-.878.062.54-.092a18.486,18.486,0,0,1,3.129-.037c.078,0,1.5.2.554.051.43.069.855.168,1.277.264a18.177,18.177,0,0,1,2.447.788c-.861-.335.4.218.466.253.377.188.742.4,1.1.618s.71.453,1.055.691q.634.465.092.055c.216.177.43.358.639.542a18.256,18.256,0,0,1,1.755,1.8c.891,1.022-.471-.687.324.413.246.34.469.7.691,1.054s.42.731.618,1.1c.034.062.609,1.323.253.466a18.176,18.176,0,0,1,.887,2.869c.016.074.26,1.479.133.526.06.441.085.884.113,1.326a18.313,18.313,0,0,1-.064,2.679c.08-.951-.076.43-.092.521-.078.42-.186.832-.294,1.245s-.244.806-.381,1.2q-.289.741-.009.085c-.113.253-.23.5-.354.749a17.364,17.364,0,0,1-1.031,1.778c-.048.076-.85,1.149-.264.407-.253.319-.528.623-.8.924a17.494,17.494,0,0,1-1.479,1.408c-1.006.873.7-.48-.388.3-.335.241-.687.457-1.038.673a14.215,14.215,0,0,1-7.546,2.061,4.5,4.5,0,1,0,0,9.005,23.135,23.135,0,0,0,19.945-11.277,22.641,22.641,0,0,0-.873-23.3,22.767,22.767,0,0,0-39.756,2.961,22.514,22.514,0,0,0,1.615,21.727,23.193,23.193,0,0,0,19.07,9.889,4.5,4.5,0,1,0,0-9Z" transform="translate(6932.466 8379.091)" fill="#f34775"/>
      <path id="Path_549" data-name="Path 549" d="M341.381,380.436a8.075,8.075,0,1,1,8.075-8.075,8.191,8.191,0,0,1-8.075,8.075,4.5,4.5,0,0,0,0,9.005,17.359,17.359,0,0,0,17.05-16.182c.8-9.072-6.611-16.784-15.27-17.854a17.067,17.067,0,0,0-6.042,33.5,17.871,17.871,0,0,0,4.261.538,4.5,4.5,0,0,0,0-9.007Z" transform="translate(6960.215 8375.101)" fill="#f34775"/>
      <path id="Path_550" data-name="Path 550" d="M254.221,381.761a15.524,15.524,0,0,1-8.614-2.55c-.345-.221-.678-.462-1.006-.7.763.558-.28-.266-.351-.329a18.466,18.466,0,0,1-1.707-1.739c-.873-.995.485.7-.3-.368-.241-.328-.459-.673-.675-1.018s-.413-.705-.609-1.066c-.083-.152-.742-1.659-.4-.8a17.9,17.9,0,0,1-.742-2.4c-.1-.416-.177-.836-.248-1.257.168.965-.032-.441-.039-.531a19.5,19.5,0,0,1,0-2.667c0-.078.181-1.507.039-.544.085-.57.216-1.133.351-1.691a19.186,19.186,0,0,1,.795-2.426c-.34.871.209-.388.246-.457.186-.377.4-.74.609-1.1s.443-.71.675-1.054c.044-.064.878-1.137.3-.42a19.33,19.33,0,0,1,2.012-2.1c.053-.048,1.107-.919.374-.354.331-.255.678-.487,1.025-.719a18.953,18.953,0,0,1,2.187-1.238c1.224-.609-.8.287.476-.211.4-.154.8-.283,1.208-.411s.827-.23,1.243-.331c.165-.039,1.854-.322.942-.207a19.793,19.793,0,0,1,2.66-.122c.443,0,.887.041,1.328.076,1.42.115-.857-.163.533.076a18.992,18.992,0,0,1,2.495.636c.4.126.8.283,1.195.436-.825-.322.682.363.829.439a13.7,13.7,0,0,1,6.237,6.237c.2.368.381.749.561,1.13-.4-.845.152.418.179.494a19.243,19.243,0,0,1,.689,2.472c.018.078.237,1.479.115.521.055.439.08.88.106,1.321a19.362,19.362,0,0,1-.106,3.1c.1-.969-.1.409-.115.5-.11.554-.264,1.1-.425,1.636-.048.161-.639,1.725-.273.871-.216.5-.471.99-.73,1.47-.2.361-.414.705-.632,1.05-.092.145-1.073,1.447-.5.73a18.367,18.367,0,0,1-2.274,2.318c-1,.875.7-.485-.374.3-.441.324-.907.611-1.376.894s-.965.535-1.459.779c-.48.216-.5.234-.069.051-.26.106-.521.2-.783.3a20.012,20.012,0,0,1-2.872.781c-.283.055-.567.1-.852.147.478-.067.441-.069-.106-.009-.588.046-1.181.057-1.773.064a4.5,4.5,0,1,0,0,9.005,24.282,24.282,0,0,0,20.211-10.82c4.595-6.917,4.429-16.019.827-23.28-3.664-7.384-11.252-11.833-19.262-12.658-8.312-.857-16.09,3.4-21.043,9.825-5.4,7.007-5.716,16.991-1.771,24.7,3.96,7.744,12.548,12.143,21.038,12.231a4.5,4.5,0,0,0,0-9.005Z" transform="translate(6998.857 8379.791)" fill="#f34775"/>
      <path id="Path_551" data-name="Path 551" d="M194.47,339.706v47.822a4.546,4.546,0,0,0,4.5,4.5H377.188a4.546,4.546,0,0,0,4.5-4.5V339.706a4.546,4.546,0,0,0-4.5-4.5H198.973a4.5,4.5,0,1,0,0,9.005H377.188l-4.5-4.5v47.822l4.5-4.5H198.973l4.5,4.5V339.706a4.5,4.5,0,1,0-9.005,0Z" transform="translate(7013.707 8383.372)" fill="#f34775"/>
      <path id="Path_552" data-name="Path 552" d="M546.02,129.33V302.724h32.715l0-173.394Zm16.356,19.959a11.392,11.392,0,1,1-11.392,11.392A11.391,11.391,0,0,1,562.376,149.289Zm0,59.656a12.534,12.534,0,1,1,12.534-12.534A12.534,12.534,0,0,1,562.376,208.945Z" transform="translate(6868.902 8468.173)" fill="#f34775"/>
      <path id="Path_553" data-name="Path 553" d="M561.934,239.5a8.031,8.031,0,1,1,8.031-8.031,8.15,8.15,0,0,1-8.031,8.031,4.5,4.5,0,1,0,0,9.005,17.31,17.31,0,0,0,17-16.14c.8-9.049-6.6-16.738-15.231-17.806a17.022,17.022,0,0,0-6.023,33.414,17.774,17.774,0,0,0,4.25.535,4.5,4.5,0,0,0,0-9.007Z" transform="translate(6869.35 8433.115)" fill="#f34775"/>
      <path id="Path_554" data-name="Path 554" d="M562.706,164.622a7.053,7.053,0,0,1,6.89,6.89c0,.3-.012.595-.034.891q.128-.7-.016.1c-.055.283-.119.561-.2.839-.018.074-.482,1.383-.119.524a11.314,11.314,0,0,1-.795,1.479c-.3.427-.31.462-.025.106a11.063,11.063,0,0,1-.834.93c-.129.133-1.381,1.123-.689.627a11.219,11.219,0,0,1-1.826,1.025c.783-.368-.765.179-.94.225-.28.067-.565.122-.85.165.942-.165-.48-.028-.565-.025-.3,0-.595-.011-.891-.034q.7.128-.1-.016c-.283-.055-.561-.119-.839-.2-.073-.018-1.383-.482-.524-.119a11.3,11.3,0,0,1-1.479-.795c-.427-.3-.462-.31-.106-.025a11.024,11.024,0,0,1-.93-.834c-.133-.129-1.123-1.381-.627-.689a11.151,11.151,0,0,1-1.024-1.829c.367.783-.179-.765-.225-.94-.067-.28-.122-.565-.165-.85.165.942.028-.48.025-.565,0-.3.011-.595.034-.891q-.127.7.016-.1c.055-.283.119-.563.2-.839.018-.074.482-1.383.12-.524a11.3,11.3,0,0,1,.795-1.479c.3-.427.31-.462.025-.106a11.051,11.051,0,0,1,.834-.93c.129-.133,1.381-1.123.689-.629a11.154,11.154,0,0,1,1.829-1.025c-.783.368.765-.179.94-.225.28-.067.565-.122.85-.165-.944.172.478.034.563.032a4.5,4.5,0,1,0,0-9.005,16.134,16.134,0,0,0-15.894,15.894c-.17,8.766,7.381,15.729,15.894,15.894,8.766.17,15.729-7.381,15.895-15.894.17-8.766-7.381-15.729-15.895-15.894a4.5,4.5,0,0,0,0,9.005Z" transform="translate(6868.578 8457.345)" fill="#f34775"/>
      <path id="Path_555" data-name="Path 555" d="M538.37,126.176v173.4a4.546,4.546,0,0,0,4.5,4.5h32.715a4.546,4.546,0,0,0,4.5-4.5v-173.4a4.546,4.546,0,0,0-4.5-4.5H542.873a4.5,4.5,0,0,0,0,9.005h32.715l-4.5-4.5v173.4l4.5-4.5H542.873l4.5,4.5v-173.4a4.5,4.5,0,1,0-9.005,0Z" transform="translate(6872.053 8471.326)" fill="#f34775"/>
      <path id="Path_556" data-name="Path 556" d="M202.12,129.33V239.3H380.337V129.33ZM375.832,234.8H206.619V133.829H375.832Z" transform="translate(7010.557 8468.173)" fill="#f34775"/>
      <path id="Path_557" data-name="Path 557" d="M194.47,126.176V236.149a4.546,4.546,0,0,0,4.5,4.5H377.188a4.546,4.546,0,0,0,4.5-4.5V126.176a4.546,4.546,0,0,0-4.5-4.5H198.973a4.5,4.5,0,1,0,0,9.005H377.188l-4.5-4.5V236.149l4.5-4.5H198.973l4.5,4.5V126.176a4.5,4.5,0,0,0-9.005,0Z" transform="translate(7013.707 8471.326)" fill="#f34775"/>
      <path id="Path_558" data-name="Path 558" d="M375.839,230.3H206.628l4.5,4.5V133.832l-4.5,4.5H375.836l-4.5-4.5V234.8a4.5,4.5,0,1,0,9.005,0V133.832a4.546,4.546,0,0,0-4.5-4.5H206.625a4.546,4.546,0,0,0-4.5,4.5V234.8a4.546,4.546,0,0,0,4.5,4.5H375.834a4.5,4.5,0,0,0,0-9.005Z" transform="translate(7010.555 8468.174)" fill="#f34775"/>
      <path id="Path_559" data-name="Path 559" d="M106.85,129.33V302.724h32.715V129.33Zm16.356,19.959a11.392,11.392,0,1,1-11.392,11.392A11.391,11.391,0,0,1,123.206,149.289Zm0,59.656a12.534,12.534,0,1,1,12.533-12.534A12.534,12.534,0,0,1,123.206,208.945Z" transform="translate(7049.798 8468.173)" fill="#f34775"/>
      <path id="Path_560" data-name="Path 560" d="M122.754,239.5a8.031,8.031,0,1,1,8.031-8.031,8.15,8.15,0,0,1-8.031,8.031,4.5,4.5,0,1,0,0,9.005,17.308,17.308,0,0,0,17-16.14c.8-9.049-6.6-16.738-15.231-17.806a17.022,17.022,0,0,0-6.023,33.414,17.774,17.774,0,0,0,4.25.535,4.5,4.5,0,0,0,0-9.007Z" transform="translate(7050.25 8433.115)" fill="#f34775"/>
      <path id="Path_561" data-name="Path 561" d="M123.526,164.622a7.053,7.053,0,0,1,6.89,6.89c0,.3-.011.595-.034.891q.128-.7-.016.1c-.055.283-.119.561-.2.839-.018.074-.482,1.383-.119.524a11.312,11.312,0,0,1-.795,1.479c-.3.427-.31.462-.025.106a11.045,11.045,0,0,1-.834.93c-.129.133-1.381,1.123-.689.627a11.148,11.148,0,0,1-1.829,1.025c.783-.368-.765.179-.94.225-.28.067-.565.122-.85.165.942-.165-.48-.028-.565-.025-.3,0-.595-.011-.891-.034q.7.128-.1-.016c-.283-.055-.561-.119-.839-.2-.074-.018-1.383-.482-.524-.119a11.305,11.305,0,0,1-1.479-.795c-.427-.3-.462-.31-.106-.025a11.044,11.044,0,0,1-.93-.834c-.133-.129-1.123-1.381-.627-.689A11.147,11.147,0,0,1,117,173.862c.368.783-.179-.765-.225-.94-.067-.28-.122-.565-.165-.85.165.942.028-.48.025-.565,0-.3.011-.595.034-.891q-.128.7.016-.1c.055-.283.119-.561.2-.839.018-.074.482-1.383.119-.524a11.309,11.309,0,0,1,.795-1.479c.3-.427.31-.462.025-.106a11.044,11.044,0,0,1,.834-.93c.129-.133,1.381-1.123.689-.629a11.147,11.147,0,0,1,1.829-1.025c-.783.368.765-.179.94-.225.28-.067.565-.122.85-.165-.942.172.48.034.565.032a4.5,4.5,0,1,0,0-9.005,16.134,16.134,0,0,0-15.894,15.894c-.17,8.766,7.384,15.729,15.894,15.894,8.766.17,15.729-7.381,15.894-15.894.17-8.766-7.381-15.729-15.894-15.894a4.5,4.5,0,0,0,0,9.005Z" transform="translate(7049.478 8457.345)" fill="#f34775"/>
      <path id="Path_562" data-name="Path 562" d="M99.191,126.18v173.4a4.546,4.546,0,0,0,4.5,4.5h32.715a4.546,4.546,0,0,0,4.5-4.5V126.186a4.546,4.546,0,0,0-4.5-4.5H103.694a4.5,4.5,0,1,0,0,9h32.715l-4.5-4.5v173.4l4.5-4.5H103.694l4.5,4.5V126.19a4.5,4.5,0,0,0-9.005,0Z" transform="translate(7052.953 8471.322)" fill="#f34775"/>
    </g>
  </g>
</svg>
