<svg xmlns="http://www.w3.org/2000/svg" width="215.455" height="299.998" viewBox="0 0 215.455 299.998">
  <g id="Group_1882" data-name="Group 1882" transform="translate(-7678.728 20198)">
    <path id="Path_764" data-name="Path 764" d="M357.242,53.6l-8.726-17.461a8.515,8.515,0,0,0-7.665-4.744h-87.7a8.513,8.513,0,0,0-7.659,4.744L236.759,53.6A8.564,8.564,0,0,0,244.421,66h105.16a8.564,8.564,0,0,0,7.663-12.4Z" transform="translate(7489.458 -20212.576)" fill="#0cd12d"/>
    <g id="Group_1881" data-name="Group 1881" transform="translate(7678.728 -20198)">
      <path id="Path_765" data-name="Path 765" d="M353.867,61.124h-5.34l-24.45-49.649A20.507,20.507,0,0,0,305.622,0h-97.97A20.507,20.507,0,0,0,189.2,11.474L164.753,61.124h-5.364A10.542,10.542,0,0,0,148.9,71.66V74a10.546,10.546,0,0,0,10.49,10.538h8.527l12.365,189.271v0A28.092,28.092,0,0,0,208.244,300h96.765a28.092,28.092,0,0,0,27.962-26.185L345.336,84.54h8.527v0A10.546,10.546,0,0,0,364.354,74V71.66a10.542,10.542,0,0,0-10.49-10.536ZM197.611,15.593a11.071,11.071,0,0,1,10.023-6.219h97.97a11.076,11.076,0,0,1,10.04,6.219l22.435,45.529-162.9,0ZM354.989,74.006a1.148,1.148,0,0,1-1.124,1.168H159.392a1.148,1.148,0,0,1-1.124-1.168V71.663a1.152,1.152,0,0,1,1.124-1.172H353.865a1.152,1.152,0,0,1,1.124,1.172Z" transform="translate(-148.899 0.001)" fill="#0cd12d"/>
    </g>
  </g>
</svg>
