<svg xmlns="http://www.w3.org/2000/svg" width="300" height="300" viewBox="0 0 300 300">
  <g id="Group_1823" data-name="Group 1823" transform="translate(2003 -15834)">
    <rect id="Rectangle_562" data-name="Rectangle 562" width="300" height="300" transform="translate(-2003 15834)" fill="none"/>
    <g id="Group_1654" data-name="Group 1654" transform="translate(-3856.552 5935.531)">
      <path id="Path_567" data-name="Path 567" d="M375.22,289.84H255.848a15.616,15.616,0,0,0-15.571,15.571v147.4H391.308l0-147.4c-.52-8.822-7.269-15.571-16.091-15.571ZM261.033,310.6Z" transform="translate(1687.94 9745.652)" fill="#ffb526"/>
      <path id="Path_568" data-name="Path 568" d="M367.75,289.84v3.113h10.382V289.84Zm-93.42,3.116h10.382v-3.113H274.33Z" transform="translate(1677.242 9745.652)" fill="#ffb526"/>
      <path id="Path_569" data-name="Path 569" d="M408.74,109.255a5.691,5.691,0,0,0-6.229-4.153,96.673,96.673,0,0,0-20.761,6.746,14.728,14.728,0,0,0-5.189-4.672,15.772,15.772,0,0,0-11.938-.52A94.585,94.585,0,0,0,315.834,148.7V126.9a15.117,15.117,0,0,0-10.382-14.532V95.243a5.189,5.189,0,0,0-10.379,0v17.128A21.4,21.4,0,0,0,289.364,116a14.126,14.126,0,0,0-4.672,10.9v21.8A92.547,92.547,0,0,0,235.9,106.662a13.793,13.793,0,0,0-11.938.52,11.346,11.346,0,0,0-5.189,4.672c-4.672-1.557-11.418-4.672-20.761-6.746a5.294,5.294,0,0,0-2.076,10.382,111.985,111.985,0,0,1,19.724,6.229c-.52,6.229,3.113,11.938,9.342,14.532,33.219,12.975,39.445,42.041,41,52.939-9.862,2.6-17.647,11.418-17.647,22.317v15.571h10.382V211.506A12.632,12.632,0,0,1,271.2,199.049h58.131a12.632,12.632,0,0,1,12.458,12.458v15.571h10.382V211.506a22.788,22.788,0,0,0-17.647-22.317c1.557-10.9,7.786-39.965,41-52.939,6.229-2.6,9.862-8.3,9.342-14.532a129.168,129.168,0,0,1,19.724-6.229c3.108-1.045,5.184-3.641,4.147-6.234ZM275.87,188.663c-1.557-12.975-9.342-46.713-47.23-61.764a4.55,4.55,0,0,1-2.6-5.189l.52-2.076a5.189,5.189,0,0,1,2.076-2.6c.52-.52,2.076-.52,3.113,0,39.965,15.054,52.939,50.865,55.016,71.623Zm96.019-62.281c-37.888,15.051-45.674,49.307-47.23,61.764h-10.9c2.074-20.244,15.048-56.055,55.013-71.623a5.936,5.936,0,0,1,3.113,0,3.452,3.452,0,0,1,2.076,2.6l.52,2.076c1.04,2.076-.517,4.67-2.593,5.189Z" transform="translate(1703.204 9808.415)" fill="#ffb526"/>
    </g>
  </g>
</svg>
