<svg xmlns="http://www.w3.org/2000/svg" width="300" height="300" viewBox="0 0 300 300">
  <g id="Group_1773" data-name="Group 1773" transform="translate(1622 -15458)">
    <rect id="Rectangle_548" data-name="Rectangle 548" width="300" height="300" transform="translate(-1622 15458)" fill="none"/>
    <g id="Group_1462" data-name="Group 1462" transform="translate(-1586.962 15454.054)">
      <path id="Path_542" data-name="Path 542" d="M91.762,164.713,12.082,14.857a7.424,7.424,0,0,1,13.11-6.97l79.68,149.856,11.3-6.009a29.7,29.7,0,0,1,40.16,12.278l4.811,9.048L212.139,247.7l-64.862,34.487-22.47-44.417-13.248,6.7,22.607,44.687-27.807,14.785L72.989,219.924l-4.806-9.041a29.7,29.7,0,0,1,12.278-40.16Zm31.382.131L87.432,183.832a14.847,14.847,0,0,0-6.139,20.08l4.807,9.041,61.931-32.93-4.807-9.041A14.848,14.848,0,0,0,123.144,164.844Z" transform="translate(7.785 0)" fill="#00ffcf" fill-rule="evenodd"/>
      <path id="Path_543" data-name="Path 543" d="M67.67,37.672a7.424,7.424,0,0,0-10.452-.954l.012-.01-.085.068c-.089.071-.243.192-.46.355-.435.327-1.12.825-2.037,1.437a65.6,65.6,0,0,1-8.122,4.578,67.921,67.921,0,0,1-29.1,6.7,7.424,7.424,0,1,0,0,14.848A82.765,82.765,0,0,0,52.909,56.55a80.405,80.405,0,0,0,9.975-5.629c1.17-.78,2.086-1.442,2.73-1.927.322-.243.577-.441.762-.588l.225-.18.074-.059.026-.022.011-.009.009-.007A7.423,7.423,0,0,0,67.67,37.672ZM82.991,75.425A7.423,7.423,0,0,1,80.932,85.72l-.016.01-.023.016-.071.047-.239.155c-.2.13-.486.311-.848.537-.724.45-1.76,1.078-3.066,1.824-2.606,1.489-6.311,3.465-10.76,5.442-8.767,3.9-21.006,8.064-33.638,8.064a7.424,7.424,0,0,1,0-14.848c9.639,0,19.672-3.257,27.608-6.784,3.9-1.735,7.157-3.471,9.423-4.766,1.131-.646,2.008-1.177,2.589-1.54.29-.18.506-.318.642-.406l.143-.093.019-.013A7.426,7.426,0,0,1,82.991,75.425Z" transform="translate(0 199.481)" fill="#00ffcf"/>
    </g>
  </g>
</svg>
