<svg xmlns="http://www.w3.org/2000/svg" xmlns:xlink="http://www.w3.org/1999/xlink" width="300" height="300" viewBox="0 0 300 300">
  <defs>
    <clipPath id="clip-path">
      <rect id="Rectangle_7636" data-name="Rectangle 7636" width="101.103" height="53.933" fill="#2eef95"/>
    </clipPath>
    <clipPath id="clip-path-2">
      <rect id="Rectangle_7637" data-name="Rectangle 7637" width="64.596" height="104.04" fill="#2eef95"/>
    </clipPath>
  </defs>
  <g id="Group_1862" data-name="Group 1862" transform="translate(-9363 -8079)">
    <rect id="Rectangle_533" data-name="Rectangle 533" width="300" height="300" transform="translate(9363 8079)" fill="none"/>
    <g id="Group_13833" data-name="Group 13833" transform="translate(9352.717 8074.988)">
      <g id="Group_13874" data-name="Group 13874" transform="translate(12.115 4.013)">
        <path id="Path_11303" data-name="Path 11303" d="M36.817,204.193H302.436c-2.248,11.45-4.458,22.767-6.692,34.083-4.759,24.123-9.587,48.235-14.273,72.372a30.625,30.625,0,0,1-28.841,24.624c-1.913.069-3.825.041-5.748.041-52.061,0-104.124-.281-156.182.149-19.221.159-31.288-12.885-33.9-27.744C50.779,273.579,43.666,239.626,37,205.6c-.08-.406-.111-.823-.188-1.4m71.408,105.428c-.085-.374-.235-1.09-.414-1.8q-9.931-39.257-19.88-78.514c-.981-3.859-3.432-5.693-6.433-4.958-3.091.759-4.4,3.465-3.436,7.282q8.2,32.542,16.422,65.078c1.217,4.786,2.352,9.591,3.651,14.354a5.085,5.085,0,0,0,5.7,3.969,5.254,5.254,0,0,0,4.378-5.417m128.351,5.463c2.549-.274,3.989-2.1,4.714-4.983q7.534-30.111,15.217-60.187c1.6-6.314,3.243-12.617,4.794-18.941a5.055,5.055,0,0,0-.372-4.12,5.183,5.183,0,0,0-3.339-2.5,5.306,5.306,0,0,0-3.96.786,5.168,5.168,0,0,0-2.219,3.328c-.271.905-.459,1.834-.7,2.743L239.48,275.49c-2.759,10.894-5.533,21.787-8.248,32.691a5.122,5.122,0,0,0,.776,4.864,5.285,5.285,0,0,0,4.551,2.027m-87.45-5.729c-.035-.321-.083-.843-.15-1.371q-3.46-27.353-6.925-54.706c-1.019-8.025-1.9-16.071-3.232-24.045a7.032,7.032,0,0,0-3.566-4.551,5.4,5.4,0,0,0-4.98,1.332,8.666,8.666,0,0,0-1.217,5.806c1.464,12.835,3.163,25.642,4.79,38.458q2.54,20.007,5.1,40.01a5.036,5.036,0,0,0,1.773,3.583,5.115,5.115,0,0,0,8.405-4.522m61.348-79.73a5.032,5.032,0,0,0-4.564-5.335c-2.944-.343-5.216,1.658-5.661,5.085q-5.058,39.54-10.074,79.083c-.459,3.615,1.245,6.171,4.286,6.617,3.109.451,5.39-1.678,5.88-5.547q2.8-21.722,5.576-43.443c1.52-11.983,3-23.971,4.555-36.459" transform="translate(-26.606 -35.465)" fill="#2eef95"/>
        <path id="Path_11304" data-name="Path 11304" d="M167.8,184.4H36.968c-8.476,0-12.27-3.742-12.275-12.094,0-5.786-.026-11.571,0-17.357.038-6.732,4.158-10.929,10.864-10.93q132.109-.026,264.217,0a10.282,10.282,0,0,1,7.852,2.916,10,10,0,0,1,2.985,7.738c.054,6.206.036,12.411,0,18.617-.033,7.068-4.139,11.1-11.354,11.1q-65.736.017-131.471,0" transform="translate(-24.681 -28.016)" fill="#2eef95"/>
        <path id="Path_11306" data-name="Path 11306" d="M310.794,72.264V83.683a31.4,31.4,0,0,1,17.078,15.429c3.729,7.383,3.18,15.235,3,23.256H240.757c-2.247-15.108,1.289-30.907,19.635-38.667V72.264Z" transform="translate(-55.102 -17.502)" fill="#2eef95"/>
        <path id="Path_11307" data-name="Path 11307" d="M224.943,129.065H144.2c1.154-6.97,2.2-13.773,3.415-20.542,3.043-16.947,11.47-31.714,19.1-46.788a3.658,3.658,0,0,1,2.683-1.666q15.29-.171,30.581,0a3.747,3.747,0,0,1,2.769,1.543c11.446,20.6,20.479,42.048,22.193,65.959.026.358,0,.718,0,1.495" transform="translate(-53.838 -25.003)" fill="#2eef95"/>
        <path id="Path_11309" data-name="Path 11309" d="M168.449,46.809c0-4.21-.171-8.169.041-12.108a11.314,11.314,0,0,1,11.086-10.673c4.07-.141,8.151-.141,12.221,0a11.366,11.366,0,0,1,11.095,10.68c.218,3.943.041,7.9.041,12.1Z" transform="translate(-54.713 -23.618)" fill="#2eef95"/>
        <g id="Group_13835" data-name="Group 13835" transform="translate(195.233)">
          <g id="Group_13834" data-name="Group 13834" clip-path="url(#clip-path)">
            <path id="Path_11310" data-name="Path 11310" d="M96.088,0c3.744,1.39,5.143,4.147,5.009,8.057-.153,4.629-.026,9.273-.039,13.908-.012,4.6-1.714,6.717-6.151,7.62-2.743.561-5.486,1.147-8.253,1.565-1.245.189-1.62.686-1.606,1.9.055,4.706.084,9.415,0,14.121-.086,4.882-3.957,7.817-8.319,6.422a5.882,5.882,0,0,1-4.253-5.861c-.072-3.722-.026-7.445-.029-11.169v-2.28C66.617,34,60.765,39.324,57.227,47.995H11c0-1.735.024-3.4,0-5.057-.057-3.257-1.469-4.754-4.683-4.971A6.238,6.238,0,0,1,.081,31.39C.036,23.657.2,15.933,0,8.21-.092,4.318,1.152,1.56,4.766,0Z" transform="translate(-0.002)" fill="#2eef95"/>
          </g>
        </g>
        <g id="Group_13837" data-name="Group 13837" transform="translate(10.213)">
          <g id="Group_13836" data-name="Group 13836" clip-path="url(#clip-path-2)">
            <path id="Path_11311" data-name="Path 11311" d="M49.006,43.456,19.947,59.884,25.7,69.947c-1.85.933-3.612,1.827-5.381,2.712C7.515,79.065.615,89.376.1,103.754c-.211,5.916-.036,11.847-.036,17.9H64.457c.048-.725.134-1.433.134-2.141,0-15.523.041-31.047-.048-46.572a9.92,9.92,0,0,0-1.243-4.6c-4.642-8.271-9.429-16.457-14.285-24.888" transform="translate(0 -17.611)" fill="#2eef95"/>
            <path id="Path_11312" data-name="Path 11312" d="M44.977,30.7,74.062,14.259C71.53,9.9,69.14,5.586,66.538,1.4A3.007,3.007,0,0,0,62.2.575Q50.735,7.136,39.325,13.793a3.142,3.142,0,0,0-1.407,4.558c2.241,4.082,4.615,8.09,7.059,12.343" transform="translate(-31.734 -0.01)" fill="#2eef95"/>
          </g>
        </g>
      </g>
    </g>
  </g>
</svg>
