<svg xmlns="http://www.w3.org/2000/svg" width="300" height="300" viewBox="0 0 300 300">
  <g id="Group_1831" data-name="Group 1831" transform="translate(-9184 -6616)">
    <rect id="Rectangle_503" data-name="Rectangle 503" width="300" height="300" transform="translate(9184 6616)" fill="none"/>
    <g id="Group_13853" data-name="Group 13853" transform="translate(9014.827 6558.153)">
      <g id="Group_13871" data-name="Group 13871" transform="translate(169.173 80.184)">
        <path id="Path_11322" data-name="Path 11322" d="M251.442,327.4v-10.56H284.39v-64.5c-19.89,39.981-50.76,65.472-94.535,73.071-43.714,7.581-82.168-4.668-113.125-36.375-51.089-52.35-48.573-134.322,5.1-183.4,52.053-47.589,127.649-41.2,171.139-.341-4.371,0-8.223-.019-12.071,0-7.547.045-12.071,4.558-12.084,12.119-.018,20.6-.13,41.2.042,61.8.254,30.041,24.464,56.332,54.324,59.229.333.032.673,0,1.426,0,0-3.285.161-6.509-.121-9.7-.061-.715-1.553-1.682-2.524-1.885-20.387-4.264-33.91-16.137-39.9-36.165a43.655,43.655,0,0,1-1.8-11.951c-.184-19.906-.1-39.816-.093-59.725,0-.67.079-1.341.134-2.2h99.64v58.727c0,26.946-16.608,46.732-43.134,51.4a7.1,7.1,0,0,0-1.117.431v89.166h32.927v10.809ZM226.678,126.188c-25.2-21.648-67.491-29.1-103.749-9.625S66.753,177.954,74.861,217.929a94.638,94.638,0,0,0,85.919,76.329c39.709,3.118,74.07-19.814,88.487-46.9l-9.335-5.485c-26.022,43.049-80.542,52.63-118.3,27.21A83.063,83.063,0,0,1,95.419,159c10.784-18.883,26.571-31.947,47.379-38.346,27.92-8.585,53.6-3.3,77.061,14.094l6.808-8.554m30.009,12.6c0,14.361-.483,28.359.161,42.305.449,9.752,5.495,17.626,13.7,23.74l6.715-9.174c-7.584-5.841-9.612-13.52-9.382-22.328.27-10.283.061-20.579.06-30.87V138.8Z" transform="translate(-39.942 -72.261)" fill="#ff8b88"/>
      </g>
    </g>
  </g>
</svg>
