<svg xmlns="http://www.w3.org/2000/svg" width="300.001" height="300.001" viewBox="0 0 300.001 300.001">
  <g id="Group_1793" data-name="Group 1793" transform="translate(-8480 -22091)">
    <rect id="Rectangle_470" data-name="Rectangle 470" width="300" height="300" transform="translate(8480 22091)" fill="none"/>
    <g id="Group_5714" data-name="Group 5714" transform="translate(8477.736 22090.018)">
      <path id="Path_10159" data-name="Path 10159" d="M209.739,16.3a52.313,52.313,0,0,0-73.983,0L37.719,114.345a11.531,11.531,0,0,0-2.787,4.508L6.093,205.36a11.531,11.531,0,0,0,14.59,14.59l86.506-28.835a11.543,11.543,0,0,0,4.51-2.79l98.041-98.041a52.315,52.315,0,0,0,0-73.979Z" transform="translate(77.205 0)" fill="#5d94d5"/>
      <path id="Path_10160" data-name="Path 10160" d="M255.413,131.979q.3,4.177.3,8.433A115.342,115.342,0,1,1,140.376,25.07q4.253,0,8.432.3L169.178,5A138.259,138.259,0,1,0,275.784,111.608Z" transform="translate(0 22.461)" fill="#5d94d5"/>
    </g>
  </g>
</svg>
