<svg xmlns="http://www.w3.org/2000/svg" width="300" height="300.001" viewBox="0 0 300 300.001">
  <g id="Group_1835" data-name="Group 1835" transform="translate(-8277 -6335.999)">
    <rect id="Rectangle_507" data-name="Rectangle 507" width="300" height="300" transform="translate(8277 6336)" fill="none"/>
    <g id="Group_13855" data-name="Group 13855" transform="translate(8319.861 6342.858)">
      <g id="Group_13878" data-name="Group 13878" transform="translate(-42.645 -6.858)">
        <path id="Path_11335" data-name="Path 11335" d="M279.878,300.4c-9.137-1.344-15.4-6.838-21.334-13.456q-46.077-51.451-92.527-102.574c-.651-.721-1.332-1.414-2.031-2.154l-14.068,14.062c-1.134-1.051-1.915-1.733-2.648-2.459C112.781,159.677,78.445,125.388,43.757,91.453,27.358,75.408,22.111,56.036,24.192,34.06A110.372,110.372,0,0,1,32.478,2.792,3.23,3.23,0,0,1,35.648.554C41.723-.244,45.9,2.1,50.217,6.394Q173,128.384,296.125,250.022c6.294,6.222,12.059,12.537,13.321,21.687v4.684a4.335,4.335,0,0,0-.433,1.051,23.135,23.135,0,0,1-9.97,17.172,84.5,84.5,0,0,1-12.655,5.781Z" transform="translate(-9.878 -0.399)" fill="#595cff"/>
        <path id="Path_11336" data-name="Path 11336" d="M22.3,341.087c-1.02-.183-2.035-.406-3.06-.543C3.668,338.463-4.449,318.853,5.094,306.327a36.594,36.594,0,0,1,3.168-3.687q33.624-33.672,67.286-67.313c.5-.5,1.046-.963,1.437-1.32l30.857,30.927c-.408.427-1.039,1.119-1.7,1.781Q73.1,299.768,40.067,332.831c-4.5,4.517-9.543,7.742-16.137,7.915a4.628,4.628,0,0,0-1.155.343Z" transform="translate(-0.997 -41.089)" fill="#595cff"/>
        <path id="Path_11338" data-name="Path 11338" d="M283.8,1.49l10.073,10.056L254.808,50.6l10.514,10.476,38.9-38.914,10.344,10.3-39.142,39.12L285.535,81.71l39.029-39.041,10.893,11a8.126,8.126,0,0,0-1.841,1.174c-15.566,15.528-31.258,30.931-46.579,46.7-7.886,8.11-16.913,13.188-28.27,13.886a1.915,1.915,0,0,0-.722.079c-3.732,1.913-5.925-.206-8.388-2.733-9.23-9.468-18.636-18.766-28.034-28.07a3.213,3.213,0,0,1-.948-3.6c.686-2.743.879-5.59,1.371-8.381a36.228,36.228,0,0,1,10.166-19.8Q257.464,27.564,282.8,2.309a11.349,11.349,0,0,1,1-.819" transform="translate(-36.265 -0.825)" fill="#595cff"/>
      </g>
    </g>
  </g>
</svg>
