<svg xmlns="http://www.w3.org/2000/svg" width="300" height="300" viewBox="0 0 300 300">
  <g id="Group_1836" data-name="Group 1836" transform="translate(-7724 -7046)">
    <rect id="Rectangle_511" data-name="Rectangle 511" width="300" height="300" transform="translate(7724 7046)" fill="none"/>
    <g id="Group_13856" data-name="Group 13856" transform="translate(7775.792 7045.999)">
      <g id="Group_13877" data-name="Group 13877" transform="translate(0 0.001)">
        <path id="Path_11339" data-name="Path 11339" d="M69.38,0h1.759a3.811,3.811,0,0,0,.987.511q47.214,8.553,94.431,17.065c9.872,1.782,19.742,3.574,29.859,5.4v3.037q-.087,124.057-.114,248.117c0,2.507-.771,3.257-3.145,3.678-27.753,4.9-55.483,9.926-83.223,14.911C96.51,295.132,83.08,297.528,69.26,300V277.664H0V21.7H69.38Zm-.193,42.784H20.7V257.122H69.191ZM82.733,149.9c-.035,5.652,3.3,10.063,7.616,10.076s7.739-4.461,7.714-10.028-3.512-10-7.812-9.932c-4.21.071-7.492,4.378-7.521,9.876" fill="#6eb4ff"/>
      </g>
    </g>
  </g>
</svg>
