<svg xmlns="http://www.w3.org/2000/svg" width="300" height="300" viewBox="0 0 300 300">
  <g id="Group_1758" data-name="Group 1758" transform="translate(-3544 -22091)">
    <rect id="Rectangle_428" data-name="Rectangle 428" width="300" height="300" transform="translate(3544 22091)" fill="none"/>
    <g id="Group_5758" data-name="Group 5758" transform="translate(3574.105 22087.975)">
      <path id="Path_10183" data-name="Path 10183" d="M19303.367,20095.031a5.958,5.958,0,0,1-6.023-5.812v-28.793h-5.578a5.914,5.914,0,0,1-5.809-5.812v-17.41h-12.484a17.012,17.012,0,0,1-16.98-17.172v-26.57a6.217,6.217,0,0,0-3.562-5.574l-21.43-8.488a47.7,47.7,0,0,1-13.176-8.035,51.487,51.487,0,0,1-16.742-24.777,61.123,61.123,0,0,1-2.227-15.4v-49.336a17.437,17.437,0,0,1,17.2-17.629h29.008V19812.2a17.3,17.3,0,0,1,34.605,0v52.016h69.188V19812.2a17.414,17.414,0,0,1,34.824,0v52.016h26.113a17.393,17.393,0,0,1,16.961,17.629v49.336a52.508,52.508,0,0,1-32.363,48.215l-20.973,8.488a5.555,5.555,0,0,0-3.586,5.574v26.57a17.038,17.038,0,0,1-17.172,17.172h-9.375v17.41a5.961,5.961,0,0,1-6.027,5.813h-5.812v28.793a5.572,5.572,0,0,1-5.57,5.813Zm-17.84-200.68a5.468,5.468,0,0,0-1.8,4.473l.219,52a5.418,5.418,0,0,0,4.926,5.594l16.953,2.012-3.348,34.363a4.822,4.822,0,0,0,2.012,4.906,5.293,5.293,0,0,0,5.141,1.34,6.041,6.041,0,0,0,3.563-3.109l28.582-54.7a7.992,7.992,0,0,0,0-5.57,5.84,5.84,0,0,0-4.473-2.918l-10.262-1.1,7.367-27.238a5.854,5.854,0,0,0-.668-4.687,6,6,0,0,0-4.02-2.68l-39.965-4.23h-.453A6.3,6.3,0,0,0,19285.527,19894.352Z" transform="translate(-19193.408 -19792.006)" fill="#f90"/>
    </g>
  </g>
</svg>
