<svg xmlns="http://www.w3.org/2000/svg" xmlns:xlink="http://www.w3.org/1999/xlink" width="300" height="300" viewBox="0 0 300 300">
  <defs>
    <clipPath id="clip-path">
      <rect id="Rectangle_5462" data-name="Rectangle 5462" width="189.705" height="300" fill="#00b5ff"/>
    </clipPath>
  </defs>
  <g id="Group_1805" data-name="Group 1805" transform="translate(-9155 -2312)">
    <rect id="Rectangle_493" data-name="Rectangle 493" width="300" height="300" transform="translate(9155 2312)" fill="none"/>
    <g id="Group_732" data-name="Group 732" transform="translate(9210.148 2312)" clip-path="url(#clip-path)">
      <path id="Path_700" data-name="Path 700" d="M96.161,0c21.755.668,40.327,8.988,57.2,21.88a173.019,173.019,0,0,1,28.72,28.669c1.017,1.246,2.1,2.267.592,4.11-12.145,14.92-25.568,28.4-42.362,38.123-28.123,16.282-56.7,16.577-85.5,2.05A140.326,140.326,0,0,1,7.739,55.544a3.45,3.45,0,0,1,0-5.161C25.715,28.077,47.232,10.826,75.4,3.376A206.883,206.883,0,0,1,96.162,0M21.188,53.084c.422.534.836,1.143,1.331,1.672A129.639,129.639,0,0,0,58.314,82.4c16.743,8.552,34.322,12.1,52.979,8.125,16.18-3.442,29.878-11.721,42.175-22.467,5.339-4.666,10.224-9.851,15.429-14.91-12.118-13.411-24.92-24.749-41.511-32.387,15.358,20.965,9.291,43.169-3.333,55.339a42.418,42.418,0,0,1-52.777,4.444A39.588,39.588,0,0,1,55.186,59.22C51.042,46.2,53.4,34.032,61.169,22.472c-11.141,3.9-33.886,21.4-39.981,30.6m44.244-6.385a29.466,29.466,0,1,0,29.586-29.01,29.061,29.061,0,0,0-29.586,29.01m44.8,248.489c0-15.929.073-31.855-.027-47.782a9.235,9.235,0,0,1,4.734-8.81,65.393,65.393,0,0,1,10.29-4.181c3.515-1.2,7.279-1.748,10.685-3.169a23.311,23.311,0,0,0,15.332-20.67c.244-2.743-.546-3.769-3.479-3.735-12.165.141-24.332.051-36.5.051H42.439c-3.9,0-4.144.3-3.808,4.237A21.173,21.173,0,0,0,48.538,228.2,73.619,73.619,0,0,0,61.7,233.715c3.581,1.321,7.431,1.97,10.914,3.489a10.861,10.861,0,0,1,7.026,11.053c-.227,16.141-.037,32.282-.139,48.423-.017,2.477.6,3.369,3.211,3.318,8.108-.151,16.219-.044,24.33-.054.934,0,1.862-.122,3.2-.217v-4.551M167.831,108.24a5.363,5.363,0,1,0,5.2-5.236,5.363,5.363,0,0,0-5.2,5.236m-153.481.024a5.378,5.378,0,1,0,5.215-5.407,5.536,5.536,0,0,0-5.215,5.407m129.108-.295a5.336,5.336,0,0,0,5.158,5.69,5.424,5.424,0,1,0-5.158-5.69m-19.771,62.34a5.244,5.244,0,0,0,5.363,5.119A5.322,5.322,0,0,0,134.474,170a5.38,5.38,0,0,0-5.407-5.134,5.288,5.288,0,0,0-5.388,5.449M53.6,178.45a5.5,5.5,0,0,0-5.456,5.488,5.578,5.578,0,0,0,5.392,5.239A5.363,5.363,0,0,0,53.6,178.45m95.829-36.86a5.416,5.416,0,1,0,1.9-3.725,5.4,5.4,0,0,0-1.9,3.725M39.153,107.945a5.424,5.424,0,1,0,5.537-5.106,5.424,5.424,0,0,0-5.537,5.106m72.238,70.5a5.48,5.48,0,0,0-5.624,5.285,5.419,5.419,0,0,0,5.18,5.4,5.485,5.485,0,0,0,5.663-5.275,5.57,5.57,0,0,0-5.219-5.407m-14.82.02a5.458,5.458,0,0,0-5.419,5.176,5.409,5.409,0,1,0,5.422-5.176M69.833,125.29a5.385,5.385,0,1,0,10.759.488,5.592,5.592,0,0,0-5.313-5.658,5.519,5.519,0,0,0-5.449,5.161m65.334.329a5.5,5.5,0,0,0,5.268,5.363,5.58,5.58,0,0,0,5.424-5.224,5.473,5.473,0,0,0-5.3-5.607,5.363,5.363,0,0,0-5.388,5.488M114.133,151.47a5.275,5.275,0,1,0,4.824,2.493,5.269,5.269,0,0,0-4.824-2.493m64.988-59.381a5.31,5.31,0,0,0,5.271,5.551,5.519,5.519,0,0,0,5.336-5.263,5.424,5.424,0,0,0-5.344-5.549,5.341,5.341,0,0,0-5.263,5.261m-138.7,64.632a5.2,5.2,0,0,0,5.21,5.263,5.266,5.266,0,1,0,.312-10.524,5.188,5.188,0,0,0-5.522,5.261m12.257-36.592a5.466,5.466,0,1,0,5.207,5.29,5.212,5.212,0,0,0-5.207-5.29m15.5,58.32a5.395,5.395,0,0,0-5.383,5.478,5.273,5.273,0,0,0,5.363,5.151,5.363,5.363,0,0,0,5.434-5.436,5.5,5.5,0,0,0-5.414-5.193m49.171-58.325a5.566,5.566,0,0,0-5.578,5.375,5.685,5.685,0,0,0,5.541,5.451,5.5,5.5,0,0,0,5.193-5.4,5.424,5.424,0,0,0-5.156-5.422m51.1,5.668a5.512,5.512,0,0,0-5.29-5.67,5.429,5.429,0,1,0,5.29,5.67M35.318,141.828a5.431,5.431,0,1,0,5.329-5.246,5.432,5.432,0,0,0-5.329,5.246m-5.492-21.7a5.193,5.193,0,1,0,3.64,1.7,5.232,5.232,0,0,0-3.64-1.7M10.845,92.479A5.736,5.736,0,0,0,5.481,86.8,5.427,5.427,0,0,0,5.337,97.65a5.668,5.668,0,0,0,5.5-5.171M90.54,125.3a5.666,5.666,0,0,0,5.312,5.683A5.422,5.422,0,1,0,96,120.144,5.485,5.485,0,0,0,90.54,125.3m-17.913,16.6a5.378,5.378,0,1,0,5.553-5.3,5.273,5.273,0,0,0-5.553,5.3m18.367,55.88a5.392,5.392,0,1,0,5.475-5.346,5.307,5.307,0,0,0-5.475,5.346m24.21-61.209a5.324,5.324,0,1,0,5.329,5.249,5.268,5.268,0,0,0-5.329-5.249M62.3,151.448a5.239,5.239,0,0,0-5.232,5.251,5.392,5.392,0,1,0,5.244-5.246m78.674,27a5.156,5.156,0,0,0-5.319,5.2,5.068,5.068,0,0,0,5.363,5.468,5.163,5.163,0,0,0,5.2-5.344,5.271,5.271,0,0,0-5.244-5.329m-.329-36.355a5.185,5.185,0,0,0-4.961-5.5,5.322,5.322,0,1,0,4.961,5.5M82.4,178.45a5.363,5.363,0,1,0,5.1,5.617,5.363,5.363,0,0,0-5.1-5.617M69.314,192.465a5.02,5.02,0,0,0-5.5,4.968A5.09,5.09,0,0,0,69.07,203a5.173,5.173,0,0,0,5.363-5.156,5.119,5.119,0,0,0-5.119-5.378m35.67,5.119a5.258,5.258,0,1,0,5.29-5.134,4.954,4.954,0,0,0-5.29,5.134m32.323-5.137a5.18,5.18,0,0,0-5.344,5.188A5.285,5.285,0,0,0,137.475,203a5.061,5.061,0,0,0,5.119-5.363,5,5,0,0,0-5.275-5.183m6.628-35.836a5.056,5.056,0,0,0,5.088,5.375,5.166,5.166,0,0,0,5.488-5.363,5.068,5.068,0,0,0-5.3-5.161,4.978,4.978,0,0,0-5.28,5.154M55.269,170.314a5.256,5.256,0,1,0-10.5-.137,4.966,4.966,0,0,0,5.178,5.232,5.012,5.012,0,0,0,5.327-5.1m57.777-5.468a5.3,5.3,0,1,0,4.939,5.592,5.239,5.239,0,0,0-4.939-5.592m-38.1-8.223A5.193,5.193,0,0,0,80.03,162a5.283,5.283,0,1,0,.488-10.554,5.163,5.163,0,0,0-5.578,5.174m56.614,27.106a5.288,5.288,0,1,0-5.212,5.366,5.288,5.288,0,0,0,5.212-5.366M96.715,151.443a5.278,5.278,0,1,0,5.322,5.149,5.061,5.061,0,0,0-5.322-5.149M65.6,164.822a5.222,5.222,0,0,0-5.427,5.424,5.066,5.066,0,0,0,5.275,5.171,4.937,4.937,0,0,0,5.234-5.171,5.176,5.176,0,0,0-5.083-5.424m36.6,5.529a5.1,5.1,0,0,0-5.322-5.478,5.2,5.2,0,0,0-5.283,5.249,5.132,5.132,0,0,0,5.207,5.283,5.022,5.022,0,0,0,5.4-5.054M59.674,136.58a5.31,5.31,0,1,0-.063,10.619,5.224,5.224,0,0,0,5.261-5.283,5.156,5.156,0,0,0-5.2-5.336M77.3,197.6a5.168,5.168,0,0,0,5.119,5.4,5.28,5.28,0,1,0-5.119-5.4m41.165.178A5.078,5.078,0,0,0,123.7,203a5.29,5.29,0,0,0-.117-10.58,5.1,5.1,0,0,0-5.119,5.363m-62.5-5.336a5.28,5.28,0,1,0,5.205,5.354,5.279,5.279,0,0,0-5.205-5.354m76.117-40.994a5.066,5.066,0,0,0-5.48,4.985A5.119,5.119,0,0,0,131.527,162a5.251,5.251,0,0,0,5.685-5.173,5.166,5.166,0,0,0-5.119-5.375m18.1,18.983a5.3,5.3,0,1,0-5.517,4.971,5.119,5.119,0,0,0,5.517-4.971M90.957,141.765a5.19,5.19,0,0,0,5.412,5.431,5.295,5.295,0,0,0-.037-10.585,5.207,5.207,0,0,0-5.375,5.154m-9.451,23.1a5.278,5.278,0,1,0,5.261,5.217,5.063,5.063,0,0,0-5.261-5.217" transform="translate(-0.025 0)" fill="#00b5ff"/>
    </g>
  </g>
</svg>
