<svg xmlns="http://www.w3.org/2000/svg" width="300.001" height="300" viewBox="0 0 300.001 300">
  <g id="Group_1866" data-name="Group 1866" transform="translate(1175 -15763)">
    <rect id="Rectangle_575" data-name="Rectangle 575" width="300" height="300" transform="translate(-1175 15763)" fill="none"/>
    <g id="Group_1485" data-name="Group 1485" transform="translate(-2911.719 3698.54)">
      <path id="Path_591" data-name="Path 591" d="M264.355,161.637V161a19.083,19.083,0,0,1,2.443-9.222c-7.558-6.738-12.121-15.771-12.121-24.649V78.745H245v46.685a43.45,43.45,0,0,0,19.355,36.206Z" transform="translate(1583.655 12019.583)" fill="#ff2424"/>
      <path id="Path_592" data-name="Path 592" d="M332.5,131.25h19.355v33.871H332.5Z" transform="translate(1544.542 11996.113)" fill="#ff2424"/>
      <path id="Path_593" data-name="Path 593" d="M385,141.653a19.2,19.2,0,0,1,10.326,3.044c5.564-4.912,9.029-11.464,9.029-17.56V78.75h-9.677V98.1A9.686,9.686,0,0,1,385,107.782Z" transform="translate(1521.075 12019.581)" fill="#ff2424"/>
      <path id="Path_594" data-name="Path 594" d="M437.38,78.75H427.7v48.387c0,8.878-4.562,17.912-12.121,24.649a19.083,19.083,0,0,1,2.443,9.222v.633a43.448,43.448,0,0,0,19.355-36.2Z" transform="translate(1507.404 12019.581)" fill="#ff2424"/>
      <path id="Path_595" data-name="Path 595" d="M245,26.25H361.129V45.6H245Z" transform="translate(1583.655 12043.049)" fill="#ff2424"/>
      <path id="Path_596" data-name="Path 596" d="M359.274,291.532V262.5H262.5v29.032h9.677V272.177H301.21v19.355h19.355V272.177H349.6v19.355Z" transform="translate(1575.833 11937.444)" fill="#ff2424"/>
      <path id="Path_597" data-name="Path 597" d="M315,78.75h38.71V98.1H315Z" transform="translate(1552.365 12019.581)" fill="#ff2424"/>
      <path id="Path_598" data-name="Path 598" d="M280,78.75v48.387c0,6.1,3.465,12.648,9.029,17.56a19.2,19.2,0,0,1,10.326-3.044V107.782a9.686,9.686,0,0,1-9.677-9.677V78.75Z" transform="translate(1568.01 12019.581)" fill="#ff2424"/>
      <path id="Path_599" data-name="Path 599" d="M297.5,219.677v9.677h58.065v-9.677A9.686,9.686,0,0,0,345.887,210h-38.71A9.686,9.686,0,0,0,297.5,219.677Z" transform="translate(1560.188 11960.912)" fill="#ff2424"/>
      <path id="Path_600" data-name="Path 600" d="M334.355,463.75c-9.232,0-19.355,20.381-19.355,29.032a19.355,19.355,0,1,0,38.71,0C353.71,484.131,343.587,463.75,334.355,463.75Z" transform="translate(1552.365 11847.484)" fill="#ff2424"/>
      <path id="Path_601" data-name="Path 601" d="M98.1,428.75c-6.087,0-19.355,12.144-19.355,24.194A14.52,14.52,0,0,0,93.285,467.46a15.089,15.089,0,0,0,2.385-.194c6.906-1.121,12.112-7.509,12.112-14.84v-14A9.686,9.686,0,0,0,98.1,428.75Z" transform="translate(1657.969 11863.13)" fill="#ff2424"/>
      <path id="Path_602" data-name="Path 602" d="M211.855,463.75c-6.087,0-19.355,12.144-19.355,24.194a14.521,14.521,0,0,0,14.535,14.516,15.089,15.089,0,0,0,2.385-.194c6.906-1.121,12.112-7.509,12.112-14.84v-14a9.686,9.686,0,0,0-9.677-9.677Z" transform="translate(1607.123 11847.484)" fill="#ff2424"/>
      <path id="Path_603" data-name="Path 603" d="M341.25,350h9.677v53.226H341.25Z" transform="translate(1540.631 11898.331)" fill="#ff2424"/>
      <path id="Path_604" data-name="Path 604" d="M175.25,350.2c-25.19,5.545-43.112,22.277-51.489,36.087l8.28,5.018c7.336-12.1,23.081-26.768,45.285-31.655Z" transform="translate(1637.849 11898.241)" fill="#ff2424"/>
      <path id="Path_605" data-name="Path 605" d="M227.92,410.257l9.213,2.957c3.968-12.354,16.162-28.592,27.175-36.209l-5.5-7.96c-12.926,8.936-26.207,26.656-30.886,41.211Z" transform="translate(1591.29 11889.818)" fill="#ff2424"/>
      <path id="Path_606" data-name="Path 606" d="M442.663,410.258c-4.679-14.559-17.961-32.275-30.89-41.211l-5.5,7.96c11.012,7.616,23.206,23.859,27.175,36.208Z" transform="translate(1511.566 11889.817)" fill="#ff2424"/>
      <path id="Path_607" data-name="Path 607" d="M481.448,350.2l-2.08,9.451c22.211,4.886,37.956,19.553,45.285,31.655l8.28-5.018c-8.373-13.812-26.3-30.542-51.485-36.087Z" transform="translate(1478.892 11898.242)" fill="#ff2424"/>
      <path id="Path_608" data-name="Path 608" d="M578.427,428.75a9.686,9.686,0,0,0-9.677,9.677v14c0,7.336,5.206,13.717,12.112,14.84a15.367,15.367,0,0,0,2.385.194,14.521,14.521,0,0,0,14.535-14.516c0-12.049-13.267-24.194-19.355-24.194Z" transform="translate(1438.938 11863.131)" fill="#ff2424"/>
      <path id="Path_609" data-name="Path 609" d="M464.677,463.75A9.686,9.686,0,0,0,455,473.427v14c0,7.336,5.206,13.717,12.112,14.84a15.368,15.368,0,0,0,2.385.194,14.521,14.521,0,0,0,14.535-14.516c0-12.049-13.268-24.194-19.355-24.194Z" transform="translate(1489.784 11847.485)" fill="#ff2424"/>
    </g>
  </g>
</svg>
