<svg xmlns="http://www.w3.org/2000/svg" xmlns:xlink="http://www.w3.org/1999/xlink" width="300" height="300" viewBox="0 0 300 300">
  <defs>
    <clipPath id="clip-pathyhujyjugkukmujdjy567676587784836ujen6yhtgfdrgf">
      <path id="Path_688" data-name="Path 688" d="M34.621,275.107c0,4.919-.1,9.441.024,13.957A10.159,10.159,0,0,0,45.07,299.88q20,.12,39.989.12h1.8q19.263,0,38.52-.11a9.861,9.861,0,0,0,10.3-9.265c.345-5.018.073-10.081.073-15.52Zm.5-6.952H135.54V104.675H35.125ZM68.518,61.014a35.209,35.209,0,0,0-32.391,25.57A87.732,87.732,0,0,0,34.4,97.762H135.389c1.6-17.87-13.771-35.624-31.7-36.591-6.108-.329-12.235-.468-18.364-.468-5.606,0-11.213.115-16.806.308M147.291,0h-.031C123.021,2.185,98.776,4.365,74.55,6.678c-1.045.1-2.948,1.694-2.825,2.2,1.555,6.464-3.659,11.113-4.339,17.161l-7.057,1.4C26.124,34.223,7.1,57.239,7.1,91.868q0,35.5-.071,71c0,1.589-.5,4.391-1.231,4.558-3.659.826-2.846,3.492-2.935,5.784Q1.438,209.98.1,246.757c-.2,5.708-.031,11.43-.031,17.25h26a14.509,14.509,0,0,0,.355-2.352q-1.526-45.19-3.136-90.373c-.039-1.061-.666-2.9-1.273-3.011-3.774-.7-2.776-3.523-2.781-5.781q-.071-36.819-.005-73.625A79.535,79.535,0,0,1,20.1,77.887c2.823-19.791,27.417-39.749,47.03-38.4.724,2.091,1.022,5.557,2.2,5.886,5.1,1.424,5.512,5.034,5.227,9.409H96.552V36.171l63.081,13.28c-.175-4.992-2.352-8.536-8.5-11.239A280.016,280.016,0,0,0,123.264,27.59c-8.034-2.551-16.416-4-24.644-5.938,5.8-1.662,11.662-2.138,17.3-3.542a236.853,236.853,0,0,0,25.5-7.614c3.921-1.464,7.729-4.4,7.24-10.057A8.13,8.13,0,0,0,147.336,0Z" transform="translate(0)" fill="#ff2424"/>
    </clipPath>
  </defs>
  <g id="Group_1820" data-name="Group 1820" transform="translate(-10419 -2312)">
    <rect id="Rectangle_496" data-name="Rectangle 496" width="300" height="300" transform="translate(10419 2312)" fill="none"/>
    <g id="Group_725" data-name="Group 725" transform="translate(10489.184 2312)" clip-path="url(#clip-pathyhujyjugkukmujdjy567676587784836ujen6yhtgfdrgf)">
      <rect id="Rectangle_5448" data-name="Rectangle 5448" width="338.986" height="267.507" transform="translate(-111.151 250.839) rotate(-66.12)" fill="#ff2424"/>
    </g>
  </g>
</svg>
