<svg xmlns="http://www.w3.org/2000/svg" width="300" height="300" viewBox="0 0 300 300">
  <g id="Group_1806" data-name="Group 1806" transform="translate(1384 -16004)">
    <rect id="Rectangle_557" data-name="Rectangle 557" width="300" height="300" transform="translate(-1384 16004)" fill="none"/>
    <g id="Group_1635" data-name="Group 1635" transform="translate(-4913.319 4789)">
      <path id="Path_563" data-name="Path 563" d="M157.495,240.033v62.449a15.044,15.044,0,0,0,15,15h130a15.044,15.044,0,0,0,15-15V240.033a114.832,114.832,0,0,1-159.995,0Zm30,57.45a10.029,10.029,0,1,1,7.062-2.938,10,10,0,0,1-7.062,2.938Zm100-20a10.029,10.029,0,1,1-7.062,2.938,10,10,0,0,1,7.062-2.938Zm80-45a27.228,27.228,0,0,0,5-.451v10.451a45.07,45.07,0,0,1-45,45v-10a35.04,35.04,0,0,0,35-35V232.034A27.227,27.227,0,0,0,367.488,232.485Zm-130,30a105.115,105.115,0,1,0-74.21-30.788,104.99,104.99,0,0,0,74.21,30.788Zm0-135a30.034,30.034,0,1,1-21.2,8.8A30.005,30.005,0,0,1,237.492,127.489Zm149.995,75a20.02,20.02,0,1,1-5.864-14.136A20.007,20.007,0,0,1,387.487,202.486ZM97.171,104.261a5,5,0,1,1-9.352-3.544,161.517,161.517,0,0,1,72.215-82.58,5,5,0,1,1,4.915,8.705,151.528,151.528,0,0,0-67.781,77.415Zm24.937,5.158h0a5,5,0,0,1-9.223-3.862,133.639,133.639,0,0,1,51.951-62.306,5,5,0,0,1,5.317,8.473,123.678,123.678,0,0,0-48.045,57.689ZM308.136,20.034a5,5,0,0,1,6.81-1.9,161.478,161.478,0,0,1,72.215,82.58,5,5,0,1,1-9.352,3.544,151.5,151.5,0,0,0-67.781-77.415,5,5,0,0,1-1.9-6.81Zm-4.882,24.8h0a5.012,5.012,0,0,1,6.895-1.578A133.611,133.611,0,0,1,362.1,105.56a5,5,0,1,1-9.223,3.862A123.65,123.65,0,0,0,304.83,51.732a5,5,0,0,1-1.578-6.895Z" transform="translate(3441.829 11197.518)" fill="#ff2424"/>
    </g>
  </g>
</svg>
