<svg xmlns="http://www.w3.org/2000/svg" xmlns:xlink="http://www.w3.org/1999/xlink" width="300" height="300" viewBox="0 0 300 300">
  <defs>
    <clipPath id="clip-pathsadasdiakashflhhkljhflhkghlfkdglkfgfb1235445">
      <path id="Path_702" data-name="Path 702" d="M20.176,155.831a8.27,8.27,0,1,1,8.27,8.27,8.27,8.27,0,0,1-8.27-8.27m61.455-20.414c4.9-9.845,13.144-16.125,23.428-22.031-5.647,15.143-.677,27.524,6.688,39.188,7.1,11.253,14.97,22.016,22.19,33.192,6.8,10.537,11.766,21.644,11.181,34.752-.895,19.961-17.216,39.767-36.372,42.732,13.556-14.37,18.019-30.191,9.576-48.314h0a44.284,44.284,0,0,1-21.3,24.976c10.629-21.005,5.668-40.015-6.656-58.379-.722,13.452-7.825,24.4-13.425,35.853-7.694,15.743-8.055,30.62,5.134,44.152L80.8,262.772a135.107,135.107,0,0,1-14.114-8.818c-15.674-12.6-22.852-36.963-11.578-56.554.919-1.6,1.683-3.282,2.569-4.913,7.694-14.138,7.891-15.194,6.265-37.019l17.718,10.677c-3.458-10.206-5.119-20.54-.036-30.728M26.115,11.671A12.828,12.828,0,0,0,13.287,24.5V300h168.2V24.487a12.828,12.828,0,0,0-12.828-12.828ZM20.325,0A20.327,20.327,0,0,0,0,20.322V299.8H8.469V20.325a13.55,13.55,0,0,1,13.55-13.55H172.767a13.55,13.55,0,0,1,13.55,13.55V299.8h8.469V20.325A20.327,20.327,0,0,0,174.464,0Z" fill="#ff6f00"/>
    </clipPath>
  </defs>
  <g id="Group_1816" data-name="Group 1816" transform="translate(-9986 -2312)">
    <rect id="Rectangle_495" data-name="Rectangle 495" width="300" height="300" transform="translate(9986 2312)" fill="none"/>
    <g id="Group_736" data-name="Group 736" transform="translate(10038.607 2312)" clip-path="url(#clip-pathsadasdiakashflhhkljhflhkghlfkdglkfgfb1235445)">
      <rect id="Rectangle_5466" data-name="Rectangle 5466" width="194.786" height="299.988" fill="#ff6f00"/>
    </g>
  </g>
</svg>
