<svg xmlns="http://www.w3.org/2000/svg" width="300" height="300" viewBox="0 0 300 300">
  <g id="Group_1868" data-name="Group 1868" transform="translate(1541 -15942)">
    <rect id="Rectangle_579" data-name="Rectangle 579" width="300" height="300" transform="translate(-1541 15942)" fill="none"/>
    <g id="noun-hydrant-3913862" transform="translate(-1686.938 15893.875)">
      <path id="Path_610" data-name="Path 610" d="M196.88,240.62h16.981v39.623H196.88Z" transform="translate(0 -67.969)" fill="#ff2424"/>
      <path id="Path_611" data-name="Path 611" d="M231.88,223.12h16.981v62.265H231.88Z" transform="translate(-12.358 -61.79)" fill="#ff2424"/>
      <path id="Path_612" data-name="Path 612" d="M379.558,153.12H249.365V170.1h130.19Z" transform="translate(-18.532 -37.073)" fill="#ff2424"/>
      <path id="Path_613" data-name="Path 613" d="M345.031,65.106h.793a47.762,47.762,0,0,1,7.02.566h1.018l0-9.057a8.491,8.491,0,1,0-16.981,0v9.057H337.9a48.056,48.056,0,0,1,7.133-.566Z" transform="translate(-49.433 0)" fill="#ff2424"/>
      <path id="Path_614" data-name="Path 614" d="M332.448,84.26a35.433,35.433,0,0,0-5.208-.9,59.482,59.482,0,0,0-16.3.794,53.358,53.358,0,0,0-27.284,14.717,52,52,0,0,0-13.813,23.888H373.658A53.591,53.591,0,0,0,332.451,84.26Z" transform="translate(-25.762 -12.361)" fill="#ff2424"/>
      <path id="Path_615" data-name="Path 615" d="M476.88,240.62h16.981v39.623H476.88Z" transform="translate(-98.866 -67.969)" fill="#ff2424"/>
      <path id="Path_616" data-name="Path 616" d="M441.88,223.12h16.981v62.265H441.88Z" transform="translate(-86.508 -61.79)" fill="#ff2424"/>
      <path id="Path_617" data-name="Path 617" d="M374.418,363.6V188.13H266.87V363.6ZM320.644,205.111A36.793,36.793,0,1,1,283.851,241.9,36.865,36.865,0,0,1,320.644,205.111Z" transform="translate(-24.713 -49.435)" fill="#ff2424"/>
      <path id="Path_618" data-name="Path 618" d="M333.007,285.395a31.132,31.132,0,1,0-31.132-31.132A31.113,31.113,0,0,0,333.007,285.395Zm0-45.283a14.151,14.151,0,1,1-14.151,14.151A14.157,14.157,0,0,1,333.007,240.111Z" transform="translate(-37.073 -61.793)" fill="#ff2424"/>
      <path id="Path_619" data-name="Path 619" d="M345.366,275.111a8.491,8.491,0,1,0-8.491-8.491A8.552,8.552,0,0,0,345.366,275.111Z" transform="translate(-49.431 -74.151)" fill="#ff2424"/>
      <path id="Path_620" data-name="Path 620" d="M249.38,468.12H379.57v28.3H249.38Z" transform="translate(-18.537 -148.297)" fill="#ff2424"/>
    </g>
  </g>
</svg>
