<svg xmlns="http://www.w3.org/2000/svg" width="300" height="300" viewBox="0 0 300 300">
  <g id="Group_1874" data-name="Group 1874" transform="translate(1549 -15830)">
    <rect id="Rectangle_582" data-name="Rectangle 582" width="300" height="300" transform="translate(-1549 15830)" fill="none"/>
    <g id="noun-damper-2052724" transform="translate(-1643.003 15759.625)">
      <path id="Path_621" data-name="Path 621" d="M384.159,182.875h-8.906V161.218A25.166,25.166,0,0,0,350.035,136H137.971a25.166,25.166,0,0,0-25.218,25.218v21.657h-9A9.742,9.742,0,0,0,94,192.626v55.5a9.742,9.742,0,0,0,9.751,9.751h9v21.657a25.166,25.166,0,0,0,25.218,25.218H350.035a25.166,25.166,0,0,0,25.218-25.218V257.876h8.906A9.823,9.823,0,0,0,394,248.125v-55.5A9.823,9.823,0,0,0,384.159,182.875ZM356.5,274.844A11.123,11.123,0,0,1,345.347,286H142.659A11.123,11.123,0,0,1,131.5,274.844V165.906a11.123,11.123,0,0,1,11.156-11.156H345.347A11.123,11.123,0,0,1,356.5,165.906Z" fill="#ff2424"/>
      <path id="Path_622" data-name="Path 622" d="M368.066,199.98H199.315a9.375,9.375,0,0,0,0,18.75H368.066a9.375,9.375,0,0,0,0-18.75Z" transform="translate(-39.724 -26.492)" fill="#ff2424"/>
      <path id="Path_623" data-name="Path 623" d="M368.066,264H199.315a9.375,9.375,0,0,0,0,18.75H368.066a9.375,9.375,0,1,0,0-18.75Z" transform="translate(-39.724 -53)" fill="#ff2424"/>
      <path id="Path_624" data-name="Path 624" d="M368.066,328H199.315a9.375,9.375,0,0,0,0,18.75H368.066a9.375,9.375,0,0,0,0-18.75Z" transform="translate(-39.724 -79.5)" fill="#ff2424"/>
    </g>
  </g>
</svg>
