<svg xmlns="http://www.w3.org/2000/svg" width="300" height="300" viewBox="0 0 300 300">
  <g id="Group_1843" data-name="Group 1843" transform="translate(-8656 -7837)">
    <rect id="Rectangle_515" data-name="Rectangle 515" width="300" height="300" transform="translate(8656 7837)" fill="none"/>
    <g id="Group_13854" data-name="Group 13854" transform="translate(8655.013 7838.705)">
      <g id="Group_13875" data-name="Group 13875" transform="translate(0.987 -0.001)">
        <rect id="Rectangle_7641" data-name="Rectangle 7641" width="163.563" height="21.209" transform="translate(136.436)" fill="#929df9"/>
        <path id="Path_11324" data-name="Path 11324" d="M353.244,182.442H275.193V38.581h78.051Zm-56.1-91.414h-6.259v23.858h6.259Z" transform="translate(-53.591 -10.383)" fill="#929df9"/>
        <path id="Path_11325" data-name="Path 11325" d="M158.912,38.546h77.875V182.34H206.339c.411-4,.794-7.946,1.231-11.89.631-5.714,1.215-11.434,1.973-17.133,1.817-13.666-9.645-20.558-18.766-20.661-9.567-.11-19.137-.034-28.706-.039h-3.159Zm63.951,52.483h-6.3v23.829h6.3Z" transform="translate(-31.829 -10.373)" fill="#929df9"/>
        <path id="Path_11326" data-name="Path 11326" d="M161.112,226.989H23.825c-.543-4.7-1.1-9.375-1.623-14.057-.819-7.349-1.21-14.774-2.525-22.032-1.714-9.465,5.261-13.954,11.631-14.523.814-.074,1.639-.069,2.458-.069q58.666,0,117.331.069a21.72,21.72,0,0,1,8.181,1.678,9.823,9.823,0,0,1,6.153,10.824c-1.1,10.44-2.313,20.868-3.489,31.3-.254,2.244-.545,4.485-.83,6.807" transform="translate(-7.033 -34.768)" fill="#929df9"/>
        <path id="Path_11327" data-name="Path 11327" d="M88.412,335.869H8.6c-5.121,0-6.11-.981-6.115-6.051q-.009-9.175,0-18.343c0-4.937,1.029-5.969,5.93-5.969H153.282c5.285,0,10.57-.029,15.854.01,3.876.029,5.067,1.231,5.083,5.093.027,6.482.014,12.965,0,19.449,0,4.8-1,5.829-5.726,5.829H88.4" transform="translate(-2.474 -60.183)" fill="#929df9"/>
        <path id="Path_11328" data-name="Path 11328" d="M88.382,285.223H8.57c-5.158,0-6.1-.909-6.065-6.034a73.84,73.84,0,0,1,.274-8.2,18,18,0,0,1,17.859-16.022q67.786-.081,135.572,0a18.079,18.079,0,0,1,17.961,17.412c.125,2.734.1,5.486.058,8.215-.05,3.362-1.281,4.6-4.665,4.617-10.569.033-21.137.014-31.714.014H88.382" transform="translate(-2.486 -51.805)" fill="#929df9"/>
        <path id="Path_11329" data-name="Path 11329" d="M339.145,244.765v46.4h-3.171c-30.711,0-61.423-.033-92.134.058-2.532,0-4.325-.3-4.982-3.065a8.278,8.278,0,0,0-1.239-2.105c3.369-7.26,3.446-8.6,1.344-24.171H274.84v-6.6c-.941-.057-1.742-.144-2.542-.144q-16.4-.014-32.808-.01c-1.382,0-2.9-.269-2.791,2.547a27.8,27.8,0,0,0-13.358-10.893,1.394,1.394,0,0,1-.658-1.2c.094-.381.663-.739,1.1-.907a3.97,3.97,0,0,1,1.354-.045H336.959c.627,0,1.255.074,2.187.134" transform="translate(-39.452 -48.552)" fill="#929df9"/>
        <path id="Path_11330" data-name="Path 11330" d="M341.621,360.062H232.154V345.978a11.764,11.764,0,0,0,9.879-6.676c.267-.549,1.735-.7,2.649-.71,9.845-.048,19.692-.029,29.539-.031h3.139v-6.686H243v-14.2h98.624Z" transform="translate(-42.009 -63.471)" fill="#929df9"/>
        <path id="Path_11331" data-name="Path 11331" d="M158.789,370.354v-14.17h7.083c5.829,0,11.657.043,17.486-.029,1.563-.021,2.443.3,2.914,2.014,1.089,4.025,2.439,7.98,3.753,12.185Z" transform="translate(-34.214 -73.822)" fill="#929df9"/>
        <path id="Path_11332" data-name="Path 11332" d="M205.015,356.318H217.78V369.9c-2.463,0-4.8.11-7.126-.072a2.614,2.614,0,0,1-1.767-1.514c-1.344-3.85-2.523-7.755-3.871-12" transform="translate(-44.535 -73.868)" fill="#929df9"/>
        <path id="Path_11333" data-name="Path 11333" d="M33.3,356.451c-1.308,4.231-2.558,8.386-3.915,12.514a1.865,1.865,0,0,1-1.411.929c-2.427.1-4.858.043-7.438.043V356.458Z" transform="translate(-7.333 -73.903)" fill="#929df9"/>
      </g>
    </g>
  </g>
</svg>
