<svg xmlns="http://www.w3.org/2000/svg" xmlns:xlink="http://www.w3.org/1999/xlink" width="300" height="300" viewBox="0 0 300 300">
  <defs>
    <clipPath id="clip-path">
      <rect id="Rectangle_5486" data-name="Rectangle 5486" width="300" height="300" fill="#c8c8c8"/>
    </clipPath>
  </defs>
  <g id="gfci" transform="translate(0 -1.358)">
    <g id="Group_752" data-name="Group 752" transform="translate(0 1.358)" clip-path="url(#clip-path)">
      <path id="Path_708" data-name="Path 708" d="M281.081,0H18.918A18.918,18.918,0,0,0,0,18.918V281.081A18.918,18.918,0,0,0,18.918,300H281.081A18.918,18.918,0,0,0,300,281.081V18.918A18.918,18.918,0,0,0,281.081,0M243.242,227.026a13.529,13.529,0,0,1-13.514,13.514H70.272a13.529,13.529,0,0,1-13.514-13.514V72.979A13.529,13.529,0,0,1,70.272,59.465H229.728a13.529,13.529,0,0,1,13.514,13.514Zm-170.276-2.7H227.013V75.686H72.966ZM172.973,106.756a2.7,2.7,0,0,1,2.713-2.7H186.5a2.7,2.7,0,0,1,2.7,2.7v35.135a2.7,2.7,0,0,1-2.7,2.7H175.686a2.7,2.7,0,0,1-2.7-2.7Zm-37.837,75.676a16.216,16.216,0,0,1,32.432,0v13.514H135.136Zm-24.325-75.676a2.7,2.7,0,0,1,2.7-2.7h10.819a2.7,2.7,0,0,1,2.7,2.7v35.135a2.7,2.7,0,0,1-2.7,2.7H113.513a2.7,2.7,0,0,1-2.7-2.7Z" fill="#c8c8c8"/>
    </g>
  </g>
</svg>
