<svg xmlns="http://www.w3.org/2000/svg" width="299.996" height="291.837" viewBox="0 0 299.996 291.837">
  <g id="Group_1775" data-name="Group 1775" transform="translate(-5310.688 -7534.102)">
    <path id="Path_10185" data-name="Path 10185" d="M148.037,137.148c-10.539,1.592-12.379,4.565-15.74,11.707s-.52,12.722,2.3,16.86c3.635,4.877,5.991,1.068,6.106,10.027-1.112,1.735-.454,3.694-1.624,5.658-1.417,7.611-20.551,61.684-11.2,122.054.13,0-17.9-2.742-21.285-3.921-15.824-6.679-28.908-12.261-38.65-25.767-1.749-3.292-7.514-8.942-6.161-15.683,1.565-3.852,9.329-19.038,11.707-22.965,7.967-13.157,19.284-23.931,28.562-35.849,4.044-5.192,11.861-12.076,16.3-16.8,2.968-2.357,4.438-5.048,6.161-7.282-1.24-1.383-4.723-6.668-5.1-6.668-2.5,3.568-63.416,34.228-90.126,76.683a123.143,123.143,0,0,1-9.019-11.763c-5.78-9.036-12.032-21.863-12.883-35.289-.647-10.2.228-27.322,6.161-30.752,11.916-8.8,50.469-12.938,50.469-12.938s8.962-1.218,21.846-1.624,25.859,2.45,29.687,0c2.455-.262,2.967-6.966,2.24-7.338-3.163-4.29-54.877-19.973-117.125-11.2-.6-1.752,2.189-19.528,3.921-24.084C10.759,93.969,24.1,72.741,41.55,67.69c5.6-.956,17.715,7.487,21.285,8.962a227.821,227.821,0,0,1,46.548,36.409c4.982,4.984,9.481,9.454,13.948,13.443,1.264,1.775,3.154,5.673,4.537,3.921,2.824-.726,6.046-2.09,6.668-5.6-28.115-60.389-75.093-87.761-75.617-91.3C65.5,28.128,78.524,21.966,87.979,18.4c11.194-2.787,41.962-6.344,47.736,0,3.518,3.792,5.925,15.5,7.282,20.165C153.34,66.392,151.3,106.624,148.037,137.148Z" transform="translate(5310.113 7522.486)" fill="#1492e6" fill-rule="evenodd"/>
    <path id="Path_10186" data-name="Path 10186" d="M147.456,122.3c-10.539,1.592-12.379,4.565-15.74,11.707s-.52,12.722,2.3,16.86c3.635,4.877,5.991,1.068,6.106,10.027-1.112,1.735-.454,3.694-1.624,5.658-1.417,7.615-20.552,61.685-11.208,122.054.13,0-17.9-2.742-21.285-3.921C90.177,278,77.093,272.421,67.351,258.915c-1.749-3.292-7.514-8.942-6.161-15.683,1.565-3.852,9.329-19.038,11.707-22.965,7.967-13.157,19.284-23.931,28.562-35.849,4.044-5.192,11.861-12.076,16.3-16.8,2.968-2.357,4.438-5.048,6.161-7.282-1.24-1.383-4.723-6.668-5.1-6.668-2.5,3.568-63.416,34.228-90.126,76.683a123.145,123.145,0,0,1-9.019-11.763C13.9,209.547,7.647,196.72,6.8,183.294c-.647-10.2.228-27.322,6.161-30.752,11.916-8.8,50.469-12.938,50.469-12.938s8.962-1.218,21.846-1.624,25.859,2.45,29.687,0c2.455-.262,2.967-6.966,2.24-7.338-3.149-4.287-54.867-19.972-117.115-11.2-.6-1.752,2.189-19.528,3.921-24.084,6.177-16.236,19.523-37.466,36.969-42.517,5.6-.956,17.715,7.487,21.285,8.962a227.822,227.822,0,0,1,46.548,36.409c4.982,4.984,9.481,9.454,13.948,13.443,1.264,1.775,3.154,5.673,4.537,3.921,2.824-.727,6.046-2.09,6.668-5.6-28.12-60.389-75.1-87.761-75.622-91.3C64.923,13.278,77.944,7.12,87.4,3.546c11.194-2.787,41.962-6.344,47.736,0,3.518,3.792,5.925,15.5,7.282,20.165C152.763,51.542,150.723,91.775,147.456,122.3Z" transform="translate(5610.685 7822.705) rotate(180)" fill="#ff5050" fill-rule="evenodd"/>
  </g>
</svg>
