<svg xmlns="http://www.w3.org/2000/svg" width="300" height="300" viewBox="0 0 300 300">
  <g id="Group_1760" data-name="Group 1760" transform="translate(-4050 -22089)">
    <rect id="Rectangle_466" data-name="Rectangle 466" width="300" height="300" transform="translate(4050 22089)" fill="none"/>
    <path id="Path_10982" data-name="Path 10982" d="M140.629,0h18.75c5.107.667,10.244,1.16,15.317,2.028a147.207,147.207,0,0,1,74.226,35.4c26.23,23.246,42.616,52.154,48.776,86.727.973,5.454,1.545,10.975,2.3,16.469v18.75c-.437,3.569-.815,7.146-1.324,10.705-4.663,32.606-18.058,61.15-41.376,84.4-38.485,38.374-84.915,52.662-138.241,42.129-36.253-7.162-65.675-26.318-88.086-55.65C5.842,208.066-3.944,170.735,1.429,129.739,5.739,96.865,19.922,68.526,43.187,44.9A146.882,146.882,0,0,1,124.162,2.3C129.617,1.344,135.137.756,140.624,0M78.2,143.258h65.09V78.472a11.2,11.2,0,0,0-1.363-.194c-16.876-.011-33.751.019-50.625-.065-2-.01-2.387,1.054-2.856,2.546A218.279,218.279,0,0,0,79.8,122.472c-.752,6.851-1.072,13.752-1.6,20.785m.293,13.38c0,1.164-.032,2.121,0,3.076a230.149,230.149,0,0,0,9.828,59.23c.68,2.217,1.635,2.846,3.838,2.836,16.094-.082,32.188-.041,48.282-.052.939,0,1.876-.114,2.893-.179V156.637ZM221.233,143.35a3.035,3.035,0,0,0,.265-.713c.021-.779.033-1.559,0-2.338a230.642,230.642,0,0,0-9.828-59.231c-.674-2.2-1.6-2.865-3.821-2.854-16.094.084-32.188.042-48.288.054-.94,0-1.88.108-2.916.172v64.91ZM156.6,221.5a14.312,14.312,0,0,0,1.677.219c16.776.013,33.553-.017,50.329.06,1.916.008,2.446-.914,2.929-2.459a227.239,227.239,0,0,0,9.252-47.528c.452-5,.593-10.028.879-15.087H156.6ZM75.14,78.508a15.954,15.954,0,0,0-1.776-.235c-12.682-.011-25.362-.067-38.041.087A4.752,4.752,0,0,0,32.1,80.566a132.975,132.975,0,0,0-17.32,47.771c-.792,4.931-1.113,9.935-1.655,14.95H65.306a249.707,249.707,0,0,1,9.833-64.78m211.273,64.884a4.6,4.6,0,0,0,.222-.845c0-.586-.025-1.17-.063-1.754a135.8,135.8,0,0,0-18.439-60.069,4.355,4.355,0,0,0-4.37-2.513c-11.9.1-23.8.043-35.7.052-.952,0-1.9.08-3.218.138a252.287,252.287,0,0,1,9.869,64.991ZM13.487,156.637a10.388,10.388,0,0,0-.121,1.224,133.231,133.231,0,0,0,19.118,62.2,4.429,4.429,0,0,0,3.292,1.6c12.29.114,24.58.075,36.869.061.744,0,1.489-.143,2.484-.244A250.918,250.918,0,0,1,65.3,156.637Zm211.378,64.83a14.794,14.794,0,0,0,1.752.25c12.68.013,25.361.068,38.038-.084a4.756,4.756,0,0,0,3.224-2.195,132.674,132.674,0,0,0,17.331-47.763c.8-4.933,1.119-9.941,1.666-14.976H234.686a249.958,249.958,0,0,1-9.823,64.773M94.455,64.933h48.853V13.913C123.774,16.727,104.8,38.866,94.455,64.933m62.134.113H206c-2.542-5.064-4.763-9.914-7.348-14.56-6.761-12.156-15.011-23.072-26.93-30.708a36.276,36.276,0,0,0-15.129-5.942Zm.021,221c19.827-2.505,39.642-26.482,48.816-51.023H156.61Zm-62.848-51.1c3.683,6.862,6.848,13.433,10.62,19.634,6.823,11.216,15.189,21.095,27.027,27.357,3.679,1.946,7.75,3.153,11.9,4.8V234.946ZM257.47,65.184c-17.308-21.328-38.135-36.051-63.82-45.007a11.385,11.385,0,0,0,.866,1.481C205.7,33.815,213.533,48,219.532,63.261c.71,1.808,1.79,1.947,3.352,1.941,8.974-.038,17.949-.018,26.924-.018h7.665M193.7,279.787a138.517,138.517,0,0,0,63.752-44.98c-11.854,0-22.874.069-33.89-.055-2.394-.027-3.413.744-4.5,2.945-4.589,9.335-9.246,18.669-14.467,27.657-2.907,5-6.984,9.327-10.892,14.432m-87.781-.5c-11.4-12.727-19.46-27.311-25.757-42.984-.31-.771-1.945-1.421-2.969-1.431-10.631-.1-21.265-.068-31.9-.051a22.9,22.9,0,0,0-2.494.312c17.05,20.972,37.871,35.7,63.119,44.152M42.551,65.184c11.634,0,22.456-.125,33.27.083,2.911.056,4.2-.8,5.278-3.509C86.876,47.265,94.429,33.8,105.024,22.2a20.681,20.681,0,0,0,1.367-2.042,139.193,139.193,0,0,0-63.84,45.028" transform="translate(4049.998 22089.004)" fill="#b19aff"/>
  </g>
</svg>
