<svg xmlns="http://www.w3.org/2000/svg" width="300" height="300" viewBox="0 0 300 300">
  <g id="Group_1781" data-name="Group 1781" transform="translate(-6442 -22091)">
    <rect id="Rectangle_449" data-name="Rectangle 449" width="300" height="300" transform="translate(6442 22091)" fill="none"/>
    <path id="IT_Services" data-name="IT Services" d="M185.578,229.2v17.927c0,2.961-.323,6.525.036,8.246,4.438-1.058,11.607-.036,16.457-.036,14.19,0,38.672-2.409,46.968,3.585,9.022,6.519,8.682,22.469-.359,28.683-7.869,5.409-34.419,3.227-48.044,3.227H71.242c-4.415,0-10.35.629-14.341-.717-7-2.686-14.848-11.48-11.473-22.588a20.508,20.508,0,0,1,11.832-11.473c4.252-1.214,9.5-.717,13.983-.717H97.415c3.526,0,16.353.723,17.21,0,1.187-1.379.359-5.121.359-7.171V229.2H62.243c-10.436,0-22.059,1.147-30.44-1.47A47.3,47.3,0,0,1,3.479,201.558C.542,193.778.933,182.9.611,171.8V67.861c0-11.115-1.2-25.6,1.434-35.136C7.241,17.874,17.682,7.066,32.52,2.213,39.851-.031,48.965.1,57.618.1h186.76c8.525,0,17-.026,23.663,2.115a48.483,48.483,0,0,1,26.532,20.831c7.135,12.052,5.055,33.5,5.378,51.987V158.57c0,12.255,1.613,29.194-1.757,38.686-1.76,6.484-5.064,11.332-8.641,15.811a19.2,19.2,0,0,1-5.342,6.059c-6.005,4.747-12.789,7.908-22.229,10.039-6.456,1.584-17.178.359-24.775.036ZM42.2,18.383c-1.552,1.489-5.785,1.543-7.924,2.151A30.583,30.583,0,0,0,20.653,34.875c-3.672,9.068-2.115,28.217-1.793,39.8v88.916c0,18.665-1.21,34.089,9,41.913,11.281,8.141,28.223,6.1,46.609,6.1H239c16.672,0,29.934.093,36.606-9.645a21.688,21.688,0,0,0,5.378-10.075c1.972-5.524,1.04-13.762,1.04-21.476V62.841c0-17.909.581-31.044-10.039-38.758a45.427,45.427,0,0,0-9.322-4.984c-5.163-1.223-12.764-.717-19-.717H42.2ZM209.242,54.595c4.3.82,6.846,3.577,10.756,3.944,1.535-2.068,7.906-8.59,10.433-9.68a10.519,10.519,0,0,1,4.984,1.04c2.243,1.327,10.763,9.741,11.15,12.19,2.556,7.7-9.609,11.321-9,15.058.054.221,3.621,9.68,3.621,9.68h11.832c2.149,1.412,4.558,1.877,5.342,4.3.9,2.77-.014,14.523-.359,16.887-1.28,1.324-2.208,3-3.944,3.549H241.187v.036h-.359c-.086,4.224-2.31,6.677-3.263,9.68,2.069,1.639,8.647,8.014,9,10.362.71,1.348.409,4.136-.359,4.7-.444,1.846-9.214,10.515-10.792,11.115-1.206,1.029-2.777,1.053-4.984,1.04-3.37-2.911-7.482-5.375-10.4-9.645a30.111,30.111,0,0,1-6.454,3.227c-1.118.932-2.809.887-3.98,1.434-.361.906-.344,2.612-.717,3.191v-1.04c-.941-.7-1.3-2.131-2.474-3.585-2.639-3.632-11.2-6.983-19-5.378a25.109,25.109,0,0,1-6.812,2.51c-1.853-7.507-10.3-10.15-17.963-12.585-2.38-.756-7.388-.242-8.6-2.474a2.9,2.9,0,0,0,2.187-2.9c-1.552-2-3.178-6.5-3.621-9.68-4.853.054-10.561.161-14.341-1.04a23.845,23.845,0,0,1-2.832-2.868c-1.327-3.795.171-15.017,1.04-18.321,4.463-2.856,8.646-2.555,16.134-2.51.894-4.251,3.6-7.1,3.98-11.115-1.706-1.284-7.982-7.357-8.963-10a14.313,14.313,0,0,1,.681-4.7c.863-1.625,9.453-10.144,11.115-11.115a10,10,0,0,1,4.661-1.04c2.9,1.132,9.185,7.572,10.756,9.68.656.036,9.651-3.581,9.358-3.944V43.086c.555-.308.8-1.127,1.04-1.434.621-2,1.959-2.319,3.227-3.908,6.382-.244,18.249-1.754,19.755,3.227C210.278,43.572,209.294,51.25,209.242,54.595ZM193.825,77.541c-1.575,1.332-4.1,1.279-5.737,1.793-5.331,3.054-9.872,7.555-11.832,13.266-4.948,15.56,9.934,31.846,24.775,27.607,11.718-2.62,21.976-15.28,15.74-30.117C213.313,82.365,205.7,77.694,193.825,77.541ZM46.5,118.378c4.614-.128,11.089-.717,12.549,1.47,2.095,2.669.717,10.22,1.04,13.624,0,12.623.507,25.911-.681,37.288a2.606,2.606,0,0,1-1.793,1.434c-2.589.372-12.291,1.068-14.341-.359-1.055-.1-1.343-.47-1.793-2.51-.772-1.434-.036-10.079-.036-12.943-.323-11.945-.482-24.866.036-36.535a1.8,1.8,0,0,0,1.793-1.434C44.775,118.778,46.175,118.821,46.5,118.378Zm22.552,46.645v-39.8h.394c3.059-1.639,7.754-1.286,11.437-2.51,10.989-2.366,26.268-1.875,35.531,1.434,6.845,2.794,11.707,6.46,19,7.888a49.138,49.138,0,0,0,9.645.359c10.141,2.6,28.3,2.109,28.324,13.624-2.248,3.543-2.619,7.324-6.776,8.927-3.4,1.557-7.11-.273-11.15-.681-9.723.117-20.28-.414-29.005-.394v.036h.359c8.367,6.682,32.668,8,44.064,2.868,5.265-1.9,8.435-6.463,12.943-9.322,4.393-1.814,14.5-3.613,16.457,1.434,2.337,2.872-.948,5.473-1.434,7.493,1.807.839,2.245,1.506,2.151,4.3-.939,1.161-1.252,2.757-2.151,3.944-3.083,4.069-10.186,7.549-15.023,10.075-3.506,2.739-6.854,6.269-11.832,7.852-6.781,2.415-15.339,1.725-22.982,3.263-6.233,1.84-19.088,4.535-26.137,2.474-12.139-3.818-23.719-10.943-35.853-16.457C81.524,169.6,76.765,166.3,69.055,165.023Z" transform="translate(6441.663 22095.318)" fill="#1d74ef" fill-rule="evenodd"/>
  </g>
</svg>
