<svg xmlns="http://www.w3.org/2000/svg" xmlns:xlink="http://www.w3.org/1999/xlink" width="875.947" height="810.845" viewBox="0 0 875.947 810.845">
  <defs>
    <linearGradient id="linear-gradientkdjfikelfjweokfmrsjfmnskfg8784546315" x1="-0.09" y1="-0.112" x2="0.892" y2="1.115" gradientUnits="objectBoundingBox">
      <stop offset="0" stop-color="#aa61c0"/>
      <stop offset="0.607" stop-color="#df4565"/>
      <stop offset="1" stop-color="#f49716"/>
    </linearGradient>
  </defs>
  <path id="maintenance" d="M66.1.1C76.85,4.722,87.955,11.682,96.1,17c7.413,3.829,14.187,5.507,20.9,8.1,15.048,8.73,30.963,17.049,46,24,9.869,6.053,32.849,13.113,38.1,20,5.076,7.022,5.106,15.389,7,22.9,7.239,17.039,13.532,35.883,19.9,52.1,2.666,9.566,5.334,18.234,8,26.9,9.332,9,18.668,18,27.1,26.1q30.848,31.347,59,60c8.333,8.332,27.482,22.417,30,31.9-11.569,8.223-21.59,22.49-32.1,33s-24.754,20.533-33,32.1c-11.429-4.941-20.148-18.249-29-28-20.665-19.431-41.335-39.769-62-60.1-9.332-9.666-18.668-19.334-28-29.9-8.08-4.245-26-6.37-36.9-11-19.505-6.715-41.857-16.122-65-21.1-2.163-12.663-11.352-24.986-18-36.9-10.9-21.72-20.33-44.461-33-67.1C10.988,90.36,2.308,79.273,0,68c5.51-3.622,9.409-9.409,14-14C25,43,35.1,32,46.1,21,52.911,15.089,63.351,8.67,66.1.1ZM656,.1c20.559.34,39.268,2.405,54.1,6.9,7.763,1.961,16.763.555,19,5.1-10.471,8.385-19.529,21.329-30,30.9-21,20.1-41.1,42-62.1,62.1-6.947,7.847-29.229,24.373-30,34,3.636,6.7,2.791,14.646,4.1,21.9,6.333,17.837,10.495,38.142,15.9,56,2.246,7.421,1.943,23.474,8,27,8.011,5.818,21.567,4.849,32,8,15.149,4.575,31.744,7.059,48,12,8.117,2.467,17.378,6.11,26.1,6.1C783,229.671,824,188.329,864.1,147h1v1c6.477,7.159,5.512,19.778,7,29.1,8.329,32.7,1.971,73.055-8,97.9-19.217,55.1-49.735,92.223-101,117-13.362,7.016-49.512,19.716-75.1,14-10.332-2-20.668-4.9-31-6.9-8.613-1.925-17.941-7.409-27.9-10-3.233,7.136-9.878,11.678-15.1,16.9-12.9,11.1-24,24-36.9,36-37,36.1-73.1,74-111,110.1-52.767,54.566-106.435,108.232-160.1,161-17.666,18.567-35.334,36.233-53.9,53.9-6.89,7.791-14.1,17.556-23.1,24a100.423,100.423,0,0,1-32,15.1C149.618,822.826,101.9,793,84,766c-5.227-7.884-10-18.683-13-28.9-23.11-70.824,43.942-117.045,76-150C230.992,503.675,315.008,419.325,399,335c21.667-21.666,43.333-43.334,65-65.9,5.811-4.911,21.893-16.236,22.1-25.1-10.371-12.5-18.073-68.279-12.1-93,2.462-10.188,2.416-18.213,6-27,20.939-51.335,59.41-83.238,107.1-107,12.734-5.787,27.873-8.44,40-12.9C636.524,2.67,649.485,5.556,656,.1Zm-32,494c13.027,9.519,27.577,28.477,38.1,39.9C691,561.1,719,590,747,617.1c18.578,19.477,47.163,40.832,57.1,65.9,16.153,35.283,6.092,71.56-13,96-17.463,24.67-67.583,42.518-105.1,24-21.492-10.608-35.921-28.92-52-45.9q-40-38.652-80-80c-13-13-26.9-25.1-39-38.1-5.238-5.239-14.338-10.582-17.9-18.9h1c5.039-8.466,26.895-25.138,34.9-34,20.053-19.044,39-40.1,59-61C602.316,515.684,615.37,506.881,624,494.1ZM160.1,676c-9.651,7.16-19.46,8.508-24.1,22-8.8,25.587,17.536,53.113,42.1,44,15.83-5.343,31.82-26.967,20-48C192.491,681.462,181,675.479,160.1,676Z" transform="translate(0 -0.1)" fill-rule="evenodd" fill="url(#linear-gradientkdjfikelfjweokfmrsjfmnskfg8784546315)"/>
</svg>
