<svg id="not_attended" data-name="not attended" xmlns="http://www.w3.org/2000/svg" width="204.59" height="204.59" viewBox="0 0 204.59 204.59">
  <path id="Path_10187" data-name="Path 10187" d="M0,0H204.59V204.59H0Z" fill="none"/>
  <path id="Path_10188" data-name="Path 10188" d="M137.423,117.582V74.959c0-26.17-13.98-48.079-38.361-53.875v-5.8A12.843,12.843,0,0,0,86.19,2.5a12.7,12.7,0,0,0-12.7,12.787v5.8C49.023,26.88,35.128,48.7,35.128,74.959v42.623l-11.082,11a8.526,8.526,0,0,0,5.967,14.577H142.282a8.55,8.55,0,0,0,6.052-14.577ZM86.19,168.729A17.1,17.1,0,0,0,103.24,151.68h-34.1A17.044,17.044,0,0,0,86.19,168.729ZM41.692,21.51a8.4,8.4,0,0,0,.256-12.19A8.52,8.52,0,0,0,30.1,9.149,88.861,88.861,0,0,0,2.223,60.808,8.617,8.617,0,0,0,10.748,70.7,8.5,8.5,0,0,0,19.1,63.621,71.949,71.949,0,0,1,41.692,21.51ZM142.538,9.149a8.624,8.624,0,0,0-11.934.17,8.37,8.37,0,0,0,.256,12.1,72.42,72.42,0,0,1,22.59,42.111,8.368,8.368,0,0,0,8.354,7.075,8.556,8.556,0,0,0,8.439-9.889,89.4,89.4,0,0,0-27.7-51.574Z" transform="translate(16.019 18.811)" fill="#ff3d3d"/>
</svg>
