<svg xmlns="http://www.w3.org/2000/svg" width="156.202" height="194.465" viewBox="0 0 156.202 194.465">
  <path id="comepleted" d="M129.822,0h1.144c.694,1.914,4.141,4.374,5.393,5.626q7.084,7.2,13.54,13.774c1.755,1.755,6.33,5.039,6.3,7.447q-47.421,47.619-95.271,95.038c-.354.085-.4.053-1.144-.233C45.135,106.922,30.269,91.978,15.2,77.039c-3.6-3.813-7.416-7.626-11.439-11.649C2.553,64.184.159,63.068,0,60.254c2.478-1.4,5.938-5.43,7.937-7.937,1.138-1.1,2.827-2.005,3.969-3.292,1.6-1.8,3.121-3.755,4.9-5.579.553-.29,1.392-.63,1.658-1.191,1.662-1.712,5.488-6.753,7.914-7.214,2.087,3.378,5.733,5.943,8.4,8.4,5.626,6.046,11.673,11.673,17.509,17.509,1.747,1.957,6.568,8.214,8.894,8.171C78.2,52.45,95.016,35.561,111.613,18.676c4.49-4.28,8.77-8.56,13.05-13.05C126.329,4.17,129.237,2.4,129.822,0Zm.233,72.37c2.663.7,4.611,3.934,6.07,5.393l14.451,14.451c1.477,1.477,5.669,4.419,5.626,6.77q-35.049,35.248-70.736,70.292c-5.937,6.358-12.085,12.505-18.233,18.653-1.41,1.41-5.089,6.227-7,6.537-.6-1.656-2.57-2.8-3.945-3.969-3.035-3.035-5.86-6.28-8.894-9.1-3.5-3.5-6.779-7.226-10.482-10.739-1.327-1.546-3.282-2.771-4.9-4.436A34.791,34.791,0,0,0,26.87,160.4a51.864,51.864,0,0,1-6.537-6.537c-1.569-1.879-3.889-3.441-5.626-5.626a16.722,16.722,0,0,0-2.778-2.1c-2.576-2.821-5.118-5.875-8.171-8.638C2.612,136.184.115,135.072,0,132.39c6.3-6.015,12.607-12.241,18.7-18.466,1.835-1.625,5.182-6.281,7.681-6.537,2.033,3.082,5.572,5.572,8.171,7.961,5.626,6.046,11.673,11.673,17.509,17.719,1.581,1.581,7.125,8.158,8.894,8.194,5.733-6.04,12.059-11.639,17.952-17.742Q95.947,106.677,112.99,89.2C118.748,83.732,124.508,78.05,130.056,72.37Z" fill="#01df1c" fill-rule="evenodd"/>
</svg>
