<svg xmlns="http://www.w3.org/2000/svg" width="300" height="300" viewBox="0 0 300 300">
  <g id="Group_1847" data-name="Group 1847" transform="translate(1509 -15866)">
    <rect id="Rectangle_567" data-name="Rectangle 567" width="300" height="300" transform="translate(-1509 15866)" fill="none"/>
    <g id="Group_1672" data-name="Group 1672" transform="translate(-1511.968 15863)">
      <path id="Path_565" data-name="Path 565" d="M302.936,176.189V129.747l-34.347-10.159c-2.419-8.708-6.289-16.932-10.159-24.672l17.416-31.445L243.432,31.059v-.484l-.484-.484L211.02,47.507a110.384,110.384,0,0,0-24.672-10.159L176.189,3H129.747L119.588,37.347c-8.708,2.419-16.932,6.289-24.672,10.159L63.471,30.091l-32.9,32.9L47.99,94.432A110.384,110.384,0,0,0,37.831,119.1L3,129.747v46.442l34.347,10.159A110.383,110.383,0,0,0,47.507,211.02L30.091,242.465l32.9,32.9,31.445-17.416A110.386,110.386,0,0,0,119.1,268.1l10.159,34.347H175.7L185.864,268.1a110.386,110.386,0,0,0,24.672-10.159l24.672,13.545-45.474-45.958a79.986,79.986,0,1,1,43.055-71.114,82.955,82.955,0,0,1-7.74,34.347l46.925,46.925L258.429,211.02a110.382,110.382,0,0,0,10.159-24.672l34.347-10.159Z" transform="translate(0 0)" fill="#65ff9d"/>
      <path id="Path_566" data-name="Path 566" d="M191.881,220.739l-91.432-91.432A55.156,55.156,0,0,1,39.978,117.7,54.4,54.4,0,0,1,26.433,62.064L57.877,93.508l29.994-6.289,5.805-29.51L62.231,26.265A55.678,55.678,0,0,1,117.865,39.81c16.448,16.448,20.318,41.12,11.61,60.471l90.948,90.948c3.386,3.386,3.386,9.192,0,13.062l-15.964,15.964A8.642,8.642,0,0,1,191.881,220.739Z" transform="translate(79.61 79.778)" fill="#65ff9d"/>
    </g>
  </g>
</svg>
