<svg id="Group_13876" data-name="Group 13876" xmlns="http://www.w3.org/2000/svg" width="300" height="299.993" viewBox="0 0 300 299.993">
  <path id="Path_11340" data-name="Path 11340" d="M296.736,132.093l-22.928-13.225a20.011,20.011,0,0,1-8.51-9.728L260.75,98.071a20.009,20.009,0,0,1-.784-12.913l7.022-25.53,1-3.633-2.655-2.672L247.39,35.271,244.735,32.6l-3.638.976-25.57,6.863a20.011,20.011,0,0,1-12.908-.865l-11.04-4.617A20.009,20.009,0,0,1,181.9,26.39L168.822,3.379,166.961.1,163.194.091,137.741.012,133.976,0l-1.883,3.263L118.868,26.192a20.009,20.009,0,0,1-9.728,8.51L98.071,39.25a20.011,20.011,0,0,1-12.913.784L59.625,33.012l-3.631-1-2.672,2.655L35.271,52.61,32.6,55.259l.976,3.638,6.863,25.57a20.011,20.011,0,0,1-.865,12.908l-4.617,11.04a20.009,20.009,0,0,1-8.566,9.674L3.378,131.176.1,133.039l-.012,3.767L.012,162.257,0,166.024l3.263,1.883,22.928,13.225a20.009,20.009,0,0,1,8.51,9.728l4.548,11.068a20.009,20.009,0,0,1,.784,12.913l-7.022,25.53-1,3.633,2.655,2.672L52.61,264.73l2.649,2.66,3.638-.976,25.57-6.863a20.009,20.009,0,0,1,12.908.865l11.04,4.617a20.009,20.009,0,0,1,9.674,8.566l13.087,23.015,1.863,3.275,3.767.012,25.451.079,3.767.012,1.883-3.263L181.132,273.8a20.011,20.011,0,0,1,9.728-8.51l11.068-4.548a20.009,20.009,0,0,1,12.913-.784l25.53,7.022,3.633,1,2.672-2.655,18.054-17.941,2.672-2.655-.976-3.638-6.863-25.57a20.009,20.009,0,0,1,.865-12.906l4.617-11.04a20.011,20.011,0,0,1,8.566-9.674l23.01-13.082,3.275-1.863.012-3.767.079-25.451.012-3.767ZM150,221.7A71.7,71.7,0,1,1,221.7,150,71.7,71.7,0,0,1,150,221.7" transform="translate(0)" fill="#ff7c24"/>
  <path id="Path_11341" data-name="Path 11341" d="M978.758,963.88,942,905.392a10.857,10.857,0,0,0-18.384,0L886.862,963.88a10.857,10.857,0,0,0,9.194,16.629h73.51a10.856,10.856,0,0,0,9.192-16.629m-49.558.7a3.61,3.61,0,1,1,3.61,3.61,3.61,3.61,0,0,1-3.61-3.61m7.219-30.322-.634,20.014a2.978,2.978,0,0,1-5.952,0l-.633-19.987v-5.539a3.61,3.61,0,1,1,7.22,0Z" transform="translate(-782.81 -795.987)" fill="#ff7c24"/>
</svg>
