<svg xmlns="http://www.w3.org/2000/svg" width="300" height="300" viewBox="0 0 300 300">
  <g id="Group_1766" data-name="Group 1766" transform="translate(-4553 -22091)">
    <rect id="Rectangle_433" data-name="Rectangle 433" width="300" height="300" transform="translate(4553 22091)" fill="none"/>
    <g id="Group_5745" data-name="Group 5745" transform="translate(4550.998 22122.887)">
      <path id="Path_10182" data-name="Path 10182" d="M19517.234,20686.727a4.69,4.69,0,0,1-4.691-4.687v-9.375h-79.074a46.743,46.743,0,0,1-66.84,0h-79.09v9.375a4.686,4.686,0,0,1-4.687,4.688h-28.129a4.688,4.688,0,0,1-4.684-4.687v-84.371a4.694,4.694,0,0,1,4.684-4.691h28.129a4.7,4.7,0,0,1,4.688,4.691v9.375h79.082a46.734,46.734,0,0,1,19.359-11.852l-.008-42.582h-24.5a8.57,8.57,0,0,1,0-17.141h80.7a8.572,8.572,0,0,1,0,17.145l-28.074,0v42.582a46.734,46.734,0,0,1,19.359,11.852h79.078v-9.375a4.687,4.687,0,0,1,4.688-4.691h28.125a4.7,4.7,0,0,1,4.691,4.691v84.371a4.69,4.69,0,0,1-4.691,4.688Zm4.684-9.375h18.754v-75h-18.754Zm-262.492,0h18.75v-75h-18.766Z" transform="translate(-19248.037 -20494.998)" fill="#29c4f2"/>
    </g>
  </g>
</svg>
