<svg xmlns="http://www.w3.org/2000/svg" width="263.589" height="291.418" viewBox="0 0 263.589 291.418">
  <path id="procedures_icon_for_pop_up" data-name="procedures icon for pop up" d="M132.861,51.41H252c8.935,0,14.892-5.957,14.892-14.892S260.932,21.625,252,21.625H132.861c-8.935,0-14.892,5.957-14.892,14.892S123.925,51.41,132.861,51.41ZM252,125.87H132.861c-8.935,0-14.892,5.957-14.892,14.892s5.957,14.892,14.892,14.892H252c8.935,0,14.892-5.957,14.892-14.892S260.932,125.87,252,125.87Zm0,104.244H132.861c-8.935,0-14.892,5.957-14.892,14.892s5.957,14.892,14.892,14.892H252c8.935,0,14.892-5.957,14.892-14.892S260.932,230.114,252,230.114ZM61.379,9.712,36.062,46.942,28.616,39.5a14.4,14.4,0,0,0-20.849,0,14.4,14.4,0,0,0,0,20.849l19.36,20.849a13.519,13.519,0,0,0,10.424,4.468h1.489c4.468,0,8.935-2.978,10.424-5.957L85.206,26.093c4.468-7.446,2.978-16.381-2.978-20.849C74.782.777,65.846,2.266,61.379,9.712Zm0,104.244-25.316,37.23-7.446-7.446a14.4,14.4,0,0,0-20.849,0,14.4,14.4,0,0,0,0,20.849l19.36,20.849a13.519,13.519,0,0,0,10.424,4.468h1.489c4.468,0,8.935-2.978,10.424-5.957l35.741-53.611c4.468-7.446,2.978-16.381-4.468-20.849-5.957-4.468-14.892-2.978-19.36,4.468Zm0,104.244L36.062,255.43l-7.446-7.446a14.4,14.4,0,0,0-20.849,0,14.4,14.4,0,0,0,0,20.849l19.36,20.849a13.519,13.519,0,0,0,10.424,4.468h1.489c4.468,0,8.935-2.978,10.424-5.957l35.741-53.611c4.468-7.446,2.978-16.381-4.468-20.849-5.957-4.468-14.892-2.978-19.36,4.468Z" transform="translate(-3.3 -2.73)" fill="#3693ff"/>
</svg>
