<svg xmlns="http://www.w3.org/2000/svg" width="300" height="300" viewBox="0 0 300 300">
  <g id="Group_1789" data-name="Group 1789" transform="translate(-7498 -22091)">
    <rect id="Rectangle_457" data-name="Rectangle 457" width="300" height="300" transform="translate(7498 22091)" fill="none"/>
    <path id="maintenance" d="M22.638.1A71.8,71.8,0,0,1,32.913,5.888a63.736,63.736,0,0,0,7.158,2.774c5.154,2.99,10.6,5.839,15.754,8.22,3.38,2.073,11.25,4.491,13.049,6.85,1.738,2.4,1.749,5.271,2.4,7.843,2.479,5.836,4.635,12.289,6.815,17.844.913,3.276,1.827,6.245,2.74,9.213,3.2,3.082,6.394,6.165,9.281,8.939q10.565,10.736,20.207,20.549c2.854,2.854,9.412,7.678,10.275,10.925-3.962,2.816-7.394,7.7-10.994,11.3s-8.478,7.032-11.3,10.994c-3.914-1.692-6.9-6.25-9.932-9.59C81.284,105.1,74.2,98.13,67.127,91.167c-3.2-3.31-6.394-6.622-9.59-10.24-2.767-1.454-8.9-2.182-12.638-3.767-6.68-2.3-14.335-5.522-22.262-7.226C21.9,65.6,18.75,61.376,16.474,57.3c-3.733-7.439-6.963-15.227-11.3-22.981C3.763,31.013.79,27.216,0,23.355c1.887-1.24,3.222-3.222,4.795-4.795,3.767-3.767,7.226-7.535,10.994-11.3C18.121,5.234,21.7,3.035,22.638.1ZM224.671.1c7.041.116,13.449.824,18.529,2.363,2.659.672,5.741.19,6.507,1.747-3.586,2.872-6.688,7.3-10.275,10.583-7.192,6.884-14.076,14.384-21.268,21.268-2.379,2.687-10.011,8.347-10.275,11.645,1.245,2.295.956,5.016,1.4,7.5,2.169,6.109,3.594,13.063,5.446,19.179.769,2.542.665,8.04,2.74,9.247,2.744,1.993,7.386,1.661,10.96,2.74,5.188,1.567,10.872,2.418,16.439,4.11,2.78.845,5.952,2.093,8.939,2.089,14.35-13.846,28.392-28.005,42.126-42.16h.342v.342c2.218,2.452,1.888,6.774,2.4,9.966,2.853,11.2.675,25.02-2.74,33.529-6.582,18.871-17.034,31.585-34.591,40.071-4.576,2.4-16.957,6.752-25.721,4.795-3.539-.685-7.078-1.678-10.617-2.363-2.95-.659-6.145-2.537-9.555-3.425-1.107,2.444-3.383,4-5.172,5.788-4.418,3.8-8.22,8.22-12.638,12.33-12.672,12.364-25.036,25.344-38.016,37.708-18.072,18.688-36.453,37.068-54.832,55.14-6.05,6.359-12.1,12.409-18.46,18.46-2.36,2.668-4.829,6.013-7.911,8.22a34.394,34.394,0,0,1-10.96,5.172c-16.228,5.728-32.57-4.487-38.7-13.734a38.527,38.527,0,0,1-4.452-9.9c-7.915-24.256,15.05-40.086,26.029-51.373,28.766-28.572,57.54-57.461,86.307-86.341,7.421-7.42,14.841-14.841,22.262-22.57,1.99-1.682,7.5-5.561,7.569-8.6-3.552-4.281-6.19-23.385-4.144-31.851.843-3.489.827-6.238,2.055-9.247,7.171-17.582,20.347-28.508,36.68-36.646,4.361-1.982,9.546-2.891,13.7-4.418C218,.98,222.44,1.969,224.671.1Zm-10.96,169.188c4.462,3.26,9.445,9.753,13.049,13.665,9.9,9.281,19.487,19.179,29.077,28.461,6.363,6.671,16.153,13.984,19.556,22.57,5.532,12.084,2.086,24.508-4.452,32.879-5.981,8.449-23.146,14.562-36,8.22-7.361-3.633-12.3-9.9-17.809-15.72q-13.7-13.238-27.4-27.4c-4.452-4.452-9.213-8.6-13.357-13.049-1.794-1.794-4.911-3.624-6.131-6.473h.342c1.726-2.9,9.211-8.609,11.953-11.645,6.868-6.522,13.357-13.734,20.207-20.892C206.285,176.681,210.756,173.666,213.712,169.288Zm-158.879,62.3c-3.305,2.452-6.665,2.914-8.254,7.535-3.014,8.763,6.006,18.19,14.419,15.069,5.422-1.83,10.9-9.236,6.85-16.439C65.926,233.457,61.99,231.408,54.832,231.587Z" transform="translate(7498 22102.047)" fill="#aa61c0" fill-rule="evenodd"/>
  </g>
</svg>
