<svg xmlns="http://www.w3.org/2000/svg" width="227.326" height="211.089" viewBox="0 0 227.326 211.089">
  <path id="Icon_ionic-ios-star" data-name="Icon ionic-ios-star" d="M220.95,76.444H146.308L123.626,8.754a8.219,8.219,0,0,0-15.426,0L85.518,76.444H10.369A8.143,8.143,0,0,0,2.25,84.563a5.966,5.966,0,0,0,.152,1.37c.1,1.776.913,3.755,3.4,5.734L67.15,134.9,43.605,203.351a8.142,8.142,0,0,0,2.791,9.134c1.472,1.066,2.842,1.979,4.567,1.979a9.948,9.948,0,0,0,5.074-1.827l59.876-42.674,59.876,42.674a9.508,9.508,0,0,0,5.074,1.827,7.29,7.29,0,0,0,4.516-1.979,8.043,8.043,0,0,0,2.791-9.134L164.626,134.9l60.84-43.639,1.472-1.269c1.319-1.421,2.639-3.349,2.639-5.429C229.576,80.1,225.415,76.444,220.95,76.444Z" transform="translate(-2.25 -3.375)" fill="#e89b05"/>
</svg>
