<svg xmlns="http://www.w3.org/2000/svg" width="300" height="300" viewBox="0 0 300 300">
  <g id="Group_1858" data-name="Group 1858" transform="translate(-8627 -8132)">
    <rect id="Rectangle_529" data-name="Rectangle 529" width="300" height="300" transform="translate(8627 8132)" fill="none"/>
    <g id="Group_13850" data-name="Group 13850" transform="translate(8620.814 8138.078)">
      <g id="Group_13873" data-name="Group 13873" transform="translate(6.186 23.145)">
        <path id="Path_11314" data-name="Path 11314" d="M162.689,100.4H297.023c7.218,0,10.1,1.611,12.4,8.522a50.086,50.086,0,0,1,3.034,15.17q.341,66.922.107,133.849a39.419,39.419,0,0,1-38.752,39.392c-3.85.094-7.706.029-11.559.029h-209c-19.484,0-35.26-12.3-39.538-30.851a40.538,40.538,0,0,1-.995-8.974q-.092-66.612-.048-133.223a41.183,41.183,0,0,1,3.711-16.949,10.921,10.921,0,0,1,11.036-7.005q67.636.106,135.271.039m28.916,66.847.3-.951c6.088.47,12.36.17,18.23,1.566a29.607,29.607,0,0,1,22.308,32.194,29.976,29.976,0,0,1-29.72,26.691c-8.328.1-16.657,0-24.985.029-6.373.022-10.828,4.154-10.837,9.975s4.447,10,10.785,10.028c8.432.031,16.865.063,25.3,0a50.04,50.04,0,0,0,27.342-91.7c-9.9-6.648-20.9-8.959-32.65-8.4-2,.094-4.015.014-6.581.014,1.5-1.633,2.544-2.645,3.442-3.777a10.038,10.038,0,0,0-.7-13.38,9.641,9.641,0,0,0-13.319-.573q-10.973,10.44-21.39,21.46A9.178,9.178,0,0,0,159.148,163q10.361,10.839,21.194,21.221a9.644,9.644,0,0,0,13.553-.419,10.079,10.079,0,0,0,.4-13.636c-.853-1.012-1.793-1.945-2.694-2.915m-63.728,80.043c-.72.777-1.461,1.583-2.206,2.386a9.995,9.995,0,0,0-.194,14.074,9.817,9.817,0,0,0,14.043.263q10.224-9.869,20.076-20.123c4.153-4.323,4.245-9.692.131-14q-10.021-10.508-20.513-20.568a9.677,9.677,0,0,0-13.558.269,9.94,9.94,0,0,0-.457,13.83c.853.983,1.776,1.909,2.667,2.862l-.312,1.062c-4.842-.731-9.876-.852-14.49-2.31a29.61,29.61,0,0,1-20.146-32.177c2.423-15.207,14.3-25.85,29.266-26.1,6.868-.114,13.739.06,20.607-.065a9.978,9.978,0,0,0,9.835-9.748,9.752,9.752,0,0,0-9.076-10.114,220.209,220.209,0,0,0-27.739.542c-23.618,2.674-42.116,23.091-43.108,46.65-1.037,24.667,15.4,46.5,39.035,51.45,5.216,1.093,10.634,1.22,16.14,1.812" transform="translate(-12.656 -55.836)" fill="#5f9bfe"/>
        <path id="Path_11315" data-name="Path 11315" d="M34.439,81.487C45.182,72.311,55.253,63.376,65.693,54.9A36.064,36.064,0,0,1,89,47.275q77.1-.058,154.2,0A38.889,38.889,0,0,1,269.272,56.9q13.408,11.537,26.789,23.107c.45.387.969.694,2.079,1.481Z" transform="translate(-16.166 -47.246)" fill="#5f9bfe"/>
      </g>
    </g>
  </g>
</svg>
