<svg xmlns="http://www.w3.org/2000/svg" width="190.239" height="300" viewBox="0 0 190.239 300">
  <path id="Path_705" data-name="Path 705" d="M186.019,160.076a21.525,21.525,0,0,0-11.448-11.42,3.432,3.432,0,0,1-2.641-3.9q.1-70.979.1-141.971c0-2.251-.638-2.785-2.81-2.785Q126.639.106,84.059.05c-2.911,0-2.919,0-2.919,2.833,0,9.292-.033,18.587.031,27.878a2.978,2.978,0,0,1-1.791,3.047q-18.832,10.228-37.6,20.586A12.406,12.406,0,0,0,35.16,68.8c.362,1.916,1.095,2.434,2.978,2.432q45.629-.084,91.262-.045c.763,0,1.526-.078,2.537-.136,0-1.234.042-2.228,0-3.237a16.155,16.155,0,0,0-8.66-13.69c-11.57-6.938-23.088-13.966-34.644-20.926a2.757,2.757,0,0,1-1.71-2.66c.084-7.7.036-15.392.047-23.088a12.978,12.978,0,0,1,.181-1.51h79.073c.05,1.017.134,1.95.134,2.863V60.857q0,42.036.036,84.073c0,1.808-.61,2.309-2.312,2.852a26.333,26.333,0,0,0-7.715,3.752,27.99,27.99,0,0,0-9.066,13.8c-.557,1.6-.947,3.251-1.518,5.242h7.52v45.454h-2.936q-43.234,0-86.468.033a14.484,14.484,0,0,0-14.205,8.568,33.965,33.965,0,0,1-1.758,3L6.2,296.986c-.4.657-.716,1.362-1.184,2.264.836.084,1.373.181,1.922.192,10.306.214,20.611.454,30.917.557a3.515,3.515,0,0,0,2.443-1.568c3-4.8,5.849-9.687,8.749-14.542q1.866-3.125,3.743-6.245l.5.114v21.586h63.751V248.168c0-2.969,0-2.975,2.95-2.978h59.244c2.847,0,2.858,0,2.858-2.858V175.468a25.726,25.726,0,0,0,0-2.613c-.178-1.752.415-2.529,2.3-2.359,1.707.153,3.44.033,5.849.033-1.512-3.8-2.629-7.242-4.206-10.445m-5.044,5.111a32.624,32.624,0,0,0-4.209-7.047A11.523,11.523,0,0,0,159,157.692a25.207,25.207,0,0,0-4.671,7.479c-.916,2.2-1.95,2.969-4.39,2.228a28.9,28.9,0,0,1,6.092-11.295,14.907,14.907,0,0,1,23.918.382,31.562,31.562,0,0,1,5.78,10.807c-3.451.774-3.443.63-4.757-2.1M85.831,148.567a28.65,28.65,0,1,1-29.455,28.689,29.246,29.246,0,0,1,29.455-28.689M26.693,100.228a8.576,8.576,0,0,1,.393-6.757c1.521-2.727,3.3-5.312,4.98-7.98a14.559,14.559,0,0,1,6.014,14.517,6.314,6.314,0,0,1-5.465,5.131,6.459,6.459,0,0,1-5.924-4.913m-.958,52.038a9.651,9.651,0,0,1,1.008-7.729c1.329-2.278,2.978-4.37,4.716-6.874,4.281,4.217,6.782,8.459,5.824,14.113a6.376,6.376,0,0,1-5.426,5.657,6.381,6.381,0,0,1-6.128-5.164M37.742,206.36a6.108,6.108,0,0,1-5.261,4.537,5.883,5.883,0,0,1-5.69-4.562,16.762,16.762,0,0,1,0-6.579,16.589,16.589,0,0,1,5.7-8.155,14.122,14.122,0,0,1,5.242,14.762M145.281,97.431a5.963,5.963,0,0,1-5.2,4.81,5.543,5.543,0,0,1-5.793-4.273,14.5,14.5,0,0,1-.209-6.342,19.308,19.308,0,0,1,5.571-8.721,14.253,14.253,0,0,1,5.621,14.526M78.085,99.047a12.687,12.687,0,0,1,.465-6.484,58.833,58.833,0,0,1,5.011-8.186c4.431,4.22,6.791,8.456,6,14a6.481,6.481,0,0,1-5.47,5.888,5.958,5.958,0,0,1-5.988-5.22M7.975,235.737a6.685,6.685,0,0,1-5.746-6.156,15.1,15.1,0,0,1,6.15-13.069A13.949,13.949,0,0,1,13.8,230.578a6.128,6.128,0,0,1-5.832,5.158M148.437,115.349a14.319,14.319,0,0,1,5.718,14.1c-.872,3.426-3.211,5.529-5.9,5.314a6.754,6.754,0,0,1-5.76-6.376c-.557-5.493,2.576-9.228,5.944-13.041M62.849,136.078a5.941,5.941,0,0,1-5.8,4.351,6.685,6.685,0,0,1-5.6-6.047c-.73-5.671,2.49-9.5,5.849-13.3a14,14,0,0,1,5.532,15m74.07,17.743a6.32,6.32,0,0,1-6,5.78,6.754,6.754,0,0,1-5.849-6.718c-.412-5.4,2.721-9.008,5.969-12.612a14.459,14.459,0,0,1,5.9,13.545m2.735,52.7a5.849,5.849,0,0,1-5.231,4.512,5.7,5.7,0,0,1-5.724-4.457,14.937,14.937,0,0,1-.039-6.37,18.84,18.84,0,0,1,5.571-8.543,14.244,14.244,0,0,1,5.423,14.857m-31.572-83.956a15.512,15.512,0,0,1,6.161-12.693,14.342,14.342,0,0,1,5.615,13.648c-.8,3.512-3.209,5.771-5.941,5.571a6.754,6.754,0,0,1-5.835-6.526M.056,123.947c-.521-5.479,2.615-9.192,6.128-13.13,4.15,4.1,6.749,8.409,5.557,14.127A6.008,6.008,0,0,1,5.747,130.4a6.844,6.844,0,0,1-5.69-6.454m2.173,54.066c-.763-5.679,2.448-9.531,6.1-13.562,4.117,4.178,6.86,8.5,5.484,14.339a5.885,5.885,0,0,1-5.955,5.217,6.61,6.61,0,0,1-5.632-5.994" fill="#00b5ff"/>
</svg>
