<svg id="Group_5650" data-name="Group 5650" xmlns="http://www.w3.org/2000/svg" width="502.999" height="496" viewBox="0 0 502.999 496">
  <path id="Path_10073" data-name="Path 10073" d="M216,0h72l16,46,42,15,40-24,53,46-17,43,22,39,47,7,12,69-42,27-6,41,31,35-40,61-43-9s-33.009,25.773-34,28c0,5.332,2,48,2,48l-67,24-29-38H229l-32,37-64-29,2-43L98,395,53,405,18,344l33-38-8-43L0,239l12-68,48-7,22-41L65,80l53-44,44,25,40-15Zm24,93c-4.12,2.465-10.633.66-16,2-10.317,2.576-21.435,4.961-31,9-39.43,16.653-69.452,47.448-86,87-4.392,10.5-6.228,22.481-9,34-5.023,20.877.6,49.656,5,65,16.657,51.179,44.445,81.974,92,102,15.46,6.51,50.723,16.239,74,11,13.2-2.729,26.38-4.226,38-9,37-15.2,70.153-42.823,86-79,5.291-11.483,8.634-24.276,12-37,8.417-31.814-1.751-69.765-11-91C369.77,129.772,322.381,92.992,240,93Zm12.034,274L236,321s4.47-32.62,6-39c.32-1.265-6-4.694-6-4.694V250h29v27.306L259.7,282l8.3,39Z" fill="#3365c8" fill-rule="evenodd"/>
  <path id="Path_10074" data-name="Path 10074" d="M240,110c32.147-.59,52.83,7.99,61,29,4.3,56.26-16.475,91.606-43,98-11.575,2.79-21.434-3.216-27-7-18.9-12.852-41.013-51.755-29-88,4.434-13.375,15.889-23.205,28-29C233.11,111.511,237.363,111.8,240,110ZM204.424,253c7.333,15.332,18.243,31.668,25.576,47-1,7-3,21-3,21l21,54h10l19-54s-2-14.667-3-22c1.942-6.493,25-46,25-46s11.945,1.714,16,3c25.307,8.211,22.923,34.1,30,60,1.326,4.854,7.667,27.12,6,30-25.638,35.51-120.5,70.149-199,0,7.265-21.794,8.42-65.007,20-81C178.5,256.16,201.824,251.917,204.424,253Z" fill="#3b4551" fill-rule="evenodd"/>
</svg>
