<svg xmlns="http://www.w3.org/2000/svg" width="748.052" height="748.052" viewBox="0 0 748.052 748.052">
  <g id="Group_5078" data-name="Group 5078" transform="translate(0 -1020.36)">
    <circle id="Ellipse_964" data-name="Ellipse 964" cx="374.026" cy="374.026" r="374.026" transform="translate(0 1020.36)" fill="#ffa40b" opacity="0.12"/>
    <path id="Path_10329" data-name="Path 10329" d="M164.218,0A105.372,105.372,0,0,0,59.023,105.193a11.689,11.689,0,0,0,.548,3.7c1,36.9,16.98,69.188,35.8,99.122,19.426,30.906,41.941,59.91,56.387,89.489a11.689,11.689,0,0,0,20.911.229c15.168-29.555,38.838-58.58,59.264-89.489s37.85-64.285,37.85-102.866a11.689,11.689,0,0,0-.776-4.337C266.765,45.033,220.757,0,164.218,0Zm0,23.377a81.642,81.642,0,0,1,81.818,81.818,11.692,11.692,0,0,0,.229,2.511c-.7,30.572-14.811,58.88-33.832,87.662-16.08,24.333-34.259,49.456-49.95,75.563-14.894-25.995-32.053-51.075-47.3-75.335-18.558-29.525-32.417-58.572-32.417-90.219a11.69,11.69,0,0,0-.183-2.055,81.535,81.535,0,0,1,81.636-79.946Zm0,46.8a35.065,35.065,0,1,0,35.065,35.065A35.244,35.244,0,0,0,164.218,70.174Zm0,23.377a11.688,11.688,0,1,1-11.688,11.688A11.516,11.516,0,0,1,164.218,93.55ZM259.825,215.73a11.689,11.689,0,0,0-4.2,22.6c23.3,9.437,38.275,21.811,44.744,33.193s6.318,21.219-2.146,33.33c-16.927,24.221-70.962,45.67-132.635,45.931s-116.46-20.641-134.37-44.927c-8.955-12.144-9.4-22.05-3.379-33.376s20.445-23.8,43.375-33.421a11.689,11.689,0,1,0-9.04-21.55C35.977,228.5,16.9,243.274,7.2,261.524s-8.022,40.276,5.2,58.213c26.454,35.876,86.752,54.709,153.318,54.424s126.3-19.574,151.674-55.885c12.688-18.157,13.548-40.251,3.287-58.3s-29.771-32.585-56.3-43.329a11.69,11.69,0,0,0-4.565-.913Z" transform="translate(209.671 1207.352)" fill="#ffa40b"/>
  </g>
</svg>
