<svg xmlns="http://www.w3.org/2000/svg" width="1135" height="1176.563" viewBox="0 0 1135 1176.563">
  <g id="Group_5766" data-name="Group 5766" transform="translate(9137 15456.563)">
    <path id="Path_10253" data-name="Path 10253" d="M191.1,157.1V76c0-9.73-.2-23.011.856-34.047.213-2.229,7.256-33.454,48.408-33.892S290,41.412,290,42.4V157s-10.659,37-49.637,37S191.7,157.1,191.1,157.1ZM763,51.511V155.1c-.173,0-8.868,37-48.139,37S665.1,156.46,665,155.1c-.558-7.328,0-18.741,0-27.1,0-18-.534-69.144.032-76.489.232-3.015,11.13-37.235,49.829-37.235S763,49.114,763,51.511ZM955,159.4s0,50.464,0,74.6V633.1c0,15.216,1.871,36.029,0,46-5.748.5-18.769-3.772-32.039-5.1-13.405-1.342-27.03.235-30.961,0-1.4-8.359-.9-20.982,0-34.9v-291c-1,.567-2.9.233-3-.1-2.572-2.069-10.654-1-15.9-1H676c-203.646,0-612.667.1-613.9,1.1-1.366,2.82,0,21.5,0,26v68c0,89.225.26,179.576.26,267,25.06,0,28.549.9,40.64,0h91.1c1.481,1.28,58.737,1.587,84.3,27.6,28.039,28.535,24.6,83.07,24.6,84.3,1.958,7.262,1,19.053.1,27.1v100c1,1.233,318.625,4.058,319.9,4-.616,3.522-1.348,16.828,0,28.734a228.609,228.609,0,0,0,6.059,31.266H315.1c-.808-.54-11.413-.366-40-29S14.421,723.656,9.106,715.894A82.16,82.16,0,0,1,1.1,701.1C-.706,695.034,1,682.687,1,674V162h.1c0-1.046.217-51.41,25.845-78.422C50.034,59.243,98.741,58,158.1,58v93c.774.711,9.115,74.2,82.263,76.538s82.365-71.4,82.737-72.438V86L632,89v63c1.082,1.38,8.665,75.538,82.861,75.538S796,154.667,796,154h.1V129c.9-21.449-1.579-50.791,1.9-70a16.074,16.074,0,0,1,6-1c2.227,1.71,8.163,1,12,1h31c2.414.665,54.811.72,81.7,26.126C954.582,109.575,955,159.4,955,159.4ZM126.729,773c1.009,2.35,104.941,108.949,112.371,109.1,1.662-1.142.6-72.827.495-81.732-.084-7.243-1.543-15.609-6.7-20.757-5.632-5.625-17.115-6.207-26.241-5.709C200.676,774.228,132.914,772.121,126.729,773ZM843,847.1c3.438,3.127,49.992,67.133,51,66.719,1.333,0,11.517-11.336,16-16.719,6.373-5.743,12.812-14.272,21.038-20.434A34.831,34.831,0,0,1,942,871c6.44-1.889,15.061-2.035,22.061,4.74s9.5,13.107,5.939,22.36c-.009.926-2.922,4.748-3,4-.667,3.233-16,20-16,20l-31.494,33.036s-9.173,9.2-13.506,12.964c-.5,0-7.318,7.105-14.96,6.976-9.714.519-12.569-6-15.04-6.976,0,.233-72.9-94.433-73-96,0,0-5.166-17.253,10.429-27S843,847.1,843,847.1Z" transform="translate(-9137.271 -15464.62)" fill="#3693ff" fill-rule="evenodd"/>
    <g id="Ellipse_619" data-name="Ellipse 619" transform="translate(-8494 -14772)" fill="none" stroke="#3693ff" stroke-width="44">
      <circle cx="246" cy="246" r="246" stroke="none"/>
      <circle cx="246" cy="246" r="224" fill="none"/>
    </g>
    <path id="Union_12" data-name="Union 12" d="M17073,22492.4c.271-33.965,28.189-33.23,60.744-32.5,6.436.148,13.051.289,19.672.17h209.82c39.818,0,75.814-7.107,75.438,32.328Zm27.359-51.48c-.947-82.354,57.928-139.637,126.006-153.365,23.945-3.375,59.564-1.146,61.348,0,5.115,3.369,13.039,2.771,19.068,4.973,8.959,3.279,19.248,7.5,26.609,12.436,43.088,25.791,78.7,68.252,77.928,135.957Zm92.018-118.549c-16.2,10.066-28.434,23.918-38.961,39.047-5.967,9.748-13.033,18.764-10.7,31.5a31.356,31.356,0,0,0,4.895,3.318c2.879.854,6.656,1.021,8.287-.084,8.416-2.756,8.992-12.967,12.52-20.645,7.938-10.91,18.662-22.951,29.76-30.758,9.021-6.34,22.18-7.006,22.383-22.383-.662-.812-1.2-2.273-2.4-4.059a7.223,7.223,0,0,1-3.4-3.318,15.007,15.007,0,0,1-5.8-.084C17203.744,22318.385,17197.557,22319.158,17192.375,22322.375Zm59.463-46.377v-11h-10a10,10,0,1,1,0-19.994h36a10,10,0,1,1,0,19.994h-10v11Z" transform="translate(-25880.836 -37264.406)" fill="#e9e9e9"/>
  </g>
</svg>
