<svg xmlns="http://www.w3.org/2000/svg" width="94" height="118.897" viewBox="0 0 94 118.897">
  <g id="Group_5059" data-name="Group 5059" transform="translate(-8 5.001)">
    <path id="Path_9933" data-name="Path 9933" d="M82.817,36.715V66.588L48.678,83.655,14.539,66.588V36.715L48.678,19.643Z" transform="translate(6.249 30.24)" fill="#5c3e14" fill-rule="evenodd"/>
    <path id="Path_9934" data-name="Path 9934" d="M48.677,19.643V83.655L14.538,66.588V36.715Z" transform="translate(6.248 30.24)" fill="#5c3e14" fill-rule="evenodd"/>
    <path id="Path_9935" data-name="Path 9935" d="M78.94,29.077,66.134,44.011,32,26.944,44.8,12Z" transform="translate(22.931 22.94)" fill="#f8b84e" fill-rule="evenodd"/>
    <path id="Path_9936" data-name="Path 9936" d="M8,29.072,20.806,44.006,54.945,26.939,42.144,12Z" transform="translate(0 22.935)" fill="#f8b84e" fill-rule="evenodd"/>
    <g id="Group_5062" data-name="Group 5062" transform="translate(17.69 41.46)">
      <circle id="Ellipse_772" data-name="Ellipse 772" cx="15" cy="15" r="15" transform="translate(0.311 0.54)" fill="#005ca4"/>
      <g id="Layer_2" data-name="Layer 2" transform="translate(4.563 4.317)">
        <g id="settings-2" transform="translate(0 0)">
          <rect id="Rectangle_4658" data-name="Rectangle 4658" width="22" height="22" transform="translate(21.748 22.224) rotate(180)" fill="#fff" opacity="0"/>
          <path id="_Group_" data-name="&lt;Group&gt;" d="M11.683,19.7H10.01a1.487,1.487,0,0,1-1.487-1.487V17.25a.3.3,0,0,0-.195-.257.336.336,0,0,0-.363,0l-.655.708a1.478,1.478,0,0,1-2.1,0L4,16.516a1.469,1.469,0,0,1-.443-1.053A1.522,1.522,0,0,1,4,14.392l.655-.655a.3.3,0,0,0,0-.327c-.053-.133-.142-.23-.266-.23h-.9A1.5,1.5,0,0,1,2,11.683V10.01A1.487,1.487,0,0,1,3.487,8.523h.965a.3.3,0,0,0,.257-.195.336.336,0,0,0,0-.363L4,7.311a1.478,1.478,0,0,1,0-2.1L5.186,4a1.46,1.46,0,0,1,1.044-.443A1.522,1.522,0,0,1,7.311,4l.655.655a.3.3,0,0,0,.327,0c.133-.053.23-.142.23-.266v-.9A1.5,1.5,0,0,1,10.019,2h1.717a1.487,1.487,0,0,1,1.487,1.487v.965a.3.3,0,0,0,.195.257.336.336,0,0,0,.363,0L14.392,4a1.478,1.478,0,0,1,2.1,0L17.7,5.186a1.478,1.478,0,0,1,.443,1.053A1.443,1.443,0,0,1,17.7,7.311l-.655.655a.3.3,0,0,0,0,.327c.053.133.142.23.266.23h.965a1.5,1.5,0,0,1,1.425,1.5v1.717a1.487,1.487,0,0,1-1.487,1.487H17.25a.365.365,0,0,0-.257.522l.682.682a1.478,1.478,0,0,1,0,2.1L16.516,17.7a1.46,1.46,0,0,1-1.044.443,1.522,1.522,0,0,1-1.053-.443l-.682-.655a.3.3,0,0,0-.327,0c-.133.053-.23.142-.23.266v.965A1.5,1.5,0,0,1,11.683,19.7Zm-1.39-1.77h1.115V17.25A2.062,2.062,0,0,1,12.7,15.356a2.089,2.089,0,0,1,2.292.416l.478.478.779-.779-.478-.487a2.094,2.094,0,0,1,1.469-3.549h.69V10.293H17.25A2.062,2.062,0,0,1,15.356,9a2.089,2.089,0,0,1,.416-2.292l.478-.478-.779-.779-.487.478a2.115,2.115,0,0,1-3.54-1.478V3.77H10.293v.682A2.062,2.062,0,0,1,9,6.346,2.089,2.089,0,0,1,6.709,5.93l-.478-.478-.779.779.478.487a2.115,2.115,0,0,1-1.478,3.54H3.77v1.115h.682a2.062,2.062,0,0,1,1.894,1.292,2.089,2.089,0,0,1-.416,2.292l-.478.478.779.779.487-.478a2.115,2.115,0,0,1,3.54,1.478Z" transform="translate(-0.178 -0.004)" fill="#fff"/>
          <path id="Path_9949" data-name="Path 9949" d="M11.6,14.7a3.1,3.1,0,1,1,3.1-3.1,3.1,3.1,0,0,1-3.1,3.1Zm0-4.426A1.328,1.328,0,1,0,12.926,11.6,1.328,1.328,0,0,0,11.6,10.27Z" transform="translate(-0.925 -0.751)" fill="#fff"/>
        </g>
      </g>
    </g>
    <g id="Group_5063" data-name="Group 5063" transform="translate(38.512 -5.266)">
      <circle id="Ellipse_772-2" data-name="Ellipse 772" cx="21.5" cy="21.5" r="21.5" transform="translate(0.488 0.266)" fill="#47a9f6"/>
      <g id="Maintenance" transform="translate(9.257 9.799)">
        <path id="Combined-Shape" d="M10.352,11.261l.891-.926L8.069,7.162l-.105-.148L6.469,3.93,3.735,2.6,2.6,3.735,3.951,6.49l3.06,1.474.149.105Zm5.762,2.269-2.608,2.561,6.748,6.748a.543.543,0,0,0,.768,0l1.816-1.817a.543.543,0,0,0,0-.768L16.114,13.53Z" transform="translate(-0.753 -0.311)" fill="none" stroke="#fff" stroke-width="1" fill-rule="evenodd"/>
        <path id="Combined-Shape-2" data-name="Combined-Shape" d="M2.269,25.493a4.543,4.543,0,0,1,0-7.866V7.952a4.542,4.542,0,0,1,0-7.864V2.837L4.478,5.147l2.17-2.308V0a4.538,4.538,0,0,1,.16,7.952v9.676a4.538,4.538,0,0,1-.16,7.952V22.743l-2.17-2.308L2.269,22.743v2.749Z" transform="translate(18.089 0) rotate(45)" fill="none" stroke="#fff" stroke-linecap="round" stroke-linejoin="round" stroke-width="1" fill-rule="evenodd"/>
      </g>
    </g>
    <g id="Group_5064" data-name="Group 5064" transform="translate(74.625 20.856)">
      <circle id="Ellipse_772-3" data-name="Ellipse 772" cx="13.5" cy="13.5" r="13.5" transform="translate(0.375 0.144)" fill="#2083d0"/>
      <g id="Group_5065" data-name="Group 5065" transform="translate(6.218 7.579)">
        <path id="Path_9950" data-name="Path 9950" d="M15.5,13h-5a.5.5,0,0,0,0,1H15a1,1,0,0,1-1,1H3a1,1,0,0,1-1-1H6.5a.5.5,0,1,0,0-1h-5a.5.5,0,0,0-.5.5V14a2,2,0,0,0,2,2H14a2,2,0,0,0,2-2v-.5A.5.5,0,0,0,15.5,13ZM2,12.5a.5.5,0,0,0,.5-.5V5.5A.5.5,0,0,1,3,5H14a.5.5,0,0,1,.5.5V12a.5.5,0,0,0,1,0V5.5A1.5,1.5,0,0,0,14,4H3A1.5,1.5,0,0,0,1.5,5.5V12A.5.5,0,0,0,2,12.5Z" transform="translate(-1 -4)" fill="#fff"/>
        <path id="Path_9951" data-name="Path 9951" d="M15.5,15a.5.5,0,0,0,.5-.5v-1a.5.5,0,0,0-.5-.5h-.761a4.5,4.5,0,0,0-.181-.437l.538-.538a.5.5,0,0,0,0-.707L13.682,9.9a.515.515,0,0,0-.707,0l-.538.538A4.379,4.379,0,0,0,12,10.262V9.5a.5.5,0,0,0-.5-.5h-2a.5.5,0,0,0-.5.5v.761a4.5,4.5,0,0,0-.437.181L8.026,9.9a.5.5,0,0,0-.707,0L5.9,11.318a.5.5,0,0,0,0,.707l.538.538A4.444,4.444,0,0,0,6.261,13H5.5a.5.5,0,0,0-.5.5v1a.5.5,0,1,0,1,0V14h.631a.5.5,0,0,0,.484-.375,3.491,3.491,0,0,1,.373-.9.5.5,0,0,0-.077-.608l-.447-.446.708-.708.446.447a.5.5,0,0,0,.608.077,3.491,3.491,0,0,1,.9-.373A.5.5,0,0,0,10,10.631V10h1v.631a.5.5,0,0,0,.375.484,3.491,3.491,0,0,1,.9.373.5.5,0,0,0,.608-.076l.446-.447.708.708-.447.446a.5.5,0,0,0-.076.608,3.491,3.491,0,0,1,.373.9A.5.5,0,0,0,14.37,14H15v.5A.5.5,0,0,0,15.5,15Z" transform="translate(-3 -6.5)" fill="#fff"/>
        <path id="Path_9952" data-name="Path 9952" d="M13,14a3,3,0,0,0-3,3,.5.5,0,0,0,1,0,2,2,0,0,1,4,0,.5.5,0,1,0,1,0A3,3,0,0,0,13,14Z" transform="translate(-5.5 -9)" fill="#fff"/>
      </g>
    </g>
    <g id="Group_5066" data-name="Group 5066" transform="translate(15.807 16.182)">
      <circle id="Ellipse_772-4" data-name="Ellipse 772" cx="15.5" cy="15.5" r="15.5" transform="translate(0.193 -0.182)" fill="#2083d0"/>
      <g id="Group_5067" data-name="Group 5067" transform="translate(5.646 5.271)">
        <path id="Path_9953" data-name="Path 9953" d="M0,0H20.094V20.094H0Z" fill="none"/>
        <path id="Path_9954" data-name="Path 9954" d="M10.942,9.58A5.863,5.863,0,0,0,5.5,13.272H16.384A5.863,5.863,0,0,0,10.942,9.58Z" transform="translate(-0.895 -1.559)" fill="#fff" opacity="0.3"/>
        <path id="Path_9955" data-name="Path 9955" d="M2,15.047H18.745v1.674H2Zm9.913-7.711a1.727,1.727,0,0,0,.134-.661,1.674,1.674,0,1,0-3.349,0,1.727,1.727,0,0,0,.134.661A7.545,7.545,0,0,0,2.837,14.21h15.07A7.545,7.545,0,0,0,11.913,7.336Zm-1.541,1.5a5.863,5.863,0,0,1,5.442,3.692H4.93A5.863,5.863,0,0,1,10.372,8.835Z" transform="translate(-0.326 -0.814)" fill="#fff"/>
      </g>
    </g>
    <g id="Group_5061" data-name="Group 5061" transform="translate(34.935 36.246)">
      <circle id="Ellipse_772-5" data-name="Ellipse 772" cx="26.5" cy="26.5" r="26.5" transform="translate(0.064 -0.246)" fill="#5280a4"/>
      <g id="Group_5060" data-name="Group 5060" transform="translate(15.744 10.976)">
        <path id="Path_9947" data-name="Path 9947" d="M19.735,20.957,11.3,5.1a.786.786,0,0,1,1.387-.738L21.122,20.22l1.2-.636a3.142,3.142,0,0,1,4.249,1.3l.509.957,5.4,7.9-6.863,3.649-2.378-4.7-1.4.709,2.392,4.728L21.279,35.69,17.749,26.8l-.509-.957a3.142,3.142,0,0,1,1.3-4.249Zm3.321.014L19.277,22.98a1.571,1.571,0,0,0-.65,2.125l.509.957,6.553-3.484-.509-.957A1.571,1.571,0,0,0,23.055,20.971Z" transform="translate(-10.26 -3.947)" fill="#fff" fill-rule="evenodd"/>
        <path id="Path_9948" data-name="Path 9948" d="M16.1,35.283a.786.786,0,0,0-1.106-.1h0l-.009.007-.049.038c-.046.035-.118.087-.216.152a6.94,6.94,0,0,1-.859.484,7.187,7.187,0,0,1-3.079.709.786.786,0,0,0,0,1.571,8.757,8.757,0,0,0,3.755-.862,8.509,8.509,0,0,0,1.055-.6c.124-.083.221-.153.289-.2l.081-.062.024-.019L16,36.393l0,0h0A.785.785,0,0,0,16.1,35.283Zm1.621,3.995a.785.785,0,0,1-.218,1.089h0l0,0-.008,0-.025.016-.09.057c-.077.048-.186.114-.324.193-.276.158-.668.367-1.139.576a9.057,9.057,0,0,1-3.559.853.786.786,0,0,1,0-1.571,7.513,7.513,0,0,0,2.921-.718c.413-.184.757-.367,1-.5.12-.068.212-.125.274-.163l.068-.043.015-.01h0A.786.786,0,0,1,17.723,39.277Z" transform="translate(-10 -10.607)" fill="#fff"/>
      </g>
    </g>
    <g id="Group_5068" data-name="Group 5068" transform="translate(23.692 0.003)">
      <circle id="Ellipse_772-6" data-name="Ellipse 772" cx="9.5" cy="9.5" r="9.5" transform="translate(0.308 -0.003)" fill="#5280a4"/>
      <g id="Group_5069" data-name="Group 5069" transform="translate(3.429 3.619)">
        <path id="Path_9956" data-name="Path 9956" d="M0,0H12.758V12.758H0Z" fill="none"/>
        <path id="Path_9957" data-name="Path 9957" d="M11.442,2.005,5.063,2A1.059,1.059,0,0,0,4,3.063v8.505a1.059,1.059,0,0,0,1.063,1.063h6.379a1.059,1.059,0,0,0,1.063-1.063V3.063A1.055,1.055,0,0,0,11.442,2.005Zm0,9.563H5.063L5.058,3.063h6.384Z" transform="translate(-1.874 -0.937)" fill="#fff"/>
        <circle id="Ellipse_773" data-name="Ellipse 773" cx="0.5" cy="0.5" r="0.5" transform="translate(3.379 2.379)" fill="#fff"/>
        <circle id="Ellipse_774" data-name="Ellipse 774" cx="0.5" cy="0.5" r="0.5" transform="translate(5.379 2.379)" fill="#fff"/>
        <path id="Path_9958" data-name="Path 9958" d="M9.658,14.316A2.658,2.658,0,1,0,7,11.658,2.659,2.659,0,0,0,9.658,14.316ZM10.912,10.4A1.774,1.774,0,1,1,8.4,12.912L10.912,10.4Z" transform="translate(-3.279 -4.216)" fill="#fff"/>
      </g>
    </g>
    <path id="Path_9943" data-name="Path 9943" d="M66.134,58.244,32,75.316V45.443L66.134,28.371Z" transform="translate(22.931 38.58)" fill="#f8aa3a" fill-rule="evenodd"/>
    <path id="Path_9944" data-name="Path 9944" d="M14.536,58.244,48.68,75.316V45.443L14.536,28.371Z" transform="translate(6.246 38.58)" fill="#fcd062" fill-rule="evenodd"/>
    <path id="Path_9945" data-name="Path 9945" d="M66.134,28.371,78.94,39.04,44.8,56.112,32,45.443Z" transform="translate(22.931 38.58)" fill="#f8b84e" fill-rule="evenodd"/>
    <path id="Path_9946" data-name="Path 9946" d="M20.806,28.366,8,39.035,42.144,56.107l12.8-10.669Z" transform="translate(0 38.576)" fill="#f8b84e" fill-rule="evenodd"/>
  </g>
</svg>
