<svg xmlns="http://www.w3.org/2000/svg" xmlns:xlink="http://www.w3.org/1999/xlink" width="598.437" height="758.167" viewBox="0 0 598.437 758.167">
  <defs>
    <linearGradient id="linear-gradientkdjfnsdjifwejioufshdcjkgfhvsdbjhfsdvbsd1234567876543234567" x1="0.134" y1="-0.099" x2="0.781" y2="1.118" gradientUnits="objectBoundingBox">
      <stop offset="0" stop-color="#6778e2"/>
      <stop offset="1" stop-color="#7156b2"/>
    </linearGradient>
  </defs>
  <path id="Stationary" d="M494.947,758.167h0c-9.939-.755-114.886-2.056-204.791-2.056-46.787,0-105.678.357-120.532,2.055.3-10.159-11-110.912-21.922-208.347l0-.014V549.8c-11.6-103.468-23.6-210.458-22.193-213.034,1.34-.917,75.789-1.11,138.007-1.11,115.036,0,263.431.657,275.553.947,1.277,13.237-9.854,119.689-19.416,206.659-10.857,98.749-22.486,197.742-24.7,214.907Zm-251.8-433.005h0c-11.886-.8-23.97-.995-35.657-1.186h-.009c-14.628-.239-29.755-.487-44.4-1.919a25.149,25.149,0,0,0-2.461-6.362c-1.252-2.345-2.156-4.039-2.441-13.245h3.268a8.089,8.089,0,0,1,1.778-.185,18.027,18.027,0,0,1,3.39.412l.255.049a14.928,14.928,0,0,0,2.655.364,2.537,2.537,0,0,0,1.889-.641c.546.034,1.115.051,1.695.051,9.244,0,19.74-4.429,25.919-8.221,4.092-.979,8.978-1.013,14.15-1.049h.012a116.712,116.712,0,0,0,12.6-.546,39.663,39.663,0,0,0,12.455-3.306c.583,7.648,1.674,14.332,2.729,20.8l.005.031c.781,4.783,1.588,9.727,2.168,14.955Zm160.664-2.437c-21.453,0-41.2-.662-41.385-.669,0-.2-.1-20.365-1.032-30.8-.022-.244-.1-1.112-.22-2.039.871.017,1.865.026,2.956.026,13.97,0,38.2-1.488,40.919-1.658h.024V272.37H362.431l.164-45.084h42.484V212.258l-.078,0c-2.511.1-15.615.583-27.026.583a139.252,139.252,0,0,1-15.544-.588c.157-5.427.164-45.031.164-45.428h42.484V152.123H362.431v-.018a409.212,409.212,0,0,0,.163-42.466c10.83,1.447,29.492,1.663,39.653,1.663,3.023,0,5.13-.02,5.895-.028h.04c.008-.023.874-2.63.164-11.438H408.2c.042-.625.145-3.242.146-3.268l-.025,0-.1,0c-2.689.068-16.71.407-28.76.407-7.879,0-13.555-.138-16.871-.411-.761-2.118-.851-12.1-.792-20.1.07-9.512.376-19.559.628-24.183,2.251-.161,7.4-.242,15.293-.242,13.348,0,29.923.232,30.622.242V36.111h-.081l-.116,0c-4.05.065-18.177.276-29.907.276-7.9,0-13.217-.094-15.811-.281.6-12.432.168-35.877.164-36.111L480.078,1.8c0,.02,0,.105-.008.26l-.006.166c-.361,9.887-2.274,61.808-4.461,113.109-1.409,33.078-2.665,59.654-3.73,78.989-1.329,24.117-2.362,36.857-3.068,37.867-.541,5.432-8.763,25.77-16.714,45.438l-.01.026-.014.034c-7.589,18.773-15.436,38.184-16.487,44.371C427.076,322.5,416.389,322.726,403.816,322.726Zm76.265-.667H449.2l70.732-171.2,24.039,9.438L480.078,322.057Zm50.814,0h0a50.7,50.7,0,0,0-11.425-1.093c-3.959,0-8.028.262-12.336.54l-.053,0c-3.467.225-7.048.457-10.662.548.15-2.869,3.644-12.815,10.384-29.562,5.389-13.39,12.859-31.144,22.2-52.77,15.75-36.452,31.93-72.535,32.091-72.9L589.718,175l-.183.467c-5.583,14.161-54.663,138.581-58.641,146.591ZM155.374,298.137c-5.827,0-9.83-1.3-11.9-3.857-4.522-2.694-8.018-12.169-12.066-23.14l0-.008c-5.008-13.571-10.685-28.952-20.066-36.872-.024-.023-.283-.233-.544-.437-.751-.589-2.057-1.929-3.71-3.625l-.006-.006c-6.161-6.324-17.63-18.094-29.057-21.148a61.515,61.515,0,0,1-12.882-5.528.066.066,0,0,0,0-.054,5.563,5.563,0,0,0-1.748-.913c-1.622-.706-4.072-1.772-5.349-3.087-1.256-1.295-3.142-1.995-5.139-2.736l-.006,0a16.925,16.925,0,0,1-6.369-3.482c-1.65-.506-5.5-3.1-9.57-6.449-4.462-3.668-8.153-7.365-9.875-9.891a.228.228,0,0,0,.214-.138c.471-1.165-6.772-9.416-10.253-13.382l-.009-.011c-.655-.746-1.22-1.39-1.561-1.791-3.224-3.5-4.744-7.065-7.5-13.539l0-.008-.005-.013c-.457-1.071-1.082-2.538-1.746-4.067A50,50,0,0,1,.527,126.5a64.149,64.149,0,0,1,.252-18.12A86.985,86.985,0,0,1,5.387,90.888,102.721,102.721,0,0,1,12.76,75.326a138.922,138.922,0,0,1,26.38-29.3,82.838,82.838,0,0,1,15.4-10.156,43.509,43.509,0,0,1,15.41-4.667c3.307-.285,7.117-.429,11.325-.429a211.941,211.941,0,0,1,31.253,2.352,78.455,78.455,0,0,1,12.039,2.713c3.317,1.1,5.316,2.293,5.944,3.534a4.712,4.712,0,0,0,3.624,3.454c.578.182,1.034.326,1.2.658a1.016,1.016,0,0,1-.027.791c2.114.879,7.384,2.928,10.634,2.928,1.495,0,2.37-.435,2.6-1.294A43.171,43.171,0,0,0,160.159,38.3a58.459,58.459,0,0,0,6.991-8.261l0,0a64.135,64.135,0,0,1,10.31-11.551A208.016,208.016,0,0,1,207.2,8.333c.439.035.9.053,1.382.053a50.425,50.425,0,0,0,10.741-1.668l.52-.119A46.382,46.382,0,0,1,229.2,5.052c.2,0,.4,0,.581.014h10.106c1.326.4,3.257.967,5.492,1.624l.461.136.01,0,.01,0c9.258,2.723,23.248,6.837,25.073,7.876,3.638.109,5.4,1.695,8.611,4.573,1.577,1.416,3.539,3.177,6.258,5.23a49.837,49.837,0,0,1,9.969,10.748,63.282,63.282,0,0,1,3.837,6.114l0,.008,0,.008c.3.651,7.438,15.974,7.963,18.063,1.206,1.9,2.353,5.584,3.315,10.647a147.855,147.855,0,0,1,2.028,16.258c.93,12.583.508,23.647-1.074,28.186a58.994,58.994,0,0,1-4.326,16.155A63.118,63.118,0,0,1,299.8,143.87c-6.013,8-13.6,14.743-20.943,21.262l-.011.01c-7.393,6.566-15.037,13.356-20.83,21.3-9.288,17.152-10.171,34.792-11.105,53.468-.58,11.605-1.181,23.605-3.764,36.4a72.339,72.339,0,0,1-26.069,11.552,60.988,60.988,0,0,1-9.878,1.357v-4.739c-1.688-2.216-4.639-13.216-8.77-32.7-3.52-16.6-7.726-38.579-12.164-63.562-8.581-48.3-15.316-92.423-15.015-98.348l-1.034-.113-.03,0-.135-.015-.012,0c-4.607-.5-10.339-1.119-13.495-2.972a30.862,30.862,0,0,1-5.555,7.407,21.2,21.2,0,0,0-4.249,5.665c1.428,2.452,4.066,12.685,7.84,30.413,3.2,15.039,7.115,35.01,11.318,57.753,7.959,43.083,14.758,84.162,15.156,91.571.349.159.661.3.921.411,2.295,1.015,2.295,1.015,2.275,3.656v.034c-.006.919-.015,2.177.072,3.906l.088.191.061.132c.474,1.031.474,1.031.335,1.4a9.315,9.315,0,0,0-.483,3.181c-4.937,1.526-9.3,2.7-13.342,3.6A74.162,74.162,0,0,1,155.374,298.137ZM76.867,60.18a41.85,41.85,0,0,0-7.247.635c-13.022,2.3-24.189,10.549-31.444,23.24s-9.732,28.3-6.972,43.952c2.5,14.154,9.159,27.067,18.762,36.362,9.511,9.206,21.256,14.275,33.071,14.274a41.878,41.878,0,0,0,7.247-.635c13.021-2.3,24.188-10.549,31.443-23.24s9.732-28.3,6.972-43.951c-2.5-14.153-9.159-27.066-18.761-36.361C100.428,65.249,88.683,60.179,76.867,60.18Zm164-31a41.861,41.861,0,0,0-7.246.635C206.74,34.554,189.507,64.7,195.2,97.007c2.5,14.152,9.159,27.065,18.763,36.361,9.51,9.205,21.256,14.275,33.072,14.274a41.834,41.834,0,0,0,7.246-.635c13.021-2.3,24.188-10.55,31.444-23.241s9.732-28.3,6.972-43.952c-2.5-14.152-9.158-27.065-18.762-36.361C264.427,34.249,252.682,29.179,240.866,29.179ZM595.789,160.855a200.253,200.253,0,0,1-38.4-11.423,142.528,142.528,0,0,1-17.74-8.6,59.8,59.8,0,0,1-12.917-9.652,6.34,6.34,0,0,0,.682-.733l0,0,0,0a69.953,69.953,0,0,1,11.761-10.848c7.554-5.411,15.2-8.154,22.734-8.154a32.041,32.041,0,0,1,13.605,3.109,40.47,40.47,0,0,1,15.088,11.725,37.7,37.7,0,0,1,7.631,26.724c-.373,3.423-1.289,6.363-2.45,7.864Z" fill="url(#linear-gradientkdjfnsdjifwejioufshdcjkgfhvsdbjhfsdvbsd1234567876543234567)"/>
</svg>
