<svg xmlns="http://www.w3.org/2000/svg" width="300" height="300" viewBox="0 0 300 300">
  <g id="Group_1786" data-name="Group 1786" transform="translate(-6970 -22091)">
    <rect id="Rectangle_453" data-name="Rectangle 453" width="300" height="300" transform="translate(6970 22091)" fill="none"/>
    <path id="Stationary" d="M195.845,299.992h0c-3.933-.3-45.459-.814-81.033-.814-18.513,0-41.815.141-47.693.813.119-4.02-4.353-43.886-8.674-82.44v-.008c-4.59-40.941-9.338-83.275-8.781-84.294.53-.363,29.989-.439,54.607-.439,45.518,0,104.236.26,109.032.375.505,5.238-3.9,47.359-7.683,81.772-4.3,39.074-8.9,78.244-9.773,85.036ZM96.212,128.659h0c-4.7-.317-9.485-.394-14.109-.469h0c-5.788-.095-11.774-.193-17.568-.759a9.951,9.951,0,0,0-.974-2.517c-.5-.928-.853-1.6-.966-5.241h1.293a3.2,3.2,0,0,1,.7-.073,7.133,7.133,0,0,1,1.341.163l.1.019a5.906,5.906,0,0,0,1.051.144,1,1,0,0,0,.747-.254c.216.013.441.02.671.02a21.762,21.762,0,0,0,10.256-3.253,26.029,26.029,0,0,1,5.6-.415h0a46.18,46.18,0,0,0,4.986-.216,15.694,15.694,0,0,0,4.928-1.308c.231,3.026.662,5.671,1.08,8.23l0,.012c.309,1.893.628,3.849.858,5.917Zm63.572-.964c-8.489,0-16.3-.262-16.375-.265,0-.079-.04-8.058-.408-12.187-.009-.1-.04-.44-.087-.807.345.007.738.01,1.17.01,5.528,0,15.115-.589,16.191-.656h.01v-6.02H143.411l.065-17.839h16.81V83.984h-.031c-.994.04-6.179.231-10.694.231a55.1,55.1,0,0,1-6.151-.233c.062-2.147.065-17.818.065-17.975h16.81V60.19H143.411v-.007a161.927,161.927,0,0,0,.064-16.8,146.618,146.618,0,0,0,15.69.658c1.2,0,2.03-.008,2.333-.011h.016c0-.009.346-1.041.065-4.526h-.058c.017-.247.057-1.283.058-1.293h-.049c-1.064.027-6.612.161-11.38.161-3.118,0-5.363-.055-6.676-.163-.3-.838-.337-4.788-.313-7.953.028-3.764.149-7.739.248-9.569.891-.064,2.928-.1,6.051-.1,5.282,0,11.84.092,12.117.1v-6.4H161.5c-1.6.026-7.192.109-11.834.109-3.126,0-5.23-.037-6.256-.111.237-4.919.066-14.2.065-14.289l46.488.714c0,.008,0,.042,0,.1l0,.066c-.143,3.912-.9,24.457-1.765,44.756-.558,13.088-1.055,23.6-1.476,31.255-.526,9.543-.935,14.584-1.214,14.983-.214,2.149-3.467,10.2-6.613,17.979l0,.01-.006.013c-3,7.428-6.108,15.109-6.524,17.557-3.365.174-7.594.264-12.569.264Zm30.177-.264H177.744l27.988-67.741,9.512,3.734L189.962,127.43Zm20.106,0h0a20.061,20.061,0,0,0-4.521-.432c-1.567,0-3.177.1-4.881.214h-.021c-1.372.089-2.789.181-4.219.217.059-1.135,1.442-5.071,4.109-11.7,2.132-5.3,5.088-12.323,8.784-20.88,6.232-14.424,12.634-28.7,12.7-28.845l11.328,3.236-.072.185c-2.209,5.6-21.629,54.834-23.2,58ZM61.481,117.965c-2.306,0-3.89-.514-4.709-1.526-1.789-1.066-3.173-4.815-4.774-9.156v0c-1.982-5.37-4.228-11.456-7.94-14.59-.009-.009-.112-.092-.215-.173-.3-.233-.814-.763-1.468-1.434l0,0c-2.438-2.5-6.976-7.16-11.5-8.368a24.341,24.341,0,0,1-5.1-2.187.026.026,0,0,0,0-.021,2.2,2.2,0,0,0-.692-.361,7.239,7.239,0,0,1-2.117-1.221,5.388,5.388,0,0,0-2.033-1.083h0a6.7,6.7,0,0,1-2.52-1.378,16.6,16.6,0,0,1-3.787-2.552A22.351,22.351,0,0,1,10.72,70a.09.09,0,0,0,.085-.055c.186-.461-2.68-3.726-4.057-5.3l0,0c-.259-.3-.483-.55-.618-.709-1.276-1.385-1.877-2.8-2.968-5.357v0l0-.005c-.181-.424-.428-1-.691-1.609A19.784,19.784,0,0,1,.211,50.051a25.383,25.383,0,0,1,.1-7.17A34.419,34.419,0,0,1,2.134,35.96,40.645,40.645,0,0,1,5.051,29.8,54.969,54.969,0,0,1,15.489,18.209a32.778,32.778,0,0,1,6.094-4.019,17.216,17.216,0,0,1,6.1-1.847c1.309-.113,2.816-.17,4.481-.17a83.861,83.861,0,0,1,12.366.931,31.044,31.044,0,0,1,4.764,1.073,4.093,4.093,0,0,1,2.352,1.4,1.864,1.864,0,0,0,1.434,1.367c.229.072.409.129.475.26a.4.4,0,0,1-.011.313,14,14,0,0,0,4.208,1.159c.592,0,.938-.172,1.029-.512a17.082,17.082,0,0,0,4.6-3.011,23.131,23.131,0,0,0,2.766-3.269h0a25.377,25.377,0,0,1,4.08-4.571A82.309,82.309,0,0,1,81.988,3.294q.261.021.547.021a19.952,19.952,0,0,0,4.25-.66l.206-.047A18.353,18.353,0,0,1,90.693,2c.079,0,.158,0,.23.006h4c.525.158,1.289.383,2.173.643l.182.054h.008c3.663,1.077,9.2,2.705,9.921,3.116,1.44.043,2.137.671,3.407,1.809.624.56,1.4,1.257,2.476,2.069a19.72,19.72,0,0,1,3.945,4.253,25.037,25.037,0,0,1,1.518,2.419v.006c.119.258,2.943,6.321,3.151,7.147a13.524,13.524,0,0,1,1.312,4.213,58.5,58.5,0,0,1,.8,6.433c.368,4.979.2,9.357-.425,11.153a23.342,23.342,0,0,1-1.712,6.392,24.976,24.976,0,0,1-3.052,5.214,59.275,59.275,0,0,1-8.287,8.413l0,0a55.707,55.707,0,0,0-8.242,8.428C98.42,80.556,98.071,87.536,97.7,94.926a94.514,94.514,0,0,1-1.489,14.4A28.624,28.624,0,0,1,85.9,113.9a24.132,24.132,0,0,1-3.909.537v-1.875c-.668-.877-1.836-5.229-3.47-12.939-1.393-6.568-3.057-15.265-4.813-25.151-3.4-19.112-6.06-36.57-5.941-38.915l-.409-.045h-.012l-.053-.006h0c-1.823-.2-4.091-.443-5.34-1.176a12.212,12.212,0,0,1-2.2,2.931A8.388,8.388,0,0,0,58.066,39.5c.565.97,1.609,5.019,3.1,12.034,1.266,5.951,2.815,13.853,4.478,22.852,3.149,17.047,5.84,33.3,6,36.233.138.063.262.119.364.163.908.4.908.4.9,1.447v.013c0,.364-.006.861.028,1.546l.035.076.024.052c.188.408.188.408.133.554a3.686,3.686,0,0,0-.191,1.259c-1.953.6-3.68,1.068-5.279,1.424A29.345,29.345,0,0,1,61.481,117.965ZM30.417,23.809a16.559,16.559,0,0,0-2.868.251,17.972,17.972,0,0,0-12.442,9.2,25.98,25.98,0,0,0-2.759,17.391,26.481,26.481,0,0,0,7.424,14.388,18.948,18.948,0,0,0,13.086,5.648,16.57,16.57,0,0,0,2.868-.251,17.973,17.973,0,0,0,12.442-9.2,25.979,25.979,0,0,0,2.759-17.391A26.483,26.483,0,0,0,43.5,29.458,18.946,18.946,0,0,0,30.417,23.809ZM95.31,11.543a16.564,16.564,0,0,0-2.867.251c-10.636,1.875-17.455,13.8-15.2,26.587a26.481,26.481,0,0,0,7.424,14.388A18.949,18.949,0,0,0,97.75,58.417a16.553,16.553,0,0,0,2.867-.251,17.975,17.975,0,0,0,12.442-9.2,25.978,25.978,0,0,0,2.759-17.391,26.481,26.481,0,0,0-7.424-14.388,18.949,18.949,0,0,0-13.085-5.648Zm140.437,52.1a79.236,79.236,0,0,1-15.194-4.52,56.394,56.394,0,0,1-7.019-3.4,23.661,23.661,0,0,1-5.111-3.819,2.509,2.509,0,0,0,.27-.29h0a27.679,27.679,0,0,1,4.654-4.292,15.456,15.456,0,0,1,9-3.226,12.678,12.678,0,0,1,5.383,1.23,16.013,16.013,0,0,1,5.97,4.639,14.918,14.918,0,0,1,3.02,10.574,6.717,6.717,0,0,1-.969,3.112Z" transform="translate(7001.604 22091.006)" fill="#6778e2"/>
  </g>
</svg>
