<svg xmlns="http://www.w3.org/2000/svg" width="300" height="300" viewBox="0 0 300 300">
  <g id="Group_1772" data-name="Group 1772" transform="translate(1724 -15520)">
    <rect id="Rectangle_544" data-name="Rectangle 544" width="300" height="300" transform="translate(-1724 15520)" fill="none"/>
    <g id="Group_1598" data-name="Group 1598" transform="translate(-1723.999 15537.783)">
      <path id="Path_525" data-name="Path 525" d="M297.712,54.6,286.277,30.039A22.758,22.758,0,0,0,271.43,17.7c-36.331-9.9-78-15.953-120.971-16.7A514.775,514.775,0,0,0,25.1,18.51c-3.093.9-8.492,5.437-11.342,11.417L2.267,54.616a22.4,22.4,0,0,0-2.25,9.748V80.674L0,81.442a13.313,13.313,0,0,0,13.31,13.31l.619-.019h47.2a14.247,14.247,0,0,0,13.91-14.247L75,79.493V63.558A12.185,12.185,0,0,1,80.59,53.323,129.6,129.6,0,0,1,150.4,38.494a130.569,130.569,0,0,1,69.681,14.772,12.323,12.323,0,0,1,4.912,9.917V79.53a14.247,14.247,0,0,0,13.854,15.185h47.26l.581.019A13.31,13.31,0,0,0,300,81.424l-.019-.806V64.345a22.646,22.646,0,0,0-2.306-9.879Z" transform="translate(0 0)" fill="#fb5454"/>
      <path id="Path_526" data-name="Path 526" d="M207.212,66.863a88.671,88.671,0,0,1-18.765-54.74l.019-1.575V5H169.719V23.747H94.733V5H75.986v6.186l.019,1.5A88.858,88.858,0,0,1,57.09,67.613L1,136.226v56.24H263.451v-56.24Zm-74.986,88.109a56.24,56.24,0,1,1,56.24-56.24A56.24,56.24,0,0,1,132.226,154.972Z" transform="translate(17.764 70.968)" fill="#fb5454"/>
      <path id="Path_527" data-name="Path 527" d="M80.977,44.691A37.493,37.493,0,1,1,43.484,8.045,37.493,37.493,0,0,1,80.977,44.691Z" transform="translate(106.506 125.01)" fill="#fb5454"/>
    </g>
  </g>
</svg>
