<svg xmlns="http://www.w3.org/2000/svg" width="243.58" height="307.178" viewBox="0 0 243.58 307.178">
  <path id="Workorder_icon_for_Pop_up" data-name="Workorder icon for Pop up" d="M94.462,23.942v39.7c0,10.525.606,18.71-3.781,24.1-7.64,12.271-46.571,9.924-66.639,8.034-1.12,5.131-.473,13.241-.473,18.432V284.778h194.2V83.492h.473v-.473c9.7.218,14.83-4.914,21.74-6.617V243.188c0,21.27,4.052,50.976-8.932,60.022-7.786,5.915-24.774,4.254-39.227,4.254H41.529c-15.339,0-25.282.846-34.5-6.569-7.4-5.8-6.144-22.44-5.719-36.864q.236-46.855.473-95v-61.44c-1.146-4.938-1.734-23.285,0-28.83,2.086-5.734,9.656-10.2,14.178-14.651,7.152-5.934,13.073-13.591,20.8-19.85a49.251,49.251,0,0,0,7.609-8.507c9-6.053,15.556-14.752,24.056-21.74C72.4,11.369,76.872,3.947,81.654,1.729c5.958-1.807,16.135-.52,23.631-.52h50.57c7.531-.425,21.193-1.578,27.412.473v.047h-.473c-1.606,2.749-4.491,4.223-6.569,6.144-2.866,5.1-4.6,10.522-7.136,15.6C145.4,25.511,119.387,24.363,94.462,23.942ZM222.021,4.565c3,1.7,5.415,2.669,7.136,4.254-.263,2.819-1.861,5.687-.473,7.562,2.092,2.52,3.964,4.434,7.515,4.679a20.089,20.089,0,0,1,4.726-2.316c.483.805.129.593.945.473,1.674,3.189,3.194,5.256,1.938,9.405-2.1.6-3.211,1.83-4.773,2.883-.052,4.367-.272,7.684,1.89,9.405-1.694,1.774-.969,7.539-.945,10.445h-.473c-.973-.7-2.538-.6-4.726-.52-1.978,2.9-4.657,3.529-5.151,8.082,1.419,1.371,2.32,3.19,1.418,3.781-.4,3.222-4.159,4.6-7.609,4.679-3.006-5.518-3.526-5.971-12.713-6.1-.675,2.392-1.5,5.724-3.828,6.569-1.175.661-5.415-.857-6.617-2.316-.746-.3-1.046-.777-1.843-2.363,1.587-.831,1.839-2.811,1.843-5.246-1.734-1.619-3.578-3.466-5.624-5.2-3.346.017-4.22,1.183-7.609.992a13.324,13.324,0,0,1-3.308-8.034c1.569-.5,4.482-2.03,5.2-4.254.526-.4.471-1.87.473-3.356.013-8.82-5.983-3.634-6.617-10.823,1.583-1.386,1.294-4.253,3.781-5.671,1.42-.3,3.791,1.226,6.191.945,3.069-2.269,5.652-2.982,5.2-8.554a18.821,18.821,0,0,1-1.418-4.679c1.59-.325,6.587-3.848,7.515-2.883,2.867,1.092,2.448,4.617,4.726,5.246h8.034c.483.045.129.258.945-.473C219.107,9.157,220.469,7.028,222.021,4.565ZM211.2,24.415c-1.648,1.924-4.694,2.162-6.191,4.206C200.336,35,202.38,44.873,208.788,48c7.9,3.854,15.913-2.23,17.487-8.46q-.236-3.379-.473-8.034C220.754,27.782,221.783,24.741,211.2,24.415ZM152.547,47.1c3.956.354,7.677.663,9.972.945.736,1.156,1.651,2.194,1.418,2.788v7.089c1.337,2.451,11.627,6.868,14.178,4.726,3.625-1.295,3.449-4.413,7.987-4.726,2.458,2.533,6.756,4.448,7.136,8.082.7.88.476,1.329,0,2.363-1.674,1.8-2.992,3.938-4.773,5.2-.12,4.945,2.178,11.79,4.773,13.186,2,1.363,7.064,1,9.405.992,1.724,3.294,1.961,6.645,1.89,11.768h-.473c-1.027,3.237-4.159,3.039-8.932,2.41-.132.8-.369.791-1.89.473-1.862,4.054-4.606,7.467-4.773,12.761a46.329,46.329,0,0,1,3.828,6.1H120.881v-1.371c3.029-.881,3.947-3.415,3.356-8.082-2.273-3.2-1.124-8.468-6.664-9.405-1.212-.341-5.179-.26-7.042-.52a3.428,3.428,0,0,0-1.89-2.363V90.108c1.429-.263,1.742-.815,1.89-2.363a43.519,43.519,0,0,0,10.35-.992c1.234-2.531,5.678-9.489,2.883-13.659-.773-2.866-3.863-2.855-4.3-7.562,2.852-2.391,4.672-7.3,9.5-7.609,2.787,2.606,5.073,5.5,9.878,5.246,6.5-4.34,10.752-.225,10.4-12.808A12.521,12.521,0,0,0,152.547,47.1Zm.945,30.2c-1.348.862-3.212.631-5.152.992-3.548,2.49-7.637,7.166-9.027,11.768-3.523,11.668,8.021,26.14,19.424,22.733C180.941,107.728,180.155,76.7,153.492,77.3ZM50.462,172.768H190.356c1.309,2.485,1,7.444.945,10.917-.38.908-.168.555-.473,1.371h-.945c-2,1.237-7.481.047-10.823.473h-94.1c-11.149-.425-24.729,1.5-34.973-.473v-1.371C48.414,181.791,49.626,174.566,50.462,172.768Zm-.473,37.384H190.828v1.371c1.281,1.978.535,7.94.473,10.87-2.825,1.439-8.485.52-13.186.52H50.462c-.157-.047-.315-.945-.473-.993C48.591,219.817,49.5,212.842,49.989,210.152Zm.473,37.762H190.356c1.4,2.67,1,8.171.945,12.288-3.576,1.174-9.764.473-14.6.473H49.989V259.3C48.384,257.359,49.6,249.762,50.462,247.914Z" transform="translate(-0.691 -0.5)" fill="#3693ff" fill-rule="evenodd"/>
</svg>
