<svg xmlns="http://www.w3.org/2000/svg" width="79.045" height="118.149" viewBox="0 0 79.045 118.149">
  <g id="_1" data-name="1" transform="translate(804.1 -130.3)">
    <path id="Path_49" data-name="Path 49" d="M-729.511,278.72h-70.132a4.448,4.448,0,0,1-4.457-4.457V181.057a4.448,4.448,0,0,1,4.457-4.457h70.132a4.448,4.448,0,0,1,4.457,4.457v93.206A4.448,4.448,0,0,1-729.511,278.72Z" transform="translate(0 -35.206)" fill="#3b3d3d"/>
    <path id="Path_50" data-name="Path 50" d="M-676.014,172.887a1.94,1.94,0,0,1-1.486.359A2.335,2.335,0,0,1-676.014,172.887Z" transform="translate(-96.266 -32.379)" fill="#f3e027"/>
    <path id="Path_51" data-name="Path 51" d="M-507.721,216.055c-.1.216-.192.407-.288.623h-.192V215.6A.533.533,0,0,1-507.721,216.055Z" transform="translate(-225.001 -64.862)" fill="#303b37"/>
    <path id="Path_52" data-name="Path 52" d="M-508.2,622.64l.24-.24A1.136,1.136,0,0,0-508.2,622.64Z" transform="translate(-225.001 -374.19)" fill="#303b37"/>
    <g id="Group_51" data-name="Group 51" transform="translate(-801.297 130.3)">
      <path id="Path_53" data-name="Path 53" d="M-680.813,143.833a22.546,22.546,0,0,0,.048,4.217.284.284,0,0,0,.024.24c-.024.24-.1.479-.1.719-.024,2.061.359,1.941-2.013,1.941h-35.174c-2.372,0-2.372,0-2.156-2.444a2.14,2.14,0,0,1,1.725-.479c5.463,0,10.9-.024,16.365.024,1.2,0,1.653-.383,1.581-1.581s-.024-2.4-.024-3.594a2.214,2.214,0,0,0,2.252-1.893,2.389,2.389,0,0,0-1.533-2.66c-.815-.192-.551-.934-.743-1.462,0-.407.024-.839.024-1.246a1.93,1.93,0,0,1,1.773,0,5.114,5.114,0,0,1,3.211,4.313c.192,1.749.335,1.893,2.037,1.893h12.627v.743a1.368,1.368,0,0,0,.024.311c0,.24-.024.479-.024.719-.024.024-.072.048-.048.048.024.048.048.072.072.12C-680.885,143.761-680.837,143.785-680.813,143.833Z" transform="translate(737.552 -134.177)" fill="#eed310"/>
      <path id="Path_54" data-name="Path 54" d="M-700.985,131.738c0,.407-.024.839-.024,1.246-.335.527-.647,1.03-.982,1.557a2.46,2.46,0,0,0-1.222,2.684,2.257,2.257,0,0,0,2.2,1.773c0,1.2-.048,2.4.024,3.594.072,1.174-.383,1.581-1.581,1.581-5.463-.048-10.9-.024-16.365-.024a2.14,2.14,0,0,0-1.725.479c-.048-.144-.1-.264-.144-.407a25.451,25.451,0,0,0,.048-4.481c.024-.288.048-.575.048-.863.072-2.2.072-2.2,2.228-2.2,3.259,0,6.541-.048,9.8.024.958.024,1.318-.24,1.486-1.246a5.667,5.667,0,0,1,4.121-4.768,2.069,2.069,0,0,0,1.534-.383h.5C-701.416,130.8-700.985,131.258-700.985,131.738Z" transform="translate(737.956 -130.3)" fill="#fbe92a"/>
      <path id="Path_55" data-name="Path 55" d="M-638.708,131.808c0-.479-.431-.934,0-1.414a6.088,6.088,0,0,1,6.206,5.223c.12.91.431,1.15,1.294,1.15,3.666-.048,7.356,0,11.022-.024.934,0,1.318.335,1.1,1.246h-12.627c-1.7,0-1.845-.144-2.037-1.893a5.144,5.144,0,0,0-3.211-4.313A1.955,1.955,0,0,0-638.708,131.808Z" transform="translate(675.679 -130.371)" fill="#f3e027"/>
      <path id="Path_56" data-name="Path 56" d="M-556.328,169.668c-.024-.048-.048-.072-.072-.12,0,0,.048-.024.048-.048C-556.28,169.572-556.28,169.62-556.328,169.668Z" transform="translate(612.947 -160.107)" fill="#f3e027"/>
      <path id="Path_57" data-name="Path 57" d="M-556.176,165.611a1.368,1.368,0,0,0-.024-.311A1.268,1.268,0,0,1-556.176,165.611Z" transform="translate(612.795 -156.914)" fill="#f3e027"/>
      <path id="Path_58" data-name="Path 58" d="M-775.22,188.424c.048.144.1.264.144.407-.216,2.444-.216,2.444,2.156,2.444h35.174c2.4,0,1.989.12,2.013-1.941,0-.24.072-.479.1-.719a4.83,4.83,0,0,0,.551-.168c5.223-.024,10.423-.024,15.646-.048.695,0,1.006.216.911.911-.024.24,0,.5,0,.743q0,42.338-.024,84.652c0,.5.12,1.006-.431,1.318-2.54-.5-5.1-.144-7.667-.192a.727.727,0,0,0-.719.839c.072,2.516-.288,5.032.216,7.548-.311.479-.815.335-1.246.335q-31.412,0-62.824.024c-.934,0-1.174-.264-1.174-1.174q.036-46.867,0-93.733c0-.982.288-1.246,1.246-1.246C-785.835,188.424-780.54,188.4-775.22,188.424Zm11.357,12.867a.153.153,0,0,0,0-.144c3.426.024,6.853.048,10.279.048q11.753,0,23.505-.048a.261.261,0,0,0-.024.12.475.475,0,0,0,.743-.048c.072-.072.144-.168.216-.24.431-1.054.287-1.246-1.006-1.246H-747.4c-5.487,0-11,.024-16.485.048l-.431.144c-.479.12-.383.527-.455.863a.97.97,0,0,1,.12.216h.24l.263.264C-764.031,201.267-763.959,201.291-763.863,201.291Zm34,37.882c-.335-.024-.647-.072-.982-.072h-32.011c-.335,0-.647.048-.982.072-.575-.12-.911.12-.887.695.024.5.407.695.863.719.287.024.575,0,.863,0h33.233c.5,0,.934-.192.934-.743C-728.857,239.2-729.264,238.981-729.863,239.172Zm-46.435-25.71a6.767,6.767,0,0,0,6.972-6.685,6.828,6.828,0,0,0-6.493-7.044,6.808,6.808,0,0,0-7.236,6.685A6.742,6.742,0,0,0-776.3,213.463Zm6.972,32.443a6.861,6.861,0,0,0-6.877-6.8,6.833,6.833,0,0,0-6.829,7,6.831,6.831,0,0,0,6.877,6.8A6.893,6.893,0,0,0-769.326,245.905Zm0-19.624a6.862,6.862,0,0,0-6.8-6.877,6.8,6.8,0,0,0-6.9,6.9,6.857,6.857,0,0,0,6.925,6.877A6.816,6.816,0,0,0-769.326,226.282Zm0,39.367a6.8,6.8,0,0,0-6.8-6.877,6.817,6.817,0,0,0-6.925,6.757,6.829,6.829,0,0,0,6.8,7A6.812,6.812,0,0,0-769.326,265.649Zm22.451-6.9c-5.343,0-10.662,0-16.006.024-.695,0-1.869-.407-1.821.815.048,1.03,1.15.695,1.821.695q16.245.036,32.49.024a5.188,5.188,0,0,0,.863-.024.7.7,0,0,0,.671-.743.661.661,0,0,0-.695-.719c-.455-.024-.911-.048-1.366-.048Q-738.86,258.736-746.875,258.748Zm.144-37.858h16.269c.336,0,.671,0,.982-.024a.655.655,0,0,0,.623-.647.665.665,0,0,0-.551-.719,4.416,4.416,0,0,0-.982-.072H-762.9a7.247,7.247,0,0,0-1.246.072.6.6,0,0,0-.551.695.625.625,0,0,0,.6.671c.359.024.743.024,1.126.024Zm.12,51.635q8.015,0,16.03-.024c.623,0,1.653.335,1.629-.743-.024-1.054-1.054-.719-1.677-.719q-16.065-.036-32.155-.024a8.851,8.851,0,0,0-1.126.048c-.359.048-.647.216-.623.623a.706.706,0,0,0,.551.743,6.972,6.972,0,0,0,1.222.072C-757.37,272.525-752,272.525-746.612,272.525Zm-.264-9.68h-16.006a6.824,6.824,0,0,0-1.222.1.591.591,0,0,0-.479.647.589.589,0,0,0,.455.647,4.411,4.411,0,0,0,.982.1h32.514c.623,0,1.557.168,1.581-.743,0-.887-.934-.695-1.557-.743a3.526,3.526,0,0,0-.5,0Zm.024-49.431h16.006c.695,0,1.8.264,1.773-.743s-1.126-.719-1.821-.719c-10.471-.024-20.941,0-31.388,0a7.227,7.227,0,0,0-1.246.048c-.455.1-1.1.12-1.03.815.072.6.6.6,1.054.623h.982C-757.274,213.415-752.075,213.415-746.851,213.415Zm.359,38h-16.245c-.695,0-1.773-.144-1.749.815.024.887,1.078.647,1.749.647q15.742.036,31.508,0a11.806,11.806,0,0,0,1.581-.168c.383-.048.767-.168.719-.671-.048-.455-.407-.575-.815-.6-.335-.024-.671-.024-.982-.024Zm-1.725-22.355h14.88c.575,0,1.414.192,1.414-.743s-.839-.695-1.414-.743h-29.016a4.455,4.455,0,0,0-.982.024c-.5.1-1.222.048-1.174.791.048.623.671.623,1.174.647.336.024.671,0,.982,0C-757.657,229.061-752.937,229.061-748.217,229.061Zm1.486,3.977c5.367,0,10.758,0,16.125-.024.6,0,1.605.311,1.605-.623s-1.006-.6-1.605-.6q-16.137-.036-32.251-.024c-.335,0-.671,0-.982.024-.359.024-.671.192-.671.6s.312.551.671.6c.359.024.743.024,1.126.024C-757.418,233.038-752.075,233.038-746.731,233.038Zm-1.725-23.769V209.2q7.44,0,14.879-.024c.6,0,1.605.335,1.605-.623,0-.934-1.03-.6-1.605-.6q-14.7-.036-29.4-.024c-.288,0-.575,0-.862.024-.407.024-.767.168-.695.671.048.479.312.671.839.671Q-756.112,209.258-748.456,209.27Zm.1,57.793c-4.84,0-9.68-.024-14.5.024-.575,0-1.605-.407-1.629.527-.024,1.054,1.03.695,1.653.695q14.628.036,29.256.024c.335,0,.671,0,.982-.024.359-.024.647-.216.647-.6,0-.407-.311-.551-.671-.575s-.743-.024-1.126-.024C-738.609,267.062-743.473,267.062-748.361,267.062Zm.048-18.378h15.383c.455,0,1.03,0,1.006-.647-.024-.623-.6-.575-1.03-.6h-30a6.583,6.583,0,0,0-.982.048.615.615,0,0,0-.575.695c.024.359.288.479.6.479.336.024.671.024.982.024Zm-2.9-5.463h-11.429c-.407,0-.839,0-1.246.024-.359.024-.671.192-.671.6a.744.744,0,0,0,.623.815,6.584,6.584,0,0,0,.982.048H-739.5c.24,0,.5,0,.743-.024.479-.024.815-.264.791-.767a.722.722,0,0,0-.743-.695c-.335-.024-.671-.024-.982-.024C-743.521,243.222-747.354,243.222-751.212,243.222Zm0-38h12.292c.407,0,.935.048.959-.527.048-.6-.455-.719-.935-.719h-24.8c-.407,0-.958-.072-.982.5-.048.575.479.695.958.743.335.024.671.024.982.024C-758.9,205.22-755.046,205.22-751.212,205.22Zm-.048,19.624h12.028c.479,0,1.27.216,1.27-.551,0-.839-.791-.647-1.342-.695h-24.272c-.455.024-.982,0-.958.647.024.575.5.575.91.6.288.024.575,0,.863,0Z" transform="translate(792.4 -174.479)" fill="#fcfdfd"/>
      <path id="Path_59" data-name="Path 59" d="M-520.836,561.332c-.479-2.492-.144-5.032-.216-7.547a.727.727,0,0,1,.719-.839c2.564.048,5.127-.311,7.667.192C-515.253,555.965-518.009,558.7-520.836,561.332Z" transform="translate(586.105 -451.617)" fill="#ddd"/>
      <path id="Path_60" data-name="Path 60" d="M-554.975,188.272a4.83,4.83,0,0,0-.551.168.275.275,0,0,1-.024-.24Z" transform="translate(612.312 -174.327)" fill="#ddd"/>
      <path id="Path_61" data-name="Path 61" d="M-645.347,152.152a2.238,2.238,0,0,1-2.2-1.773,2.46,2.46,0,0,1,1.222-2.684c.575-.024,1.15-.048,1.725-.1a2.389,2.389,0,0,1,1.533,2.66A2.293,2.293,0,0,1-645.347,152.152Z" transform="translate(682.318 -143.455)" fill="#4db8e9"/>
      <path id="Path_62" data-name="Path 62" d="M-640.575,142.962c-.575.024-1.15.048-1.725.1.336-.527.647-1.03.982-1.557C-641.126,142.027-641.39,142.77-640.575,142.962Z" transform="translate(678.265 -138.816)" fill="#f3e027"/>
      <path id="Path_63" data-name="Path 63" d="M-746.647,249.422a6.771,6.771,0,0,1-6.757-7.044,6.807,6.807,0,0,1,7.236-6.685,6.813,6.813,0,0,1,6.493,7.044A6.767,6.767,0,0,1-746.647,249.422Zm3.953-8.53a.691.691,0,0,0-.383-.527.656.656,0,0,0-.791.144c-.575.551-1.126,1.1-1.677,1.629-.551.551-1.03,1.366-1.7,1.557-.791.24-1.15-.863-1.773-1.27-.024-.024-.072-.048-.1-.072a.742.742,0,0,0-1.006-.072c-.431.359-.192.767.1,1.078.6.623,1.246,1.2,1.821,1.845.551.623,1.03.527,1.557,0,1.15-1.174,2.324-2.324,3.5-3.5A1.612,1.612,0,0,0-742.694,240.892Z" transform="translate(762.749 -210.438)" fill="#1ed895"/>
      <path id="Path_64" data-name="Path 64" d="M-739.6,406.727a6.828,6.828,0,0,1-6.829,6.973,6.816,6.816,0,0,1-6.877-6.8,6.877,6.877,0,0,1,6.829-7A6.9,6.9,0,0,1-739.6,406.727Zm-9.9-.407a.725.725,0,0,0-.695.311.675.675,0,0,0,.144.91c.695.719,1.39,1.414,2.109,2.109a.77.77,0,0,0,1.2-.072c1.222-1.222,2.468-2.444,3.69-3.69.335-.335.647-.719.192-1.15s-.839-.1-1.174.24c-.863.839-1.749,1.653-2.54,2.54-.575.647-1.03.671-1.581,0A3.216,3.216,0,0,0-749.492,406.32Z" transform="translate(762.67 -335.301)" fill="#1ed895"/>
      <path id="Path_65" data-name="Path 65" d="M-739.595,324.752a6.883,6.883,0,0,1-6.781,6.925A6.827,6.827,0,0,1-753.3,324.8a6.812,6.812,0,0,1,6.9-6.9A6.826,6.826,0,0,1-739.595,324.752Zm-7.883,3.043a.827.827,0,0,0,.743-.288c1.246-1.246,2.516-2.516,3.762-3.786.311-.312.527-.695.144-1.078-.431-.407-.839-.144-1.174.192-.719.719-1.486,1.438-2.18,2.2-.791.91-1.486,1.2-2.276.024a3.688,3.688,0,0,0-.623-.6.676.676,0,0,0-1.006-.024.62.62,0,0,0,.048.982c.695.719,1.39,1.414,2.085,2.109A1.073,1.073,0,0,0-747.478,327.8Z" transform="translate(762.669 -272.95)" fill="#1ed895"/>
      <path id="Path_66" data-name="Path 66" d="M-739.671,488.976a6.827,6.827,0,0,1-6.925,6.877,6.814,6.814,0,0,1-6.8-7,6.847,6.847,0,0,1,6.925-6.757A6.831,6.831,0,0,1-739.671,488.976Zm-10.016-.527a.638.638,0,0,0-.623.407.656.656,0,0,0,.168.791c.695.719,1.366,1.414,2.085,2.109.5.479.934.288,1.39-.144,1.15-1.174,2.324-2.324,3.5-3.5.335-.335.719-.671.287-1.15-.455-.527-.886-.192-1.246.168a28.826,28.826,0,0,0-2.252,2.276c-.743.887-1.366,1.006-2.085,0A2.1,2.1,0,0,0-749.687,488.449Z" transform="translate(762.745 -397.806)" fill="#1ed895"/>
      <path id="Path_67" data-name="Path 67" d="M-658.826,481.793h16.006a12.994,12.994,0,0,1,1.366.048.673.673,0,0,1,.695.719.7.7,0,0,1-.671.743,5.185,5.185,0,0,1-.863.024q-16.245,0-32.49-.024c-.671,0-1.773.335-1.821-.695-.048-1.222,1.126-.815,1.821-.815C-669.488,481.769-664.145,481.793-658.826,481.793Zm16.8.551c.024-.048.024-.1.048-.144h-33.4v.144Z" transform="translate(704.351 -397.524)" fill="#39c0fa"/>
      <path id="Path_68" data-name="Path 68" d="M-658.911,319.362h-16.269c-.383,0-.743,0-1.126-.024a.641.641,0,0,1-.6-.671.61.61,0,0,1,.551-.695,10.541,10.541,0,0,1,1.246-.072h32.514a4.416,4.416,0,0,1,.982.072.68.68,0,0,1,.551.719.673.673,0,0,1-.623.647,6.805,6.805,0,0,1-.982.024Z" transform="translate(704.58 -272.95)" fill="#29befc"/>
      <path id="Path_69" data-name="Path 69" d="M-658.177,534.7h-16.149a6.838,6.838,0,0,1-1.222-.072.729.729,0,0,1-.551-.743.591.591,0,0,1,.623-.623,8.659,8.659,0,0,1,1.126-.048q16.065,0,32.155.024c.623,0,1.653-.335,1.677.719.024,1.078-1.006.743-1.629.743C-647.491,534.724-652.834,534.7-658.177,534.7Z" transform="translate(703.966 -436.654)" fill="#e9e9e9"/>
      <path id="Path_70" data-name="Path 70" d="M-658.6,499.1h16.269c.623.048,1.557-.144,1.557.743,0,.911-.934.743-1.581.743H-674.87a4.407,4.407,0,0,1-.982-.1.569.569,0,0,1-.455-.647.573.573,0,0,1,.479-.647,7.006,7.006,0,0,1,1.222-.1Z" transform="translate(704.125 -410.734)" fill="#e9e9e9"/>
      <path id="Path_71" data-name="Path 71" d="M-658.435,287.965h-16.629c-.455-.024-1.006-.024-1.054-.623-.072-.695.551-.719,1.03-.815a7.134,7.134,0,0,1,1.246-.048h31.388c.695,0,1.8-.288,1.821.719.024,1.03-1.1.743-1.773.743C-647.773,287.989-653.092,287.965-658.435,287.965Z" transform="translate(703.984 -249.029)" fill="#e9e9e9"/>
      <path id="Path_72" data-name="Path 72" d="M-657.983,451.376h15.742c.335,0,.671,0,.982.024.407.024.767.144.815.6.072.5-.335.623-.719.671a8.863,8.863,0,0,1-1.581.168h-31.508c-.671,0-1.725.24-1.749-.647-.024-.958,1.054-.815,1.749-.815Z" transform="translate(703.891 -374.439)" fill="#e9e9e9"/>
      <path id="Path_73" data-name="Path 73" d="M-659.714,353.412h-14.137c-.335,0-.671.024-.982,0-.5-.024-1.126-.048-1.174-.647-.048-.743.695-.695,1.174-.791a4.458,4.458,0,0,1,.982-.024h29.016c.575.048,1.414-.192,1.414.743s-.839.719-1.414.743Q-652.274,353.4-659.714,353.412Z" transform="translate(703.897 -298.83)" fill="#e9e9e9"/>
      <path id="Path_74" data-name="Path 74" d="M-658.3,370.636H-674.3c-.383,0-.743,0-1.126-.024-.359-.024-.671-.192-.671-.6s.311-.575.671-.6c.335-.024.671-.024.982-.024q16.137,0,32.251.024c.6,0,1.605-.335,1.605.6s-1.006.623-1.605.623C-647.539,370.66-652.93,370.636-658.3,370.636Z" transform="translate(703.966 -312.077)" fill="#e9e9e9"/>
      <path id="Path_75" data-name="Path 75" d="M-660.128,271.132q-7.619,0-15.263.024c-.527,0-.791-.192-.839-.671-.072-.5.288-.647.695-.671.287-.024.575-.024.862-.024q14.7,0,29.4.024c.6,0,1.605-.335,1.605.6,0,.958-1.006.623-1.605.623q-7.44.036-14.879.024A.088.088,0,0,1-660.128,271.132Z" transform="translate(704.071 -236.341)" fill="#e9e9e9"/>
      <path id="Path_76" data-name="Path 76" d="M-659.7,516.344h14.64c.383,0,.743,0,1.126.024.359.024.671.192.671.575,0,.407-.288.575-.647.6-.335.024-.671.024-.982.024q-14.628,0-29.256-.024c-.623,0-1.7.359-1.653-.695.024-.934,1.054-.527,1.629-.527C-669.36,516.32-664.544,516.344-659.7,516.344Z" transform="translate(703.743 -423.76)" fill="#e9e9e9"/>
      <path id="Path_77" data-name="Path 77" d="M-659.884,436.046h-14.64c-.335,0-.671,0-.982-.024s-.575-.12-.6-.479a.628.628,0,0,1,.575-.695,6.747,6.747,0,0,1,.982-.048h30c.455.024,1.03-.024,1.03.6.024.623-.551.623-1.006.647-1.126.024-2.228,0-3.354,0Z" transform="translate(703.971 -361.84)" fill="#e9e9e9"/>
      <path id="Path_78" data-name="Path 78" d="M-662.778,417.2h11.549c.335,0,.671,0,.982.024a.693.693,0,0,1,.743.695c.024.5-.312.743-.791.767-.24.024-.5.024-.743.024h-23.457a6.578,6.578,0,0,1-.982-.048.744.744,0,0,1-.623-.815c0-.407.311-.575.671-.6.407-.024.815-.024,1.246-.024C-670.4,417.2-666.588,417.2-662.778,417.2Z" transform="translate(703.966 -348.457)" fill="#e9e9e9"/>
      <path id="Path_79" data-name="Path 79" d="M-642.117,400.086c.6-.192,1.006.024,1.006.671,0,.575-.431.743-.934.743h-34.1c-.455-.024-.839-.24-.863-.719-.024-.575.312-.815.887-.695.335.455.815.311,1.246.311h31.484C-642.932,400.4-642.453,400.542-642.117,400.086Zm-.072,1.006c.024-.048.024-.12.048-.168h-33.784v.168Z" transform="translate(704.654 -335.393)" fill="#39c0fa"/>
      <path id="Path_80" data-name="Path 80" d="M-663.237,254.536h-11.525c-.335,0-.671,0-.982-.024-.479-.048-.982-.168-.958-.743.024-.551.575-.479.982-.5,2.348-.024,4.72,0,7.068,0h17.731c.479,0,.982.12.935.719-.048.575-.575.527-.958.527-4.1.024-8.195.024-12.292.024Z" transform="translate(704.425 -223.795)" fill="#e9e9e9"/>
      <path id="Path_81" data-name="Path 81" d="M-662.9,336.546h-12.388c-.407-.024-.886,0-.91-.6-.024-.671.5-.647.958-.647h24.272c.551.048,1.342-.144,1.342.695,0,.791-.791.551-1.27.551C-654.9,336.57-658.9,336.546-662.9,336.546Z" transform="translate(704.044 -286.181)" fill="#e9e9e9"/>
      <path id="Path_82" data-name="Path 82" d="M-677,236.754c.072-.335-.024-.743.455-.863l.431-.144c5.487-.024,11-.048,16.485-.048h17.251c1.294,0,1.438.192,1.006,1.246-.335,0-.647-.024-.982-.024v-.216a2.154,2.154,0,0,0-1.438-.24h-30.885a2.154,2.154,0,0,0-1.438.24v.192a3.918,3.918,0,0,1-.527.048h-.24A2.221,2.221,0,0,0-677,236.754Z" transform="translate(704.65 -210.446)" fill="#29befc"/>
      <path id="Path_83" data-name="Path 83" d="M-639.224,400.127c-.312.479-.815.335-1.246.335h-31.484c-.431,0-.934.144-1.246-.311.335-.024.647-.072.982-.072h32.011A6.913,6.913,0,0,1-639.224,400.127Z" transform="translate(701.761 -335.434)" fill="#19bffd"/>
      <path id="Path_84" data-name="Path 84" d="M-673.3,240.192V240h33.76v.216a.527.527,0,0,0,.024.192q-11.753.036-23.505.048c-3.426,0-6.853-.024-10.279-.048C-673.3,240.311-673.276,240.264-673.3,240.192Z" transform="translate(701.837 -213.715)" fill="#19bffd"/>
      <path id="Path_85" data-name="Path 85" d="M-532.388,240.992a.528.528,0,0,1-.024-.192c.335,0,.647.024.982.024-.072.072-.144.168-.216.24-.24.024-.5.024-.743.048C-532.436,241.088-532.412,241.04-532.388,240.992Z" transform="translate(594.709 -214.324)" fill="#49b9f3"/>
      <path id="Path_86" data-name="Path 86" d="M-532.4,242.048c.24-.024.5-.024.743-.048A.475.475,0,0,1-532.4,242.048Z" transform="translate(594.697 -215.236)" fill="#e6f8f2"/>
      <path id="Path_87" data-name="Path 87" d="M-674.973,240.8v.192a.153.153,0,0,1,0,.144.983.983,0,0,1-.264-.024l-.264-.264A4.3,4.3,0,0,1-674.973,240.8Z" transform="translate(703.51 -214.324)" fill="#49b9f3"/>
      <path id="Path_88" data-name="Path 88" d="M-674.4,242.1a.983.983,0,0,1,.264.024C-674.232,242.124-674.3,242.1-674.4,242.1Z" transform="translate(702.673 -215.312)" fill="#e6f8f2"/>
      <path id="Path_89" data-name="Path 89" d="M-677,240.1a.973.973,0,0,1,.12.216A.973.973,0,0,0-677,240.1Z" transform="translate(704.65 -213.791)" fill="#e6f8f2"/>
      <path id="Path_90" data-name="Path 90" d="M-674.769,235.9l-.431.144C-675.032,236-674.912,235.948-674.769,235.9Z" transform="translate(703.282 -210.598)" fill="#49b9f3"/>
      <path id="Path_91" data-name="Path 91" d="M-733.019,255.414a1.156,1.156,0,0,1-.455.791c-1.15,1.174-2.324,2.324-3.5,3.5-.527.527-1.006.623-1.557,0-.575-.647-1.246-1.222-1.821-1.845-.288-.311-.527-.695-.1-1.078a.742.742,0,0,1,1.006.072.329.329,0,0,0,.1.072c.623.407.958,1.51,1.773,1.27.671-.192,1.15-1.006,1.7-1.557s1.126-1.1,1.677-1.629a.662.662,0,0,1,.791-.144A.747.747,0,0,1-733.019,255.414Z" transform="translate(753.074 -224.96)" fill="#e6f8f2"/>
      <path id="Path_92" data-name="Path 92" d="M-739.962,421.034a3.386,3.386,0,0,1,1.342,1.2c.575.671,1.006.647,1.581,0,.791-.887,1.677-1.7,2.54-2.54.335-.335.695-.671,1.174-.24.479.455.144.815-.192,1.15-1.222,1.222-2.468,2.444-3.69,3.69a.786.786,0,0,1-1.2.072c-.719-.695-1.414-1.39-2.108-2.108a.7.7,0,0,1-.144-.911A.682.682,0,0,1-739.962,421.034Z" transform="translate(753.141 -350.015)" fill="#e6f8f2"/>
      <path id="Path_93" data-name="Path 93" d="M-737.913,342.271a1.2,1.2,0,0,1-.455-.24c-.719-.695-1.39-1.414-2.085-2.109a.62.62,0,0,1-.048-.982.676.676,0,0,1,1.006.024,4.939,4.939,0,0,1,.623.6c.791,1.174,1.486.887,2.276-.024.671-.791,1.438-1.486,2.18-2.2.335-.335.743-.6,1.174-.192.407.383.168.767-.144,1.078-1.246,1.27-2.516,2.516-3.762,3.786A.967.967,0,0,1-737.913,342.271Z" transform="translate(753.104 -287.425)" fill="#e6f8f2"/>
      <path id="Path_94" data-name="Path 94" d="M-740.2,502.942a2.032,2.032,0,0,1,1.2.934c.719,1.006,1.342.91,2.085,0,.695-.815,1.486-1.533,2.252-2.276.383-.359.791-.695,1.246-.168.407.479.024.839-.288,1.15-1.174,1.174-2.348,2.324-3.5,3.5-.431.455-.887.623-1.39.144-.719-.671-1.39-1.39-2.085-2.109a.625.625,0,0,1-.168-.791A.764.764,0,0,1-740.2,502.942Z" transform="translate(753.262 -412.299)" fill="#e6f8f2"/>
      <path id="Path_95" data-name="Path 95" d="M-638.223,483.844H-671.6V483.7h33.4A.3.3,0,0,1-638.223,483.844Z" transform="translate(700.544 -399.024)" fill="#19bffd"/>
      <path id="Path_96" data-name="Path 96" d="M-638.84,403.968H-672.6V403.8h33.784C-638.816,403.848-638.84,403.92-638.84,403.968Z" transform="translate(701.305 -338.268)" fill="#19bffd"/>
      <path id="Path_97" data-name="Path 97" d="M-639.54,239.1H-673.3a2.13,2.13,0,0,1,1.438-.24h30.885A2.484,2.484,0,0,1-639.54,239.1Z" transform="translate(701.837 -212.839)" fill="#39c0fa"/>
    </g>
  </g>
</svg>
