<svg xmlns="http://www.w3.org/2000/svg" width="35.469" height="35.47" viewBox="0 0 35.469 35.47">
  <g id="Audio_Player" data-name="Audio Player" transform="translate(0 0.001)">
    <g id="Dribbble-Light-Preview" transform="translate(0 -0.001)">
      <g id="icons">
        <path id="music-_994_" data-name="music-[#994]" d="M279.469,3642.636v16.942c0,4-3.01,7.511-6.909,7.612a7.293,7.293,0,0,1-1.5-14.427,6.972,6.972,0,0,1,4.863.851v-9.158a1.8,1.8,0,0,0-1.773-1.819H259.961a1.8,1.8,0,0,0-1.773,1.819v22.4c0,4-3.01,7.509-6.909,7.612a7.294,7.294,0,0,1-1.5-14.429,6.975,6.975,0,0,1,4.863.851v-18.252a3.593,3.593,0,0,1,3.547-3.637h17.735a3.592,3.592,0,0,1,3.547,3.637" transform="translate(-244 -3638.999)" fill="#fff" fill-rule="evenodd"/>
      </g>
    </g>
  </g>
</svg>
