<svg xmlns="http://www.w3.org/2000/svg" width="29.817" height="44.999" viewBox="0 0 29.817 44.999">
  <g id="AV" transform="translate(-3167.001 -480.001)">
    <path id="Path_3235" data-name="Path 3235" d="M15.173.265A14.862,14.862,0,0,0,8.037,2.1a.994.994,0,1,0,.955,1.743A12.85,12.85,0,1,1,3.831,8.979a.994.994,0,1,0-1.743-.951A14.909,14.909,0,1,0,15.173.265ZM5.349,4.341a.993.993,0,1,0,.687.289A.994.994,0,0,0,5.349,4.341ZM11.2,8.214a.994.994,0,0,0-1,1V21.135a.994.994,0,0,0,1.468.874L22.61,16.043a.994.994,0,0,0,0-1.739L11.669,8.338a.994.994,0,0,0-.468-.124Zm.99,2.671,7.872,4.284-7.872,4.292Z" transform="translate(3166.736 479.736)" fill="#fff" fill-rule="evenodd"/>
    <text id="AV-2" data-name="AV" transform="translate(3174 522)" fill="#fff" font-size="10" font-family="Montserrat-Bold, Montserrat" font-weight="700"><tspan x="0" y="0">AV</tspan></text>
  </g>
</svg>
