<svg xmlns="http://www.w3.org/2000/svg" width="51.969" height="20.828" viewBox="0 0 51.969 20.828">
  <g id="av_reciever" transform="translate(-5 -25.344)">
    <path id="Path_3236" data-name="Path 3236" d="M54.356,25.344H7.613A2.616,2.616,0,0,0,5,27.956V38.548a2.616,2.616,0,0,0,2.613,2.613h2.87V44.8a1.371,1.371,0,0,0,1.371,1.371h7.538A1.371,1.371,0,0,0,20.761,44.8v-3.64H41.208V44.8a1.371,1.371,0,0,0,1.371,1.371h7.538A1.371,1.371,0,0,0,51.487,44.8v-3.64h2.87a2.616,2.616,0,0,0,2.613-2.613V27.956A2.616,2.616,0,0,0,54.356,25.344ZM19.02,43.431h-6.8v-2.27h6.8Zm30.725,0h-6.8v-2.27h6.8Zm5.482-4.011H6.741V27.085H55.228Z" fill="#fff"/>
    <path id="Path_3237" data-name="Path 3237" d="M16.371,37.567H30.817A1.371,1.371,0,0,0,32.188,36.2V32.714a1.371,1.371,0,0,0-1.371-1.371H16.371A1.371,1.371,0,0,0,15,32.714V36.2A1.371,1.371,0,0,0,16.371,37.567Zm.371-4.482H30.446v2.741H16.741Zm30.152,2.426h1.371a1.371,1.371,0,1,0,0-2.741H46.893a1.371,1.371,0,0,0,0,2.741Zm-6.853,0h1.371a1.371,1.371,0,1,0,0-2.741H40.04a1.371,1.371,0,1,0,0,2.741Z" transform="translate(-2.833 -2.203)" fill="#fff"/>
  </g>
</svg>
