<svg xmlns="http://www.w3.org/2000/svg" width="72.258" height="19.454" viewBox="0 0 72.258 19.454">
  <g id="cable" transform="translate(-4 -1024.36)">
    <path id="Path_3240" data-name="Path 3240" d="M5.39,1024.36A1.39,1.39,0,0,0,4,1025.75v16.675a1.39,1.39,0,0,0,1.39,1.39H69.31a1.39,1.39,0,0,0,1.39-1.39V1025.75a1.389,1.389,0,0,0-1.389-1.389Zm1.39,2.779H67.92v13.9H6.779Z" transform="translate(0)" fill="#fff"/>
    <path id="Path_3241" data-name="Path 3241" d="M7.39,1026.36A1.39,1.39,0,0,0,6,1027.75v5.558a1.431,1.431,0,0,0,1.39,1.388h13.9a1.389,1.389,0,0,0,1.379-1.194,1.423,1.423,0,0,0,.011-.194v-6.948l-1.39.028v-.028H7.39Zm1.39,2.779H19.9v2.779H8.779Z" transform="translate(3.558 3.558)" fill="#fff"/>
    <path id="Path_3242" data-name="Path 3242" d="M19.78,1029.75a1.39,1.39,0,1,1-1.39-1.39A1.39,1.39,0,0,1,19.78,1029.75Zm5.558,0a1.39,1.39,0,1,1-1.39-1.39A1.39,1.39,0,0,1,25.338,1029.75Zm5.558,0a1.39,1.39,0,1,1-1.39-1.39A1.39,1.39,0,0,1,30.9,1029.75Zm2.779-1.39h5.558v2.779H33.676v-2.779Z" transform="translate(23.131 7.117)" fill="#fff"/>
    <path id="Path_3244" data-name="Path 3244" d="M28.39,1027.364a1.39,1.39,0,0,0-1.39,1.39v5.558a1.39,1.39,0,0,0,1.39,1.39h5.558a1.39,1.39,0,0,0,1.39-1.39v-6.926h-1.39v-.028Zm1.39,2.779h2.779v2.779H29.779Z" transform="translate(40.92 5.334)" fill="#fff"/>
  </g>
</svg>
