<svg xmlns="http://www.w3.org/2000/svg" width="58.094" height="40.358" viewBox="0 0 58.094 40.358">
  <path id="camera" d="M3.311,45.593a2.819,2.819,0,0,0,2.811-2.811V40.29H29.567a2.807,2.807,0,0,0,2.811-2.811V31.538l10.963,3.074a2.569,2.569,0,0,0,.75.094,2.764,2.764,0,0,0,2.493-1.593l5.585,1.556a2.63,2.63,0,0,0,.768.112,2.918,2.918,0,0,0,1.368-.356,2.843,2.843,0,0,0,1.331-1.687l2.849-10.176a2.8,2.8,0,0,0-1.93-3.467l-5.566-1.556a2.8,2.8,0,0,0-.337-1.649,2.725,2.725,0,0,0-1.687-1.331L16.13,5.338a2.81,2.81,0,0,0-3.467,1.949L8.54,21.924A2.907,2.907,0,0,0,8.8,24.06a2.789,2.789,0,0,0,1.687,1.331l16.267,4.573v4.7H6.122V30.413a2.811,2.811,0,1,0-5.622,0V42.782A2.819,2.819,0,0,0,3.311,45.593Zm11.413-24.85L17.31,11.5l27.418,7.7-2.586,9.22Z" transform="translate(-0.5 -5.235)" fill="#fff"/>
</svg>
