<svg xmlns="http://www.w3.org/2000/svg" width="43.604" height="40.173" viewBox="0 0 43.604 40.173">
  <path id="computer" d="M41.5,4H8.022A5.022,5.022,0,0,0,3,9.022v21.76A5.022,5.022,0,0,0,8.022,35.8H19.738l-2.059,6.16a1.688,1.688,0,0,0,1.59,2.209H30.417a1.688,1.688,0,0,0,1.59-2.209L29.865,35.8H41.582A5.022,5.022,0,0,0,46.6,30.782V9.022A5.022,5.022,0,0,0,41.5,4ZM6.348,9.022A1.674,1.674,0,0,1,8.022,7.348H41.5a1.674,1.674,0,0,1,1.674,1.674V24.086H6.348Zm21.76,31.8H21.58L23.253,35.8h3.18ZM43.172,30.782A1.674,1.674,0,0,1,41.5,32.456H8.022a1.674,1.674,0,0,1-1.674-1.674V27.434H43.172Z" transform="translate(-3 -4)" fill="#f2f2f2"/>
</svg>
