<svg xmlns="http://www.w3.org/2000/svg" width="55.907" height="29.124" viewBox="0 0 55.907 29.124">
  <path id="crestron" d="M26.393.938c7.22-.129,13.5.159,17.6,3.121,1.245.9,1.794,2.77,2.838,3.689.7,7.817-3.891,11.227-10.217,12.771-4.444,1.084-10.731.076-12.487-2.554h.851c3.308,3.289,13.939,1.552,16.176-1.419.947-1.257,1.193-2.727,1.135-5.108-.489-.5-.43-1.085-.851-1.7-2-2.923-6.49-4.952-9.933-6.528C29.959,2.566,26.1,2.463,26.393.938ZM16.744,2.357c9.039-.23,23.884,3.557,23.839,11.635-3.213,3.36-4.3,4.595-11.068,4.541V18.25H29.8c1.105-.661,2.881-.112,4.257-.568,2.037-.674,2.917-2.076,4.257-3.406V12.29C29.8,3.373,15.585,6.8,3.689,9.452V8.6c2.19-2.008,4.045-3.883,7.095-5.109Zm1.135,5.108c6.8-.179,15.927-.324,17.6,4.541a2.948,2.948,0,0,1,.568,1.7c-.436.448-.818,1.354-1.135,1.7h-.568a7.017,7.017,0,0,0-.284-3.405l-3.69-2.27c-7.79-2.92-19.516,1.524-22.7,5.959-1.439,2.149-1.284,6.516-1.987,7.379-.2.161-.012.41-.568.284v-.284C2.3,22.305.058,19.515,0,15.7c.89-.915,1.237-2.35,2.27-3.121,2.124-1.586,5.241-2.585,7.946-3.689Zm32.069,0h1.135A7.02,7.02,0,0,0,53.07,8.884l2.554,3.122q.142,1.418.284,2.838c-.993,1.2-1.577,2.781-2.838,3.69-4.933,3.553-20.32,6.917-28.379,3.689-2-.91-3.266-2.438-4.825-3.973V16.83c.767-.675.55-1.42,1.986-1.7v.284a2.922,2.922,0,0,0-.284,2.838c1.637,1.116,3.222,2.48,5.392,3.122a19.274,19.274,0,0,0,9.365-.284C43.793,19.148,50.089,16.956,49.948,7.465Zm-29.8,2.554c4.877-.116,8.344.46,11.068,1.987v.568H30.65C27.686,9.683,18.6,11.3,15.892,13.141c-.961.654-1.477,2.049-2.27,2.838-.318,8.2,9.051,11.47,16.177,13.055V29.6H28.379c-1.384.9-5.335.152-6.811,0-5.6-.576-14.7-3.336-12.771-10.784.91-3.52,4.007-6.359,7.095-7.662C17.23,10.67,18.951,10.755,20.149,10.02ZM52.218,21.371v.851c-2.8,1.921-4.707,4.317-8.514,5.392-8.408,2.493-18.331-.886-23.271-3.973-2.7-1.563-5.126-2.633-5.108-7.095,1.4-1.516,2.655-3.242,4.824-3.973l3.122-.284a4.678,4.678,0,0,1,2.838.284c-4.265-.01-6.388,1.613-8.514,3.689-.006,4.644,2.887,5.018,6.243,6.244,5.2,1.9,14.712,2.531,21,.851A61.438,61.438,0,0,1,52.218,21.371Z" transform="translate(0 -0.914)" fill="#fff" fill-rule="evenodd"/>
</svg>
