<svg xmlns="http://www.w3.org/2000/svg" width="59.954" height="42.824" viewBox="0 0 59.954 42.824">
  <g id="dekstop" transform="translate(-2 -6)">
    <path id="Path_3248" data-name="Path 3248" d="M55.53,6H46.965a6.424,6.424,0,0,0-6.424,6.424H4.141A2.141,2.141,0,0,0,2,14.565V40.259A2.141,2.141,0,0,0,4.141,42.4H16.988v2.141H14.847a2.141,2.141,0,1,0,0,4.282h17.13a2.141,2.141,0,1,0,0-4.282H29.836V42.4H40.542v4.282a2.141,2.141,0,0,0,2.141,2.141h17.13a2.141,2.141,0,0,0,2.141-2.141V12.424A6.424,6.424,0,0,0,55.53,6ZM25.553,44.542H21.271V42.4h4.282ZM6.282,38.118V16.706H40.542V38.118Zm51.389,6.424H44.824V12.424a2.141,2.141,0,0,1,2.141-2.141H55.53a2.141,2.141,0,0,1,2.141,2.141Z" transform="translate(0 0)" fill="#fff"/>
    <path id="Path_3249" data-name="Path 3249" d="M46.69,28h0a2.141,2.141,0,1,0,2.141,2.141A2.141,2.141,0,0,0,46.69,28ZM28.04,13.628l-8.565,8.565a2.15,2.15,0,1,0,3.041,3.041l8.565-8.565a2.15,2.15,0,1,0-3.041-3.041Zm-9.807,0a2.141,2.141,0,0,0-3.041,0L6.628,22.192a2.15,2.15,0,1,0,3.041,3.041l8.565-8.565a2.141,2.141,0,0,0,0-3.041Z" transform="translate(4.558 7.982)" fill="#fff"/>
  </g>
</svg>
