<svg xmlns="http://www.w3.org/2000/svg" width="33.302" height="38.349" viewBox="0 0 33.302 38.349">
  <path id="disc_player" d="M-106.271,98.684h-21.395A2.515,2.515,0,0,0-130,97.43h-3.788a2.8,2.8,0,0,0-2.773,2.773V133a2.8,2.8,0,0,0,2.773,2.771H-130a2.782,2.782,0,0,0,2.312-1.265q10.707.009,21.422,0a1.514,1.514,0,0,0,3.007-.246V98.941a1.516,1.516,0,0,0-3.01-.257Zm-14.736,3.8a14.183,14.183,0,0,1,14.16,14.157,14.186,14.186,0,0,1-14.16,14.16,14.129,14.129,0,0,1-6.224-1.472V103.947A14.141,14.141,0,0,1-121.008,102.483Zm4.861,6.28a1.514,1.514,0,0,0-1.05,2.6l2.525,2.525a1.514,1.514,0,1,0,2.135-2.146l-2.513-2.525a1.514,1.514,0,0,0-1.1-.458Zm-5.139,2.558a5.288,5.288,0,0,0-5.263,5.266,5.285,5.285,0,0,0,5.263,5.263,5.285,5.285,0,0,0,5.263-5.263A5.288,5.288,0,0,0-121.286,111.321Z" transform="translate(136.563 -97.424)" fill="#fff"/>
</svg>
