<svg xmlns="http://www.w3.org/2000/svg" width="23.875" height="37" viewBox="0 0 23.875 37">
  <path id="doorbell" d="M109.416,32.936h7.844s1.11-.148,1.184-2c.148-1.628-.74-2.368-2.22-2.368H99.8a.761.761,0,0,1-.74-.814h0a.761.761,0,0,1,.74-.814h16.5s.814-.148.518-1.184h0l-2.738-9.472s-1.036-5.18-4.292-5.7a3.068,3.068,0,0,0,.222-1.184,3.479,3.479,0,0,0-6.956,0,3.068,3.068,0,0,0,.222,1.184c-2.146.3-3.33,2.664-3.848,4.292h0a1.4,1.4,0,0,0-.222.666L94.69,29.754h0a3.1,3.1,0,0,0-.074,1.184c.074,1.85,1.184,2,1.184,2h7.844v.074a2.844,2.844,0,0,0,2.738,2.812,14.074,14.074,0,0,0,4.218,5.106c0,.148-.074.222-.074.37a1.739,1.739,0,1,0,1.776-1.7,1.478,1.478,0,0,0-.666.148,10.277,10.277,0,0,1-3.774-4.218,2.843,2.843,0,0,0,1.554-2.516ZM106.53,8.59a.84.84,0,0,1,.888.814.888.888,0,1,1-1.776,0A.84.84,0,0,1,106.53,8.59Zm1.332,2h-.074v.074h-.074v.074h-.074v.074h-.074v.074h-.148v.074h-.074l-.074.074h-.148v.074H106.9a.072.072,0,0,0-.074.074h-.592a.072.072,0,0,0-.074-.074h-.222v-.074h-.148l-.074-.074h-.074v-.074h-.148V10.81h-.074v-.074h-.074v-.074h-.074v-.074H105.2a2.047,2.047,0,0,1-.37-1.184,1.7,1.7,0,1,1,3.4,0A2.047,2.047,0,0,1,107.862,10.588Zm-1.48.592h0Z" transform="translate(-94.586 -6)" fill="#fff" fill-rule="evenodd"/>
</svg>
