<svg xmlns="http://www.w3.org/2000/svg" width="51.62" height="37.116" viewBox="0 0 51.62 37.116">
  <path id="gaming_console" data-name="gaming console" d="M47.4,18.533C45.25,6.524,40.443,2.982,37.885,2.982c-3.991,0-5.015,2.967-13.508,3.067-8.493-.1-9.517-3.067-13.508-3.067-2.557,0-7.367,3.542-9.517,15.551C.127,25.388-1.2,35.621,1.967,36.85c3.947,1.528,5.285-2.294,9.619-5.524,4.4-3.274,6.511-4.044,12.791-4.044s8.391.77,12.791,4.044c4.334,3.228,5.673,7.052,9.619,5.524C49.96,35.621,48.629,25.39,47.4,18.533ZM14.626,20.09A4.876,4.876,0,1,1,19.5,15.215,4.876,4.876,0,0,1,14.626,20.09Zm17.064,0a2.438,2.438,0,1,1,2.438-2.438A2.438,2.438,0,0,1,31.691,20.09Zm4.876-4.876A2.438,2.438,0,1,1,39,12.777,2.438,2.438,0,0,1,36.566,15.215Z" transform="translate(1.432 -1.482)" fill="none" stroke="#fff" stroke-width="3" fill-rule="evenodd"/>
</svg>
