<svg xmlns="http://www.w3.org/2000/svg" width="40.83" height="40.33" viewBox="0 0 40.83 40.33">
  <path id="gateway" d="M22.338,30.854v4.452h6.809c.664.234,1.02,1.467,1.572,1.571,1.45.647,6.257-.053,7.856.262v.524a2.266,2.266,0,0,1,.262,1.309c-.034.244-.348.46-.523.786-1.426.17-6.548-.3-7.857.262-.428.185-.707,1.126-1.309,1.309H12.125c-.532-.186-.88-1.121-1.31-1.309-2.367-.932-6.045.842-7.856-.524-.211-.268-.093-.072-.262-.524-.4-.615-.153-1.121,0-1.833h.523c1.882-1.2,5.495.488,7.595-.523.429-.186.778-1.126,1.31-1.309h6.809V30.854c-3.591.055-14.354.859-16.5-.524C-.926,28.161.34,15.876.34,10.165A36.3,36.3,0,0,1,.6,3.618C1.174,2.3,2.515,1.912,3.483,1H28.362c2.053,0,8.166,0,9.428.262,1.873.494,2.037,1.7,3.143,2.88V22.473c0,3.886.234,6.852-2.619,7.857C36.6,31.63,25.572,30.885,22.338,30.854ZM5.578,3.356c-.792.621-2.135.941-2.619,1.833C2.342,6.326,2.7,8.844,2.7,10.427c0,4.411-1.231,13.676,1.571,15.451,1.3.824,4,.524,6.024.524H23.91c4.678,0,12.223,1.249,14.141-1.833.819-1.071.524-3.465.524-5.5,0-4.558.247-9.751-.262-13.88-.937-.706-.917-1.4-2.619-1.571-1.527-.975-6.2-.262-8.38-.262Zm6.547,11h4.19a9.745,9.745,0,0,1,.262,3.928c-1.081.574-2.912.556-4.714.524v2.357h-.785C9.8,19.327,6.7,18.572,5.84,16.45,7.763,15.178,9.351,12.507,11.863,12A6.379,6.379,0,0,1,12.125,14.355Zm17.022,4.452a13.375,13.375,0,0,1-4.452-.262V14.617a16.159,16.159,0,0,1,4.452-.262v-2.1A3.7,3.7,0,0,1,30.195,12c1.405,1.78,4.43,2.7,5.238,4.975H35.17l-5.238,4.19h-.524V20.64A3.468,3.468,0,0,1,29.147,18.807ZM37,27.187c-.17.329-.285.707-.523.786.165.46.05.255.262.524.429.584.448,1.021,1.048.524.848-.334.69-.23.786-1.31A2.742,2.742,0,0,0,37,27.187Z" transform="translate(-0.107 -0.999)" fill="#fff" fill-rule="evenodd"/>
</svg>
