<svg xmlns="http://www.w3.org/2000/svg" width="51.624" height="37.545" viewBox="0 0 51.624 37.545">
  <path id="Generic" d="M5.693,11.04A2.353,2.353,0,0,1,8.04,8.693H45.585a2.347,2.347,0,0,0,0-4.693H5.693A4.707,4.707,0,0,0,1,8.693V36.852a4.707,4.707,0,0,0,4.693,4.693h7.04a2.347,2.347,0,0,0,0-4.693H8.04a2.353,2.353,0,0,1-2.347-2.347ZM26.812,22.772H22.119a2.353,2.353,0,0,0-2.347,2.347v1.83a6.956,6.956,0,0,0,0,10.419V39.2a2.353,2.353,0,0,0,2.347,2.347h4.693A2.353,2.353,0,0,0,29.159,39.2v-1.83a6.956,6.956,0,0,0,0-10.419v-1.83A2.353,2.353,0,0,0,26.812,22.772ZM24.466,35.679a3.52,3.52,0,1,1,3.52-3.52A3.515,3.515,0,0,1,24.466,35.679ZM50.278,13.386H36.2a2.523,2.523,0,0,0-2.347,2.347V39.2A2.523,2.523,0,0,0,36.2,41.545H50.278A2.523,2.523,0,0,0,52.624,39.2V15.733A2.523,2.523,0,0,0,50.278,13.386ZM47.931,36.852H38.545V18.079h9.386Z" transform="translate(-1 -4)" fill="#fff"/>
</svg>
