<svg xmlns="http://www.w3.org/2000/svg" width="46.332" height="44.268" viewBox="0 0 46.332 44.268">
  <g id="heat_and_cold" data-name="heat and cold" transform="translate(-3164.268 -572.164)">
    <g id="Group_3552" data-name="Group 3552" transform="translate(3164.268 591.358)">
      <path id="Path_3251" data-name="Path 3251" d="M7.074,24.607S1,23.984,1,15.73A13.675,13.675,0,0,1,5.828,5.607,17.085,17.085,0,0,0,9.41,8.566C10.967,9.5,11.59,0,11.59,0S22.8,6.074,22.8,15.262c0,9.5-6.23,9.189-6.23,9.189a15.276,15.276,0,0,0,2.8-8.1c0-4.672-6.074-10.435-6.074-10.435s-.779,6.853-3.271,7.787a12.184,12.184,0,0,1-3.893-3.582s-5.762,9.033.934,14.484Z" transform="translate(-1)" fill="#fff"/>
      <path id="Path_3252" data-name="Path 3252" d="M10.262,19.723C7.148,19.567,4.5,17.543,4.5,14.739A6.376,6.376,0,0,1,5.59,10.69,8.72,8.72,0,0,0,7.3,13.026c.934.779,2.8,1.246,3.738.156.934-.934,1.246-3.582,1.246-3.582a5.5,5.5,0,0,1,1.869,4.672C14,17.387,12.754,19.723,10.262,19.723Z" transform="translate(0.951 5.351)" fill="#fff"/>
    </g>
    <path id="Path_3253" data-name="Path 3253" d="M23.072,17.667l-2.2-1.267.98-.264a1.1,1.1,0,1,0-.573-2.126l-3.106.837-2.985-1.729,2.985-1.729,3.106.837h.286a1.111,1.111,0,0,0,.286-2.2l-.98-.209,2.2-1.267a1.105,1.105,0,0,0-1.1-1.917L19.591,8.017l.33-1.223A1.1,1.1,0,1,0,17.8,6.221l-.9,3.3-2.809,1.685V7.764l2.28-2.28A1.1,1.1,0,1,0,14.8,3.93l-.716.716V2.1a1.1,1.1,0,0,0-2.2,0V4.822l-.892-.892A1.1,1.1,0,1,0,9.423,5.483L11.88,7.94v3.3L9.049,9.57l-.9-3.3a1.1,1.1,0,1,0-2.126.573l.353,1.179L3.993,6.651a1.105,1.105,0,0,0-1.1,1.917l2.2,1.245-.925.286a1.111,1.111,0,0,0,.286,2.2h.286l3.106-.837,2.93,1.652L7.793,14.847,4.687,14.01a1.1,1.1,0,1,0-.518,2.126l.98.264-2.2,1.267a1.105,1.105,0,0,0,1.1,1.917l2.324-1.366-.33,1.223a1.1,1.1,0,0,0,.76,1.388,1.267,1.267,0,0,0,.286,0,1.1,1.1,0,0,0,1.1-.815l.9-3.3,2.787-1.685v3.448L9.6,20.751A1.1,1.1,0,1,0,11.164,22.3l.716-.716v2.545a1.1,1.1,0,1,0,2.2,0V21.412l.892.892a1.1,1.1,0,1,0,1.564-1.553l-2.457-2.456v-3.3l2.831,1.641.9,3.3a1.1,1.1,0,0,0,1.1.815,1.267,1.267,0,0,0,.286,0,1.1,1.1,0,0,0,.782-1.355l-.4-1.179,2.357,1.366a1.105,1.105,0,0,0,1.1-1.917Z" transform="translate(3186.973 571.164)" fill="#fff"/>
  </g>
</svg>
