<svg xmlns="http://www.w3.org/2000/svg" width="53.324" height="42.434" viewBox="0 0 53.324 42.434">
  <path id="Home_automation" data-name="Home automation" d="M-17191.406,20812.43h-33.869a2.03,2.03,0,0,1-1.484-.623,2.039,2.039,0,0,1-.633-1.49v-15.879a.487.487,0,0,1,.016-.078l0-.018a.1.1,0,0,1,.008-.021.071.071,0,0,1,.006-.029l0-.014a.267.267,0,0,0,0-.037l19.014-15.676,19.02,15.676a.436.436,0,0,1,.031.2v15.879a2.061,2.061,0,0,1-.625,1.49A2.07,2.07,0,0,1-17191.406,20812.43Zm-17.844-24.559a7.824,7.824,0,0,0-5.574,2.355,7.831,7.831,0,0,0-2.357,5.574,8.085,8.085,0,0,0,2.357,5.693,6.613,6.613,0,0,0,.938.748l.01.006c.209.146.426.3.664.488l7.682,4.09a4.806,4.806,0,0,0,2.848.865,5.128,5.128,0,0,0,3.84-1.611,5.235,5.235,0,0,0,.865-6.439l-4.336-7.93c-.123-.15-.225-.287-.322-.414l-.01-.014-.031-.039a9.408,9.408,0,0,0-.873-1.018A8.335,8.335,0,0,0-17209.25,20787.871Zm6.688,18.457a3.791,3.791,0,0,1-2.23-.617l-7.8-4.217a6.338,6.338,0,0,1-1.363-.986,6.536,6.536,0,0,1-1.98-4.707,6.8,6.8,0,0,1,1.98-4.709,6.8,6.8,0,0,1,4.709-1.98,7.544,7.544,0,0,1,4.834,1.854,8.257,8.257,0,0,1,.764.941l.012.02c.068.09.137.184.211.281l4.338,7.932a3.953,3.953,0,0,1-.619,4.949A3.578,3.578,0,0,1-17202.562,20806.328Zm.248-6.014a2.479,2.479,0,0,0-2.471,2.422,2.445,2.445,0,0,0,1.221,2.191,2.435,2.435,0,0,0,1.25.344,2.482,2.482,0,0,0,1.26-.344,2.473,2.473,0,0,0,1.217-2.191A2.486,2.486,0,0,0-17202.314,20800.314Zm-8.668-.795v0a1.332,1.332,0,0,1,.158.084l.02.012.008,0a.791.791,0,0,0,.432.143l.617,1.732h1.242l.617-1.732a2.161,2.161,0,0,1,.289-.113l.021-.008a2.716,2.716,0,0,0,.307-.121l1.611.738.867-.865-.738-1.613c.021-.045.043-.082.064-.121.012-.021.023-.043.035-.062a.793.793,0,0,0,.148-.434l1.732-.617v-1.24l-1.732-.619a1.822,1.822,0,0,1-.125-.309l0-.01-.01-.021a1.947,1.947,0,0,0-.111-.277l.738-1.611-.867-.867-1.611.738a2.211,2.211,0,0,0-.277-.111l-.021-.01-.01,0a1.822,1.822,0,0,1-.309-.125l-.617-1.73h-1.242l-.617,1.73a1.822,1.822,0,0,1-.309.125l-.01,0-.021.01a2.211,2.211,0,0,0-.277.111l-1.613-.738-.865.867.738,1.611a2.716,2.716,0,0,0-.121.307l-.008.021a2.161,2.161,0,0,1-.113.289l-1.74.619v1.24l1.74.617a2.307,2.307,0,0,1,.121.311,2.205,2.205,0,0,0,.121.307l-.738,1.613.865.865,1.613-.736Zm1.857-1.74a1.908,1.908,0,0,1-1.857-1.857,1.906,1.906,0,0,1,1.857-1.854,1.9,1.9,0,0,1,1.854,1.854A1.906,1.906,0,0,1-17209.125,20797.779Zm-22.8-2.809c-.033,0-.066,0-.1,0a1.091,1.091,0,0,1-.7-.357l-2.051-2.453a1.052,1.052,0,0,1-.229-.775.919.919,0,0,1,.363-.709l23.783-19.814a3.871,3.871,0,0,1,2.51-.861,3.91,3.91,0,0,1,2.516.861l8.068,6.752v-6.453a1.026,1.026,0,0,1,.3-.758,1.021,1.021,0,0,1,.758-.3h6.35a1.009,1.009,0,0,1,.766.3,1.023,1.023,0,0,1,.293.758v13.49l7.248,6.025a.954.954,0,0,1,.361.709,1.057,1.057,0,0,1-.229.775l-2.057,2.453a1.085,1.085,0,0,1-.687.357h-.1a1.034,1.034,0,0,1-.693-.229l-22.891-19.086-22.885,19.086A1.255,1.255,0,0,1-17231.922,20794.971Z" transform="translate(17235 -20769.996)" fill="#fff"/>
</svg>
