<svg xmlns="http://www.w3.org/2000/svg" width="36.449" height="40.399" viewBox="0 0 36.449 40.399">
  <g id="light" transform="translate(-50.188 0)">
    <path id="Path_3258" data-name="Path 3258" d="M54.8,12.712c-1.1-.016-2.206-.016-3.305,0a1.294,1.294,0,0,0-.574.154,1.361,1.361,0,0,0,.485,2.562c.436.04.873.048,1.309.048s.857-.016,1.277-.024c.267-.008.533-.016.808-.016a1.326,1.326,0,0,0,.978-.461,1.286,1.286,0,0,0,.259-.444A1.377,1.377,0,0,0,54.8,12.712Zm12.041-8.1a1.4,1.4,0,0,0,.145.574L67,5.2a1.361,1.361,0,0,0,1.2.711,1.4,1.4,0,0,0,.259-.024,1.364,1.364,0,0,0,1.1-1.172V4.7a20.888,20.888,0,0,0,0-3.483A1.371,1.371,0,0,0,68.241,0h-.1a1.381,1.381,0,0,0-1.18.776,1.34,1.34,0,0,0-.121.444A22.92,22.92,0,0,0,66.819,3.8Zm-10.8,1.148a20.2,20.2,0,0,0,1.738,1.786c.218.2.444.412.663.622a1.406,1.406,0,0,0,.541.315,1.237,1.237,0,0,0,.38.057,1.328,1.328,0,0,0,.735-.218,1.356,1.356,0,0,0,.614-.946V7.37a1.4,1.4,0,0,0-.283-1.018l-.008-.008a22.246,22.246,0,0,0-2.255-2.279l-.17-.162L57.986,3.9a1.383,1.383,0,0,0-.849-.339h-.008a1.375,1.375,0,0,0-1.245.752,1.4,1.4,0,0,0,.154,1.455ZM79.862,3.71a1.427,1.427,0,0,0-.6-.154,1.392,1.392,0,0,0-.315.032,1.5,1.5,0,0,0-.55.259l-.008.008a19.476,19.476,0,0,0-1.8,1.754c-.2.21-.4.428-.614.647a1.357,1.357,0,0,0,.994,2.287,1.344,1.344,0,0,0,.84-.291,18.568,18.568,0,0,0,1.8-1.762c.194-.21.4-.428.606-.638a1.391,1.391,0,0,0,.291-.469,1.351,1.351,0,0,0-.647-1.673Zm-5.528,6.659A11.666,11.666,0,0,0,72,9.2a11.233,11.233,0,0,0-3.5-.663c-.3-.008-.3-.008-.606,0a11.02,11.02,0,0,0-4.041.873,11.543,11.543,0,0,0-2.95,1.81,12.09,12.09,0,0,0-1.81,1.883,12.759,12.759,0,0,0-2.222,4.5,13.308,13.308,0,0,0,.048,6.942,12.768,12.768,0,0,0,2.643,4.905l.113.121c.1.113.137.154.3.323l.226.226a7.482,7.482,0,0,1,.606.647,4.042,4.042,0,0,1,.832,2.3c.008.2,0,.4,0,.606V33.8c-.566.016-1.18.04-1.859.065h-.016a1.4,1.4,0,0,0-.905.453,1.352,1.352,0,0,0-.315,1.107,1.376,1.376,0,0,0,.638.962l.008.008a1.49,1.49,0,0,0,.582.186h.016c1.43.057,2.885.1,4.307.121a4.132,4.132,0,0,0,4.113,3.7,4.036,4.036,0,0,0,.622-.048,4.181,4.181,0,0,0,3.1-2.3,4.367,4.367,0,0,0,.388-1.358c1.39-.024,2.837-.065,4.307-.121h.016a1.435,1.435,0,0,0,.913-.453,1.352,1.352,0,0,0,.315-1.107,1.376,1.376,0,0,0-.638-.962,1.452,1.452,0,0,0-.582-.186h-.024c-.622-.024-1.236-.04-1.843-.065,0-.234.008-.469.008-.7a4.179,4.179,0,0,1,.776-2.287c.1-.121.178-.226.259-.315.121-.129.251-.251.372-.38s.242-.242.364-.372a12.484,12.484,0,0,0,.986-1.2,12.829,12.829,0,0,0,2.311-5.9,13.466,13.466,0,0,0-.412-5.358,12.51,12.51,0,0,0-5.108-6.934ZM69.154,37.32a1.432,1.432,0,0,1-1.907,0,1.547,1.547,0,0,1-.38-.582q1.333.012,2.667,0A1.487,1.487,0,0,1,69.154,37.32Zm7.888-14.207a10.076,10.076,0,0,1-2.3,4.631c-.162.178-.162.178-.331.356l-.048.048a9.842,9.842,0,0,0-.986,1.091,6.814,6.814,0,0,0-1.3,3.814l-.008.7c-1.277-.024-2.57-.032-3.855-.032s-2.57.008-3.847.032v-.6a7.744,7.744,0,0,0-.129-1.212A6.91,6.91,0,0,0,62.5,28.6l-.291-.291c-.1-.089-.194-.186-.283-.283a9.985,9.985,0,0,1-2.513-4.687,10.537,10.537,0,0,1-.024-4.55,9.941,9.941,0,0,1,1.592-3.645,9.3,9.3,0,0,1,2.57-2.489,8.707,8.707,0,0,1,2.853-1.2,8.356,8.356,0,0,1,4.889.388,8.892,8.892,0,0,1,3.128,2.085,9.977,9.977,0,0,1,2.554,4.631,10.925,10.925,0,0,1,.065,4.55Zm9.269-9.94a1.305,1.305,0,0,0-.978-.469c-1.091-.016-2.2-.016-3.305,0a1.294,1.294,0,0,0-.574.154,1.361,1.361,0,0,0,.485,2.562c.436.04.873.048,1.309.048s.857-.016,1.277-.024c.267-.008.533-.016.808-.016h.008a1.342,1.342,0,0,0,1.18-.824,1.361,1.361,0,0,0-.21-1.43Z" fill="#fff"/>
    <path id="Path_3259" data-name="Path 3259" d="M355.791,431.942l-2,2.942L351.4,431.95a1.3,1.3,0,0,0-1-.477,1.279,1.279,0,0,0-1,.485l-2.667,3.313a1.293,1.293,0,1,0,2.012,1.624l1.665-2.069,2.465,3.039a1.272,1.272,0,0,0,1,.477h.057a1.3,1.3,0,0,0,1.018-.566l2.966-4.348Z" transform="translate(-283.77 -412.716)" fill="#fff"/>
  </g>
</svg>
