<svg id="mic" xmlns="http://www.w3.org/2000/svg" width="54.961" height="54.961" viewBox="0 0 54.961 54.961">
  <path id="Path_3262" data-name="Path 3262" d="M26.03,31.48a6.856,6.856,0,0,0,6.847-6.87L32.9,10.87a6.87,6.87,0,0,0-13.74,0V24.61A6.876,6.876,0,0,0,26.03,31.48Zm12.137-6.87c0,6.87-5.805,11.679-12.137,11.679S13.893,31.48,13.893,24.61H10C10,32.431,16.229,38.889,23.74,40v7.511h4.58V40c7.511-1.111,13.74-7.569,13.74-15.389Z" transform="translate(1.45 0.58)" fill="#fff"/>
  <path id="Path_3263" data-name="Path 3263" d="M0,0H54.961V54.961H0Z" fill="none"/>
</svg>
