<svg xmlns="http://www.w3.org/2000/svg" width="51.797" height="37.984" viewBox="0 0 51.797 37.984">
  <g id="router" transform="translate(-1 -5)">
    <path id="Path_3277" data-name="Path 3277" d="M47.617,22.266H45.891V18.813a3.453,3.453,0,0,0-3.453-3.453V6.727a1.727,1.727,0,0,0-3.453,0v8.633a3.453,3.453,0,0,0-3.453,3.453v3.453H18.266V18.813a3.453,3.453,0,0,0-3.453-3.453V6.727a1.727,1.727,0,0,0-3.453,0v8.633a3.453,3.453,0,0,0-3.453,3.453v3.453H6.18A5.18,5.18,0,0,0,1,27.445V37.8a5.18,5.18,0,0,0,5.18,5.18H47.617A5.18,5.18,0,0,0,52.8,37.8V27.445a5.18,5.18,0,0,0-5.18-5.18Zm-8.633-3.453h3.453v3.453H38.984Zm-27.625,0h3.453v3.453H11.359ZM49.344,37.8a1.727,1.727,0,0,1-1.727,1.727H6.18A1.727,1.727,0,0,1,4.453,37.8V27.445A1.727,1.727,0,0,1,6.18,25.719H47.617a1.727,1.727,0,0,1,1.727,1.727Z" fill="#fff"/>
    <path id="Path_3278" data-name="Path 3278" d="M39.531,18H8.453A3.453,3.453,0,0,0,5,21.453v3.453a3.453,3.453,0,0,0,3.453,3.453H39.531a3.453,3.453,0,0,0,3.453-3.453V21.453A3.453,3.453,0,0,0,39.531,18Zm0,6.906H8.453V21.453H39.531Z" transform="translate(2.906 9.445)" fill="#fff"/>
  </g>
</svg>
