<svg xmlns="http://www.w3.org/2000/svg" width="34.886" height="43.607" viewBox="0 0 34.886 43.607">
  <path id="notebook" d="M39.615,4H11.271A3.271,3.271,0,0,0,8,7.271V44.337a3.271,3.271,0,0,0,3.271,3.271H39.615a3.271,3.271,0,0,0,3.271-3.271V7.271A3.271,3.271,0,0,0,39.615,4Zm1.09,40.337a1.09,1.09,0,0,1-1.09,1.09H11.271a1.09,1.09,0,0,1-1.09-1.09V39.976h2.18V37.8H10.18V31.255h2.18v-2.18H10.18V22.533h2.18v-2.18H10.18V13.812h2.18v-2.18H10.18V7.271a1.09,1.09,0,0,1,1.09-1.09H39.615a1.09,1.09,0,0,1,1.09,1.09ZM36.345,12.721v6.541a1.09,1.09,0,0,1-1.09,1.09H17.812a1.09,1.09,0,0,1-1.09-1.09V12.721a1.09,1.09,0,0,1,1.09-1.09h3.271a1.09,1.09,0,0,1,0,2.18H18.9v4.361H34.164V13.812H25.443a1.09,1.09,0,0,1,0-2.18h9.812A1.09,1.09,0,0,1,36.345,12.721Zm0,13.082a1.09,1.09,0,0,1-1.09,1.09H17.812a1.09,1.09,0,0,1,0-2.18H35.255A1.09,1.09,0,0,1,36.345,25.8Zm-5.451,6.541a1.09,1.09,0,0,1-1.09,1.09H17.812a1.09,1.09,0,0,1,0-2.18H29.8A1.09,1.09,0,0,1,30.894,32.345Z" transform="translate(-8 -4)" fill="#fff"/>
</svg>
