<svg xmlns="http://www.w3.org/2000/svg" width="64" height="36.42" viewBox="0 0 64 36.42">
  <g id="projector" transform="translate(-3 -16.79)">
    <path id="Path_3274" data-name="Path 3274" d="M62.76,26.93c-1.5-.09-3-.18-4.5-.25a14.37,14.37,0,0,0-27.1-.59c-7.93.07-16,.35-23.92.84A4.54,4.54,0,0,0,3,31.46v13A4.54,4.54,0,0,0,7.24,49h.59v2.45a1.69,1.69,0,0,0,1.69,1.69h7.77A1.69,1.69,0,0,0,19,51.52V49.6c10.64.39,21.4.39,32,0v1.92a1.7,1.7,0,0,0,1.7,1.69h7.77a1.69,1.69,0,0,0,1.69-1.69V49.07h.59A4.54,4.54,0,0,0,67,44.51v-13a4.54,4.54,0,0,0-4.24-4.58ZM44.6,18.79a12.39,12.39,0,1,1-12.39,12.4A12.39,12.39,0,0,1,44.6,18.79ZM9.83,51.21v-2l7.15.35v1.69Zm43.18,0V49.52l7.16-.35v2Zm12-6.7A2.53,2.53,0,0,1,62.64,47l-1.51.08h0L52,47.57h0c-11.29.43-22.71.43-34,0h0l-9.16-.45h0L7.37,47A2.53,2.53,0,0,1,5,44.51v-13a2.53,2.53,0,0,1,2.37-2.53c7.69-.48,15.49-.75,23.18-.83a14.2,14.2,0,0,0-.34,3.09,14.39,14.39,0,1,0,28.55-2.48l3.87.22A2.53,2.53,0,0,1,65,31.46Z" fill="#fff"/>
    <path id="Path_3275" data-name="Path 3275" d="M44.6,41a9.82,9.82,0,1,0-9.81-9.82A9.82,9.82,0,0,0,44.6,41Zm0-17.64a7.82,7.82,0,1,1-7.81,7.82A7.82,7.82,0,0,1,44.6,23.36Z" fill="#fff"/>
    <path id="Path_3276" data-name="Path 3276" d="M40.21,32.18a1,1,0,0,0,1-1,3.39,3.39,0,0,1,3.39-3.39,1,1,0,1,0,0-2,5.4,5.4,0,0,0-5.39,5.39A1,1,0,0,0,40.21,32.18Zm-28.92-.91a2.63,2.63,0,0,0-2.62,2.62V36.6a2.62,2.62,0,0,0,5.24,0V33.89A2.63,2.63,0,0,0,11.29,31.27Zm.62,5.33a.62.62,0,0,1-1.24,0V33.89a.62.62,0,0,1,1.24,0Zm6.2-5.33a2.62,2.62,0,0,0-2.62,2.62V36.6a2.62,2.62,0,1,0,5.23,0V33.89a2.62,2.62,0,0,0-2.61-2.62Zm.61,5.33a.61.61,0,0,1-.61.62.62.62,0,0,1-.62-.62V33.89a.62.62,0,0,1,.62-.62.61.61,0,0,1,.61.62Z" fill="#fff"/>
  </g>
</svg>
