<svg xmlns="http://www.w3.org/2000/svg" width="34.321" height="38.211" viewBox="0 0 34.321 38.211">
  <g id="security" transform="translate(-82.9 -34.078)">
    <path id="Path_3279" data-name="Path 3279" d="M100.868,72.066q2.028-1.29,4.059-2.575c.612-.388,1.232-.772,1.828-1.188a24.153,24.153,0,0,0,9.158-12.089,25.081,25.081,0,0,0,1.308-8.222V42.669a1.639,1.639,0,0,0-1.176-1.544,14.905,14.905,0,0,1-1.44-.5c.128.052.256.108.384.16a10.777,10.777,0,0,1-2.339-1.364l.324.252a10.7,10.7,0,0,1-1.9-1.9l.252.324a10.82,10.82,0,0,1-1.368-2.343c.052.128.108.256.16.384-.12-.288-.232-.584-.328-.88a1.643,1.643,0,0,0-1.544-1.176H93.89c-.66,0-1.324-.02-1.984,0h-.028a1.639,1.639,0,0,0-1.544,1.176c-.1.3-.2.592-.328.88.052-.128.108-.256.16-.384A10.916,10.916,0,0,1,88.8,38.1l.252-.324a10.7,10.7,0,0,1-1.9,1.9l.324-.252a10.873,10.873,0,0,1-2.339,1.364c.128-.052.256-.108.384-.16-.472.2-.952.348-1.44.5A1.639,1.639,0,0,0,82.9,42.669v4.823c0,.848,0,1.7.06,2.543a24.823,24.823,0,0,0,.9,5.1,24.565,24.565,0,0,0,4.831,8.95,25.841,25.841,0,0,0,6.023,5.1L99.144,72l.112.072a1.611,1.611,0,0,0,2.188-.576,1.634,1.634,0,0,0-.576-2.188q-1.08-.684-2.156-1.368l-2.755-1.748q-.966-.612-1.88-1.308l.324.252a22.759,22.759,0,0,1-4.043-4.043l.252.324a23,23,0,0,1-2.947-5.043c.052.128.108.256.16.384a22.7,22.7,0,0,1-1.58-5.787c.02.14.04.284.056.424a29.463,29.463,0,0,1-.2-3.891V42.685c-.392.516-.784,1.028-1.176,1.544a12.977,12.977,0,0,0,3.887-1.812,12.092,12.092,0,0,0,4.611-6.287c-.516.392-1.028.784-1.544,1.176h14.353c.66,0,1.324.016,1.984,0h.028c-.516-.392-1.028-.784-1.544-1.176a12.164,12.164,0,0,0,6.275,7.262,16.16,16.16,0,0,0,2.224.836c-.392-.516-.784-1.028-1.176-1.544v5.671a23.418,23.418,0,0,1-.2,3.039c.02-.14.04-.284.056-.424a23.078,23.078,0,0,1-1.58,5.787c.052-.128.108-.256.16-.384a23,23,0,0,1-2.947,5.043l.252-.324a22.76,22.76,0,0,1-4.043,4.043l.324-.252c-.9.692-1.848,1.288-2.8,1.9q-1.584,1.008-3.167,2.012l-.82.52a1.677,1.677,0,0,0-.736.956,1.653,1.653,0,0,0,.16,1.232A1.623,1.623,0,0,0,100.868,72.066Z" fill="#fff"/>
    <path id="Path_3280" data-name="Path 3280" d="M297.216,332.835l4.107,4.107.584.584a1.625,1.625,0,0,0,2.263,0l3.171-3.171,5.019-5.019,1.156-1.156a1.6,1.6,0,0,0-2.263-2.264l-3.171,3.171-5.019,5.019-1.156,1.156h2.263l-4.107-4.107-.584-.584a1.6,1.6,0,0,0-2.264,2.263Z" transform="translate(-205.306 -279.728)" fill="#fff"/>
  </g>
</svg>
