<svg xmlns="http://www.w3.org/2000/svg" width="43.603" height="47.963" viewBox="0 0 43.603 47.963">
  <path id="server" d="M21.621,27.162a2.18,2.18,0,1,0,2.18,2.18A2.18,2.18,0,0,0,21.621,27.162Zm-8.721,0a2.18,2.18,0,1,0,2.18,2.18A2.18,2.18,0,0,0,12.9,27.162ZM45.6,7.54A6.54,6.54,0,0,0,39.062,1H8.54A6.54,6.54,0,0,0,2,7.54v8.721a6.54,6.54,0,0,0,1.7,4.36A6.54,6.54,0,0,0,2,24.981V33.7a6.54,6.54,0,0,0,6.54,6.54H21.621V44.6H4.18a2.18,2.18,0,0,0,0,4.36H43.422a2.18,2.18,0,0,0,0-4.36H25.981v-4.36H39.062A6.54,6.54,0,0,0,45.6,33.7V24.981a6.54,6.54,0,0,0-1.7-4.36,6.54,6.54,0,0,0,1.7-4.36ZM41.242,33.7a2.18,2.18,0,0,1-2.18,2.18H8.54A2.18,2.18,0,0,1,6.36,33.7V24.981A2.18,2.18,0,0,1,8.54,22.8H39.062a2.18,2.18,0,0,1,2.18,2.18Zm0-17.441a2.18,2.18,0,0,1-2.18,2.18H8.54a2.18,2.18,0,0,1-2.18-2.18V7.54A2.18,2.18,0,0,1,8.54,5.36H39.062a2.18,2.18,0,0,1,2.18,2.18ZM21.621,9.721A2.18,2.18,0,1,0,23.8,11.9,2.18,2.18,0,0,0,21.621,9.721Zm-8.721,0a2.18,2.18,0,1,0,2.18,2.18A2.18,2.18,0,0,0,12.9,9.721Z" transform="translate(-2 -1)" fill="#fff"/>
</svg>
