<svg xmlns="http://www.w3.org/2000/svg" width="43.173" height="47.963" viewBox="0 0 43.173 47.963">
  <g id="switch_horizontal" data-name="switch horizontal" transform="translate(-2.994 -1.996)">
    <path id="Path_3228" data-name="Path 3228" d="M13.291,25.28a2.407,2.407,0,1,0,3.4-3.4l-5.513-5.489H43.757a2.4,2.4,0,1,0,0-4.794H11.182L16.695,6.1a2.407,2.407,0,0,0-3.4-3.4L3.7,12.289a2.4,2.4,0,0,0,0,3.4Zm22.579,1.39a2.407,2.407,0,1,0-3.4,3.4l5.513,5.489H5.405a2.4,2.4,0,0,0,0,4.794H37.98l-5.513,5.489a2.407,2.407,0,1,0,3.4,3.4l9.588-9.588a2.4,2.4,0,0,0,0-3.4Z" transform="translate(0 0)" fill="#fff"/>
  </g>
</svg>
