<svg xmlns="http://www.w3.org/2000/svg" width="21.497" height="43" viewBox="0 0 21.497 43">
  <path id="thermostat" d="M21.89,25.432V8.142a6.142,6.142,0,1,0-12.283,0v17.29a10.748,10.748,0,1,0,12.283,0ZM15.748,41.92A7.677,7.677,0,0,1,11.91,27.606a1.535,1.535,0,0,0,.768-1.331V23.5h1.535a1.535,1.535,0,1,0,0-3.071H12.677V17.354h1.535a1.535,1.535,0,0,0,0-3.071H12.677V11.212h1.535a1.535,1.535,0,0,0,0-3.071H12.677a3.071,3.071,0,1,1,6.142,0V26.275a1.535,1.535,0,0,0,.768,1.331A7.677,7.677,0,0,1,15.748,41.92Zm0-12.283a4.606,4.606,0,1,0,4.606,4.606A4.606,4.606,0,0,0,15.748,29.637Zm0,6.142a1.535,1.535,0,1,1,1.535-1.535A1.535,1.535,0,0,1,15.748,35.779Z" transform="translate(-5 -2)" fill="#fff"/>
</svg>
