<svg xmlns="http://www.w3.org/2000/svg" width="53" height="40" viewBox="0 0 53 40">
  <g id="touch_panel" data-name="touch panel" transform="translate(-2903 -456.418)">
    <path id="Path_3230" data-name="Path 3230" d="M14.81,5A7.93,7.93,0,0,0,8.043,16.909l1.263-.722a6.5,6.5,0,1,1,11.368-.18l1.263.677A7.95,7.95,0,0,0,14.81,5Zm.135,2.887a5.089,5.089,0,0,0-4.33,7.669l1.263-.767a3.568,3.568,0,0,1,.722-4.6,3.61,3.61,0,0,1,5.413,4.646l1.263.722a5.032,5.032,0,0,0-1.037-6.451A5.1,5.1,0,0,0,14.945,7.887Zm0,2.887A2.176,2.176,0,0,0,12.78,12.94v5.052H12.1a2.189,2.189,0,0,0-2.165,2.165l-.045,1.534a6.5,6.5,0,0,0,12.991.045V17.992H17.11V12.94A2.176,2.176,0,0,0,14.945,10.774Zm0,1.443a.7.7,0,0,1,.722.722v6.5h5.774v2.3a5.054,5.054,0,0,1-10.1-.045l.045-1.534a.7.7,0,0,1,.722-.722h.677v2.887h1.443V12.94A.7.7,0,0,1,14.945,12.218Z" transform="translate(2914.564 459.548)" fill="#fff"/>
    <g id="Rectangle_3131" data-name="Rectangle 3131" transform="translate(2903 456.418)" fill="none" stroke="#fff" stroke-width="3">
      <rect width="53" height="40" rx="5" stroke="none"/>
      <rect x="1.5" y="1.5" width="50" height="37" rx="3.5" fill="none"/>
    </g>
  </g>
</svg>
