<svg xmlns="http://www.w3.org/2000/svg" width="53.791" height="41.275" viewBox="0 0 53.791 41.275">
  <g id="TV" transform="translate(21 -27)">
    <path id="Path_3232" data-name="Path 3232" d="M56.791,9.064A2.063,2.063,0,0,0,54.727,7H5.064A2.064,2.064,0,0,0,3,9.064v33.02a2.064,2.064,0,0,0,2.064,2.064H54.727a2.063,2.063,0,0,0,2.064-2.064ZM7.127,11.127V40.02H52.664V11.127ZM19.51,48.275H40.147a2.064,2.064,0,0,0,0-4.127H19.51a2.064,2.064,0,0,0,0,4.127Z" transform="translate(-24 20)" fill="#fff" fill-rule="evenodd"/>
  </g>
</svg>
