<svg id="Voice_control" data-name="Voice control" xmlns="http://www.w3.org/2000/svg" width="50.068" height="50.068" viewBox="0 0 50.068 50.068">
  <path id="Path_3233" data-name="Path 3233" d="M0,0H50.068V50.068H0Z" fill="none"/>
  <circle id="Ellipse_445" data-name="Ellipse 445" cx="8.5" cy="8.5" r="8.5" transform="translate(10 10.068)" fill="#fff"/>
  <path id="Path_3234" data-name="Path 3234" d="M17.689,28.525C12.119,28.525,1,31.32,1,36.87v2.086a2.092,2.092,0,0,0,2.086,2.086H32.293a2.092,2.092,0,0,0,2.086-2.086V36.87C34.379,31.32,23.26,28.525,17.689,28.525Zm13.5-15.083a6.826,6.826,0,0,1,0,5.132,2.59,2.59,0,0,0,.522,2.837l.063.063a2.552,2.552,0,0,0,4.068-.563,10.409,10.409,0,0,0-.042-9.722,2.574,2.574,0,0,0-4.11-.6l-.021.021a2.65,2.65,0,0,0-.48,2.837Zm7.74-10.181a2.382,2.382,0,0,0-.271,3.088,16.574,16.574,0,0,1-.063,19.3,2.378,2.378,0,0,0,.292,3.046l.063.063a2.434,2.434,0,0,0,3.63-.209,20.389,20.389,0,0,0,0-25.076,2.458,2.458,0,0,0-3.651-.209Z" transform="translate(1.086 2.768)" fill="#fff"/>
</svg>
