<svg xmlns="http://www.w3.org/2000/svg" width="38" height="44" viewBox="0 0 38 44">
  <path id="VOIP" d="M32,36H7V10H32a1,1,0,0,0,1-1V7a5,5,0,0,0-5-5H10A5,5,0,0,0,5,7V41a5,5,0,0,0,5,5H28a5,5,0,0,0,5-5V37A1,1,0,0,0,32,36ZM22,42H16V40h6Zm5.09-21.69A26.763,26.763,0,0,0,27,23a26.763,26.763,0,0,0,.09,2.69,18.41,18.41,0,0,1-6-1.65c0-.34-.05-.69-.05-1a6.635,6.635,0,0,1,.05-1,18.41,18.41,0,0,1,6-1.73ZM43,23v1a18.41,18.41,0,0,1-6,1.65V23a26.763,26.763,0,0,0-.09-2.69A18.41,18.41,0,0,1,43,22ZM32,28a26.763,26.763,0,0,0,2.69-.09A18.41,18.41,0,0,1,33,34H31a18.41,18.41,0,0,1-1.65-6Zm2.89-7.89A24.437,24.437,0,0,1,35,23a24.437,24.437,0,0,1-.11,2.89A24.437,24.437,0,0,1,32,26a24.437,24.437,0,0,1-2.89-.11A24.437,24.437,0,0,1,29,23a24.437,24.437,0,0,1,.11-2.89A24.437,24.437,0,0,1,32,20,24.437,24.437,0,0,1,34.89,20.11ZM32,12a6.375,6.375,0,0,1,1,.05,18.41,18.41,0,0,1,1.65,6C33.8,18,32.9,18,32,18a26.763,26.763,0,0,0-2.69.09,18.41,18.41,0,0,1,1.65-6A4.03,4.03,0,0,1,32,12Zm4.72,6.28a24.45,24.45,0,0,0-1.28-5.72,11,11,0,0,1,7,7,24.45,24.45,0,0,0-5.72-1.28Zm0,9.44a24.45,24.45,0,0,0,5.72-1.28,11,11,0,0,1-7,7,24.45,24.45,0,0,0,1.28-5.72ZM21.56,26.44a24.45,24.45,0,0,0,5.72,1.28,24.45,24.45,0,0,0,1.28,5.72,11,11,0,0,1-7-7Zm7-13.88a24.45,24.45,0,0,0-1.28,5.72,24.45,24.45,0,0,0-5.72,1.28,11,11,0,0,1,7-7Z" transform="translate(-5 -2)" fill="#fff"/>
</svg>
