<svg xmlns="http://www.w3.org/2000/svg" width="58.094" height="47.964" viewBox="0 0 58.094 47.964">
  <path id="wifi" d="M30.14,34.975a7.991,7.991,0,1,0,7.991,7.991A7.991,7.991,0,0,0,30.14,34.975Zm0,10.655A2.664,2.664,0,1,1,32.8,42.966,2.664,2.664,0,0,1,30.14,45.629Zm0-21.309a18.805,18.805,0,0,0-13.185,5.46,2.656,2.656,0,1,0,3.756,3.756,13.318,13.318,0,0,1,18.859,0,2.7,2.7,0,1,0,3.889-3.756A18.805,18.805,0,0,0,30.14,24.32Zm0-10.655A29.513,29.513,0,0,0,9.417,22.243,2.675,2.675,0,0,0,13.2,26.025a23.973,23.973,0,0,1,33.881,0,2.675,2.675,0,1,0,3.782-3.782A29.513,29.513,0,0,0,30.14,13.666ZM58.4,14.7a39.954,39.954,0,0,0-56.522,0,2.675,2.675,0,0,0,3.782,3.782,34.627,34.627,0,0,1,48.958,0A2.675,2.675,0,1,0,58.4,14.7Z" transform="translate(-1.096 -2.993)" fill="#fff"/>
</svg>
