<svg xmlns="http://www.w3.org/2000/svg" width="35" height="35" viewBox="0 0 35 35">
  <g id="disconnect" transform="translate(0.217)">
    <rect id="Rectangle_2757" data-name="Rectangle 2757" width="35" height="35" transform="translate(-0.217)" fill="none"/>
    <path id="Path_2934" data-name="Path 2934" d="M21.915,20.889h0l-17.5-17.5A1.351,1.351,0,0,0,2.507,5.3L7.029,9.812A9.421,9.421,0,0,0,6.235,12.5,5.384,5.384,0,0,0,7.5,23.19H20.407l3.634,3.647a1.351,1.351,0,1,0,1.911-1.911ZM7.5,20.5a2.692,2.692,0,1,1,0-5.384,1.346,1.346,0,0,0,1.346-1.346A6.73,6.73,0,0,1,9.115,11.9l8.6,8.6ZM24.216,10.027a9.421,9.421,0,0,0-8.641-5.68,9.071,9.071,0,0,0-3.123.538,1.346,1.346,0,0,0,.888,2.53,6.608,6.608,0,0,1,2.234-.377A6.73,6.73,0,0,1,21.942,11.6a1.346,1.346,0,0,0,1.05.9,4.038,4.038,0,0,1,2.49,6.447,1.341,1.341,0,1,0,2.1,1.669,6.73,6.73,0,0,0-3.365-10.592Z" transform="translate(2.163 3.003)" fill="#ff1414"/>
  </g>
</svg>
