<svg xmlns="http://www.w3.org/2000/svg" width="35" height="35" viewBox="0 0 35 35">
  <g id="DNS" transform="translate(0.217)">
    <rect id="Rectangle_2758" data-name="Rectangle 2758" width="35" height="35" transform="translate(-0.217)" fill="none"/>
    <path id="Subtraction_8" data-name="Subtraction 8" d="M-14203.307,24475.594h-.072a13.726,13.726,0,0,1-3.807-.539,13.816,13.816,0,0,1-3.465-1.555,13.939,13.939,0,0,1-3.111-2.662,13.753,13.753,0,0,1-2.2-3.473h2.043c.178.34.375.67.586,1a16.847,16.847,0,0,1,1.6-.951.074.074,0,0,1-.01-.033l0-.012h6.691a16.031,16.031,0,0,0-4.414,1.027c1.191,2.914,3.094,4.838,5.217,5.27v-6.3h1.838v6.3c2.123-.432,4.023-2.355,5.217-5.27a16.045,16.045,0,0,0-4.416-1.027h6.691c0,.012,0,.027-.006.035l-.006.01a16.339,16.339,0,0,1,1.594.951,10.814,10.814,0,0,0,.586-1h2.045a13.592,13.592,0,0,1-2.232,3.5,13.824,13.824,0,0,1-3.154,2.682A13.7,13.7,0,0,1-14203.307,24475.594Zm7.746-6.449a14.232,14.232,0,0,1-1.615,2.879,11.863,11.863,0,0,0,2.717-2.244C-14194.814,24469.555-14195.186,24469.338-14195.561,24469.145Zm-15.561,0c-.375.193-.744.41-1.105.635a12.01,12.01,0,0,0,2.721,2.244,13.919,13.919,0,0,1-1.615-2.881Zm20.541-12.592h-2.016a12.01,12.01,0,0,0-.752-1.314,16.687,16.687,0,0,1-1.594.945c.037.129.072.248.105.369h-17.01q.05-.182.105-.369a17.216,17.216,0,0,1-1.6-.945,11.994,11.994,0,0,0-.75,1.314h-2.016a13.684,13.684,0,0,1,2.053-3.451,13.914,13.914,0,0,1,2.939-2.705,13.934,13.934,0,0,1,3.633-1.764,13.964,13.964,0,0,1,4.139-.629,13.939,13.939,0,0,1,4.135.629,13.812,13.812,0,0,1,3.633,1.764,13.914,13.914,0,0,1,2.939,2.705,13.813,13.813,0,0,1,2.057,3.451Zm-13.68-6.617c-2.123.434-4.025,2.355-5.217,5.271a15.852,15.852,0,0,0,5.217,1.07Zm1.838,0h0v6.342a15.862,15.862,0,0,0,5.217-1.07C-14198.4,24452.291-14200.3,24450.369-14202.422,24449.936Zm5.246,1.639a14.05,14.05,0,0,1,1.615,2.881c.373-.2.744-.412,1.1-.639A11.856,11.856,0,0,0-14197.176,24451.574Zm-12.33,0a11.9,11.9,0,0,0-2.719,2.242c.361.227.729.441,1.1.639A13.869,13.869,0,0,1-14209.506,24451.574Z" transform="translate(14220.834 -24444.004)" fill="#fb0"/>
    <path id="Exclusion_1" data-name="Exclusion 1" d="M28.25,8.125H1a1,1,0,0,1-1-1V1A1,1,0,0,1,1,0H28.25a1,1,0,0,1,1,1V7.124A1,1,0,0,1,28.25,8.125Zm-9.6-1.884-.261.72c.06.033.148.075.274.13a3.134,3.134,0,0,0,.418.144,5.158,5.158,0,0,0,.554.117,4.314,4.314,0,0,0,.68.049,2.812,2.812,0,0,0,1.688-.441,1.478,1.478,0,0,0,.6-1.26,1.889,1.889,0,0,0-.135-.751,1.565,1.565,0,0,0-.382-.536,2.415,2.415,0,0,0-.585-.387c-.224-.107-.474-.216-.742-.324-.191-.072-.368-.144-.527-.216a2.366,2.366,0,0,1-.419-.239.985.985,0,0,1-.279-.3.841.841,0,0,1-.1-.423.782.782,0,0,1,.095-.391.807.807,0,0,1,.257-.275,1.205,1.205,0,0,1,.378-.162,1.935,1.935,0,0,1,.468-.054,3.047,3.047,0,0,1,.868.112,2.439,2.439,0,0,1,.563.23l.279-.711a2.366,2.366,0,0,0-.68-.265A4.079,4.079,0,0,0,20.632.887a2.364,2.364,0,0,0-1.539.459,1.571,1.571,0,0,0-.558,1.278,1.589,1.589,0,0,0,.131.675,1.5,1.5,0,0,0,.355.482,2.28,2.28,0,0,0,.531.351A5.867,5.867,0,0,0,20.2,4.4c.194.071.383.143.563.216a2.277,2.277,0,0,1,.472.256,1.184,1.184,0,0,1,.329.351.941.941,0,0,1,.121.49c0,.621-.46.936-1.368.936A3.243,3.243,0,0,1,19.282,6.5,3.913,3.913,0,0,1,18.653,6.241ZM7.556.968c-.25,0-.522.01-.832.031a4.875,4.875,0,0,0-.823.121V7.168a4.88,4.88,0,0,0,.823.122c.311.021.583.032.832.032a4.858,4.858,0,0,0,1.4-.194,3.025,3.025,0,0,0,1.1-.585,2.624,2.624,0,0,0,.711-.99,3.622,3.622,0,0,0,.252-1.408,3.622,3.622,0,0,0-.252-1.409,2.624,2.624,0,0,0-.711-.99,3.025,3.025,0,0,0-1.1-.585A4.858,4.858,0,0,0,7.556.968ZM13.172,2.4l0,0c.164.187.343.4.547.664s.411.532.612.806c.213.289.426.588.634.887s.413.6.616.9.386.589.554.859.323.525.454.747h.729V1.031h-.855V5.648c-.187-.309-.424-.676-.707-1.089s-.58-.829-.891-1.247-.641-.845-.954-1.233-.628-.754-.9-1.049h-.693V7.267h.855V2.4ZM7.628,6.556c-.255,0-.442,0-.571-.009-.153-.007-.235-.012-.284-.018V1.76c.052-.006.14-.011.284-.018s.317-.009.571-.009a2.476,2.476,0,0,1,1.854.635,2.467,2.467,0,0,1,.612,1.778,2.467,2.467,0,0,1-.612,1.777A2.476,2.476,0,0,1,7.628,6.556Z" transform="translate(2.874 13.732)" fill="#fb0"/>
  </g>
</svg>
