<svg xmlns="http://www.w3.org/2000/svg" width="22.36" height="16.755" viewBox="0 0 22.36 16.755">
  <path id="folder" d="M22.36,239a1.225,1.225,0,0,1-.369.785l-4,4.712a4.035,4.035,0,0,1-1.434,1.029,4.131,4.131,0,0,1-1.708.422H1.9a1.614,1.614,0,0,1-.72-.155.529.529,0,0,1-.315-.512,1.225,1.225,0,0,1,.369-.785l4-4.712a4.035,4.035,0,0,1,1.434-1.029,4.131,4.131,0,0,1,1.708-.422H21.325a1.614,1.614,0,0,1,.72.155A.529.529,0,0,1,22.36,239ZM18.278,234.9v1.9h-9.9a5.6,5.6,0,0,0-2.344.565A5.555,5.555,0,0,0,4.082,238.8l-4.01,4.712-.06.071q0-.048-.006-.149T0,243.282V231.858a2.565,2.565,0,0,1,.785-1.88,2.565,2.565,0,0,1,1.88-.785H6.474a2.565,2.565,0,0,1,1.88.785,2.565,2.565,0,0,1,.785,1.88v.381h6.474a2.682,2.682,0,0,1,2.666,2.666Z" transform="translate(0 -229.192)" fill="#616161"/>
</svg>
