<svg xmlns="http://www.w3.org/2000/svg" width="29.167" height="29.167" viewBox="0 0 29.167 29.167">
  <g id="Unknown" transform="translate(2.39 -6.045)">
    <path id="Path_3015" data-name="Path 3015" d="M30.167,20.583A14.583,14.583,0,1,0,15.583,35.167,14.583,14.583,0,0,0,30.167,20.583ZM15.583,26.677A2.024,2.024,0,1,1,13.559,28.7,2.024,2.024,0,0,1,15.583,26.677Zm0-15.805A6.1,6.1,0,0,1,21.59,17.19c0,1.9-.695,2.942-2.358,4.273l-.9.694c-.8.631-1.064.974-1.119,1.453l-.037.506a1.621,1.621,0,0,1-3.215-.291c0-1.85.681-2.865,2.32-4.176l.9-.7c.935-.742,1.166-1.109,1.166-1.763a2.866,2.866,0,0,0-2.766-3.077,2.764,2.764,0,0,0-2.766,3.062,1.62,1.62,0,1,1-3.241.031A5.993,5.993,0,0,1,15.583,10.872Z" transform="translate(-3.39 0.045)" fill="#6c6c6c"/>
  </g>
</svg>
