<svg xmlns="http://www.w3.org/2000/svg" xmlns:xlink="http://www.w3.org/1999/xlink" width="185.025" height="176.573" viewBox="0 0 185.025 176.573">
  <defs>
    <linearGradient id="linear-gradient" x1="0.828" y1="0.263" x2="0.18" y2="1" gradientUnits="objectBoundingBox">
      <stop offset="0" stop-color="#bebebe"/>
      <stop offset="0.533" stop-color="#dbdbdb"/>
      <stop offset="1" stop-color="#7d7d7d"/>
    </linearGradient>
  </defs>
  <g id="Group_4130" data-name="Group 4130" transform="translate(-43.673 -45.695)">
    <path id="Path_3640" data-name="Path 3640" d="M195.841,129.256c.111-1.728.185-3.423.185-5.073A78.476,78.476,0,0,0,140.57,49.17a23.052,23.052,0,1,0-46.1,0,78.5,78.5,0,0,0-55.5,75.014c0,1.654.074,3.353.185,5.085A23.026,23.026,0,0,0,55.5,172.293a78.386,78.386,0,0,0,123.971-.019,23.024,23.024,0,0,0,16.367-43.018ZM163.917,150.5a23,23,0,0,0,8.977,18.218,71.067,71.067,0,0,1-110.8.022A23,23,0,0,0,48.05,127.476c-.544,0-1.073.044-1.606.081-.056-1.147-.085-2.268-.085-3.379A71.1,71.1,0,0,1,95.628,56.541a23.036,23.036,0,0,0,43.766,0,71.09,71.09,0,0,1,49.143,71.013c-.522-.033-1.04-.074-1.569-.074A23.074,23.074,0,0,0,163.913,150.5Z" transform="translate(18.673 19.579)" fill="url(#linear-gradient)"/>
    <g id="Group_4131" data-name="Group 4131" transform="translate(109.433 113.35)">
      <path id="Path_3285" data-name="Path 3285" d="M17.4.956a4.117,4.117,0,0,1,2.708.771c.135.045.271.2.406.245.437.279.92.5,1.354.771.09.023.181.154.271.177.219.121.467.275.677.365.135.045.271.2.406.245,2.426,1.511,5.02,2.89,7.448,4.4,1.249.778,3.508,1.987,3.859,2.776.377.846.278,4.326.271,6.026-2.62,1.512-5.281,3.024-7.922,4.536V15.325a.388.388,0,0,0-.052-.216,1.222,1.222,0,0,0-.354-.326c-.086-.062-4.025-2.5-5.146-3.2-.279-.174-.6-.342-.88-.515a7.811,7.811,0,0,0-2.708-1.313,1.808,1.808,0,0,0-1.016.295c-.28.173-7.32,4.4-7.447,4.512a.9.9,0,0,0-.406.542c0,2.166-.244,7.136-.244,9.282a1.066,1.066,0,0,0,.379.873c1.237.92,7.145,4.305,7.583,4.578.128.071.228.151.357.23a1.4,1.4,0,0,0,.862.2,3.434,3.434,0,0,0,1.265-.486c.278-.174,16.486-9.692,17.557-10.009a3.616,3.616,0,0,1,2.844.745c.09.023,11.984,6.861,12.119,6.906a7.1,7.1,0,0,1,2.167,1.625c.685.984.548,2.784.542,4.469V46.183a5.358,5.358,0,0,1-.068,1.49,4.331,4.331,0,0,1-2.167,2.37c-.135.045-10.646,6.108-10.782,6.2-1.1.737-2.491,1.876-3.977,1.876a3.637,3.637,0,0,1-2.3-.854c-.5-.315-1.045-.625-1.557-.922-2.992-1.733-6.3-3.371-9.234-5.2-1.251-.779-2.986-1.5-3.63-2.862-.525-1.177-.277-4.278-.271-6.026,2.64-1.512,5.3-3.024,7.922-4.536v6.161a.511.511,0,0,0,.064.263,1.277,1.277,0,0,0,.342.278c.09.023,5.553,3.387,5.832,3.561a7.916,7.916,0,0,0,2.9,1.246,1.674,1.674,0,0,0,.871-.269c.28-.173,7.457-4.493,7.592-4.538a.729.729,0,0,0,.406-.542c0-2.146.087-10.039-.135-10.156-.206-.318-7.836-4.643-7.971-4.689a1.459,1.459,0,0,0-.888-.321,3.128,3.128,0,0,0-1.2.5c-.317.172-.549.3-.828.475-.887.553-13.787,8.039-13.921,8.126-1.059.657-2.868,2.016-4.643,1.261a11.841,11.841,0,0,1-1.463-.812c-.279-.174-8.166-4.556-10.019-5.721-1.439-.895-3.358-1.605-4.048-3.216a10.253,10.253,0,0,1-.312-3.385V13.617a5.568,5.568,0,0,1,.474-3.032A4.2,4.2,0,0,1,2.576,9.435c.135-.045.271-.2.406-.245.7-.436,1.465-.917,2.167-1.354.14-.087.255-.145.406-.245,2.74-1.7,5.658-3.24,8.4-4.942.279-.174.6-.342.88-.515a13.774,13.774,0,0,1,1.625-.906A3.006,3.006,0,0,1,17.4.956Z" transform="translate(-0.815 -0.953)" fill="#0d9eff" fill-rule="evenodd"/>
    </g>
  </g>
</svg>
