<svg xmlns="http://www.w3.org/2000/svg" width="159.734" height="159.735" viewBox="0 0 159.734 159.735">
  <path class="cls-1" id="Path_181" data-name="Path 181" d="M73.607,59.085h29.043a7.261,7.261,0,0,0,0-14.521H88.128V37.3a7.261,7.261,0,1,0-14.521,0v7.261a21.782,21.782,0,0,0,0,43.564H88.128a7.261,7.261,0,0,1,0,14.521H59.085a7.261,7.261,0,0,0,0,14.521H73.607v7.261a7.261,7.261,0,1,0,14.521,0v-7.261a21.782,21.782,0,0,0,0-43.564H73.607a7.261,7.261,0,1,1,0-14.521ZM80.867,1a79.867,79.867,0,1,0,79.867,79.867A79.867,79.867,0,0,0,80.867,1Zm0,145.213a65.346,65.346,0,1,1,65.346-65.346,65.346,65.346,0,0,1-65.346,65.346Z" transform="translate(-1 -1)" fill="#fff"/>
</svg>
