<svg  xmlns="http://www.w3.org/2000/svg" width="238" height="158" viewBox="0 0 238 158">
  <g  id="Group_846" data-name="Group 846" transform="translate(-1959.439 -57.5)">
    <rect  class="cls-2" id="Rectangle_1908" data-name="Rectangle 1908" width="226" height="146" rx="12" transform="translate(1965.439 63.5)" fill="none" stroke="#fff" stroke-width="12"/>
    <g  id="Page-1" transform="translate(2030.143 88.229)">
      <g id="Asset-1">
        <g  id="Lager_28_kopia">
          <path class="cls-1" id="Shape" d="M48.3,0a48.3,48.3,0,1,0,48.3,48.3A48.294,48.294,0,0,0,48.3,0Zm0,84.518A36.222,36.222,0,1,1,84.518,48.3,36.224,36.224,0,0,1,48.3,84.518Z" fill="#fff"/>
          <path class="cls-1" id="Shape-2" data-name="Shape" d="M50.32,26.111H38.185V13.977A5.977,5.977,0,0,0,32.208,8h-.121a5.977,5.977,0,0,0-5.977,5.977V26.111H13.977A5.977,5.977,0,0,0,8,32.088v.121a5.977,5.977,0,0,0,5.977,5.977H26.111V50.32A5.977,5.977,0,0,0,32.088,56.3h.121a5.977,5.977,0,0,0,5.977-5.977V38.185H50.32A5.977,5.977,0,0,0,56.3,32.208v-.121A5.977,5.977,0,0,0,50.32,26.111Z" transform="translate(16.148 16.148)" fill="#fff"/>
        </g>
      </g>
    </g>
  </g>
</svg>
