<svg xmlns="http://www.w3.org/2000/svg" width="84.823" height="94.248" viewBox="0 0 84.823 94.248">
  <path id="Path_78" class="cls-1" data-name="Path 78" d="M87.823,34.7a6.173,6.173,0,0,0-.283-1.272v-.424a5.043,5.043,0,0,0-.9-1.319h0L58.371,3.414h0a5.042,5.042,0,0,0-1.319-.9,1.508,1.508,0,0,0-.424,0A4.147,4.147,0,0,0,55.072,2H35.987A14.137,14.137,0,0,0,21.85,16.137V20.85H17.137A14.137,14.137,0,0,0,3,34.987V82.111A14.137,14.137,0,0,0,17.137,96.248h37.7A14.137,14.137,0,0,0,68.974,82.111V77.4h4.712A14.137,14.137,0,0,0,87.823,63.261V34.7ZM59.549,18.069,71.754,30.274H64.261a4.712,4.712,0,0,1-4.712-4.712Zm0,64.042a4.712,4.712,0,0,1-4.712,4.712h-37.7a4.712,4.712,0,0,1-4.712-4.712V34.987a4.712,4.712,0,0,1,4.712-4.712H21.85V63.261A14.137,14.137,0,0,0,35.987,77.4H59.549ZM78.4,63.261a4.712,4.712,0,0,1-4.712,4.712h-37.7a4.712,4.712,0,0,1-4.712-4.712V16.137a4.712,4.712,0,0,1,4.712-4.712H50.124V25.562A14.137,14.137,0,0,0,64.261,39.7H78.4Z" transform="translate(-3 -2)" fill="#818080"/>
</svg>
