<svg xmlns="http://www.w3.org/2000/svg" width="24" height="19.615" viewBox="0 0 24 19.615">
  <path id="Path_84" class="cls-1" data-name="Path 84" d="M53.794,65.519a.586.586,0,0,1,.586.584v.586a.586.586,0,0,1-.586.584H42.086a.586.586,0,0,1-.586-.584V66.1a.586.586,0,0,1,.586-.584Zm5.562-17.854a.584.584,0,0,1,.584.584V62.886a.584.584,0,0,1-.584.584H36.524a.584.584,0,0,1-.584-.584V48.244a.584.584,0,0,1,.584-.584ZM58.184,49.41H37.7V61.7H58.184ZM45.971,52.085a.594.594,0,0,1,.283.073L51.379,55a.586.586,0,0,1,.229.8.562.562,0,0,1-.229.229l-5.125,2.838a.584.584,0,0,1-.8-.227.607.607,0,0,1-.073-.285V52.671a.586.586,0,0,1,.586-.586Zm1.171,2.57v1.7l1.547-.849Z" transform="translate(-35.94 -47.66)" fill="#8d8d8d"/>
</svg>
