<svg id="catagory" xmlns="http://www.w3.org/2000/svg" width="181.441" height="181.441" viewBox="0 0 181.441 181.441">
  <path id="Path_10331" data-name="Path 10331" d="M0,0H181.441V181.441H0Z" fill="none"/>
  <path id="Path_10332" data-name="Path 10332" d="M71.041,2,29.46,70.041h83.161Zm0,29.031L85.631,54.92H56.374Zm41.58,54.13a34.02,34.02,0,1,0,34.02,34.02A33.975,33.975,0,0,0,112.621,85.161Zm0,52.92a18.9,18.9,0,1,1,18.9-18.9A18.907,18.907,0,0,1,112.621,138.081ZM3,149.421H63.48V88.941H3Zm15.12-45.36H48.36V134.3H18.12Z" transform="translate(19.68 13.12)" fill="#e8ecef"/>
</svg>
