<svg xmlns="http://www.w3.org/2000/svg" width="170.993" height="170.993" viewBox="0 0 170.993 170.993">
  <path id="Path_175" class="cls-1" data-name="Path 175" d="M12.5,98h57A9.528,9.528,0,0,0,79,88.5v-76A9.528,9.528,0,0,0,69.5,3h-57A9.528,9.528,0,0,0,3,12.5v76A9.528,9.528,0,0,0,12.5,98Zm0,76h57a9.528,9.528,0,0,0,9.5-9.5v-38a9.528,9.528,0,0,0-9.5-9.5h-57A9.528,9.528,0,0,0,3,126.5v38A9.528,9.528,0,0,0,12.5,173.993Zm95,0h57a9.528,9.528,0,0,0,9.5-9.5v-76a9.528,9.528,0,0,0-9.5-9.5h-57A9.528,9.528,0,0,0,98,88.5v76A9.528,9.528,0,0,0,107.5,173.993ZM98,12.5v38a9.528,9.528,0,0,0,9.5,9.5h57a9.528,9.528,0,0,0,9.5-9.5v-38a9.528,9.528,0,0,0-9.5-9.5h-57A9.528,9.528,0,0,0,98,12.5Z" transform="translate(-3 -3)" fill="#fff"/>
</svg>
