<svg xmlns="http://www.w3.org/2000/svg" width="10.722" height="10.725" viewBox="0 0 10.722 10.725">
  <path id="Path_2296" data-name="Path 2296" d="M8.591,10.211l-.692.7v-3a.537.537,0,0,0-1.073,0v3l-.692-.7a.539.539,0,1,0-.762.762l1.61,1.61a.537.537,0,0,0,.177.113.5.5,0,0,0,.408,0,.537.537,0,0,0,.177-.113l1.61-1.61a.539.539,0,0,0-.762-.762Zm2.216-5.94A3.756,3.756,0,0,0,3.638,5.285a2.146,2.146,0,0,0,.5,4.234.537.537,0,1,0,0-1.073,1.073,1.073,0,1,1,0-2.146.537.537,0,0,0,.537-.537A2.683,2.683,0,0,1,9.9,4.9a.537.537,0,0,0,.419.36,1.61,1.61,0,0,1,.129,3.134.538.538,0,0,0,.268,1.041,2.683,2.683,0,0,0,.091-5.162Z" transform="translate(-1.991 -2.013)" fill="#fff"/>
</svg>
