<svg xmlns="http://www.w3.org/2000/svg" width="225.25" height="225.251" viewBox="0 0 225.25 225.251">
  <g id="Group_6952" data-name="Group 6952" transform="translate(1.5 1.5)">
    <g id="Group_6953" data-name="Group 6953">
      <path id="Path_10435" data-name="Path 10435" d="M0,118.071V104.18c.122-.56.277-1.114.361-1.679.758-5.14,1.237-10.338,2.294-15.415C11.637,43.951,48.4,8.775,91.769,1.718,95.89,1.047,100.042.568,104.18,0h13.891c.555.123,1.106.279,1.667.362,5.14.758,10.337,1.238,15.414,2.294,43.134,8.973,78.336,45.753,85.38,89.1.67,4.125,1.15,8.281,1.719,12.423v13.891c-.123.559-.28,1.113-.363,1.678-.757,5.14-1.232,10.339-2.292,15.415-9.017,43.172-45.74,78.311-89.113,85.369-4.121.671-8.274,1.149-12.411,1.718H104.18c-.556-.123-1.106-.28-1.667-.362-5.14-.758-10.337-1.238-15.414-2.294-43.134-8.973-78.336-45.752-85.38-89.1-.67-4.125-1.15-8.281-1.719-12.422m212.523-6.934a101.4,101.4,0,0,0-202.8-.132C9.581,166.9,55.032,212.44,111.059,212.523A101.454,101.454,0,0,0,212.523,111.137" fill="#fff" stroke="#fff" stroke-width="3"/>
      <path id="Path_10436" data-name="Path 10436" d="M246.548,196.43l-43.486,45.228-27.623-27.617,43-44.653,28.112,27.042" transform="translate(-99.284 -95.86)" fill="#fff"/>
      <path id="Path_10437" data-name="Path 10437" d="M290.232,134.174c3.857-3.444,7.435-6.619,10.989-9.819,2.594-2.334,5.86-2.651,8.4-.3q9.942,9.2,19.6,18.7a6.159,6.159,0,0,1,.164,8.463c-3.257,3.612-6.683,7.073-10.275,10.848l-28.885-27.9" transform="translate(-164.247 -69.291)" fill="#fff"/>
      <path id="Path_10438" data-name="Path 10438" d="M137.384,298.074l27.472,27.637-36.993,12.076c2.084-13.9,6.554-26.6,9.521-39.713" transform="translate(-72.36 -168.685)" fill="#fff"/>
    </g>
  </g>
</svg>
