<svg xmlns="http://www.w3.org/2000/svg" width="284.56" height="286" viewBox="0 0 284.56 286">
  <path class="cls-1" id="Path_3564" data-name="Path 3564" d="M261.513,108.68q-.071,18.374-.143,36.751H224.047c.285-16.981-17.253-29.083-33.891-21.593-6.632,2.986-10.333,9.331-12.87,16.588l-.429,5H146.541v32.6c-18.48-.3-29.9,19.971-20.306,36.036,2.607,4.366,7.636,7.736,12.441,9.867,2.018.885,5.277.27,8.008,1v37.323H109.79v.143c.639,2.415-.827,6.239-1.573,8.008-3.631,8.6-8.809,12.347-17.875,15.587h-9.3c-10.618-3.868-19.376-10.21-19.3-23.738H24.705q.071-18.3.143-36.608l-.143-.143c-10.36.166-17.689-6.414-21.307-13.156-1.022-1.906-.812-3.622-1.573-5.434-.473-1.124-1.309-8.992-.572-10.868,3.814-9.651,10.172-18.915,23.6-18.733V107.965c15.253.245,29.519-16.181,22.022-32.6-3.932-8.612-10.631-13.617-22.165-14.586.048-12.327.1-24.883.143-37.323H52.3c1.779,0,8.9-.357,9.724.286.238,1.859.477,3.732.715,5.577,1.47,4.512,3.668,9.484,7.007,12.155A25.986,25.986,0,0,0,77.329,45.9l5.434,1.43c3.71.962,8.313-.518,10.582-1.43,7.542-3.032,11.824-7.181,14.872-14.729,1.115-2.724.355-4.744,1.144-7.722h67.067C176.424,9.836,186.893,0,200.881,0c5.348,0,9.05,1.024,12.3,3.146a28.719,28.719,0,0,1,10.3,12.87c.7,1.635.509,6.324,1,7.15.831.732,7.939.286,9.724.286l27.313.143V60.489c14.473-.225,28.071,14.826,22.88,30.888A24.36,24.36,0,0,1,261.513,108.68ZM153.405,131.56h12.441c.815-4.273,4.121-7.653,6.435-10.582,6.4-8.1,22.924-17.339,38.9-11.726,12.076,4.245,18.717,11.556,24.167,22.451l12.3-.143V94.809c12.824.17,21.4,1.623,23.881-9.009.468-2-.463-4.168-1-5.291-3.8-7.931-11.5-6.707-22.88-6.578q.071-18.3.143-36.608l-36.894-.143c.133-11.811,1.211-20.382-7.579-23.166a10.336,10.336,0,0,0-7.293.286c-5.687,2.827-5.864,8.184-5.863,16.874q-.071,3.074-.143,6.149H153.262v.143c1.088,4.217-1.261,13.85.429,16.874,1.893.308,3.466,1.591,4.862,2.431,8.978,5.4,20.372,18.995,15.73,34.749-3.149,10.686-10.309,19.334-21.021,23.309C153.309,120.405,153.358,126.026,153.405,131.56Zm-78.364,0c-.158,11.825-.977,19.707,7.15,23.166a11.229,11.229,0,0,0,8.437-.286c5.4-2.8,5.52-8.526,5.434-16.874.048-1.988.1-4,.143-6.006l36.751-.143V94.809c12.378.169,20.991,1.5,23.738-8.437.633-2.292-.429-4.769-1-6.006-3.6-7.786-11.8-6.461-22.88-6.435q.072-18.3.143-36.608H120.372c-.581,3.072-2.761,5.882-4.433,8.008C110.139,52.7,104.28,56.9,94.489,60.2c-1.7.191-3.432.381-5.148.572-3.579.777-9.111.7-12.441-.572-3.746-1.3-7.635-2.475-11.011-4.719a38.613,38.613,0,0,1-11.3-11.011c-.635-1.023-3.193-6.931-3.575-7.15H38.433v.143c.879,3.5-.981,9.909.429,12.584A8.817,8.817,0,0,1,43.009,52.2c1.068.74,2.93,1.17,4.147,2.145,6.941,5.558,11.117,12.1,14.3,21.45.7,1.992.056,4.331.429,6.006a28.529,28.529,0,0,1-1.43,14.872c-3.462,8.813-8.835,13.9-15.444,19.448l-6.578,3.146q.071,6.148.143,12.3Zm.143,117.117c-.158,11.9-1.39,20.5,8.008,23.309a12.583,12.583,0,0,0,6.006,0c6.525-2.264,6.936-8.059,6.864-17.017q.071-3.147.143-6.292h36.751V236.093c-17.509-4.389-30.413-30.273-20.02-51.48,2.949-6.016,8.025-10.975,13.3-14.729l6.721-3.432v-12.3h-17.3c-.734,4.231-4.744,7.928-7.436,10.439A32.686,32.686,0,0,1,93.2,173.03c-16.177,4.044-34.818-7.686-37.466-18.876h-17.3v.143q.071,13.37.143,26.741c0,2.9.748,7.858-.286,10.153-11.522-.15-20.05-1.7-23.023,7.293a9.52,9.52,0,0,0,.286,7.293c2.882,5.894,8.114,5.935,17.017,5.863l6.006.143c-.048,12.3-.1,24.71-.143,36.894Z" transform="translate(-0.962)"  fill="#9e9e9e" fill-rule="evenodd"/>
</svg>
