<svg xmlns="http://www.w3.org/2000/svg" width="98" height="98" viewBox="0 0 98 98">
  <g id="log_out" transform="translate(-890.922 -948.922)">
    <path id="Path_3610" data-name="Path 3610" d="M0,27.864A2.786,2.786,0,0,0,2.786,30.65H23.935l-6.409,6.381a2.8,2.8,0,1,0,3.957,3.957L32.628,29.842a2.881,2.881,0,0,0,0-3.957L21.483,14.74A2.8,2.8,0,0,0,17.526,18.7l6.409,6.381H2.786A2.786,2.786,0,0,0,0,27.864ZM36.223,0H8.359A8.359,8.359,0,0,0,0,8.359v8.359a2.786,2.786,0,0,0,5.573,0V8.359A2.786,2.786,0,0,1,8.359,5.573H36.223a2.786,2.786,0,0,1,2.786,2.786V47.368a2.786,2.786,0,0,1-2.786,2.786H8.359a2.786,2.786,0,0,1-2.786-2.786V39.009a2.786,2.786,0,1,0-5.573,0v8.359a8.359,8.359,0,0,0,8.359,8.359H36.223a8.359,8.359,0,0,0,8.359-8.359V8.359A8.359,8.359,0,0,0,36.223,0Z" transform="translate(962.116 1025.786) rotate(180)" fill="#7f7f7f"/>
    <g id="Ellipse_611" data-name="Ellipse 611" transform="translate(890.922 948.922)" fill="none" stroke="#7f7f7f" stroke-width="4">
      <circle cx="49" cy="49" r="49" stroke="none"/>
      <circle cx="49" cy="49" r="47" fill="none"/>
    </g>
  </g>
</svg>
