<svg xmlns="http://www.w3.org/2000/svg" width="20.648" height="18.317" viewBox="0 0 20.648 18.317">
  <g id="Group_4088" data-name="Group 4088" transform="translate(-1.738 -3.049)">
    <path id="Path_3607" data-name="Path 3607" d="M13.461,3A9.166,9.166,0,0,0,4.04,12.157H2.219a.5.5,0,0,0-.356.865L4.7,15.87a.5.5,0,0,0,.722,0l2.839-2.849a.509.509,0,0,0-.366-.865H6.075A7.12,7.12,0,0,1,13.3,5.035a7.212,7.212,0,0,1,7.02,7.02A7.126,7.126,0,0,1,13.2,19.279a7.015,7.015,0,0,1-4.355-1.506,1.018,1.018,0,0,0-1.262,1.6A9.012,9.012,0,0,0,13.2,21.314a9.166,9.166,0,0,0,9.157-9.421A9.265,9.265,0,0,0,13.461,3Z" transform="translate(0.03 0.052)" fill="#a6a6a6"/>
    <path id="Path_3608" data-name="Path 3608" d="M6.8,2a4.8,4.8,0,1,0,4.8,4.8A4.809,4.809,0,0,0,6.8,2ZM9.726,9.576a3.259,3.259,0,0,0-5.841,0A3.984,3.984,0,0,1,2.769,6.8a4.035,4.035,0,0,1,8.07,0A3.984,3.984,0,0,1,9.726,9.576ZM6.8,3.921A1.729,1.729,0,1,0,8.533,5.651,1.729,1.729,0,0,0,6.8,3.921Z" transform="translate(6.614 5.404)" fill="#a6a6a6"/>
  </g>
</svg>
