<svg id="Group_843" data-name="Group 843" xmlns="http://www.w3.org/2000/svg" width="162.731" height="162.731" viewBox="0 0 162.731 162.731">
  <path class="cls-1" id="Path_177" data-name="Path 177" d="M140.321,2H26.41A24.41,24.41,0,0,0,2,26.41V140.322a24.41,24.41,0,0,0,24.41,24.41H140.321a24.41,24.41,0,0,0,24.41-24.41V26.41A24.41,24.41,0,0,0,140.321,2ZM107.036,18.273V48.741L87.352,38.208a8.137,8.137,0,0,0-8.137,0L59.7,48.741V18.273Zm41.422,122.048a8.137,8.137,0,0,1-8.137,8.137H26.41a8.137,8.137,0,0,1-8.137-8.137V26.41a8.137,8.137,0,0,1,8.137-8.137h24.41V51.559a8.137,8.137,0,0,0,12.2,7l20.341-11.31,20.423,11.391a8.117,8.117,0,0,0,12.123-7.079V18.273h24.41a8.137,8.137,0,0,1,8.137,8.137Z" transform="translate(-2 -2)" fill="#fff"/>
  <g id="Layer_2" data-name="Layer 2" transform="translate(40.491 61.398)">
    <g id="star" transform="translate(0 0)">
      <rect class="cls-1" id="Rectangle_1904" data-name="Rectangle 1904" width="79.846" height="82.064" transform="translate(82.064 0) rotate(90)" fill="#fff" opacity="0"/>
      <path class="cls-1" id="Path_178" data-name="Path 178" d="M55.154,67.023a3.422,3.422,0,0,1-1.574-.376L36.129,57.51,18.678,66.646a3.422,3.422,0,0,1-4.961-3.627l3.422-19.264L3.041,30.068A3.37,3.37,0,0,1,4.957,24.32l19.5-2.84L33.05,3.926a3.422,3.422,0,0,1,6.159,0L47.9,21.445l19.5,2.84a3.37,3.37,0,0,1,1.916,5.748l-14.1,13.687,3.422,19.264a3.386,3.386,0,0,1-3.49,4.038Z" transform="translate(4.746 4.082)" fill="#fff"/>
    </g>
  </g>
</svg>
