<svg xmlns="http://www.w3.org/2000/svg" width="19.481" height="17.883" viewBox="0 0 19.481 17.883">
  <g id="Group_4888" data-name="Group 4888" transform="translate(-16 -683.113)">
    <path id="Subtraction_59" data-name="Subtraction 59" d="M21508.5,17443.277h-8.33a.831.831,0,1,1,0-1.662h3.33v-1.668h-5a2.5,2.5,0,0,1-2.5-2.5v-6.668a2.5,2.5,0,0,1,2.5-2.5h6.018l-.252.8v.863h-5.766a.833.833,0,0,0-.832.832v6.668a.833.833,0,0,0,.832.832h11.666a.833.833,0,0,0,.832-.832v-3.758l.033.016,1.23-.729.4-.713v5.184a2.5,2.5,0,0,1-2.5,2.5h-5v1.668h3.33a.831.831,0,1,1,0,1.662Z" transform="translate(-21480 -16742.281)" fill="#a6a6a6"/>
    <path id="Path_9905" data-name="Path 9905" d="M11.074,9.561,8.568,7.056A4.623,4.623,0,1,0,4.634,9.268a4.592,4.592,0,0,0,2.421-.7l2.507,2.506a1.07,1.07,0,1,0,1.512-1.513Zm-6.44-1.72A3.208,3.208,0,1,1,7.842,4.634,3.208,3.208,0,0,1,4.634,7.842Z" transform="translate(24.094 683.113)" fill="#a6a6a6"/>
  </g>
</svg>
