<svg xmlns="http://www.w3.org/2000/svg" width="187.754" height="154.897" viewBox="0 0 187.754 154.897">
  <g id="Group_844" data-name="Group 844" transform="translate(0)">
    <g id="Icon-Archive" transform="translate(0)">
      <path class="cls-1" id="Fill-180" d="M-182.537-425.6H-193.49v-27.772a5.347,5.347,0,0,0-5.476-5.476H-353.472a5.347,5.347,0,0,0-5.476,5.476V-425.6H-369.9v-27.772A16.528,16.528,0,0,1-353.472-469.8h154.506a16.528,16.528,0,0,1,16.429,16.429V-425.6" transform="translate(370.291 469.8)" fill="#fff"/>
      <path class="cls-1" id="Fill-181" d="M-218.17-348.094h-132.6A16.528,16.528,0,0,1-367.2-364.523V-458.4h10.952v93.877a5.347,5.347,0,0,0,5.476,5.476h132.6a5.347,5.347,0,0,0,5.476-5.476V-458.4h10.952v93.877c.391,9-7.041,16.429-16.428,16.429" transform="translate(378.152 502.992)" fill="#fff"/>
      <path class="cls-1" id="Fill-182" d="M-303.424-441.848h-44.2a5.347,5.347,0,0,1-5.476-5.476,5.348,5.348,0,0,1,5.476-5.476h44.2a5.347,5.347,0,0,1,5.476,5.476,5.347,5.347,0,0,1-5.476,5.476" transform="translate(419.205 519.296)" fill="#fff"/>
      <path class="cls-1" id="Fill-183" d="M-370-461.3h187.754v10.952H-370Z" transform="translate(370 494.548)" fill="#fff"/>
    </g>
  </g>
</svg>
