<svg xmlns="http://www.w3.org/2000/svg" width="19" height="20.9" viewBox="0 0 19 20.9">
  <path class="cls-1" id="proxy_networks" d="M10.55,12.4a.95.95,0,1,0,.95.95A.95.95,0,0,0,10.55,12.4Zm-3.8,0a.95.95,0,1,0,.95.95A.95.95,0,0,0,6.75,12.4ZM21,3.85A2.85,2.85,0,0,0,18.15,1H4.85A2.85,2.85,0,0,0,2,3.85v3.8a2.85,2.85,0,0,0,.741,1.9A2.85,2.85,0,0,0,2,11.45v3.8A2.85,2.85,0,0,0,4.85,18.1h5.7V20H2.95a.95.95,0,0,0,0,1.9h17.1a.95.95,0,0,0,0-1.9h-7.6V18.1h5.7A2.85,2.85,0,0,0,21,15.25v-3.8a2.85,2.85,0,0,0-.741-1.9A2.85,2.85,0,0,0,21,7.65Zm-1.9,11.4a.95.95,0,0,1-.95.95H4.85a.95.95,0,0,1-.95-.95v-3.8a.95.95,0,0,1,.95-.95h13.3a.95.95,0,0,1,.95.95Zm0-7.6a.95.95,0,0,1-.95.95H4.85a.95.95,0,0,1-.95-.95V3.85a.95.95,0,0,1,.95-.95h13.3a.95.95,0,0,1,.95.95ZM10.55,4.8a.95.95,0,1,0,.95.95A.95.95,0,0,0,10.55,4.8Zm-3.8,0a.95.95,0,1,0,.95.95A.95.95,0,0,0,6.75,4.8Z" transform="translate(-2 -1)" fill="#a6a6a6"/>
</svg>
