<svg xmlns="http://www.w3.org/2000/svg" width="49.414" height="52.479" viewBox="0 0 49.414 52.479">
  <path id="Path_10140" data-name="Path 10140" d="M24.13,10.4H11.495a1.531,1.531,0,0,0-1.482,1.574V25.615a1.531,1.531,0,0,0,1.482,1.574H24.13a1.531,1.531,0,0,0,1.482-1.574V11.971A1.531,1.531,0,0,0,24.13,10.4ZM22.648,24.041H12.977v-10.5h9.67Zm-2.859-7.347H15.836v4.2h3.953Zm-15.813,6.3a2.04,2.04,0,0,0,1.977-2.1V8.3A2.043,2.043,0,0,1,7.93,6.2H19.789a2.041,2.041,0,0,0,1.977-2.1A2.041,2.041,0,0,0,19.789,2H7.93A6.129,6.129,0,0,0,2,8.3V20.892A2.04,2.04,0,0,0,3.977,22.991Zm20.154,6.3H11.495a1.531,1.531,0,0,0-1.482,1.574V44.508a1.531,1.531,0,0,0,1.482,1.574H24.13a1.531,1.531,0,0,0,1.482-1.574V30.863A1.531,1.531,0,0,0,24.13,29.289ZM22.648,42.933H12.977v-10.5h9.67Zm-2.859-7.347H15.836v4.2h3.953Zm0,14.694H7.93a2.043,2.043,0,0,1-1.977-2.1V35.586a2.041,2.041,0,0,0-1.977-2.1A2.041,2.041,0,0,0,2,35.586V48.181a6.129,6.129,0,0,0,5.93,6.3H19.789a2.1,2.1,0,0,0,0-4.2ZM49.438,33.487a2.04,2.04,0,0,0-1.977,2.1V48.181a2.043,2.043,0,0,1-1.977,2.1H33.625a2.1,2.1,0,0,0,0,4.2H45.484a6.129,6.129,0,0,0,5.93-6.3V35.586a2.04,2.04,0,0,0-1.977-2.1Zm-16.8,7.347H28.684v4.2h3.953Zm-3.953-6.309h3.953v-4.2H28.684ZM45.484,2H33.625a2.041,2.041,0,0,0-1.977,2.1,2.041,2.041,0,0,0,1.977,2.1H45.484a2.043,2.043,0,0,1,1.977,2.1V20.892a1.98,1.98,0,1,0,3.953,0V8.3A6.129,6.129,0,0,0,45.484,2ZM33.625,20.892h3.953v-4.2H33.625Zm3.953,18.892v-4.2H33.625v4.2ZM41.919,27.19A1.531,1.531,0,0,0,43.4,25.615V11.971A1.531,1.531,0,0,0,41.919,10.4H29.284A1.531,1.531,0,0,0,27.8,11.971V25.615a1.531,1.531,0,0,0,1.482,1.574ZM30.766,13.545h9.67v10.5h-9.67ZM42.52,30.327H38.566v4.2H42.52ZM38.566,45.032H42.52v-4.2H38.566Z" transform="translate(-2 -2)" fill="#3693ff"/>
</svg>
