<svg xmlns="http://www.w3.org/2000/svg" width="170.594" height="169.312" viewBox="0 0 170.594 169.312">
  <path class="cls-1" id="Path_176" data-name="Path 176" d="M167.3,149.356l-34.644-34.644a14.511,14.511,0,0,0-11.158-4.243l-6.18-6.18a62.75,62.75,0,0,0-6.314-80.313C104.665,19.532,88.562,5,63.941,5a63.914,63.914,0,0,0-43.8,17.706C2.37,39.911,1,61.693,1,67.941c0,23.786,13.263,39.421,18.942,45.034,5.646,5.546,21.08,18.308,44.032,18.308H65.21a62.523,62.523,0,0,0,36.548-12.929l5.947,5.947a14.542,14.542,0,0,0,4.276,11.158l34.644,34.577a14.623,14.623,0,1,0,20.68-20.68ZM64.843,111.772c-16.27.334-27.228-8.753-31.2-12.662C30.566,96.07,20.51,84.845,20.51,67.974c0-4.31.969-19.343,13.263-31.236A44.716,44.716,0,0,1,64.007,24.51c16.971,0,28.1,10.022,31.1,13.1,2.907,2.973,12.361,13.965,12.361,30.368A44.491,44.491,0,0,1,95.21,98.242C91.369,102.184,80.812,111.438,64.843,111.772Z" transform="translate(-1 -5)" fill="#fff"/>
</svg>
