<svg xmlns="http://www.w3.org/2000/svg" width="172.355" height="170.375" viewBox="0 0 172.355 170.375">
  <g id="_Group_" data-name="&lt;Group&gt;" transform="translate(-21.664 -24.79)">
    <path id="Subtraction_2" data-name="Subtraction 2" d="M92.2,170.375a20.116,20.116,0,0,1-3.537-39.917L87.9,97.934H63.031A7.012,7.012,0,0,1,56.043,90.9V89.546l-16.17,6.666a20.187,20.187,0,0,1-19.756,23.972A20.121,20.121,0,1,1,37.9,90.657l18.139-7.479V54.856A6.946,6.946,0,0,1,62.991,47.9h2.562l-9.18-11.116A19.993,19.993,0,1,1,60.8,32.9L73.2,47.9h32.325l15.725-14.743a20.138,20.138,0,1,1,3.9,4.415l-11,10.328h1.542a6.951,6.951,0,0,1,6.949,6.955V85.533l12.7,5.523a20.076,20.076,0,1,1-2.392,5.377L122.58,91.924a7.03,7.03,0,0,1-6.94,6.009H93.786l.759,32.345a20.116,20.116,0,0,1-1.726,40.086C92.614,170.372,92.4,170.375,92.2,170.375ZM108.526,80.75a4.966,4.966,0,1,0,4.965,4.967A4.973,4.973,0,0,0,108.526,80.75Zm-18.394,0A4.966,4.966,0,1,0,95.1,85.717,4.973,4.973,0,0,0,90.132,80.75Zm-18.394,0A4.966,4.966,0,1,0,76.7,85.717,4.972,4.972,0,0,0,71.738,80.75ZM62.979,53.787a1.049,1.049,0,0,0-.731.3,1.062,1.062,0,0,0-.322.773V74.19h54.815V54.856a1.051,1.051,0,0,0-1.051-1.069H62.979Z" transform="translate(21.664 24.79)" fill="#fff"/>
  </g>
</svg>
