<svg xmlns="http://www.w3.org/2000/svg"   width="30.005" height="40.858" viewBox="0 0 282 384">
  <path id="Color_Fill_1" data-name="Color Fill 1" class="cls-1" d="M101,49c68.586-.911,108.206,28.662,131,73,4.75,9.24,8.358,20.58,11,31,3.7,14.593.39,34.839-3,46-11.824,38.933-35.6,62.73-77,72-13.7,3.068-30.274-1.685-39-5-29.389-11.164-61.971-42.373-47-87,2.275-6.783,6.9-14.487,11-20,22.4-30.114,73.2-23.056,86,11,2.125,5.653,4.472,14.071,2,22-3.858,12.375-13.049,17.878-21,26-3.1.084-4.023,0.59-5,0-2.684-.891-2.589-1.028-4-3-1.48-1.906-1.85-3.319-1-5,4.467-13.861,16.968-7.85,17-34-6.66-7.333-8.659-16.167-19-20-20.447-7.58-40.516,5.89-48,18-3.153,5.1-3.193,10.33-5,17-0.853,3.151-2.925,8.569-2,13,7.577,36.286,46.364,66.918,91,48,27.127-11.5,62.413-55.523,49-100-10.544-34.964-34.235-65.316-66-79-23.738-10.226-62.7-13.748-89-3C61.821,74.569,47.47,86.143,35,87a35.4,35.4,0,0,1-3-3c-1.48-1.906-1.85-3.318-1-5,2.457-10.792,39.644-23.324,52-27Zm27,63,21,2c21.078,5.725,39.774,18.383,50,35,16.586,26.951,6.94,68.862-14,84-29.22,21.123-69.182,8.98-79-22-6.233-19.666,10.962-45.67,27-46a35.383,35.383,0,0,1,3,3c1.48,1.906,1.85,3.319,1,5-1.869,7.934-11.234,10.57-15,17-8.153,13.921,4.049,30.133,12,35,29.793,18.238,67.759-17.349,59-52-7.041-27.856-42.827-57.081-83-44-19.337,6.3-36.155,21.1-46,37-35.341,57.079,13.091,125.763,55,144,10.6,4.611,22.77,7.261,35,10,23.311,5.22,59.047-7.273,72-14,6.515-3.384,11.552-8.685,20-10,1.945,1.983,4.017,4.055,6,6-2.755,11.258-16.229,14.728-26,19-38.182,16.692-87.261,18.782-123-3-34.962-21.308-81.263-75.672-61-138a114.4,114.4,0,0,1,17-32c9.793-13.175,27.338-25.98,44-32C109.1,113.8,123,115.041,128,112Z"/>
</svg>
