<svg xmlns="http://www.w3.org/2000/svg" width="13.022" height="13.022" viewBox="0 0 13.022 13.022">
  <path id="sun" d="M7.011,3.23a3.781,3.781,0,1,0,3.781,3.781A3.785,3.785,0,0,0,7.011,3.23Zm0-.572a.63.63,0,0,0,.63-.63v-.9a.63.63,0,1,0-1.26,0v.9A.63.63,0,0,0,7.011,2.659ZM3.042,3.933a.63.63,0,1,0,.891-.891L3.3,2.407a.63.63,0,1,0-.891.891ZM2.658,7.011a.63.63,0,0,0-.63-.63h-.9a.63.63,0,1,0,0,1.26h.9A.63.63,0,0,0,2.658,7.011Zm.384,3.078-.635.635a.63.63,0,1,0,.891.891l.635-.635a.63.63,0,1,0-.891-.891Zm3.969,1.275a.63.63,0,0,0-.63.63v.9a.63.63,0,1,0,1.26,0v-.9A.63.63,0,0,0,7.011,11.363Zm3.969-1.275a.63.63,0,1,0-.891.891l.635.635a.63.63,0,1,0,.891-.891Zm1.912-3.708h-.9a.63.63,0,0,0,0,1.26h.9a.63.63,0,1,0,0-1.26ZM10.534,4.118a.628.628,0,0,0,.446-.185l.635-.635a.63.63,0,0,0-.891-.891l-.635.635a.63.63,0,0,0,.445,1.076Z" transform="translate(-0.5 -0.5)" fill="#ffba00"/>
</svg>
