<svg xmlns="http://www.w3.org/2000/svg" width="179.441" height="107.634" viewBox="0 0 179.441 107.634">
  <path id="tag" d="M118.6,59.817a8.969,8.969,0,1,0,8.969-8.969A8.969,8.969,0,0,0,118.6,59.817Zm60.185-6.368L133.941,8.6A8.97,8.97,0,0,0,127.573,6H28.908A26.908,26.908,0,0,0,2,32.909V86.725a26.908,26.908,0,0,0,26.908,26.908h98.664a8.969,8.969,0,0,0,6.368-2.6l44.847-44.847a8.969,8.969,0,0,0,0-12.737ZM123.9,95.695H28.908a8.969,8.969,0,0,1-8.969-8.969V32.909a8.969,8.969,0,0,1,8.969-8.969H123.9l35.878,35.878Z" transform="translate(-2 -6)" fill="#e8ecef"/>
</svg>
