<svg xmlns="http://www.w3.org/2000/svg" width="140.852" height="140.852" viewBox="0 0 140.852 140.852">
  <path id="templates" d="M121.724,2h-98.6A21.128,21.128,0,0,0,2,23.128v98.6a21.128,21.128,0,0,0,21.128,21.128h98.6a21.128,21.128,0,0,0,21.128-21.128v-98.6A21.128,21.128,0,0,0,121.724,2Zm-98.6,126.766a7.043,7.043,0,0,1-7.043-7.043v-98.6a7.043,7.043,0,0,1,7.043-7.043H44.255V128.766Zm35.213,0V16.085h28.17V128.766Zm70.426-7.043a7.043,7.043,0,0,1-7.043,7.043H100.6V16.085h21.128a7.043,7.043,0,0,1,7.043,7.043Z" transform="translate(-2 -2)" fill="#e8ecef"/>
</svg>
