<svg xmlns="http://www.w3.org/2000/svg" width="98" height="98" viewBox="0 0 98 98">
  <g id="Group_4078" data-name="Group 4078" transform="translate(-2 -2)">
    <path id="Path_3611" data-name="Path 3611" d="M51,2a49,49,0,1,0,49,49A49,49,0,0,0,51,2ZM83.025,78.09l-2.31-2.345a3.514,3.514,0,1,0-4.97,4.97l2.345,2.31A41.65,41.65,0,0,1,54.5,93V89.5a3.5,3.5,0,1,0-7,0V93a41.65,41.65,0,0,1-23.59-9.8l2.345-2.31a3.514,3.514,0,1,0-4.97-4.97l-2.31,2.345A41.65,41.65,0,0,1,9.175,54.5H12.5a3.5,3.5,0,1,0,0-7H9a41.65,41.65,0,0,1,9.8-23.59l2.31,2.345a3.514,3.514,0,1,0,4.97-4.97l-2.345-2.31A41.65,41.65,0,0,1,47.5,9.175V12.5a3.5,3.5,0,1,0,7,0V9a41.65,41.65,0,0,1,23.59,9.8l-2.345,2.31a3.514,3.514,0,0,0,4.97,4.97l2.31-2.345A41.65,41.65,0,0,1,93,47.5H89.5a3.5,3.5,0,1,0,0,7H93a41.65,41.65,0,0,1-9.975,23.59Z" transform="translate(0)" fill="#7f7f7f"/>
    <path id="Path_3612" data-name="Path 3612" d="M34.075,37.385,22,31.33V12.5a3.5,3.5,0,0,0-7,0v21a3.5,3.5,0,0,0,1.925,3.115l14,7A3.255,3.255,0,0,0,32.5,44a3.5,3.5,0,0,0,1.575-6.615Z" transform="translate(32.5 17.5)" fill="#7f7f7f"/>
  </g>
</svg>
