<svg id="Layer_2" data-name="Layer 2" xmlns="http://www.w3.org/2000/svg" width="160.173" height="160.174" viewBox="0 0 160.173 160.174">
  <path class="cls-1" id="Path_179" data-name="Path 179" d="M82.087,2a80.087,80.087,0,1,0,80.087,80.087A80.087,80.087,0,0,0,82.087,2Zm0,146.826a66.739,66.739,0,1,1,66.739-66.739,66.739,66.739,0,0,1-66.739,66.739Z" transform="translate(-2 -2)" fill="#fff"/>
  <path class="cls-1" id="Path_180" data-name="Path 180" d="M14.3,32.2a6.674,6.674,0,0,0-6.674,6.674V84.254a6.674,6.674,0,0,0,13.348,0V38.871A6.674,6.674,0,0,0,14.3,32.2Zm0-27.363A7.074,7.074,0,0,0,7.49,11.775v1.068A6.273,6.273,0,0,0,14.3,19.117h0a6.941,6.941,0,0,0,6.674-6.674v-1.6A6.007,6.007,0,0,0,14.3,4.834Z" transform="translate(65.789 32.539)" fill="#fff"/>
</svg>
