<svg xmlns="http://www.w3.org/2000/svg" width="26.588" height="31.461" viewBox="0 0 26.588 31.461">
  <path id="Path_3675" data-name="Path 3675" d="M20.253,3.887l1.373-2.476a.277.277,0,0,0-.484-.268l-1.388,2.5a9.355,9.355,0,0,0-7.512,0l-1.388-2.5a.277.277,0,1,0-.484.268l1.373,2.476A7.931,7.931,0,0,0,7.32,10.86H24.676a7.931,7.931,0,0,0-4.423-6.973Zm-8.26,3.8a.725.725,0,1,1,.725-.725A.725.725,0,0,1,11.992,7.685Zm8.011,0a.725.725,0,1,1,.725-.725A.725.725,0,0,1,20,7.685ZM7.32,24.126a2.1,2.1,0,0,0,2.1,2.1H10.81v4.291a1.946,1.946,0,1,0,3.891,0V26.224h2.594v4.291a1.946,1.946,0,1,0,3.891,0V26.224h1.392a2.1,2.1,0,0,0,2.1-2.1V11.547H7.32ZM4.649,11.213A1.948,1.948,0,0,0,2.7,13.159v8.106a1.946,1.946,0,1,0,3.891,0V13.159A1.948,1.948,0,0,0,4.649,11.213Zm22.7,0A1.948,1.948,0,0,0,25.4,13.159v8.106a1.946,1.946,0,1,0,3.891,0V13.159a1.948,1.948,0,0,0-1.945-1.946Z" transform="translate(-2.704 -1)" fill="#fff"/>
</svg>
