<svg xmlns="http://www.w3.org/2000/svg" width="34.516" height="40.5" viewBox="0 0 34.516 40.5">
  <g id="brave" transform="translate(-0.001 -0.002)">
    <path id="Subtraction_45" data-name="Subtraction 45" d="M-21008.455,20692.605a2.221,2.221,0,0,1-1.23-.434c-3.969-2.578-8.031-5.424-8.807-5.967l-.021-.018a7.122,7.122,0,0,1-2.754-3.979l-3.668-13.926-.807-3.061,1.24-3.387-.9-2.021a.542.542,0,0,1,.121-.59l2.4-2.428a3.755,3.755,0,0,1,2.715-1.152,3.8,3.8,0,0,1,1.275.223l.648.227,3.6-3.936,6.148-.053h.043l6.1.037,3.615,3.91.66-.227a3.747,3.747,0,0,1,1.25-.215,3.854,3.854,0,0,1,2.713,1.133l2.363,2.385a.687.687,0,0,1,.133.738l-.861,1.941,1.252,3.389-.8,3.07-3.637,13.932a7.17,7.17,0,0,1-2.738,3.973l-.016.012c-.684.484-4.32,3.045-8.818,5.988A2.208,2.208,0,0,1-21008.455,20692.605Zm-.043-15.705a1.709,1.709,0,0,0-.391.121l-1.752.729c-.166.07-.436.189-.6.27l-2.639,1.371a.224.224,0,0,0-.133.166.206.206,0,0,0,.1.172l2.332,1.646c.184.137.389.293.518.406l1.033.893c.139.119.355.309.486.428l1,.891a.384.384,0,0,0,.244.09.368.368,0,0,0,.242-.09l1.029-.891c.133-.121.346-.311.48-.428l1.039-.908c.137-.121.365-.3.512-.4l2.332-1.662a.21.21,0,0,0,.1-.178.2.2,0,0,0-.129-.154l-2.639-1.352c-.164-.08-.432-.2-.6-.27l-1.752-.729a1.62,1.62,0,0,0-.389-.121h-.434Zm5.844-14.533c.055,0,.1,0,.145.006l3.572.338c.084.008.135.027.141.055s-.041.061-.123.094l-5.541,2.105a.832.832,0,0,0-.434.416l-.232.529a.769.769,0,0,0,.027.58l1.9,3.557a.377.377,0,0,1-.127.475l-4.3,2.908a.677.677,0,0,0-.193.5.74.74,0,0,0,.236.521l2.047,1.852a2.644,2.644,0,0,0,.545.348l2.869,1.361a.465.465,0,0,0,.2.043.552.552,0,0,0,.338-.111l.9-.738a3.329,3.329,0,0,0,1.055-1.482l.254-.691a.909.909,0,0,0-.01-.6l-.936-2.2a.567.567,0,0,1,.1-.537l4.465-4.75c.07-.076.166-.184.258-.287l.08-.09.094-.107c-.01-.014.016-.061.057-.131l.014-.023a2.156,2.156,0,0,0,.225-.506,1.09,1.09,0,0,0,.053-.242,5.506,5.506,0,0,0-.035-.645l-.139-.4a4.578,4.578,0,0,0-.322-.564l-1.523-2.252c-.1-.148-.273-.381-.391-.523l-1.969-2.469a1.214,1.214,0,0,0-.225-.244h-.033s-.158.029-.322.055l-3.008.6c-.187.039-.465.094-.633.121l-.053.01a1.413,1.413,0,0,1-.213.016,1.564,1.564,0,0,1-.422-.053l-2.521-.812c-.172-.053-.439-.127-.617-.174a4.5,4.5,0,0,0-.857-.105h-.076a5.616,5.616,0,0,0-.93.105c-.176.041-.455.119-.623.174l-2.516.813a1.589,1.589,0,0,1-.424.053,1.421,1.421,0,0,1-.215-.016l-.053-.008c-.086-.016-.2-.039-.3-.059-.119-.025-.242-.051-.334-.064l-3.035-.564a2.872,2.872,0,0,0-.3-.055c-.023,0-.025,0-.025-.006l-.025,0a1.545,1.545,0,0,0-.232.242l-1.969,2.471c-.1.129-.271.361-.391.527l-1.525,2.248c-.1.162-.242.418-.32.57l-.139.389,0,.006a4.074,4.074,0,0,0-.033.639,1.23,1.23,0,0,0,.053.242,2.158,2.158,0,0,0,.32.623c.086.1.3.355.434.486l4.465,4.744a.556.556,0,0,1,.094.537l-.928,2.2a.9.9,0,0,0-.016.605l.258.688a3.385,3.385,0,0,0,1.061,1.482l.908.729a.537.537,0,0,0,.336.109.481.481,0,0,0,.2-.041l2.855-1.361a3.065,3.065,0,0,0,.543-.365l2.047-1.846a.7.7,0,0,0,.232-.5.72.72,0,0,0-.189-.527l-4.307-2.9a.38.38,0,0,1-.115-.471l1.883-3.561a.8.8,0,0,0,.033-.582l-.232-.521a.893.893,0,0,0-.434-.418l-5.541-2.078c-.082-.035-.123-.068-.121-.1s.057-.047.139-.053l3.572-.338a.76.76,0,0,1,.1-.006,2.923,2.923,0,0,1,.533.061l3.182.891a.361.361,0,0,1,.254.406l-1.105,6.053a1.619,1.619,0,0,0,.012.555.56.56,0,0,0,.391.295l2.211.467a1.374,1.374,0,0,0,.318.033,1.506,1.506,0,0,0,.32-.031l2.064-.471a.58.58,0,0,0,.391-.293,1.3,1.3,0,0,0,.01-.555l-1.094-6.053a.37.37,0,0,1,.26-.406l3.182-.893A1.931,1.931,0,0,1-21002.654,20662.367Z" transform="translate(21025.742 -20652.104)" fill="#fff"/>
  </g>
</svg>
