<svg id="chrome" xmlns="http://www.w3.org/2000/svg" width="32" height="32" viewBox="0 0 32 32">
  <path id="Path_3660" data-name="Path 3660" d="M16,24.188a7.927,7.927,0,0,1-4.438-1.312,8.33,8.33,0,0,1-3-3.375L2,8a16.29,16.29,0,0,0-2,8A15.406,15.406,0,0,0,3.906,26.469a15.634,15.634,0,0,0,9.719,5.344l4.641-8.031A7.43,7.43,0,0,1,16,24.188Z" fill="#fff"/>
  <path id="Path_3661" data-name="Path 3661" d="M10.969,9.531A7.839,7.839,0,0,1,16,8H29.75a16.129,16.129,0,0,0-5.781-5.875A15.589,15.589,0,0,0,16,0,15.676,15.676,0,0,0,9,1.594,15.472,15.472,0,0,0,3.359,6.188L8,14A8.172,8.172,0,0,1,10.969,9.531Z" fill="#fff"/>
  <path id="Path_3662" data-name="Path 3662" d="M30.8,10H21.5a8.537,8.537,0,0,1,2.688,6,8.183,8.183,0,0,1-1.438,4.688L16.188,32a15.36,15.36,0,0,0,11.188-4.75A15.451,15.451,0,0,0,32,16,14.234,14.234,0,0,0,30.8,10Z" fill="#fff"/>
  <circle id="Ellipse_618" data-name="Ellipse 618" cx="6" cy="6" r="6" transform="translate(10 10)" fill="#fff"/>
</svg>
