<svg xmlns="http://www.w3.org/2000/svg" width="32" height="34.908" viewBox="0 0 32 34.908">
  <path id="edge" d="M33,16.588a17.4,17.4,0,0,0-2-8.615A15.237,15.237,0,0,0,17.189,0C7.46-.019,2.011,7.405,1,15.462a19.452,19.452,0,0,1,15.322-8.8s7.626,0,6.912,7.388H11.007A11.309,11.309,0,0,1,13.4,8.5C8.177,10.954,4.923,15.263,5,21.751a13.626,13.626,0,0,0,8.4,12.1c5.795,2.241,13.4.506,16.7-1.5V25.005c-5.622,3.977-18.833,4.288-18.931-4.755H33ZM1.023,14.977c-.007.012-.016.022-.023.033h.019Z" transform="translate(-1 0)" fill="#fff"/>
</svg>
