<svg xmlns="http://www.w3.org/2000/svg" width="32.002" height="31.132" viewBox="0 0 32.002 31.132">
  <path id="firefox" d="M31.386,9.031q-.132-.13-.268-.258Zm-25.968,8.6s-.045.055-.113.147l-.028.151a1.369,1.369,0,0,1,.143-.3Zm4.5-7.269L10,10.274A14.786,14.786,0,0,1,25.889,6.982a11.078,11.078,0,0,1,3.48,1.149A15.427,15.427,0,0,0,9.442,9.91a2.8,2.8,0,0,0,.474.453Zm5.477,11.6a1.871,1.871,0,0,1-.277-.285,5.839,5.839,0,0,0-.044.706,4.806,4.806,0,0,0,.217,1.461,3.962,3.962,0,0,0,.822,1.445,4.636,4.636,0,0,0,1.031.856l-.024.038a10.4,10.4,0,0,0,2.738-.219,11.994,11.994,0,0,0,2.559-1.576c.394-.394.854-.2,1.247-.2s.525-.59,0-1.182a3.233,3.233,0,0,0-3.742-.262c-1.379.92-3.348.2-4.529-.787Zm.951-8.662a4.652,4.652,0,0,0-.164,1.193,3.5,3.5,0,0,0,.29,1.428,6.393,6.393,0,0,0,.773,1.314,5.072,5.072,0,0,1,.578-.459c.394-.262,1.9-.985,2.1-1.182s.59-1.247.262-1.576-2.429-.132-3.085-.262A1.633,1.633,0,0,1,16.346,13.3Zm.423,6.423,0,.008.007-.016ZM36.2,16.778a3.305,3.305,0,0,1-.575,1.421,2.5,2.5,0,0,0,.05-.7,9.843,9.843,0,0,0-.722-4.6,7.934,7.934,0,0,0-2.3-3.02v.46c-.2-.657-2.034-1.9-2.034-1.9V9.1c3.281,3.02,3.61,5.12,3.61,5.12-.59-1.9-2.3-3.348-3.742-4.725a11.924,11.924,0,0,0-4.463-2.1,13.607,13.607,0,0,1,4.792,4.725,4.131,4.131,0,0,0-2.954-1.444,9.464,9.464,0,0,1,2.363,2.954c.919,1.445.854,4.857.854,4.857A3.233,3.233,0,0,0,29.7,16.91s.2,1.969.328,3.085a11.5,11.5,0,0,1-.46,3.216c0-.787-.46-.985-.46-.985a6.315,6.315,0,0,1-.525,2.559c-.657,2.1-1.9,2.823-2.1,2.756s0-.394,0-.394-.328-.262-.787.46a3.013,3.013,0,0,1-1.254,1.026c.214-.122.27-.566.27-.566a9.663,9.663,0,0,1-2.559.59,3.746,3.746,0,0,1-3.085-.59c.2-.2,1.116,0,1.116,0,0-.2-1.05-.525-2.1-.657a1.882,1.882,0,0,1-1.465-.82,5.3,5.3,0,0,1-1-.864,4.58,4.58,0,0,1-.732-1.108,5.228,5.228,0,0,1-.473-2.234,6.994,6.994,0,0,1,.2-1.638,5.245,5.245,0,0,1,.208-.678l.014.006a1.3,1.3,0,0,1,.651-.808,2.787,2.787,0,0,0-.277-.168,2.19,2.19,0,0,0-1.392-.245,3.1,3.1,0,0,0-2.249,1.815,3.789,3.789,0,0,0-.309,1.51,4.316,4.316,0,0,0,.292,1.54,5.253,5.253,0,0,0,.794,1.377,7.145,7.145,0,0,0,1.14,1.135,7.1,7.1,0,0,1-1.209-1.077,5.407,5.407,0,0,1-.89-1.366,4.536,4.536,0,0,1-.395-1.6,4.072,4.072,0,0,1,.245-1.652,3.426,3.426,0,0,1,.958-1.409,4.142,4.142,0,0,1,.706-.481,3.054,3.054,0,0,1,.824-.3,2.672,2.672,0,0,1,.895-.03,2.911,2.911,0,0,1,.854.259,3.766,3.766,0,0,1,1.066.764c.051.051.1.1.151.16s.079.089.12.142a4.161,4.161,0,0,0,.031-1.832c-.123-.176-.3-.4-.5-.712a7.309,7.309,0,0,1-.476-.9,4.165,4.165,0,0,1-.347-1.695,5.37,5.37,0,0,1,.347-1.867,7.751,7.751,0,0,1,2.148-3.2c-2.494-.328-4.2,1.969-4.2,1.969l-.021-.013a3.291,3.291,0,0,0-.832,1.457,6.565,6.565,0,0,1,.272-1.707,5.6,5.6,0,0,0-2.646-.025l0,.021A4.8,4.8,0,0,0,9,11.75a6.791,6.791,0,0,0-1.236.961A7.48,7.48,0,0,0,6.686,14l-.018-.011A19.42,19.42,0,0,0,4.7,19.475a4.083,4.083,0,0,1,.722-1.312c-.657.985-.525,5.514-.525,5.514A4.539,4.539,0,0,1,5.29,22.1a15.074,15.074,0,0,0,5.054,10.042c4.267,3.675,7.877,4,7.877,4-.854-.263-1.05-.657-1.05-.657a10.066,10.066,0,0,0,4.463.919c-.46-.262-.525-.46-.525-.46,2.954.132,6.893-.919,7.811-1.576a7.783,7.783,0,0,0,1.707-1.969,9.753,9.753,0,0,0,4.463-4.6,3.818,3.818,0,0,0,0-2.429s0-.065,1.116-2.559,0-6.039,0-6.039ZM8.643,11.19a6.039,6.039,0,0,1,.895-.44A3.116,3.116,0,0,1,8.372,8.31a6.99,6.99,0,0,0-1.638,4.527l.054-.064a7.853,7.853,0,0,1,1.854-1.586Z" transform="translate(-4.7 -5.292)" fill="#fff"/>
</svg>
