<svg xmlns="http://www.w3.org/2000/svg" width="28.618" height="35.118" viewBox="0 0 28.618 35.118">
  <path id="linux" d="M31.456,29.036a2.469,2.469,0,0,1-.347-1.042,2.412,2.412,0,0,0-.869-1.737,1.317,1.317,0,0,0-.695-.347c1.042-3.127-.521-6.253-2.258-8.511h0c-1.39-2.084-3.474-3.648-3.3-6.427,0-3.3.347-9.38-5.732-8.859-6.253.347-4.516,6.774-4.69,9.032a8.286,8.286,0,0,1-2.258,5.385,5.278,5.278,0,0,0-.869,1.216,11.852,11.852,0,0,0-2.606,7.469,4.605,4.605,0,0,0-.869,1.042c-.174.174-.347.347-.347.521a3.8,3.8,0,0,1-.869.521,2.21,2.21,0,0,0-1.563,1.216,3.45,3.45,0,0,0-.174,1.911,1.469,1.469,0,0,1,0,1.216,2.96,2.96,0,0,0,0,2.432c.521.695,1.39.868,2.606,1.042a8.176,8.176,0,0,1,2.779.695h0a5.856,5.856,0,0,0,2.953.868,6.172,6.172,0,0,0,1.737-.347,2.335,2.335,0,0,0,1.042-1.216c.695,0,1.737-.347,2.953-.347a21.058,21.058,0,0,0,3.474.174.638.638,0,0,0,.174.521A2.957,2.957,0,0,0,23.986,37.2h.347a5.779,5.779,0,0,0,3.648-1.911h0a7.286,7.286,0,0,1,2.432-1.563c1.042-.521,1.737-.868,1.911-1.737A3.744,3.744,0,0,0,31.456,29.036ZM19.47,6.8a1.925,1.925,0,0,1,1.737,2.084,2.8,2.8,0,0,1-.521,1.563h-.174c-.347-.174-.521-.174-.695-.347.174-.174.174-.521.347-.868,0-.695-.347-1.216-.695-1.216-.521,0-.869.521-.869,1.216v.174c-.174-.174-.521-.174-.695-.347V8.888A1.886,1.886,0,0,1,19.47,6.8Zm-.521,3.474a1.317,1.317,0,0,0,.695.347,1.317,1.317,0,0,1,.695.347c.347.174.695.347.695.868s-.521,1.042-1.563,1.39c-.347.174-.521.174-.695.347a2.935,2.935,0,0,1-1.737.521,2.144,2.144,0,0,1-1.39-.695,2.4,2.4,0,0,0-.695-.521,2.671,2.671,0,0,1-.695-1.042c0-.174.174-.347.347-.521a4.752,4.752,0,0,0,.869-.695l.174-.174a2.138,2.138,0,0,1,1.737-.868A6.17,6.17,0,0,1,18.949,10.277ZM15.3,7.151c.695,0,1.216.695,1.39,1.911v.347A1.317,1.317,0,0,0,16,9.756V9.409c0-.521-.347-1.042-.695-.868-.347,0-.521.521-.521,1.042a.9.9,0,0,0,.347.695h0a.606.606,0,0,1-.347.174,2.144,2.144,0,0,1-.695-1.39C14.085,8.019,14.606,7.151,15.3,7.151ZM13.564,35.116a4.231,4.231,0,0,1-3.821-.347,6.36,6.36,0,0,0-3.127-.695c-.869-.174-1.737-.174-1.911-.521a2.144,2.144,0,0,1,.174-1.737,2.41,2.41,0,0,0,0-1.563,1.918,1.918,0,0,1,0-1.39c.174-.521.521-.695,1.042-.868A2.8,2.8,0,0,0,7.137,27.3a2.4,2.4,0,0,0,.521-.695c.521-.695.869-1.042,1.39-1.042,1.042.174,1.911,1.737,2.606,3.3A10.544,10.544,0,0,0,12.869,30.6a6.526,6.526,0,0,1,1.563,2.779A1.917,1.917,0,0,1,13.564,35.116Zm8.511-3.821c0,.174,0,.174-.174.347a6.626,6.626,0,0,1-7.122.521L13.738,30.6c1.563-.174,1.216-2.258-2.084-4.342C8.179,24,10.611,19.83,11.827,17.92c.174-.174.174,0-.521,1.39-.521,1.042-1.563,3.648-.174,5.558A11.939,11.939,0,0,1,12,20.7a27.214,27.214,0,0,0,2.606-7.469c.174.174.174.174.347.174.174.174.347.347.521.347a1.886,1.886,0,0,0,1.563.695h.174a2.612,2.612,0,0,0,1.911-.695.9.9,0,0,1,.695-.347,4.1,4.1,0,0,0,1.563-1.042,33.435,33.435,0,0,0,2.432,6.253,18.48,18.48,0,0,1,1.563,4.342,3.352,3.352,0,0,1,1.737.521c1.39.695,1.911,1.216,1.737,2.084H28.5c0-.521-.347-1.042-1.563-1.563s-2.258-.521-2.606.695c-.174,0-.347.174-.521.174-1.39.695-1.39,2.605-1.563,4.516A3.611,3.611,0,0,1,22.076,31.294Zm7.99,1.042a5.679,5.679,0,0,0-2.606,1.911,3.444,3.444,0,0,1-3.3,1.563A1.668,1.668,0,0,1,22.6,34.595a4.9,4.9,0,0,1,.347-3.127c.174-.695.347-1.216.521-1.911.174-2.084.174-3.3,1.042-3.821h0a1.889,1.889,0,0,0,1.216,1.737,3.251,3.251,0,0,0,2.432-.868H28.5a1.466,1.466,0,0,1,1.216.347,1.876,1.876,0,0,1,.521,1.216,5.52,5.52,0,0,0,.521,1.563c.869.868.869,1.39.869,1.563A4.007,4.007,0,0,1,30.066,32.337ZM14.433,11.493c-.174,0-.174,0-.174.174a.17.17,0,0,0,.174.174h0a.17.17,0,0,1,.174.174,3.642,3.642,0,0,0,2.432,1.216,5.5,5.5,0,0,0,2.606-1.042l1.042-.521a.17.17,0,0,0,.174-.174c0-.174,0-.174-.174-.174h0c-.347.174-.869.347-1.216.521a4.15,4.15,0,0,1-2.432.868,3.028,3.028,0,0,1-2.084-1.042C14.78,11.667,14.606,11.493,14.433,11.493Z" transform="translate(-3.75 -2.082)" fill="#fff"/>
</svg>
