<svg xmlns="http://www.w3.org/2000/svg" width="25.126" height="30.857" viewBox="0 0 25.126 30.857">
  <path id="mac" d="M34.406,18.277a6.821,6.821,0,0,0,4.142,6.244,16.886,16.886,0,0,1-2.135,4.389c-1.286,1.88-2.621,3.753-4.724,3.792-2.066.038-2.731-1.226-5.093-1.226s-3.1,1.186-5.056,1.263c-2.03.077-3.576-2.033-4.872-3.906C14.018,25,11.992,18.007,14.712,13.286A7.555,7.555,0,0,1,21.1,9.418c1.993-.038,3.874,1.341,5.093,1.341S29.693,9.1,32.1,9.344a7.208,7.208,0,0,1,5.644,3.061,6.98,6.98,0,0,0-3.335,5.871M30.523,6.81a6.8,6.8,0,0,0,1.605-4.927,6.916,6.916,0,0,0-4.546,2.339,6.458,6.458,0,0,0-1.637,4.773A5.723,5.723,0,0,0,30.523,6.81" transform="translate(-13.421 -1.883)" fill="#fff"/>
</svg>
