<svg id="mobile" xmlns="http://www.w3.org/2000/svg" width="17.537" height="29.526" viewBox="0 0 17.537 29.526">
  <path id="rect5102" d="M8.321,0A1.3,1.3,0,0,0,7,1.276V28.254a1.3,1.3,0,0,0,1.321,1.274h14.9a1.294,1.294,0,0,0,1.319-1.274V1.276A1.294,1.294,0,0,0,23.217,0ZM9.3.921a.461.461,0,1,1-.467.461A.464.464,0,0,1,9.3.921Zm4.158.013h3.692v.91H13.462ZM7.925,2.767H23.614V24.916H7.925Zm7.863,23.072a1.384,1.384,0,1,1-1.4,1.384,1.393,1.393,0,0,1,1.4-1.384Z" transform="translate(-7 -0.002)" fill="#fff"/>
</svg>
