<svg id="opera" xmlns="http://www.w3.org/2000/svg" width="31.18" height="31.18" viewBox="0 0 31.18 31.18">
  <path id="Path_3673" data-name="Path 3673" d="M22.1,3.474a7.448,7.448,0,0,0-8.355.313c3.534,1.308,6.123,5.777,6.123,11.1,0,5.343-2.61,9.813-6.142,11.1a7.405,7.405,0,0,0,8.3.365h0A15.566,15.566,0,0,0,22.1,3.474Z" transform="translate(4.106 0.701)" fill="#fff"/>
  <path id="Path_3674" data-name="Path 3674" d="M14.842,31.162c.244.018.5.018.748.018a15.55,15.55,0,0,0,10.391-3.96,11.246,11.246,0,0,1-6.248,1.911,11.971,11.971,0,0,1-9.272-4.752C3.853,16.125,9.033,2.055,19.732,2.055a11.188,11.188,0,0,1,6.243,1.911A15.579,15.579,0,0,0,15.641,0H15.59a15.59,15.59,0,0,0-.748,31.162Z" fill="#fff"/>
</svg>
