<svg id="safari" xmlns="http://www.w3.org/2000/svg" width="32.004" height="32.004" viewBox="0 0 32.004 32.004">
  <path id="Path_3664" data-name="Path 3664" d="M5.553,9.123a8.475,8.475,0,0,1-1.181-.7,12.633,12.633,0,0,0-1.7,9.253L3.881,17.4c.1-.013.284.057.284.18a.241.241,0,0,1-.18.271l-1.232.271a12.845,12.845,0,0,0,5.394,7.717c.161-.213.7-1.284.948-1.284a.24.24,0,0,1,.232.232,10.59,10.59,0,0,1-.787,1.3A12.7,12.7,0,0,0,17.793,27.7l-.284-1.212c-.013-.091.057-.271.18-.271.149,0,.252.019.271.18l.284,1.193a12.843,12.843,0,0,0,7.608-5.375c-.213-.129-1.049-.553-1.051-.787a.243.243,0,0,1,.244-.232,8.729,8.729,0,0,1,1.071.627A12.716,12.716,0,0,0,27.974,15.2a12.94,12.94,0,0,0-.252-2.5l-1.02.232c-.091.013-.271-.057-.271-.18,0-.141.019-.245.18-.284l1-.213a12.769,12.769,0,0,0-5.273-7.628c-.128.213-.605,1.143-.857,1.143a.225.225,0,0,1-.213-.233,7.157,7.157,0,0,1,.7-1.161A12.771,12.771,0,0,0,15.2,2.426a13.42,13.42,0,0,0-2.394.233l.271,1.181c.013.1-.051.284-.18.284a.241.241,0,0,1-.271-.18l-.268-1.2a12.863,12.863,0,0,0-7.73,5.285c.213.148,1.161.625,1.161.877A.223.223,0,0,1,5.553,9.123Zm8.228,5.031C14,13.779,21.812,6.593,22.658,5.8l-6.25,10.367c-.2.343-8.04,7.574-8.86,8.344Z" transform="translate(0.808 0.809)" fill="#fff"/>
  <path id="Path_3665" data-name="Path 3665" d="M16,32A16,16,0,1,0,0,16,16,16,0,0,0,16,32ZM16,1.716A14.286,14.286,0,1,1,1.716,16,14.283,14.283,0,0,1,16,1.716Z" fill="#fff"/>
  <path id="Path_3666" data-name="Path 3666" d="M12.128,11.182a1.092,1.092,0,1,0,1.123,1.039A1.078,1.078,0,0,0,12.128,11.182Z" transform="translate(3.694 3.729)" fill="#fff"/>
</svg>
