<svg id="ubuntu" xmlns="http://www.w3.org/2000/svg" width="32.563" height="32.734" viewBox="0 0 32.563 32.734">
  <ellipse id="Ellipse_615" data-name="Ellipse 615" cx="3.41" cy="3.41" rx="3.41" ry="3.41" transform="translate(0 12.957)" fill="#fff"/>
  <ellipse id="Ellipse_616" data-name="Ellipse 616" cx="3.41" cy="3.41" rx="3.41" ry="3.41" transform="translate(22.505 25.914)" fill="#fff"/>
  <ellipse id="Ellipse_617" data-name="Ellipse 617" cx="3.41" cy="3.41" rx="3.41" ry="3.41" transform="translate(22.505)" fill="#fff"/>
  <path id="Path_3657" data-name="Path 3657" d="M13.056,8.712a.675.675,0,0,0,.757.321,6.772,6.772,0,0,1,8.221,4.745.681.681,0,0,0,.656.5h5.574a.685.685,0,0,0,.674-.79,13.621,13.621,0,0,0-3.1-6.709.682.682,0,0,0-.9-.124,4.743,4.743,0,0,1-2.641.8,4.787,4.787,0,0,1-4.766-4.71.682.682,0,0,0-.611-.668,13.726,13.726,0,0,0-6.308.828.682.682,0,0,0-.346.978Z" transform="translate(3.617 0.729)" fill="#fff"/>
  <path id="Path_3658" data-name="Path 3658" d="M28.264,13H22.689a.681.681,0,0,0-.656.5,6.771,6.771,0,0,1-8.221,4.745.682.682,0,0,0-.757.321l-2.789,4.831a.682.682,0,0,0,.346.978,13.564,13.564,0,0,0,6.308.828.682.682,0,0,0,.611-.668,4.762,4.762,0,0,1,7.406-3.909.682.682,0,0,0,.9-.124,13.617,13.617,0,0,0,3.1-6.708.681.681,0,0,0-.674-.79Z" transform="translate(3.617 4.731)" fill="#fff"/>
  <path id="Path_3659" data-name="Path 3659" d="M12.623,19.611a6.8,6.8,0,0,1,0-9.5.681.681,0,0,0,.1-.817L9.94,4.477a.678.678,0,0,0-1.022-.188,13.647,13.647,0,0,0-4.3,6.153.681.681,0,0,0,.211.749,4.7,4.7,0,0,1,0,7.346.679.679,0,0,0-.211.749,13.665,13.665,0,0,0,4.3,6.153.685.685,0,0,0,1.022-.188l2.784-4.823A.681.681,0,0,0,12.623,19.611Z" transform="translate(1.582 1.504)" fill="#fff"/>
</svg>
