<svg xmlns="http://www.w3.org/2000/svg" width="110" height="110" viewBox="0 0 110 110">
  <g id="hop" transform="translate(-1141 -955)">
    <circle id="Ellipse_610" data-name="Ellipse 610" cx="55" cy="55" r="55" transform="translate(1141 955)" fill="#838383"/>
    <path id="Path_3607" data-name="Path 3607" d="M53.4,0c5.694,1.021,9.826,6.247,12.03,10.876-3.8-1.618-6.487-4.746-11.371-5.932C53.842,3.312,53.622,1.648,53.4,0ZM46.975,5.6c8.019.311,12.578,3.1,17.139,6.756l2.966,3.3c1.4.81,3.285.392,4.944,1.648,1.47,1.113,7.552,4.972,5.273,7.745-2.59,5.02-11.184-1.242-14.172,2.307,2.425-.292,5.578-.025,7.086,1.154C68.189,31.3,65.077,33.117,62.96,35.6l.165.329L67.9,37.573h3.955c1.995.428,4.861,4.477,5.273,6.592l-.494.165c-.72.806-2.083.771-3.3.495A10.925,10.925,0,0,0,70.376,41.2C62,44.57,57.342,39.516,53.237,35.6l-.33.165c-.047,2.61.8,3.649,1.318,5.438-5.514,1.729-10.409,4.915-17.468,5.438,1.9-3.378,3.33-9.773,0-13.019h-.165c1.429,11.561-6.46,17.859-16.15,19.446-4.2.688-7.43-.884-10.547-1.318-.427,2.785-3.71,5.53-6.1,6.427-1.442.542-3.917-.037-3.3-1.154,1.812-2.691,3.642-5.384,5.438-8.075,8.013.019,13.3-5.812,13.019-13.843-8.844-1.156-1.752-13.781,3.131-8.734-.684.92-2.564,3.291-1.483,4.779,3.4-7.269,12.167-3.108,20.929-4.614,7.9-1.358,14.717-2.99,20.434-6.427l.33-.989C53.483,16.35,47.868,13.472,43.514,6.427l.165-.33Z" transform="translate(1154.832 977.957)" fill="#fff"/>
  </g>
</svg>
