<svg xmlns="http://www.w3.org/2000/svg" width="77.635" height="60.999" viewBox="0 0 77.635 60.999">
  <g id="Group_4021" data-name="Group 4021" transform="translate(-2.002 -5.003)">
    <path id="Path_3571" data-name="Path 3571" d="M4.77,66h72.1a2.773,2.773,0,0,0,2.329-4.27L43.149,6.271a2.773,2.773,0,0,0-4.659,0L2.441,61.731A2.773,2.773,0,0,0,4.77,66ZM40.819,12.843,71.766,60.456H9.872Z" transform="translate(0)" fill="#ea1616"/>
    <path id="Path_3572" data-name="Path 3572" d="M17.773,36.957A2.773,2.773,0,0,0,15,39.73V42.5a2.773,2.773,0,0,0,5.546,0V39.73A2.773,2.773,0,0,0,17.773,36.957Zm0-24.957A2.773,2.773,0,0,0,15,14.773V31.411a2.773,2.773,0,0,0,5.546,0V14.773A2.773,2.773,0,0,0,17.773,12Z" transform="translate(23.046 12.407)" fill="#ea1616"/>
  </g>
</svg>
