<svg xmlns="http://www.w3.org/2000/svg" width="100.049" height="118.446" viewBox="0 0 100.049 118.446">
  <g id="Group_389" data-name="Group 389" transform="translate(-1731 -2928)">
    <path id="Path_300" data-name="Path 300" d="M58.145,84.912H33.612a5.922,5.922,0,1,0,0,11.845H58.145a5.922,5.922,0,1,0,0-11.845ZM98.757,43.1a7.758,7.758,0,0,0-.355-1.6v-.533a6.337,6.337,0,0,0-1.125-1.658h0L61.743,3.777h0a6.337,6.337,0,0,0-1.658-1.125,1.9,1.9,0,0,0-.533,0A5.212,5.212,0,0,0,57.6,2H21.767A17.767,17.767,0,0,0,4,19.767v82.912a17.767,17.767,0,0,0,17.767,17.767H58.145a5.922,5.922,0,1,0,0-11.845H21.767a5.922,5.922,0,0,1-5.922-5.922V19.767a5.922,5.922,0,0,1,5.922-5.922H51.379V31.612A17.767,17.767,0,0,0,69.145,49.379H86.912V81.223a5.922,5.922,0,0,0,11.845,0V43.1ZM69.145,37.534a5.922,5.922,0,0,1-5.922-5.922V22.2L78.562,37.534Z" transform="translate(1727 2926)" fill="#3591fb"/>
    <path id="Path_301" data-name="Path 301" d="M12.1,40.05a3.1,3.1,0,0,1-3.1-3.1V12.1a3.1,3.1,0,0,1,4.493-2.779l24.84,12.42a3.108,3.108,0,0,1,0,5.558l-24.84,12.42A3.119,3.119,0,0,1,12.1,40.05Z" transform="translate(1791 3006.396)" fill="#3591fb"/>
    <path id="Path_302" data-name="Path 302" d="M138.4,145.786l9.326-9.326a.954.954,0,0,0,0-1.367l-1.549-1.549a.954.954,0,0,0-1.367,0l-7.093,7.093-3.2-3.2a.954.954,0,0,0-1.367,0l-1.549,1.549a.954.954,0,0,0,0,1.367l5.438,5.438a.954.954,0,0,0,1.367,0Zm12.925-13.411v14.581a4.382,4.382,0,0,1-4.374,4.374H132.374A4.382,4.382,0,0,1,128,146.955V132.374A4.382,4.382,0,0,1,132.374,128h14.581a4.382,4.382,0,0,1,4.374,4.374Z" transform="translate(1627.049 2850.146)" fill="#3591fb"/>
  </g>
</svg>
