<svg xmlns="http://www.w3.org/2000/svg" width="22.357" height="14.789" viewBox="0 0 22.357 14.789">
  <g id="duplicate" transform="translate(0.324 -10.318)">
    <path id="Path_3202" data-name="Path 3202" d="M211.314,20.972H200.35V9.988h10.964a.5.5,0,0,1,.517.436V20.537A.5.5,0,0,1,211.314,20.972Z" transform="translate(-190.798 1.343)" fill="none" stroke="#e28000" stroke-width="2" fill-rule="evenodd"/>
    <path id="Path_3203" data-name="Path 3203" d="M175.163,279.755h4.168a.3.3,0,0,1,.3.3v.846a.3.3,0,0,1-.3.3h-4.168a.3.3,0,0,1-.3-.3v-.846A.3.3,0,0,1,175.163,279.755Z" transform="translate(-167.001 -256.101)" fill="#e28000" fill-rule="evenodd"/>
    <path id="Rectangle_3124" data-name="Rectangle 3124" d="M1,0H9A0,0,0,0,1,9,0V13a0,0,0,0,1,0,0H1a1,1,0,0,1-1-1V1A1,1,0,0,1,1,0Z" transform="translate(-0.324 10.318)" fill="#e28000"/>
  </g>
</svg>
