<svg xmlns="http://www.w3.org/2000/svg" width="70.359" height="70.359" viewBox="0 0 70.359 70.359">
  <g id="_1" data-name="1" transform="translate(94.208 78.359) rotate(180)">
    <path id="Path_3581" data-name="Path 3581" d="M43.179,8A35.179,35.179,0,1,0,78.359,43.179,35.179,35.179,0,0,0,43.179,8Zm0,61.564A26.385,26.385,0,1,1,69.564,43.179,26.385,26.385,0,0,1,43.179,69.564Z" transform="translate(15.849 0)" fill="#ea1616"/>
    <path id="Path_3582" data-name="Path 3582" d="M59.029,38.782a4.4,4.4,0,0,0-4.4,4.4V56.372a4.4,4.4,0,0,0,8.795,0V43.18A4.4,4.4,0,0,0,59.029,38.782Zm3.122-11.917a5.1,5.1,0,0,0-1.451-.923,4.4,4.4,0,0,0-3.342,0,4,4,0,0,0-2.375,2.375,4.4,4.4,0,0,0-.352,1.671,4.617,4.617,0,0,0,1.275,3.122,5.1,5.1,0,0,0,1.451.923,4.134,4.134,0,0,0,3.342,0,5.1,5.1,0,0,0,1.451-.923,4.617,4.617,0,0,0,1.275-3.122,4.4,4.4,0,0,0-.352-1.671,5.1,5.1,0,0,0-.923-1.451Z" transform="translate(0 0)" fill="#ea1616"/>
  </g>
</svg>
