<svg xmlns="http://www.w3.org/2000/svg" width="15" height="15" viewBox="0 0 15 15">
  <g id="interface" transform="translate(-669 -513)">
    <rect id="Rectangle_2734" data-name="Rectangle 2734" width="15" height="15" transform="translate(669 513)" fill="none"/>
    <path id="Path_2941" data-name="Path 2941" d="M7.167,0a7.167,7.167,0,1,0,7.167,7.167A7.171,7.171,0,0,0,7.167,0Zm0,.551A6.616,6.616,0,1,1,.551,7.167,6.612,6.612,0,0,1,7.167.551Z" transform="translate(669.27 513.333)" fill="#3693ff"/>
    <path id="Path_2942" data-name="Path 2942" d="M8.563,3.583a1.46,1.46,0,0,0-.375,2.881V7.979H4.434v2.258a1.5,1.5,0,1,0,.751,0V8.712H8.563v.007h3.378v1.519a1.5,1.5,0,1,0,.751,0V7.986H8.938V6.466a1.46,1.46,0,0,0-.375-2.881Zm0,.733a.734.734,0,1,1-.751.733A.737.737,0,0,1,8.563,4.317Zm-3.753,6.6a.734.734,0,1,1-.751.733A.737.737,0,0,1,4.809,10.918Zm7.507,0a.734.734,0,1,1-.751.733A.737.737,0,0,1,12.316,10.918Z" transform="translate(667.874 511.556)" fill="#3693ff"/>
  </g>
</svg>
