<svg xmlns="http://www.w3.org/2000/svg" width="15" height="15" viewBox="0 0 15 15">
  <g id="notes" transform="translate(-648 -515)">
    <rect id="Rectangle_2733" data-name="Rectangle 2733" width="15" height="15" transform="translate(648 515)" fill="none"/>
    <g id="book_x5F_alt2" transform="translate(648.339 516.207)">
      <path id="Path_2937" data-name="Path 2937" d="M7.161,1.79S5.371,0,0,0V10.742c5.427,0,7.161,1.79,7.161,1.79s1.734-1.79,7.161-1.79V0C8.952,0,7.161,1.79,7.161,1.79Zm-5.371,0A11.533,11.533,0,0,1,6.266,2.934v7.21A11.6,11.6,0,0,0,1.79,9ZM12.532,9a11.58,11.58,0,0,0-4.476,1.144V2.934A11.523,11.523,0,0,1,12.532,1.79Z" fill="#2892b4"/>
    </g>
  </g>
</svg>
