<svg xmlns="http://www.w3.org/2000/svg" width="12.354" height="9.159" viewBox="0 0 12.354 9.159">
  <g id="sensor" transform="translate(-992.512 20.597) rotate(-90)">
    <path id="path7997" d="M38.031,978.512a6.307,6.307,0,0,0-4.454,1.857.317.317,0,0,0-.116.178c-.006.014-.015.021-.018.036v.009c-.057.3.436.485.6.232a5.625,5.625,0,0,1,7.971,0,.338.338,0,0,0,.482-.473,6.277,6.277,0,0,0-4.463-1.839Zm0,1.955a4.339,4.339,0,0,0-3.071,1.267.323.323,0,0,0-.1.205.355.355,0,0,0,.58.277,3.647,3.647,0,0,1,5.168,0,.355.355,0,0,0,.482.009.347.347,0,0,0,0-.491,4.318,4.318,0,0,0-3.062-1.268Zm-2.839,6.605a.327.327,0,0,0-.25.571,4.348,4.348,0,0,0,6.132,0,.322.322,0,0,0,.1-.205.352.352,0,0,0-.58-.268,3.647,3.647,0,0,1-5.168,0A.323.323,0,0,0,35.192,987.072Zm7.079,1.366a.278.278,0,0,0-.277.116,5.625,5.625,0,0,1-7.971,0,.335.335,0,0,0-.473.473,6.3,6.3,0,0,0,8.908-.009.317.317,0,0,0,.116-.178.288.288,0,0,0,.018-.045c.036-.185-.143-.335-.321-.357Z" transform="translate(-22 14)" fill="#ce27ff"/>
    <circle id="Ellipse_401" data-name="Ellipse 401" cx="1.999" cy="1.999" r="1.999" transform="translate(14.119 996.712)" fill="#ce27ff"/>
  </g>
</svg>
