<svg xmlns="http://www.w3.org/2000/svg" width="15.752" height="11.678" viewBox="0 0 15.752 11.678">
  <g id="sensoralert" transform="translate(-992.512 23.116) rotate(-90)">
    <path id="path7997" d="M39.294,978.512a8.042,8.042,0,0,0-5.679,2.367.4.4,0,0,0-.148.228c-.007.018-.019.027-.023.045v.011c-.073.377.555.619.763.3a7.172,7.172,0,0,1,10.164,0,.431.431,0,0,0,.615-.6,8,8,0,0,0-5.691-2.345Zm0,2.492a5.532,5.532,0,0,0-3.915,1.616.411.411,0,0,0-.125.262.453.453,0,0,0,.74.353,4.651,4.651,0,0,1,6.59,0,.453.453,0,0,0,.615.011.443.443,0,0,0,0-.626,5.505,5.505,0,0,0-3.9-1.616Zm-3.619,8.422a.418.418,0,0,0-.319.728,5.544,5.544,0,0,0,7.819,0,.411.411,0,0,0,.125-.262.449.449,0,0,0-.74-.341,4.65,4.65,0,0,1-6.59,0A.412.412,0,0,0,35.675,989.427Zm9.025,1.741a.354.354,0,0,0-.353.148,7.172,7.172,0,0,1-10.164,0,.427.427,0,0,0-.6.6,8.037,8.037,0,0,0,11.359-.011.4.4,0,0,0,.148-.228.362.362,0,0,0,.023-.057c.046-.236-.182-.428-.41-.455Z" transform="translate(-22 14)" fill="#f90d0d"/>
    <circle id="Ellipse_401" data-name="Ellipse 401" cx="2.036" cy="2.036" r="2.036" transform="translate(15.351 998.378)" fill="#f90d0d"/>
  </g>
</svg>
