<svg xmlns="http://www.w3.org/2000/svg" width="13.429" height="13.428" viewBox="0 0 13.429 13.428">
  <path id="ticket" d="M3.675,8.414l2.536,2.538L10.867,6.3,8.329,3.76,3.675,8.414ZM13.816,4.931l-1.079-1.08A1.446,1.446,0,0,1,10.775,1.89L9.7.81a.726.726,0,0,0-1.023,0L.809,8.674a.726.726,0,0,0,0,1.023l1.08,1.079a1.446,1.446,0,0,1,1.962,1.963l1.08,1.079a.725.725,0,0,0,1.023,0l7.862-7.862a.725.725,0,0,0,0-1.023Zm-7.6,7.182-3.7-3.7L8.33,2.6l3.7,3.7L6.211,12.113Z" transform="translate(-0.598 -0.599)" fill="#67d44d"/>
</svg>
