<svg xmlns="http://www.w3.org/2000/svg" width="15" height="15" viewBox="0 0 15 15">
  <g id="ticket" transform="translate(-686 -513)">
    <rect id="Rectangle_2735" data-name="Rectangle 2735" width="15" height="15" transform="translate(686 513)" fill="none"/>
    <path id="Path_2940" data-name="Path 2940" d="M3.818,8.777l2.654,2.655,4.871-4.871L8.688,3.907l-4.87,4.87ZM14.429,5.132,13.3,4A1.513,1.513,0,0,1,11.247,1.95L10.118.82a.76.76,0,0,0-1.07,0L.819,9.048a.76.76,0,0,0,0,1.07l1.13,1.129A1.513,1.513,0,0,1,4,13.3l1.13,1.129a.759.759,0,0,0,1.07,0L14.429,6.2a.759.759,0,0,0,0-1.07ZM6.472,12.647,2.6,8.777,8.689,2.692l3.868,3.868L6.472,12.647Z" transform="translate(685.876 512.875)" fill="#fd0"/>
  </g>
</svg>
