<svg id="Group_4556" data-name="Group 4556" xmlns="http://www.w3.org/2000/svg" width="20" height="20" viewBox="0 0 20 20">
  <path id="Path_9763" data-name="Path 9763" d="M7,17.333A1.667,1.667,0,1,0,8.667,19,1.659,1.659,0,0,0,7,17.333ZM2,4V5.667H3.667l3,6.321L5.538,14.029a1.694,1.694,0,0,0-.2.8A1.666,1.666,0,0,0,7,16.5H17V14.833H7.354a.206.206,0,0,1-.208-.208.2.2,0,0,1,.025-.1l.746-1.358h6.208a1.672,1.672,0,0,0,1.458-.858L18.563,6.9a.806.806,0,0,0,.1-.4.833.833,0,0,0-.833-.833H5.513L4.721,4H2ZM15.333,17.333A1.667,1.667,0,1,0,17,19,1.659,1.659,0,0,0,15.333,17.333Z" transform="translate(-1.167 -2.333)" fill="#fff"/>
  <path id="Path_9764" data-name="Path 9764" d="M0,0H20V20H0Z" fill="none"/>
</svg>
