<svg id="Group_4557" data-name="Group 4557" xmlns="http://www.w3.org/2000/svg" width="9.8" height="9.8" viewBox="0 0 9.8 9.8">
  <path id="Path_9765" data-name="Path 9765" d="M.532,0a.532.532,0,0,1,.532.532V4.786A.532.532,0,1,1,0,4.786V.532A.532.532,0,0,1,.532,0Z" transform="translate(2.242 5.432) rotate(-90)" fill="#fc3333"/>
  <path id="Path_9766" data-name="Path 9766" d="M2,6.9a4.9,4.9,0,1,1,4.9,4.9A4.9,4.9,0,0,1,2,6.9ZM6.9,2.7a4.2,4.2,0,1,0,4.2,4.2A4.2,4.2,0,0,0,6.9,2.7Z" transform="translate(-2 -2)" fill="#fc3333" fill-rule="evenodd"/>
</svg>
