<svg xmlns="http://www.w3.org/2000/svg" width="16.872" height="18.265" viewBox="0 0 16.872 18.265">
  <path id="Path_10" data-name="Path 10" d="M11.607,20.264A1.889,1.889,0,0,0,13.5,18.375H9.717a1.889,1.889,0,0,0,1.89,1.889ZM5.4,10.38l-.146,2.973a3.738,3.738,0,0,1-.986,2.3l-.146.117a1.115,1.115,0,0,0,.716,1.973H17.228L6.708,6.851A6.2,6.2,0,0,0,5.4,10.38Zm13.633,5.362-.007-.007a3.749,3.749,0,0,1-1.11-2.557l-.051-2.63a6.227,6.227,0,0,0-1.87-4.325,6.371,6.371,0,0,0-2.182-1.387V4.2A2.2,2.2,0,1,0,9.4,4.2v.653a6.289,6.289,0,0,0-1.065.525l11.1,11.492a1.063,1.063,0,0,0-.4-1.132Zm1.455,3.266L6.144,4.177a.365.365,0,0,0-.525.508L19.963,19.515a.366.366,0,1,0,.525-.508Z" transform="translate(-3.719 -2)" fill="#fff"/>
</svg>
