<svg xmlns="http://www.w3.org/2000/svg" width="11.458" height="11.847" viewBox="0 0 11.458 11.847">
  <g id="Group_5942" data-name="Group 5942" transform="translate(-1.483 1.357)">
    <g id="Group_5943" data-name="Group 5943" transform="translate(2 -0.789)">
      <path id="Path_19" data-name="Path 19" d="M1.885,1.318c0-.225,0-.436,0-.648A3.341,3.341,0,0,1,1.9.3.331.331,0,0,1,2.243,0a.337.337,0,0,1,.323.34c0,.319,0,.638,0,.967H9.019c0-.045.008-.091.008-.138,0-.262,0-.523,0-.785a.343.343,0,1,1,.681,0c0,.3,0,.61,0,.931h.153c.4,0,.8,0,1.195,0a.353.353,0,0,1,.4.4q0,4.861,0,9.722c0,.285-.131.4-.437.4H.429c-.3,0-.429-.122-.429-.426Q0,6.585,0,1.75c0-.311.123-.431.437-.432H1.885Zm-1.2,9.835H10.762V4.581H.689Zm0-7.264H10.764V2.008H9.709c0,.3,0,.6,0,.9a.343.343,0,1,1-.681,0c0-.253,0-.505,0-.758,0-.047,0-.094-.006-.138H2.567c0,.321,0,.631,0,.94a.336.336,0,0,1-.324.338.326.326,0,0,1-.345-.3c-.016-.221-.01-.443-.012-.664,0-.1,0-.209,0-.317H.688Z" transform="translate(-0.517 -0.567)" fill="#3693ff"/>
      <path id="Path_20" data-name="Path 20" d="M105.378,156.028a1.348,1.348,0,0,1-.208-2.076,1.332,1.332,0,1,1,1.649,2.074,2.021,2.021,0,0,1,1.233,2.244h-3.908a2.093,2.093,0,0,1,.217-1.345,2.07,2.07,0,0,1,1.017-.9m1.964,1.214c-.224.458-.741.515-1.422.506-.617-.008-.657.118-1.106-.143l.091-.013Zm-.575-2.345c0-.363-.483.854-.847.855l-.542-.185.054-.669a.673.673,0,0,0,.676.669c.365,0,.144-.824.142-1.189" transform="translate(-100.885 -148.888)" fill="#3693ff"/>
    </g>
  </g>
</svg>
