<svg id="Group_4163" data-name="Group 4163" xmlns="http://www.w3.org/2000/svg" width="45.258" height="45.258" viewBox="0 0 45.258 45.258">
  <rect id="Rectangle_3916" data-name="Rectangle 3916" width="45.258" height="45.258" fill="none"/>
  <path id="Path_3676" data-name="Path 3676" d="M8.644,192.051h-2.4A4.244,4.244,0,0,0,2,196.294v15.557a4.243,4.243,0,0,0,4.243,4.243H37.358a4.243,4.243,0,0,0,4.243-4.243V196.294a4.243,4.243,0,0,0-4.243-4.243h-13.8a1.414,1.414,0,0,0,0,2.829h13.8a1.415,1.415,0,0,1,1.414,1.414v15.557a1.414,1.414,0,0,1-1.414,1.414H6.243a1.414,1.414,0,0,1-1.414-1.414V196.294a1.415,1.415,0,0,1,1.414-1.414h2.4a1.414,1.414,0,1,0,0-2.829ZM23.571,202.14a6.913,6.913,0,0,0-6.83-5.845h-1.2a6.913,6.913,0,0,0-6.83,5.845c-.279,1.786-.58,3.713-.786,5.032a2.829,2.829,0,0,0,2.795,3.266H21.563a2.828,2.828,0,0,0,2.795-3.264Zm3.887,6.883h7.072a1.414,1.414,0,0,0,0-2.829H27.458a1.414,1.414,0,0,0,0,2.829Zm0-5.657h5.657a1.414,1.414,0,0,0,0-2.829H27.458a1.414,1.414,0,0,0,0,2.829ZM16.143,184.98a4.95,4.95,0,1,0,4.95,4.95A4.953,4.953,0,0,0,16.143,184.98Z" transform="translate(0.829 -177.908)" fill="#3693ff"/>
</svg>
