<svg xmlns="http://www.w3.org/2000/svg" width="46" height="40.891" viewBox="0 0 46 40.891">
  <g id="alarm" transform="translate(-1 -2.5)">
    <path id="Path_3534" data-name="Path 3534" d="M35.685,34.776a17.889,17.889,0,1,0-27.593,0L4.5,38.37a1.7,1.7,0,0,0,2.409,2.409L10.5,37.185a17.89,17.89,0,0,0,22.775,0l3.593,3.593a1.7,1.7,0,1,0,2.409-2.409Zm-13.8,4.8A16.185,16.185,0,1,1,38.074,23.389,16.185,16.185,0,0,1,21.889,39.574Z" transform="translate(2.111 2.111)" fill="#00cd8f"/>
    <path id="Path_3535" data-name="Path 3535" d="M21.889,41.278A17.889,17.889,0,1,1,39.778,23.389,17.909,17.909,0,0,1,21.889,41.278Zm0-32.37A14.481,14.481,0,1,0,36.37,23.389,14.5,14.5,0,0,0,21.889,8.907Z" transform="translate(2.111 2.111)" fill="#00cd8f"/>
    <path id="Path_3536" data-name="Path 3536" d="M3.871,18.605A21.092,21.092,0,0,1,5.4,15.153,5.954,5.954,0,0,1,13.653,6.9a21.092,21.092,0,0,1,3.452-1.53A9.36,9.36,0,1,0,3.87,18.6Z" fill="#00cd8f"/>
    <path id="Path_3537" data-name="Path 3537" d="M19.37,22.278H10V18.87h5.963V9.5H19.37Z" transform="translate(6.333 4.926)" fill="#00cd8f"/>
    <path id="Path_3538" data-name="Path 3538" d="M22,6.9a5.954,5.954,0,0,1,8.253,8.253,21.093,21.093,0,0,1,1.53,3.452A9.36,9.36,0,1,0,18.547,5.37,21.427,21.427,0,0,1,22,6.9Z" transform="translate(12.348)" fill="#00cd8f"/>
  </g>
</svg>
