<svg xmlns="http://www.w3.org/2000/svg" width="52" height="52" viewBox="0 0 52 52">
  <g id="analog" transform="translate(-0.004 -0.234)">
    <g id="Ellipse_531" data-name="Ellipse 531" transform="translate(0.004 0.234)" fill="none" stroke="#d9d200" stroke-width="3">
      <circle cx="26" cy="26" r="26" stroke="none"/>
      <circle cx="26" cy="26" r="24.5" fill="none"/>
    </g>
    <g id="layer1" transform="translate(10.427 18.817)">
      <path id="path5259-3" d="M33.03,1006.36a3.913,3.913,0,0,0-2.424.916,8.586,8.586,0,0,0-1.873,2.214A40.838,40.838,0,0,0,25.7,1016a52.969,52.969,0,0,1-2.81,6.386,8.141,8.141,0,0,1-1.515,2.01,2.329,2.329,0,0,1-1.57.687,3.277,3.277,0,0,1-2.7-1.3,7.494,7.494,0,0,1-.7-1.03,17.814,17.814,0,0,1-.983-2.1,17.7,17.7,0,0,0-1.625-3.282,3.454,3.454,0,0,0-2.865-1.654H9.519c-.243,0-.441,2.434-.441,2.659a.425.425,0,0,0,.441.407h1.419a2.493,2.493,0,0,1,2.149,1.272,17.9,17.9,0,0,1,1.515,3.155,12.765,12.765,0,0,0,1.818,3.307,4.291,4.291,0,0,0,3.388,1.628,3.267,3.267,0,0,0,2.176-.916,8.778,8.778,0,0,0,1.68-2.213,52.911,52.911,0,0,0,2.865-6.488,40.681,40.681,0,0,1,2.947-6.386,7.971,7.971,0,0,1,1.708-2.01,2.919,2.919,0,0,1,1.846-.712,3.957,3.957,0,0,1,2.892,1.323,13.373,13.373,0,0,1,2.121,3.13c.612,1.157,1.146,2.344,1.708,3.256a5.135,5.135,0,0,0,.881,1.145,1.817,1.817,0,0,0,1.212.509h1.921a.425.425,0,0,0,.441-.407c0-.225-.2-2.659-.441-2.659H41.845a.85.85,0,0,1-.578-.28,4.567,4.567,0,0,1-.744-.967c-.519-.843-1.055-2.023-1.68-3.206a13.94,13.94,0,0,0-2.286-3.307A4.909,4.909,0,0,0,33.03,1006.36Z" transform="translate(-10.914 -1009.36)" fill="#d9d200"/>
    </g>
  </g>
</svg>
