<svg id="_8B8B8B" data-name="8B8B8B" xmlns="http://www.w3.org/2000/svg" width="102.283" height="102.283" viewBox="0 0 102.283 102.283">
  <g id="c" transform="translate(2.5 2.5)">
    <g id="Group_41" data-name="Group 41">
      <circle id="Ellipse_14" data-name="Ellipse 14" cx="48.641" cy="48.641" r="48.641" fill="none" stroke="#f7ff00" stroke-miterlimit="10" stroke-width="5"/>
      <path id="Path_54" data-name="Path 54" d="M44.3,100.537c-.056-.945.767-1.306,1.287-1.825q19.557-19.6,39.113-39.2c1.245-1.254,1.877-1.24,3.051.023,2.513,2.7,2.588,2.625.047,5.166-4.184,4.188-8.321,8.424-12.584,12.528-1.32,1.268-1.624,1.909,0,3.285,3.837,3.262,5.864,7.464,5.059,12.621-.239,1.521.468,1.441,1.483,1.437,6.233-.019,12.462.056,18.7-.051,1.694-.028,2.054.51,2.026,2.092-.07,3.833.009,3.828-3.744,3.828q-25.706,0-51.407,0c-.852,0-1.7.08-2.555.122l-.459-.033Zm13.464-5.971c6.126,0,11.47-.042,16.814.033,1.249.019,1.563-.576,1.8-1.582.875-3.706-1.549-8.849-5-10.782-.838-.468-1.1.014-1.521.421-3.861,3.8-7.717,7.6-12.088,11.91Z" transform="translate(-24.736 -32.335)" fill="#f7ff00"/>
    </g>
  </g>
</svg>
