<svg xmlns="http://www.w3.org/2000/svg" width="16.66" height="34.562" viewBox="0 0 16.66 34.562">
  <g id="b" transform="translate(0 34.56) rotate(-90)">
    <g id="c" transform="translate(-0.002)">
      <g id="Group_22" data-name="Group 22" transform="translate(0)">
        <path id="Path_13" data-name="Path 13" d="M32.179,4.357c.39,0,.734,0,1.078,0a1.212,1.212,0,0,1,1.3,1.292q.007,2.673,0,5.348a1.211,1.211,0,0,1-1.314,1.3H32.179c0,.6.009,1.171,0,1.743a3.552,3.552,0,0,1-.091.824,2.414,2.414,0,0,1-2.269,1.794c-.076,0-.154,0-.23,0H2.532A2.426,2.426,0,0,1,.037,14.675,2.536,2.536,0,0,1,0,14.19q0-5.851,0-11.7A2.413,2.413,0,0,1,2.482,0h27.2A2.4,2.4,0,0,1,31.79,1.121a2.32,2.32,0,0,1,.389,1.3c0,.63,0,1.261,0,1.932ZM16.063,14.977h13.4c.086,0,.173,0,.259,0a.766.766,0,0,0,.771-.8q0-5.85,0-11.7a.765.765,0,0,0-.772-.794c-.086,0-.173,0-.259,0H2.608c-.645,0-.929.281-.929.927q0,5.72,0,11.442c0,.641.29.926.931.926H16.063Z" transform="translate(0.002)" fill="#58ff13"/>
        <path id="Path_14" data-name="Path 14" d="M204.483,50.55l3.142-5.111h-3.771l-.035-.065,7.821-7.054.041.035-3.189,5.085h3.786l.028.082-7.784,7.059Z" transform="translate(-192.098 -36.116)" fill="#58ff13"/>
      </g>
    </g>
  </g>
</svg>
