<svg xmlns="http://www.w3.org/2000/svg" width="40.33" height="36.667" viewBox="0 0 40.33 36.667">
  <g id="beacon" transform="translate(-0.996 -2)">
    <path id="Path_3539" data-name="Path 3539" d="M20,15.507a5.5,5.5,0,1,0-7.333,5.17v7.663H9v3.667H20V28.341H16.334V20.677A5.5,5.5,0,0,0,20,15.507Z" transform="translate(6.67 6.66)" fill="#00cd8f"/>
    <path id="Path_3540" data-name="Path 3540" d="M26.891,28a12.687,12.687,0,0,0,3.777-9.167A12.834,12.834,0,1,0,5,18.834,12.687,12.687,0,0,0,8.777,28l2.585-2.6a9.038,9.038,0,0,1-2.7-6.563,9.167,9.167,0,0,1,18.334,0,9.038,9.038,0,0,1-2.677,6.472Z" transform="translate(3.336 3.333)" fill="#00cd8f"/>
    <path id="Path_3541" data-name="Path 3541" d="M21.17,2A20.167,20.167,0,0,0,6.907,36.431l2.585-2.585a16.5,16.5,0,1,1,23.339,0l2.585,2.585A20.167,20.167,0,0,0,21.17,2Z" transform="translate(0)" fill="#00cd8f"/>
  </g>
</svg>
