<svg xmlns="http://www.w3.org/2000/svg" width="53.232" height="53.533" viewBox="0 0 53.232 53.533">
  <g id="boiler" transform="translate(-45.18 -100.778)">
    <path id="Path_2175" data-name="Path 2175" d="M53,50.672H49.673v-4.5a.416.416,0,0,0-.41-.41h-3.89a12.863,12.863,0,0,0,3.806-9.142V34.4H49.5a1.865,1.865,0,1,0,0-3.731h-.318V28.448a12.892,12.892,0,0,0-7.219-11.56V13.559a1.289,1.289,0,0,0-1.288-1.288H37.544V7.587a3.018,3.018,0,0,0-3.02-3.02H28.151a3.018,3.018,0,0,0-3.02,3.02V11.71a.457.457,0,0,1-.452.46H22.5a.459.459,0,0,1-.46-.46V3.02A3.024,3.024,0,0,0,19.025,0H11.8a3.024,3.024,0,0,0-3.02,3.02V4.132h-.41a1.28,1.28,0,0,0-1.28,1.28V7.754a7.017,7.017,0,0,0-4.074,6.365V50.681H.59a.411.411,0,0,0-.41.41v2.033a.411.411,0,0,0,.41.41H53a.405.405,0,0,0,.41-.41V51.091A.407.407,0,0,0,53,50.672Zm-4.149-4.09v4.09H23.693v-4.09h4.375a12.906,12.906,0,0,0,16.411,0ZM13.011,7.754V5.412a1.287,1.287,0,0,0-1.288-1.28H11.33V3.02a.459.459,0,0,1,.46-.46h7.227a.459.459,0,0,1,.46.46v8.7a3.013,3.013,0,0,0,3.02,3.02h2.175a3.018,3.018,0,0,0,3.02-3.02V7.6a.457.457,0,0,1,.452-.46h6.374a.457.457,0,0,1,.452.46v4.684H31.84a1.289,1.289,0,0,0-1.288,1.288V16.88a13.057,13.057,0,0,0-3.438,2.451,12.832,12.832,0,0,0-3.781,9.126v2.225h-.326a1.865,1.865,0,1,0,0,3.731h.326v2.217a12.828,12.828,0,0,0,3.806,9.142H23.283a.41.41,0,0,0-.41.41v4.508h-5.78V14.119A7.058,7.058,0,0,0,13.011,7.754ZM47.523,36.62c0,6.675-4.592,11.25-11.259,11.25S25.023,43.287,25.023,36.62V35.24H47.532v1.38ZM49.506,31.5a1.037,1.037,0,1,1,0,2.074H23.024a1.037,1.037,0,1,1,0-2.074Zm-1.982-3.045v1.389H25.014V28.456A10.766,10.766,0,0,1,28.143,20.3a10.6,10.6,0,0,1,8.114-3.088C42.931,17.206,47.523,21.79,47.523,28.456ZM40.681,13.107a.459.459,0,0,1,.46.46v2.944a12.946,12.946,0,0,0-9.753-.017V13.559a.459.459,0,0,1,.46-.46h8.833ZM9.59,3.02a2.2,2.2,0,0,1,2.2-2.2h7.227a2.2,2.2,0,0,1,2.2,2.2v8.7A1.289,1.289,0,0,0,22.5,13.007H24.68a1.287,1.287,0,0,0,1.28-1.288V7.6a2.2,2.2,0,0,1,2.2-2.2h6.374a2.2,2.2,0,0,1,2.2,2.2v4.684h-.92V7.6a1.287,1.287,0,0,0-1.28-1.288H28.159A1.282,1.282,0,0,0,26.88,7.6v4.124a2.2,2.2,0,0,1-2.2,2.2H22.5a2.2,2.2,0,0,1-2.2-2.2V3.02a1.289,1.289,0,0,0-1.288-1.288H11.79A1.289,1.289,0,0,0,10.5,3.02V4.132H9.59V3.02ZM7.917,5.412a.455.455,0,0,1,.452-.452h3.354a.457.457,0,0,1,.46.452V7.419a6.94,6.94,0,0,0-2.133-.335,7.116,7.116,0,0,0-2.133.335Zm44.675,47.3H1V51.5H52.592Z" transform="translate(45 100.778)" fill="#9c1dc2"/>
  </g>
</svg>
