<svg id="Calendar" xmlns="http://www.w3.org/2000/svg" xmlns:xlink="http://www.w3.org/1999/xlink" width="455.362" height="455.93" viewBox="0 0 455.362 455.93">
  <defs>
    <clipPath id="clip-path-1">
      <rect id="Rectangle_10" data-name="Rectangle 10" width="455.362" height="455.93" fill="#3c4cb2"/>
    </clipPath>
  </defs>
  <g id="Group_7" data-name="Group 7" clip-path="url(#clip-path-1)">
    <path id="Path_9" data-name="Path 9" d="M79.248,48.964c0-11.179-.02-21.643,0-32.107C79.281,5.206,84.36.123,95.946.112,106.778.1,117.61.068,128.442.121c10.624.052,15.864,5.325,15.925,16.04.06,10.649.013,21.3.013,32.374H310.887c.088-1.731.253-3.5.257-5.271.022-9.666-.051-19.332.017-29C311.217,6.287,316.514.356,324.344.2Q343.583-.2,362.835.217c7.808.175,13.255,6.161,13.327,14.035.105,11.314.027,22.629.027,34.711h5.65c12.5,0,25-.045,37.5.008,20.53.087,36,15.564,36.007,36.111q.037,167.228,0,334.456c-.005,20.754-15.577,36.354-36.409,36.361q-191.475.063-382.951,0c-19.619-.006-34.933-14.766-35.9-34.3-.073-1.5-.082-3-.082-4.5Q0,251.877.01,86.648c0-17.685,9-30.941,24.677-35.921A41.282,41.282,0,0,1,36.465,49.04c13.975-.2,27.955-.076,42.783-.076M15.237,153.27v5.814q0,128.958,0,257.915c0,15.725,7.927,23.665,23.63,23.665q188.937.01,377.876,0c15.321,0,23.4-8.061,23.407-23.43q.028-129.207,0-258.415c0-1.776-.18-3.552-.287-5.55Zm.2-15.759H439.553a6.886,6.886,0,0,0,.542-1.683c.029-17.492.286-34.989-.057-52.474-.208-10.582-9.287-18.98-19.911-19.231-6.16-.146-12.327-.023-18.491-.023h-25.2c-.1,2.191-.234,3.808-.24,5.425-.029,8.663.125,17.329-.081,25.988a13.324,13.324,0,0,1-13.354,13.427q-19.238.3-38.482.006a13.088,13.088,0,0,1-13.057-13.079c-.181-6.993-.073-13.993-.087-20.99-.007-3.442,0-6.884,0-10.394h-166.8c0,10.513.126,20.65-.042,30.783-.126,7.65-5.663,13.545-13.1,13.671q-19.485.332-38.981-.006a13.208,13.208,0,0,1-12.891-13.3c-.169-8.66-.05-17.325-.086-25.988-.007-1.756-.149-3.512-.238-5.492-15.4,0-30.217-.279-45.021.1-9.331.239-18.089,8.178-18.372,17.393-.566,18.454-.168,36.937-.168,55.864M94.729,93.467h34.236V15.642H94.729Zm265.531.168a9.345,9.345,0,0,0,.577-1.949c.044-24.327.031-48.654.131-72.98.013-3.156-1.689-3.442-4.128-3.427-8.831.056-17.663,0-26.494.049a25.781,25.781,0,0,0-3.6.49V93.635Z" fill="#3c4cb2"/>
    <path id="Path_10" data-name="Path 10" d="M281.884,174.051c6.82.005,13.643-.1,20.46.036,6.057.121,8.79,2.935,8.818,8.934.058,12.643.084,25.286.006,37.928-.044,7.248-2.39,9.679-9.583,9.735q-20.46.157-40.922-.022c-6.222-.053-8.76-2.653-8.8-8.925q-.123-19.463.049-38.926c.057-6.165,2.671-8.643,9.01-8.741,6.986-.108,13.974-.025,20.961-.019m13.644,15.6H267.606v25.428h27.922Z" fill="#3c4cb2"/>
    <path id="Path_11" data-name="Path 11" d="M388.841,230.705c-6.824,0-13.65.111-20.472-.027-6.66-.134-9.069-2.559-9.1-9.125q-.107-19.222.012-38.448c.038-6.352,2.717-9,9.2-9.042q20.472-.12,40.945,0c6.428.037,9.061,2.7,9.1,9.17q.107,19.224-.009,38.449c-.036,6.391-2.655,8.924-9.19,9-6.823.079-13.648.017-20.473.021m-14.1-15.577H403.05V189.544H374.743Z" fill="#3c4cb2"/>
    <path id="Path_12" data-name="Path 12" d="M281.343,418.032c-6.653,0-13.307.062-19.959-.014-6.93-.078-9.465-2.51-9.5-9.264q-.108-18.96,0-37.922c.037-6.837,2.53-9.428,9.295-9.481q20.457-.158,40.916-.013c6.368.052,9.023,2.829,9.067,9.28q.131,19.21.011,38.421c-.042,6.094-2.769,8.835-8.871,8.958-6.982.142-13.97.033-20.956.035m-13.889-15.487H295.9c0-7.913.074-15.535-.1-23.152-.021-.911-1.359-2.555-2.114-2.571-8.731-.183-17.468-.117-26.24-.117Z" fill="#3c4cb2"/>
    <path id="Path_13" data-name="Path 13" d="M173.842,174.041c6.822,0,13.645-.052,20.466.013,6.514.062,9.318,2.6,9.378,8.922q.186,19.467-.021,38.936c-.069,6.15-2.8,8.737-9.013,8.773q-20.466.115-40.933-.029c-6.989-.058-9.342-2.46-9.379-9.4q-.1-19.218.031-38.438c.043-5.9,2.622-8.584,8.506-8.733,6.984-.177,13.976-.042,20.965-.044m14.232,15.625h-28.2v25.447h28.2Z" fill="#3c4cb2"/>
    <path id="Path_14" data-name="Path 14" d="M173.9,418.028c-6.821.008-13.643.083-20.462-.015-6.346-.091-9.065-2.831-9.1-9.229q-.105-18.965,0-37.93c.039-6.837,2.492-9.417,9.357-9.486,13.641-.138,27.284-.109,40.925-.027,6.207.037,9,2.659,9.064,8.744q.2,19.712-.007,39.427c-.057,5.684-2.951,8.378-8.814,8.48-6.985.122-13.974.029-20.961.036M188.241,376.7c-8.911,0-17.371-.065-25.828.09-.953.018-2.684,1.263-2.7,1.972-.2,7.91-.123,15.826-.123,23.786h28.652Z" fill="#3c4cb2"/>
    <path id="Path_15" data-name="Path 15" d="M66.516,418.028c-6.655,0-13.31.05-19.964-.007-6.935-.059-9.439-2.463-9.471-9.234q-.089-18.964,0-37.931c.029-6.94,2.427-9.46,9.2-9.5,13.475-.074,26.951-.093,40.426.029,7.146.064,9.577,2.643,9.594,9.706q.045,18.716-.012,37.432c-.022,6.7-2.689,9.417-9.306,9.482-6.821.067-13.642.015-20.463.02M52.691,376.7v25.785H81.127c0-7.806.111-15.255-.126-22.693-.033-1.058-1.734-2.929-2.7-2.956-8.439-.236-16.888-.136-25.606-.136" fill="#3c4cb2"/>
    <path id="Path_16" data-name="Path 16" d="M281.11,324.216c-6.819.005-13.64.066-20.459-.013-6.346-.073-8.721-2.39-8.767-8.811q-.141-19.461,0-38.923c.043-6.059,2.534-8.557,8.519-8.59q21.208-.117,42.416.009c5.523.033,8.28,2.708,8.333,8.3q.186,19.709-.018,39.421c-.062,6.144-2.741,8.541-9.064,8.587-6.986.05-13.972.011-20.959.015m14.375-40.751h-27.98v25.359h27.98Z" fill="#3c4cb2"/>
    <path id="Path_17" data-name="Path 17" d="M66.771,324.214c-7.151.007-14.3.081-21.453-.016-5.6-.076-8.185-2.654-8.221-8.316q-.123-19.705,0-39.413c.039-6.1,2.451-8.557,8.45-8.593q21.2-.126,42.407-.009,8.268.049,8.314,8.342.138,19.705.007,39.413c-.041,5.932-2.689,8.507-8.548,8.568-6.983.073-13.969.017-20.953.024m14.073-40.746H52.631v25.206H80.844Z" fill="#3c4cb2"/>
    <path id="Path_18" data-name="Path 18" d="M388.635,324.216c-6.985,0-13.971.063-20.956-.025-5.622-.071-8.347-2.648-8.391-8.212q-.16-19.957,0-39.916c.042-5.479,2.852-8.162,8.434-8.19q21.2-.1,42.411,0c5.678.032,8.318,2.581,8.365,8.219q.164,19.956-.007,39.916c-.048,5.617-2.721,8.121-8.4,8.188-7.151.084-14.3.02-21.455.016m-13.981-15.475h28.318v-25.4H374.654Z" fill="#3c4cb2"/>
    <path id="Path_19" data-name="Path 19" d="M173.568,324.219c-7,0-14,.07-21-.024-5.3-.071-8.129-2.668-8.186-7.961q-.218-20-.011-40c.057-5.64,2.81-8.315,8.365-8.35q21.249-.132,42.5,0c5.64.034,8.363,2.612,8.425,8.244q.217,19.748,0,39.5c-.065,6.15-2.764,8.536-9.1,8.585-7,.054-14,.012-21,.011m-13.761-15.536h28.24V283.395h-28.24Z" fill="#3c4cb2"/>
  </g>
</svg>
