<svg xmlns="http://www.w3.org/2000/svg" width="33.002" height="33.008" viewBox="0 0 33.002 33.008">
  <path id="chemical" d="M33.854,32.358l-5.5-9.473h0l-4.247-7.251V2.1a1.1,1.1,0,0,0-1.1-1.1H12a1.1,1.1,0,0,0-1.1,1.1V15.634L1.154,32.358a1.091,1.091,0,0,0,.946,1.65H32.908a1.1,1.1,0,0,0,.946-1.65ZM12.949,16.492a1.1,1.1,0,0,0,.154-.561V3.2h8.8v12.73a1.1,1.1,0,0,0,.154.561L25.6,22.577a19.376,19.376,0,0,1-6.074-.44,39.005,39.005,0,0,0-9.275-1.023ZM4.015,31.808l4.94-8.461a35.6,35.6,0,0,1,10.1.935,21.037,21.037,0,0,0,7.757.374l4.181,7.152Z" transform="translate(-1 -1)" fill="#961cba"/>
</svg>
