<svg xmlns="http://www.w3.org/2000/svg" width="43" height="43" viewBox="0 0 43 43">
  <g id="conductivity" transform="translate(-3453 -657)">
    <rect id="Rectangle_3466" data-name="Rectangle 3466" width="39" height="39" rx="5" transform="translate(3455 659)" fill="none" stroke="#f90" stroke-width="4"/>
    <path id="Subtraction_26" data-name="Subtraction 26" d="M-16024,20812h-13a5,5,0,0,1-5-5v-29a5,5,0,0,1,5-5h13v13.777h-8.236a2.092,2.092,0,0,0-2.09,2.09,2.088,2.088,0,0,0,2.09,2.084h8.236v6.953h-3.2l.61-.611a2.059,2.059,0,0,0,.611-1.471,2.077,2.077,0,0,0-.611-1.48,2.076,2.076,0,0,0-1.475-.607,2.078,2.078,0,0,0-1.476.607l-4.174,4.172a2.1,2.1,0,0,0,0,2.951l4.174,4.174a2.075,2.075,0,0,0,1.478.611,2.069,2.069,0,0,0,1.473-.611,2.065,2.065,0,0,0,.611-1.475,2.066,2.066,0,0,0-.611-1.477l-.61-.611h3.2V20812Z" transform="translate(19497 -20114)" fill="#f90"/>
    <path id="Path_3533" data-name="Path 3533" d="M27.623,78.972V74.8H39.059a2.086,2.086,0,1,1,0,4.173Zm6.4-15.3-.612-.611a2.087,2.087,0,0,1,2.951-2.951l4.173,4.173a2.089,2.089,0,0,1,0,2.951l-4.173,4.173a2.087,2.087,0,0,1-2.951-2.951l.612-.611H27.586V63.673Z" transform="translate(3445.178 609.264)" fill="#f90" fill-rule="evenodd"/>
  </g>
</svg>
