<svg xmlns="http://www.w3.org/2000/svg" width="69.309" height="69.309" viewBox="0 0 69.309 69.309">
  <g id="cool" transform="translate(-2 -2)">
    <g id="snowflake_1_" transform="translate(2 2)">
      <path id="Path_2164" data-name="Path 2164" d="M32.776,27a5.776,5.776,0,1,0,5.776,5.776A5.782,5.782,0,0,0,32.776,27Zm0,9.241a3.465,3.465,0,1,1,3.465-3.465A3.47,3.47,0,0,1,32.776,36.241Z" transform="translate(1.879 1.879)" fill="#0d9eff"/>
      <path id="Path_2165" data-name="Path 2165" d="M67.843,33.189A3.461,3.461,0,0,0,64.59,35.5H61.626L63.1,32.55a1.155,1.155,0,1,0-2.067-1.034L59.043,35.5h-2.2l1.677-4.191a1.156,1.156,0,1,0-2.146-.858L54.355,35.5H46.982a10.345,10.345,0,0,0-2.213-5.326l2.124-2.124,5,2.142a1.154,1.154,0,1,0,.91-2.122l-4.149-1.779,1.556-1.556,4.223,1.408a1.155,1.155,0,1,0,.73-2.191l-3.128-1.042,2.094-2.094a3.46,3.46,0,0,0,3.936-5.57,3.548,3.548,0,0,0-4.9,0A3.427,3.427,0,0,0,52.5,19.18L50.4,21.275l-1.043-3.128a1.155,1.155,0,1,0-2.191.731L48.575,23.1l-1.556,1.556-1.779-4.15a1.155,1.155,0,1,0-2.123.91l2.142,5-2.124,2.124a10.345,10.345,0,0,0-5.326-2.213V18.955l5.049-2.019A1.155,1.155,0,1,0,42,14.791l-4.191,1.675v-2.2l3.982-1.991a1.155,1.155,0,1,0-1.034-2.067l-2.948,1.475V8.718a3.465,3.465,0,1,0-2.31,0v2.964L32.55,10.208a1.155,1.155,0,1,0-1.034,2.067l3.983,1.99v2.2l-4.192-1.677a1.155,1.155,0,1,0-.857,2.145l5.049,2.02v7.372a10.345,10.345,0,0,0-5.326,2.213l-2.124-2.124,2.142-5a1.155,1.155,0,1,0-2.123-.91l-1.779,4.15L24.732,23.1l1.408-4.223a1.155,1.155,0,1,0-2.191-.731l-1.043,3.128-2.094-2.094a3.427,3.427,0,0,0-.669-3.937,3.551,3.551,0,0,0-4.9,0,3.456,3.456,0,0,0,3.936,5.57l2.094,2.094-3.128,1.042a1.155,1.155,0,0,0,.73,2.191L23.1,24.732l1.556,1.556L20.5,28.067a1.154,1.154,0,1,0,.91,2.122l5-2.142,2.124,2.124A10.345,10.345,0,0,0,26.325,35.5H18.953l-2.019-5.05a1.156,1.156,0,1,0-2.146.858L16.466,35.5h-2.2l-1.991-3.982a1.155,1.155,0,1,0-2.067,1.034L11.682,35.5H8.718a3.465,3.465,0,1,0,0,2.31h2.964l-1.474,2.949a1.155,1.155,0,1,0,2.067,1.033l1.99-3.982h2.2L14.789,42a1.156,1.156,0,1,0,2.146.858l2.019-5.049h7.372a10.345,10.345,0,0,0,2.213,5.326L26.415,45.26l-5-2.142a1.156,1.156,0,0,0-.91,2.123l4.149,1.779L23.1,48.577l-4.223-1.408a1.155,1.155,0,1,0-.731,2.191L21.272,50.4l-2.106,2.106a3.557,3.557,0,0,0-3.924.656,3.477,3.477,0,1,0,5.569.966l2.094-2.094,1.043,3.128a1.155,1.155,0,1,0,2.19-.731l-1.408-4.223,1.556-1.556,1.779,4.15a1.155,1.155,0,0,0,2.123-.911l-2.142-5,2.124-2.124A10.345,10.345,0,0,0,35.5,46.981v7.372l-5.049,2.019a1.155,1.155,0,1,0,.857,2.145L35.5,56.843v2.2l-3.982,1.991A1.155,1.155,0,0,0,32.551,63.1L35.5,61.626V64.59a3.465,3.465,0,1,0,2.31,0V61.626L40.759,63.1a1.155,1.155,0,1,0,1.034-2.067l-3.983-1.99v-2.2L42,58.52a1.156,1.156,0,0,0,.857-2.146l-5.049-2.019V46.982a10.346,10.346,0,0,0,5.326-2.213l2.124,2.124-2.142,5a1.155,1.155,0,1,0,2.123.911l1.779-4.15,1.556,1.556-1.408,4.223a1.155,1.155,0,1,0,2.19.731L50.4,52.036,52.5,54.13a3.459,3.459,0,1,0,5.57-.963,3.553,3.553,0,0,0-3.924-.657L52.036,50.4l3.128-1.042a1.155,1.155,0,1,0-.731-2.191L50.21,48.579l-1.556-1.556L52.8,45.244a1.155,1.155,0,0,0-.91-2.123l-5,2.142-2.124-2.124a10.345,10.345,0,0,0,2.213-5.326h7.372l2.019,5.05A1.156,1.156,0,0,0,58.52,42l-1.677-4.191h2.2l1.991,3.982A1.155,1.155,0,1,0,63.1,40.759l-1.474-2.949H64.59a3.459,3.459,0,1,0,3.253-4.621ZM54.8,16.877a1.145,1.145,0,0,1,.817-.338,1.156,1.156,0,0,1,.816,1.972,1.184,1.184,0,0,1-1.632,0A1.155,1.155,0,0,1,54.8,16.877ZM36.654,4.31A1.156,1.156,0,1,1,35.5,5.465,1.156,1.156,0,0,1,36.654,4.31ZM16.877,18.51a1.153,1.153,0,1,1,1.633,0,1.184,1.184,0,0,1-1.633,0ZM5.465,37.809a1.156,1.156,0,0,1,0-2.31,1.156,1.156,0,0,1,0,2.31ZM18.51,56.432a1.183,1.183,0,0,1-1.633,0,1.155,1.155,0,1,1,1.633,0ZM36.654,69a1.156,1.156,0,1,1,1.1-1.155A1.156,1.156,0,0,1,36.654,69Zm0-24.258a8.086,8.086,0,1,1,8.086-8.086A8.1,8.1,0,0,1,36.654,44.74ZM56.432,54.8a1.157,1.157,0,0,1,0,1.635,1.185,1.185,0,0,1-1.633,0,1.157,1.157,0,0,1,.817-1.973A1.145,1.145,0,0,1,56.432,54.8ZM67.843,37.809a1.156,1.156,0,1,1,1.1-1.155,1.156,1.156,0,0,1-1.1,1.155Z" transform="translate(-2 -2)" fill="#0d9eff"/>
    </g>
  </g>
</svg>
