<svg xmlns="http://www.w3.org/2000/svg" width="34.328" height="39.626" viewBox="0 0 34.328 39.626">
  <g id="current" transform="translate(-6 -3)">
    <path id="Path_3543" data-name="Path 3543" d="M29.171,30.074H17.157a2.379,2.379,0,0,1-2.575-2.107V24.7a.716.716,0,0,0-.539-.652l-3.187-1.044c-2.94-.953-4.867-3.282-4.856-5.87v-6.03A2.379,2.379,0,0,1,8.575,9H37.753a2.379,2.379,0,0,1,2.575,2.107v6.03c.011,2.588-1.916,4.917-4.856,5.87l-3.187,1.044a.717.717,0,0,0-.539.652v3.264A2.379,2.379,0,0,1,29.171,30.074ZM8.575,10.4a.792.792,0,0,0-.858.7v6.03A5.011,5.011,0,0,0,11.493,21.7l3.187,1.044A2.145,2.145,0,0,1,16.3,24.7v3.264a.792.792,0,0,0,.858.7H29.171a.792.792,0,0,0,.858-.7V24.7a2.147,2.147,0,0,1,1.617-1.957L34.834,21.7a5.008,5.008,0,0,0,3.776-4.566V11.107a.792.792,0,0,0-.858-.7Z" transform="translate(0 4.298)" fill="#d9d200"/>
    <path id="Path_3544" data-name="Path 3544" d="M14.57,22.693a.573.573,0,0,1-.535-.779L15.267,18.7l-1.6-.616a.573.573,0,0,1-.35-.68l1.314-5.02a.573.573,0,0,1,.76-.39l3.746,1.437a.577.577,0,0,1,.289.825L18,16.682l.974.374a.575.575,0,0,1,.215.925l-4.194,4.53a.583.583,0,0,1-.422.182ZM14.551,17.2l1.661.637a.572.572,0,0,1,.329.74l-.371.967,1.6-1.725-.815-.313a.577.577,0,0,1-.289-.825l1.425-2.422L15.573,13.3Z" transform="translate(6.768 7.089)" fill="#d9d200"/>
    <path id="Path_3545" data-name="Path 3545" d="M21.224,28.149H14.358a.858.858,0,0,1-.858-.858V23.858A.858.858,0,0,1,14.358,23h6.866a.858.858,0,0,1,.858.858v3.433A.858.858,0,0,1,21.224,28.149Zm-6.007-1.716h5.149V24.716H15.216Z" transform="translate(5.373 10.328)" fill="#d9d200"/>
    <path id="Path_3546" data-name="Path 3546" d="M22.015,42.626H18.582a.858.858,0,0,1-.858-.858V37.619a.858.858,0,0,1,.858-.858h3.433a.858.858,0,0,1,.858.858v4.149A.858.858,0,0,1,22.015,42.626ZM19.44,40.91h1.716V38.477H19.44Zm-5.149-26.9H10.858c-.474,0-.858.616-.858.142V5.575a2.575,2.575,0,0,1,5.149,0v8.582C15.149,14.631,14.765,14.015,14.291,14.015ZM11.716,13.3h1.716V5.575a.858.858,0,1,0-1.716,0Zm18.022.716H26.306c-.474,0-.858.616-.858.142V5.575a2.575,2.575,0,1,1,5.149,0v8.582C30.6,14.631,30.213,14.015,29.739,14.015ZM27.164,13.3H28.88V5.575a.858.858,0,0,0-1.716,0Z" transform="translate(2.866 0)" fill="#d9d200"/>
  </g>
</svg>
