<svg xmlns="http://www.w3.org/2000/svg" width="33.702" height="11.113" viewBox="0 0 33.702 11.113">
  <path id="distance" d="M26.59,26.451a1.168,1.168,0,0,0,1.691,0,1.168,1.168,0,0,0,0-1.691l-2.174-2.235H51.716L49.481,24.76a1.168,1.168,0,0,0,0,1.691,1.168,1.168,0,0,0,1.691,0l4.288-4.288c.06-.06.121-.121.121-.181v-.06a.222.222,0,0,0,.06-.181v-.06c0-.06.06-.121.06-.181v-.483a.222.222,0,0,0-.06-.181v-.06c0-.06-.06-.121-.06-.181v-.06c-.06-.06-.121-.121-.121-.181l-4.288-4.288a1.2,1.2,0,1,0-1.691,1.691l2.235,2.235H26.107l2.235-2.235a1.2,1.2,0,0,0-1.691-1.691l-4.288,4.288a1.168,1.168,0,0,0,0,1.691Z" transform="translate(-22 -15.7)" fill="#6bc800"/>
</svg>
