<svg xmlns="http://www.w3.org/2000/svg" width="44.083" height="52.887" viewBox="0 0 44.083 52.887">
  <path id="door" d="M22.88,2l.39.043L45.312,6.451a2.2,2.2,0,0,1,1.738,1.775l.034.386V48.274a2.205,2.205,0,0,1-1.4,2.053l-.372.109L23.27,54.844a2.2,2.2,0,0,1-2.6-1.771l-.035-.391V4.2l.035-.391A2.205,2.205,0,0,1,22.88,2ZM16.225,6.409v4.408H7.408V46.07h8.817v4.408H5.2a2.2,2.2,0,0,1-2.169-1.808L3,48.274V8.613A2.2,2.2,0,0,1,4.808,6.444l.4-.036Zm8.817.485v43.1l17.633-3.527V10.42Zm6.613,19.346a2.2,2.2,0,1,1-2.2,2.2A2.2,2.2,0,0,1,31.654,26.239Z" transform="translate(-3 -2)" fill="#f80"/>
</svg>
