<svg xmlns="http://www.w3.org/2000/svg" xmlns:xlink="http://www.w3.org/1999/xlink" width="253.331" height="253.076" viewBox="0 0 253.331 253.076">
  <defs>
    <clipPath id="clip-path-2">
      <rect id="Rectangle_12" data-name="Rectangle 12" width="253.331" height="253.076" fill="#08f" stroke="#08f" stroke-width="2.5"/>
    </clipPath>
  </defs>
  <g id="_" data-name="%" transform="translate(-834 -414)">
    <g id="Group_10" data-name="Group 10" transform="translate(834 414)">
      <g id="Group_9" data-name="Group 9" clip-path="url(#clip-path-2)">
        <path id="Path_30" data-name="Path 30" d="M22.935,199.723c1.284-2.153,2.378-4.657,4.054-6.678,6.462-7.792,8.983-15.712,2.006-24.613a11.289,11.289,0,0,1-2.266-5.49c-.785-7.457-5.337-10.089-12.184-10.957-4.57-.578-10.415-.952-13.1-3.831-2.743-2.944-.736-8.887-.8-13.513-.117-8.326.211-16.665-.138-24.978-.17-4.041,1.293-5.422,5.058-6.063,5.068-.862,10-2.515,15.042-3.565,2.25-.469,3.411-1.4,4.023-3.674a91.18,91.18,0,0,1,8.506-20.707,3.882,3.882,0,0,0-.216-4.5c-3.1-4.927-5.95-10.013-9.132-14.885-1.515-2.32-1.634-3.772.566-5.893Q37.476,37.725,50.137,24.6c2.224-2.311,3.7-2.3,6.213-.638,5.275,3.473,10.6,8.722,16.259,9.223,5.332.472,10.923-5.061,16.757-6.425,7.99-1.869,10.93-6.326,12.29-14.106C103.873-.028,104.449.073,117.54.073c9.162,0,18.327.112,27.486-.07,2.715-.054,3.8.879,4.347,3.425,1.143,5.365,2.77,10.635,3.747,16.025.533,2.944,1.9,4.177,4.658,4.9a71.568,71.568,0,0,1,18.4,7.54c2.952,1.755,5.063,1.19,7.6-.449,4.613-2.972,9.4-5.667,14.023-8.633,1.881-1.209,3.047-1.077,4.666.577Q215.749,36.952,229.3,50.236c1.89,1.848,1.586,3.083.332,5.047-3.492,5.465-8.937,10.882-9.464,16.694-.5,5.472,5.252,11.22,6.516,17.213,1.714,8.123,6.493,10.474,13.872,11.854,12.779,2.39,12.693,2.85,12.693,15.821,0,8.994-.135,17.991.075,26.98.071,3.033-.78,4.428-3.83,5.039-6.031,1.208-12.791,1.492-17.751,4.571-5.137,3.189-3.8,11.374-7.425,16.225-5.432,7.273-3.328,13.165,1.25,19.912,6.778,9.987,6.383,10.244-2.306,18.9-6.607,6.578-13.24,13.131-19.761,19.793-1.7,1.737-2.879,2.577-5.367.892-5.365-3.636-10.729-8.591-16.69-9.65-5.783-1.027-10.988,5.593-17.152,6.619-8.109,1.35-11.044,6.211-11.946,13.708-.509,4.235-.948,9.914-3.679,12.042s-8.288.729-12.6.752c-9,.048-18-.136-26.985.1-2.98.078-4.063-.994-4.635-3.691-1.136-5.365-2.663-10.649-3.77-16.02-.49-2.376-1.313-3.773-3.867-4.43a85.529,85.529,0,0,1-20.266-8.271c-2.091-1.165-3.539-.8-5.363.357-4.916,3.117-9.954,6.041-14.9,9.105-1.7,1.052-2.971,1.538-4.729-.261-8.959-9.165-18.08-18.172-27.127-27.252-.664-.667-1.668-1.175-1.484-2.558M53.883,28.687a18.664,18.664,0,0,0-1.614,1.283c-7.438,7.4-14.829,14.838-22.315,22.185-1.7,1.664-.734,2.943.13,4.362,2.6,4.261,5.1,8.584,7.836,12.748,1.746,2.652,2.034,5.073.384,7.877a84.777,84.777,0,0,0-9.2,22.544,5.938,5.938,0,0,1-5.046,4.768c-4.7,1.05-9.345,2.4-14.062,3.379-2.855.594-4.191,1.675-4.107,4.941.245,9.486.2,18.984.023,28.473-.05,2.721.9,3.821,3.451,4.347,4.882,1.007,9.7,2.343,14.57,3.4,2.668.578,4.56,1.747,5.291,4.565a91.128,91.128,0,0,0,9.543,22.948,6.565,6.565,0,0,1-.2,7.468c-2.663,4.219-5.1,8.581-7.836,12.753-1.294,1.975-1.442,3.224.447,5.044,7.071,6.815,14,13.786,20.831,20.838,1.733,1.788,3.034,1.955,5.081.612,4.169-2.735,8.564-5.127,12.73-7.865,2.661-1.748,5.085-1.995,7.882-.357a87.565,87.565,0,0,0,23.52,9.456c2.056.5,3.039,1.308,3.484,3.465,1.109,5.368,2.613,10.654,3.828,16,.568,2.5,1.762,3.48,4.464,3.434,9.658-.165,19.322-.18,28.979.011,2.848.057,3.7-1.175,4.218-3.6,1.033-4.876,2.362-9.69,3.415-14.563.585-2.708,1.9-4.463,4.678-5.187a88.412,88.412,0,0,0,22.5-9.342,6.944,6.944,0,0,1,7.933.131c4.077,2.579,8.357,4.855,12.3,7.616,2.479,1.736,3.845,1.254,5.812-.8,6.448-6.731,13-13.375,19.8-19.748,2.556-2.4,2.352-4.108.578-6.7-2.629-3.834-4.8-7.978-7.361-11.863a6.72,6.72,0,0,1-.194-7.876,82.3,82.3,0,0,0,9.013-22.083,6.258,6.258,0,0,1,5.3-5.144c4.873-1.059,9.69-2.373,14.558-3.459,2.5-.557,3.476-1.763,3.426-4.467-.174-9.322-.3-18.659.044-27.972.139-3.792-1.456-4.8-4.652-5.418-4.729-.909-9.371-2.267-14.074-3.322A5.751,5.751,0,0,1,224.591,99,88.856,88.856,0,0,0,215.24,76.51a6.878,6.878,0,0,1,.135-7.916c2.592-4.068,4.848-8.361,7.616-12.3,1.743-2.479,1.274-3.839-.779-5.806q-10.1-9.67-19.772-19.779c-2.11-2.212-3.682-2.62-6.262-.854-3.975,2.72-8.262,4.977-12.293,7.619a6.774,6.774,0,0,1-7.886.174,83.391,83.391,0,0,0-22.092-9,6.246,6.246,0,0,1-5.117-5.329c-1.021-4.71-2.342-9.355-3.36-14.065-.563-2.6-1.531-3.958-4.593-3.892q-14.486.312-28.979.009c-2.845-.055-3.683,1.187-4.23,3.6-1.215,5.348-2.779,10.618-3.932,15.977a4.108,4.108,0,0,1-3.464,3.572,89.178,89.178,0,0,0-22.989,9.453,7.25,7.25,0,0,1-8.381-.2c-4.048-2.62-8.213-5.061-12.334-7.569-.838-.51-1.7-.978-2.645-1.517" fill="#08f" stroke="#08f" stroke-width="2.5"/>
        <path id="Path_31" data-name="Path 31" d="M53.4,125.98a73.528,73.528,0,0,1,147.054.772c-.1,40.509-33.417,73.363-74.162,73.128-40.322-.234-73.02-33.383-72.892-73.9m141.88.721c.106-37.644-30.4-68.5-67.9-68.673-37.657-.169-68.606,30.305-68.813,67.755A68.5,68.5,0,0,0,126.725,194.7c37.609.075,68.454-30.518,68.56-68" fill="#08f" stroke="#08f" stroke-width="2.5"/>
      </g>
    </g>
    <text id="_2" data-name="%" transform="translate(914 581)" fill="#08f" font-size="108" font-family="Ubuntu"><tspan x="0" y="0">%</tspan></text>
  </g>
</svg>
