<svg id="energy" xmlns="http://www.w3.org/2000/svg" width="58.899" height="51.423" viewBox="0 0 58.899 51.423">
  <path id="Path_1683" data-name="Path 1683" d="M342.158,107.187l-.2-8.305a3.473,3.473,0,0,1,3.131-3.632l2.846,17.959a10.5,10.5,0,0,1-1.974,6.29l-6.966,8.43a3.9,3.9,0,0,0-.883,2.773l.187,2.49-9.7-4.62.037-.079a10.3,10.3,0,0,1,3.652-10.091l.553-.444a7.362,7.362,0,0,0,2.041-2.578l2.663-5.59A4.6,4.6,0,0,1,342.158,107.187Z" transform="translate(-290.024 -89.409)" fill="none"/>
  <path id="Path_1684" data-name="Path 1684" d="M299.94,360.427l1.092.52-2.919,6.131-13.453-6.407,2.92-6.13,2.66,1.267Z" transform="translate(-251.667 -316.645)" fill="none"/>
  <path id="Path_1685" data-name="Path 1685" d="M207.967,63.792,196.661,82.3l.67-11.455H192.19l1.381-14.8H204.9l-3.2,7.752Z" transform="translate(-170.629 -55.046)" fill="none"/>
  <path id="Path_1686" data-name="Path 1686" d="M96,360.427l9.7-4.62,2.66-1.267,2.92,6.13-13.453,6.407-2.919-6.131Z" transform="translate(-85.375 -316.645)" fill="none"/>
  <path id="Path_1687" data-name="Path 1687" d="M31.556,107.187a4.6,4.6,0,0,1,4.616,2.6l2.663,5.59a7.363,7.363,0,0,0,2.041,2.578l.553.444a10.3,10.3,0,0,1,3.652,10.091l.037.079-9.7,4.62.187-2.49a3.9,3.9,0,0,0-.883-2.773l-6.966-8.43a10.5,10.5,0,0,1-1.974-6.29L28.627,95.25A3.474,3.474,0,0,1,31.763,98.7c0,.059,0,.119,0,.178Z" transform="translate(-24.791 -89.409)" fill="none"/>
  <path id="Path_1688" data-name="Path 1688" d="M43.518,76.193a.988.988,0,0,0,1.14-.428l11.305-18.5a.961.961,0,0,0,.019-.984.975.975,0,0,0-.863-.49H50.331l2.636-6.4a1.009,1.009,0,0,0-.092-.938A1,1,0,0,0,52.053,48H40.723a.991.991,0,0,0-.985.9L38.357,63.7a1.024,1.024,0,0,0,.254.773,1,1,0,0,0,.731.338h4.093l-.609,10.393A.971.971,0,0,0,43.518,76.193Zm-3.09-13.358,1.2-12.857h8.95l-2.636,6.388a1.022,1.022,0,0,0,.092.944,1,1,0,0,0,.822.456h4.5L45.032,71.374l.439-7.514a.964.964,0,0,0-.268-.725.979.979,0,0,0-.719-.3Zm33.393-9.148a.989.989,0,0,0-1.073-.83,4.456,4.456,0,0,0-4.024,4.653l.178,7.285a5.607,5.607,0,0,0-4.5,3.161l-2.663,5.59a6.412,6.412,0,0,1-1.768,2.232l-.552.443a11.241,11.241,0,0,0-4.219,9.3L54.118,85a.989.989,0,0,0-1.318.468L49.88,91.6a.989.989,0,0,0,.468,1.318L63.8,99.327a.989.989,0,0,0,1.318-.468l2.919-6.131a.989.989,0,0,0-.467-1.318L67,91.137l-.144-1.916a2.9,2.9,0,0,1,.659-2.07l6.966-8.43q.021-.026.041-.053a11.563,11.563,0,0,0,2.161-6.883.979.979,0,0,0-.012-.14ZM63.759,97.116,52.092,91.559l2.069-4.345L65.827,92.77Zm9.173-19.629-6.944,8.4a4.865,4.865,0,0,0-1.107,3.477l.059.79-7.646-3.642a9.275,9.275,0,0,1,3.369-8.751l.552-.443A8.4,8.4,0,0,0,63.53,74.4l2.663-5.591a3.622,3.622,0,0,1,3.626-2.043q.121.012.24.032l-3.892,8.173a.989.989,0,1,0,1.786.851l4.376-9.189a.989.989,0,0,0-.468-1.318,5.622,5.622,0,0,0-.975-.358l-.183-7.5a.229.229,0,0,0,0-.026,2.48,2.48,0,0,1,1.34-2.333L74.7,71.884a9.574,9.574,0,0,1-1.77,5.6ZM41.66,85.47A.989.989,0,0,0,40.342,85l-1.087.518a11.24,11.24,0,0,0-4.218-9.3l-.553-.444a6.413,6.413,0,0,1-1.767-2.231l-2.663-5.59a5.608,5.608,0,0,0-4.5-3.161l.178-7.289c0-.07.005-.141.005-.21a4.445,4.445,0,0,0-4.029-4.438.99.99,0,0,0-1.073.829L17.794,71.645a.979.979,0,0,0-.012.14,11.563,11.563,0,0,0,2.16,6.882q.019.027.041.053l6.967,8.43a2.894,2.894,0,0,1,.658,2.068l-.144,1.918-.574.273a.989.989,0,0,0-.467,1.318l2.919,6.131a.989.989,0,0,0,1.318.468l13.453-6.407a.989.989,0,0,0,.468-1.318Zm-13.186.42-6.945-8.4a9.574,9.574,0,0,1-1.77-5.6l2.661-16.8A2.472,2.472,0,0,1,23.764,57.3c0,.046,0,.091,0,.137a.159.159,0,0,1,0,.017l-.183,7.5a5.618,5.618,0,0,0-.975.358.989.989,0,0,0-.468,1.318l4.376,9.189a.989.989,0,1,0,1.786-.851L24.4,66.795q.12-.02.241-.032a3.622,3.622,0,0,1,3.624,2.044l2.663,5.59a8.4,8.4,0,0,0,2.315,2.923l.553.444a9.275,9.275,0,0,1,3.368,8.751l-7.647,3.642.059-.791a4.863,4.863,0,0,0-1.106-3.476ZM30.7,97.116,28.634,92.77l9.9-4.715,1.768-.842,2.069,4.345Z" transform="translate(-17.781 -48)" fill="#d9d200"/>
</svg>
