<svg xmlns="http://www.w3.org/2000/svg" width="44.085" height="44.406" viewBox="0 0 44.085 44.406">
  <g id="fan" transform="translate(-10.71 -9.962)">
    <path id="Path_2169" data-name="Path 2169" d="M39.5,54.368h-.444a13.977,13.977,0,0,1-7.25-2.528c-3.381-2.264-4.551-6.409-3.416-12.043a5.353,5.353,0,0,1-.622-.355,18.525,18.525,0,0,0-.957,1.652A23.084,23.084,0,0,0,25.275,45.5a14.15,14.15,0,0,1-1.03,3.01,3.252,3.252,0,0,1-2.706,1.854c-3.274.24-7.144-2.111-9.21-5.6a11.5,11.5,0,0,1-1.616-6.107,13.982,13.982,0,0,1,2.413-7.295c2.131-3.31,6.085-4.577,11.483-3.7.08-.151.169-.3.258-.444a19.169,19.169,0,0,0-1.925-1.181,21.357,21.357,0,0,0-4.4-1.623,13.853,13.853,0,0,1-2.99-1.081,3.225,3.225,0,0,1-1.811-2.744c-.186-3.274,2.238-7.1,5.752-9.1A11.381,11.381,0,0,1,25.63,9.97,13.961,13.961,0,0,1,32.88,12.5c3.221,2.156,4.44,6.043,3.552,11.288a9.324,9.324,0,0,1,1.234.726,18.425,18.425,0,0,0,1.01-1.738,22.8,22.8,0,0,0,1.554-4.42,14.127,14.127,0,0,1,1.03-3.008,3.233,3.233,0,0,1,2.706-1.856c3.274-.24,7.144,2.113,9.21,5.6a11.486,11.486,0,0,1,1.616,6.1,13.982,13.982,0,0,1-2.413,7.295c-1.7,2.635-4.535,3.976-8.333,3.976a20.074,20.074,0,0,1-3.647-.355,8.389,8.389,0,0,1-.6.968A19.448,19.448,0,0,0,41.773,38.3a21.77,21.77,0,0,0,4.393,1.616A13.806,13.806,0,0,1,49.156,41a3.225,3.225,0,0,1,1.811,2.742c.186,3.274-2.235,7.1-5.749,9.1A11.73,11.73,0,0,1,39.5,54.368ZM27.457,36.2a1.319,1.319,0,0,1,.888.337,6.273,6.273,0,0,0,2.042,1.216,1.332,1.332,0,0,1,.841,1.569c-1.25,5.077-.557,8.538,2.069,10.285,4.884,3.265,8.731,1.98,10.587.923,3.008-1.72,4.517-4.713,4.411-6.66,0-.16-.018-.32-.462-.568a12.689,12.689,0,0,0-2.406-.835,24.33,24.33,0,0,1-4.906-1.818,26.07,26.07,0,0,1-3.5-2.291,1.332,1.332,0,0,1-.115-2,6.242,6.242,0,0,0,1.472-2.22,1.332,1.332,0,0,1,1.536-.817c5.077,1.154,8.511.4,10.211-2.247,3.186-4.941,1.838-8.757.746-10.6-1.776-2.981-4.784-4.44-6.726-4.293-.16,0-.32.027-.559.468a13.034,13.034,0,0,0-.8,2.424,24.509,24.509,0,0,1-1.738,4.933,24.7,24.7,0,0,1-2.04,3.268,1.312,1.312,0,0,1-.975.539,1.35,1.35,0,0,1-1.048-.391A6.165,6.165,0,0,0,34.5,25.9a1.319,1.319,0,0,1-.888-1.554c1.019-4.711.275-7.941-2.22-9.61-4.9-3.292-8.74-2-10.6-.95-3,1.734-4.506,4.722-4.4,6.664,0,.16.018.32.46.568a12.69,12.69,0,0,0,2.406.835,24.216,24.216,0,0,1,4.906,1.82,23.928,23.928,0,0,1,3.33,2.173,1.3,1.3,0,0,1,.515.915,1.332,1.332,0,0,1-.311,1,6.353,6.353,0,0,0-1.09,1.856,1.332,1.332,0,0,1-1.518.835c-4.828-1-8.111-.222-9.752,2.342-3.177,4.961-1.829,8.777-.737,10.613,1.776,2.981,4.784,4.44,6.726,4.3.16,0,.32-.027.559-.471a13.06,13.06,0,0,0,.8-2.422,24.523,24.523,0,0,1,1.738-4.935,24.483,24.483,0,0,1,1.936-3.123,1.332,1.332,0,0,1,.932-.542h.149Z" transform="translate(0 0)" fill="#0d9eff"/>
    <path id="Path_2170" data-name="Path 2170" d="M100.144,103.056a2.664,2.664,0,0,0,1.39-5.143h0a2.664,2.664,0,0,0-1.379,5.143Z" transform="translate(-68.117 -68.371)" fill="#0d9eff"/>
  </g>
</svg>
