<svg xmlns="http://www.w3.org/2000/svg" width="40" height="33.974" viewBox="0 0 40 33.974">
  <g id="b" transform="translate(0.005 -0.002)">
    <g id="c" transform="translate(-0.005 0.002)">
      <g id="Group_27" data-name="Group 27" transform="translate(0 0)">
        <path id="Path_17" data-name="Path 17" d="M154.092,9.7l-1-.591c1.381-.372,2.677-.73,3.979-1.065.229-.059.5-.008.3.341-.65,1.178-1.311,2.35-2.017,3.611-.144-.482-.256-.852-.376-1.254a18.688,18.688,0,0,1-16.1,1.469c0,1.437.013,2.787-.008,4.137-.007.391.268.406.5.491a17.276,17.276,0,0,0,14.732-1.241c-.223-.363-.679-.355-.936-.71l4.482-1.211c-.8,1.441-1.526,2.741-2.3,4.127-.144-.478-.256-.85-.379-1.259A18.664,18.664,0,0,1,138.886,18c0,1.441,0,2.812,0,4.182a.358.358,0,0,0,.283.383,17.033,17.033,0,0,0,14.874-1.183c.017-.009.024-.036.056-.087l-1-.591c1.409-.379,2.717-.744,4.035-1.075.341-.085.372.135.228.392-.646,1.158-1.293,2.314-2,3.574-.145-.479-.256-.846-.384-1.269a19.562,19.562,0,0,1-4.58,1.958A17.983,17.983,0,0,1,139.518,24c-.547-.188-.648-.087-.643.468.025,2.623.016,5.245.007,7.866a1.571,1.571,0,0,1-1.034,1.555,1.6,1.6,0,0,1-1.744-.5,1.875,1.875,0,0,1-.335-1.258q.006-6.733.005-13.468,0-8.4,0-16.8c0-1.154.524-1.814,1.453-1.86a1.529,1.529,0,0,1,1.65,1.665c.011,2.844.02,5.689-.009,8.533a.778.778,0,0,0,.623.892,17.185,17.185,0,0,0,14.224-1.11c.132-.069.3-.1.374-.289Z" transform="translate(-117.658 -0.002)" fill="#26a4db"/>
        <path id="Path_18" data-name="Path 18" d="M67.776,107.23c.434.011.7.229.7.639,0,.464-.344.64-.758.64a.591.591,0,0,1-.675-.635c.007-.482.347-.608.738-.644Z" transform="translate(-58.096 -92.926)" fill="#26a4db"/>
        <path id="Path_19" data-name="Path 19" d="M1.388,132.211a.766.766,0,0,1-.788.7.557.557,0,0,1-.6-.63.739.739,0,0,1,.782-.726C1.151,131.535,1.369,131.79,1.388,132.211Z" transform="translate(0.005 -114.004)" fill="#26a4db"/>
        <path id="Path_20" data-name="Path 20" d="M85.775,150.411c.44.032.774.2.763.663a.614.614,0,0,1-.7.624c-.423-.008-.736-.195-.738-.662,0-.44.3-.594.675-.627Z" transform="translate(-73.747 -130.346)" fill="#26a4db"/>
        <path id="Path_21" data-name="Path 21" d="M85.841,64.777c-.41-.028-.738-.18-.742-.652,0-.432.281-.631.683-.635.423-.005.751.187.756.643C86.544,64.55,86.252,64.745,85.841,64.777Z" transform="translate(-73.747 -55.02)" fill="#26a4db"/>
        <path id="Path_22" data-name="Path 22" d="M33.266,115.561c0,.536-.372.708-.787.726a.561.561,0,0,1-.62-.623c.011-.478.35-.64.755-.671a.559.559,0,0,1,.654.568Z" transform="translate(-27.608 -99.651)" fill="#26a4db"/>
        <path id="Path_23" data-name="Path 23" d="M103.617,65.74c.559.028.887.225.875.678a.591.591,0,0,1-.72.6c-.422-.04-.734-.221-.71-.7A.574.574,0,0,1,103.617,65.74Z" transform="translate(-89.312 -56.971)" fill="#26a4db"/>
        <path id="Path_24" data-name="Path 24" d="M16.012,78.521c.383.032.659.217.67.6.015.483-.333.7-.759.742a.563.563,0,0,1-.659-.574c-.024-.5.37-.642.748-.767Z" transform="translate(-13.225 -68.046)" fill="#26a4db"/>
        <path id="Path_25" data-name="Path 25" d="M50,109.98a.577.577,0,0,1,.568.663c-.053.495-.439.638-.878.6a.552.552,0,0,1-.544-.686c.063-.474.428-.568.854-.579Z" transform="translate(-42.583 -95.309)" fill="#26a4db"/>
        <path id="Path_26" data-name="Path 26" d="M121.308,115.231c-.447-.053-.8-.219-.788-.68a.573.573,0,0,1,.706-.6c.414.045.735.229.716.7a.571.571,0,0,1-.632.578Z" transform="translate(-104.442 -98.744)" fill="#26a4db"/>
        <path id="Path_27" data-name="Path 27" d="M103.609,152.76c.578.02.907.217.9.667a.589.589,0,0,1-.715.6c-.424-.036-.739-.216-.715-.7a.549.549,0,0,1,.528-.575Z" transform="translate(-89.329 -132.382)" fill="#26a4db"/>
        <path id="Path_28" data-name="Path 28" d="M16.72,166.228a.77.77,0,0,1-.787.727.561.561,0,0,1-.646-.588c-.013-.5.363-.691.77-.734C16.435,165.593,16.652,165.852,16.72,166.228Z" transform="translate(-13.247 -143.535)" fill="#26a4db"/>
        <path id="Path_29" data-name="Path 29" d="M49.787,67.719c-.359-.037-.627-.205-.642-.6-.019-.515.354-.684.774-.7a.588.588,0,0,1,.656.655C50.56,67.533,50.191,67.657,49.787,67.719Z" transform="translate(-42.588 -57.554)" fill="#26a4db"/>
        <path id="Path_30" data-name="Path 30" d="M121.912,71.038c-.048.382-.261.624-.643.607-.424-.02-.8-.213-.8-.7a.577.577,0,0,1,.639-.607C121.526,70.367,121.876,70.538,121.912,71.038Z" transform="translate(-104.399 -60.956)" fill="#26a4db"/>
        <path id="Path_31" data-name="Path 31" d="M33.275,72c-.015.484-.351.643-.747.687a.553.553,0,0,1-.666-.572c-.025-.516.352-.7.772-.73C33.02,71.361,33.24,71.609,33.275,72Z" transform="translate(-27.61 -61.863)" fill="#26a4db"/>
        <path id="Path_32" data-name="Path 32" d="M103.675,109.2c.492.035.814.228.812.683a.579.579,0,0,1-.656.6c-.422-.025-.81-.18-.775-.714a.576.576,0,0,1,.619-.574Z" transform="translate(-89.306 -94.633)" fill="#26a4db"/>
        <path id="Path_33" data-name="Path 33" d="M49.777,154.724c-.412-.052-.668-.26-.64-.687.031-.479.4-.607.792-.619a.584.584,0,0,1,.644.607C50.574,154.522,50.2,154.669,49.777,154.724Z" transform="translate(-42.579 -132.952)" fill="#26a4db"/>
        <path id="Path_34" data-name="Path 34" d="M121.967,158.017c-.051.391-.245.648-.634.634-.423-.016-.8-.193-.8-.686a.57.57,0,0,1,.623-.618A.741.741,0,0,1,121.967,158.017Z" transform="translate(-104.45 -136.357)" fill="#26a4db"/>
        <path id="Path_35" data-name="Path 35" d="M31.8,159.107c.008-.51.348-.687.739-.724a.566.566,0,0,1,.67.636c-.008.483-.37.639-.764.667a.574.574,0,0,1-.646-.58Z" transform="translate(-27.557 -137.251)" fill="#26a4db"/>
        <path id="Path_36" data-name="Path 36" d="M67.8,65.1c-.471.008-.747-.173-.754-.612-.007-.491.333-.632.752-.642a.593.593,0,0,1,.676.582.61.61,0,0,1-.676.672Z" transform="translate(-58.104 -55.331)" fill="#26a4db"/>
        <path id="Path_37" data-name="Path 37" d="M16.69,122.856a.8.8,0,0,1-.864.662.557.557,0,0,1-.566-.666.739.739,0,0,1,.843-.655C16.5,122.207,16.657,122.493,16.69,122.856Z" transform="translate(-13.218 -105.896)" fill="#26a4db"/>
        <path id="Path_38" data-name="Path 38" d="M67.722,152.122c-.422-.009-.676-.213-.664-.648s.315-.6.718-.606c.42-.009.719.185.712.608C68.481,151.923,68.171,152.131,67.722,152.122Z" transform="translate(-58.111 -130.742)" fill="#26a4db"/>
        <path id="Path_39" data-name="Path 39" d="M.613,89.5c-.415-.064-.646-.289-.6-.678a.733.733,0,0,1,.83-.679.54.54,0,0,1,.55.619c-.025.479-.379.655-.776.736Z" transform="translate(-0.003 -76.389)" fill="#26a4db"/>
        <path id="Path_40" data-name="Path 40" d="M85.632,107.091c.624-.008.946.179.935.642-.009.414-.289.618-.719.6-.411-.012-.7-.167-.71-.612s.261-.627.494-.635Z" transform="translate(-73.78 -92.805)" fill="#26a4db"/>
        <path id="Path_41" data-name="Path 41" d="M.742,174.98c.455.048.679.264.654.659a.727.727,0,0,1-.746.7.548.548,0,0,1-.63-.606c0-.5.372-.65.72-.752Z" transform="translate(-0.017 -151.638)" fill="#26a4db"/>
      </g>
    </g>
  </g>
</svg>
