<svg xmlns="http://www.w3.org/2000/svg" width="60.387" height="30.194" viewBox="0 0 60.387 30.194">
  <path id="flow" d="M55.318,61.942a6.176,6.176,0,0,1-4.059-1.423,9.915,9.915,0,0,0-12.017,0,6.494,6.494,0,0,1-8.113,0,9.541,9.541,0,0,0-6.008-2.028,9.536,9.536,0,0,0-6.007,2.028,6.167,6.167,0,0,1-4.055,1.423,6.165,6.165,0,0,1-4.054-1.423A9.532,9.532,0,0,0,5,58.491v3.451a6.164,6.164,0,0,1,4.053,1.423,9.533,9.533,0,0,0,6.006,2.028,9.537,9.537,0,0,0,6.007-2.028,6.492,6.492,0,0,1,8.112,0,9.913,9.913,0,0,0,12.015,0,6.5,6.5,0,0,1,8.115,0,9.92,9.92,0,0,0,12.02,0,6.176,6.176,0,0,1,4.059-1.423V58.491a9.542,9.542,0,0,0-6.01,2.028A6.175,6.175,0,0,1,55.318,61.942Zm0-7.764a6.176,6.176,0,0,1-4.059-1.423,9.915,9.915,0,0,0-12.017,0,6.494,6.494,0,0,1-8.113,0,9.541,9.541,0,0,0-6.008-2.028,9.536,9.536,0,0,0-6.007,2.028,6.167,6.167,0,0,1-4.055,1.423,6.165,6.165,0,0,1-4.054-1.423A9.532,9.532,0,0,0,5,50.727v3.451A6.164,6.164,0,0,1,9.053,55.6a9.533,9.533,0,0,0,6.006,2.028A9.537,9.537,0,0,0,21.066,55.6a6.492,6.492,0,0,1,8.112,0,9.913,9.913,0,0,0,12.015,0,6.5,6.5,0,0,1,8.115,0,9.92,9.92,0,0,0,12.02,0,6.175,6.175,0,0,1,4.059-1.423V50.727a9.542,9.542,0,0,0-6.01,2.028A6.175,6.175,0,0,1,55.318,54.178Zm0-7.764a6.176,6.176,0,0,1-4.059-1.423,9.915,9.915,0,0,0-12.017,0,6.494,6.494,0,0,1-8.113,0,9.541,9.541,0,0,0-6.008-2.028,9.536,9.536,0,0,0-6.007,2.028,6.167,6.167,0,0,1-4.055,1.423,6.165,6.165,0,0,1-4.054-1.423A9.532,9.532,0,0,0,5,42.963v3.451a6.164,6.164,0,0,1,4.053,1.423,9.533,9.533,0,0,0,6.006,2.028,9.537,9.537,0,0,0,6.007-2.028,6.492,6.492,0,0,1,8.112,0,9.913,9.913,0,0,0,12.015,0,6.5,6.5,0,0,1,8.115,0,9.92,9.92,0,0,0,12.02,0,6.176,6.176,0,0,1,4.059-1.423V42.963a9.542,9.542,0,0,0-6.01,2.028A6.175,6.175,0,0,1,55.318,46.414Zm0-7.764a6.176,6.176,0,0,1-4.059-1.423,9.915,9.915,0,0,0-12.017,0,6.494,6.494,0,0,1-8.113,0A9.541,9.541,0,0,0,25.121,35.2a9.536,9.536,0,0,0-6.007,2.028,6.167,6.167,0,0,1-4.055,1.423,6.165,6.165,0,0,1-4.054-1.423A9.532,9.532,0,0,0,5,35.2V38.65a6.164,6.164,0,0,1,4.053,1.423A9.533,9.533,0,0,0,15.059,42.1a9.537,9.537,0,0,0,6.007-2.028,6.492,6.492,0,0,1,8.112,0,9.913,9.913,0,0,0,12.015,0,6.5,6.5,0,0,1,8.115,0,9.92,9.92,0,0,0,12.02,0,6.176,6.176,0,0,1,4.059-1.423V35.2a9.542,9.542,0,0,0-6.01,2.028A6.175,6.175,0,0,1,55.318,38.65Z" transform="translate(-5 -35.199)" fill="#0d9eff"/>
</svg>
