<svg xmlns="http://www.w3.org/2000/svg" width="28.916" height="46" viewBox="0 0 28.916 46">
  <g id="force" transform="translate(-3536.084 -497)">
    <rect id="Rectangle_3498" data-name="Rectangle 3498" width="5" height="46" rx="2" transform="translate(3560 497)" fill="#385be5"/>
    <g id="layer1" transform="translate(3558.006 1551.318) rotate(180)">
      <path id="path5545" d="M2,1046.355a.751.751,0,0,0,.22.535l4.269,4.265a.543.543,0,0,0,.933-.385V1048H14.73a.553.553,0,0,0,.554-.554v-2.211a.554.554,0,0,0-.554-.554H7.422v-2.787a.548.548,0,0,0-.93-.376l-4.272,4.3a.759.759,0,0,0-.22.538Zm14.943,1.229a.414.414,0,0,0,.415.415h.83a.414.414,0,0,0,.415-.415v-2.489a.414.414,0,0,0-.415-.415h-.83a.414.414,0,0,0-.415.415Zm3.319,0a.414.414,0,0,0,.415.415h.83a.414.414,0,0,0,.415-.415v-2.489a.414.414,0,0,0-.415-.415h-.83a.414.414,0,0,0-.415.415Z" transform="translate(0)" fill="#385be5"/>
    </g>
    <g id="layer1-2" data-name="layer1" transform="translate(3558.006 1566.318) rotate(180)">
      <path id="path5545-2" data-name="path5545" d="M2,1046.355a.751.751,0,0,0,.22.535l4.269,4.265a.543.543,0,0,0,.933-.385V1048H14.73a.553.553,0,0,0,.554-.554v-2.211a.554.554,0,0,0-.554-.554H7.422v-2.787a.548.548,0,0,0-.93-.376l-4.272,4.3a.759.759,0,0,0-.22.538Zm14.943,1.229a.414.414,0,0,0,.415.415h.83a.414.414,0,0,0,.415-.415v-2.489a.414.414,0,0,0-.415-.415h-.83a.414.414,0,0,0-.415.415Zm3.319,0a.414.414,0,0,0,.415.415h.83a.414.414,0,0,0,.415-.415v-2.489a.414.414,0,0,0-.415-.415h-.83a.414.414,0,0,0-.415.415Z" transform="translate(0)" fill="#385be5"/>
    </g>
    <g id="layer1-3" data-name="layer1" transform="translate(3558.006 1582.316) rotate(180)">
      <path id="path5545-3" data-name="path5545" d="M2,1046.355a.751.751,0,0,0,.22.535l4.269,4.265a.543.543,0,0,0,.933-.385V1048H14.73a.553.553,0,0,0,.554-.554v-2.211a.554.554,0,0,0-.554-.554H7.422v-2.787a.548.548,0,0,0-.93-.376l-4.272,4.3a.759.759,0,0,0-.22.538Zm14.943,1.229a.414.414,0,0,0,.415.415h.83a.414.414,0,0,0,.415-.415v-2.489a.414.414,0,0,0-.415-.415h-.83a.414.414,0,0,0-.415.415Zm3.319,0a.414.414,0,0,0,.415.415h.83a.414.414,0,0,0,.415-.415v-2.489a.414.414,0,0,0-.415-.415h-.83a.414.414,0,0,0-.415.415Z" transform="translate(0)" fill="#385be5"/>
    </g>
  </g>
</svg>
