<svg xmlns="http://www.w3.org/2000/svg" width="43.117" height="34.691" viewBox="0 0 43.117 34.691">
  <path id="frequency" d="M42.011,18.74h-8.3a1.643,1.643,0,0,0-.442,0h-.358a2.737,2.737,0,0,0-.316.211,3.516,3.516,0,0,0-.337.253,2.105,2.105,0,0,0-.19.274,2.779,2.779,0,0,0-.253.421h0L28.45,29.185l-8.781-23.8a2.106,2.106,0,0,0-3.959,0L10.845,18.74H4.106a2.106,2.106,0,0,0,0,4.212h9.055a1.811,1.811,0,0,0,.337-.211,3.517,3.517,0,0,0,.337-.253l.19-.274a2.106,2.106,0,0,0,.253-.421h0l3.411-9.54L26.449,36.3a2.106,2.106,0,0,0,1.98,1.39h0a2.106,2.106,0,0,0,1.98-1.39l4.843-13.351h6.76a2.106,2.106,0,0,0,0-4.212Z" transform="translate(-1.5 -3.501)" fill="#00cd8f" stroke="#00cd8f" stroke-width="1"/>
</svg>
