<svg xmlns="http://www.w3.org/2000/svg" width="37.002" height="31.511" viewBox="0 0 37.002 31.511">
  <g id="gas" transform="translate(-1758.507 -548.303)">
    <g id="Layer_5" data-name="Layer 5" transform="translate(1760.015 549.81)">
      <path id="Union_2" data-name="Union 2" d="M10.319,25.768a7.737,7.737,0,0,1-1.076-1.559,6.295,6.295,0,0,1-8.63-5.455,6.3,6.3,0,0,1,3.519-8.626,7.6,7.6,0,0,1-.247-1.872A8.248,8.248,0,0,1,20.1,6.123a8.3,8.3,0,0,1,5.146,4.1,6.122,6.122,0,0,1,2.433-.512,6.313,6.313,0,0,1,0,12.626H24.432a8.245,8.245,0,0,1-14.113,3.429Z" transform="translate(0 0)" fill="none" stroke="#f8bb5e" stroke-width="3"/>
    </g>
  </g>
</svg>
