<svg xmlns="http://www.w3.org/2000/svg" width="78.533" height="78.533" viewBox="0 0 78.533 78.533">
  <g id="generic" transform="translate(-12.002 32.696) rotate(-45)">
    <path id="Path_2237" data-name="Path 2237" d="M21.448,35.816H21.41a2.469,2.469,0,0,1-2.433-2.5,2.306,2.306,0,0,0-.693-1.681,2.278,2.278,0,0,0-1.681-.693h-.035A2.468,2.468,0,1,1,16.535,26a7.462,7.462,0,0,1,5.232,2.139,7.206,7.206,0,0,1,2.139,5.237A2.458,2.458,0,0,1,21.448,35.816Zm9.78,0h-.01a2.469,2.469,0,0,1-2.458-2.478A12.158,12.158,0,0,0,16.643,21.167h-.067a2.468,2.468,0,0,1-.013-4.936h.079A17.1,17.1,0,0,1,33.7,33.36a2.468,2.468,0,0,1-2.468,2.456Z" transform="translate(15.734 6.524)" fill="gray"/>
    <path id="Path_2238" data-name="Path 2238" d="M56.74,42.34a2.469,2.469,0,0,1-2.468-2.468A21.949,21.949,0,0,0,32.311,17.911a2.468,2.468,0,1,1,0-4.936,26.886,26.886,0,0,1,26.9,26.9A2.465,2.465,0,0,1,56.74,42.34ZM37.879,68.821a2.458,2.458,0,0,1-1.745-.723L4.723,36.687a2.465,2.465,0,0,1,0-3.492l6.984-6.984a2.54,2.54,0,0,1,3.492,0L46.606,57.63a2.465,2.465,0,0,1,0,3.492l-6.984,6.984a2.472,2.472,0,0,1-1.742.714ZM9.958,34.943,37.879,62.864l3.492-3.492L13.45,31.45Z" transform="translate(0 0)" fill="gray"/>
  </g>
</svg>
