<svg xmlns="http://www.w3.org/2000/svg" width="39.299" height="34.833" viewBox="0 0 39.299 34.833">
  <path id="health" d="M25.012,18.178H23.1V16.261a1.917,1.917,0,1,0-3.834,0v1.917H17.345a1.917,1.917,0,1,0,0,3.834h1.917v1.917a1.917,1.917,0,1,0,3.834,0V22.011h1.917a1.917,1.917,0,1,0,0-3.834ZM36.82,6.677A12.056,12.056,0,0,0,21.179,5.546,12.018,12.018,0,0,0,5.538,23.717l11.5,11.6a5.75,5.75,0,0,0,8.127,0l11.5-11.6a12.018,12.018,0,0,0,.153-17.04Zm-2.7,14.3-11.5,11.5a1.917,1.917,0,0,1-2.722,0l-11.5-11.5a8.132,8.132,0,1,1,11.5-11.5,1.917,1.917,0,0,0,2.722,0,8.146,8.146,0,1,1,11.5,11.539Z" transform="translate(-1.487 -2.663)" fill="#00cd8f" stroke="#00cd8f" stroke-width="1"/>
</svg>
