<svg xmlns="http://www.w3.org/2000/svg" width="44.781" height="56.883" viewBox="0 0 44.781 56.883">
  <g id="heat" transform="translate(-9.929 -6.107)">
    <path id="Path_2191" data-name="Path 2191" d="M52.756,31.839a22.247,22.247,0,0,0-5.26-7.326l-1.859-1.684a.509.509,0,0,0-.826.207L43.985,25.4a13.412,13.412,0,0,1-2.8,4.5.381.381,0,0,1-.254.127.318.318,0,0,1-.286-.1.429.429,0,0,1-.127-.3,24.6,24.6,0,0,0-3.464-12.84,22.772,22.772,0,0,0-8.549-9.074L25.933,6.175a.509.509,0,0,0-.763.461l.143,3.051a13.936,13.936,0,0,1-.715,5.466,18.354,18.354,0,0,1-6.007,8.1,22.5,22.5,0,0,0-6.356,7.723,22.1,22.1,0,0,0-2.3,9.8,21.739,21.739,0,0,0,1.7,8.645,22.523,22.523,0,0,0,41.316.016A22.041,22.041,0,0,0,52.8,31.839ZM45,53.4a18.179,18.179,0,0,1-25.553,0A17.718,17.718,0,0,1,16.08,32.951a18.211,18.211,0,0,1,5.085-6.261,22.152,22.152,0,0,0,3.718-3.607,22.756,22.756,0,0,0,3.7-6.356,15.477,15.477,0,0,0,.763-2.956,19.2,19.2,0,0,1,3.893,5.117,20.229,20.229,0,0,1,2.908,10.52,4.767,4.767,0,0,0,4.942,5.006,4.608,4.608,0,0,0,3.178-1.589,19.07,19.07,0,0,0,2.32-2.924,17.1,17.1,0,0,1,2.225,3.7A17.7,17.7,0,0,1,45,53.4Z" transform="translate(0 0)" fill="#f90"/>
  </g>
</svg>
