<svg xmlns="http://www.w3.org/2000/svg" width="41.204" height="62.786" viewBox="0 0 41.204 62.786">
  <path id="humidity" d="M26.039,64.786A20.6,20.6,0,0,0,44.467,34.972L28.846,3.736a3.137,3.137,0,0,0-5.613,0L7.612,34.972A20.6,20.6,0,0,0,26.039,64.786Zm0-52.628L13.228,37.782A14.323,14.323,0,0,0,26.039,58.508h0A14.323,14.323,0,0,0,38.851,37.782Zm0,40.07a8.96,8.96,0,0,0,8.015-12.965,3.139,3.139,0,1,0-5.616,2.807,2.68,2.68,0,0,1-2.4,3.88,3.139,3.139,0,0,0,0,6.279Z" transform="translate(-5.438 -2)" fill="#0d9eff" fill-rule="evenodd"/>
</svg>
