<svg xmlns="http://www.w3.org/2000/svg" width="52.821" height="49.048" viewBox="0 0 52.821 49.048">
  <g id="light" transform="translate(52.821 49.048) rotate(180)">
    <path id="Path_1676" data-name="Path 1676" d="M26.41,37.729a14.393,14.393,0,0,1-2.981-.3,15.092,15.092,0,0,1-7.055-26.109,1.886,1.886,0,0,0,.6-1.3V5.659A5.659,5.659,0,0,1,22.637,0h7.546a5.659,5.659,0,0,1,5.659,5.659v4.358a1.886,1.886,0,0,0,.566,1.339,15.092,15.092,0,0,1-10,26.373ZM22.637,3.773a1.886,1.886,0,0,0-1.886,1.886v4.358a5.659,5.659,0,0,1-1.886,4.169,11.362,11.362,0,1,0,15.092-.019,5.546,5.546,0,0,1-1.886-4.15V5.659a1.886,1.886,0,0,0-1.886-1.886ZM26.41,49.048a1.886,1.886,0,0,1-1.886-1.886V43.388a1.886,1.886,0,0,1,3.773,0v3.773A1.886,1.886,0,0,1,26.41,49.048ZM9.074,41.86a1.877,1.877,0,0,1-1.339-3.207l2.66-2.679a1.894,1.894,0,0,1,2.679,2.679l-2.679,2.66A1.886,1.886,0,0,1,9.074,41.86ZM5.659,24.524H1.886a1.886,1.886,0,1,1,0-3.773H5.659a1.886,1.886,0,0,1,0,3.773ZM43.747,41.86a1.886,1.886,0,0,1-1.321-.547l-2.679-2.66a1.894,1.894,0,1,1,2.679-2.679l2.66,2.679a1.877,1.877,0,0,1-1.339,3.207Zm7.187-17.337H47.161a1.886,1.886,0,1,1,0-3.773h3.773a1.886,1.886,0,1,1,0,3.773Z" transform="translate(0 0)" fill="#d9d200"/>
  </g>
</svg>
