<svg xmlns="http://www.w3.org/2000/svg" width="27.147" height="33.934" viewBox="0 0 27.147 33.934">
  <path id="location" d="M17.573,2A13.573,13.573,0,0,0,4,15.573c0,9.162,11.962,19.512,12.471,19.953a1.7,1.7,0,0,0,2.206,0c.594-.441,12.471-10.791,12.471-19.953A13.573,13.573,0,0,0,17.573,2Zm0,29.946C13.959,28.553,7.393,21.24,7.393,15.573a10.18,10.18,0,1,1,20.36,0C27.753,21.24,21.187,28.57,17.573,31.946Zm0-23.16a6.787,6.787,0,1,0,6.787,6.787A6.787,6.787,0,0,0,17.573,8.787Zm0,10.18a3.393,3.393,0,1,1,3.393-3.393A3.393,3.393,0,0,1,17.573,18.967Z" transform="translate(-4 -2)" fill="#6bc800"/>
</svg>
