<svg xmlns="http://www.w3.org/2000/svg" width="35.919" height="44.899" viewBox="0 0 35.919 44.899">
  <path id="lock" d="M21.96,26.695a3.345,3.345,0,0,0-2.245,5.859v3.121a2.245,2.245,0,0,0,4.49,0V32.554a3.345,3.345,0,0,0-2.245-5.859Zm11.225-8.98v-4.49a11.225,11.225,0,1,0-22.45,0v4.49A6.735,6.735,0,0,0,4,24.45V40.165A6.735,6.735,0,0,0,10.735,46.9h22.45a6.735,6.735,0,0,0,6.735-6.735V24.45A6.735,6.735,0,0,0,33.185,17.715Zm-17.96-4.49a6.735,6.735,0,0,1,13.47,0v4.49H15.225Zm20.2,26.94a2.245,2.245,0,0,1-2.245,2.245H10.735A2.245,2.245,0,0,1,8.49,40.165V24.45A2.245,2.245,0,0,1,10.735,22.2h22.45A2.245,2.245,0,0,1,35.43,24.45Z" transform="translate(-4 -2)" fill="#f80"/>
</svg>
