<svg xmlns="http://www.w3.org/2000/svg" width="64.04" height="59.43" viewBox="0 0 64.04 59.43">
  <g id="occupancy" transform="translate(0 -2.29)">
    <path id="Path_2286" data-name="Path 2286" d="M59.07,21.99H47.8a4.693,4.693,0,0,0-3.02,1.1V38.32a3.147,3.147,0,0,1-1.82,2.83l-.07.03.01.07a1.969,1.969,0,0,0,1.95,1.76,2.024,2.024,0,0,0,1.42-.59,1.7,1.7,0,0,0,.17-.23l.05-.07V29.54a.4.4,0,0,1,.41-.4.4.4,0,0,1,.41.4V58.86a2.865,2.865,0,0,0,5.73,0V43.51a.4.4,0,0,1,.41-.4.41.41,0,0,1,.41.4V58.85a2.865,2.865,0,0,0,5.73,0V29.54a.41.41,0,0,1,.82,0l.02,12.63a2.041,2.041,0,0,0,1.65.82,1.927,1.927,0,0,0,1.37-.55,1.978,1.978,0,0,0,.59-1.4V26.94A5,5,0,0,0,59.07,21.99ZM19.22,38.33l-.04-15.3A4.841,4.841,0,0,0,16.19,22H4.93A4.927,4.927,0,0,0,0,26.93v14.1a1.985,1.985,0,0,0,1.98,1.98,2.024,2.024,0,0,0,1.42-.59,1.582,1.582,0,0,0,.22-.32V29.54a.4.4,0,0,1,.41-.4.41.41,0,0,1,.41.4V58.86a2.865,2.865,0,0,0,5.73,0V43.51a.41.41,0,0,1,.82,0V58.85a2.865,2.865,0,0,0,5.73,0V29.54a.4.4,0,0,1,.41-.4.4.4,0,0,1,.41.4l.02,12.62a2.019,2.019,0,0,0,1.66.82,1.9,1.9,0,0,0,1.36-.54,2.057,2.057,0,0,0,.57-1.17l.01-.07-.07-.03A3.138,3.138,0,0,1,19.22,38.33Z" fill="#385be5"/>
    <path id="Path_2287" data-name="Path 2287" d="M43.97,38.33V22.43a5.625,5.625,0,0,0-5.62-5.62H25.65a5.625,5.625,0,0,0-5.62,5.62v15.9a2.3,2.3,0,0,0,2.29,2.29,2.226,2.226,0,0,0,1.63-.68,1.358,1.358,0,0,0,.27-.39V25.36a.4.4,0,0,1,.41-.4.41.41,0,0,1,.41.4V58.42a3.28,3.28,0,0,0,6.56,0V41.12a.412.412,0,0,1,.41-.41.406.406,0,0,1,.41.41V58.43a3.28,3.28,0,1,0,6.56,0V25.36a.41.41,0,0,1,.82,0l.02,14.24a2.272,2.272,0,0,0,3.5.34A2.347,2.347,0,0,0,43.97,38.33ZM32,15.31A6.51,6.51,0,1,0,25.49,8.8,6.517,6.517,0,0,0,32,15.31ZM10.57,20.73a5.71,5.71,0,1,0-5.71-5.71A5.715,5.715,0,0,0,10.57,20.73Zm42.86,0a5.71,5.71,0,1,0-5.71-5.71A5.715,5.715,0,0,0,53.43,20.73Z" fill="#385be5"/>
  </g>
</svg>
