<svg xmlns="http://www.w3.org/2000/svg" width="52.383" height="52.383" viewBox="0 0 52.383 52.383">
  <path id="parking" d="M30.811,15.1H22.953a2.619,2.619,0,0,0-2.619,2.619V38.668a2.619,2.619,0,1,0,5.238,0V33.43h5.238a7.857,7.857,0,0,0,7.857-7.857V22.953A7.857,7.857,0,0,0,30.811,15.1ZM33.43,25.572a2.619,2.619,0,0,1-2.619,2.619H25.572V20.334h5.238a2.619,2.619,0,0,1,2.619,2.619ZM28.192,2A26.192,26.192,0,1,0,54.383,28.192,26.192,26.192,0,0,0,28.192,2Zm0,47.145A20.953,20.953,0,1,1,49.145,28.192,20.953,20.953,0,0,1,28.192,49.145Z" transform="translate(-2 -2)" fill="#f80"/>
</svg>
