<svg xmlns="http://www.w3.org/2000/svg" width="170.232" height="170.232" viewBox="0 0 170.232 170.232">
  <g id="_1" data-name="1" transform="translate(-6402.105 -2700.663)">
    <g id="b" transform="translate(6405.105 2703.663)">
      <g id="c" transform="translate(0 0)">
        <g id="Group_31" data-name="Group 31" transform="translate(30.709 35.519)">
          <g id="Group_30" data-name="Group 30" transform="translate(0 12.158)">
            <path id="Path_45" data-name="Path 45" d="M217.016,192.254c.066.32-.205.555-.214.857a1.518,1.518,0,0,0-.29.519c-2.231,4.775-4.461,9.551-6.928,14.211a79.123,79.123,0,0,1-5.615,9.291,28.106,28.106,0,0,1-4.3,4.875,13.877,13.877,0,0,1-2.843,1.947,7.826,7.826,0,0,1-7.317.033,14.708,14.708,0,0,1-3.809-2.816c-.694-.676-1.307-1.428-1.965-2.134a3.524,3.524,0,0,0-.565-.721,1.08,1.08,0,0,0-.072-.13,64.407,64.407,0,0,1-5.083-7.918c-2.318-4.157-4.383-8.44-6.42-12.738-.534-1.129-1.075-2.258-1.612-3.387a5.9,5.9,0,0,0-.507-1.147,3.81,3.81,0,0,0-.386-.767c-.048-.124-.088-.251-.145-.371-1.334-2.819-2.65-5.648-4.009-8.458a131.535,131.535,0,0,0-6.26-11.688,41.522,41.522,0,0,0-5.116-6.913,15.459,15.459,0,0,0-3.607-2.925,7.691,7.691,0,0,0-3.015-1.008,7.528,7.528,0,0,0-4.809,1.232,17.912,17.912,0,0,0-4.09,3.661,3.358,3.358,0,0,0-.61.788,2.19,2.19,0,0,0-.561.694c-.118.139-.245.275-.353.42a64.794,64.794,0,0,0-4.534,7.13c-2.315,4.132-4.38,8.395-6.4,12.675-.746,1.582-1.473,3.172-2.21,4.76a2.553,2.553,0,0,0-.4.881,1.96,1.96,0,0,0-.3.57c-2.231,4.775-4.461,9.551-6.931,14.211a76.96,76.96,0,0,1-5.681,9.366,27.073,27.073,0,0,1-4.67,5.141c-.323.263-.667.5-1,.752a.53.53,0,0,1-.6.1,1.338,1.338,0,0,1,.018-.785,6.722,6.722,0,0,0,1.093-.791,26.669,26.669,0,0,0,4.516-5.008,73.78,73.78,0,0,0,5.213-8.536c2.6-4.836,4.917-9.807,7.235-14.779a2.067,2.067,0,0,0,.072-.232,3.469,3.469,0,0,0,.42-.872c.232-.48.471-.957.7-1.44,2.3-4.929,4.606-9.852,7.184-14.643a69.783,69.783,0,0,1,5.94-9.5.242.242,0,0,0,.075-.178,2.42,2.42,0,0,0,.592-.694c.652-.715,1.268-1.461,1.965-2.137a15.146,15.146,0,0,1,3.631-2.726,7.923,7.923,0,0,1,7.809.106,16.866,16.866,0,0,1,4.38,3.619,46,46,0,0,1,5.162,7.187c2.354,3.9,4.4,7.972,6.381,12.074.993,2.059,1.956,4.129,2.934,6.194a1.48,1.48,0,0,0,.284.519,1.345,1.345,0,0,0,.311.646,3.781,3.781,0,0,0,.42.969,5.235,5.235,0,0,0,.426.891c.118.275.232.552.359.824,2.273,4.863,4.552,9.723,7.1,14.45a70.81,70.81,0,0,0,5.43,8.754,1.268,1.268,0,0,0,.359.411,1.926,1.926,0,0,0,.589.73,5.947,5.947,0,0,0,.963,1.2,15.89,15.89,0,0,0,4.123,3.462,7.011,7.011,0,0,0,5.738.715,11.124,11.124,0,0,0,3.809-2.252,25.348,25.348,0,0,0,3.737-4.1,70.522,70.522,0,0,0,5.548-8.917c2.656-4.92,5.014-9.985,7.38-15.044a1.65,1.65,0,0,0,.075-.235,4.333,4.333,0,0,0,.432-.881c.374-.359.462-.362.839,0Z" transform="translate(-103.735 -159.952)" fill="#cc3939" stroke="#ff5700" stroke-width="3"/>
            <path id="Path_46" data-name="Path 46" d="M259.8,233.6a3.448,3.448,0,0,1,.564.721,22.153,22.153,0,0,1-3.888,3.815A10.028,10.028,0,0,1,252.523,240a7.813,7.813,0,0,1-5.156-.733,14.978,14.978,0,0,1-3.84-2.859,36.1,36.1,0,0,1-4.736-6.007,105.759,105.759,0,0,1-5.72-10.154c-1.739-3.438-3.378-6.925-5.011-10.414-.085-.181-.187-.353-.281-.528a10.734,10.734,0,0,0-.845-1.775.8.8,0,0,0-.148-.417c-.918-1.962-1.829-3.927-2.762-5.88-2.062-4.317-4.169-8.609-6.589-12.738a55.162,55.162,0,0,0-3.945-5.959,2.193,2.193,0,0,1,.562-.694c.115.142.232.284.341.432a71.568,71.568,0,0,1,5.645,9.077c2.442,4.534,4.64,9.188,6.819,13.849a3.836,3.836,0,0,0,.368.706,1.841,1.841,0,0,0,.293.706,7.1,7.1,0,0,0,.468.933,2.115,2.115,0,0,0,.365.809l.042.1c.057.139.112.278.175.414,1.2,2.548,2.394,5.1,3.622,7.64a133.93,133.93,0,0,0,6.4,11.953,42.7,42.7,0,0,0,4.682,6.426A15.842,15.842,0,0,0,246,237.375a1,1,0,0,0,.492.371,9.568,9.568,0,0,0,1.385.8,7.025,7.025,0,0,0,3.586.727,7.708,7.708,0,0,0,3.26-1.038,17.832,17.832,0,0,0,5.068-4.627Z" transform="translate(-180.36 -175.232)" fill="#cc3939" stroke="#ff5700" stroke-width="3"/>
            <path id="Path_47" data-name="Path 47" d="M369.509,221.934a1.926,1.926,0,0,1-.589-.73c.906-1.18,1.745-2.406,2.539-3.662,1.838-2.907,3.468-5.931,5.026-9,1.971-3.882,3.828-7.818,5.648-11.772a2.335,2.335,0,0,0,.384-.9,1.57,1.57,0,0,0,.287-.519c2.022-4.317,4.03-8.642,6.209-12.886a91.082,91.082,0,0,1,6.118-10.5,30.125,30.125,0,0,1,4.76-5.527,13.542,13.542,0,0,1,1.379-1.078,1.8,1.8,0,0,1,.344-.2.382.382,0,0,1,.477.172.389.389,0,0,1-.006.468.942.942,0,0,1-.22.2,21.577,21.577,0,0,0-4.646,4.6,60.523,60.523,0,0,0-5.077,7.851c-2.59,4.63-4.869,9.421-7.127,14.217-.447.951-.888,1.9-1.331,2.856a.586.586,0,0,0-.1.329,2.669,2.669,0,0,0-.432.869,5.251,5.251,0,0,0-.45.891c-2.246,4.806-4.492,9.608-6.994,14.287a71.565,71.565,0,0,1-6.155,9.892.49.49,0,0,0-.051.136Z" transform="translate(-288.873 -163.57)" fill="#cc3939" stroke="#ff5700" stroke-width="3"/>
            <path id="Path_48" data-name="Path 48" d="M104.651,192.241c-.13.112-.16.284-.254.417a.4.4,0,0,1-.468.178c-.187-.057-.16-.226-.157-.368,0-.211.018-.423.03-.634.275-.57.558-1.135.827-1.708,2.213-4.73,4.437-9.451,6.912-14.051a71.345,71.345,0,0,1,5.651-9.089,24.033,24.033,0,0,1,4.772-4.969,10.712,10.712,0,0,1,3.308-1.733,7.674,7.674,0,0,1,5.605.447,14.3,14.3,0,0,1,3.969,2.846,24.7,24.7,0,0,1,2.016,2.228,2.375,2.375,0,0,1-.592.694,14.348,14.348,0,0,0-1.527-1.784,14.176,14.176,0,0,0-4.163-3.16,6.858,6.858,0,0,0-4.965-.465,10.216,10.216,0,0,0-3.532,1.929,24.545,24.545,0,0,0-4.317,4.648,71.291,71.291,0,0,0-5.451,8.8c-2.729,5.068-5.156,10.284-7.586,15.5a.422.422,0,0,0-.081.281Z" transform="translate(-103.759 -159.948)" fill="#cc3939" stroke="#ff5700" stroke-width="3"/>
          </g>
          <line id="Line_14" data-name="Line 14" x2="123.938" transform="translate(0.168 45.347)" fill="none" stroke="#ff5700" stroke-miterlimit="10" stroke-width="6"/>
          <line id="Line_15" data-name="Line 15" y2="92.687" transform="translate(0.168)" fill="none" stroke="#ff5700" stroke-miterlimit="10" stroke-width="6"/>
        </g>
        <circle id="Ellipse_13" data-name="Ellipse 13" cx="82.116" cy="82.116" r="82.116" transform="translate(0 0)" fill="none" stroke="#ff5700" stroke-miterlimit="10" stroke-width="6"/>
      </g>
    </g>
  </g>
</svg>
