<svg xmlns="http://www.w3.org/2000/svg" width="57.563" height="53.094" viewBox="0 0 57.563 53.094">
  <path id="Path_3560" data-name="Path 3560" d="M30.88,53.744V49.017a20.113,20.113,0,0,0,8.006-1.525A21.916,21.916,0,0,0,51.771,34.149a26.875,26.875,0,0,0,.915-3.965,17.968,17.968,0,0,0-.229-6.862,29.333,29.333,0,0,0-.915-3.66,22.55,22.55,0,0,0-7.015-9.607,25.986,25.986,0,0,0-8.692-4.117,22.246,22.246,0,0,0-8.311-.229c-5.245,1.348-9.78,3.3-12.581,7.015-.471.626-1.124,1.177-1.6,1.83a22.6,22.6,0,0,0-2.592,5.032A9.212,9.212,0,0,0,9.988,22.1c.408.4,1.064.51,1.525.839a7.306,7.306,0,0,1,3.05,5.947h-.076v.076H11.132c.027,1.081.21,4.389-.381,4.727-.444.254-.741.033-1.144-.076a8.42,8.42,0,0,1-.3-3.126c0-.395.137-1.319,0-1.449-.469-.3-3.329-.085-4.117-.076a17.9,17.9,0,0,1-.229,4.575l-.61.3a1.447,1.447,0,0,1-.839-.381c-.371-.573-.172-3.519-.152-4.5H.076L0,28.735a5.511,5.511,0,0,0,.229-1.677A9.726,9.726,0,0,1,1.6,24.313a7.888,7.888,0,0,1,2.211-1.83c.381-.181,1.009-.175,1.22-.61.33-.462.264-1.239.457-1.83a31.184,31.184,0,0,1,1.449-3.965A28.649,28.649,0,0,1,14.182,6.7,34.094,34.094,0,0,1,24.323,1.516a27.154,27.154,0,0,1,11.818-.381A51.066,51.066,0,0,1,41.1,2.583a27.518,27.518,0,0,1,10.6,7.853,30.369,30.369,0,0,1,4.8,9,27.844,27.844,0,0,1-.686,17.308A30.078,30.078,0,0,1,53.3,41.85,26.256,26.256,0,0,1,30.88,53.744Zm-8.006-21.5a30.518,30.518,0,0,1,1.144-4.8c.775-2.718,1.113-5.534,1.906-8.158.365-1.208.5-2.461.839-3.583.147-.49.051-1,.305-1.373a6.554,6.554,0,0,1,2.364-.076,20.441,20.441,0,0,1,3.05-.076h7.93v.152a16.09,16.09,0,0,0-1.754,3.2c-.477.871-1.081,1.815-1.6,2.669-.4.654-.595,1.333-.991,1.982a10.1,10.1,0,0,0-1.144,2.059h.839c.337-.212,1.193-.049,1.677-.076a16.058,16.058,0,0,1,3.736-.152c-.866,1.36-2.169,2.457-3.126,3.736-2.176,2.909-4.613,5.552-6.786,8.463-.751,1.006-1.767,1.89-2.516,2.9-1.184,1.59-2.564,3.007-3.736,4.575-.411.55-.894,1.587-1.525,1.83v-.152a4.806,4.806,0,0,0,.61-1.525c.361-.852.709-1.713,1.067-2.669.8-1.941,1.535-3.947,2.364-5.947A24.241,24.241,0,0,0,28.669,32.4C26.85,32.274,24.742,32.28,22.874,32.243Z" transform="translate(0 -0.65)" fill="#d9d200" fill-rule="evenodd"/>
</svg>
