<svg xmlns="http://www.w3.org/2000/svg" width="45.282" height="57.201" viewBox="0 0 45.282 57.201">
  <g id="pressure" transform="translate(-4.997 0.005)">
    <path id="Path_2283" data-name="Path 2283" d="M50.28,22.641A22.64,22.64,0,1,0,16.916,42.575v3.9a3.575,3.575,0,0,0,3.575,3.575V56a1.192,1.192,0,1,0,2.383,0V50.046h9.532V56a1.192,1.192,0,1,0,2.383,0V50.046a3.575,3.575,0,0,0,3.575-3.575v-3.9A22.64,22.64,0,0,0,50.28,22.641Zm-14.3,23.831a1.192,1.192,0,0,1-1.192,1.192h-14.3A1.192,1.192,0,0,1,19.3,46.472v-2.8a22.366,22.366,0,0,0,16.682,0ZM27.64,42.9A20.256,20.256,0,1,1,47.9,22.641,20.256,20.256,0,0,1,27.64,42.9Z" transform="translate(0 0)" fill="#961cba"/>
    <path id="Path_2284" data-name="Path 2284" d="M26.873,4A17.873,17.873,0,1,0,44.747,21.873,17.873,17.873,0,0,0,26.873,4Zm1.192,33.364V36.172a1.192,1.192,0,0,0-2.383,0v1.192a15.49,15.49,0,0,1-14.239-14.3h1.132a1.192,1.192,0,0,0,0-2.383H11.443A15.49,15.49,0,0,1,25.682,6.443V7.575a1.192,1.192,0,1,0,2.383,0V6.383a15.49,15.49,0,0,1,14.3,14.3H41.172a1.192,1.192,0,0,0,0,2.383h1.192A15.49,15.49,0,0,1,28.065,37.364Z" transform="translate(0.767 0.767)" fill="#961cba"/>
    <path id="Path_2285" data-name="Path 2285" d="M31.145,12.346a1.192,1.192,0,0,0-1.752.071c-4.159,4.921-3.6,4.349-3.861,4.349A3.575,3.575,0,0,0,22.041,21.1l-5.755,6.8a1.192,1.192,0,0,0,1.68,1.68c8.079-6.863,6.375-5.672,7.566-5.672a3.575,3.575,0,0,0,3.575-3.741C35.279,14.944,34.922,16.135,31.145,12.346Zm-5.612,9.187a1.192,1.192,0,1,1,1.192-1.192A1.192,1.192,0,0,1,25.533,21.533Zm4.838-6.577.548.548C27.129,18.709,27.129,18.792,30.37,14.956Z" transform="translate(2.108 2.299)" fill="#961cba"/>
  </g>
</svg>
