<svg xmlns="http://www.w3.org/2000/svg" width="40.069" height="48.758" viewBox="0 0 40.069 48.758">
  <g id="proximity" transform="translate(0 0)">
    <path id="Path_1681" data-name="Path 1681" d="M11.5,11.5a5.535,5.535,0,0,0,5.5-5.5A5.5,5.5,0,0,0,6,6,5.535,5.535,0,0,0,11.5,11.5Zm5.187,1.452H6.309A5.779,5.779,0,0,0,.5,18.654V30.17a1.639,1.639,0,0,0,1.66,1.66H5.376L7.139,47.7A1.772,1.772,0,0,0,8.8,49.258H14.09A1.684,1.684,0,0,0,15.75,47.7l1.66-15.872h3.32a1.639,1.639,0,0,0,1.66-1.66V18.654A5.624,5.624,0,0,0,16.683,12.949Z" transform="translate(-0.5 -0.5)" fill="#385be5"/>
    <path id="Path_1682" data-name="Path 1682" d="M12.512,6.758a17.162,17.162,0,0,0,0,24.241l2.02-2.02a14.262,14.262,0,0,1,0-20.2Zm4.04,4.04a11.448,11.448,0,0,0,0,16.161l2.02-2.02a8.549,8.549,0,0,1,0-12.121Z" transform="translate(18.54 2.907)" fill="#385be5"/>
    <path id="Path_1708" data-name="Path 1708" d="M9.153,6.758a5.661,5.661,0,0,0,0,8l1.666-1.666a3.38,3.38,0,0,1,0-4.664Z" transform="translate(29.25 11.029)" fill="#385be5"/>
  </g>
</svg>
