<svg xmlns="http://www.w3.org/2000/svg" width="40.891" height="40.891" viewBox="0 0 40.891 40.891">
  <g id="Group_39" data-name="Group 39" transform="translate(-6191.87 -1985.25)">
    <g id="Group_28" data-name="Group 28" transform="translate(6198.493 1998.624)">
      <path id="Path_42" data-name="Path 42" d="M61.111,162.238a3.27,3.27,0,0,1,1.635-1.16,2.448,2.448,0,0,1,3.12,1.576.869.869,0,0,0,.974.607c.9-.037,1.8,0,2.7-.01.427,0,.75.154.76.594s-.313.607-.74.6c-1.218-.009-2.436-.015-3.654,0a.758.758,0,0,1-.822-.567,6.6,6.6,0,0,0-.335-.807,1.434,1.434,0,0,0-2.493-.314,5.519,5.519,0,0,0-.759,1.243.627.627,0,0,1-.69.418.638.638,0,0,1-.512-.551c-.063-.235-.105-.475-.174-.709-.154-.526-.326-1.05-1-1.092a1.58,1.58,0,0,0-1.7.872,10.757,10.757,0,0,0-.374,1.028.6.6,0,0,1-1.168-.009c-.048-.137-.092-.278-.139-.415-.2-.6-.447-1.139-1.195-1.208a1.919,1.919,0,0,0-1.974.816c-.145.224-.271.462-.393.7-.162.31-.326.63-.752.562s-.506-.392-.54-.757c-.114-1.253-.743-1.508-2.009-1.3a1.23,1.23,0,0,0-1,1.123c-.143.8-.585,1-1.338.959-1.021-.058-2.046-.026-3.069-.016-.445,0-.817-.11-.812-.611s.39-.6.829-.589c.877.013,1.755-.016,2.631.013a.647.647,0,0,0,.74-.488,2.832,2.832,0,0,1,4.651-.819c.183.19.241.241.484.047a3.005,3.005,0,0,1,4.264-.01c.282.222.323.02.428-.11a2.652,2.652,0,0,1,1.4-.883,2.42,2.42,0,0,1,3.027,1.263Z" transform="translate(-42.66 -150.31)" fill="#1cc372"/>
      <path id="Path_43" data-name="Path 43" d="M122.526,94.382c-.366,0-.73.009-1.1,0-.778-.02-1.513-.17-2.069.722a1.571,1.571,0,0,1-1.933.417,1.724,1.724,0,0,1-1.263-1.544c-.032-.55-.306-.722-.741-.905-2.286-.956-4.558-1.943-6.836-2.919-.433-.186-.955-.37-.678-.975.253-.556.717-.319,1.13-.14,2.366,1.018,4.736,2.024,7.1,3.05a.833.833,0,0,0,.915-.067,1.857,1.857,0,0,1,2.7.676.828.828,0,0,0,.857.471c1.363.02,2.726.076,4.089.1.452.009.882.066.86.633s-.477.575-.914.569c-.706-.01-1.411,0-2.117,0v-.082Zm-3.682-.73a.742.742,0,0,0-.823-.733.757.757,0,0,0,.045,1.511.741.741,0,0,0,.778-.776Z" transform="translate(-98.302 -88.83)" fill="#1cc372"/>
      <path id="Path_44" data-name="Path 44" d="M48.492,112.936c-.632,0-1.265,0-1.9,0-.485,0-1.1.1-1.105-.6s.638-.6,1.1-.616c1.313-.044,2.628-.078,3.941-.086a.7.7,0,0,0,.727-.427,1.91,1.91,0,0,1,2.223-.975,2.007,2.007,0,0,1,1.456,1.81A1.963,1.963,0,0,1,53.588,114a1.859,1.859,0,0,1-2.23-.774.788.788,0,0,0-.822-.408c-.68.023-1.361.007-2.043.007v.107Zm4.456-.009a.772.772,0,0,0,.793-.772.768.768,0,0,0-1.535-.061c-.037.474.265.75.743.835Z" transform="translate(-45.076 -107.046)" fill="#1cc372"/>
    </g>
    <circle id="Ellipse_12" data-name="Ellipse 12" cx="19.695" cy="19.695" r="19.695" transform="translate(6192.62 1986)" fill="none" stroke="#1bc473" stroke-miterlimit="10" stroke-width="1.5"/>
  </g>
</svg>
