<svg xmlns="http://www.w3.org/2000/svg" width="45.444" height="52.607" viewBox="0 0 45.444 52.607">
  <path id="smoke" d="M39.149,56.009c0,.067.011.131.014.2-5.883.93-10.314,5.034-10.314,9.957,0,3.809,2.657,7.124,6.582,8.862a7.4,7.4,0,0,0-2.3,5.23c0,4.673,4.792,8.463,10.705,8.463h0a5.719,5.719,0,0,0-.042.653c0,2.539,1.7,4.758,4.25,6a7.531,7.531,0,0,1,2.522-3.852c1.114-1.052,1.434-1.47,1.407-2.214s-.374-1.128-1.562-2.061A6.54,6.54,0,0,1,47.34,82c-.106-2.9,1.508-4.424,2.685-5.535,1.114-1.051,1.434-1.469,1.407-2.214a1.907,1.907,0,0,1,1.618-2.1,1.841,1.841,0,0,1,1.762,1.924,6.789,6.789,0,0,1-2.687,5.543c-1.113,1.049-1.433,1.466-1.4,2.208s.374,1.13,1.559,2.061a6.541,6.541,0,0,1,3.077,5.249,6.784,6.784,0,0,1-2.686,5.539,4.41,4.41,0,0,0-1.34,1.657,11.228,11.228,0,0,0,1.388.094c4.927,0,8.922-3.158,8.922-7.053a5.7,5.7,0,0,0-.458-2.219c5.154-.612,9.11-4.115,9.11-8.36a6.792,6.792,0,0,0-.326-2.038,9.37,9.37,0,0,0,4.324-7.583c0-3.468-2.2-6.527-5.558-8.36a10,10,0,0,0,1.248-4.8c0-6.731-6.9-12.188-15.417-12.188S39.149,49.278,39.149,56.009Z" transform="translate(-28.848 -43.82)" fill="#f90"/>
</svg>
