<svg xmlns="http://www.w3.org/2000/svg" width="31.554" height="31.613" viewBox="0 0 31.554 31.613">
  <g id="sound" transform="translate(-0.75 -1)">
    <path id="Path_3527" data-name="Path 3527" d="M17.686,32.613H16.362a3.416,3.416,0,0,1-2.4-.991L8.516,26.171a1.129,1.129,0,0,0-.8-.332H4.137A3.391,3.391,0,0,1,.75,22.452V11.161A3.391,3.391,0,0,1,4.137,7.774H7.718a1.138,1.138,0,0,0,.8-.33l5.451-5.451A3.4,3.4,0,0,1,16.362,1h1.323a3.391,3.391,0,0,1,3.387,3.387V29.226A3.391,3.391,0,0,1,17.686,32.613ZM5.137,11.032a1.129,1.129,0,0,0-1.129,1.129v9.29a1.132,1.132,0,0,0,1.129,1.129H7.718a3.416,3.416,0,0,1,2.4.991l5.451,5.451a1.129,1.129,0,0,0,.8.332h1.323a1.132,1.132,0,0,0,1.129-1.129V5.387a1.129,1.129,0,0,0-1.129-1.129H16.362a1.129,1.129,0,0,0-.8.33l-5.453,5.453a3.41,3.41,0,0,1-2.394.991ZM24.46,22.9a1.131,1.131,0,0,1-.765-1.96,5.58,5.58,0,0,0,0-8.271,1.13,1.13,0,1,1,1.531-1.662,7.839,7.839,0,0,1,0,11.6,1.131,1.131,0,0,1-.765.3Z" transform="translate(0 0)" fill="#6bc800"/>
    <path id="Path_3528" data-name="Path 3528" d="M11.879,25.8a1.129,1.129,0,0,1-.458-2.161,10.133,10.133,0,0,0,0-18.543,1.129,1.129,0,1,1,.917-2.064,12.393,12.393,0,0,1,0,22.673,1.136,1.136,0,0,1-.458.095Z" transform="translate(12.581 2.437)" fill="#6bc800"/>
  </g>
</svg>
