<svg xmlns="http://www.w3.org/2000/svg" width="64" height="64" viewBox="0 0 64 64">
  <g id="tele" transform="translate(-3355 -410)">
    <rect id="Rectangle_2933" data-name="Rectangle 2933" width="64" height="64" transform="translate(3355 410)" fill="none"/>
    <path id="Path_3175" data-name="Path 3175" d="M60.44,43.6l-5.287-5.175a8.594,8.594,0,0,0-11.868-.049A5.256,5.256,0,0,1,36.727,39a35.74,35.74,0,0,1-9.952-9.721,5.049,5.049,0,0,1,.683-6.443,8.156,8.156,0,0,0-.075-11.58L22.1,6.086a8.576,8.576,0,0,0-11.923,0L8.651,7.577C.72,15.339,1.314,31.658,17.815,47.8c9.95,9.74,19.964,13.819,28.085,13.819A18.247,18.247,0,0,0,58.921,56.77l1.524-1.491A8.139,8.139,0,0,0,60.44,43.6Zm-3.4,8.352-1.524,1.491c-6.249,6.116-20.041,5-34.31-8.969S5.8,17,12.045,10.884L13.556,9.4a3.688,3.688,0,0,1,5.126,0L23.97,14.57a3.5,3.5,0,0,1,.05,4.963,9.678,9.678,0,0,0-1.276,12.323A40.458,40.458,0,0,0,34.071,42.925a10.208,10.208,0,0,0,12.572-1.216,3.69,3.69,0,0,1,5.09.031l5.287,5.175a3.5,3.5,0,0,1,.022,5.038Z" transform="translate(3354.01 409.071)" fill="#0d9eff"/>
  </g>
</svg>
