<svg xmlns="http://www.w3.org/2000/svg" width="25.983" height="48.172" viewBox="0 0 25.983 48.172">
  <g id="_temperature" data-name=" temperature" transform="translate(-14.74)">
    <path id="Path_1956" data-name="Path 1956" d="M29.688,31.771V5.705a5.743,5.743,0,0,0-11.486,0V31.771A9.209,9.209,0,1,0,32.631,42.007a9.087,9.087,0,0,0,.519-3.041A9.259,9.259,0,0,0,29.688,31.771ZM23.945,46.712c-.2,0-.384-.008-.58-.023h-.053c-.2-.023-.384-.045-.572-.075a7.745,7.745,0,0,1-3.387-13.895.738.738,0,0,0,.3-.595V5.705a4.245,4.245,0,0,1,3.109-4.08,3.787,3.787,0,0,1,.783-.143,3.954,3.954,0,0,1,.422-.023,4.251,4.251,0,0,1,4.253,4.245V32.125a.749.749,0,0,0,.3.595,7.748,7.748,0,0,1-4.576,13.992Z" fill="#0d9eff"/>
    <path id="Path_1959" data-name="Path 1959" d="M26.617,40.944V20.11a.726.726,0,1,0-1.453,0V40.944a3.278,3.278,0,1,0,1.453,0Zm-.723,5.005a1.814,1.814,0,1,1,1.814-1.814A1.82,1.82,0,0,1,25.894,45.95Z" transform="translate(-1.949 -4.793)" fill="#0d9eff"/>
    <path id="Path_1961" data-name="Path 1961" d="M38.984,7.62h3.59a.73.73,0,1,0,0-1.46h-3.59a.73.73,0,1,0,0,1.46Zm3.59,17.846h-3.59a.73.73,0,1,0,0,1.46h3.59a.73.73,0,1,0,0-1.46Zm3.139-9.657H38.6a.73.73,0,1,0,0,1.46h7.113a.73.73,0,1,0,0-1.46Z" transform="translate(-5.72 -1.523)" fill="#0d9eff"/>
  </g>
</svg>
