<svg id="time" xmlns="http://www.w3.org/2000/svg" xmlns:xlink="http://www.w3.org/1999/xlink" width="375.399" height="375.224" viewBox="0 0 375.399 375.224">
  <defs>
    <clipPath id="clip-path-3">
      <rect id="Rectangle_11" data-name="Rectangle 11" width="375.399" height="375.224" fill="#0d9acf"/>
    </clipPath>
  </defs>
  <g id="Group_8" data-name="Group 8" clip-path="url(#clip-path-3)">
    <path id="Path_20" data-name="Path 20" d="M187.663,375.221C84.285,375.809-.83,289.991.007,185.716.826,83.394,84.839-.061,188.52,0,291.735.06,375.447,84.415,375.4,188.315c-.048,102.974-84.352,186.906-187.735,186.906m.314-350C99.6,25.131,26,98.011,25.268,185.16,24.51,275.246,96.4,348.486,184.941,350.015c88.561,1.529,164.783-69.419,165.164-162.3C350.469,98.651,277,25.311,187.977,25.221" fill="#0d9acf"/>
    <path id="Path_21" data-name="Path 21" d="M179.337,134.715c0-8.5-.036-16.992.013-25.488.03-5.5,3.4-9.165,8.329-9.206,4.86-.04,8.481,3.628,8.515,9.13q.15,24.489-.016,48.978c-.028,3.564.568,5.877,4.153,7.909,9.866,5.59,14.293,16.5,11.933,27.343-2.175,10-10.585,17.638-21.225,19.271a24.711,24.711,0,0,1-25.725-13.361c-1.425-2.754-3.046-3.327-5.783-3.3-10.828.114-21.657.059-32.485.041-6.651-.011-10.109-2.829-10.181-8.229-.075-5.559,3.573-8.617,10.414-8.634,10.827-.027,21.657-.087,32.485.045,2.81.034,4.157-1.051,5.877-3.323a51.349,51.349,0,0,1,10.832-10.681c2.3-1.647,2.94-3.032,2.916-5.508-.082-8.329-.031-16.659-.031-24.989Zm16.429,53.31a8.087,8.087,0,0,0-16.161-.652,8.087,8.087,0,1,0,16.161.652" transform="translate(0.774 4.538)" fill="#0d9acf"/>
    <path id="Path_22" data-name="Path 22" d="M196.221,62.68c0,4.154.145,8.314-.034,12.46-.225,5.209-3.685,8.465-8.579,8.394-4.951-.071-8.163-3.324-8.222-8.626q-.137-12.21,0-24.423c.059-5.318,3.278-8.6,8.192-8.645,4.9-.049,8.349,3.17,8.6,8.381.2,4.144.041,8.305.043,12.459" fill="#0d9acf"/>
    <path id="Path_23" data-name="Path 23" d="M179.366,312.865c0-4.32-.11-8.643.03-12.959.152-4.713,3.27-7.832,7.76-8.061,4.55-.233,8.611,2.471,8.806,6.97.4,9.282.431,18.606.027,27.888-.193,4.43-4.457,7.145-8.958,6.813-4.527-.333-7.5-3.413-7.639-8.191-.124-4.15-.026-8.306-.026-12.46" fill="#0d9acf"/>
    <path id="Path_24" data-name="Path 24" d="M62.469,196.035c-4.154,0-8.311.113-12.46-.032-4.992-.174-8.084-3.4-8.145-8.2-.059-4.7,3.041-8.41,7.886-8.545,8.632-.24,17.282-.255,25.912.025,5.067.165,8.172,4.1,7.891,9.025-.264,4.638-3.513,7.606-8.624,7.712-4.152.086-8.306.017-12.46.015" fill="#0d9acf"/>
    <path id="Path_25" data-name="Path 25" d="M312.615,196.035c-4.153,0-8.31.1-12.459-.027-5.04-.154-8.159-3.284-8.289-8.061-.129-4.711,2.927-8.53,7.738-8.679q12.945-.4,25.912,0c5.125.151,8.251,3.956,8.038,8.9-.2,4.68-3.421,7.735-8.48,7.856-4.151.1-8.307.02-12.46.019" fill="#0d9acf"/>
    <path id="Path_26" data-name="Path 26" d="M90.027,81.035c2.948,1.7,5.351,2.564,7.052,4.17,5.667,5.35,11.154,10.9,16.57,16.5,3.918,4.055,3.936,8.788.333,12.342s-8.239,3.39-12.316-.581c-5.7-5.554-11.375-11.141-16.942-16.829-2.674-2.733-3.7-6.309-1.567-9.544,1.568-2.378,4.378-3.936,6.87-6.061" fill="#0d9acf"/>
    <path id="Path_27" data-name="Path 27" d="M294.453,89.977c-1.676,3.1-2.449,5.585-4.051,7.3-5.222,5.587-10.678,10.962-16.178,16.281-4,3.87-9,3.96-12.437.5-3.456-3.479-3.409-8.494.4-12.423,5.56-5.729,11.235-11.348,16.963-16.91,2.743-2.663,6.286-3.817,9.536-1.59,2.333,1.6,3.811,4.444,5.764,6.847" fill="#0d9acf"/>
    <path id="Path_28" data-name="Path 28" d="M294.267,286.015c-1.838,2.257-3.3,5.633-5.7,6.56-2.432.937-6.687.478-8.6-1.166-6.535-5.627-12.5-11.936-18.459-18.2a7.846,7.846,0,0,1,.053-11.236c3.2-3.329,7.781-4.049,11.2-.9,6.476,5.963,12.629,12.288,18.708,18.662,1.258,1.319,1.607,3.505,2.8,6.283" fill="#0d9acf"/>
    <path id="Path_29" data-name="Path 29" d="M89.774,293.866c-1.982-1.568-5.31-2.968-6.332-5.355-1.036-2.419-.92-6.792.655-8.608a255.134,255.134,0,0,1,19.236-19.43c3.04-2.827,7.964-2.107,10.806.946,2.97,3.193,3.758,7.253.912,10.395-6.334,6.993-13.229,13.485-20.031,20.039-.967.932-2.7,1.073-5.246,2.013" fill="#0d9acf"/>
  </g>
</svg>
