<svg xmlns="http://www.w3.org/2000/svg" width="57.737" height="46.725" viewBox="0 0 57.737 46.725">
  <g id="vibration" transform="translate(0 0)">
    <path id="rect4316" d="M15.826,2a1.947,1.947,0,0,0-1.947,1.947V46.778a1.947,1.947,0,0,0,1.947,1.947H43.083a1.947,1.947,0,0,0,1.947-1.947V3.947A1.947,1.947,0,0,0,43.083,2Zm1.947,3.894H41.136V44.831H17.773ZM4.715,8.411,1.962,11.164,4.48,13.681.586,17.575,4.48,21.469.586,25.362,4.48,29.256,1.962,31.773l2.753,2.753,5.27-5.27L6.092,25.362l3.894-3.894L6.092,17.575l3.894-3.894Zm49.478,0-5.27,5.27,3.894,3.894-3.894,3.894,3.894,3.894-3.894,3.894,5.27,5.27,2.753-2.753-2.517-2.517,3.894-3.894-3.894-3.894,3.894-3.894-3.894-3.894,2.517-2.517Z" transform="translate(-0.586 -2)" fill="#00cd8f"/>
  </g>
</svg>
