<svg xmlns="http://www.w3.org/2000/svg" width="43.254" height="36.206" viewBox="0 0 43.254 36.206">
  <g id="voltage" transform="translate(-1.994 -1.972)">
    <path id="Path_3547" data-name="Path 3547" d="M23.132,3.474,3.116,36.837a.737.737,0,0,0,.071.821,1.1,1.1,0,0,0,.867.4H44.086a1.1,1.1,0,0,0,.884-.4.737.737,0,0,0,.053-.837L25.008,3.452a1.1,1.1,0,0,0-.946-.466,1.087,1.087,0,0,0-.929.489Z" transform="translate(-0.447 -0.44)" fill="none"/>
    <path id="Path_3548" data-name="Path 3548" d="M43.534,38.178H3.715A1.8,1.8,0,0,1,2.248,37.5a1.207,1.207,0,0,1-.074-1.374L22.084,2.762a1.89,1.89,0,0,1,3.075,0l19.91,33.363a1.207,1.207,0,0,1-.074,1.374A1.8,1.8,0,0,1,43.534,38.178ZM23.293,4.283,4.384,35.645a.234.234,0,0,0,0,.277.38.38,0,0,0,.311.141h37.84a.38.38,0,0,0,.311-.141.234.234,0,0,0,0-.277L23.935,4.283a.405.405,0,0,0-.676,0Z" transform="translate(0)" fill="#d9d200"/>
    <path id="Path_3549" data-name="Path 3549" d="M29.879,29.821,33.43,21H29.557L26,32.536h5.168l-1.94,8.821,5.819-11.536Z" transform="translate(-6.899 -8.268)" fill="#d9d200"/>
    <path id="Path_3550" data-name="Path 3550" d="M28.775,41.487a.565.565,0,0,1-.565-.684l1.8-8.137H25.547a.565.565,0,0,1-.565-.729L28.538,20.4A.565.565,0,0,1,29.1,20h3.879a.565.565,0,0,1,.526.775l-3.246,8.047h4.331a.565.565,0,0,1,.5.82L29.284,41.176A.565.565,0,0,1,28.775,41.487ZM26.31,31.535h4.4a.565.565,0,0,1,.565.684l-.973,4.439L33.7,29.952H29.426a.565.565,0,0,1-.526-.775l3.24-8.047H29.5Z" transform="translate(-6.449 -7.833)" fill="#d9d200"/>
  </g>
</svg>
