<svg xmlns="http://www.w3.org/2000/svg" width="57" height="57" viewBox="0 0 57 57">
  <g id="sound" transform="translate(71.99 -42.076)">
    <path id="Path_3527" data-name="Path 3527" d="M26.061,48.247H24.084A5.106,5.106,0,0,1,20.5,46.765l-8.147-8.147a1.687,1.687,0,0,0-1.191-.5H5.812A5.068,5.068,0,0,1,.75,33.06V16.186a5.068,5.068,0,0,1,5.062-5.062h5.353a1.7,1.7,0,0,0,1.195-.493l8.147-8.147A5.087,5.087,0,0,1,24.084,1h1.978a5.068,5.068,0,0,1,5.062,5.062V43.185A5.068,5.068,0,0,1,26.061,48.247ZM6.307,14.994a1.687,1.687,0,0,0-1.687,1.687V32.566a1.692,1.692,0,0,0,1.687,1.687h3.858a5.106,5.106,0,0,1,3.581,1.482l9.147,8.147a1.687,1.687,0,0,0,1.191.5h1.978a1.692,1.692,0,0,0,1.687-1.687V6.557a1.687,1.687,0,0,0-1.687-1.687H24.084a1.687,1.687,0,0,0-1.191.492l-9.151,8.15a5.1,5.1,0,0,1-3.577,1.482ZM36.186,33.732A1.691,1.691,0,0,1,35.042,30.8a8.339,8.339,0,0,0,0-12.362,1.689,1.689,0,1,1,2.288-2.484,11.715,11.715,0,0,1,0,17.329,1.691,1.691,0,0,1-1.144.445Z" transform="translate(-65.803 45.953)" fill="#6bc800"/>
    <path id="Path_3528" data-name="Path 3528" d="M12.438,37.11a1.687,1.687,0,0,1-.685-3.23,15.144,15.144,0,0,0,0-27.714,1.688,1.688,0,1,1,1.37-3.085,18.522,18.522,0,0,1,0,33.886,1.7,1.7,0,0,1-.685.142Z" transform="translate(-42.053 50.553)" fill="#6bc800"/>
    <rect id="Rectangle_3868" data-name="Rectangle 3868" width="57" height="57" transform="translate(-71.99 42.076)" fill="none"/>
  </g>
</svg>
