<svg xmlns="http://www.w3.org/2000/svg" width="63.023" height="47.216" viewBox="0 0 63.023 47.216">
  <g id="water" transform="translate(-4 -7.019)">
    <path id="Path_3561" data-name="Path 3561" d="M24.229,43.732a13.308,13.308,0,0,1-13.29-13.29c0-4.561,2.618-8.309,5.932-13.054a98.244,98.244,0,0,0,6.2-9.734,1.367,1.367,0,0,1,2.308,0,98.727,98.727,0,0,0,6.2,9.734c3.314,4.745,5.932,8.492,5.932,13.054a13.3,13.3,0,0,1-13.287,13.29Zm0-32.783c-1.8,3.07-3.59,5.633-5.2,7.944-3.17,4.538-5.459,7.815-5.459,11.549a10.663,10.663,0,1,0,21.326,0c0-3.734-2.29-7.011-5.459-11.549-1.615-2.311-3.406-4.874-5.2-7.944Z" transform="translate(11.283 0)" fill="#0d9eff"/>
    <path id="Path_3562" data-name="Path 3562" d="M30.634,30.356C21.855,30.356,7,28.974,7,23.791c0-2.353,2.92-4.083,8.931-5.289a1.316,1.316,0,0,1,.517,2.576C11.01,22.168,9.681,23.5,9.626,23.8c.249,1.326,7.888,3.931,21.008,3.931s20.758-2.6,21.008-3.947c-.055-.281-1.384-1.615-6.825-2.7a1.314,1.314,0,0,1,.517-2.576c6.013,1.205,8.934,2.936,8.934,5.289C54.268,28.974,39.412,30.356,30.634,30.356Z" transform="translate(4.878 18.628)" fill="#0d9eff"/>
    <path id="Path_3563" data-name="Path 3563" d="M35.512,38.5C20.236,38.5,4,34.354,4,26.678c0-4.173,5.152-7.794,14.138-9.939a1.314,1.314,0,1,1,.612,2.555C11.384,21.051,6.626,23.95,6.626,26.678c0,4.346,11.864,9.191,28.886,9.191S64.4,31.024,64.4,26.678c0-2.728-4.758-5.627-12.122-7.387a1.314,1.314,0,1,1,.612-2.555c8.983,2.148,14.136,5.769,14.136,9.942C67.023,34.354,50.787,38.5,35.512,38.5Z" transform="translate(0 15.74)" fill="#0d9eff"/>
  </g>
</svg>
