<svg xmlns="http://www.w3.org/2000/svg" width="34.328" height="37.323" viewBox="0 0 34.328 37.323">
  <g id="weight" transform="translate(0 -0.19)">
    <path id="Path_3551" data-name="Path 3551" d="M34.291,34.692,30.453,13.274A2.393,2.393,0,0,0,28.1,11.3H22.969A6.945,6.945,0,0,0,24.24,7.262a7.075,7.075,0,0,0-14.151,0A6.951,6.951,0,0,0,11.36,11.3H6.227a2.394,2.394,0,0,0-2.352,1.975L.038,34.688A2.4,2.4,0,0,0,2.39,37.513H31.939a2.4,2.4,0,0,0,2.352-2.821Zm-2.41.221a1.236,1.236,0,0,1-.942.451H3.39A1.245,1.245,0,0,1,2.181,33.9L6.019,14.486A1.231,1.231,0,0,1,7.227,13.47h7.8l-2.01-1.992a5.914,5.914,0,1,1,8.293,0L19.3,13.47h7.8a1.228,1.228,0,0,1,1.208,1.013L32.147,33.9A1.24,1.24,0,0,1,31.88,34.913Z" transform="translate(0)" fill="#385be5"/>
    <path id="Path_3552" data-name="Path 3552" d="M875.882,325.193a3.458,3.458,0,1,0-3.458,3.458A3.462,3.462,0,0,0,875.882,325.193Zm-3.458,2.3a2.3,2.3,0,1,1,2.3-2.3A2.3,2.3,0,0,1,872.424,327.49Z" transform="translate(-855.26 -317.924)" fill="#385be5"/>
  </g>
</svg>
