<svg xmlns="http://www.w3.org/2000/svg" width="42.593" height="41.539" viewBox="0 0 42.593 41.539">
  <g id="window" transform="translate(-0.134 0)">
    <path id="Path_1659" data-name="Path 1659" d="M2.438,2.119A2.092,2.092,0,0,0,.518,4.352,2.065,2.065,0,0,0,2.632,6.38H38.943A2.076,2.076,0,0,0,40.96,4.25a2.076,2.076,0,0,0-2.017-2.13H2.632a1.91,1.91,0,0,0-.194,0Z" transform="translate(0.64 16.339)" fill="#f80"/>
    <path id="Path_1660" data-name="Path 1660" d="M7.526.529a7.032,7.032,0,0,0-7,7V35.072a7.032,7.032,0,0,0,7,7H36.141a7.019,7.019,0,0,0,6.981-7V7.526a7.019,7.019,0,0,0-6.981-7Zm0,4.261H36.141a2.674,2.674,0,0,1,2.72,2.736V35.072a2.674,2.674,0,0,1-2.72,2.736H7.526A2.687,2.687,0,0,1,4.79,35.072V7.526A2.687,2.687,0,0,1,7.526,4.79Z" transform="translate(-0.395 -0.529)" fill="#f80"/>
    <path id="Path_1661" data-name="Path 1661" d="M1.854,0A2.068,2.068,0,0,0,0,2.235,2.025,2.025,0,0,0,2.041,4.263H37.059A2.044,2.044,0,0,0,39,2.133,2.044,2.044,0,0,0,37.059,0H2.041a1.776,1.776,0,0,0-.187,0Z" transform="translate(19.245 40.091) rotate(-90)" fill="#f80"/>
  </g>
</svg>
