<svg id="closed" xmlns="http://www.w3.org/2000/svg" width="48.173" height="50.753" viewBox="0 0 48.173 50.753">
  <path id="Path_2206" data-name="Path 2206" d="M11.505,29.5,20.5,38.886,37,21.669l-9-9.38L11.505,29.5ZM47.454,16.619l-3.826-3.994a4.967,4.967,0,0,1-6.08-.911,5.52,5.52,0,0,1-.875-6.343L32.847,1.378a2.5,2.5,0,0,0-3.626,0L1.345,30.46a2.769,2.769,0,0,0,0,3.782l3.828,3.989a4.967,4.967,0,0,1,6.086.91,5.52,5.52,0,0,1,.87,6.349l3.828,3.989a2.5,2.5,0,0,0,3.626,0L47.454,20.4a2.764,2.764,0,0,0,0-3.782ZM20.5,43.178,7.391,29.5,28.006,8,41.111,21.669,20.5,43.178Z" transform="translate(-0.598 -0.599)" fill="#ffaf47"/>
  <g id="Group_2275" data-name="Group 2275" transform="translate(24.318 26.898)">
    <circle id="Ellipse_279" data-name="Ellipse 279" cx="11.928" cy="11.928" r="11.928" transform="translate(0 0)" fill="#eb3737"/>
    <g id="Group_2276" data-name="Group 2276" transform="translate(1.421 1.422)">
      <path id="Path_3730" data-name="Path 3730" d="M0,0H21.008V21.008H0Z" fill="none"/>
      <path id="Path_2645" data-name="Path 2645" d="M11253.486,13548.152l-3.273-3.273-3.277,3.273a1.157,1.157,0,1,1-1.633-1.641l3.277-3.273-3.277-3.27a1.159,1.159,0,0,1,1.633-1.645l3.277,3.281,3.273-3.281a1.161,1.161,0,0,1,1.641,1.645l-3.281,3.27,3.281,3.273a1.16,1.16,0,1,1-1.641,1.641Z" transform="translate(-11239.744 -13532.744)" fill="#0f0f0f"/>
    </g>
  </g>
</svg>
