<svg id="open" xmlns="http://www.w3.org/2000/svg" width="51.023" height="53.478" viewBox="0 0 51.023 53.478">
  <path id="Path_1747" data-name="Path 1747" d="M12.289,31.577l9.637,10.059L39.614,23.182,29.972,13.129Zm38.53-13.807-4.1-4.281a5.324,5.324,0,0,1-6.517-.976,5.917,5.917,0,0,1-.938-6.8l-4.1-4.281a2.679,2.679,0,0,0-3.886,0L1.4,32.6a2.968,2.968,0,0,0,0,4.054l4.1,4.275a5.324,5.324,0,0,1,6.523.975,5.917,5.917,0,0,1,.932,6.8l4.1,4.275a2.674,2.674,0,0,0,3.886,0L50.819,21.823a2.962,2.962,0,0,0,0-4.054ZM21.925,46.236,7.879,31.577l22.1-23.048L44.021,23.182l-22.1,23.054Z" transform="translate(-0.598 -0.599)" fill="#ffaf47"/>
  <g id="Group_2274" data-name="Group 2274" transform="translate(25.662 28.679)">
    <circle id="Ellipse_279" data-name="Ellipse 279" cx="12.399" cy="12.399" r="12.399" transform="translate(0 0)" fill="#6fc476"/>
    <g id="Page-1" transform="translate(5.914 8.557)">
      <g id="Artboard" transform="translate(0 0)">
        <g id="check">
          <path id="Shape" d="M12.971,0,4.053,8.917,0,4.864" fill="none" stroke="#181818" stroke-linecap="round" stroke-linejoin="round" stroke-width="3" fill-rule="evenodd"/>
        </g>
      </g>
    </g>
  </g>
</svg>
