<svg xmlns="http://www.w3.org/2000/svg" width="53.398" height="61.639" viewBox="0 0 53.398 61.639">
  <g id="current" transform="translate(-6 -3)">
    <path id="Path_3543" data-name="Path 3543" d="M42.043,41.781H23.354c-2.208,0-4-1.471-4-3.278V33.426a1.114,1.114,0,0,0-.838-1.014l-4.958-1.624C8.98,29.307,5.983,25.683,6,21.658v-9.38C6,10.471,7.8,9,10,9H55.393c2.208,0,4,1.471,4,3.278v9.38c.017,4.026-2.98,7.649-7.553,9.131l-4.958,1.624a1.116,1.116,0,0,0-.838,1.014V38.5C46.048,40.31,44.251,41.781,42.043,41.781Z" transform="translate(0 10.019)" fill="#d9d200"/>
    <path id="Path_3544" data-name="Path 3544" d="M1.985,16.7a.891.891,0,0,1-.833-1.212l1.917-4.994-2.5-.957A.891.891,0,0,1,.029,8.475L2.072.666A.891.891,0,0,1,3.254.059L9.081,2.3A.9.9,0,0,1,9.53,3.579L7.314,7.346l1.515.581a.9.9,0,0,1,.335,1.439L2.641,16.412a.907.907,0,0,1-.656.283Z" transform="matrix(0.966, -0.259, 0.259, 0.966, 25.878, 27.005)" fill="#121212"/>
    <path id="Path_3545" data-name="Path 3545" d="M25.514,31.01H14.835A1.335,1.335,0,0,1,13.5,29.675v-5.34A1.335,1.335,0,0,1,14.835,23H25.514a1.335,1.335,0,0,1,1.335,1.335v5.34A1.335,1.335,0,0,1,25.514,31.01Z" transform="translate(12.524 27.175)" fill="#d9d200"/>
    <path id="Path_3546" data-name="Path 3546" d="M28.689,64.639h-5.34A1.335,1.335,0,0,1,22.014,63.3V56.85a1.335,1.335,0,0,1,1.335-1.335h5.34a1.335,1.335,0,0,1,1.335,1.335V63.3A1.335,1.335,0,0,1,28.689,64.639ZM16.675,20.134h-5.34c-.737,0-1.335.958-1.335.221V7a4,4,0,1,1,8.01,0V20.354C18.01,21.091,17.412,20.134,16.675,20.134Zm24.029,0h-5.34c-.737,0-1.335.958-1.335.221V7a4,4,0,1,1,8.01,0V20.354C42.038,21.091,41.441,20.134,40.7,20.134Z" transform="translate(6.68 0)" fill="#d9d200"/>
  </g>
</svg>
