<svg xmlns="http://www.w3.org/2000/svg" width="107.078" height="33.99" viewBox="0 0 107.078 33.99">
  <path id="distance" d="M36.039,48.582a3.571,3.571,0,0,0,5.172,0,3.571,3.571,0,0,0,0-5.172l-6.65-6.835h82.325l-6.835,6.835a3.571,3.571,0,0,0,0,5.172,3.571,3.571,0,0,0,5.172,0l13.116-13.116c.185-.185.369-.369.369-.554v-.185a.679.679,0,0,0,.185-.554v-.185c0-.185.185-.369.185-.554V31.956a.679.679,0,0,0-.185-.554v-.185c0-.185-.185-.369-.185-.554v-.185c-.185-.185-.369-.369-.369-.554L115.224,16.808a3.657,3.657,0,0,0-5.172,5.172l6.835,6.835H34.561L41.4,21.981a3.657,3.657,0,1,0-5.172-5.172L23.108,29.924a3.571,3.571,0,0,0,0,5.172Z" transform="translate(-22 -15.7)" fill="#6bc800"/>
</svg>
