<svg xmlns="http://www.w3.org/2000/svg" width="39" height="62" viewBox="0 0 39 62">
  <g id="Group_5907" data-name="Group 5907" transform="translate(-992 -3577)">
    <path id="Subtraction_83" data-name="Subtraction 83" d="M14412,17884h-27a4,4,0,0,1-4-4v-50a4.006,4.006,0,0,1,4-4h27a4.006,4.006,0,0,1,4,4v50A4,4,0,0,1,14412,17884Zm-24-32a3,3,0,1,0,3,3A3.007,3.007,0,0,0,14388,17852Z" transform="translate(-13387 -14247)" fill="#f80"/>
    <g id="Rectangle_4770" data-name="Rectangle 4770" transform="translate(992 3577)" fill="none" stroke="#f80" stroke-width="1">
      <rect width="39" height="62" rx="6" stroke="none"/>
      <rect x="0.5" y="0.5" width="38" height="61" rx="5.5" fill="none"/>
    </g>
  </g>
</svg>
