<svg xmlns="http://www.w3.org/2000/svg" width="54.035" height="65.021" viewBox="0 0 54.035 65.021">
  <path id="Subtraction_81" data-name="Subtraction 81" d="M15173.313,17891.02a2.7,2.7,0,0,1-2.655-2.23l-.046-.48v-59.6l.046-.477a2.7,2.7,0,0,1,2.657-2.232.494.494,0,0,1,.054,0l.475.051,27.019,5.42a2.688,2.688,0,0,1,2.13,2.182l.043.477v48.76a2.721,2.721,0,0,1-1.717,2.521l-.456.137-27.019,5.418A2.64,2.64,0,0,1,15173.313,17891.02Zm5.372-36.465a3.611,3.611,0,1,0,3.6,3.609A3.608,3.608,0,0,0,15178.685,17854.555Zm-13.477,31.047H15151.7a2.7,2.7,0,0,1-2.658-2.227l-.045-.486v-48.76a2.708,2.708,0,0,1,2.218-2.668l.485-.043h13.506v5.422H15154.4v43.34h10.806v5.422Z" transform="translate(-15148.999 -17825.998)" fill="#f80"/>
</svg>
