<svg xmlns="http://www.w3.org/2000/svg" width="72.398" height="72.396" viewBox="0 0 72.398 72.396">
  <path id="Path_3575" data-name="Path 3575" d="M52.44,35.11c-.241-3.842-3.354-8.1-5.821-9.836a19.71,19.71,0,0,0-3.412-1.941c-.475-.192-1.2-.116-1.271-.736a10.762,10.762,0,0,0,.87-2.743c.491-1.448.861-2.989,1.405-4.483a10.14,10.14,0,0,0,.6-1.807c-3.43-1.906-7.334-2.869-12.646-2.944v-.067h.067c.659-.47,1.823-.27,2.743-.468a22.583,22.583,0,0,1,7.962.268,14.69,14.69,0,0,0,2.743.669,15.685,15.685,0,0,1,1.673-2.81c.354-.478,1.056-.892,1.271-1.472-2.047-.788-3.871-1.83-5.955-2.61A35.5,35.5,0,0,0,30.627,2.256l-.067-.134h.134c.256-.18.644-.11,1-.2.824-.209,1.893-.277,2.743-.468h1a17.329,17.329,0,0,1,5.018,0H41.4c1.464.329,3.02.32,4.416.736A40.788,40.788,0,0,1,50.032,3.46a20.15,20.15,0,0,0,1.941.87c.508.193,1.173-.448,1.539-.6a25.8,25.8,0,0,1,3.212-.736,10.356,10.356,0,0,1,3.948.2c.532.167.984.092,1.472.268,2.44.88,5.146,2.342,6.557,4.215a17.435,17.435,0,0,1,2.61,4.55,24.872,24.872,0,0,1,.669,3.011,12.465,12.465,0,0,1-.736,5.955,12.868,12.868,0,0,1-3.814,5.955,51.483,51.483,0,0,1-6.49,3.68c-.627.362-1.241.5-1.874.87-1.423.863-2.97,1.554-4.483,2.342A7.215,7.215,0,0,1,52.44,35.11ZM35.11,22.463a9.232,9.232,0,0,0-3.145.87,15.163,15.163,0,0,0-6.825,5.152A18.175,18.175,0,0,0,23.334,31.7c-.192.447-.122,1.174-.669,1.271a13.428,13.428,0,0,0-2.81-.87c-1.155-.422-2.4-.689-3.613-1.138a14.982,14.982,0,0,0-2.677-.87c-1.907,3.43-2.868,7.332-2.944,12.646h-.067v-.067c-.444-.623-.274-1.908-.468-2.81a17.488,17.488,0,0,1,.134-6.624l.134-1.338a13.45,13.45,0,0,0,.669-2.676,16.136,16.136,0,0,1-2.81-1.673c-.484-.355-.884-1.053-1.472-1.271v.067c-.146.258-.192.611-.335.937a6.764,6.764,0,0,1-.4.6c-.221.373-.268.735-.468,1.137a37.759,37.759,0,0,0-2.409,6.624c-.32,1.192-.394,2.474-.669,3.68-.352,1.548.056,3.355-.268,4.951H2.123V44.21c-.134-.191-.012-.38-.134-.669-.237-.947-.314-2.133-.535-3.145v-.937a16.889,16.889,0,0,1,0-4.951v-1c.329-1.464.317-3,.736-4.416.418-1.345.727-2.883,1.271-4.215a19.093,19.093,0,0,0,.87-1.94c.193-.508-.448-1.173-.6-1.539a23.488,23.488,0,0,1-.736-3.212,10.593,10.593,0,0,1,.2-3.948c.149-.55.088-.975.268-1.472A18.012,18.012,0,0,1,5.669,8.345c.155-.216.443-.391.6-.6A9.2,9.2,0,0,1,7.744,6.137a17.451,17.451,0,0,1,4.483-2.543,23.541,23.541,0,0,1,3.011-.669,12.544,12.544,0,0,1,6.156.8,13.436,13.436,0,0,1,4.885,2.944c.148.132.349.177.468.335,1.9,2.515,3.18,5.536,4.751,8.431.865,1.594,1.657,3.252,2.543,4.885A5.756,5.756,0,0,1,35.11,22.463Zm1.271,2.743a13.542,13.542,0,0,1,3.814.268c4.481,1.331,7.283,3.833,8.832,8.1a11.512,11.512,0,0,1,.535,5.955,17.11,17.11,0,0,1-.8,2.743,12.515,12.515,0,0,1-7.16,6.758,24.035,24.035,0,0,1-3.212.669,5.6,5.6,0,0,1-1.874-.067l-1.137-.067a16.881,16.881,0,0,1-2.543-.8,11.948,11.948,0,0,1-7.093-7.829,10.6,10.6,0,0,1-.468-5.085,22.967,22.967,0,0,1,.6-2.543,12.681,12.681,0,0,1,6.758-7.16,17.05,17.05,0,0,1,2.409-.736C35.455,25.3,36.091,25.414,36.382,25.207ZM39.794,52.44a9.255,9.255,0,0,0,3.145-.87,15.148,15.148,0,0,0,6.825-5.152,17.586,17.586,0,0,0,1.807-3.212c.185-.44.167-1.175.669-1.271.81.6,2.287.64,3.279,1,1.284.488,2.645.816,4.015,1.271a11.6,11.6,0,0,0,1.807.6c1.9-3.427,2.869-7.343,2.944-12.646h.067v.067c.437.613.276,1.923.468,2.81a17.517,17.517,0,0,1-.134,6.624l-.134,1.271a13,13,0,0,0-.669,2.743,15.729,15.729,0,0,1,2.81,1.673c.476.352.9,1.058,1.472,1.271v-.067a4.514,4.514,0,0,0,.335-.937c.333-.767.786-1.545,1.137-2.342,2.006-4.031,2.928-8.724,3.011-14.721h.134v.134c.181.191.062.38.134.669.237.947.314,2.133.535,3.145v.937a14.1,14.1,0,0,1,0,4.951c-.187.768.036,1.4-.134,2.141a53.588,53.588,0,0,1-1.539,6.557c-.274.736-.55,1.52-.87,2.275a5.213,5.213,0,0,0-.335.6c-.115.522.352.9.468,1.2a26.177,26.177,0,0,1,.87,3.546,10.622,10.622,0,0,1-.2,3.948,15.94,15.94,0,0,1-2.342,5.687c-.238.332-.626.614-.87.937a6.55,6.55,0,0,1-1.138,1.271,20.285,20.285,0,0,1-4.282,2.61,15.314,15.314,0,0,1-3.479.8,12.321,12.321,0,0,1-5.888-.736,13.109,13.109,0,0,1-6.624-4.684c-1.432-2.106-2.326-4.86-3.68-7.093-.943-1.554-1.657-3.251-2.543-4.885A6.361,6.361,0,0,1,39.794,52.44ZM37.051,33.5c-.392.25-.971.191-1.405.4a4.281,4.281,0,0,0-1.873,2.074A3.959,3.959,0,0,0,35.846,41a3.239,3.239,0,0,0,2.007.4,4.28,4.28,0,0,0,3.279-2.476C42.354,35.987,39.925,33.465,37.051,33.5ZM22.33,39.727c.149.116.125.144.134.4.236.312.148.814.268,1.2a20.743,20.743,0,0,0,.736,2.141,15.089,15.089,0,0,0,4.55,5.955,21.826,21.826,0,0,0,3.346,2.007c.5.232,1.5.216,1.606.8-.489.667-.672,2.387-1,3.279-.473,1.287-.776,2.658-1.271,4.015a10.321,10.321,0,0,0-.6,1.807c3.426,1.9,7.341,2.868,12.646,2.944v.134c-1.952.152-4.36,1.029-6.691.535h-1.2c-1.164-.257-2.409-.212-3.546-.535a9.466,9.466,0,0,0-2.074-.535,14.8,14.8,0,0,1-1.673,2.81c-.358.487-1.051.877-1.271,1.472h.067a4.606,4.606,0,0,0,.937.335c.505.221,1.037.62,1.539.87.289.144.513.124.8.268,4.05,2.015,8.757,2.929,14.787,3.011v.067h-.067c-.459.426-3.11.551-3.948.736H39.46a14.294,14.294,0,0,1-4.952,0h-1c-.89-.191-1.892-.168-2.81-.4a45.549,45.549,0,0,1-7.561-2.409c-.508-.23-1.706.5-2.208.669a10.832,10.832,0,0,1-4.55.6H15.1a24.8,24.8,0,0,1-3.145-.736,13.588,13.588,0,0,1-8.23-8.364,12.59,12.59,0,0,1-.736-6.691A18.515,18.515,0,0,1,4.13,52.239a23.788,23.788,0,0,1,2.409-3.613,10.387,10.387,0,0,1,3.479-2.409c2.175-1.18,4.436-2.355,6.624-3.546,1.315-.642,2.562-1.232,3.747-1.94A10.1,10.1,0,0,0,22.33,39.727Z" transform="translate(-1.271 -1.271)" fill="#0d9eff" fill-rule="evenodd"/>
</svg>
