<svg xmlns="http://www.w3.org/2000/svg" width="26.114" height="108.437" viewBox="0 0 26.114 108.437">
  <path id="Path_10078" data-name="Path 10078" d="M21.793-14.8V71.243l-4.211-4.25a3.264,3.264,0,1,0-4.636,4.6l9.794,9.882a3.263,3.263,0,0,0,4.626.01l9.794-9.794a3.264,3.264,0,0,0-4.616-4.616l-4.221,4.221V-14.855l4.221,4.221a3.267,3.267,0,0,0,4.616,0,3.267,3.267,0,0,0,0-4.616l-9.794-9.794A3.257,3.257,0,0,0,25.051-26a3.267,3.267,0,0,0-2.311.966l-9.794,9.882a3.268,3.268,0,0,0,.02,4.619,3.267,3.267,0,0,0,4.616-.023Z" transform="translate(-12 26)" fill="#6bc800" fill-rule="evenodd"/>
</svg>
