<svg xmlns="http://www.w3.org/2000/svg" width="58.215" height="73.729" viewBox="0 0 58.215 73.729">
  <g id="leak" transform="translate(0 -0.392)">
    <path id="Path_488" data-name="Path 488" d="M46.62-1.609V35.249h11.6L58.207-1.609ZM17.4,2.551C8.356,2.551,3.718,6.493,1.863,10.2A14.417,14.417,0,0,0,.008,17.625h0V21.1H11.6V19.944h0a5.91,5.91,0,0,1,.464-3.015c.7-1.391,1.855-2.783,5.334-2.783s4.638,1.391,5.334,2.783a7.656,7.656,0,0,1,.7,3.015h0V21.1h11.6V17.625h0A14.417,14.417,0,0,0,33.169,10.2C31.082,6.261,26.444,2.551,17.4,2.551h0ZM.008,28.06V66.324a1.1,1.1,0,0,0,1.16,1.16h9.276a1.242,1.242,0,0,0,1.16-1.16V28.06H.008Zm23.19,0v6.957h11.6V28.06H23.2Zm0,13.914a23.663,23.663,0,0,0,1.159,6.957c1.391,4.406,4.638,9.276,11.131,10.9h.928l4.406-1.391a1.2,1.2,0,0,0,.7-1.623l-.7-1.391,3.247-1.391v3.942c0,.464.232.7.7.928l.464.464.464.464.232.232h.232a.847.847,0,0,0,1.16-.464h0a15.361,15.361,0,0,0,9.508-10.667,22.95,22.95,0,0,0,.928-6.725H47.084c-.464.928-.928,2.087-1.391,3.015A5.565,5.565,0,0,1,44.069,48a5.445,5.445,0,0,1-3.71,1.16A4.428,4.428,0,0,1,36.88,48a6.007,6.007,0,0,1-1.624-2.551,9.715,9.715,0,0,1-.464-3.247H23.2v-.232ZM38.5,60.062l-1.16,2.087,2.087,1.159,1.16-2.087L38.5,60.062Zm9.044,0-2.087,1.16,1.16,2.087,2.087-1.16-1.16-2.087Zm-5.8.464v2.319h2.319V60.526H41.75ZM35.952,64l-1.16,2.087,2.087,1.16,1.16-1.855L35.952,64h0Zm13.914,0-2.087,1.16,1.16,1.855,2.087-1.159L49.866,64ZM41.75,65.4v2.319h2.319V65.4H41.75Zm-8.117,2.551-1.16,2.087,1.855,1.16,1.16-2.087-1.855-1.16Zm18.552.232L50.1,69.338l1.159,2.087,2.087-1.16-1.16-2.087ZM41.75,69.8v2.319h2.319V69.8H41.75Z" transform="translate(0 2)" fill="#0d9eff"/>
  </g>
</svg>
