<svg xmlns="http://www.w3.org/2000/svg" width="51.335" height="47.668" viewBox="0 0 51.335 47.668">
  <g id="light" transform="translate(51.335 47.668) rotate(180)">
    <path id="Path_1676" data-name="Path 1676" d="M25.667,36.668a13.989,13.989,0,0,1-2.9-.293A14.667,14.667,0,0,1,15.914,11,1.833,1.833,0,0,0,16.5,9.735V5.5A5.5,5.5,0,0,1,22,0h7.334a5.5,5.5,0,0,1,5.5,5.5V9.735a1.833,1.833,0,0,0,.55,1.3,14.667,14.667,0,0,1-9.717,25.631Zm0,11a1.833,1.833,0,0,1-1.833-1.833V42.168a1.833,1.833,0,0,1,3.667,0v3.667A1.833,1.833,0,0,1,25.667,47.668ZM8.819,40.683a1.824,1.824,0,0,1-1.3-3.117l2.585-2.6a1.841,1.841,0,0,1,2.6,2.6l-2.6,2.585A1.833,1.833,0,0,1,8.819,40.683ZM5.5,23.834H1.833a1.833,1.833,0,0,1,0-3.667H5.5a1.833,1.833,0,0,1,0,3.667ZM42.516,40.683a1.833,1.833,0,0,1-1.283-.532l-2.6-2.585a1.841,1.841,0,1,1,2.6-2.6l2.585,2.6a1.824,1.824,0,0,1-1.3,3.117ZM49.5,23.834H45.834a1.833,1.833,0,1,1,0-3.667H49.5a1.833,1.833,0,1,1,0,3.667Z" transform="translate(0 0)" fill="#a0a0a0"/>
  </g>
</svg>
