<svg xmlns="http://www.w3.org/2000/svg" width="36.98" height="48.536" viewBox="0 0 36.98 48.536">
  <path id="Icon_ionic-md-lock" data-name="Icon ionic-md-lock" d="M39.107,19.413H36.8V14.791a11.556,11.556,0,1,0-23.112,0v4.622H11.372A4.636,4.636,0,0,0,6.75,24.036V47.148a4.636,4.636,0,0,0,4.622,4.622H39.107a4.636,4.636,0,0,0,4.622-4.622V24.036A4.636,4.636,0,0,0,39.107,19.413ZM25.24,40.445a4.622,4.622,0,1,1,4.622-4.622A4.636,4.636,0,0,1,25.24,40.445Zm7.165-21.032H18.075V14.791a7.165,7.165,0,1,1,14.33,0Z" transform="translate(-6.75 -3.234)" fill="#f80"/>
</svg>
