<svg xmlns="http://www.w3.org/2000/svg" xmlns:xlink="http://www.w3.org/1999/xlink" width="26.955" height="60.664" viewBox="0 0 26.955 60.664">
  <defs>
    <linearGradient id="linear-gradientsaljdnfbewhilrgw4783e9qiurwhjieuwrygdhjeifrdh" x1="0.5" x2="0.5" y2="1" gradientUnits="objectBoundingBox">
      <stop offset="0" stop-color="#419544"/>
      <stop offset="1" stop-color="#063f02"/>
    </linearGradient>
  </defs>
  <g id="Group_5704" data-name="Group 5704" transform="translate(20842.999 16374.162)">
    <path id="Path_10075" data-name="Path 10075" d="M22.648,60.664H4.239a4.194,4.194,0,0,1-2.355-.719A4.225,4.225,0,0,1,.358,58.091a4.186,4.186,0,0,1-.331-1.64c0-.138.007-.276.02-.413H0V37.06c0-.19,0-.378,0-.586v-.01c0-1.267,0-2.7.082-3.944A11.087,11.087,0,0,1,.32,30.238v-.515H.441c.012-.047.025-.094.038-.139V29.4H.53c.034-.115.07-.231.108-.345v-.133H.684c.036-.1.074-.21.114-.315v-.163H.861c.113-.283.239-.564.375-.836l.009-.027.009-.027,0-.008.006-.018.014-.043H1.3c.081-.157.167-.314.255-.467l.007-.028,0-.014.011-.043,0-.014.018-.071.019-.013.019-.013.007,0,.052-.035a11.093,11.093,0,0,1,.7-1.013v-.039a.975.975,0,0,1,.2-.209c.179-.218.369-.431.564-.633.012-.036.025-.074.036-.115h.076a11,11,0,0,1,4.859-2.862c.066-.024.129-.048.19-.072a3.2,3.2,0,0,1,.8-.223,3.89,3.89,0,0,1,.4-.045c.056,0,.132-.007.287-.019.186-.015.327-.023.463-.031.178-.01.345-.02.578-.043a2.076,2.076,0,0,1,.32-.015c.139,0,.3.005.488.015.265.015.5.042.737.068a8.237,8.237,0,0,0,.961.07A8.04,8.04,0,1,0,6.548,9.3L6.543,9.3l0,0v.009a8.047,8.047,0,0,0-.565,1.073l-.047.024-.023.012v.133a8,8,0,0,0-.5,1.8l-.006.005h0l-.005,0-.04.035a2.88,2.88,0,0,1-1.026,1.017,2.862,2.862,0,0,1-2.826.029A2.885,2.885,0,0,1,.487,12.5H.479l0-.011,0-.011h0a2.856,2.856,0,0,1-.3-.616H.16a2.535,2.535,0,0,1-.088-.409,2.891,2.891,0,0,1-.045-.511c0-.093,0-.186.013-.278a5.881,5.881,0,0,1,.092-.827A3.729,3.729,0,0,1,.32,9.149L.479,8.67l.159-.319c0-.007.294-.67.319-.8a3.334,3.334,0,0,0,.308-.525c.107-.2.228-.422.329-.592a3.205,3.205,0,0,1,.319-.478l.319-.478L3.04,4.6l.676-.752.591-.6.638-.479.767-.511.669-.446L7.146,1.4,8.294.855a2.81,2.81,0,0,1,.494-.24A5.912,5.912,0,0,1,9.433.406a8.364,8.364,0,0,1,.934-.189,21.394,21.394,0,0,1,3.58-.208h.132c.176,0,.276,0,.357-.006l.132,0c.127,0,.287.012.743.057.763.168,1.513.4,2.239.623h0c.363.112.738.228,1.11.334.018.036.948.474.957.478l.8.478.479.319.478.319.479.319,1.418,1.312.815.921.319.478.319.479.319.478.478.8.319.8s.118.47.319,1.116l.159.478.159.638.159.638.159.8.16,11.164V56.2l-.007.021c0,.077.006.155.006.232a4.193,4.193,0,0,1-.719,2.355,4.224,4.224,0,0,1-1.853,1.526,4.186,4.186,0,0,1-1.64.331h-.093Zm-9.158-22.8A8.232,8.232,0,1,0,21.722,46.1,8.242,8.242,0,0,0,13.49,37.867Z" transform="translate(-20842.998 -16374.162)" fill="url(#linear-gradientsaljdnfbewhilrgw4783e9qiurwhjieuwrygdhjeifrdh)"/>
    <path id="Path_10077" data-name="Path 10077" d="M7.353,0a7.353,7.353,0,1,0,7.353,7.353A7.374,7.374,0,0,0,7.353,0Zm3.088,6.1L6.912,9.632a.711.711,0,0,1-1.029,0h0L4.265,8.015A.728.728,0,0,1,5.294,6.985h0l1.1,1.1L9.412,5.073A.728.728,0,0,1,10.441,6.1Z" transform="translate(-20836.875 -16335.421)" fill="url(#linear-gradientsaljdnfbewhilrgw4783e9qiurwhjieuwrygdhjeifrdh)"/>
  </g>
</svg>
