<svg xmlns="http://www.w3.org/2000/svg" width="583.397" height="490.305" viewBox="0 0 583.397 490.305">
  <path id="Path_10158" data-name="Path 10158" d="M.795,454.907V493.33h99.581c.218-18.792-.086-40.822,3.842-56.995q.48-5.125.961-10.246c3.794-15.059,7.009-31.334,12.808-44.507q.961-3.684,1.921-7.365c20.128-46.793,44.318-83.837,79.729-115.27,5.568-4.942,10.973-10.594,16.97-15.05,10.426-7.745,21.5-14.8,32.34-22.094l2.882-.961c1.287-.575,2.385-1.858,3.522-2.562,1.249-.792,2.75-.8,4.163-1.6.865-.532,1.671-1.768,2.562-2.241l4.8-1.6c.925-.565,1.859-1.783,2.882-2.241,1.467-.658,2.836-.591,4.163-1.28,1.085-.564,2.124-1.766,3.2-2.241,1.66-.732,3.228-.558,4.8-1.281,1.082-.5,2.066-1.76,3.2-2.241l5.444-1.281c1.174-.5,2.327-1.734,3.522-2.241l5.443-1.281c4.749-1.924,11.048-4.387,16.01-6.084l6.084-.961c2.645-.859,5.379-2.129,8.325-2.882l5.763-.64c3.045-.892,6.823-2.052,10.246-2.882l8-.64a76.741,76.741,0,0,1,10.246-.961v69.764l219.975-128.04L364.217,3.025V84.76a32.774,32.774,0,0,0-11.527,0h-4.162c-5.534,1.247-10.777,1.979-16.01,3.2-3.289.769-6.226.091-9.285.961-2.622.745-5.549,1.852-8.325,2.562l-7.684.961c-2.155.7-4.459,2.018-6.724,2.562l-6.724.961c-20.1,6.578-39.641,13.408-58.276,21.453-1.55.926-3.048,2.206-4.483,2.882a245.465,245.465,0,0,0-32.98,17.611l-3.522,1.281c-9.276,5.83-18.021,11.831-26.9,17.931-.9.618-1.633,2.11-2.562,2.562-5.936,3.976-11.293,8.23-16.97,12.488-1.857,1.393-3.26,3.76-5.123,5.123-4.944,3.615-8.959,7.853-13.448,11.847-4.915,4.375-10.093,8.481-14.089,13.769q-3.684,3.522-7.365,7.044c-4.207,5.562-9.654,10.172-13.768,15.689-10.749,14.444-22.087,28.584-32.02,43.867l-.961,2.882c-2.939,4.925-6.567,10.125-9.606,15.049q-.8,2.242-1.6,4.483c-.368.518-1.265,1.06-1.6,1.6q-1.119,2.721-2.241,5.443c-.471.724-1.531,1.394-1.921,2.241q-.8,2.4-1.6,4.8c-.573,1.051-1.739,2.03-2.241,3.2-.554,1.428-.4,2.44-.961,3.522-.592,1.343-1.982,2.495-2.562,3.842-.695,1.755-.477,3.245-1.281,4.8-.516,1-1.758,2.068-2.241,3.2-3.689,8.677-6.132,18.069-10.246,26.256-1.22,1.963-.573,4.108-1.281,6.4-.573,1.86-1.918,3.7-2.562,5.443q-.639,3.362-1.281,6.724c-3.657,11.114-6.567,24.306-9.606,36.182q-.48,4.961-.961,9.926c-.884,3.73-1.678,7.848-2.562,11.527q-.158,3.04-.32,6.084Q3.518,444.017,2.4,454.907Z" transform="translate(-0.795 -3.025)" fill="#128ada" fill-rule="evenodd"/>
</svg>
