<svg xmlns="http://www.w3.org/2000/svg" xmlns:xlink="http://www.w3.org/1999/xlink" width="98" height="98" viewBox="0 0 98 98">
  <defs>
    <radialGradient id="radial-gradient" cx="0.5" cy="0.5" r="0.704" gradientUnits="objectBoundingBox">
      <stop offset="0" stop-color="#fff" stop-opacity="0"/>
      <stop offset="1" stop-color="#6bc800"/>
    </radialGradient>
  </defs>
  <g id="Group_5808" data-name="Group 5808" transform="translate(-1069 -4188)">
    <circle id="Ellipse_1049" data-name="Ellipse 1049" cx="49" cy="49" r="49" transform="translate(1069 4188)" opacity="0.69" fill="url(#radial-gradient)"/>
    <circle id="Ellipse_1048" data-name="Ellipse 1048" cx="31" cy="31" r="31" transform="translate(1087 4206)" fill="url(#radial-gradient)"/>
    <path id="Path_10113" data-name="Path 10113" d="M24.31-.022c7.269-.1,11.459,3.77,13.591,8.86a14.782,14.782,0,0,1,.225,9.761A14.114,14.114,0,0,1,34,24.532c-.875.655-2.542,1.412-3.154,2.253-.721.99-.544,2.647-1.051,3.9a7.9,7.9,0,0,1-4.881,4.655,5.6,5.6,0,0,1-2.928.451c-2.5-.552-4.485-1.209-5.707-3.079a2.5,2.5,0,0,1,.526-3.154,2.726,2.726,0,0,1,2.328-.225c.538.271.758.865,1.2,1.2a3.664,3.664,0,0,0,3.3.6c2.567-.986,1.873-4.3,3.229-6.458,1.032-1.64,2.679-2.384,4.2-3.529A9.411,9.411,0,0,0,34,16.573a7.609,7.609,0,0,0,.376-3.98,15.307,15.307,0,0,0-.751-2.628c-1.307-3.014-5.9-6.722-10.888-5.256a12.216,12.216,0,0,0-3.754,1.877,9.079,9.079,0,0,0-2.328,2.928c-.357.686-.495,1.666-1.126,2.1a2.37,2.37,0,0,1-3.6-1.051c-.464-1.292.559-2.614.976-3.379A13.877,13.877,0,0,1,20.631.654L22.884.129C23.316.026,23.97.189,24.31-.022Zm0,7.133,2.027.075c3.1.791,6.571,3.772,5.481,7.884-1.373.953-1.644.769-2.7-.3-.136-2.5-.921-3.734-2.853-4.43a4,4,0,0,0-2.178-.15,5,5,0,0,0-1.126.451,4.605,4.605,0,0,0-1.577,1.8l-.225.676c-.172.257-.533.384-.751.6-2.446.2-2.279-1.806-1.351-3.3a7.447,7.447,0,0,1,3.229-2.778A18.956,18.956,0,0,0,24.31,7.112ZM8.091,12.067c1.86-.006,2.417,1.37,3.154,2.478a15.708,15.708,0,0,1,2.1,4.806l.15,1.577a8.474,8.474,0,0,1,0,3,16.607,16.607,0,0,1-1.727,4.881,10.222,10.222,0,0,1-2.328,3.079,1.613,1.613,0,0,1-1.5.075,1.527,1.527,0,0,1-.9-1.577,19.219,19.219,0,0,0,3.154-5.256c1.477-4.459-.843-8.937-3.079-11.038C6.99,12.687,7.361,12.751,8.091,12.067Zm-3.229,3.3c1.551-.014,1.951.962,2.553,1.877a8.809,8.809,0,0,1,.075,9.536c-.391.594-1.656,2.735-2.853,1.877a1.526,1.526,0,0,1-.826-1.952c.158-.353.539-.541.751-.826a8.571,8.571,0,0,0,.976-1.652c1.11-2.648-.342-5.431-1.727-6.758a3.773,3.773,0,0,1,.15-1.5A9.733,9.733,0,0,0,4.863,15.371Zm-3.3,3.3,1.051.075c.4.583,1.069,1.007,1.352,1.727a4.838,4.838,0,0,1-.6,4.2c-.2.309-.626.488-.9.751-1.408.125-1.344-.227-2.027-.976-.021-1.5.548-1.251.751-2.1.2-.757-.5-1.1-.676-1.5a1.646,1.646,0,0,1,.676-2.027C1.251,18.771,1.4,18.8,1.559,18.675Z" transform="translate(1098.558 4219.082)" fill="#6bc800" fill-rule="evenodd"/>
  </g>
</svg>
