<svg xmlns="http://www.w3.org/2000/svg" width="72.763" height="52.365" viewBox="0 0 72.763 52.365">
  <g id="system" transform="translate(0 -10.231)">
    <g id="Path_2289" data-name="Path 2289" transform="translate(0 4.521)" fill="none">
      <path d="M72.763,46.295H0V8.834A3.217,3.217,0,0,1,3.3,5.71H69.466a3.217,3.217,0,0,1,3.3,3.124Z" stroke="none"/>
      <path d="M 69.76292419433594 43.29500579833984 L 69.76292419433594 8.839530944824219 C 69.74746704101562 8.811734199523926 69.65695190429688 8.710004806518555 69.46585083007812 8.710004806518555 L 3.297073841094971 8.710004806518555 C 3.1059730052948 8.710004806518555 3.015454769134521 8.811734199523926 3.000003337860107 8.839540481567383 L 3.000003337860107 43.29500579833984 L 69.76292419433594 43.29500579833984 M 72.76292419433594 46.29500579833984 L 3.27363864016661e-06 46.29500579833984 L 3.27363864016661e-06 8.834404945373535 C 3.27363864016661e-06 7.110592842102051 1.478003263473511 5.710004329681396 3.297073841094971 5.710004329681396 L 69.46585083007812 5.710004329681396 C 71.28493499755859 5.710004329681396 72.76292419433594 7.110592842102051 72.76292419433594 8.834404945373535 L 72.76292419433594 46.29500579833984 Z" stroke="none" fill="#00cd8f"/>
    </g>
    <path id="Path_2290" data-name="Path 2290" d="M69.466,51.954H3.3a3.3,3.3,0,0,1-3.3-3.3V43.37H72.763v5.287A3.292,3.292,0,0,1,69.466,51.954Z" transform="translate(0 4.537)" fill="#00cd8f"/>
    <rect id="Rectangle_2570" data-name="Rectangle 2570" width="25.422" height="4.047" transform="translate(23.671 55.354)" fill="#00cd8f"/>
    <path id="Path_2291" data-name="Path 2291" d="M54.432,58.81H14.39v-.875a3.443,3.443,0,0,1,3.445-3.445H50.976a3.443,3.443,0,0,1,3.445,3.445v.875Z" transform="translate(1.97 3.786)" fill="#00cd8f"/>
  </g>
</svg>
