<svg xmlns="http://www.w3.org/2000/svg" width="23.288" height="43.175" viewBox="0 0 23.288 43.175">
  <g id="temperature_CO2_NH3_noise" transform="translate(-14.741 0)">
    <path id="Subtraction_71" data-name="Subtraction 71" d="M8.25,43.175A8.254,8.254,0,0,1,3.1,28.475V5.114A5.153,5.153,0,0,1,11.888,1.5,5.056,5.056,0,0,1,13.4,5.114V28.475a8.3,8.3,0,0,1,3.1,6.449,8.129,8.129,0,0,1-.466,2.726A8.249,8.249,0,0,1,8.25,43.175Zm-.008-30.1a.651.651,0,0,0-.646.654V32.4a2.938,2.938,0,1,0,1.3,0V13.729A.655.655,0,0,0,8.243,13.074ZM8.25,36.888a1.628,1.628,0,0,1-1.626-1.626A1.622,1.622,0,1,1,8.25,36.888Z" transform="translate(14.741 0)" fill="#cc5658"/>
    <path id="Path_1961" data-name="Path 1961" d="M38.868,7.469h3.218a.654.654,0,1,0,0-1.309H38.868a.654.654,0,1,0,0,1.309Zm3.218,16H38.868a.654.654,0,1,0,0,1.309h3.218a.654.654,0,1,0,0-1.309ZM44.9,14.809H38.524a.654.654,0,1,0,0,1.309H44.9a.654.654,0,1,0,0-1.309Z" transform="translate(-7.525 -2.004)" fill="#cc5658"/>
  </g>
</svg>
