<svg xmlns="http://www.w3.org/2000/svg" xmlns:xlink="http://www.w3.org/1999/xlink" width="70" height="70" viewBox="0 0 70 70">
  <defs>
    <filter id="Path_10149" x="21" y="24" width="28" height="28" filterUnits="userSpaceOnUse">
      <feOffset dy="3" input="SourceAlpha"/>
      <feGaussianBlur stdDeviation="3" result="blur"/>
      <feFlood flood-opacity="0.161"/>
      <feComposite operator="in" in2="blur"/>
      <feComposite in="SourceGraphic"/>
    </filter>
  </defs>
  <g id="Group_5820" data-name="Group 5820" transform="translate(-1051 -11027)">
    <path id="Path_10147" data-name="Path 10147" d="M2,0A2,2,0,0,1,4,2V13a2,2,0,0,1-4,0V2A2,2,0,0,1,2,0Z" transform="matrix(0.848, -0.53, 0.53, 0.848, 1083.74, 11061.655)" fill="#00cd8f"/>
    <path id="Path_10148" data-name="Path 10148" d="M3,0A3,3,0,0,1,6,3V23a3,3,0,0,1-6,0V3A3,3,0,0,1,3,0Z" transform="matrix(0.848, -0.53, 0.53, 0.848, 1071.764, 11044.377)" fill="#00cd8f"/>
    <g transform="matrix(1, 0, 0, 1, 1051, 11027)" filter="url(#Path_10149)">
      <path id="Path_10149-2" data-name="Path 10149" d="M5,0A5,5,0,1,1,0,5,5,5,0,0,1,5,0Z" transform="translate(30 30)" fill="#00cd8f"/>
    </g>
    <g id="Ellipse_1071" data-name="Ellipse 1071" transform="translate(1051 11027)" fill="none" stroke="#00cd8f" stroke-width="5">
      <circle cx="35" cy="35" r="35" stroke="none"/>
      <circle cx="35" cy="35" r="32.5" fill="none"/>
    </g>
  </g>
</svg>
