<svg xmlns="http://www.w3.org/2000/svg" xmlns:xlink="http://www.w3.org/1999/xlink" width="90" height="90" viewBox="0 0 90 90">
  <defs>
    <filter id="Subtraction_85" x="18.987" y="28.088" width="52.025" height="45.777" filterUnits="userSpaceOnUse">
      <feOffset dy="3" input="SourceAlpha"/>
      <feGaussianBlur stdDeviation="3" result="blur"/>
      <feFlood flood-opacity="0.161"/>
      <feComposite operator="in" in2="blur"/>
      <feComposite in="SourceGraphic"/>
    </filter>
  </defs>
  <g id="Group_5790" data-name="Group 5790" transform="translate(-1039 -11015)">
    <g id="trap" transform="translate(1045.999 11022.26)">
      <rect id="Rectangle_3860" data-name="Rectangle 3860" width="90" height="90" transform="translate(-7 -7.259)" fill="none"/>
      <rect id="Rectangle_3474" data-name="Rectangle 3474" width="6.61" height="6.61" transform="translate(39.69 24.964) rotate(-45)" fill="#00cd8f"/>
      <rect id="Rectangle_3475" data-name="Rectangle 3475" width="6.61" height="6.61" transform="translate(39.69 51.031) rotate(-45)" fill="#00cd8f"/>
      <rect id="Rectangle_3476" data-name="Rectangle 3476" width="6.61" height="6.61" transform="translate(26.657 37.997) rotate(-45)" fill="#00cd8f"/>
      <rect id="Rectangle_3477" data-name="Rectangle 3477" width="6.61" height="6.61" transform="translate(39.69 37.997) rotate(-45)" fill="#00cd8f"/>
      <rect id="Rectangle_3478" data-name="Rectangle 3478" width="6.61" height="6.61" transform="translate(46.207 31.48) rotate(-45)" fill="#00cd8f"/>
      <rect id="Rectangle_3479" data-name="Rectangle 3479" width="6.61" height="6.61" transform="translate(26.657 51.031) rotate(-45)" fill="#00cd8f"/>
      <rect id="Rectangle_3480" data-name="Rectangle 3480" width="6.61" height="6.61" transform="translate(46.207 44.514) rotate(-45)" fill="#00cd8f"/>
      <rect id="Rectangle_3481" data-name="Rectangle 3481" width="6.61" height="6.61" transform="translate(13.623 37.997) rotate(-45)" fill="#00cd8f"/>
      <rect id="Rectangle_3482" data-name="Rectangle 3482" width="6.61" height="6.61" transform="translate(20.14 31.48) rotate(-45)" fill="#00cd8f"/>
      <rect id="Rectangle_3483" data-name="Rectangle 3483" width="6.61" height="6.61" transform="translate(20.14 44.514) rotate(-45)" fill="#00cd8f"/>
      <rect id="Rectangle_3484" data-name="Rectangle 3484" width="6.61" height="6.61" transform="translate(33.173 18.447) rotate(-45)" fill="#00cd8f"/>
      <rect id="Rectangle_3485" data-name="Rectangle 3485" width="6.61" height="6.61" transform="translate(33.173 57.547) rotate(-45)" fill="#00cd8f"/>
      <rect id="Rectangle_3486" data-name="Rectangle 3486" width="6.61" height="6.61" transform="translate(33.173 31.48) rotate(-45)" fill="#00cd8f"/>
      <rect id="Rectangle_3487" data-name="Rectangle 3487" width="6.61" height="6.61" transform="translate(33.173 44.514) rotate(-45)" fill="#00cd8f"/>
      <rect id="Rectangle_3488" data-name="Rectangle 3488" width="6.61" height="6.61" transform="translate(26.657 24.964) rotate(-45)" fill="#00cd8f"/>
      <rect id="Rectangle_3489" data-name="Rectangle 3489" width="6.61" height="6.61" transform="translate(46.207 57.547) rotate(-45)" fill="#00cd8f"/>
      <rect id="Rectangle_3490" data-name="Rectangle 3490" width="6.61" height="6.61" transform="translate(52.724 51.03) rotate(-45)" fill="#00cd8f"/>
      <rect id="Rectangle_3491" data-name="Rectangle 3491" width="6.61" height="6.61" transform="translate(20.14 57.547) rotate(-45)" fill="#00cd8f"/>
      <rect id="Rectangle_3492" data-name="Rectangle 3492" width="6.61" height="6.61" transform="translate(13.623 51.031) rotate(-45)" fill="#00cd8f"/>
      <path id="Path_3554" data-name="Path 3554" d="M72.289,12.968,83.032,2.225A1.3,1.3,0,1,0,81.189.382L70.446,11.125,51.978,12.767a116.2,116.2,0,0,1-20.542,0L12.969,11.125,2.225.382A1.3,1.3,0,1,0,.382,2.225L11.125,12.968l1.641,18.468a133.131,133.131,0,0,1-.273,23.616L11.126,70.446.382,81.189a1.3,1.3,0,0,0,1.843,1.843L12.969,72.289l15.387-1.368a150.026,150.026,0,0,1,26.7,0l15.393,1.368L81.189,83.032a1.3,1.3,0,0,0,1.843-1.843L72.289,70.446,70.921,55.053a133.341,133.341,0,0,1-.273-23.616ZM12.382,72.336c-.035,0-.071-.007-.106-.01a1.3,1.3,0,0,0,.171,0C12.425,72.33,12.4,72.336,12.382,72.336Zm55.392-45.5L68.5,26.1l-.42,4.727-.31-.311L63.1,35.19,67.608,39.7q-.034,2.009,0,4.018L63.1,48.224,67.774,52.9l.31-.31.42,4.727-.731-.731L63.1,61.257l6.316,6.316L69.6,69.6l-2.023-.18L61.257,63.1l-4.674,4.674.731.731-4.727-.42.311-.31L48.224,63.1l-4.508,4.508c-.669-.011-1.339-.022-2.009-.022s-1.339.011-2.009.022L35.19,63.1l-4.674,4.674.31.31L26.1,68.5l.731-.731L22.157,63.1l-6.316,6.316-2.023.18L14,67.573l6.316-6.316L15.64,56.583l-.731.731.42-4.727.31.311,4.674-4.674-4.508-4.508q.034-2.009,0-4.018l4.508-4.508L15.64,30.517l-.31.31L14.91,26.1l.731.731,4.674-4.674L14,15.841l-.18-2.023,2.023.18,6.316,6.316,4.674-4.674-.73-.73,4.727.42-.31.31,4.674,4.674L39.7,15.806q2.008.034,4.018,0l4.508,4.508L52.9,15.64l-.31-.31,4.727-.42-.73.73,4.674,4.674L67.573,14l2.023-.18-.18,2.023L63.1,22.157Z" transform="translate(-3.86 -3.71)" fill="#00cd8f"/>
      <rect id="Rectangle_3493" data-name="Rectangle 3493" width="6.61" height="6.61" transform="translate(52.724 37.997) rotate(-45)" fill="#00cd8f"/>
      <rect id="Rectangle_3494" data-name="Rectangle 3494" width="6.61" height="6.61" transform="translate(20.14 18.447) rotate(-45)" fill="#00cd8f"/>
      <rect id="Rectangle_3495" data-name="Rectangle 3495" width="6.61" height="6.61" transform="translate(46.207 18.447) rotate(-45)" fill="#00cd8f"/>
      <rect id="Rectangle_3496" data-name="Rectangle 3496" width="6.61" height="6.61" transform="translate(52.724 24.964) rotate(-45)" fill="#00cd8f"/>
      <rect id="Rectangle_3497" data-name="Rectangle 3497" width="6.61" height="6.61" transform="translate(13.623 24.964) rotate(-45)" fill="#00cd8f"/>
    </g>
    <g transform="matrix(1, 0, 0, 1, 1039, 11015)" filter="url(#Subtraction_85)">
      <path id="Subtraction_85-2" data-name="Subtraction 85" d="M15028.013,17643.777a17.133,17.133,0,0,1-7.828-2.09,9.911,9.911,0,0,1-3.512-3.068l-2.364.3a.394.394,0,0,1-.1.01.552.552,0,0,1-.429-.205.546.546,0,0,1-.071-.557.552.552,0,0,1,.47-.32l1.935-.242a6.237,6.237,0,0,1-.474-1.705l-1.735-.217a.538.538,0,0,1,.026-1.072h.013l.014,0a.12.12,0,0,1,.026,0h.026a.123.123,0,0,0,.027,0l1.563.2a15.789,15.789,0,0,1,.643-4.074,7.546,7.546,0,0,1,1.655-14.7l.057,0c.2-.014.409-.027.63-.027a7.571,7.571,0,0,1,7.205,5.346,11.783,11.783,0,0,1,2.227-.227,11.366,11.366,0,0,1,2.224.227,7.586,7.586,0,0,1,7.222-5.346c.226,0,.477.018.669.031a7.545,7.545,0,0,1,1.66,14.7,15.885,15.885,0,0,1,.642,4.07l1.546-.191h.016l.02,0a.268.268,0,0,1,.04,0,.539.539,0,0,1,.531.469.552.552,0,0,1-.114.41.537.537,0,0,1-.359.2l-1.723.217a5.994,5.994,0,0,1-.474,1.709l1.931.238a.538.538,0,0,1,.465.32.532.532,0,0,1-.071.557.552.552,0,0,1-.429.205.54.54,0,0,1-.082-.006l-.021,0-2.351-.3a10.058,10.058,0,0,1-3.517,3.064A17.1,17.1,0,0,1,15028.013,17643.777Zm-.584-5.867a1,1,0,0,0-.709,1.709l.585.586a1.008,1.008,0,0,0,1.417,0l.584-.586a1,1,0,0,0-.708-1.709Zm5.583-10a2,2,0,1,0,2,2A2,2,0,0,0,15033.012,17627.912Zm-10,0a2,2,0,1,0,2,2A2,2,0,0,0,15023.014,17627.912Z" transform="translate(-14983.01 -17581.91)" fill="#ff5a5a"/>
    </g>
  </g>
</svg>
