<svg xmlns="http://www.w3.org/2000/svg" xmlns:xlink="http://www.w3.org/1999/xlink" width="53.183" height="66.371" viewBox="0 0 53.183 66.371">
  <defs>
    <linearGradient id="linear-gradientskejfkwenjrhuwiy483294y29urwiehjnkroegbrjfighjfdiudhujnj" x1="0.5" x2="0.5" y2="1" gradientUnits="objectBoundingBox">
      <stop offset="0" stop-color="maroon"/>
      <stop offset="1" stop-color="#d82222"/>
    </linearGradient>
  </defs>
  <g id="Group_5688" data-name="Group 5688" transform="matrix(0.875, 0.485, -0.485, 0.875, 29.521, 0.001)">
    <path id="Path_10075" data-name="Path 10075" d="M22.733,60.889H4.256a4.209,4.209,0,0,1-2.364-.722A4.241,4.241,0,0,1,.36,58.306a4.2,4.2,0,0,1-.332-1.646c0-.138.007-.277.02-.414H0V37.2c0-.19,0-.379,0-.588V36.6c0-1.272,0-2.714.082-3.959a11.128,11.128,0,0,1,.239-2.29v-.517H.444c.012-.047.025-.094.038-.14v-.181H.533c.034-.115.07-.232.108-.346v-.134H.687c.036-.1.075-.21.115-.316v-.164H.866c.113-.284.24-.566.376-.839l.009-.027.009-.027,0-.008.006-.018.014-.043H1.3c.081-.157.167-.315.256-.469l.007-.029,0-.014.011-.043,0-.014.018-.071.019-.013.019-.013.007,0,.052-.035a11.134,11.134,0,0,1,.7-1.017v-.039a.978.978,0,0,1,.2-.21c.18-.219.37-.432.566-.635.013-.036.025-.075.036-.115H3.28A11.045,11.045,0,0,1,8.157,22c.066-.024.13-.048.191-.072a3.211,3.211,0,0,1,.8-.224,3.905,3.905,0,0,1,.406-.045c.056,0,.132-.007.288-.02.186-.015.328-.023.465-.031.178-.01.347-.02.58-.043a2.084,2.084,0,0,1,.321-.015c.139,0,.3.005.489.015.266.015.507.042.739.068a8.268,8.268,0,0,0,.965.07A8.07,8.07,0,1,0,6.573,9.333l-.005.006,0,0v.009A8.077,8.077,0,0,0,6,10.428l-.047.024-.024.012V10.6a8.027,8.027,0,0,0-.5,1.8l-.006.005h0l-.005,0-.04.035a2.891,2.891,0,0,1-1.03,1.021,2.872,2.872,0,0,1-2.836.029A2.9,2.9,0,0,1,.49,12.544H.482l0-.011,0-.011h0a2.867,2.867,0,0,1-.3-.618H.162a2.545,2.545,0,0,1-.088-.411,2.9,2.9,0,0,1-.046-.513c0-.093,0-.187.013-.279a5.9,5.9,0,0,1,.092-.83,3.743,3.743,0,0,1,.189-.688l.16-.48.16-.32c0-.007.295-.672.32-.8a3.346,3.346,0,0,0,.31-.527c.107-.2.229-.424.331-.594a3.217,3.217,0,0,1,.32-.48l.32-.48.809-.885.678-.755.593-.6.64-.48.769-.512L6.4,1.819,7.174,1.4,8.326.858a2.821,2.821,0,0,1,.5-.241,5.934,5.934,0,0,1,.647-.21,8.4,8.4,0,0,1,.938-.19A21.474,21.474,0,0,1,14,.009h.133c.177,0,.278,0,.358-.006l.133,0c.128,0,.288.012.745.058.766.168,1.519.4,2.247.625h0c.364.112.741.229,1.115.335.018.036.951.476.96.48l.8.48.48.32.48.32.48.32,1.423,1.317.818.924.32.48.32.48.32.48.48.8.32.8s.118.472.32,1.12l.16.48.16.64.16.64.16.8.16,11.206v33.3l-.007.021c0,.078.006.156.006.233a4.208,4.208,0,0,1-.722,2.364,4.24,4.24,0,0,1-1.86,1.532,4.2,4.2,0,0,1-1.646.332h-.093ZM13.541,38.007A8.263,8.263,0,1,0,21.8,46.27,8.272,8.272,0,0,0,13.541,38.007Z" transform="translate(-0.001 0)" fill="url(#linear-gradientskejfkwenjrhuwiy483294y29urwiehjnkroegbrjfighjfdiudhujnj)"/>
    <path id="Path_10076" data-name="Path 10076" d="M6.964,13.928a7.015,7.015,0,0,1-1.4-.141,6.926,6.926,0,0,1-2.49-1.048A6.984,6.984,0,0,1,.547,9.675,6.929,6.929,0,0,1,.141,8.368a7.032,7.032,0,0,1,0-2.807A6.926,6.926,0,0,1,1.189,3.07,6.984,6.984,0,0,1,4.253.547,6.929,6.929,0,0,1,5.561.141a7.032,7.032,0,0,1,2.807,0,6.926,6.926,0,0,1,2.49,1.048,6.984,6.984,0,0,1,2.523,3.064,6.929,6.929,0,0,1,.406,1.307,7.032,7.032,0,0,1,0,2.807,6.926,6.926,0,0,1-1.048,2.49,6.984,6.984,0,0,1-3.064,2.523,6.929,6.929,0,0,1-1.307.406A7.015,7.015,0,0,1,6.964,13.928ZM4.145,5.638a1.271,1.271,0,0,0,0,2.542H9.838a1.271,1.271,0,0,0,0-2.542Z" transform="translate(6.575 39.416)" fill="url(#linear-gradientskejfkwenjrhuwiy483294y29urwiehjnkroegbrjfighjfdiudhujnj)"/>
  </g>
</svg>
