<svg xmlns="http://www.w3.org/2000/svg" width="104.635" height="87.585" viewBox="0 0 104.635 87.585">
  <g id="voltage" transform="translate(-1.994 -1.972)">
    <path id="Path_3547" data-name="Path 3547" d="M51.669,4.168,3.248,84.875a1.783,1.783,0,0,0,.171,1.985,2.653,2.653,0,0,0,2.1.956h96.842a2.654,2.654,0,0,0,2.139-.971,1.782,1.782,0,0,0,.129-2.025L56.205,4.113a2.662,2.662,0,0,0-2.288-1.128,2.63,2.63,0,0,0-2.248,1.182Z" transform="translate(0.379 0.373)" fill="none"/>
    <path id="Path_3548" data-name="Path 3548" d="M102.483,89.557H6.156a4.355,4.355,0,0,1-3.548-1.642,2.92,2.92,0,0,1-.18-3.324L50.592,3.884a4.573,4.573,0,0,1,7.439,0l48.163,80.707a2.92,2.92,0,0,1-.18,3.324A4.352,4.352,0,0,1,102.483,89.557Z" transform="translate(0 0)" fill="#d9d200"/>
    <path id="Path_3550" data-name="Path 3550" d="M34.195,71.981a1.368,1.368,0,0,1-1.368-1.655L37.19,50.642H26.384a1.368,1.368,0,0,1-1.368-1.765l8.6-27.905A1.368,1.368,0,0,1,34.988,20h9.384a1.368,1.368,0,0,1,1.272,1.874L37.792,41.34H48.27a1.368,1.368,0,0,1,1.217,1.983L35.426,71.229A1.368,1.368,0,0,1,34.195,71.981Z" transform="translate(17.016 9.264)" fill="#fff"/>
  </g>
</svg>
