<svg xmlns="http://www.w3.org/2000/svg" width="85" height="85" viewBox="0 0 85 85">
  <g id="water" transform="translate(1.767 3.721)">
    <path id="Path_3561" data-name="Path 3561" d="M31.668,66.093c-11.442-.016-20.714-9.581-20.729-21.385,0-7.34,4.084-13.369,9.253-21A158.814,158.814,0,0,0,29.866,8.04a2.1,2.1,0,0,1,3.6,0A159.6,159.6,0,0,0,43.141,23.7c5.169,7.635,9.253,13.665,9.253,21-.011,11.8-9.283,21.371-20.725,21.385Z" transform="translate(9.004 -6.252)" fill="#0d9eff"/>
    <path id="Path_3562" data-name="Path 3562" d="M33.226,37.591C23.485,37.591,7,35.369,7,27.028c0-3.786,3.24-6.571,9.911-8.51.768-.163,1.49.575,1.642,1.678a2.278,2.278,0,0,1-1.068,2.467c-6.035,1.754-7.509,3.9-7.571,4.378.277,2.134,8.754,6.325,23.312,6.325s23.035-4.192,23.312-6.351c-.061-.452-1.536-2.6-7.574-4.352a2.221,2.221,0,0,1-1.142-2.489c.159-1.145.927-1.886,1.716-1.656,6.673,1.939,9.913,4.724,9.913,8.51C59.452,35.369,42.968,37.591,33.226,37.591Z" transform="translate(7.486 30.697)" fill="#0d9eff"/>
    <path id="Path_3563" data-name="Path 3563" d="M42.514,51.77C23.844,51.77,4,45.107,4,32.756c0-6.714,6.3-12.541,17.28-15.993.862-.272,1.729.428,1.935,1.563a2.213,2.213,0,0,1-1.188,2.548c-9,2.827-14.818,7.492-14.818,11.882,0,6.993,14.5,14.789,35.3,14.789s35.3-7.8,35.3-14.789C77.818,28.366,72,23.7,63,20.87a2.213,2.213,0,0,1-1.188-2.548c.207-1.135,1.073-1.835,1.935-1.563,10.98,3.456,17.277,9.283,17.277,16C81.028,45.107,61.183,51.77,42.514,51.77Z" transform="translate(-1.805 24.971)" fill="#0d9eff"/>
    <rect id="Rectangle_3854" data-name="Rectangle 3854" width="85" height="85" transform="translate(-1.767 -3.721)" fill="none"/>
  </g>
</svg>
