<svg xmlns="http://www.w3.org/2000/svg" width="40.001" height="52" viewBox="0 0 40.001 52">
  <g id="loc" transform="translate(-3.999 0)">
    <path id="Path_3501" data-name="Path 3501" d="M37.338,5.1A19.858,19.858,0,0,0,21.725.126,20.2,20.2,0,0,0,4.06,18.429a19.86,19.86,0,0,0,8.572,18.025c4.063,2.812,8.521,5.665,9.578,9.611l.949,3.476c.184.286.5,2.459.841,2.459s.657-2.173.841-2.459l.845-3.476c1.22-4.554,5.833-7.1,9.331-9.358A19.566,19.566,0,0,0,44,20,20.032,20.032,0,0,0,37.338,5.1Z"/>
  </g>
</svg>
