<svg id="celluConn" xmlns="http://www.w3.org/2000/svg" width="74" height="74" viewBox="0 0 74 74">
  <circle id="Ellipse_340" data-name="Ellipse 340" cx="37" cy="37" r="37" fill="#3693ff"/>
  <path id="Path_2740" data-name="Path 2740" d="M35,37.292a6.5,6.5,0,1,1,5,.188v24a2.5,2.5,0,1,1-5,0Zm-5.793,3.035a.99.99,0,0,1-.73-.321,13.534,13.534,0,0,1,.373-18.649.991.991,0,0,1,1.4,1.406,11.545,11.545,0,0,0-.311,15.9.984.984,0,0,1-.057,1.4.96.96,0,0,1-.672.269Zm17.227.356A.994.994,0,0,1,45.726,39a11.57,11.57,0,0,0,0-15.976.99.99,0,0,1,.02-1.4.976.976,0,0,1,1.4.02,13.551,13.551,0,0,1,0,18.737,1.008,1.008,0,0,1-.713.306Zm-21.257,4.84a1.5,1.5,0,0,1-1.107-.477,20.82,20.82,0,0,1,.222-28.584,1.525,1.525,0,1,1,2.188,2.126,17.769,17.769,0,0,0-.191,24.374,1.526,1.526,0,0,1-.068,2.152,1.5,1.5,0,0,1-1.044.408Zm25.348.218a1.52,1.52,0,0,1-1.1-2.58,17.765,17.765,0,0,0,0-24.572,1.525,1.525,0,0,1,2.188-2.126,20.818,20.818,0,0,1,0,28.817,1.512,1.512,0,0,1-1.091.46Z" fill="#fff" fill-rule="evenodd"/>
</svg>
