<svg xmlns="http://www.w3.org/2000/svg" xmlns:xlink="http://www.w3.org/1999/xlink" width="296.75" height="479.381" viewBox="0 0 296.75 479.381">
  <defs>
    <linearGradient id="linear-gradient" x1="0.5" x2="0.5" y2="1" gradientUnits="objectBoundingBox">
      <stop offset="0" stop-color="#fff" stop-opacity="0.506"/>
      <stop offset="1" stop-opacity="0.149"/>
    </linearGradient>
    <radialGradient id="radial-gradient" cx="0.265" cy="0.097" r="1.98" gradientTransform="matrix(0.439, 0.456, -1.169, 0.29, 0.262, -0.052)" gradientUnits="objectBoundingBox">
      <stop offset="0" stop-color="#fff" stop-opacity="0.302"/>
      <stop offset="1" stop-color="#d2d1d4" stop-opacity="0.302"/>
    </radialGradient>
  </defs>
  <g id="ec-cn-e2" transform="translate(-29.75 -21.391)">
    <g id="Group_2540" data-name="Group 2540" transform="translate(252 205)">
      <circle id="Ellipse_340" data-name="Ellipse 340" cx="37" cy="37" r="37" fill="#3693ff" stroke="#3693ff" stroke-width="1"/>
      <path id="Path_2740" data-name="Path 2740" d="M35,37.292a6.5,6.5,0,1,1,5,.188v24a2.5,2.5,0,1,1-5,0Zm-5.793,3.035a.99.99,0,0,1-.73-.321,13.534,13.534,0,0,1,.373-18.649.991.991,0,0,1,1.4,1.406,11.545,11.545,0,0,0-.311,15.9.984.984,0,0,1-.057,1.4.96.96,0,0,1-.672.269Zm17.227.356A.994.994,0,0,1,45.726,39a11.57,11.57,0,0,0,0-15.976.99.99,0,0,1,.02-1.4.976.976,0,0,1,1.4.02,13.551,13.551,0,0,1,0,18.737,1.008,1.008,0,0,1-.713.306Zm-21.257,4.84a1.5,1.5,0,0,1-1.107-.477,20.82,20.82,0,0,1,.222-28.584,1.525,1.525,0,1,1,2.188,2.126,17.769,17.769,0,0,0-.191,24.374,1.526,1.526,0,0,1-.068,2.152,1.5,1.5,0,0,1-1.044.408Zm25.348.218a1.52,1.52,0,0,1-1.1-2.58,17.765,17.765,0,0,0,0-24.572,1.525,1.525,0,0,1,2.188-2.126,20.818,20.818,0,0,1,0,28.817,1.512,1.512,0,0,1-1.091.46Z" fill="#fff" fill-rule="evenodd"/>
    </g>
    <g id="Group_2541" data-name="Group 2541" transform="translate(30 205)">
      <circle id="Ellipse_341" data-name="Ellipse 341" cx="37.25" cy="37.25" r="37.25" transform="translate(-0.25 -0.25)" fill="#fff"/>
      <path id="Path_2741" data-name="Path 2741" d="M52,29H50l-.014-9h-2L48,29H46l.035-9H43.986v9H42V20H39.959L40,29H38V20H36v9H34V20H32v9H30V20H28v9H26V20H24v9H22V20H16V44h9v6h5v7H43.986V50H49V44h9V20H52Z" fill="#17384c"/>
    </g>
    <g id="Group_2542" data-name="Group 2542" transform="translate(138 351)">
      <path id="Path_2742" data-name="Path 2742" d="M54.23,148.882l-6.308.665-6.423.225-6.373-.222-6.308-.661-6.324-1.114-4.1-1.058-2.306-.817-2.228-1.017-2.091-1.254-1.442-1.122-1.308-1.281L7.885,139.8l-.944-1.538-.77-1.636-.6-1.7-.7-2.938-.385-3-.153-3.019-.194-11.058-.114-11.086L4,92.755l.08-11.084.13-7.923.2-7.921.273-7.9.358-7.894.46-7.9.574-7.884.7-7.842.87-7.812.492-3.13.4-1.746L9.068,12l.716-1.64.968-1.538,1.229-1.342L13.431,6.4l1.6-.845,2.239-.834,2.32-.606,2.353-.454,5.7-.83,5.736-.548,4.054-.213L41.5,2l5.763.143,5.747.43,4.03.474,4.014.615,2.85.575,1.788.48,1.749.613,1.665.8,1.518,1.024,1.31,1.272L72.964,9.9l.785,1.625.751,2.3.506,2.369.348,2.4L76.5,29.3l.86,10.759L78,50.809l.455,10.776.24,8.065.166,8.069.1,8.056L79,93.828l-.014,8.06-.063,8.05-.108,8.024-.149,8.009-.087,2.1-.188,2.094-.373,2.4-.586,2.36-.847,2.273-.836,1.611-1.02,1.513L73.538,141.7l-1.345,1.21-1.476,1.06-1.57.911-2.776,1.234-2.9.943-2.962.72Z"/>
      <path id="Path_2743" data-name="Path 2743" d="M54.23,148.882l-6.308.665-6.423.225-6.373-.222-6.308-.661-6.324-1.114-4.1-1.058-2.306-.817-2.228-1.017-2.091-1.254-1.442-1.122-1.308-1.281L7.885,139.8l-.944-1.538-.77-1.636-.6-1.7-.7-2.938-.385-3-.153-3.019-.194-11.058-.114-11.086L4,92.755l.08-11.084.13-7.923.2-7.921.273-7.9.358-7.894.46-7.9.574-7.884.7-7.842.87-7.812.492-3.13.4-1.746L9.068,12l.716-1.64.968-1.538,1.229-1.342L13.431,6.4l1.6-.845,2.239-.834,2.32-.606,2.353-.454,5.7-.83,5.736-.548,4.054-.213L41.5,2l5.763.143,5.747.43,4.03.474,4.014.615,2.85.575,1.788.48,1.749.613,1.665.8,1.518,1.024,1.31,1.272L72.964,9.9l.785,1.625.751,2.3.506,2.369.348,2.4L76.5,29.3l.86,10.759L78,50.809l.455,10.776.24,8.065.166,8.069.1,8.056L79,93.828l-.014,8.06-.063,8.05-.108,8.024-.149,8.009-.087,2.1-.188,2.094-.373,2.4-.586,2.36-.847,2.273-.836,1.611-1.02,1.513L73.538,141.7l-1.345,1.21-1.476,1.06-1.57.911-2.776,1.234-2.9.943-2.962.72Z" fill="#fff"/>
      <path id="Path_2744" data-name="Path 2744" d="M54.23,148.882l-6.308.665-6.423.225-6.373-.222-6.308-.661-6.324-1.114-4.1-1.058-2.306-.817-2.228-1.017-2.091-1.254-1.442-1.122-1.308-1.281L7.885,139.8l-.944-1.538-.77-1.636-.6-1.7-.7-2.938-.385-3-.153-3.019-.194-11.058-.114-11.086L4,92.755l.08-11.084.13-7.923.2-7.921.273-7.9.358-7.894.46-7.9.574-7.884.7-7.842.87-7.812.492-3.13.4-1.746L9.068,12l.716-1.64.968-1.538,1.229-1.342L13.431,6.4l1.6-.845,2.239-.834,2.32-.606,2.353-.454,5.7-.83,5.736-.548,4.054-.213L41.5,2l5.763.143,5.747.43,4.03.474,4.014.615,2.85.575,1.788.48,1.749.613,1.665.8,1.518,1.024,1.31,1.272L72.964,9.9l.785,1.625.751,2.3.506,2.369.348,2.4L76.5,29.3l.86,10.759L78,50.809l.455,10.776.24,8.065.166,8.069.1,8.056L79,93.828l-.014,8.06-.063,8.05-.108,8.024-.149,8.009-.087,2.1-.188,2.094-.373,2.4-.586,2.36-.847,2.273-.836,1.611-1.02,1.513L73.538,141.7l-1.345,1.21-1.476,1.06-1.57.911-2.776,1.234-2.9.943-2.962.72Z" fill="url(#linear-gradient)"/>
      <path id="Path_2745" data-name="Path 2745" d="M54.23,148.882l-6.308.665-6.423.225-6.373-.222-6.308-.661-6.324-1.114-4.1-1.058-2.306-.817-2.228-1.017-2.091-1.254-1.442-1.122-1.308-1.281L7.885,139.8l-.944-1.538-.77-1.636-.6-1.7-.7-2.938-.385-3-.153-3.019-.194-11.058-.114-11.086L4,92.755l.08-11.084.13-7.923.2-7.921.273-7.9.358-7.894.46-7.9.574-7.884.7-7.842.87-7.812.492-3.13.4-1.746L9.068,12l.716-1.64.968-1.538,1.229-1.342L13.431,6.4l1.6-.845,2.239-.834,2.32-.606,2.353-.454,5.7-.83,5.736-.548,4.054-.213L41.5,2l5.763.143,5.747.43,4.03.474,4.014.615,2.85.575,1.788.48,1.749.613,1.665.8,1.518,1.024,1.31,1.272L72.964,9.9l.785,1.625.751,2.3.506,2.369.348,2.4L76.5,29.3l.86,10.759L78,50.809l.455,10.776.24,8.065.166,8.069.1,8.056L79,93.828l-.014,8.06-.063,8.05-.108,8.024-.149,8.009-.087,2.1-.188,2.094-.373,2.4-.586,2.36-.847,2.273-.836,1.611-1.02,1.513L73.538,141.7l-1.345,1.21-1.476,1.06-1.57.911-2.776,1.234-2.9.943-2.962.72Z" fill="url(#radial-gradient)"/>
    </g>
    <g id="Group_2543" data-name="Group 2543" transform="translate(0 79)">
      <path id="Path_2746" data-name="Path 2746" d="M163.747,401.25h-.167v-.75h-.167v.75h-.166l0-.75h-.17v.75h-.166v-.75h-.17l0,.75h-.167v-.75h-.166v.75h-.167v-.75h-.166v.75h-.167v-.75h-.166v.75h-.167v-.75h-.166v.75h-.167v-.75h-.5v2h.75v.5h.415v.582h1.165V403h.417v-.5h.75v-2h-.5Z" fill="#fff"/>
      <path id="Path_2747" data-name="Path 2747" d="M184.179,347.15a2.84,2.84,0,0,0,0,5.68h7.355a1.818,1.818,0,0,0,.464-3.573l-.22-.058.1-.2a.79.79,0,0,0-1.068-1.053l-.316.163.047-.353a2.358,2.358,0,1,0-4.693-.39l-.01.308-.266-.152a2.82,2.82,0,0,0-1.4-.369m7.355,6.052h-7.355a3.212,3.212,0,1,1,1.324-6.135,2.727,2.727,0,0,1,5.431.371v.07a1.161,1.161,0,0,1,1.354,1.452,2.19,2.19,0,0,1-.754,4.242" fill="#fff" fill-rule="evenodd"/>
    </g>
    <g id="Group_2546" data-name="Group 2546">
      <g id="Group_2544" data-name="Group 2544" transform="translate(121 21)">
        <path id="Path_2748" data-name="Path 2748" d="M93.568,73.35H27.636A27.116,27.116,0,1,1,40.962,22.608a22.788,22.788,0,0,1,45.569.688,22.389,22.389,0,0,1-.2,3,8.714,8.714,0,0,1,12.727,7.748,8.977,8.977,0,0,1-.906,3.93A18,18,0,0,1,93.568,73.35Z"/>
        <path id="Path_2749" data-name="Path 2749" d="M93.568,73.35H27.636A27.116,27.116,0,1,1,40.962,22.608a22.788,22.788,0,0,1,45.569.688,22.389,22.389,0,0,1-.2,3,8.714,8.714,0,0,1,12.727,7.748,8.977,8.977,0,0,1-.906,3.93A18,18,0,0,1,93.568,73.35Z" fill="#fff"/>
      </g>
      <g id="Group_2545" data-name="Group 2545" transform="translate(157.41 74.601)">
        <circle id="Ellipse_342" data-name="Ellipse 342" cx="1.467" cy="1.467" r="1.467" transform="translate(38.353 0.337)" fill="#5dbbe9"/>
        <circle id="Ellipse_343" data-name="Ellipse 343" cx="1.467" cy="1.467" r="1.467" transform="translate(32.97 0.337)" fill="#76b872"/>
        <circle id="Ellipse_344" data-name="Ellipse 344" cx="1.467" cy="1.467" r="1.467" transform="translate(27.587 0.337)" fill="#a0bd3b"/>
        <circle id="Ellipse_345" data-name="Ellipse 345" cx="1.467" cy="1.467" r="1.467" transform="translate(22.205 0.337)" fill="#ded022"/>
        <circle id="Ellipse_346" data-name="Ellipse 346" cx="1.467" cy="1.467" r="1.467" transform="translate(16.822 0.337)" fill="#fbbd14"/>
        <circle id="Ellipse_347" data-name="Ellipse 347" cx="1.467" cy="1.467" r="1.467" transform="translate(11.439 0.337)" fill="#f58420"/>
        <circle id="Ellipse_348" data-name="Ellipse 348" cx="1.467" cy="1.467" r="1.467" transform="translate(6.057 0.337)" fill="#cf252b"/>
        <circle id="Ellipse_349" data-name="Ellipse 349" cx="1.467" cy="1.467" r="1.467" transform="translate(0.674 0.337)" fill="#cf252b"/>
      </g>
    </g>
    <g id="Ellipse_362" data-name="Ellipse 362" transform="translate(121.75 420.082)" fill="#f3f3f3" stroke="#707070" stroke-width="2">
      <circle cx="4" cy="4" r="4" stroke="none"/>
      <circle cx="4" cy="4" r="3" fill="none"/>
    </g>
    <g id="Ellipse_363" data-name="Ellipse 363" transform="translate(62.75 289.082)" fill="#fff" stroke="#707070" stroke-width="2">
      <circle cx="4" cy="4" r="4" stroke="none"/>
      <circle cx="4" cy="4" r="3" fill="none"/>
    </g>
    <g id="Ellipse_366" data-name="Ellipse 366" transform="translate(62.75 187.082)" fill="#fff" stroke="#707070" stroke-width="2">
      <circle cx="4" cy="4" r="4" stroke="none"/>
      <circle cx="4" cy="4" r="3" fill="none"/>
    </g>
    <g id="Ellipse_367" data-name="Ellipse 367" transform="translate(104.75 69.082)" fill="#fff" stroke="#707070" stroke-width="2">
      <circle cx="4" cy="4" r="4" stroke="none"/>
      <circle cx="4" cy="4" r="3" fill="none"/>
    </g>
    <g id="Ellipse_364" data-name="Ellipse 364" transform="translate(284.75 289.082)" fill="none" stroke="#20df2f" stroke-width="2">
      <circle cx="4" cy="4" r="4" stroke="none"/>
      <circle cx="4" cy="4" r="3" fill="none"/>
    </g>
    <g id="Ellipse_368" data-name="Ellipse 368" transform="translate(284.75 187.082)" fill="none" stroke="#20df2f" stroke-width="2">
      <circle cx="4" cy="4" r="4" stroke="none"/>
      <circle cx="4" cy="4" r="3" fill="none"/>
    </g>
    <g id="Ellipse_369" data-name="Ellipse 369" transform="translate(240.75 69.082)" fill="none" stroke="#20df2f" stroke-width="2">
      <circle cx="4" cy="4" r="4" stroke="none"/>
      <circle cx="4" cy="4" r="3" fill="none"/>
    </g>
    <g id="Ellipse_365" data-name="Ellipse 365" transform="translate(228.75 420.082)" fill="none" stroke="#20df2f" stroke-width="2">
      <circle cx="4" cy="4" r="4" stroke="none"/>
      <circle cx="4" cy="4" r="3" fill="none"/>
    </g>
    <path id="Path_2768" data-name="Path 2768" d="M12521.383,13557.284h-45.873s-10.062,1.223-10.062-10.062v-118.811" transform="translate(-12398.25 -13132.918)" fill="none" stroke="#707070" stroke-width="2"/>
    <path id="Path_2769" data-name="Path 2769" d="M12463.494,13557.284h43.747s9.167,1.223,9.167-10.062v-118.811" transform="translate(-12227.559 -13132.918)" fill="none" stroke="#20df2f" stroke-width="2"/>
    <path id="Path_2770" data-name="Path 2770" d="M12505.31,13425.533l-31.134-.087s-8.728-1.061-8.728,8.729v106.06" transform="translate(-12399.25 -13352.739)" fill="none" stroke="#707070" stroke-linecap="round" stroke-width="2" stroke-dasharray="5"/>
    <path id="Path_2771" data-name="Path 2771" d="M12465.449,13425.533l31.858-.087s8.931-1.061,8.931,8.729v106.06" transform="translate(-12217.389 -13352.739)" fill="none" stroke="#20df2f" stroke-linecap="round" stroke-width="2"/>
  </g>
</svg>
