<svg xmlns="http://www.w3.org/2000/svg" xmlns:xlink="http://www.w3.org/1999/xlink" width="75.001" height="147.772" viewBox="0 0 75.001 147.772">
  <defs>
    <linearGradient id="linear-gradient" x1="0.5" x2="0.5" y2="1" gradientUnits="objectBoundingBox">
      <stop offset="0" stop-color="#fff" stop-opacity="0.506"/>
      <stop offset="1" stop-opacity="0.149"/>
    </linearGradient>
    <radialGradient id="radial-gradient" cx="0.265" cy="0.097" r="1.98" gradientTransform="matrix(0.439, 0.456, -1.169, 0.29, 0.262, -0.052)" gradientUnits="objectBoundingBox">
      <stop offset="0" stop-color="#fff" stop-opacity="0.302"/>
      <stop offset="1" stop-color="#d2d1d4" stop-opacity="0.302"/>
    </radialGradient>
  </defs>
  <g id="connector" transform="translate(-4 -2)">
    <path id="Path_2742" data-name="Path 2742" d="M54.23,148.882l-6.308.665-6.423.225-6.373-.222-6.308-.661-6.324-1.114-4.1-1.058-2.306-.817-2.228-1.017-2.091-1.254-1.442-1.122-1.308-1.281L7.885,139.8l-.944-1.538-.77-1.636-.6-1.7-.7-2.938-.385-3-.153-3.019-.194-11.058-.114-11.086L4,92.755l.08-11.084.13-7.923.2-7.921.273-7.9.358-7.894.46-7.9.574-7.884.7-7.842.87-7.812.492-3.13.4-1.746L9.068,12l.716-1.64.968-1.538,1.229-1.342L13.431,6.4l1.6-.845,2.239-.834,2.32-.606,2.353-.454,5.7-.83,5.736-.548,4.054-.213L41.5,2l5.763.143,5.747.43,4.03.474,4.014.615,2.85.575,1.788.48,1.749.613,1.665.8,1.518,1.024,1.31,1.272L72.964,9.9l.785,1.625.751,2.3.506,2.369.348,2.4L76.5,29.3l.86,10.759L78,50.809l.455,10.776.24,8.065.166,8.069.1,8.056L79,93.828l-.014,8.06-.063,8.05-.108,8.024-.149,8.009-.087,2.1-.188,2.094-.373,2.4-.586,2.36-.847,2.273-.836,1.611-1.02,1.513L73.538,141.7l-1.345,1.21-1.476,1.06-1.57.911-2.776,1.234-2.9.943-2.962.72Z"/>
    <path id="Path_2743" data-name="Path 2743" d="M54.23,148.882l-6.308.665-6.423.225-6.373-.222-6.308-.661-6.324-1.114-4.1-1.058-2.306-.817-2.228-1.017-2.091-1.254-1.442-1.122-1.308-1.281L7.885,139.8l-.944-1.538-.77-1.636-.6-1.7-.7-2.938-.385-3-.153-3.019-.194-11.058-.114-11.086L4,92.755l.08-11.084.13-7.923.2-7.921.273-7.9.358-7.894.46-7.9.574-7.884.7-7.842.87-7.812.492-3.13.4-1.746L9.068,12l.716-1.64.968-1.538,1.229-1.342L13.431,6.4l1.6-.845,2.239-.834,2.32-.606,2.353-.454,5.7-.83,5.736-.548,4.054-.213L41.5,2l5.763.143,5.747.43,4.03.474,4.014.615,2.85.575,1.788.48,1.749.613,1.665.8,1.518,1.024,1.31,1.272L72.964,9.9l.785,1.625.751,2.3.506,2.369.348,2.4L76.5,29.3l.86,10.759L78,50.809l.455,10.776.24,8.065.166,8.069.1,8.056L79,93.828l-.014,8.06-.063,8.05-.108,8.024-.149,8.009-.087,2.1-.188,2.094-.373,2.4-.586,2.36-.847,2.273-.836,1.611-1.02,1.513L73.538,141.7l-1.345,1.21-1.476,1.06-1.57.911-2.776,1.234-2.9.943-2.962.72Z" fill="#fff"/>
    <path id="Path_2744" data-name="Path 2744" d="M54.23,148.882l-6.308.665-6.423.225-6.373-.222-6.308-.661-6.324-1.114-4.1-1.058-2.306-.817-2.228-1.017-2.091-1.254-1.442-1.122-1.308-1.281L7.885,139.8l-.944-1.538-.77-1.636-.6-1.7-.7-2.938-.385-3-.153-3.019-.194-11.058-.114-11.086L4,92.755l.08-11.084.13-7.923.2-7.921.273-7.9.358-7.894.46-7.9.574-7.884.7-7.842.87-7.812.492-3.13.4-1.746L9.068,12l.716-1.64.968-1.538,1.229-1.342L13.431,6.4l1.6-.845,2.239-.834,2.32-.606,2.353-.454,5.7-.83,5.736-.548,4.054-.213L41.5,2l5.763.143,5.747.43,4.03.474,4.014.615,2.85.575,1.788.48,1.749.613,1.665.8,1.518,1.024,1.31,1.272L72.964,9.9l.785,1.625.751,2.3.506,2.369.348,2.4L76.5,29.3l.86,10.759L78,50.809l.455,10.776.24,8.065.166,8.069.1,8.056L79,93.828l-.014,8.06-.063,8.05-.108,8.024-.149,8.009-.087,2.1-.188,2.094-.373,2.4-.586,2.36-.847,2.273-.836,1.611-1.02,1.513L73.538,141.7l-1.345,1.21-1.476,1.06-1.57.911-2.776,1.234-2.9.943-2.962.72Z" fill="url(#linear-gradient)"/>
    <path id="Path_2745" data-name="Path 2745" d="M54.23,148.882l-6.308.665-6.423.225-6.373-.222-6.308-.661-6.324-1.114-4.1-1.058-2.306-.817-2.228-1.017-2.091-1.254-1.442-1.122-1.308-1.281L7.885,139.8l-.944-1.538-.77-1.636-.6-1.7-.7-2.938-.385-3-.153-3.019-.194-11.058-.114-11.086L4,92.755l.08-11.084.13-7.923.2-7.921.273-7.9.358-7.894.46-7.9.574-7.884.7-7.842.87-7.812.492-3.13.4-1.746L9.068,12l.716-1.64.968-1.538,1.229-1.342L13.431,6.4l1.6-.845,2.239-.834,2.32-.606,2.353-.454,5.7-.83,5.736-.548,4.054-.213L41.5,2l5.763.143,5.747.43,4.03.474,4.014.615,2.85.575,1.788.48,1.749.613,1.665.8,1.518,1.024,1.31,1.272L72.964,9.9l.785,1.625.751,2.3.506,2.369.348,2.4L76.5,29.3l.86,10.759L78,50.809l.455,10.776.24,8.065.166,8.069.1,8.056L79,93.828l-.014,8.06-.063,8.05-.108,8.024-.149,8.009-.087,2.1-.188,2.094-.373,2.4-.586,2.36-.847,2.273-.836,1.611-1.02,1.513L73.538,141.7l-1.345,1.21-1.476,1.06-1.57.911-2.776,1.234-2.9.943-2.962.72Z" fill="url(#radial-gradient)"/>
  </g>
</svg>
