<svg id="Layer_1" data-name="Layer 1" xmlns="http://www.w3.org/2000/svg" width="162.187" height="205.85" viewBox="0 0 162.187 205.85">
  <path id="Path_9948" data-name="Path 9948" d="M35.327,0,0,35.327V205.311H162.187V0Z" fill="#a700be"/>
  <path id="Path_9949" data-name="Path 9949" d="M42.456,56.7,161.8,61.744l.032,174.663H.07V74.115l40.21-5.7Z" transform="translate(-0.038 -30.557)" fill="#fff"/>
  <path id="Path_9950" data-name="Path 9950" d="M161.762,0H36.692V31.911c0,3.467-1.254,4.726-4.7,4.731H0v132.48H161.762Zm-27.24,158.148H27.259c-4.219,0-5.293-1.074-5.293-5.3V52.756c0-3.914,1.148-5.072,5.072-5.072h107.49c4.219,0,5.293,1.07,5.293,5.293v99.877c0,4.233-1.075,5.294-5.3,5.294Z" fill="#7d158a"/>
  <path id="Path_9951" data-name="Path 9951" d="M.07,383.17v29.181H161.832V383.17Zm62.3,18.185H55.26v-7.064h7.11Zm14.777-.037H70.024V394.24h7.124Zm14.722.078h-7.1V394.25h7.1Zm14.727,0H99.5v-7.137h7.1Z" transform="translate(-0.038 -206.501)" fill="#7d158a"/>
  <path id="Path_9952" data-name="Path 9952" d="M64,218.2H166.819V159.56H64Zm38.656-50.9c1.664-.922,3.089-.272,4.5.613q13.92,8.71,27.839,17.4c3.38,2.13,3.393,5.072.028,7.193q-13.994,8.8-28.038,17.521c-3.467,2.149-6.284.572-6.312-3.495-.037-5.9,0-11.794,0-17.691v-17.23c-.046-1.789.231-3.366,1.964-4.316Z" transform="translate(-34.491 -85.991)" fill="#7d158a"/>
  <path id="Path_9953" data-name="Path 9953" d="M74.731,119.65H63.9v10.789H74.731Z" transform="translate(-34.438 -64.483)" fill="#7d158a"/>
  <path id="Path_9954" data-name="Path 9954" d="M114.674,119.69H103.88v10.748h10.794Z" transform="translate(-55.984 -64.504)" fill="#7d158a"/>
  <path id="Path_9955" data-name="Path 9955" d="M154.525,119.62H143.75v10.817h10.775Z" transform="translate(-77.471 -64.467)" fill="#7d158a"/>
  <path id="Path_9956" data-name="Path 9956" d="M194.461,119.74H183.63v10.789h10.831Z" transform="translate(-98.963 -64.531)" fill="#7d158a"/>
  <path id="Path_9957" data-name="Path 9957" d="M234.4,119.79H223.62v10.743H234.4Z" transform="translate(-120.515 -64.558)" fill="#7d158a"/>
  <path id="Path_9958" data-name="Path 9958" d="M274.362,119.78H263.55v10.752h10.812Z" transform="translate(-142.035 -64.553)" fill="#7d158a"/>
  <path id="Path_9959" data-name="Path 9959" d="M64,314.119H74.734V303.27H64Z" transform="translate(-34.491 -163.441)" fill="#7d158a"/>
  <path id="Path_9960" data-name="Path 9960" d="M104,314.12h10.72V303.28H104Z" transform="translate(-56.049 -163.446)" fill="#7d158a"/>
  <path id="Path_9961" data-name="Path 9961" d="M143.78,314.12h10.743V303.34H143.78Z" transform="translate(-77.487 -163.479)" fill="#7d158a"/>
  <path id="Path_9962" data-name="Path 9962" d="M183.77,314.193h10.844V303.51H183.77Z" transform="translate(-99.039 -163.57)" fill="#7d158a"/>
  <path id="Path_9963" data-name="Path 9963" d="M223.74,314.144h10.752V303.3H223.74Z" transform="translate(-120.58 -163.457)" fill="#7d158a"/>
  <path id="Path_9964" data-name="Path 9964" d="M263.53,314.127H274.3V303.37H263.53Z" transform="translate(-142.024 -163.495)" fill="#7d158a"/>
  <path id="Path_9965" data-name="Path 9965" d="M154.32,220.379V186.44l27.157,16.96Z" transform="translate(-83.167 -100.478)" fill="#7d158a"/>
</svg>
