<svg xmlns="http://www.w3.org/2000/svg" width="25.476" height="25.476" viewBox="0 0 25.476 25.476">
  <path id="Path_3147" data-name="Path 3147" d="M23.9,18.082H22.331v3.137l-4.1-4.148a4.064,4.064,0,0,0-5.618-5.557L8.635,7.534l3.031-.055V5.905H5.939v5.837H7.508V8.655L11.5,12.64a3.933,3.933,0,0,0,.449,5.157,4.014,4.014,0,0,0,5.163.449l4.1,4.1-3.031.055V23.97l4.941-.055H23.9V18.082Zm-6.626-3.143a2.662,2.662,0,0,1-.729,1.737,2.534,2.534,0,0,1-3.534,0,2.463,2.463,0,0,1,0-3.477,2.542,2.542,0,0,1,3.534,0,2.683,2.683,0,0,1,.729,1.74Z" transform="translate(-8.375 12.726) rotate(-45)" fill="#fff"/>
</svg>
