<svg xmlns="http://www.w3.org/2000/svg" width="26.335" height="26.335" viewBox="0 0 26.335 26.335">
  <g id="bridge" transform="translate(-13.75 -13.75)">
    <path id="Path_3117" data-name="Path 3117" d="M36.453,13.75H17.382a3.637,3.637,0,0,0-3.632,3.632v19.07a3.637,3.637,0,0,0,3.632,3.632h19.07a3.637,3.637,0,0,0,3.632-3.632V17.382A3.637,3.637,0,0,0,36.453,13.75Zm2.179,22.7a2.182,2.182,0,0,1-2.179,2.179H17.382A2.182,2.182,0,0,1,15.2,36.453V17.382A2.182,2.182,0,0,1,17.382,15.2h19.07a2.182,2.182,0,0,1,2.179,2.179Z" fill="#35c900"/>
    <g id="layer1" transform="translate(14.979 -1006.333)">
      <path id="rect6820-8" d="M4.619,7a.331.331,0,0,0-.331.331L3.048,11.8A.331.331,0,0,0,3,11.966v6.621a.331.331,0,0,0,.331.331H20.546a.331.331,0,0,0,.331-.331V11.966a.331.331,0,0,0-.044-.166l-1.2-4.469A.331.331,0,0,0,19.3,7Zm.331.662H18.97l1.161,3.973L3.72,11.6ZM3.662,12.3H20.214v5.959H3.662Zm.993.662a.331.331,0,0,0-.331.331v1.324a.331.331,0,0,0,.331.331H5.979a.331.331,0,0,0,.331-.331V13.29a.331.331,0,0,0-.331-.331Zm2.648,0a.331.331,0,0,0-.331.331v1.324a.331.331,0,0,0,.331.331H8.628a.331.331,0,0,0,.331-.331V13.29a.331.331,0,0,0-.331-.331Zm2.648,0a.331.331,0,0,0-.331.331v1.324a.331.331,0,0,0,.331.331h1.324a.331.331,0,0,0,.331-.331V13.29a.331.331,0,0,0-.331-.331Zm2.648,0a.331.331,0,0,0-.331.331v1.324a.331.331,0,0,0,.331.331h1.324a.331.331,0,0,0,.331-.331V13.29a.331.331,0,0,0-.331-.331Zm-7.614.662h.662v.662H4.986Zm2.648,0H8.3v.662H7.635Zm2.648,0h.662v.662h-.662Zm2.648,0h.662v.662h-.662Zm2.317,0a.331.331,0,1,0,.331.331A.331.331,0,0,0,15.249,13.621Zm.993,0v3.31H16.9v-3.31Zm1.324,0v3.31h.662v-3.31Zm1.324,0v3.31h.662v-3.31Zm-3.642,1.324a.331.331,0,1,0,.331.331A.331.331,0,0,0,15.249,14.945Zm-10.594.662a.331.331,0,0,0-.331.331v1.324a.331.331,0,0,0,.331.331H5.979a.331.331,0,0,0,.331-.331V15.938a.331.331,0,0,0-.331-.331Zm2.648,0a.331.331,0,0,0-.331.331v1.324a.331.331,0,0,0,.331.331H8.628a.331.331,0,0,0,.331-.331V15.938a.331.331,0,0,0-.331-.331Zm2.648,0a.331.331,0,0,0-.331.331v1.324a.331.331,0,0,0,.331.331h1.324a.331.331,0,0,0,.331-.331V15.938a.331.331,0,0,0-.331-.331Zm2.648,0a.331.331,0,0,0-.331.331v1.324a.331.331,0,0,0,.331.331h1.324a.331.331,0,0,0,.331-.331V15.938a.331.331,0,0,0-.331-.331Zm-7.614.662h.662v.662H4.986Zm2.648,0H8.3v.662H7.635Zm2.648,0h.662v.662h-.662Zm2.648,0h.662v.662h-.662Zm2.317,0a.331.331,0,1,0,.331.331A.331.331,0,0,0,15.249,16.269Z" transform="translate(0 1020.362)" fill="#35c900"/>
    </g>
  </g>
</svg>
