<svg xmlns="http://www.w3.org/2000/svg" width="9.217" height="7.68" viewBox="0 0 9.217 7.68">
  <g id="Group_3182" data-name="Group 3182" transform="translate(9.217 7.68) rotate(180)">
    <path id="Path_3119" data-name="Path 3119" d="M8.7,5.12a.465.465,0,0,1-.358-.154L4.608,1.229.87,4.967a.5.5,0,0,1-.717,0,.5.5,0,0,1,0-.717l4.1-4.1A.4.4,0,0,1,4.608,0h0a.465.465,0,0,1,.358.154l4.1,4.1a.5.5,0,0,1,0,.717A.465.465,0,0,1,8.7,5.12Z" transform="translate(0 2.56)" fill="#3693ff"/>
    <path id="Path_3120" data-name="Path 3120" d="M8.7,5.12a.465.465,0,0,1-.358-.154L4.608,1.229.87,4.967a.5.5,0,0,1-.717,0,.5.5,0,0,1,0-.717l4.1-4.1A.4.4,0,0,1,4.608,0h0a.465.465,0,0,1,.358.154l4.1,4.1a.5.5,0,0,1,0,.717A.465.465,0,0,1,8.7,5.12Z" transform="translate(0)" fill="#3693ff"/>
  </g>
</svg>
