<svg xmlns="http://www.w3.org/2000/svg" width="26.335" height="26.335" viewBox="0 0 26.335 26.335">
  <g id="VLAN" transform="translate(-13.75 -13.75)">
    <path id="Path_3117" data-name="Path 3117" d="M36.453,13.75H17.382a3.637,3.637,0,0,0-3.632,3.632v19.07a3.637,3.637,0,0,0,3.632,3.632h19.07a3.637,3.637,0,0,0,3.632-3.632V17.382A3.637,3.637,0,0,0,36.453,13.75Zm2.179,22.7a2.182,2.182,0,0,1-2.179,2.179H17.382A2.182,2.182,0,0,1,15.2,36.453V17.382A2.182,2.182,0,0,1,17.382,15.2h19.07a2.182,2.182,0,0,1,2.179,2.179Z" fill="#35c900"/>
    <path id="Path_3131" data-name="Path 3131" d="M3,4V9.511H6.788V10.2H5.058v.689H9.185V10.2H7.477V9.511h3.788V4ZM16.776,6.755a.689.689,0,1,0,.689.689A.684.684,0,0,0,16.776,6.755ZM11.955,7.1v.689h3.432V7.1Zm4.477,1.7v3.466h.689V8.8ZM6.788,11.577v3.466h.689V11.577Zm5.855,1.378v5.511h3.788v.689H14.71v.689h4.133v-.689H17.121v-.689h3.788V12.955ZM7.133,15.708a.689.689,0,1,0,.689.689A.684.684,0,0,0,7.133,15.708Zm1.39.346v.689h3.432v-.689Z" transform="translate(14.963 14.929)" fill="#35c900"/>
  </g>
</svg>
