<svg xmlns="http://www.w3.org/2000/svg" width="332.339" height="261.803" viewBox="0 0 332.339 261.803">
  <g id="Page_not_found" data-name="Page not found" transform="translate(-56.11 -115.237)">
    <g id="freepik--Shadow--inject-11" transform="translate(56.11 358.062)">
      <ellipse id="freepik--path--inject-11" cx="162.527" cy="9.489" rx="162.527" ry="9.489" fill="#f5f5f5"/>
    </g>
    <g id="freepik--character-1--inject-11" transform="translate(66.652 132.894)">
      <path id="Path_10206" data-name="Path 10206" d="M137.268,144.331c-6.756,6.8,4.728,17.352-2.858,22.2,6.195,3.11,27.905,7.058,33.53-5.172-4.1-3.185-1.249-11.015-5.029-18.534C157.252,131.673,130.512,136.61,137.268,144.331Z" transform="translate(-79.318 -136.302)" fill="#263238"/>
      <path id="Path_10207" data-name="Path 10207" d="M137.422,145.665c-2.1-.352-9.221,3.185-3.923,12.683,4.267,7.678.713,8.223.713,8.223s4.191.117,1.676-5.591C133.223,154.886,131.974,148.566,137.422,145.665Z" transform="translate(-78.859 -137.812)" fill="#263238"/>
      <path id="Path_10208" data-name="Path 10208" d="M192.393,212.49a2.062,2.062,0,0,0-2.766-.838l-.495.26c-.159.084-.461.285-.7.427s-.528.3-.8.436a13.023,13.023,0,0,1-1.635.687,10.293,10.293,0,0,1-3.227.612,8.86,8.86,0,0,1-2.976-.478,10.7,10.7,0,0,1-1.752-.838c-.721-1.593-1.408-3.2-2-4.862-.713-1.936-1.341-3.915-1.894-5.918s-1.039-4.032-1.442-6.069c-.21-1.014-.394-2.037-.562-3.051l-.226-1.517c-.075-.486-.142-1.039-.184-1.425v-.168a4.212,4.212,0,0,0-8.382.838c.059.712.109,1.257.184,1.853s.159,1.165.243,1.744c.184,1.157.394,2.3.629,3.437a64.441,64.441,0,0,0,1.76,6.706c.327,1.107.729,2.2,1.106,3.294s.838,2.171,1.316,3.236a60.659,60.659,0,0,0,3.11,6.278l.1.184a3.261,3.261,0,0,0,1.3,1.291,16.982,16.982,0,0,0,5.071,1.794,14.107,14.107,0,0,0,5.5-.117,14.5,14.5,0,0,0,6.781-3.68,6.906,6.906,0,0,0,.838-.889c.235-.31.52-.6.838-1.039a2.062,2.062,0,0,0,.26-2.188Z" transform="translate(-83.996 -144.333)" fill="#ff8b7b"/>
      <path id="Path_10209" data-name="Path 10209" d="M203.013,208.25h-.243a5.222,5.222,0,0,0-4.191,1.961l-4.049,5.08v3.47c3.252,1.291,7.377-2.188,7.377-2.188l2.087-.528a2.925,2.925,0,0,0,2.188-3.252l-.3-2.037A2.917,2.917,0,0,0,203.013,208.25Z" transform="translate(-89.042 -147.939)" fill="#ff8b7b"/>
      <path id="Path_10210" data-name="Path 10210" d="M171.168,184.574c2.708,2.783,2.875,11.09,2.875,11.09l-10.83,8.718s-4.451-12.322-1.987-16.673C163.314,184.021,167.715,181.028,171.168,184.574Z" transform="translate(-83.535 -143.853)" fill="#407bff"/>
      <g id="Group_5040" data-name="Group 5040" transform="translate(76.948 39.134)" opacity="0.2">
        <path id="Path_10211" data-name="Path 10211" d="M171.168,184.574c2.708,2.783,2.875,11.09,2.875,11.09l-10.83,8.718s-4.451-12.322-1.987-16.673C163.314,184.021,167.715,181.028,171.168,184.574Z" transform="translate(-160.483 -182.987)" fill="#fff"/>
      </g>
      <path id="Path_10212" data-name="Path 10212" d="M151.85,404.53l5.985.654.821-16.262-5.985-.662Z" transform="translate(-82.139 -177.057)" fill="#ff8b7b"/>
      <path id="Path_10213" data-name="Path 10213" d="M158.6,403.79h-7.033a.545.545,0,0,0-.562.511l-.469,6.647a1.333,1.333,0,0,0,1.3,1.333h16.689c3.068,0,3.076-3.11,1.752-3.395-5.96-1.257-8.282-3-10.386-4.661A2.1,2.1,0,0,0,158.6,403.79Z" transform="translate(-81.927 -179.569)" fill="#263238"/>
      <path id="Path_10214" data-name="Path 10214" d="M158.726,388.932l-.427,8.382H152.28l.461-9.045Z" transform="translate(-82.208 -177.059)" opacity="0.2"/>
      <path id="Path_10215" data-name="Path 10215" d="M159.786,233.752s5.18,43.362,5.18,62.642c-4.082,26.824-7.544,73.9-7.544,73.9l-8.282-.218s-3.764-51.267-.277-73.405c-4.468-19.833-9.983-65.6-9.983-65.6Z" transform="translate(-80.041 -151.631)" fill="#263238"/>
      <path id="Path_10216" data-name="Path 10216" d="M144.217,248.67a24.735,24.735,0,0,0-2.867,1.492c1.14,8.558,2.64,19.33,4.233,29.271C148.3,271.252,146.832,253.264,144.217,248.67Z" transform="translate(-80.44 -154.478)" opacity="0.2"/>
      <path id="Path_10217" data-name="Path 10217" d="M74.53,386.981l4.937,3.445,8.517-13.881L83.047,373.1Z" transform="translate(-69.632 -174.605)" fill="#ff8b7b"/>
      <path id="Path_10218" data-name="Path 10218" d="M79.771,390.467l-4.191-5.641a.536.536,0,0,0-.738-.143l-5.616,3.6a1.324,1.324,0,0,0-.293,1.836c1.752,2.389,1.785,2.406,3.99,5.373,1.366,1.819,4.091,5.482,5.968,8.005s4.334.612,3.764-.629c-2.515-5.524-2.515-8.382-2.464-11.1a2.129,2.129,0,0,0-.419-1.308Z" transform="translate(-68.686 -176.464)" fill="#263238"/>
      <path id="Path_10219" data-name="Path 10219" d="M88.7,376.545,84.319,383.7,79.03,380.82l4.744-7.72Z" transform="translate(-70.359 -174.605)" opacity="0.2"/>
      <path id="Path_10220" data-name="Path 10220" d="M108.083,378.2c-4.283,0-13.2,0-13.353-6.3-.117-4.946,6-7,11.283-7.251a4.46,4.46,0,0,1,4.669,4.242v.335c5.985-.285,9.858-1.593,11.274-3.822,3.194-5.029-2.925-18.014-8.835-30.562-6.957-14.762-14.837-31.484-14.988-47.5a4.459,4.459,0,0,1,4.418-4.5h0a4.468,4.468,0,0,1,4.459,4.418c.134,14.066,7.544,29.85,14.133,43.782,7.544,16.078,14.124,29.967,8.3,39.146C126.063,375.573,119.064,378.2,108.083,378.2Z" transform="translate(-72.899 -160.003)" fill="#407bff"/>
      <path id="Path_10221" data-name="Path 10221" d="M143.477,232.7s-14.3,49.557-21.283,67.529c-13.529,23.521-35.977,59.515-35.977,59.515l-7.167-4.191s16.765-41.577,28.039-60.94c3.026-20.118,14.468-64.763,14.468-64.763Z" transform="translate(-70.363 -151.434)" fill="#263238"/>
      <path id="Path_10222" data-name="Path 10222" d="M83.227,395.977a2.389,2.389,0,0,0,1.241,1.014.838.838,0,0,0,.838-.277.587.587,0,0,0,.184-.511c-.1-1.006-2.7-2.314-3.219-2.565a.134.134,0,0,0-.168.059.193.193,0,0,0,0,.21,12.387,12.387,0,0,0,1.123,2.07Zm1.785,0a.7.7,0,0,1,.143.319.2.2,0,0,1-.067.176.578.578,0,0,1-.553.184c-.553-.109-1.283-1.006-1.987-2.423a8.835,8.835,0,0,1,2.464,1.71Z" transform="translate(-70.852 -177.926)" fill="#407bff"/>
      <path id="Path_10223" data-name="Path 10223" d="M82.053,393.759l.05.042c.838.461,3.018.838,3.5.143a.729.729,0,0,0-.042-.838c-.838-1.484-3.353.26-3.462.335a.2.2,0,0,0-.075.168.277.277,0,0,0,.034.151Zm3.185-.486a.841.841,0,0,1,.067.092c.092.159.109.277.059.344-.277.4-1.886.26-2.825-.109C83.168,393.222,84.635,392.46,85.239,393.273Z" transform="translate(-70.843 -177.745)" fill="#407bff"/>
      <path id="Path_10224" data-name="Path 10224" d="M164.512,405.091a2.423,2.423,0,0,0,1.559-.394.838.838,0,0,0,.26-.838.629.629,0,0,0-.3-.461c-.838-.511-3.462.788-3.973,1.056a.143.143,0,0,0-.067.168.226.226,0,0,0,.159.142A11.675,11.675,0,0,0,164.512,405.091Zm1.039-1.45a.637.637,0,0,1,.344.075c.042,0,.084.059.1.159a.57.57,0,0,1-.184.553c-.411.377-1.568.428-3.127.151a8.734,8.734,0,0,1,2.825-.939Z" transform="translate(-83.777 -179.487)" fill="#407bff"/>
      <path id="Path_10225" data-name="Path 10225" d="M162.14,404.489h.059c.838-.386,2.473-1.92,2.2-2.716a.729.729,0,0,0-.671-.444c-1.676-.193-1.794,2.842-1.8,2.967a.188.188,0,0,0,.21.193Zm1.509-2.85h.117c.176,0,.285.075.31.159.159.461-.914,1.677-1.777,2.2.075-.729.344-2.364,1.366-2.364Z" transform="translate(-83.769 -179.17)" fill="#407bff"/>
      <path id="Path_10226" data-name="Path 10226" d="M129.76,221.506l28.551,3.655c6.438-21.677,8.559-32.147,9.128-37.185a5.474,5.474,0,0,0-3.789-5.868c-1.676-.536-3.839-1.174-5.985-1.676-.729-.193-1.475-.369-2.2-.536A91.435,91.435,0,0,0,142.5,178.22c-.645-.059-1.283-.092-1.928-.126-1.266-.067-2.515-.084-3.655-.084a6.161,6.161,0,0,0-6.144,6.706c.226,2.515.4,4.853.536,7,.319,5.029.419,9.053.344,12.574a108.437,108.437,0,0,1-1.894,17.218Z" transform="translate(-78.565 -143.048)" fill="#407bff"/>
      <g id="Group_5041" data-name="Group 5041" transform="translate(51.195 34.962)" opacity="0.3">
        <path id="Path_10227" data-name="Path 10227" d="M129.76,221.506l28.551,3.655c6.438-21.677,8.559-32.147,9.128-37.185a5.474,5.474,0,0,0-3.789-5.868c-1.676-.536-3.839-1.174-5.985-1.676-.729-.193-1.475-.369-2.2-.536A91.435,91.435,0,0,0,142.5,178.22c-.645-.059-1.283-.092-1.928-.126-1.266-.067-2.515-.084-3.655-.084a6.161,6.161,0,0,0-6.144,6.706c.226,2.515.4,4.853.536,7,.319,5.029.419,9.053.344,12.574a108.437,108.437,0,0,1-1.894,17.218Z" transform="translate(-129.76 -178.01)" fill="#fff"/>
      </g>
      <path id="Path_10228" data-name="Path 10228" d="M131.934,206.708c3.772-4.879,5.138-10.461,3.915-13.538l-4.258.956C131.934,199.138,132.026,203.179,131.934,206.708Z" transform="translate(-78.861 -145.5)" fill="#407bff" opacity="0.3"/>
      <path id="Path_10229" data-name="Path 10229" d="M159.537,180.381c-.738-.193-1.475-.369-2.2-.536a92.752,92.752,0,0,0-12.968-1.676c-.645-.05-1.283-.084-1.92-.117L141.33,178l.838,1.467c.117.2,2.967,4.862,10.059,9.875l1.517,1.056,1.459-1.115a11.014,11.014,0,0,0,4.594-8.827Z" transform="translate(-80.437 -143.047)" fill="#fff"/>
      <path id="Path_10230" data-name="Path 10230" d="M148.1,167.506c-.268,3.529-1.1,7.125-3.152,8.634,0,0,2.615,4.35,9.388,9.1a8.3,8.3,0,0,0,3.579-7.444c-4.51-1.676-4.191-4.8-2.288-9.791l-3.521-1.894a2.305,2.305,0,0,0-4.007,1.391Z" transform="translate(-81.022 -141.002)" fill="#ff8b7b"/>
      <path id="Path_10231" data-name="Path 10231" d="M152.725,166.114a2.305,2.305,0,0,0-3.965,1.073,14.25,14.25,0,0,0,6.161,6.3,15.264,15.264,0,0,1,1.316-5.474Z" transform="translate(-81.639 -141.001)" opacity="0.2"/>
      <path id="Path_10232" data-name="Path 10232" d="M142.1,152.381c1.752,6.815,2.347,9.732,6.513,12.574,6.262,4.309,14.25.671,14.56-6.522.293-6.48-2.615-16.539-9.891-17.98A9.6,9.6,0,0,0,142.1,152.381Z" transform="translate(-80.507 -136.941)" fill="#ff8b7b"/>
      <path id="Path_10233" data-name="Path 10233" d="M159.008,141.662a36.8,36.8,0,0,1-14.25,7.854s5.206,11.073-4.535,8.282c-2.825-9.43,0-14.326,2.515-16.631C150.483,138.652,155.931,137.814,159.008,141.662Z" transform="translate(-80.067 -136.742)" fill="#263238"/>
      <path id="Path_10234" data-name="Path 10234" d="M141.729,162.079a5.147,5.147,0,0,0,2.884,2.666c1.676.6,2.674-.838,2.314-2.515-.327-1.5-1.6-3.63-3.353-3.521a2.305,2.305,0,0,0-1.844,3.37Z" transform="translate(-80.459 -139.925)" fill="#ff8b7b"/>
      <path id="Path_10235" data-name="Path 10235" d="M129.191,227.808l-1.618,2.389c-.126.184.084.419.411.461l29.942,3.839c.26,0,.486-.067.528-.226l.587-2.515c0-.176-.168-.352-.444-.394l-28.919-3.705a.5.5,0,0,0-.486.151Z" transform="translate(-78.206 -151.077)" fill="#407bff"/>
      <path id="Path_10236" data-name="Path 10236" d="M133.445,231.57l-.771-.1c-.151,0-.26-.117-.235-.21l.788-3.278a.277.277,0,0,1,.319-.134l.78.1c.151,0,.26.109.235.21l-.788,3.269C133.747,231.528,133.6,231.587,133.445,231.57Z" transform="translate(-78.998 -151.108)" fill="#263238"/>
      <path id="Path_10237" data-name="Path 10237" d="M160.955,235.091l-.771-.092c-.151,0-.26-.117-.235-.218l.788-3.269c0-.092.168-.159.319-.143l.78.1c.151,0,.26.117.235.21l-.788,3.278C161.257,235.049,161.114,235.116,160.955,235.091Z" transform="translate(-83.448 -151.679)" fill="#263238"/>
      <path id="Path_10238" data-name="Path 10238" d="M147.2,233.331l-.771-.1c-.159,0-.268-.109-.243-.21l.788-3.269c0-.1.168-.159.327-.143l.771.1c.151,0,.26.117.243.21l-.8,3.278C147.505,233.289,147.354,233.348,147.2,233.331Z" transform="translate(-81.222 -151.394)" fill="#263238"/>
      <path id="Path_10247" data-name="Path 10247" d="M103.249,283.383a4.459,4.459,0,0,1-4.459-4.418c-.117-11.9,3.848-21.953,11.467-29.062,9.38-8.751,24.007-12.817,41.208-11.459,12.062.956,19.8-1.978,28.752-5.39,1.475-.553,2.959-1.123,4.485-1.677a4.46,4.46,0,0,1,3.051,8.382c-1.484.536-2.925,1.09-4.359,1.635-9.128,3.47-18.559,7.05-32.633,5.943-14.669-1.165-26.891,2.062-34.418,9.087-5.868,5.432-8.726,12.984-8.634,22.457a4.459,4.459,0,0,1-4.418,4.5Z" transform="translate(-73.555 -151.637)" fill="#407bff"/>
      <path id="Path_10248" data-name="Path 10248" d="M0,0H19.1a6.01,6.01,0,0,1,6.01,6.01V27.545a6.01,6.01,0,0,1-6.01,6.01H0V0Z" transform="translate(132.827 94.421) rotate(159.88)" fill="#407bff"/>
      <path id="Path_10249" data-name="Path 10249" d="M0,0H19.1a6.01,6.01,0,0,1,6.01,6.01V27.545a6.01,6.01,0,0,1-6.01,6.01H0V0Z" transform="translate(132.827 94.421) rotate(159.88)" fill="#fff" opacity="0.7"/>
      <path id="Path_10250" data-name="Path 10250" d="M203.835,214.275l8.005-2.925,11.534,31.5-8.005,2.934a4.836,4.836,0,0,1-1.19-1.844L204.12,216.455A4.778,4.778,0,0,1,203.835,214.275Z" transform="translate(-90.543 -148.441)" fill="#407bff" opacity="0.2"/>
      <rect id="Rectangle_4680" data-name="Rectangle 4680" width="0.838" height="5.583" transform="translate(138.487 71.042) rotate(-20.12)" fill="#407bff"/>
      <path id="Path_10251" data-name="Path 10251" d="M229.178,214.645l-2.825-7.729a6.84,6.84,0,0,0-6.413-4.468,6.706,6.706,0,0,0-2.33.411l-5.1,1.869-.293-.788,5.1-1.869a7.544,7.544,0,0,1,2.615-.461,7.7,7.7,0,0,1,7.2,5.029l2.825,7.729Z" transform="translate(-91.904 -146.866)" fill="#407bff"/>
      <rect id="Rectangle_4681" data-name="Rectangle 4681" width="17.385" height="39.305" rx="5.62" transform="matrix(-0.94, 0.34, -0.34, -0.94, 144.88, 92.368)" fill="#407bff"/>
      <path id="Path_10252" data-name="Path 10252" d="M221.259,217.551a2.515,2.515,0,1,1-3.219-1.5,2.515,2.515,0,0,1,3.219,1.5Z" transform="translate(-92.577 -149.177)" fill="#263238"/>
      <path id="Path_10253" data-name="Path 10253" d="M228.729,237.941a2.515,2.515,0,1,1-1.3-1.419,2.515,2.515,0,0,1,1.3,1.419Z" transform="translate(-93.785 -152.475)" fill="#263238"/>
      <path id="Path_10254" data-name="Path 10254" d="M138.164,227.187l-.067-.075c-1.308-1.308-2.691-2.733-3.94-4.191s-2.473-2.917-3.588-4.426a41.414,41.414,0,0,1-2.976-4.619,24.076,24.076,0,0,1-1.618-3.579c.5-1.676,1.039-3.353,1.676-4.962.729-1.936,1.551-3.839,2.448-5.717s1.853-3.722,2.884-5.524c.5-.905,1.031-1.8,1.576-2.682l.838-1.291c.26-.419.57-.838.788-1.2l.092-.134a4.191,4.191,0,0,0-6.84-4.837c-.419.57-.738,1.023-1.073,1.517s-.637.989-.956,1.484c-.612.989-1.207,1.987-1.777,3a66.22,66.22,0,0,0-3.076,6.237c-.469,1.056-.838,2.138-1.316,3.219a27.406,27.406,0,0,0-1.132,3.3,61.885,61.885,0,0,0-1.752,6.781v.193a3.353,3.353,0,0,0,.126,1.836,27.478,27.478,0,0,0,3.21,6.069,40.42,40.42,0,0,0,4.141,5.029,51.723,51.723,0,0,0,4.686,4.233,49.852,49.852,0,0,0,5.172,3.613,2.079,2.079,0,0,0,2.515-3.269Z" transform="translate(-76.709 -143.742)" fill="#ff8b7b"/>
      <path id="Path_10255" data-name="Path 10255" d="M151.064,239.979l-.109-.218a5.2,5.2,0,0,0-3.663-2.85l-6.362-1.291-3.11,1.551c.335,3.487,5.314,5.574,5.314,5.574l1.417,1.618a2.934,2.934,0,0,0,3.889.461l1.676-1.2A2.917,2.917,0,0,0,151.064,239.979Z" transform="translate(-79.869 -152.367)" fill="#ff8b7b"/>
      <path id="Path_10256" data-name="Path 10256" d="M133.784,178.548c-3.529,1.618-7.284,7.217-7.284,7.217l7.544,14.124s8.575-9.883,7.854-14.829C141.312,180.862,138.277,176.486,133.784,178.548Z" transform="translate(-78.038 -143.05)" fill="#407bff"/>
      <g id="Group_5042" data-name="Group 5042" transform="translate(48.462 34.972)" opacity="0.3">
        <path id="Path_10257" data-name="Path 10257" d="M133.784,178.548c-3.529,1.618-7.284,7.217-7.284,7.217l7.544,14.124s8.575-9.883,7.854-14.829C141.312,180.862,138.277,176.486,133.784,178.548Z" transform="translate(-126.5 -178.022)" fill="#fff"/>
      </g>
    </g>
    <g id="freepik--character-2--inject-11" transform="translate(238.15 115.237)">
      <path id="Path_10258" data-name="Path 10258" d="M408.651,359.39c-7.385,0-14.644-1.517-18.165-6.111-16.664-21.794-16.513-65.635-16.371-108.058.084-22.842,1.886-44.427-.654-61.192-1.492-9.883-6.706-16.664-11.97-20.168-7.812-5.164-18.542-2.389-23.127-1.207a4.459,4.459,0,1,1-2.23-8.635c5.725-1.483,19.154-4.945,30.269,2.4,7.5,4.954,13.99,13.8,15.876,26.279,2.64,17.435.838,39.339.754,62.525-.143,40.931-.285,83.254,14.535,102.609,1.2,1.559,5.868,2.959,13.621,2.557.687,0,1.358-.075,2.02-.134a4.376,4.376,0,0,1-.453-1.953,4.46,4.46,0,0,1,4.46-4.459c9.749,0,14.879.838,15.868,5.3.285,1.283.436,4.5-4.275,6.706C425.29,357.5,416.891,359.39,408.651,359.39Z" transform="translate(-282.904 -121.167)" fill="#407bff"/>
      <path id="Path_10259" data-name="Path 10259" d="M305.115,400.287l-9.095-3.579,4.795-15.767,9.1,3.571Z" transform="translate(-276.957 -158.216)" fill="#ffc3bd"/>
      <path id="Path_10260" data-name="Path 10260" d="M293.414,398.575l10.26,4.024a.629.629,0,0,1,.386.671l-1.006,6.387a1.048,1.048,0,0,1-1.425.8c-2.573-1.065-6.605-2.825-9.866-4.107-2-.788-5.817-2.045-8.592-3.135s-2.054-3.973-.838-3.772c5.524.889,7.636-.059,9.841-.88A1.677,1.677,0,0,1,293.414,398.575Z" transform="translate(-274.568 -161.048)" fill="#263238"/>
      <path id="Path_10261" data-name="Path 10261" d="M310.366,384.519l-9.1-3.579-2.473,8.131,9.1,3.579Z" transform="translate(-277.405 -158.216)" opacity="0.2"/>
      <path id="Path_10262" data-name="Path 10262" d="M321.489,239.61s-8.232,40.688-11.375,60.756c-3.537,22.49-12.884,63.572-12.884,63.572l12.1,4.753s17.276-42.063,19.682-62.432c7.251-16.555,21.669-65.274,21.669-65.274Z" transform="translate(-277.152 -135.355)" fill="#407bff"/>
      <path id="Path_10263" data-name="Path 10263" d="M296.53,387.054l13.278,5.222,2.272-4.024L297.234,382.1Z" transform="translate(-277.039 -158.404)" fill="#263238"/>
      <path id="Path_10264" data-name="Path 10264" d="M292.408,398.4a2.171,2.171,0,0,1-1.14-.838,1.04,1.04,0,0,1,0-.956.52.52,0,0,1,.436-.335c.88-.092,2.515,2.054,2.674,2.305a.17.17,0,0,1-.168.26A8.534,8.534,0,0,1,292.408,398.4Zm-.444-1.752a.419.419,0,0,0-.218-.042c-.05,0-.109,0-.168.143a.671.671,0,0,0,0,.654,3.348,3.348,0,0,0,2.3,1.039,6.588,6.588,0,0,0-1.911-1.794Z" transform="translate(-276.169 -160.695)" fill="#407bff"/>
      <path id="Path_10265" data-name="Path 10265" d="M294.579,398.628a.134.134,0,0,1-.067-.05c-.536-.637-1.291-2.607-.838-3.286a.553.553,0,0,1,.662-.21.922.922,0,0,1,.587.461c.52.93-.067,2.892-.092,2.976a.176.176,0,0,1-.134.117.117.117,0,0,1-.117-.008Zm-.285-3.2h-.067c-.218-.05-.268,0-.293.075-.251.4.159,1.827.637,2.607a4.04,4.04,0,0,0,0-2.381A.587.587,0,0,0,294.294,395.426Z" transform="translate(-276.555 -160.497)" fill="#407bff"/>
      <path id="Path_10266" data-name="Path 10266" d="M346.115,269c-4.56,5.65-6.362,20.051-6.346,32.054,3.076-8.475,6.605-19.238,9.707-29.012Z" transform="translate(-284.033 -140.109)" opacity="0.2"/>
      <path id="Path_10267" data-name="Path 10267" d="M370.033,402.66h-9.774l-1.3-16.43h9.774Z" transform="translate(-287.137 -159.072)" fill="#ffc3bd"/>
      <path id="Path_10268" data-name="Path 10268" d="M357.8,404.85h11.023a.612.612,0,0,1,.6.486l1.4,6.3a1.048,1.048,0,0,1-1.039,1.266c-2.783-.05-7.167-.218-10.671-.218-2.163,0-6.169.226-9.145.226s-3.353-2.942-2.154-3.21c5.474-1.2,7.1-2.842,8.843-4.418A1.727,1.727,0,0,1,357.8,404.85Z" transform="translate(-285.232 -162.084)" fill="#263238"/>
      <path id="Path_10269" data-name="Path 10269" d="M368.732,386.23H358.95l.679,8.475h9.782Z" transform="translate(-287.136 -159.072)" opacity="0.2"/>
      <path id="Path_10270" data-name="Path 10270" d="M340.29,240.22s5.415,45.341,6.555,61.661c1.584,22.716,7.712,67.562,7.712,67.562H367.55s1.391-45.8-.956-66.179c3.236-17.779,2.213-61.678,2.213-61.678Z" transform="translate(-284.118 -135.454)" fill="#407bff"/>
      <path id="Path_10271" data-name="Path 10271" d="M356.467,393.77h14.267l.645-4.568-16.069-.3Z" transform="translate(-286.547 -159.504)" fill="#263238"/>
      <path id="Path_10272" data-name="Path 10272" d="M356.667,405.833a2.163,2.163,0,0,1-1.366-.36,1.048,1.048,0,0,1-.352-.889.537.537,0,0,1,.293-.478c.788-.4,3.076,1.006,3.353,1.165a.168.168,0,0,1,.084.168.193.193,0,0,1-.134.143A8.38,8.38,0,0,1,356.667,405.833Zm-1.056-1.467a.444.444,0,0,0-.218.042c-.042,0-.092.067-.1.193a.671.671,0,0,0,.226.612,3.4,3.4,0,0,0,2.515.126,6.773,6.773,0,0,0-2.4-.972Z" transform="translate(-286.488 -161.952)" fill="#407bff"/>
      <path id="Path_10273" data-name="Path 10273" d="M358.8,405.264h-.084c-.729-.4-2.154-1.953-2-2.749a.545.545,0,0,1,.536-.436.9.9,0,0,1,.712.21c.838.679,1,2.724,1.006,2.808a.184.184,0,0,1-.075.159A.193.193,0,0,1,358.8,405.264Zm-1.433-2.875h-.075c-.218,0-.235.134-.243.176-.092.461.838,1.676,1.542,2.2a4.074,4.074,0,0,0-.838-2.23.629.629,0,0,0-.386-.142Z" transform="translate(-286.771 -161.634)" fill="#407bff"/>
      <path id="Path_10274" data-name="Path 10274" d="M337.844,163.344h0l-7.829-.1c-2.632,0-5.247-.084-7.838-.126-.788,0-1.559-.05-2.339-.084.05,0,.084-.092.126-.134.553-.587,1.107-1.19,1.677-1.769q.428-.453.838-.88c.26-.285.6-.6.771-.838l.712-.905a4.334,4.334,0,0,0-4.543-6.857l-1.551.419c-.478.143-.956.3-1.433.461-.939.327-1.861.687-2.775,1.081a41.148,41.148,0,0,0-5.323,2.833,38.252,38.252,0,0,0-4.988,3.8A33.042,33.042,0,0,0,298.9,165.2a7.6,7.6,0,0,0-.838,1.442,7.343,7.343,0,0,0,3.789,9.665l.763.335a32.153,32.153,0,0,0,5.331,1.76c1.593.411,3.1.679,4.585.93s2.934.453,4.376.629,2.867.31,4.292.428c2.842.251,5.658.377,8.466.461s5.558.084,8.475-.05a8.735,8.735,0,0,0-.285-17.461Z" transform="translate(-277.187 -121.103)" fill="#ffc3bd"/>
      <path id="Path_10275" data-name="Path 10275" d="M346.633,180.724c-6.765,7.712-23.043,4.828-23.043,4.828l.9-19.213a84.659,84.659,0,0,1,16.983-1.97C351.026,164.353,352.048,174.538,346.633,180.724Z" transform="translate(-281.416 -123.184)" fill="#263238"/>
      <path id="Path_10276" data-name="Path 10276" d="M328.656,174.818c-.4,3.1-.838,7.276-1.1,12.892-3.529,17.855-4.845,30.5-1.727,39.733,2.464,3.043,34.578,2.456,40.353,1.869,3.353-8.3,3.705-32.122,4.1-52.147a11.543,11.543,0,0,0-9.6-11.585,77.529,77.529,0,0,0-21.895-.738,11.534,11.534,0,0,0-10.134,9.975Z" transform="translate(-281.495 -123.188)" fill="#263238"/>
      <path id="Path_10277" data-name="Path 10277" d="M366.71,191.37c.109,6.1,4.535,15.851,9.514,20.8.3-5.155.495-10.746.645-16.388Z" transform="translate(-288.391 -127.552)" opacity="0.2"/>
      <path id="Path_10278" data-name="Path 10278" d="M393.324,199.481l-.285-.671a63.7,63.7,0,0,0-4.1-8.106c-1.492-2.515-3.1-4.887-4.77-7.175s-3.437-4.476-5.247-6.605c-.922-1.056-1.836-2.112-2.8-3.135l-1.45-1.526L373.13,170.7a8.735,8.735,0,0,0-12.641,12.046l.251.277,4.921,5.474c1.676,1.861,3.278,3.755,4.87,5.641.771.947,1.568,1.894,2.288,2.858s1.484,1.894,2.2,2.85c1.039,1.45,2.045,2.892,2.942,4.309a21.529,21.529,0,0,1-.52,2.121,60.917,60.917,0,0,1-2.121,5.985c-.838,2.07-1.727,4.191-2.649,6.278s-1.911,4.267-2.791,6.362l-.084.184a4.409,4.409,0,0,0,7.041,4.954,69.57,69.57,0,0,0,5.256-5.432,67.054,67.054,0,0,0,4.719-5.952c.746-1.048,1.459-2.138,2.163-3.269a37.888,37.888,0,0,0,2-3.563,33.325,33.325,0,0,0,1.76-4.124,18.77,18.77,0,0,0,1.073-5.625,6.279,6.279,0,0,0-.495-2.6Z" transform="translate(-287.024 -123.801)" fill="#ffc3bd"/>
      <path id="Path_10279" data-name="Path 10279" d="M366.563,165.915c11.308,1.936,18.676,17.243,18.676,17.243l-13.63,14.661s-7.854-8-12.574-15.407C353.947,174.348,358.465,164.54,366.563,165.915Z" transform="translate(-286.802 -123.413)" fill="#263238"/>
      <path id="Path_10280" data-name="Path 10280" d="M343.308,133.605c-1.894-3.177-2.515-7.544.956-12a3.521,3.521,0,0,1-3.454-1.676,20.78,20.78,0,0,1,13.487-4.694c10.143,0,10.9,3.915,10.553,6.589,6.941.444,12,18.492-5.591,21.685C349.192,132.91,343.308,133.605,343.308,133.605Z" transform="translate(-284.202 -115.237)" fill="#263238"/>
      <path id="Path_10281" data-name="Path 10281" d="M368.6,122.261s2.825-2.884-.687-6.371a4.728,4.728,0,0,1,3.3,3.286C371.707,121.2,370.341,122.831,368.6,122.261Z" transform="translate(-288.585 -115.343)" fill="#263238"/>
      <path id="Path_10282" data-name="Path 10282" d="M360.971,146.34c-.268,5.558-.771,11.878.159,16.312-1.442,2.272-5.13,4.887-11.735,5.474-2.347-1.333-5.449-4.594-4.367-6.27,2.808-1.8,4-7.259,3.194-11.341Z" transform="translate(-284.848 -120.268)" fill="#ffc3bd"/>
      <path id="Path_10283" data-name="Path 10283" d="M358.408,147.59l-9.548,3.127a14.978,14.978,0,0,1,.042,5.264,12.816,12.816,0,0,0,8.282-4.25,5.3,5.3,0,0,0,1.224-4.141Z" transform="translate(-285.504 -120.47)" opacity="0.2"/>
      <path id="Path_10284" data-name="Path 10284" d="M363.332,133.5c-1.769,6.815-2.456,10.9-6.63,13.756-6.278,4.3-14.175-.52-14.485-7.72-.268-6.488,2.666-16.547,9.958-17.98A9.606,9.606,0,0,1,363.332,133.5Z" transform="translate(-284.426 -116.228)" fill="#ffc3bd"/>
      <path id="Path_10285" data-name="Path 10285" d="M365.035,124.2c-2.993,2.129-6.706,11.149.838,14.77C372.646,133.018,370.894,124.2,365.035,124.2Z" transform="translate(-287.537 -116.687)" fill="#263238"/>
      <path id="Path_10286" data-name="Path 10286" d="M364.213,124.323c1.283-5.935-13.7-9-18.441-2.07C344.162,126.427,363.308,130.116,364.213,124.323Z" transform="translate(-284.989 -115.729)" fill="#263238"/>
      <path id="Path_10288" data-name="Path 10288" d="M368,143.735a6.706,6.706,0,0,1-4.661,2.1c-2.347.05-2.942-2.188-1.811-4.1,1.023-1.676,3.47-3.822,5.6-2.967S369.479,142.134,368,143.735Z" transform="translate(-287.464 -119.012)" fill="#ffc3bd"/>
      <path id="Path_10294" data-name="Path 10294" d="M375.461,235.55l-7.2-.05,3.722,8.265s6.144-1.316,5.809-4.652Z" transform="translate(-288.642 -134.69)" fill="#ffc3bd"/>
      <path id="Path_10295" data-name="Path 10295" d="M363.831,241.175l1.182,2.33a2.8,2.8,0,0,0,3.529,1.324l2.674-1.065-3.722-8.265-2.858,2.179A2.791,2.791,0,0,0,363.831,241.175Z" transform="translate(-287.876 -134.69)" fill="#ffc3bd"/>
      <path id="Path_10296" data-name="Path 10296" d="M310.607,216.333a4.468,4.468,0,0,1-3.194-7.544c3.2-3.3,6.094-5.868,8.642-8.106,6.153-5.423,8.273-7.544,8.072-11.61a40.839,40.839,0,0,0-1.593-7.393c-1.836-6.748-3.915-14.384-.352-20.512,1.911-3.294,5.155-5.549,9.648-6.706a4.459,4.459,0,1,1,2.23,8.635c-3.16.837-3.923,2.12-4.191,2.556-1.676,2.892-.059,8.877,1.249,13.68a46.563,46.563,0,0,1,1.894,9.3c.419,8.592-4.652,13.068-11.082,18.735-2.423,2.146-5.18,4.577-8.148,7.628a4.434,4.434,0,0,1-3.177,1.333Z" transform="translate(-278.601 -121.559)" fill="#407bff"/>
      <path id="Path_10297" data-name="Path 10297" d="M322.86,151.555l6.974-1.785-1.626,8.919s-6.278.193-6.748-3.118Z" transform="translate(-281.072 -120.823)" fill="#ffc3bd"/>
      <path id="Path_10298" data-name="Path 10298" d="M336.032,154.5l-.536,2.33a2.925,2.925,0,0,1-3.252,2.238l-2.733-.377,1.626-8.919,3.2,1.383A2.925,2.925,0,0,1,336.032,154.5Z" transform="translate(-282.374 -120.823)" fill="#ffc3bd"/>
      <rect id="Rectangle_4682" data-name="Rectangle 4682" width="4.61" height="39.305" rx="2.305" transform="translate(27.788 78.382) rotate(44.99)" fill="#263238"/>
      <rect id="Rectangle_4683" data-name="Rectangle 4683" width="4.61" height="39.305" rx="2.305" transform="translate(40.671 91.25) rotate(45)" fill="#263238"/>
      <path id="Path_10299" data-name="Path 10299" d="M0,0H24.636a6.01,6.01,0,0,1,6.01,6.01V27.545a6.01,6.01,0,0,1-6.01,6.01H0Z" transform="translate(9.335 89.312) rotate(-45)" fill="#407bff"/>
      <path id="Path_10300" data-name="Path 10300" d="M0,0H24.636a6.01,6.01,0,0,1,6.01,6.01V27.545a6.01,6.01,0,0,1-6.01,6.01H0Z" transform="translate(9.335 89.312) rotate(-45)" fill="#fff" opacity="0.7"/>
      <path id="Path_10301" data-name="Path 10301" d="M290.415,214.56l-6.035,6.027,23.731,23.731,6.027-6.035a4.811,4.811,0,0,0-1.165-1.861l-20.7-20.654A4.811,4.811,0,0,0,290.415,214.56Z" transform="translate(-275.074 -131.303)" fill="#407bff" opacity="0.2"/>
      <rect id="Rectangle_4684" data-name="Rectangle 4684" width="10.034" height="39.305" rx="5.017" transform="translate(4.526 90.008) rotate(-45)" fill="#407bff"/>
    </g>
  </g>
</svg>
