<svg id="Group_5036" data-name="Group 5036" xmlns="http://www.w3.org/2000/svg" width="316.841" height="162.743" viewBox="0 0 316.841 162.743">
  <ellipse id="Ellipse_948" data-name="Ellipse 948" cx="158.42" cy="6.422" rx="158.42" ry="6.422" transform="translate(0 149.898)" fill="#e6e6e6"/>
  <path id="Path_10116" data-name="Path 10116" d="M959.127,675.244c0-.046.007-.092.007-.138a6.76,6.76,0,0,0-13.494-.354c-.022,0-.043,0-.065,0a6.453,6.453,0,0,0,9.975,8.1,4.278,4.278,0,1,0,3.577-7.6Z" transform="translate(-870.907 -525.073)" fill="#e6e6e6"/>
  <path id="Path_10100" data-name="Path 10100" d="M710.184,383.772H672.568a2.007,2.007,0,0,0-2,2.009V445.2h41.629V385.781a2.008,2.008,0,0,0-2.01-2.009ZM691.5,417.535a4.463,4.463,0,0,1-4.442-4.442V406.24a4.442,4.442,0,0,1,8.883,0v6.854a4.462,4.462,0,0,1-4.442,4.442Z" transform="translate(-540.892 -291.038)" fill="#004595"/>
  <path id="Path_10101" data-name="Path 10101" d="M670.341,486.513v5.733a1.123,1.123,0,0,0,1.121,1.121h39.646a1.126,1.126,0,0,0,1.12-1.121v-5.733Z" transform="translate(-540.798 -334.249)" fill="#3f3d56"/>
  <path id="Path_10112" data-name="Path 10112" d="M725.948,223.726H565.155a5.22,5.22,0,0,0-5.211,5.211v108.5a5.216,5.216,0,0,0,5.211,5.211H725.948a5.216,5.216,0,0,0,5.212-5.211v-108.5A5.22,5.22,0,0,0,725.948,223.726Z" transform="translate(-494.368 -223.726)" fill="#004595"/>
  <path id="Path_10113" data-name="Path 10113" d="M721.731,230.223H569.136a2.7,2.7,0,0,0-2.69,2.7V335.044a2.7,2.7,0,0,0,2.69,2.69H721.731a2.694,2.694,0,0,0,2.69-2.69V232.918a2.7,2.7,0,0,0-2.69-2.7Z" transform="translate(-494.315 -224.517)" fill="#fff"/>
  <path id="Path_10114" data-name="Path 10114" d="M721.442,494.241H627.377a1.73,1.73,0,0,1-1.693-2.087l1.459-6.932a1.738,1.738,0,0,1,1.693-1.374h91.146a1.738,1.738,0,0,1,1.693,1.374l1.459,6.932a1.73,1.73,0,0,1-1.693,2.087Z" transform="translate(-522.001 -333.128)" fill="#002c60"/>
  <rect id="Rectangle_4636" data-name="Rectangle 4636" width="2.897" height="1.738" rx="0.488" transform="translate(107.503 151.969)" fill="#004595"/>
  <rect id="Rectangle_4637" data-name="Rectangle 4637" width="2.897" height="1.738" rx="0.488" transform="translate(113.298 151.969)" fill="#004595"/>
  <rect id="Rectangle_4638" data-name="Rectangle 4638" width="2.897" height="1.738" rx="0.488" transform="translate(119.092 151.969)" fill="#004595"/>
  <rect id="Rectangle_4639" data-name="Rectangle 4639" width="2.897" height="1.738" rx="0.488" transform="translate(124.886 151.969)" fill="#004595"/>
  <rect id="Rectangle_4640" data-name="Rectangle 4640" width="2.897" height="1.738" rx="0.488" transform="translate(130.68 151.969)" fill="#004595"/>
  <rect id="Rectangle_4641" data-name="Rectangle 4641" width="2.897" height="1.738" rx="0.488" transform="translate(136.475 151.969)" fill="#004595"/>
  <rect id="Rectangle_4642" data-name="Rectangle 4642" width="2.897" height="1.738" rx="0.488" transform="translate(142.269 151.969)" fill="#004595"/>
  <rect id="Rectangle_4643" data-name="Rectangle 4643" width="2.897" height="1.738" rx="0.488" transform="translate(148.063 151.969)" fill="#004595"/>
  <rect id="Rectangle_4644" data-name="Rectangle 4644" width="2.897" height="1.738" rx="0.488" transform="translate(153.857 151.969)" fill="#004595"/>
  <rect id="Rectangle_4645" data-name="Rectangle 4645" width="2.897" height="1.738" rx="0.488" transform="translate(159.652 151.969)" fill="#004595"/>
  <rect id="Rectangle_4646" data-name="Rectangle 4646" width="2.897" height="1.738" rx="0.488" transform="translate(165.446 151.969)" fill="#004595"/>
  <rect id="Rectangle_4647" data-name="Rectangle 4647" width="2.897" height="1.738" rx="0.488" transform="translate(171.24 151.969)" fill="#004595"/>
  <rect id="Rectangle_4648" data-name="Rectangle 4648" width="2.897" height="1.738" rx="0.488" transform="translate(177.034 151.969)" fill="#004595"/>
  <rect id="Rectangle_4649" data-name="Rectangle 4649" width="2.897" height="1.738" rx="0.488" transform="translate(182.828 151.969)" fill="#004595"/>
  <rect id="Rectangle_4650" data-name="Rectangle 4650" width="2.897" height="1.738" rx="0.488" transform="translate(188.623 151.969)" fill="#004595"/>
  <rect id="Rectangle_4651" data-name="Rectangle 4651" width="2.897" height="1.738" rx="0.488" transform="translate(194.417 151.969)" fill="#004595"/>
  <rect id="Rectangle_4652" data-name="Rectangle 4652" width="2.897" height="1.738" rx="0.488" transform="translate(107.435 154.866)" fill="#004595"/>
  <rect id="Rectangle_4653" data-name="Rectangle 4653" width="2.897" height="1.738" rx="0.488" transform="translate(113.229 154.866)" fill="#004595"/>
  <rect id="Rectangle_4654" data-name="Rectangle 4654" width="2.897" height="1.738" rx="0.488" transform="translate(119.023 154.866)" fill="#004595"/>
  <rect id="Rectangle_4655" data-name="Rectangle 4655" width="2.897" height="1.738" rx="0.488" transform="translate(124.818 154.866)" fill="#004595"/>
  <rect id="Rectangle_4656" data-name="Rectangle 4656" width="2.897" height="1.738" rx="0.488" transform="translate(130.612 154.866)" fill="#004595"/>
  <rect id="Rectangle_4657" data-name="Rectangle 4657" width="2.897" height="1.738" rx="0.488" transform="translate(136.406 154.866)" fill="#004595"/>
  <rect id="Rectangle_4658" data-name="Rectangle 4658" width="2.897" height="1.738" rx="0.488" transform="translate(142.2 154.866)" fill="#004595"/>
  <rect id="Rectangle_4659" data-name="Rectangle 4659" width="2.897" height="1.738" rx="0.488" transform="translate(147.995 154.866)" fill="#004595"/>
  <rect id="Rectangle_4660" data-name="Rectangle 4660" width="2.897" height="1.738" rx="0.488" transform="translate(153.789 154.866)" fill="#004595"/>
  <rect id="Rectangle_4661" data-name="Rectangle 4661" width="2.897" height="1.738" rx="0.488" transform="translate(159.583 154.866)" fill="#004595"/>
  <rect id="Rectangle_4662" data-name="Rectangle 4662" width="2.897" height="1.738" rx="0.488" transform="translate(165.377 154.866)" fill="#004595"/>
  <rect id="Rectangle_4663" data-name="Rectangle 4663" width="2.897" height="1.738" rx="0.488" transform="translate(171.172 154.866)" fill="#004595"/>
  <rect id="Rectangle_4664" data-name="Rectangle 4664" width="2.897" height="1.738" rx="0.488" transform="translate(176.966 154.866)" fill="#004595"/>
  <rect id="Rectangle_4665" data-name="Rectangle 4665" width="2.897" height="1.738" rx="0.488" transform="translate(182.76 154.866)" fill="#004595"/>
  <rect id="Rectangle_4666" data-name="Rectangle 4666" width="2.897" height="1.738" rx="0.488" transform="translate(188.554 154.866)" fill="#004595"/>
  <rect id="Rectangle_4667" data-name="Rectangle 4667" width="2.897" height="1.738" rx="0.488" transform="translate(194.349 154.866)" fill="#004595"/>
  <rect id="Rectangle_4668" data-name="Rectangle 4668" width="23.177" height="1.738" rx="0.488" transform="translate(135.247 158.342)" fill="#004595"/>
  <rect id="Rectangle_4670" data-name="Rectangle 4670" width="67.668" height="92.143" rx="1" transform="translate(80.91 13.414)" fill="#e6e6e6"/>
  <rect id="Rectangle_4671" data-name="Rectangle 4671" width="63.336" height="92.145" rx="1" transform="translate(157.446 13.414)" fill="#e6e6e6"/>
  <path id="Path_3285" data-name="Path 3285" d="M10.338.955a2.363,2.363,0,0,1,1.555.443c.078.026.155.114.233.14.251.16.528.287.777.443.052.013.1.089.155.1.126.07.268.158.389.209.078.026.155.114.233.14,1.393.867,2.882,1.659,4.275,2.526.717.446,2.014,1.141,2.215,1.594a16.392,16.392,0,0,1,.156,3.459c-1.5.868-3.032,1.736-4.547,2.6V9.2a.223.223,0,0,0-.03-.124.7.7,0,0,0-.2-.187c-.049-.035-2.31-1.434-2.954-1.835-.16-.1-.345-.2-.505-.3a4.484,4.484,0,0,0-1.555-.753,1.038,1.038,0,0,0-.583.169c-.161.1-4.2,2.526-4.275,2.59a.518.518,0,0,0-.233.311c0,1.244-.14,4.1-.14,5.328a.612.612,0,0,0,.218.5c.71.528,4.1,2.471,4.353,2.628.074.041.131.087.2.132a.8.8,0,0,0,.495.116A1.971,1.971,0,0,0,11.3,17.5c.159-.1,9.464-5.563,10.078-5.745a2.076,2.076,0,0,1,1.632.427c.052.013,6.879,3.938,6.957,3.964a4.078,4.078,0,0,1,1.244.933,5.06,5.06,0,0,1,.311,2.565v7.268a3.076,3.076,0,0,1-.039.855,2.486,2.486,0,0,1-1.244,1.36c-.078.026-6.111,3.506-6.189,3.557a4.541,4.541,0,0,1-2.283,1.077,2.088,2.088,0,0,1-1.322-.49c-.289-.181-.6-.359-.894-.529-1.717-.995-3.619-1.935-5.3-2.982-.718-.447-1.714-.858-2.084-1.643a12.51,12.51,0,0,1-.155-3.459c1.516-.868,3.043-1.736,4.547-2.6V25.6a.293.293,0,0,0,.037.151.733.733,0,0,0,.2.16c.052.013,3.188,1.944,3.348,2.044a4.544,4.544,0,0,0,1.666.715.961.961,0,0,0,.5-.154c.161-.1,4.281-2.579,4.358-2.6a.418.418,0,0,0,.233-.311c0-1.232.05-5.763-.078-5.83-.118-.183-4.5-2.666-4.576-2.691a.838.838,0,0,0-.51-.184,1.8,1.8,0,0,0-.689.284c-.182.1-.315.173-.475.273-.509.317-7.915,4.615-7.991,4.665-.608.377-1.646,1.157-2.665.724a6.8,6.8,0,0,1-.84-.466c-.16-.1-4.688-2.615-5.751-3.284-.826-.513-1.927-.921-2.324-1.846A5.886,5.886,0,0,1,.816,15.3V8.222a3.2,3.2,0,0,1,.272-1.74,2.409,2.409,0,0,1,.738-.661c.078-.026.155-.115.233-.14.4-.25.841-.527,1.244-.777.08-.05.146-.083.233-.14C5.109,3.788,6.784,2.9,8.355,1.926c.16-.1.345-.2.505-.3a7.907,7.907,0,0,1,.933-.52A1.725,1.725,0,0,1,10.338.955Z" transform="translate(99.362 41.357)" fill="#0d9eff" fill-rule="evenodd"/>
  <path id="Path_10115" data-name="Path 10115" d="M10.338.955a2.363,2.363,0,0,1,1.555.443c.078.026.155.114.233.14.251.16.528.287.777.443.052.013.1.089.155.1.126.07.268.158.389.209.078.026.155.114.233.14,1.393.867,2.882,1.659,4.275,2.526.717.446,2.014,1.141,2.215,1.594a16.392,16.392,0,0,1,.156,3.459c-1.5.868-3.032,1.736-4.547,2.6V9.2a.223.223,0,0,0-.03-.124.7.7,0,0,0-.2-.187c-.049-.035-2.31-1.434-2.954-1.835-.16-.1-.345-.2-.505-.3a4.484,4.484,0,0,0-1.555-.753,1.038,1.038,0,0,0-.583.169c-.161.1-4.2,2.526-4.275,2.59a.518.518,0,0,0-.233.311c0,1.244-.14,4.1-.14,5.328a.612.612,0,0,0,.218.5c.71.528,4.1,2.471,4.353,2.628.074.041.131.087.2.132a.8.8,0,0,0,.495.116A1.971,1.971,0,0,0,11.3,17.5c.159-.1,9.464-5.563,10.078-5.745a2.076,2.076,0,0,1,1.632.427c.052.013,6.879,3.938,6.957,3.964a4.078,4.078,0,0,1,1.244.933,5.06,5.06,0,0,1,.311,2.565v7.268a3.076,3.076,0,0,1-.039.855,2.486,2.486,0,0,1-1.244,1.36c-.078.026-6.111,3.506-6.189,3.557a4.541,4.541,0,0,1-2.283,1.077,2.088,2.088,0,0,1-1.322-.49c-.289-.181-.6-.359-.894-.529-1.717-.995-3.619-1.935-5.3-2.982-.718-.447-1.714-.858-2.084-1.643a12.51,12.51,0,0,1-.155-3.459c1.516-.868,3.043-1.736,4.547-2.6V25.6a.293.293,0,0,0,.037.151.733.733,0,0,0,.2.16c.052.013,3.188,1.944,3.348,2.044a4.544,4.544,0,0,0,1.666.715.961.961,0,0,0,.5-.154c.161-.1,4.281-2.579,4.358-2.6a.418.418,0,0,0,.233-.311c0-1.232.05-5.763-.078-5.83-.118-.183-4.5-2.666-4.576-2.691a.838.838,0,0,0-.51-.184,1.8,1.8,0,0,0-.689.284c-.182.1-.315.173-.475.273-.509.317-7.915,4.615-7.991,4.665-.608.377-1.646,1.157-2.665.724a6.8,6.8,0,0,1-.84-.466c-.16-.1-4.688-2.615-5.751-3.284-.826-.513-1.927-.921-2.324-1.846A5.886,5.886,0,0,1,.816,15.3V8.222a3.2,3.2,0,0,1,.272-1.74,2.409,2.409,0,0,1,.738-.661c.078-.026.155-.115.233-.14.4-.25.841-.527,1.244-.777.08-.05.146-.083.233-.14C5.109,3.788,6.784,2.9,8.355,1.926c.16-.1.345-.2.505-.3a7.907,7.907,0,0,1,.933-.52A1.725,1.725,0,0,1,10.338.955Z" transform="translate(172.688 41.357)" fill="#0d9eff" fill-rule="evenodd"/>
</svg>
