<svg xmlns="http://www.w3.org/2000/svg" width="153.117" height="170.162" viewBox="0 0 153.117 170.162">
  <g id="_8" data-name="8" transform="translate(-3 -2)">
    <path id="Path_10302" data-name="Path 10302" d="M88.065,19.523v-.51h17.013a8.506,8.506,0,0,0,0-17.013H54.039a8.506,8.506,0,0,0,0,17.013H71.052v.51a76.557,76.557,0,1,0,17.013,0Zm-8.506,138.59c-32.885,0-62.544-29.659-62.544-62.544S46.673,33.025,79.558,33.025,142.1,62.684,142.1,95.569s-29.659,62.544-62.544,62.544Z" transform="translate(0 0)" fill="#989898"/>
    <path id="Path_10303" data-name="Path 10303" d="M45.734,9.128,13.677,33.17,12.3,34.552a7.005,7.005,0,1,0,11.192,8.429L47.53,10.924a1.27,1.27,0,0,0-1.8-1.8Z" transform="translate(37.886 112.099) rotate(-90)" fill="#989898"/>
    <path id="Path_3740" data-name="Path 3740" d="M34.9,7.837A4.39,4.39,0,0,0,32.095,2.3a47.061,47.061,0,0,0-29.067,0,4.39,4.39,0,1,0,2.727,8.346,38.237,38.237,0,0,1,23.618,0,4.39,4.39,0,0,0,5.536-2.81Z" transform="translate(39.359 54.518) rotate(-27)" fill="#ff2d2d"/>
  </g>
</svg>
