<svg id="Group_278" data-name="Group 278" xmlns="http://www.w3.org/2000/svg" xmlns:xlink="http://www.w3.org/1999/xlink" width="199.011" height="198.977" viewBox="0 0 199.011 198.977">
  <defs>
    <clipPath id="clip-path">
      <rect id="Rectangle_197" data-name="Rectangle 197" width="199.011" height="198.977" fill="none"/>
    </clipPath>
  </defs>
  <g id="Group_277" data-name="Group 277" clip-path="url(#clip-path)">
    <path id="Path_855" data-name="Path 855" d="M0,99.322A99.57,99.57,0,0,1,99.668,0c55.13.066,99.421,44.768,99.343,100.264-.076,54.2-44.981,98.768-99.469,98.713A99.562,99.562,0,0,1,0,99.322M68.184,79.193,35.2,46.16a83.157,83.157,0,0,0,7.5,114.795c33.17,30.734,81.012,27.811,110.075,2.8L137.127,148.4c1.725-2.942,3.594-5.288,4.528-7.961s.922-5.655,1.372-8.832L164,152.78c25.6-29.993,27.771-80.273-6.1-113.256-33.891-33-83.6-29.045-112.024-3.968a27.935,27.935,0,0,1,2.782,2.137q10.508,10.342,20.932,20.77c.476.477,1.017,1.5.816,1.948-2.6,5.842-3.078,11.931-2.224,18.783" transform="translate(0 0)" fill="#d94242"/>
    <path id="Path_856" data-name="Path 856" d="M197.931,287.539a145.365,145.365,0,0,1-29.525-2.506c-3.81-.68-6.08-3.34-5.686-7,.673-6.236,1.348-12.483,2.387-18.665,1.162-6.921,5.153-12.04,11.091-15.71a2.323,2.323,0,0,1,2.741.039c11.074,6.241,22.157,6.332,33.251-.035a2.756,2.756,0,0,1,2.314-.031c6.167,3.513,10.077,8.658,10.987,15.833q1.146,9.032,2.214,18.074c.462,3.889-1.6,6.874-5.594,7.456-8.018,1.169-16.074,2.086-24.114,3.107q-.033-.283-.067-.567" transform="translate(-95.924 -143.426)" fill="#0d9eff"/>
    <path id="Path_857" data-name="Path 857" d="M190.463,147.716a21.352,21.352,0,1,1,21.121,21.529,21.27,21.27,0,0,1-21.121-21.529" transform="translate(-112.308 -74.623)" fill="#0d9eff"/>
  </g>
</svg>
