<svg id="Group_13666" data-name="Group 13666" xmlns="http://www.w3.org/2000/svg" xmlns:xlink="http://www.w3.org/1999/xlink" width="710.474" height="384.883" viewBox="0 0 710.474 384.883">
  <defs>
    <clipPath id="clip-path">
      <rect id="Rectangle_7556" data-name="Rectangle 7556" width="710.474" height="384.883" fill="none"/>
    </clipPath>
    <clipPath id="clip-path-2">
      <rect id="Rectangle_7555" data-name="Rectangle 7555" width="710.474" height="384.882" fill="none"/>
    </clipPath>
    <clipPath id="clip-path-3">
      <rect id="Rectangle_7554" data-name="Rectangle 7554" width="74.079" height="20.545" fill="none"/>
    </clipPath>
    <clipPath id="clip-path-4">
      <rect id="Rectangle_7559" data-name="Rectangle 7559" width="79.167" height="79.167" fill="none"/>
    </clipPath>
    <clipPath id="clip-path-6">
      <rect id="Rectangle_7557" data-name="Rectangle 7557" width="67.531" height="69.002" fill="none"/>
    </clipPath>
  </defs>
  <g id="Group_13665" data-name="Group 13665" clip-path="url(#clip-path)">
    <g id="Group_13664" data-name="Group 13664" transform="translate(0 0.001)">
      <g id="Group_13663" data-name="Group 13663" clip-path="url(#clip-path-2)">
        <path id="Path_11141" data-name="Path 11141" d="M1698.489,1178.859h-28.848c-1.546-1.311,1.07-4.289,3.8-4.49a16.866,16.866,0,0,1,4.4.521c.4-5.273,2.664-28.975,11.208-28.022,9.606,1.066,0,10.438-2.716,15.987a131.822,131.822,0,0,0-5.1,12.785c.78.169,1.587.334,2.412.486,1.274-3.909,6.011-17.06,12.036-16.294,7.074.9,4.23,6.17-.783,9.3-3.679,2.3-8.2,5.573-10.342,7.153a30.647,30.647,0,0,0,5.642.452c4.942-.117,7.353,1.339,8.288,2.122" transform="translate(-1158.923 -796.259)" fill="#a8d29f"/>
        <path id="Path_11142" data-name="Path 11142" d="M928.851,619.727l-15.215,180.91s-1.594,10.966,6.563,10.986c13.412.032,66.756,0,66.756,0s-10.094-2.283-9.972-7.419c.144-6.054,17.783-186.189,17.783-186.189Z" transform="translate(-634.256 -429.093)" fill="#7599ea"/>
        <path id="Path_11143" data-name="Path 11143" d="M1001.935,800.958c-2.638.008-54.282.1-67.343-.072-5.692-.071-6.69-5.061-6.737-8.291a16.176,16.176,0,0,1,.173-2.693l.4-4.7,1.008-11.984.891-10.588,1.145-13.606.964-11.484,10.811-128.549,65.916-1.711s-7.429,75.385-12.684,130.26c-.587,6.114-1.145,11.976-1.661,17.449q-.252,2.621-.484,5.119c-.488,5.192-.933,9.959-1.32,14.169-.2,2.219-.393,4.281-.563,6.169-.67,7.4-1.063,12.126-1.069,13.024a7.614,7.614,0,0,0,.128,1.464c1.082,5.766,9.44,6.027,10.431,6.027" transform="translate(-644.214 -421.637)" fill="#90aff4"/>
        <path id="Path_11144" data-name="Path 11144" d="M440.034,301.578,477.1,450.445l5.074,20.388,17.261,69.338H820.117L756.495,301.578Z" transform="translate(-305.519 -209.389)" fill="#aec3ff"/>
        <path id="Path_11145" data-name="Path 11145" d="M428.366,301.577l-5.136,1.712,57.705,242.059,6.829-5.178Z" transform="translate(-293.852 -209.388)" fill="#90aff4"/>
        <path id="Path_11146" data-name="Path 11146" d="M612,1087.256H930.711l8.8-5.178H618.827Z" transform="translate(-424.915 -751.295)" fill="#7599ea"/>
        <rect id="Rectangle_7553" data-name="Rectangle 7553" width="69.006" height="3.279" transform="translate(299.006 379.32)" fill="#aec3ff"/>
        <path id="Path_11147" data-name="Path 11147" d="M998.271,1099.012l-.357,2.507-64.9,13.111.891-10.588.425-5.03Z" transform="translate(-647.801 -763.052)" fill="#5888dd"/>
        <g id="Group_13662" data-name="Group 13662" transform="translate(283.64 358.805)" opacity="0.4">
          <g id="Group_13661" data-name="Group 13661">
            <g id="Group_13660" data-name="Group 13660" clip-path="url(#clip-path-3)">
              <path id="Path_11148" data-name="Path 11148" d="M1001.939,1194.26c-2.638.008-54.282.1-67.343-.072-5.692-.071-6.69-5.061-6.737-8.291l64.59-12.152c-.67,7.4-1.063,12.126-1.069,13.024a7.615,7.615,0,0,0,.128,1.464c1.082,5.766,9.44,6.027,10.431,6.027" transform="translate(-927.859 -1173.745)" fill="#5888dd"/>
            </g>
          </g>
        </g>
        <path id="Path_11149" data-name="Path 11149" d="M440.032,301.577H756.493L807.84,493.33H487.769Z" transform="translate(-305.517 -209.388)" fill="#aec3ff"/>
        <path id="Path_11150" data-name="Path 11150" d="M822.685,508.352H526.38l-10.588-42.18-4.1-16.321-1.67-6.656-10.882-43.347-.564-2.257-5.753-22.913-2.573-10.252-2.2-8.746-5.147-20.5H774.944l5.652,20.5,2.409,8.746,2.826,10.252,18.62,67.541v0l1.579,5.722.733,2.656,12.856,46.629Z" transform="translate(-335.288 -232.719)" fill="#739af0"/>
        <path id="Path_11151" data-name="Path 11151" d="M780.6,355.68H488.061l-5.146-20.5H774.948Z" transform="translate(-335.291 -232.717)" fill="#607cf4"/>
        <path id="Path_11152" data-name="Path 11152" d="M522.255,359.667a1.936,1.936,0,0,1,1.924-2.563,3.5,3.5,0,0,1,3.2,2.563,1.936,1.936,0,0,1-1.924,2.563,3.5,3.5,0,0,1-3.2-2.563" transform="translate(-362.551 -247.94)" fill="#e9f3fe"/>
        <path id="Path_11153" data-name="Path 11153" d="M550.113,359.667a1.936,1.936,0,0,1,1.924-2.563,3.5,3.5,0,0,1,3.2,2.563,1.936,1.936,0,0,1-1.924,2.563,3.5,3.5,0,0,1-3.2-2.563" transform="translate(-381.892 -247.94)" fill="#e9f3fe"/>
        <path id="Path_11154" data-name="Path 11154" d="M580.11,359.667a1.937,1.937,0,0,1,1.924-2.563,3.5,3.5,0,0,1,3.2,2.563,1.936,1.936,0,0,1-1.924,2.563,3.5,3.5,0,0,1-3.2-2.563" transform="translate(-402.72 -247.94)" fill="#e9f3fe"/>
        <path id="Path_11155" data-name="Path 11155" d="M930.653,470.235l-152.277,12.83a15.243,15.243,0,0,1-15.2-21.407l64.514-144.383a15.243,15.243,0,0,1,26.6-2.241l87.763,131.553a15.243,15.243,0,0,1-11.4,23.648" transform="translate(-528.945 -214.02)" fill="#e6efff"/>
        <path id="Path_11156" data-name="Path 11156" d="M918,462.861,765.722,475.69a21.023,21.023,0,0,1-20.959-29.525l64.514-144.383a21.023,21.023,0,0,1,36.683-3.091l87.762,131.554A21.023,21.023,0,0,1,918,462.861M827.677,300.929a9.342,9.342,0,0,0-7.845,5.569L755.318,450.882a9.462,9.462,0,0,0,9.434,13.289l152.277-12.829a9.462,9.462,0,0,0,7.077-14.68L836.343,305.107a9.342,9.342,0,0,0-8.666-4.178" transform="translate(-515.806 -200.886)" fill="#f77d48"/>
        <path id="Path_11158" data-name="Path 11158" d="M1390.594,528.867a9.632,9.632,0,0,0-7.649.393c-13.014.535-13.5,13.874-11.97,18.839,2.146,6.972-5.447,12.47,2.974,15.292,9.77,3.274,17.968-.61,17.408,1.076,30.9,2.435,9.517-32.186-.763-35.6" transform="translate(-951.112 -366.795)" fill="#163560"/>
        <path id="Path_11159" data-name="Path 11159" d="M1349.836,679.607a34.125,34.125,0,0,1-3.48,5.262c-2.7,3.386-16.893-4.651-15.67-5.262s8.353-21.152,10.05-23.734,7.485-3.921,7.485-3.921Z" transform="translate(-923.853 -452.655)" fill="#f99746"/>
        <path id="Path_11160" data-name="Path 11160" d="M1517.914,1191.782s3.916,3.574,3.152,6.114-4.3,4.233-4.776,7.336-2.388,4.8-4.107,4.8h-8.2s-1.265-2.184,1.792-2.842,4.209-4.306,4.018-7.692a59.649,59.649,0,0,1,.287-7.9l6.5-1.505Z" transform="translate(-1044.047 -826.288)" fill="#1f447f"/>
        <path id="Path_11161" data-name="Path 11161" d="M1391.023,1200.591s1.409,15.141-.31,15.987l-22-.045s0-2.539,3.534-3.1,9.743-2.633,10.794-7.242,7.986-5.6,7.986-5.6" transform="translate(-950.304 -833.579)" fill="#1c3154"/>
        <path id="Path_11162" data-name="Path 11162" d="M1406.782,666.675a87.614,87.614,0,0,1,0,10.17c-.218,3.677-3.938,8.6-4.465,9.821-1.325,3.056-2.818,3.553-2.818,3.553l-11.553,2.831-4.062.994-12.81-3.826s-5.835-16.286-3.492-25.453a70.444,70.444,0,0,1,5.922-15.534s8.705-1.957,24.064-.868Z" transform="translate(-949.136 -449.935)" fill="#f99746"/>
        <path id="Path_11163" data-name="Path 11163" d="M1450.656,720.081c-.218,3.677-5.038,8.474-5.566,9.692-1.324,3.056-2.818,3.553-2.818,3.553l-11.553,2.832-2.086-5.979s16.881-4.434,14.165-20.058Z" transform="translate(-991.911 -493.043)" fill="#ed7d2b"/>
        <path id="Path_11164" data-name="Path 11164" d="M1367.573,794.117s-6.344,19.746-6.752,26.469,12.127,95.5,12.631,98.6c.475,2.92,4.1,4.781,4.1,4.781a5.487,5.487,0,0,0,4.048.312c3.3-.932,4.346-2.049,4.346-2.049s4.938-63.318,1.882-85.937a358.235,358.235,0,0,1-3.092-42.179Z" transform="translate(-944.821 -551.362)" fill="#233862"/>
        <path id="Path_11165" data-name="Path 11165" d="M1414.551,792.192s9.677,12.984,10.579,21.761,1.415,39.607,3.337,48.163,8.984,25.023,8.984,51.71a5.322,5.322,0,0,1-3,2.344,24.664,24.664,0,0,1-2.639.73,4.148,4.148,0,0,1-4.64-2.2c-4.774-9.612-19.981-40.614-20.761-47.049-.552-4.555-5.353-34.7-15.827-52.382-2.515-4.246,1.543-21.132,1.543-21.132Z" transform="translate(-964.921 -550.025)" fill="#2a4e96"/>
        <path id="Path_11166" data-name="Path 11166" d="M1378.8,784.146s2.547,2.015,7.606,2.117c6.043.121,21.018-1.541,21.018-1.541a12.376,12.376,0,0,1,.638,3.822s-18.289,4.613-28.885.674a6.7,6.7,0,0,1-.376-5.071" transform="translate(-957.059 -544.439)" fill="#233862"/>
        <path id="Path_11167" data-name="Path 11167" d="M1393.49,793.928a3.145,3.145,0,1,1,2.758-3.121,2.959,2.959,0,0,1-2.758,3.121m0-5.328a2.243,2.243,0,1,0,1.843,2.207,2.052,2.052,0,0,0-1.843-2.207" transform="translate(-965.595 -546.896)" fill="#fff"/>
        <path id="Path_11168" data-name="Path 11168" d="M1349.821,754.479l-27.488.257-13.526-31.788,27.488-.256Z" transform="translate(-908.714 -501.771)" fill="#b5453c"/>
        <path id="Path_11169" data-name="Path 11169" d="M1399.187,768.259l-2.015-2.476a7.085,7.085,0,0,0-2.353-1.423c-.989-.207-3.079-1.412-3.282-1.072s1.606,2.762,1.606,2.762l.092.013c-2.075,1.561-7.315.183-7.962.82-.784.771,1.079,2.44,2.078,3.377s3.857,2.5,6.086,1.805c1.629-.507,4.192-1.023,4.192-1.023Z" transform="translate(-961.674 -529.915)" fill="#ffb27d"/>
        <path id="Path_11170" data-name="Path 11170" d="M1315.17,738.925s1.728-1.963,2.827-1.021-.288,5.575-1.335,5.1-2.094-3.507-1.492-4.083" transform="translate(-913.009 -512.155)" fill="#ffb27d"/>
        <path id="Path_11171" data-name="Path 11171" d="M1435.237,649.114s7.869.868,13.516,11.128c4.453,8.091,12.066,23.007,9.193,27.22-1.261,1.85-13.349,8.432-36.665,4.67,0,0,.367-2.945,2.248-4.31,0,0,19.621-6.3,19.588-7.553-.064-2.371-2.651-4.419-13.612-15.382-2.98-2.981,5.732-15.773,5.732-15.773" transform="translate(-986.805 -450.685)" fill="#f99746"/>
        <path id="Path_11172" data-name="Path 11172" d="M1420.133,623.147c.27-.363-.078-1.519-.51-3.672a40.214,40.214,0,0,1-1.041-8.36l-.58.1-9.752,1.641s.222,2.608.228,5.064c0,.021,0,.041,0,.061.012,2.133-.575,5.357.144,5.779,3.7,2.165,10.471.785,11.511-.611" transform="translate(-977.757 -424.303)" fill="#ffb27d"/>
        <path id="Path_11173" data-name="Path 11173" d="M1408.249,613.075s.194,3.677.2,6.133c5.458-.13,8.37-5.43,9.552-7.774Z" transform="translate(-977.757 -424.523)" fill="#e8945b"/>
        <path id="Path_11174" data-name="Path 11174" d="M1391.117,579.931s12.785-1.821,11.528-9.765-.453-13.53-8.669-12.7-9.318,4.108-9.544,6.862,3.327,15.875,6.685,15.607" transform="translate(-961.214 -386.995)" fill="#ffb27d"/>
        <path id="Path_11175" data-name="Path 11175" d="M1396.578,555.034s4.976,8.762,10.553,9.287,7.673-1.282,7.673-1.282a15.363,15.363,0,0,1-6.391-8.174s-9.909-4.686-11.836.168" transform="translate(-969.654 -383.836)" fill="#163560"/>
        <path id="Path_11176" data-name="Path 11176" d="M1386.57,559.367a8.01,8.01,0,0,0-3.2,3.438,13,13,0,0,0-.562,7.567s-3.639-5.915-1.254-9.969c2.529-4.3,5.016-1.036,5.016-1.036" transform="translate(-958.66 -387.55)" fill="#163560"/>
        <path id="Path_11177" data-name="Path 11177" d="M709.588,1253.865H.886a.889.889,0,0,1-.886-.886v-.511a.889.889,0,0,1,.886-.886h708.7a.888.888,0,0,1,.886.886v.511a.888.888,0,0,1-.886.886" transform="translate(0 -868.983)" fill="#233862"/>
      </g>
    </g>
    <g id="Group_13673" data-name="Group 13673" transform="translate(282.07 161.739)">
      <g id="Group_13672" data-name="Group 13672" clip-path="url(#clip-path-4)">
        <g id="Group_13671" data-name="Group 13671" transform="translate(0 0)">
          <g id="Group_13670" data-name="Group 13670" clip-path="url(#clip-path-4)">
            <path id="Path_11178" data-name="Path 11178" d="M39.583,0A39.583,39.583,0,1,0,79.167,39.583,39.628,39.628,0,0,0,39.583,0m0,10.481a28.927,28.927,0,0,1,15.875,4.73L16.5,57.279a29.08,29.08,0,0,1,23.082-46.8m0,58.2a28.922,28.922,0,0,1-15.315-4.371l38.8-41.9A29.082,29.082,0,0,1,39.583,68.686" transform="translate(0 0)" fill="#f94362"/>
            <g id="Group_13669" data-name="Group 13669" transform="translate(11.636 10.165)" opacity="0.3" style="mix-blend-mode: multiply;isolation: isolate">
              <g id="Group_13668" data-name="Group 13668">
                <g id="Group_13667" data-name="Group 13667" clip-path="url(#clip-path-6)">
                  <path id="Path_11179" data-name="Path 11179" d="M44.5,83.465a39.562,39.562,0,0,0,26.45-69l-54.4,57.423A39.459,39.459,0,0,0,44.5,83.465m29.1-39.583A29.084,29.084,0,0,1,29.189,68.614l38.8-41.9a28.939,28.939,0,0,1,5.62,17.163" transform="translate(-16.556 -14.464)" fill="#0e6ca3"/>
                </g>
              </g>
            </g>
          </g>
        </g>
      </g>
    </g>
  </g>
</svg>
