<?xml version="1.0" encoding="UTF-8"?><svg id="Layer_1" xmlns="http://www.w3.org/2000/svg" viewBox="0 0 106.61 82"><defs><style>.cls-1{fill:#3693ff;}.cls-2{fill:none;stroke:#3693ff;stroke-width:1.5px;}</style></defs><g id="Group_6848"><path id="Subtraction_4" class="cls-1" d="M60.31,69.1H31.39c-.88,0-1.58-.71-1.58-1.58v-28.53c0-.06,0-.13,0-.19,.05-.23,.16-.45,.33-.62,.02-.06,.05-.12,.08-.18,.07-.08,.15-.15,.24-.21,.07-.06,.15-.11,.24-.16l.27-.1c.06,0,.11,0,.17,0,.06,0,.11,0,.17,0h41.81l.27,.1c.18,.11,.34,.23,.49,.38,.03,.06,.06,.11,.08,.18,.06,.09,.11,.19,.14,.28,.04,.1,.08,.21,.1,.32,0,.06,0,.13,0,.19v18.05h-3.17v-14.88l-18.05,13.88c-.28,.21-.62,.33-.97,.33-.35,0-.69-.12-.97-.33l-18.05-13.88v23.77h27.33v3.17h0Zm-24.25-28.53l15.95,12.27,15.95-12.27h-31.89Z"/><path id="Intersection_1" class="cls-1" d="M3.51,57.15v-6.07q0-.24-.24-.24h-.61v5.96c-.96-.43-1.85-.99-2.66-1.65v-.25c0-1.49,0-2.99,.01-4.48-.03-1.19,.44-2.34,1.31-3.17,.65-.63,1.52-.98,2.43-.97,2.58-.01,5.17-.02,7.75,0,1.82-.03,3.4,1.26,3.73,3.05,.05,.19,.07,.39,.07,.58v5.29c-.78,.63-1.64,1.16-2.56,1.58v-5.94h-.83v6.28c-2.71,1-5.69,1-8.41,.02h0Zm.61-14.85c.02-1.84,1.52-3.32,3.36-3.3,0,0,0,0,.01,0h0c1.82,.04,3.27,1.55,3.22,3.38-.04,1.82-1.55,3.27-3.38,3.22-1.79-.04-3.22-1.51-3.22-3.3Z"/><path id="Intersection_3" class="cls-1" d="M12.16,26.74v-6.07q0-.24-.24-.24h-.61v5.96c-.96-.43-1.85-.99-2.66-1.65v-.25c0-1.49,0-2.99,.01-4.48-.03-1.19,.44-2.34,1.31-3.17,.65-.63,1.52-.98,2.43-.97,2.58-.01,5.17-.02,7.75,0,1.82-.03,3.4,1.26,3.73,3.05,.05,.19,.07,.39,.07,.58v5.29c-.78,.63-1.64,1.16-2.56,1.58v-5.94h-.83v6.28c-2.71,1-5.69,1-8.41,.02h0Zm.61-14.85c.02-1.84,1.52-3.32,3.36-3.3,0,0,0,0,.01,0h0c1.82,.04,3.27,1.55,3.22,3.38-.04,1.82-1.55,3.27-3.38,3.22-1.79-.04-3.22-1.51-3.22-3.3Z"/><path id="Intersection_4" class="cls-1" d="M51.16,18.15v-6.07q0-.24-.24-.24h-.61v5.96c-.96-.43-1.85-.99-2.66-1.65v-.25c0-1.49,0-2.99,.01-4.48-.03-1.19,.44-2.34,1.31-3.17,.65-.63,1.52-.98,2.43-.97,2.58-.01,5.17-.02,7.75,0,1.82-.03,3.4,1.26,3.73,3.05,.05,.19,.07,.39,.07,.58v5.29c-.78,.63-1.64,1.16-2.56,1.58v-5.94h-.83v6.28c-2.71,1-5.69,1-8.41,.02h0Zm.61-14.85C51.79,1.46,53.3-.02,55.14,0c0,0,0,0,.01,0h0c1.82,.04,3.27,1.55,3.22,3.38-.04,1.82-1.55,3.27-3.38,3.22-1.79-.04-3.22-1.51-3.22-3.3Z"/><path id="Intersection_5" class="cls-1" d="M83.96,26.74v-6.07q0-.24-.24-.24h-.61v5.96c-.96-.43-1.85-.99-2.66-1.65v-.25c0-1.49,0-2.99,.01-4.48-.03-1.19,.44-2.34,1.31-3.17,.65-.63,1.52-.98,2.43-.97,2.58-.01,5.17-.02,7.75,0,1.82-.03,3.4,1.26,3.73,3.05,.05,.19,.07,.39,.07,.58v5.29c-.78,.63-1.64,1.16-2.56,1.58v-5.94h-.83v6.28c-2.71,1-5.69,1-8.41,.02h0Zm.61-14.85c.02-1.84,1.52-3.32,3.36-3.3,0,0,0,0,.01,0h0c1.82,.04,3.27,1.55,3.22,3.38-.04,1.82-1.55,3.27-3.38,3.22-1.79-.04-3.22-1.51-3.22-3.3Z"/><path id="Intersection_6" class="cls-1" d="M94.82,55.68v-6.07q0-.24-.24-.24h-.61v5.96c-.96-.43-1.85-.99-2.66-1.65v-.25c0-1.49,0-2.99,.01-4.48-.03-1.19,.44-2.34,1.31-3.17,.65-.63,1.52-.98,2.43-.97,2.58-.01,5.17-.02,7.75,0,1.82-.03,3.4,1.26,3.73,3.05,.05,.19,.07,.39,.07,.58v5.29c-.78,.63-1.64,1.16-2.56,1.58v-5.94h-.83v6.28c-2.71,1-5.69,1-8.41,.02h0Zm.61-14.85c.02-1.84,1.52-3.32,3.36-3.3,0,0,0,0,.01,0h0c1.82,.04,3.27,1.55,3.22,3.38-.04,1.82-1.55,3.27-3.38,3.22-1.79-.04-3.22-1.51-3.22-3.3Z"/><g id="Group_6839"><path id="Path_10920" class="cls-1" d="M82.89,55.92h-20.87c-1.44,0-2.6,1.17-2.61,2.61v23.48l5.22-5.22h18.26c1.44,0,2.6-1.17,2.61-2.61v-15.65c0-1.44-1.17-2.6-2.61-2.61Zm0,18.26h-19.34l-1.53,1.53v-17.18h20.87v15.65Zm-16.95-9.13h2.61v2.61h-2.61v-2.61Zm10.43,0h2.61v2.61h-2.61v-2.61Zm-5.22,0h2.61v2.61h-2.61v-2.61Z"/></g><line id="Line_1" class="cls-2" x1="30.31" y1="53.03" x2="15.31" y2="53.03"/><line id="Line_2" class="cls-2" x1="73.31" y1="52.03" x2="91.31" y2="52.03"/><line id="Line_4" class="cls-2" x1="55.31" y1="39.03" x2="55.31" y2="18.03"/><line id="Line_5" class="cls-2" x1="72.31" y1="39.03" x2="86.31" y2="25.03"/><line id="Line_6" class="cls-2" x1="31.31" y1="39" x2="18.31" y2="26.14"/></g></svg>