<svg id="asset_Onboarding" data-name="asset Onboarding" xmlns="http://www.w3.org/2000/svg" width="52.493" height="69.069" viewBox="0 0 52.493 69.069">
  <path id="Path_10049" data-name="Path 10049" d="M51.967,8H33.94V32.984l5.023-5.023a2.762,2.762,0,0,1,3.907,3.907l-9.67,9.67a2.754,2.754,0,0,1-3.907,0l-9.67-9.67a2.762,2.762,0,1,1,3.907-3.907l4.885,4.885V8H10.526A5.526,5.526,0,0,0,5,13.526V54.967a5.526,5.526,0,0,0,5.526,5.526H51.967a5.526,5.526,0,0,0,5.526-5.526V13.526A5.526,5.526,0,0,0,51.967,8Z" transform="translate(-5 8.577)" fill="#3693ff"/>
  <path id="Path_10050" data-name="Path 10050" d="M19,18.577V4.763a2.763,2.763,0,1,0-5.526,0V18.577Z" transform="translate(9.94 -2)" fill="#3693ff"/>
</svg>
