<svg xmlns="http://www.w3.org/2000/svg" width="28.053" height="20.403" viewBox="0 0 28.053 20.403">
  <path id="assets" d="M3.55,7.825A1.279,1.279,0,0,1,4.825,6.55h20.4a1.275,1.275,0,0,0,0-2.55H3.55A2.558,2.558,0,0,0,1,6.55v15.3A2.558,2.558,0,0,0,3.55,24.4H7.376a1.275,1.275,0,1,0,0-2.55H4.825A1.279,1.279,0,0,1,3.55,20.577ZM15.027,14.2h-2.55A1.279,1.279,0,0,0,11.2,15.476v.995a3.78,3.78,0,0,0,0,5.662v.995A1.279,1.279,0,0,0,12.476,24.4h2.55A1.279,1.279,0,0,0,16.3,23.127v-.995a3.78,3.78,0,0,0,0-5.662v-.995A1.279,1.279,0,0,0,15.027,14.2Zm-1.275,7.013A1.913,1.913,0,1,1,15.664,19.3,1.91,1.91,0,0,1,13.752,21.215ZM27.778,9.1H20.127a1.371,1.371,0,0,0-1.275,1.275V23.127A1.371,1.371,0,0,0,20.127,24.4h7.651a1.371,1.371,0,0,0,1.275-1.275V10.376A1.371,1.371,0,0,0,27.778,9.1ZM26.5,21.852H21.4v-10.2h5.1Z" transform="translate(-1 -4)" fill="#25c8be"/>
</svg>
