<svg xmlns="http://www.w3.org/2000/svg" width="200.799" height="32.9" viewBox="0 0 200.799 32.9">
  <g id="cloudbeds_new" transform="translate(-3.801 -3.3)">
    <g id="Group_15430" data-name="Group 15430">
      <path id="Path_11540" data-name="Path 11540" d="M44.3,19.3a6.448,6.448,0,0,0,.3-2A8.28,8.28,0,0,0,36.3,9a9.291,9.291,0,0,0-2.9.5A11.8,11.8,0,0,0,23,3.3,11.608,11.608,0,0,0,11.4,14.9a16.352,16.352,0,0,0,.2,2.2A6.586,6.586,0,0,0,9.1,29.2,26.151,26.151,0,0,1,14.7,27s-2.4-8.2.4-8.8c3.4-.6,3.6.3,10.5-.4a52.861,52.861,0,0,1,13.8.4c1.3,0,1.2,2.7,1,4.7a16.36,16.36,0,0,1-.9,3.8,28.362,28.362,0,0,1,6.8,2.7,5.414,5.414,0,0,0,2.6-4.6A5.132,5.132,0,0,0,44.3,19.3Z" fill="#1d55cc"/>
      <path id="Path_11541" data-name="Path 11541" d="M27.6,31.4c9.6,0,18.2,1.3,23.8,4.8C47.8,31.4,38.5,28,27.6,28S7.4,31.3,3.8,36.1C9.4,32.7,18,31.4,27.6,31.4Z" fill="#1d55cc"/>
    </g>
    <path id="Path_11542" data-name="Path 11542" d="M162.7,25.7a5.88,5.88,0,0,1-2.4,2,3.9,3.9,0,0,1-5.1-1.5l10.9-4.5c-.1-.4-.3-.8-.4-1.2-1.9-4.4-5.9-7.5-11.1-5.3-4.5,1.9-6.2,6.9-4.3,11.4v.1c2,4.8,6.8,6.6,11.5,4.7a9.616,9.616,0,0,0,3.7-2.7Zm-6.7-7c1.9-.8,3.6.1,4.7,2L154,23.5C153.5,21.3,154.1,19.5,156,18.7Z" fill="#001238"/>
    <path id="Path_11543" data-name="Path 11543" d="M51.8,20.8h0a10.974,10.974,0,0,1,11-11.3A11.165,11.165,0,0,1,71.3,13l-1.7,1.8a9.628,9.628,0,0,0-6.9-3c-4.8,0-8.4,3.9-8.4,8.9v.1c0,5.1,3.7,9,8.4,9,3,0,4.9-1.1,7-3.1l1.6,1.6a11.429,11.429,0,0,1-8.7,3.8A11,11,0,0,1,51.8,20.8Z" fill="#001238"/>
    <path id="Path_11544" data-name="Path 11544" d="M73.4,8.9h2.4V31.7H73.4Z" fill="#001238"/>
    <path id="Path_11545" data-name="Path 11545" d="M77.6,23.6h0A8.407,8.407,0,0,1,86,15.1a8.323,8.323,0,0,1,8.4,8.4v.1a8.4,8.4,0,0,1-16.8,0Zm14.3,0h0a6.088,6.088,0,0,0-6-6.3A5.919,5.919,0,0,0,80,23.5v.1a5.96,5.96,0,1,0,11.9,0Z" fill="#001238"/>
    <path id="Path_11546" data-name="Path 11546" d="M96.3,25.5v-10h2.4v9.4c0,3,1.6,4.9,4.5,4.9a4.759,4.759,0,0,0,4.8-5.1V15.5h2.4V31.6H108V28.8a6.143,6.143,0,0,1-5.5,3.1C98.5,32,96.3,29.3,96.3,25.5Z" fill="#001238"/>
    <path id="Path_11547" data-name="Path 11547" d="M112,23.6h0c0-5.3,3.8-8.4,7.7-8.4a7.379,7.379,0,0,1,6.2,3.4V8.9h2.4V31.7h-2.4V28.5a7.313,7.313,0,0,1-6.2,3.6C115.8,32,112,28.9,112,23.6Zm13.9,0h0a5.993,5.993,0,0,0-5.8-6.3c-3.1,0-5.7,2.3-5.7,6.2v.1c0,3.8,2.6,6.2,5.7,6.2A5.965,5.965,0,0,0,125.9,23.6Z" fill="#001238"/>
    <path id="Path_11548" data-name="Path 11548" d="M135.6,29.4v2.2h-4.7V8.9h4.7v8.4a5.908,5.908,0,0,1,5.2-2.7c3.9,0,7.6,3.1,7.6,8.6v.1c0,5.6-3.6,8.6-7.6,8.6A6.251,6.251,0,0,1,135.6,29.4Zm8.1-6.1h0c0-2.8-1.9-4.7-4.1-4.7s-4.1,1.8-4.1,4.6v.1c0,2.8,1.8,4.6,4.1,4.6C141.8,27.9,143.7,26.1,143.7,23.3Z" fill="#001238"/>
    <path id="Path_11549" data-name="Path 11549" d="M166.9,23.3h0c0-5.6,3.6-8.7,7.6-8.7a6.251,6.251,0,0,1,5.2,2.5V8.9h4.7V31.7h-4.7V29.3a5.908,5.908,0,0,1-5.2,2.7C170.6,31.9,166.9,28.9,166.9,23.3Zm12.9,0h0c0-2.8-1.8-4.7-4.1-4.7s-4.1,1.8-4.1,4.6v.1c0,2.8,1.9,4.6,4.1,4.6S179.8,26.1,179.8,23.3Z" fill="#001238"/>
    <path id="Path_11550" data-name="Path 11550" d="M186,29.4l2-3.1a9.486,9.486,0,0,0,5.3,2c1.4,0,2-.5,2-1.2V27c0-1-1.6-1.4-3.5-1.9-2.3-.7-5-1.8-5-5V20c0-3.4,2.7-5.3,6.1-5.3a11.578,11.578,0,0,1,6.2,1.9l-1.8,3.3a9.445,9.445,0,0,0-4.5-1.6c-1.1,0-1.7.5-1.7,1.1v.1c0,.9,1.6,1.4,3.4,2,2.3.8,5.1,1.9,5.1,5v.1c0,3.7-2.8,5.4-6.4,5.4A12.958,12.958,0,0,1,186,29.4Z" fill="#001238"/>
    <g id="Group_15431" data-name="Group 15431">
      <path id="Path_11551" data-name="Path 11551" d="M201.2,30.4h0a1.685,1.685,0,0,1,1.7-1.7,1.752,1.752,0,0,1,1.7,1.7h0a1.685,1.685,0,0,1-1.7,1.7A1.628,1.628,0,0,1,201.2,30.4Zm3.1,0h0a1.473,1.473,0,0,0-1.5-1.5,1.538,1.538,0,0,0-1.5,1.5h0a1.473,1.473,0,0,0,1.5,1.5A1.417,1.417,0,0,0,204.3,30.4Zm-2.2-.9h.8a.764.764,0,0,1,.5.2.52.52,0,0,1,.2.4h0a.458.458,0,0,1-.4.5l.4.6h-.5l-.4-.6h-.3v.6H202l.1-1.7Zm.8.9a.265.265,0,0,0,.3-.3h0a.265.265,0,0,0-.3-.3h-.4v.5C202.5,30.4,202.9,30.4,202.9,30.4Z" fill="#001238"/>
    </g>
  </g>
</svg>
