<svg xmlns="http://www.w3.org/2000/svg" width="67.913" height="56.083" viewBox="0 0 67.913 56.083">
  <g id="Group_5709" data-name="Group 5709" transform="translate(-425.594 -1639.998)">
    <path id="Union_5" data-name="Union 5" d="M4.364,56.083C3.066,54.562,1.519,53.019,0,51.466v-.7C6.2,43.645,19.2,29.7,19.3,29.7a12.839,12.839,0,0,0,2.321,1.543c.511-.572,1.39-1.543,1.39-1.543l-1.53-2.245,1.826-2.511q-.239-.48-.448-.974a17.253,17.253,0,0,1,3.7-18.917,17.318,17.318,0,0,1,2.553-2.106,17.236,17.236,0,0,1,19.295,0,17.321,17.321,0,0,1,4.659,4.66A17.261,17.261,0,0,1,32.044,33.154q-.609-.258-1.2-.562c-.94.712-2.346,1.74-2.346,1.74l-2.525-1.263-1.137,1.544,1.417,2.119S6.247,55.1,5.206,56.083ZM24.411,17.255A14.348,14.348,0,1,0,38.76,2.906,14.365,14.365,0,0,0,24.411,17.255Z" transform="translate(425.594 1639.998)" fill="#3693ff"/>
    <path id="Path_10156" data-name="Path 10156" d="M175.812,65h6.862v7.844c.113.143,3.824,3.247,5.627,4.491-1.856,3.932-8.93,5.522-13.893,3.368-.7-.368-2.326-.9-2.807-1.684V68.509a3,3,0,0,1,1.258-2.8A5.7,5.7,0,0,1,175.812,65Zm9.107,0h5.192c1.622,2.545.189,10.12-.7,10.37-.971-.971-3.512-2.53-4.491-3.508Zm12.644,0h5.511c2.641,0,4.728,1.159,4.728,4.77V92.6c0,5.511-.674,6.49-5.044,6.49-1.247.035-20.438-.129-26.551-.129a4.174,4.174,0,0,1-4.468-3.843c0-2.079-.138-4.788-.138-6.976.472-.215.446-.322.968-.421,2.553,2.007,9.688,1.265,12.63.281,6.441-2.156,10.355-6.428,12.223-13.051a21.857,21.857,0,0,0,.7-6.862A25.294,25.294,0,0,0,197.563,65Zm-.14,25.68v4.945l6.722-.173V90.681Z" transform="translate(285.704 1587.534)" fill="#3693ff" fill-rule="evenodd"/>
  </g>
</svg>
