<svg id="integrations" xmlns="http://www.w3.org/2000/svg" width="56.987" height="56.987" viewBox="0 0 56.987 56.987">
  <path id="Path_34" data-name="Path 34" d="M17.912,26.048v1.627a4.885,4.885,0,0,1-9.77,0V26.048H4.071A4.071,4.071,0,0,1,0,21.983V17.912a1.627,1.627,0,0,1,1.627-1.627,3.257,3.257,0,0,0,0-6.515A1.63,1.63,0,0,1,0,8.142V4.071A4.071,4.071,0,0,1,4.071,0H8.142A1.627,1.627,0,0,1,9.77,1.627a3.257,3.257,0,1,0,6.515,0A1.627,1.627,0,0,1,17.912,0h4.071a4.071,4.071,0,0,1,4.065,4.071V8.142h1.627a4.885,4.885,0,0,1,4.885,4.885h0a4.885,4.885,0,0,1-4.876,4.885H26.048v4.071a4.071,4.071,0,0,1-4.065,4.065ZM3.257,19.317v2.649a.814.814,0,0,0,.814.814h5.7A1.627,1.627,0,0,1,11.4,24.406v3.278a1.629,1.629,0,0,0,3.257,0V24.427A1.627,1.627,0,0,1,16.282,22.8h5.7a.817.817,0,0,0,.814-.814v-5.7a1.627,1.627,0,0,1,1.627-1.627h3.26a1.63,1.63,0,0,0,1.627-1.627h0A1.627,1.627,0,0,0,27.684,11.4H24.427A1.63,1.63,0,0,1,22.8,9.775v-5.7a.814.814,0,0,0-.814-.814H19.352a6.515,6.515,0,0,1-12.617,0H4.1a.811.811,0,0,0-.814.814V6.705a6.515,6.515,0,0,1,0,12.614Z" transform="translate(32.56 56.987) rotate(180)" fill="#3693ff" fill-rule="evenodd"/>
  <path id="Path_35" data-name="Path 35" d="M17.912,26.048v1.627a4.885,4.885,0,0,1-9.77,0V26.048H4.071A4.071,4.071,0,0,1,0,21.983V17.912a1.627,1.627,0,0,1,1.627-1.627,3.257,3.257,0,0,0,0-6.515A1.63,1.63,0,0,1,0,8.142V4.071A4.071,4.071,0,0,1,4.071,0H8.142A1.627,1.627,0,0,1,9.77,1.627a3.257,3.257,0,1,0,6.515,0A1.627,1.627,0,0,1,17.912,0h4.071a4.071,4.071,0,0,1,4.065,4.071V8.142h1.627a4.885,4.885,0,0,1,4.885,4.885h0a4.885,4.885,0,0,1-4.876,4.885H26.048v4.071a4.071,4.071,0,0,1-4.065,4.065ZM3.257,19.317v2.649a.814.814,0,0,0,.814.814h5.7A1.627,1.627,0,0,1,11.4,24.406v3.278a1.629,1.629,0,0,0,3.257,0V24.427A1.627,1.627,0,0,1,16.282,22.8h5.7a.817.817,0,0,0,.814-.814v-5.7a1.627,1.627,0,0,1,1.627-1.627h3.26a1.63,1.63,0,0,0,1.627-1.627h0A1.627,1.627,0,0,0,27.684,11.4H24.427A1.63,1.63,0,0,1,22.8,9.775v-5.7a.814.814,0,0,0-.814-.814H19.352a6.515,6.515,0,0,1-12.617,0H4.1a.811.811,0,0,0-.814.814V6.705a6.515,6.515,0,0,1,0,12.614Z" transform="translate(32.56 32.56) rotate(180)" fill="#3693ff" fill-rule="evenodd"/>
  <path id="Path_36" data-name="Path 36" d="M17.912,26.048v1.627a4.885,4.885,0,0,1-9.77,0V26.048H4.071A4.071,4.071,0,0,1,0,21.983V17.912a1.627,1.627,0,0,1,1.627-1.627,3.257,3.257,0,0,0,0-6.515A1.63,1.63,0,0,1,0,8.142V4.071A4.071,4.071,0,0,1,4.071,0H8.142A1.627,1.627,0,0,1,9.77,1.627a3.257,3.257,0,1,0,6.515,0A1.627,1.627,0,0,1,17.912,0h4.071a4.071,4.071,0,0,1,4.065,4.071V8.142h1.627a4.885,4.885,0,0,1,4.885,4.885h0a4.885,4.885,0,0,1-4.876,4.885H26.048v4.071a4.071,4.071,0,0,1-4.065,4.065ZM3.257,19.317v2.649a.814.814,0,0,0,.814.814h5.7A1.627,1.627,0,0,1,11.4,24.406v3.278a1.629,1.629,0,0,0,3.257,0V24.427A1.627,1.627,0,0,1,16.282,22.8h5.7a.817.817,0,0,0,.814-.814v-5.7a1.627,1.627,0,0,1,1.627-1.627h3.26a1.63,1.63,0,0,0,1.627-1.627h0A1.627,1.627,0,0,0,27.684,11.4H24.427A1.63,1.63,0,0,1,22.8,9.775v-5.7a.814.814,0,0,0-.814-.814H19.352a6.515,6.515,0,0,1-12.617,0H4.1a.811.811,0,0,0-.814.814V6.705a6.515,6.515,0,0,1,0,12.614Z" transform="translate(56.987 32.56) rotate(180)" fill="#3693ff" fill-rule="evenodd"/>
</svg>
