<svg xmlns="http://www.w3.org/2000/svg" width="55" height="45.244" viewBox="0 0 55 45.244">
  <g id="Group_5839" data-name="Group 5839" transform="translate(-77 -38.756)">
    <rect id="Rectangle_4722" data-name="Rectangle 4722" width="55" height="5" rx="1" transform="translate(77 75)" fill="#3693ff" class="report_color"/>
    <rect id="Rectangle_4723" data-name="Rectangle 4723" width="14" height="3" rx="1" transform="translate(77 81)" fill="#3693ff" class="report_color"/>
    <rect id="Rectangle_4724" data-name="Rectangle 4724" width="14" height="3" rx="1" transform="translate(118 81)" fill="#3693ff" class="report_color"/>
    <g id="Group_5670" data-name="Group 5670" transform="translate(82.819 56.815)">
      <path id="Subtraction_23" data-name="Subtraction 23" d="M18.778,17.382H1.5a1.5,1.5,0,0,1-1.5-1.5V1.5A1.5,1.5,0,0,1,1.5,0H5.963V8.116l4.327-4.328,4.328,4.328V0h4.16a1.5,1.5,0,0,1,1.5,1.5V15.881A1.5,1.5,0,0,1,18.778,17.382Z" transform="translate(0 0)" fill="#3693ff"/>
      <path id="Path_10129" data-name="Path 10129" d="M93.278,64.5v6.387l3.808-3.631,3.454,3.631V64.5Z" transform="translate(-86.77 -64.497)" fill="#3693ff"/>
    </g>
    <g id="Group_5671" data-name="Group 5671" transform="translate(105.994 56.815)">
      <path id="Subtraction_23-2" data-name="Subtraction 23" d="M18.778,17.382H1.5a1.5,1.5,0,0,1-1.5-1.5V1.5A1.5,1.5,0,0,1,1.5,0H5.963V8.116l4.327-4.328,4.328,4.328V0h4.16a1.5,1.5,0,0,1,1.5,1.5V15.881A1.5,1.5,0,0,1,18.778,17.382Z" transform="translate(0 0)" fill="#3693ff"/>
      <path id="Path_10129-2" data-name="Path 10129" d="M93.278,64.5v6.387l3.808-3.631,3.454,3.631V64.5Z" transform="translate(-86.77 -64.497)" fill="#3693ff"/>
    </g>
    <g id="Group_5672" data-name="Group 5672" transform="translate(94.407 38.756)">
      <path id="Subtraction_23-3" data-name="Subtraction 23" d="M18.778,17.382H1.5a1.5,1.5,0,0,1-1.5-1.5V1.5A1.5,1.5,0,0,1,1.5,0H5.963V8.116l4.327-4.328,4.328,4.328V0h4.16a1.5,1.5,0,0,1,1.5,1.5V15.881A1.5,1.5,0,0,1,18.778,17.382Z" transform="translate(0 0)" fill="#3693ff"/>
      <path id="Path_10129-3" data-name="Path 10129" d="M93.278,64.5v6.387l3.808-3.631,3.454,3.631V64.5Z" transform="translate(-86.77 -64.497)" fill="#3693ff"/>
    </g>
  </g>
</svg>
