<svg xmlns="http://www.w3.org/2000/svg" width="73.159" height="60.962" viewBox="0 0 73.159 60.962">
  <g id="b" transform="translate(-157.238 -41.357)">
    <g id="c" transform="translate(157.238 41.357)">
      <g id="Group_5679" data-name="Group 5679" transform="translate(0 0)">
        <path id="Path_10125" data-name="Path 10125" d="M203.523,87.04c.324.994.589,1.813.858,2.631.2.595.412,1.184.59,1.784a3.46,3.46,0,0,0,1.916,2.539,3.96,3.96,0,0,1,2.137,3.9c-.009,1.438.009,1.438,1.469,1.438,1.013,0,2.026-.012,3.039,0a1.454,1.454,0,0,1,1.584,1.425,1.475,1.475,0,0,1-1.547,1.548c-.168.01-.337,0-.506,0H174.578a5.454,5.454,0,0,1-.722-.02,1.452,1.452,0,0,1-1.33-1.531,1.42,1.42,0,0,1,1.435-1.419c1.061-.03,2.121-.01,3.183-.01,1.46,0,1.476,0,1.466-1.437a4.419,4.419,0,0,1,1.489-3.474,3.013,3.013,0,0,1,1.072-.715,1.784,1.784,0,0,0,1.227-1.43c.459-1.5.978-2.976,1.469-4.462.072-.22.124-.446.217-.777h-1.029q-9.73,0-19.459,0a6.073,6.073,0,0,1-6.356-6.377q-.007-16.456,0-32.914a6.1,6.1,0,0,1,6.364-6.39q30.2-.007,60.4,0a6.09,6.09,0,0,1,6.385,6.361q.007,16.493,0,32.986a6.054,6.054,0,0,1-6.319,6.335q-9.73.007-19.459,0h-1.091Zm23.9-39.565c-.051-.369-.061-.583-.113-.787a3.167,3.167,0,0,0-3.387-2.348H163.874c-2.448,0-3.649,1.191-3.649,3.625V75.382a.964.964,0,0,0,1.1,1.082h56.14c.289,0,.58-.012.868.012a1.472,1.472,0,0,1,1.362,1.431,1.45,1.45,0,0,1-1.3,1.482,8.411,8.411,0,0,1-1.011.029H160.337c-.585,3.07,1.042,4.7,3.6,4.691q29.915-.059,59.83-.023c2.458,0,3.643-1.189,3.643-3.633V51.514a.965.965,0,0,0-1.1-1.087H170.534a9.324,9.324,0,0,1-1.084-.023,1.462,1.462,0,0,1-.071-2.881,6.167,6.167,0,0,1,1.009-.048H227.42ZM202.3,93.192a.8.8,0,0,0,.025-.259c-.6-1.829-1.2-3.662-1.843-5.477a.9.9,0,0,0-.706-.4c-3.975-.025-7.951-.012-11.926-.025a.69.69,0,0,0-.77.569c-.411,1.31-.859,2.606-1.294,3.908-.179.538-.356,1.077-.556,1.681H202.3Zm-20.735,6.144h23.594c.145,0,.321.051.427-.014.185-.116.456-.294.467-.46.1-1.487.068-2.7-2.354-2.683-6.6.056-13.2.019-19.8.022a6.692,6.692,0,0,0-1.009.048,1.347,1.347,0,0,0-1.213,1.085,14.992,14.992,0,0,0-.11,2Z" transform="translate(-157.238 -41.357)" fill="#fff"/>
        <path id="Path_10129" data-name="Path 10129" d="M341.609,135.043c.233,1.325.515,2.567.65,3.824.091.839.45,1.023,1.24,1.059,2.454.113,4.9.317,7.352.514.541.043.767-.093.835-.671.359-3.06.758-6.115,1.15-9.171a1.476,1.476,0,0,1,1.551-1.4c1.061-.017,2.123-.019,3.182.009a1.464,1.464,0,1,1,.039,2.924c-.216.014-.434,0-.651,0-1.437-.006-1.414,0-1.584,1.453-.33,2.8-.683,5.591-1.04,8.384a1.494,1.494,0,0,1-1.775,1.472c-3.221-.2-6.44-.437-9.661-.655-.528-.036-1.061-.032-1.589-.078a1.486,1.486,0,0,1-1.529-1.359q-.712-3.8-1.369-7.6a1.424,1.424,0,0,1,1.408-1.654q3.978-.037,7.957,0a1.39,1.39,0,0,1,1.388,1.454,1.344,1.344,0,0,1-1.408,1.415c-1.712.032-3.424.01-5.135.019-.305,0-.609.038-1.009.065Z" transform="translate(-312.176 -116.475)" fill="#fff"/>
        <path id="Path_10130" data-name="Path 10130" d="M198.137,87.124c-1.039-.009-1.7-.576-1.689-1.444.013-.849.627-1.354,1.684-1.341a2.7,2.7,0,0,1,1.042.171,1.305,1.305,0,0,1,.708,1.561c-.205.721-.77,1.061-1.746,1.053Z" transform="translate(-190.775 -78.119)" fill="#fff"/>
        <path id="Path_10131" data-name="Path 10131" d="M601.118,287.142c-1.094,0-1.78-.58-1.732-1.466.049-.925.878-1.448,2.1-1.324a1.382,1.382,0,0,1,1.292,1.654Q602.6,287.142,601.118,287.142Z" transform="translate(-535.407 -249.177)" fill="#fff"/>
        <path id="Path_10132" data-name="Path 10132" d="M418.868,238.789a1.431,1.431,0,0,1,1.5,1.414,1.467,1.467,0,1,1-2.934,0A1.455,1.455,0,0,1,418.868,238.789Z" transform="translate(-379.781 -210.221)" fill="#fff"/>
        <path id="Path_10133" data-name="Path 10133" d="M366.866,240.256a1.468,1.468,0,0,1-1.427,1.431A1.436,1.436,0,0,1,364,240.2a1.37,1.37,0,0,1,1.419-1.4A1.393,1.393,0,0,1,366.866,240.256Z" transform="translate(-334.082 -210.231)" fill="#fff"/>
      </g>
    </g>
  </g>
</svg>
