<svg xmlns="http://www.w3.org/2000/svg" width="53.164" height="48.541" viewBox="0 0 53.164 48.541">
  <path id="mynetworks" d="M58.164,26.8v4.623a6.942,6.942,0,0,1-6.934,6.934H46.607a6.942,6.942,0,0,1-6.934-6.934H31.384L22.815,40l-.02.013a6.855,6.855,0,0,1,.7,2.975v4.623a6.942,6.942,0,0,1-6.934,6.934H11.934A6.942,6.942,0,0,1,5,47.607V42.984a6.942,6.942,0,0,1,6.934-6.934h4.623a6.855,6.855,0,0,1,2.975.7l.013-.02,7.482-7.481-6.8-5.829a6.871,6.871,0,0,1-3.673,1.076H11.934A6.942,6.942,0,0,1,5,17.557V12.934A6.942,6.942,0,0,1,11.934,6h4.623a6.942,6.942,0,0,1,6.934,6.934v4.623a6.848,6.848,0,0,1-.4,2.224L31.282,26.8h8.391a6.942,6.942,0,0,1,6.934-6.934H51.23A6.942,6.942,0,0,1,58.164,26.8Z" transform="translate(-5 -6)" fill="#3693ff"/>
</svg>
