<svg xmlns="http://www.w3.org/2000/svg" width="69.026" height="51.741" viewBox="0 0 69.026 51.741">
  <g id="networktools" transform="translate(0 0)">
    <path id="Path_10089" data-name="Path 10089" d="M51.978,67.6c-.284-.2-.43-.33-.6-.421a10.7,10.7,0,0,0-1.675-.865c-.471-.158-.716-.368-.681-.848.047-.614-.292-.719-.807-.71-1.175.02-2.353.006-3.528.006H5.2A1.048,1.048,0,0,0,4,65.942L3.969,93.781v.538c.015,1.032.064,1.084,1.084,1.084q12.732,0,25.46,0c1.342,0,1.356.023,1.347,1.385-.009,1.3,0,2.607-.006,3.911,0,1-.02,1.02-1.046,1.02q-11.579,0-23.16,0c-1.61,0-3.221.009-4.831,0C1.446,101.7.97,101.225.97,99.863V63.741c0-1.534.412-1.941,1.973-1.941H50.184c1.42,0,1.885.465,1.891,1.879q.009,1.495,0,2.99c0,.263-.05.529-.094.935ZM27.324,98.549a.827.827,0,0,0-.786-.778.837.837,0,0,0-.8.778.792.792,0,1,0,1.582,0Z" transform="translate(-0.97 -61.8)" fill="#3693ff"/>
    <path id="Path_10090" data-name="Path 10090" d="M168.824,103.434c-.587,0-1.175-.018-1.762.006a1.375,1.375,0,0,1-.428-.006v-1.578h.4c1.125.006,2.248,0,3.373-.006.921-.006,1.023-.091.976-1.026-.079-1.555-.2-3.11-.3-4.665-.041-.631-.348-.807-.973-.713-.982.149-1.979.2-2.97.31l-.531-.042s.022-1.033.022-1.447a.349.349,0,0,1,.442-.11c.967-.05,1.929-.193,2.9-.275.564-.047.763-.336.658-.871a23.3,23.3,0,0,0-2.2-7.064,21.616,21.616,0,0,0-1.716-1.982,2.116,2.116,0,0,1-.307-1.219c0-.134.482-.377.745-.377,9.429,0,18.092,7.678,19.615,16.993A20.49,20.49,0,0,1,169.125,122.8a14.4,14.4,0,0,1-1.909.152c-.281,0-.795-.19-.795-.292,0-.45,0-1.16.269-1.312a5.972,5.972,0,0,0,2.481-3.659c.6-1.757.976-3.592,1.447-5.393.152-.585-.111-.865-.684-.921-.965-.091-1.929-.219-2.9-.266-.234-.042-.148-.042-.617-.116l.213-1.474h.471c.991.091,1.987.14,2.97.286.643.094.976-.056,1.014-.742q.136-2.372.307-4.741c.047-.661-.2-.941-.889-.886-.558.047-1.122.009-1.684.009v-.012Zm14.094-1.584c.333,0,.663-.006,1,0,1.783.029,1.47-.132,1.312-1.453a18.572,18.572,0,0,0-3.727-9.1c-.354-.471-.658-.549-1.114-.129a6.171,6.171,0,0,1-1.117.8.8.8,0,0,0-.395,1.14,24.993,24.993,0,0,1,1.587,7.839c.023.625.26.947.929.9.509-.035,1.02-.006,1.532-.006Zm.032,1.625h0c-.485,0-.973.032-1.456-.012-.772-.07-.967.292-1.073,1.011-.307,2.116-.614,4.244-1.119,6.316-.517,2.128-.62,2.1,1.14,3.37.02.015.041.029.061.047.339.3.617.251.9-.108a18.97,18.97,0,0,0,3.934-9.987c.047-.479-.178-.646-.62-.64-.587.009-1.175,0-1.762,0Zm-7.058-1.628c.716,0,1.429-.012,2.145,0,.538.012.792-.175.769-.76a25.3,25.3,0,0,0-1.377-7.2c-.155-.459-.383-.6-.859-.4-1.111.45-2.233.871-3.361,1.277a.741.741,0,0,0-.587.845c.143,1.856.284,3.715.4,5.574.032.494.254.672.725.661.716-.015,1.429,0,2.145,0Zm2.888,3.145q.044-1.52-1.187-1.52c-1.251,0-2.5.015-3.75-.006-.517-.009-.8.129-.833.713-.105,1.833-.248,3.662-.389,5.492a.739.739,0,0,0,.587.842c1.128.4,2.248.827,3.352,1.286.479.2.693.076.853-.386A25.451,25.451,0,0,0,178.779,104.992Zm-9-20.337c.506,1.3,1.029,2.432,1.382,3.615.421,1.415.71,2.87,1.02,4.317.126.585.359.792.947.547.918-.386,1.85-.737,2.774-1.1.435-.172.585-.433.336-.891a14.615,14.615,0,0,0-5.36-5.96c-.316-.187-.663-.319-1.1-.523Zm.056,35.845a4.416,4.416,0,0,0,.549-.175,13.445,13.445,0,0,0,5.881-6.316c.079-.149-.155-.634-.357-.728-.9-.421-1.835-.751-2.753-1.128-.59-.243-.871-.085-.979.57a25.263,25.263,0,0,1-2.268,7.424A1.53,1.53,0,0,0,169.833,120.5Zm8.225-29.684c.453-.322.95-.631,1.382-1.008a.635.635,0,0,0,.064-.62,16.519,16.519,0,0,0-4.928-3.39Zm-3.519,28.6a15.551,15.551,0,0,0,5.015-3.329c.076-.117.1-.4.026-.459a6.342,6.342,0,0,0-1.5-1c-.12-.047-.535.611-.8.956-.137.181-.225.4-.359.585C176.149,117.233,175.365,118.294,174.538,119.419Z" transform="translate(-118.006 -76.358)" fill="#3693ff"/>
    <path id="Path_10091" data-name="Path 10091" d="M37.742,118.785H27.7c-.924,0-1-.073-1-1.014q-.009-4.678,0-9.356c0-.912.082-.991,1.026-.991q10,0,20.012,0c.988,0,1.064.076,1.067,1.032,0,3.145-.02,6.287.009,9.432.006.725-.266.915-.947.912-3.373-.023-6.746-.012-10.122-.012Z" transform="translate(-19.176 -94.088)" fill="#3693ff"/>
    <path id="Path_10092" data-name="Path 10092" d="M123.844,143.252c-3.68-2.028-6.778-1.555-9.192,1.716a5.973,5.973,0,0,0,.2,6.719,5.864,5.864,0,0,0,4.13,2.519,7.164,7.164,0,0,0,4.793-1.111c.041.406.085.646.085.889.006,1.841-.009,3.68.012,5.521a1.046,1.046,0,0,1-.865,1.163.972.972,0,0,1-1.245-.6c-.3-.593-.582-1.2-.883-1.786a1.633,1.633,0,0,0-2.978-.143c-.36.558-.731,1.111-1.09,1.669a.939.939,0,0,1-1.312.406c-.789-.365-1.578-.728-2.356-1.117a.874.874,0,0,1-.473-1.213c.24-.646.456-1.3.681-1.952a1.59,1.59,0,0,0-1.891-2.177c-.728.14-1.45.3-2.177.435a.931.931,0,0,1-1.184-.693c-.246-.754-.506-1.5-.789-2.242a.911.911,0,0,1,.509-1.266c.658-.342,1.327-.658,1.985-1a1.533,1.533,0,0,0,.149-2.771c-.57-.389-1.157-.748-1.748-1.111a1,1,0,0,1-.447-1.432q.535-1.1,1.093-2.195a.879.879,0,0,1,1.2-.5c.625.225,1.266.406,1.882.649a1.739,1.739,0,0,0,1.862-.292,1.429,1.429,0,0,0,.476-1.64c-.161-.634-.459-1.426-.216-1.909.2-.392,1.114-.4,1.689-.637a13.31,13.31,0,0,0,1.722-.827c.418-.246.646-.161.842.245.266.552.538,1.1.836,1.64a1.647,1.647,0,0,0,2.49.5c.7-.549,2.119-.076,2.189.807.094,1.16.023,2.335.023,3.724Z" transform="translate(-76.165 -114.448)" fill="#3693ff"/>
    <path id="Path_10093" data-name="Path 10093" d="M55.456,214.333c-3.934,0-7.868.006-11.8,0a1.486,1.486,0,0,1-1.529-2.09,1.461,1.461,0,0,1,1.488-.868q3.485.009,6.974,0c.967,0,1.035-.07,1.038-1.058,0-1.713.023-3.425-.015-5.135-.015-.71.284-.965.95-.959,1.993.015,3.984.026,5.977.015.681,0,.962.272.95.965-.029,1.762.012,3.525-.023,5.287-.015.666.2.9.877.889,2.376-.029,4.752-.015,7.129,0a1.382,1.382,0,0,1,1.546,1.078c.246,1.111-.371,1.862-1.6,1.871-2.709.018-5.416.006-8.125.009H55.462Z" transform="translate(-29.996 -162.594)" fill="#3693ff"/>
    <path id="Path_10094" data-name="Path 10094" d="M105.509,98.9a9.189,9.189,0,0,1,.912.351c1.178.611,2.347,1.239,3.522,1.859A2.447,2.447,0,0,0,113,99.969a2.291,2.291,0,0,0-1.07-3.06c-1.134-.585-2.28-1.146-3.405-1.745-.2-.105-.447-.336-.459-.52a.792.792,0,0,1,.374-.59c4.679-2.575,9.622.234,10.066,4.732a2.217,2.217,0,0,0,1.505,2.192,9.137,9.137,0,0,1,2.023,1.076,1.552,1.552,0,0,1,.611,1.029c.073,1.324.038,2.654.023,3.984-.009.775-.158.862-.871.494-1.406-.728-2.826-1.429-4.188-2.233a2.3,2.3,0,0,0-2.554-.02,6.511,6.511,0,0,1-9.54-4.636A11.4,11.4,0,0,1,105.5,98.9Z" transform="translate(-74.928 -83.931)" fill="#3693ff"/>
    <path id="Path_10095" data-name="Path 10095" d="M50.7,81.408c-1.634.853-1.909,2.271-1.911,3.876,0,1.76.441,1.847-1.879,1.838q-9.54-.039-19.083-.064c-1.1,0-1.125-.032-1.122-1.108,0-1.251.018-2.5,0-3.756-.009-.576.181-.824.795-.824q11.46.018,22.917.006a2.385,2.385,0,0,1,.286.032Z" transform="translate(-19.179 -75.65)" fill="#3693ff"/>
    <path id="Path_10098" data-name="Path 10098" d="M82.111,154.082a1.405,1.405,0,0,1-1.523,1.45,1.426,1.426,0,0,1-1.458-1.523,1.381,1.381,0,0,1,1.532-1.429,1.356,1.356,0,0,1,1.447,1.5Z" transform="translate(-56.285 -126.047)" fill="#3693ff"/>
    <path id="Path_10099" data-name="Path 10099" d="M62.96,154.167a1.327,1.327,0,0,1,1.441-1.409,1.358,1.358,0,0,1,1.418,1.377A1.4,1.4,0,0,1,64.4,155.6a1.362,1.362,0,0,1-1.435-1.432Z" transform="translate(-44.842 -126.173)" fill="#3693ff"/>
    <path id="Path_10100" data-name="Path 10100" d="M97.455,155.457a2.121,2.121,0,0,1-1.105-.32,1.356,1.356,0,0,1,.26-2.32,2.835,2.835,0,0,1,.846-.141Z" transform="translate(-68.066 -126.123)" fill="#3693ff"/>
  </g>
</svg>
