<svg xmlns="http://www.w3.org/2000/svg" width="45.219" height="52.756" viewBox="0 0 45.219 52.756">
  <g id="phonebook" transform="translate(-4 -2)">
    <path id="Path_10084" data-name="Path 10084" d="M11.537,54.756h32.03A5.652,5.652,0,0,0,49.219,49.1V7.652A5.652,5.652,0,0,0,43.567,2H11.537A5.652,5.652,0,0,0,5.884,7.652v3.768H4v3.768H5.884v3.768H4v3.768H5.884v3.768H4v3.768H5.884V34.03H4V37.8H5.884v3.768H4v3.768H5.884V49.1A5.652,5.652,0,0,0,11.537,54.756ZM9.652,45.335h1.884V41.567H9.652V37.8h1.884V34.03H9.652V30.262h1.884V26.494H9.652V22.726h1.884V18.957H9.652V15.189h1.884V11.421H9.652V7.652a1.884,1.884,0,0,1,1.884-1.884h32.03a1.884,1.884,0,0,1,1.884,1.884V49.1a1.884,1.884,0,0,1-1.884,1.884H11.537A1.884,1.884,0,0,1,9.652,49.1Z" fill="#3693ff"/>
    <path id="Path_10085" data-name="Path 10085" d="M14.522,36.827H32.986a4.541,4.541,0,0,0,4.522-4.522V28.349a9.741,9.741,0,0,0-5.841-8.931,8.008,8.008,0,0,0,.565-2.939,8.479,8.479,0,0,0-16.957,0,8.177,8.177,0,0,0,.565,2.958A9.684,9.684,0,0,0,10,28.349v3.957a4.541,4.541,0,0,0,4.522,4.522Zm9.232-25.059a4.71,4.71,0,1,1-4.71,4.71A4.71,4.71,0,0,1,23.754,11.768Zm-9.986,16.58A5.992,5.992,0,0,1,17.951,22.7a8.384,8.384,0,0,0,11.606,0,5.992,5.992,0,0,1,4.183,5.652v3.957a.754.754,0,0,1-.754.754H14.522a.754.754,0,0,1-.754-.754Z" transform="translate(5.305 5.305)" fill="#3693ff"/>
  </g>
</svg>
