<svg xmlns="http://www.w3.org/2000/svg" xmlns:xlink="http://www.w3.org/1999/xlink" width="68.815" height="73.157" viewBox="0 0 68.815 73.157">
  <defs>
    <clipPath id="clip-path">
      <rect id="Rectangle_7268" data-name="Rectangle 7268" width="68.815" height="73.157" fill="#3693ff"/>
    </clipPath>
  </defs>
  <g id="Group_12782" data-name="Group 12782" transform="translate(-29 -342.489)">
    <g id="Group_12782-2" data-name="Group 12782" transform="translate(29 342.489)">
      <g id="Group_12781" data-name="Group 12781" clip-path="url(#clip-path)">
        <path id="Path_10683" data-name="Path 10683" d="M64.191,8.928H42.439A10.477,10.477,0,0,0,32.5.009,10.138,10.138,0,0,0,26.134,1.86a10.471,10.471,0,0,0-4.42,7.091H0V73.138c.155.007.276.018.4.018q11.267,0,22.534-.009a1.454,1.454,0,0,0,.725-.231q7.332-4.6,14.651-9.22c.114-.072.222-.153.344-.238l-1.861-2.952c-.161.1-.294.175-.424.256Q29.5,65.088,22.62,69.407a1.541,1.541,0,0,1-.774.227q-8.916.019-17.831.009c-.164,0-.329-.015-.5-.023V12.461h.575q8.567,0,17.133-.011c.454,0,.625.126.734.572a10.435,10.435,0,0,0,20.251-.063c.092-.385.238-.509.642-.508q8.636.022,17.273.01h.507V29.577H56.043V52.554h4.582v17.1H39.174v3.471H64.187v-20.6h4.628V29.564H64.191ZM39.484,14.112l-.041.08a8.334,8.334,0,0,1-3.29,3.437,7.808,7.808,0,0,1-4.061,1.083h-.039c-.04,0-.079,0-.119,0l-.153,0a8.3,8.3,0,1,1,8.039-5.363c-.035.093-.071.185-.109.276-.011.027-.023.054-.035.081-.035.082-.072.164-.11.244-.027.056-.054.112-.082.167M66.168,49.876H58.657V32.211h7.511Z" transform="translate(0 0)" fill="#3693ff"/>
      </g>
      <path id="Path_10684" data-name="Path 10684" d="M21.017,23.851H19.342c-.841,0-1.2,3.351-2.914,3.351-2.061,0-2.579-6.7-4.37-6.7s-1.46,3.355-2.932,3.355H7.573" transform="translate(17.55 -13.593)" fill="none" stroke="#3693ff" stroke-linecap="round" stroke-linejoin="round" stroke-width="1.5"/>
    </g>
  </g>
</svg>
