<svg xmlns="http://www.w3.org/2000/svg" width="40.366" height="65.562" viewBox="0 0 40.366 65.562">
  <path id="Path_3319" data-name="Path 3319" d="M33.756,65.562H6.61A6.635,6.635,0,0,1,0,58.952V6.594A6.6,6.6,0,0,1,6.61,0H33.756a6.635,6.635,0,0,1,6.61,6.594V58.952a6.494,6.494,0,0,1-1.816,4.541A6.6,6.6,0,0,1,33.756,65.562ZM15.136,23.31a2.523,2.523,0,1,0-5.047,0V52.338a2.523,2.523,0,0,0,5.047,0ZM28.485,16.7a2.523,2.523,0,1,0-5.047,0V45.728a2.523,2.523,0,0,0,5.047,0Z" transform="translate(0 0)" fill="#3693ff"/>
</svg>
