<svg xmlns="http://www.w3.org/2000/svg" width="70" height="49.37" viewBox="0 0 70 49.37">
  <g id="rounds" transform="translate(-5 -15.315)">
    <path id="Path_10101" data-name="Path 10101" d="M37.544,55.219a5.838,5.838,0,0,0,7.906-2.376,5.707,5.707,0,0,0,.659-2.134l3.426-13.663a2,2,0,0,0-3.41-1.843L36.294,45.855a5.651,5.651,0,0,0-1.116,1.455A5.844,5.844,0,0,0,37.544,55.219ZM38.7,49.207a1.63,1.63,0,0,1,.352-.453,1.934,1.934,0,0,0,.188-.192l4.509-4.886L42.19,49.89a2.035,2.035,0,0,0-.056.352,1.7,1.7,0,0,1-.207.7A1.833,1.833,0,1,1,38.7,49.207Z" fill="#3693ff"/>
    <path id="Path_10102" data-name="Path 10102" d="M5.594,55.362,14.35,64.1a2,2,0,0,0,1.413.584H64.106a2,2,0,0,0,1.413-.584l8.887-8.87a2,2,0,0,0,.587-1.412l.007-3.5v0a35,35,0,1,0-70,0l.007,3.632A2,2,0,0,0,5.594,55.362ZM40,19.315a31.035,31.035,0,0,1,31,31l-.005,2.673-7.715,7.7H16.59L9.006,53.116,9,50.315A31.035,31.035,0,0,1,40,19.315Z" fill="#3693ff"/>
    <path id="Path_10103" data-name="Path 10103" d="M40,32a2,2,0,0,0,2-2v-3.75a2,2,0,1,0-4,0V30A2,2,0,0,0,40,32Zm16.352,6.773a2,2,0,0,0,1.415-.586l2.651-2.652a2,2,0,1,0-2.829-2.828l-2.651,2.652a2,2,0,0,0,1.415,3.414Zm-34.118-.586a2,2,0,1,0,2.828-2.828l-2.652-2.652a2,2,0,0,0-2.828,2.828Z" fill="#3693ff"/>
  </g>
</svg>
