<svg xmlns="http://www.w3.org/2000/svg" width="31.488" height="19.669" viewBox="0 0 31.488 19.669">
  <path id="sensor" d="M52.278,992.5a9.942,9.942,0,0,0-9.675,7.85H44.08a8.428,8.428,0,1,1,.029,4.171H42.632A9.867,9.867,0,1,0,52.278,992.5Zm-.174,3.737a6.144,6.144,0,0,0-5.794,4.113h1.535a4.679,4.679,0,0,1,4.258-2.752,4.736,4.736,0,0,1,0,9.472,4.677,4.677,0,0,1-4.171-2.549H46.369a6.133,6.133,0,1,0,5.736-8.285ZM39.735,997.71a.7.7,0,0,0-.492.406l-1.883,4.027-1.477,3.128-.927-3.042a.7.7,0,0,0-.666-.492H31.334a.7.7,0,1,0,0,1.39h2.433l1.333,4.258a.7.7,0,0,0,1.275.116l2.26-4.78,1.217-2.578,1.014,2.549a.7.7,0,0,0,.637.435h8.43a2.561,2.561,0,0,0,2.4,1.738,2.52,2.52,0,1,0,0-5.04,2.571,2.571,0,0,0-2.462,1.912H41.966l-1.448-3.592a.7.7,0,0,0-.724-.434h-.057Z" transform="translate(-30.639 -992.496)" fill="#b52295"/>
</svg>
