<svg xmlns="http://www.w3.org/2000/svg" width="50.075" height="48.851" viewBox="0 0 50.075 48.851">
  <path id="topology" d="M45.012,38.724V26.706a5.828,5.828,0,0,0-5.786-6.12H26.651V11.35A5.894,5.894,0,1,0,18.528,5.9,5.981,5.981,0,0,0,22.2,11.35v9.236H9.625a5.86,5.86,0,0,0-5.786,6.12V38.724A5.966,5.966,0,0,0,0,44.177a5.842,5.842,0,0,0,5.786,5.9,6.034,6.034,0,0,0,6.009-5.9,6.7,6.7,0,0,0-3.561-5.453V26.706c0-.946.445-1.669,1.335-1.669H22.2V38.724a5.813,5.813,0,0,0-3.672,5.453,5.9,5.9,0,1,0,11.8,0,5.813,5.813,0,0,0-3.672-5.453V25.037H39.225c.946,0,1.335.779,1.335,1.669V38.724a6.644,6.644,0,0,0-3.505,5.453,6,6,0,0,0,6.009,5.9,5.806,5.806,0,0,0,5.786-5.9A5.966,5.966,0,0,0,45.012,38.724ZM24.425,3.338A2.559,2.559,0,1,1,21.866,5.9,2.589,2.589,0,0,1,24.425,3.338ZM5.731,46.736a2.559,2.559,0,1,1,0-5.119,2.559,2.559,0,1,1,0,5.119Zm18.695,0a2.559,2.559,0,1,1,2.559-2.559A2.589,2.589,0,0,1,24.425,46.736Zm18.695,0a2.559,2.559,0,1,1,2.559-2.559A2.589,2.589,0,0,1,43.12,46.736Z" transform="translate(0 48.851) rotate(-90)" fill="#3693ff"/>
</svg>
