<svg xmlns="http://www.w3.org/2000/svg" width="113.926" height="108.128" viewBox="0 0 113.926 108.128">
  <path id="Path_12322" data-name="Path 12322" d="M-1981.854-3625.872c-1.315,0-2.732-.046-4.1-.09s-2.76-.089-4.048-.089h-63.806a1.368,1.368,0,0,0-.264-.035,17.173,17.173,0,0,1-6.082-1.651,8.249,8.249,0,0,1-4.815-7.8v-.867H-2065v-87.248h.028a14.3,14.3,0,0,1,1.579-5.214,9.818,9.818,0,0,1,3.1-3.534,9.839,9.839,0,0,1,5.643-1.6h78.632c0,.073.15.114.394.181.89.247,2.968.825,3.167,4.472a4.039,4.039,0,0,1-3.063,4.359,2.794,2.794,0,0,0-.5.219c-8.225.116-16.729.175-25.274.175-8.5,0-16.841-.059-24.8-.175h-24.644v.28a1.654,1.654,0,0,1-1.039.354,2.846,2.846,0,0,1-.612-.075,7.506,7.506,0,0,1-.726,1.38,3.565,3.565,0,0,0-.7,3.347v.867h.28a2.8,2.8,0,0,0,1.525,1.951,2.959,2.959,0,0,1,.74.567h85.29v73.541l-.072,1.8-.179,4.475a11.2,11.2,0,0,1-1.843,5.186,10.649,10.649,0,0,1-3.978,3.55,16.116,16.116,0,0,1-7.5,1.612C-1980.227-3625.892-1980.98-3625.872-1981.854-3625.872Zm-46.718-45.648a5.578,5.578,0,0,0-5.572,5.572v1.857a13.741,13.741,0,0,0,4.912,10.176c2.431,2.136,6.775,4.683,13.662,4.683s11.231-2.547,13.662-4.683a13.741,13.741,0,0,0,4.912-10.176v-1.857a5.578,5.578,0,0,0-5.571-5.572Zm13-24.146a10.227,10.227,0,0,0-10.215,10.216,10.227,10.227,0,0,0,10.215,10.215,10.227,10.227,0,0,0,10.216-10.215A10.228,10.228,0,0,0-2015.571-3695.666Zm62.825,56.88h0c-1.516,0-2.746-.031-4.049-.065h-.045c-1.318-.033-2.681-.068-4.379-.068v-19.553h10.146v17.623a1.831,1.831,0,0,1-1.531,2.011c-.085.021-.139.035-.141.051Zm.29-24.69a1.4,1.4,0,0,1-.29-.031h-8.474v-19.609h10.146v18.108C-1951.074-3664.587-1951.5-3663.477-1952.456-3663.477Zm-1.741-25.166c-.851,0-2-.01-3.112-.019h-.045c-1.325-.011-2.694-.022-3.866-.022v-19.3h10.146c0,.047-.048,13.9-.048,17.216,0,1.815-1.017,2.086-1.624,2.086A11.558,11.558,0,0,1-1954.2-3688.642Z" transform="translate(2065 3734)" fill="#3693ff"/>
</svg>
