<svg id="workorder" xmlns="http://www.w3.org/2000/svg" width="12.036" height="17.592" viewBox="0 0 12.036 17.592">
  <path id="Path_10045" data-name="Path 10045" d="M4.252,8.144H9.344a.463.463,0,1,0,0-.926H4.252a.463.463,0,1,0,0,.926Zm0,2.778H9.344a.463.463,0,1,0,0-.926H4.252a.463.463,0,1,0,0,.926Zm0,2.778H9.344a.463.463,0,1,0,0-.926H4.252a.463.463,0,1,0,0,.926Zm0,2.778H9.344a.463.463,0,1,0,0-.926H4.252a.463.463,0,1,0,0,.926ZM2.863,8.144A.463.463,0,1,0,2.4,7.681.464.464,0,0,0,2.863,8.144Zm0,2.778a.463.463,0,1,0-.463-.463A.464.464,0,0,0,2.863,10.922Zm0,2.778a.463.463,0,1,0-.463-.463A.464.464,0,0,0,2.863,13.7Zm0,2.778a.463.463,0,1,0-.463-.463A.464.464,0,0,0,2.863,16.477ZM4.252,3.052H3.326a.926.926,0,0,0-.926.926V4.9a.926.926,0,0,0,.926.926H8.881A.926.926,0,0,0,9.807,4.9V3.978a.926.926,0,0,0-.926-.926H7.955a1.852,1.852,0,1,0-3.7,0Zm4.629.926V4.9H3.326V3.978H4.715a.462.462,0,0,0,.463-.463V3.052a.926.926,0,0,1,1.852,0v.463a.462.462,0,0,0,.463.463Z" transform="translate(-0.085 -1.2)" fill="#18bb44" fill-rule="evenodd"/>
  <path id="Path_10046" data-name="Path 10046" d="M3.978,2.64H2.589A1.39,1.39,0,0,0,1.2,4.029V16.065a1.39,1.39,0,0,0,1.389,1.389h9.259a1.39,1.39,0,0,0,1.389-1.389V4.029A1.39,1.39,0,0,0,11.848,2.64H10.459a.463.463,0,0,0,0,.926h1.389a.464.464,0,0,1,.463.463V16.065a.464.464,0,0,1-.463.463H2.589a.464.464,0,0,1-.463-.463V4.029a.464.464,0,0,1,.463-.463H3.978a.463.463,0,1,0,0-.926Z" transform="translate(-1.2 0.138)" fill="#18bb44" fill-rule="evenodd"/>
</svg>
