<svg xmlns="http://www.w3.org/2000/svg" width="17.114" height="15.363" viewBox="0 0 17.114 15.363">
  <g id="auth_failiure" transform="translate(-205.324 -166.569)">
    <g id="Group_3773" data-name="Group 3773" transform="translate(184.994 157.859)">
      <path id="Path_3410" data-name="Path 3410" d="M21.166,28.435a.836.836,0,0,1-.836-.836V19.406a.836.836,0,0,1,.836-.836h6.508a.836.836,0,0,1,0,1.673H22V27.6A.836.836,0,0,1,21.166,28.435Zm11.343,0H23.721a.836.836,0,0,1,0-1.673h7.952V20.243h-.931a.836.836,0,1,1,0-1.673h1.745a.836.836,0,0,1,.836.836V27.6A.836.836,0,0,1,32.509,28.435Z" transform="translate(0 -4.362)" fill="#fff"/>
      <path id="Path_3411" data-name="Path 3411" d="M32.108,15.881a.836.836,0,0,1-.836-.836V13.472a3.089,3.089,0,1,0-6.179,0v1.573a.836.836,0,1,1-1.673,0V13.472a4.762,4.762,0,1,1,9.525,0v1.573A.836.836,0,0,1,32.108,15.881Z" transform="translate(-1.367 0)" fill="#fff"/>
      <path id="Path_3415" data-name="Path 3415" d="M51.63,46.706a.809.809,0,0,1-.591-.245l-2.454-2.448a.836.836,0,0,1,1.188-1.165L52.221,45.3a.842.842,0,0,1,0,1.182A.825.825,0,0,1,51.63,46.706Z" transform="translate(-15.019 -33.473)" fill="#ef5350"/>
      <path id="Path_3416" data-name="Path 3416" d="M49.129,46.663a.825.825,0,0,1-.591-.245.842.842,0,0,1,0-1.182L50.991,42.8a.831.831,0,0,1,1.182,0,.842.842,0,0,1,0,1.182l-2.448,2.448A.831.831,0,0,1,49.129,46.663Z" transform="translate(-14.972 -33.43)" fill="#ef5350"/>
    </g>
  </g>
</svg>
