<svg xmlns="http://www.w3.org/2000/svg" width="21.431" height="13.966" viewBox="0 0 21.431 13.966">
  <g id="epg_neighbour" transform="translate(-201.766 -227.767)">
    <g id="Group_3777" data-name="Group 3777" transform="translate(-1422.734 -331.233)">
      <path id="Path_3425" data-name="Path 3425" d="M7,11.524a.9.9,0,0,0,.9.9h4.153L9.977,14.5a.909.909,0,1,0,1.285,1.285l3.62-3.62a.935.935,0,0,0,0-1.285l-3.62-3.62A.909.909,0,1,0,9.977,8.547l2.081,2.072H7.9A.9.9,0,0,0,7,11.524Z" transform="translate(1630.791 554.459)" fill="#eccc00"/>
      <path id="Path_3426" data-name="Path 3426" d="M13.078,2H6.095A2.1,2.1,0,0,0,4,4.095V6.19a.7.7,0,1,0,1.4,0V4.095a.7.7,0,0,1,.7-.7h6.983a.7.7,0,0,1,.7.7v9.776a.7.7,0,0,1-.7.7H6.095a.7.7,0,0,1-.7-.7V11.776a.7.7,0,1,0-1.4,0v2.095a2.1,2.1,0,0,0,2.095,2.095h6.983a2.1,2.1,0,0,0,2.095-2.095V4.095A2.1,2.1,0,0,0,13.078,2Z" transform="translate(1623.944 557)" fill="#eccc00"/>
      <line id="Line_298" data-name="Line 298" x1="7.681" transform="translate(1625.5 565.984)" fill="none" stroke="#eccc00" stroke-linecap="round" stroke-width="2"/>
    </g>
  </g>
</svg>
