<svg xmlns="http://www.w3.org/2000/svg" width="16.813" height="16.813" viewBox="0 0 16.813 16.813">
  <g id="enterprise" transform="translate(-204.442 -72.844)">
    <g id="Group_3775" data-name="Group 3775" transform="translate(203.442 71.844)">
      <path id="Path_3419" data-name="Path 3419" d="M23.784,1A3.291,3.291,0,0,0,20.5,4.31a3.367,3.367,0,0,0,.63,1.944,2.7,2.7,0,0,1,1-2.417,1.931,1.931,0,0,1,1.655-.919,2.01,2.01,0,0,1,1.681.919,2.7,2.7,0,0,1,1,2.417A3.31,3.31,0,0,0,23.784,1Z" transform="translate(-14.377)" fill="#eccc00"/>
      <circle id="Ellipse_500" data-name="Ellipse 500" cx="1.471" cy="1.471" r="1.471" transform="translate(7.935 3.443)" fill="#eccc00"/>
      <path id="Path_3420" data-name="Path 3420" d="M23.71,50.254A3.31,3.31,0,0,0,26.389,45a2.627,2.627,0,0,1-1,2.391,1.976,1.976,0,0,1-1.681.919,2.01,2.01,0,0,1-1.681-.919,2.681,2.681,0,0,1-1-2.391,3.31,3.31,0,0,0,2.679,5.254Z" transform="translate(-14.304 -32.441)" fill="#eccc00"/>
      <circle id="Ellipse_501" data-name="Ellipse 501" cx="1.471" cy="1.471" r="1.471" transform="translate(7.935 12.427)" fill="#eccc00"/>
      <path id="Path_3421" data-name="Path 3421" d="M46.944,20.5A3.306,3.306,0,0,0,45,21.13a2.7,2.7,0,0,1,2.417,1,1.976,1.976,0,0,1,.919,1.681,1.931,1.931,0,0,1-.919,1.655,2.7,2.7,0,0,1-2.417,1A3.3,3.3,0,1,0,46.944,20.5Z" transform="translate(-32.441 -14.377)" fill="#eccc00"/>
      <circle id="Ellipse_502" data-name="Ellipse 502" cx="1.471" cy="1.471" r="1.471" transform="translate(12.427 7.935)" fill="#eccc00"/>
      <path id="Path_3422" data-name="Path 3422" d="M4.31,27.02a3.306,3.306,0,0,0,1.944-.63,2.7,2.7,0,0,1-2.417-1,2,2,0,0,1,0-3.363,2.654,2.654,0,0,1,2.391-1A3.3,3.3,0,1,0,4.31,27.02Z" transform="translate(0 -14.304)" fill="#eccc00"/>
      <circle id="Ellipse_503" data-name="Ellipse 503" cx="1.471" cy="1.471" r="1.471" transform="translate(3.443 7.935)" fill="#eccc00"/>
    </g>
  </g>
</svg>
