<svg xmlns="http://www.w3.org/2000/svg" width="16.973" height="16.973" viewBox="0 0 16.973 16.973">
  <g id="experimental" transform="translate(-204.282 -41.764)">
    <g id="Group_3776" data-name="Group 3776" transform="translate(203.782 41.264)">
      <path id="Path_3423" data-name="Path 3423" d="M8.986.5a8.486,8.486,0,1,0,8.486,8.486A8.5,8.5,0,0,0,8.986.5Zm0,15.33a6.811,6.811,0,0,1-4.668-1.853,4.015,4.015,0,0,1,.89-1.109,5.74,5.74,0,0,1,3.778-1.341,5.5,5.5,0,0,1,4.243,1.829,3.6,3.6,0,0,1,.419.627A6.811,6.811,0,0,1,8.986,15.83Zm5.774-3.185A6.99,6.99,0,0,0,8.986,9.884a6.958,6.958,0,0,0-5.769,2.769A6.84,6.84,0,1,1,15.83,8.986,6.8,6.8,0,0,1,14.76,12.645Z" fill="#eccc00"/>
      <path id="Path_3424" data-name="Path 3424" d="M13.749,6.025a2.724,2.724,0,1,0,2.724,2.724A2.727,2.727,0,0,0,13.749,6.025Zm0,3.8A1.081,1.081,0,1,1,14.83,8.749,1.082,1.082,0,0,1,13.749,9.83Z" transform="translate(-4.763 -2.5)" fill="#eccc00"/>
    </g>
  </g>
</svg>
