<svg xmlns="http://www.w3.org/2000/svg" width="20.236" height="20.236" viewBox="0 0 20.236 20.236">
  <g id="linkdown" transform="translate(-202.65 -134.301)">
    <g id="Group_3772" data-name="Group 3772" transform="translate(202.65 134.301)">
      <path id="Path_3733" data-name="Path 3733" d="M0,0H20.236V20.236H0Z" fill="none"/>
      <path id="Path_2640" data-name="Path 2640" d="M12.313,9.5a3.806,3.806,0,0,1-5.979.884L7.08,9.051a2.383,2.383,0,0,0,3.976-.27l1.991-3.546A2.39,2.39,0,1,0,8.891,2.876l-.7,1.247a5.27,5.27,0,0,0-1.646.187c-.05.014-.1.033-.145.048l1.239-2.2a3.835,3.835,0,1,1,6.669,3.786ZM6.445,12.771l-1.119.891a2.379,2.379,0,0,1-3.354-.386,2.406,2.406,0,0,1,.385-3.37L5.533,7.373a2.36,2.36,0,0,1,1.759-.5L7.456,5.43a3.789,3.789,0,0,0-2.818.8L1.463,8.77A3.861,3.861,0,0,0,.92,14.117a3.817,3.817,0,0,0,5.307.677l1.965-1.568c-.051,0-.1,0-.152-.01a5.274,5.274,0,0,1-1.595-.445Zm6.363-1.035a.6.6,0,0,0-.851,0,.606.606,0,0,0,0,.855l1.531,1.538a.6.6,0,0,0,.851,0h0a.608.608,0,0,0,0-.855Zm1.879-1.526L13.4,9.747a.6.6,0,0,0-.4,1.138l1.288.463a.6.6,0,0,0,.4-1.138Zm-3.572,2.565a.6.6,0,0,0-1.133.407l.46,1.294a.6.6,0,0,0,1.133-.406ZM3.079,3.914A.6.6,0,0,0,4.1,3.653a.607.607,0,0,0-.176-.593L2.4,1.521a.6.6,0,0,0-.851,0,.606.606,0,0,0,0,.855ZM1.2,5.44,2.488,5.9A.606.606,0,0,0,2.9,4.761L1.6,4.3a.6.6,0,0,0-.61.094A.606.606,0,0,0,1.2,5.436ZM4.772,2.873a.6.6,0,1,0,1.133-.406l-.46-1.295a.6.6,0,1,0-1.133.406Z" transform="translate(2.7 2.191)" fill="#ef5350"/>
    </g>
  </g>
</svg>
