<svg xmlns="http://www.w3.org/2000/svg" width="12.658" height="16.397" viewBox="0 0 12.658 16.397">
  <g id="linkup" transform="translate(-239.379 -136.22)">
    <g id="Group_3771" data-name="Group 3771" transform="translate(234.061 133.523)">
      <path id="Path_3408" data-name="Path 3408" d="M17.2,3.729a3.525,3.525,0,0,0-4.985,0L8.472,7.468a3.525,3.525,0,1,0,4.985,4.985l.443-.443a2.739,2.739,0,0,0-.443-.8,2.739,2.739,0,0,0-.8-.443l-.443.443A1.762,1.762,0,0,1,9.718,8.714l3.739-3.739a1.763,1.763,0,1,1,2.493,2.493l-.623.623a5.224,5.224,0,0,1,.7.553,4.969,4.969,0,0,1,.543.694l.623-.623A3.525,3.525,0,0,0,17.2,3.729Z" transform="translate(-0.252 0)" fill="#2cbb00"/>
      <path id="Path_3409" data-name="Path 3409" d="M15.074,10.093a3.525,3.525,0,0,0-4.985,0l-.477.477a3.262,3.262,0,0,0,.48.772,3.187,3.187,0,0,0,.767.475l.477-.477a1.762,1.762,0,0,1,2.493,2.493l-3.739,3.739A1.762,1.762,0,0,1,7.6,15.078l.686-.686a6.9,6.9,0,0,1-.686-.56,6.9,6.9,0,0,1-.56-.686l-.686.686a3.525,3.525,0,0,0,4.985,4.985l3.739-3.739A3.525,3.525,0,0,0,15.074,10.093Z" transform="translate(0 -0.756)" fill="#2cbb00"/>
    </g>
  </g>
</svg>
