<svg xmlns="http://www.w3.org/2000/svg" width="19.18" height="19.18" viewBox="0 0 19.18 19.18">
  <g id="system" transform="translate(-203.259 -11.74)">
    <g id="Group_3774" data-name="Group 3774" transform="translate(203.259 11.74)">
      <path id="Path_3417" data-name="Path 3417" d="M0,0H19.18V19.18H0Z" fill="none"/>
      <path id="Path_3418" data-name="Path 3418" d="M17.983,4H3.6A1.6,1.6,0,0,0,2,5.6v9.59a1.6,1.6,0,0,0,1.6,1.6H9.192v1.6h-1.6v1.6h6.393v-1.6h-1.6v-1.6h5.594a1.6,1.6,0,0,0,1.6-1.6V5.6A1.6,1.6,0,0,0,17.983,4Zm0,11.188H3.6V5.6H17.983Z" transform="translate(-1.201 -2.402)" fill="#3693ff"/>
    </g>
  </g>
</svg>
