<svg xmlns="http://www.w3.org/2000/svg" width="16.075" height="12.86" viewBox="0 0 16.075 12.86">
  <g id="vendor_spec" transform="translate(-237.961 -168.068)">
    <path id="Icon_awesome-user-tag" data-name="Icon awesome-user-tag" d="M15.84,9.166,13.572,6.9a1.608,1.608,0,0,0-1.138-.47H10.442a.8.8,0,0,0-.8.8V9.224a1.6,1.6,0,0,0,.47,1.135l2.268,2.266a.805.805,0,0,0,1.138,0L15.838,10.3A.8.8,0,0,0,15.84,9.166Zm-4.592-.527a.6.6,0,1,1,.6-.6A.6.6,0,0,1,11.248,8.638ZM5.627,6.428A3.214,3.214,0,1,0,2.411,3.215,3.215,3.215,0,0,0,5.627,6.428Zm3.21,2.793V7.385a3.379,3.379,0,0,0-.96-.156H7.458a4.373,4.373,0,0,1-3.662,0H3.376A3.381,3.381,0,0,0,0,10.608v1.045a1.206,1.206,0,0,0,1.206,1.206h8.842A1.2,1.2,0,0,0,11,12.384L9.543,10.927a2.4,2.4,0,0,1-.706-1.706Z" transform="translate(237.961 168.068)" fill="#eccc00"/>
  </g>
</svg>
