<svg xmlns="http://www.w3.org/2000/svg" width="16.242" height="16.757" viewBox="0 0 16.242 16.757">
  <g id="warm_start" transform="translate(-236.648 -105.872)">
    <path id="Path_3407" data-name="Path 3407" d="M33.6,21.241a6.823,6.823,0,0,0-2.547-1.622,6.937,6.937,0,1,0,4.138,8.85.727.727,0,1,1,1.368.492,8.343,8.343,0,1,1-5.014-10.71,8.27,8.27,0,0,1,3.485,2.4l1.544-.639-.346,4.865-3.684-3.2Zm-5.618,2.442-.051,4.894a.727.727,0,1,0,1.454.015l.051-4.894a.727.727,0,0,0-1.454-.015Z" transform="translate(216.292 88.112)" fill="#3693ff" fill-rule="evenodd"/>
  </g>
</svg>
