<svg xmlns="http://www.w3.org/2000/svg" width="48" height="34" viewBox="0 0 48 34">
  <g id="generic" transform="translate(0 -7)">
    <path id="XMLID_64_" d="M42,30V26.4l.3.3a.967.967,0,0,0,1.4,0,.967.967,0,0,0,0-1.4l-2-2c-.1-.1-.2-.2-.3-.2a1.1,1.1,0,0,0-.8,0c-.1.1-.2.1-.3.2l-2,2a.99.99,0,0,0,1.4,1.4l.3-.3V30a.945.945,0,0,1-1,1H28a1,1,0,0,0,0,2H39A2.946,2.946,0,0,0,42,30Z" />
    <path id="XMLID_69_" d="M30,21H41a1,1,0,0,0,0-2H30a2.946,2.946,0,0,0-3,3v3.6l-.3-.3a.99.99,0,0,0-1.4,1.4l2,2c.1.1.2.2.3.2a.85.85,0,0,0,.8,0c.1-.1.2-.1.3-.2l2-2a.99.99,0,0,0-1.4-1.4l-.3.3V22A.945.945,0,0,1,30,21Z" />
    <circle id="XMLID_74_" cx="1" cy="1" r="1" transform="translate(18 28)" />
    <circle id="XMLID_75_" cx="1" cy="1" r="1" transform="translate(38 35)" />
    <path id="XMLID_90_" d="M27,39H23V33h1a1,1,0,0,0,0-2H3a.945.945,0,0,1-1-1V27H22a1,1,0,0,0,0-2H2V10A.945.945,0,0,1,3,9H35a.945.945,0,0,1,1,1,1,1,0,0,0,2,0,2.946,2.946,0,0,0-3-3H3a2.946,2.946,0,0,0-3,3V30a2.946,2.946,0,0,0,3,3H15v6H9.5a1,1,0,0,0,0,2H27a1,1,0,0,0,0-2ZM17,39V33h4v6Z" />
    <path id="XMLID_95_" d="M45,13H33a2.946,2.946,0,0,0-3,3,1,1,0,0,0,2,0,.945.945,0,0,1,1-1H45a.945.945,0,0,1,1,1V38a.945.945,0,0,1-1,1H33a.945.945,0,0,1-1-1V36a1,1,0,0,0-2,0v2a2.946,2.946,0,0,0,3,3H45a2.946,2.946,0,0,0,3-3V16A2.946,2.946,0,0,0,45,13Z" />
  </g>
</svg>
