<svg xmlns="http://www.w3.org/2000/svg" width="564" height="86.646" viewBox="0 0 564 86.646">
  <g id="monnit" transform="translate(0 -0.85)">
    <path id="Path_8541" data-name="Path 8541" d="M314.719.946v20c-12.674-.166-18.8,2.141-24,9.5l-1.5,1v1h-.5l-1,3h-.5v1.5h-.5c-.686,1.757-1.839,8.237-1,11h.5v2h.5q.25,1.5.5,3h.5l1,3h.5v1l1.5,1c5.221,7.36,11.3,9.663,24,9.5v20c-5.833.065-12.641.355-17-1h-2.5v-.5l-4.5-1v-.5l-3-1v-.5h-1v-.5h-1v-.5l-2-.5v-.5l-1.5-.5-.5-1h-1l-1.5-2h-1l-3-3.5-1.5-1v-1l-2-1.5v-1l-1-.5-.5-1.5h-.5q-.25-1-.5-2l-1-.5v-1h-.5v-1h-.5v-1.5h-.5v-1h-.5q-.25-1.5-.5-3c-2.155-6.326-3.339-15.848-1-23v-2q1.75-4.5,3.5-9c6.958-11.132,15.142-17.746,29-22C301.3.676,309.7.928,314.719.946Z" transform="translate(-131.719 -0.021)" fill="#a6abb1" fill-rule="evenodd"/>
    <path id="Path_8542" data-name="Path 8542" d="M188.5.925c7.553-.091,15.29-.4,21,1.5,16.681,5.92,36.859,26.959,29,53a40.192,40.192,0,0,1-4,10c-9.08,14.9-21.344,22.226-46,22v-20c5.267.1,10.247.087,14-1.5,11.257-4.758,20.071-20.243,11.5-34-4.783-7.677-12.636-11.241-25.5-11Zm-83,79c-.828-8.42-4.134-17.7-6.5-25.5-1.131-3.727-.813-8.769-3-11.5v1c-2,1.644-2.582,4.221-4,6.5-3.6,5.787-7.877,11.742-11.5,17.5-2.274,3.615-3.613,8.071-7,10.5-3.254,2.492-11.125,3.6-15.5,1-4.431-2.637-6.269-8.1-9-12.5-4.869-7.849-10.827-15.563-15-24h-.5c-.227,4.318-1.9,8.375-3,12q-3,12.5-6,25H0c.284-5.142,2.611-9.795,4-14,3.617-10.6,6.058-21.675,9.5-32.5,2.221-6.794,2.63-15.628,6.5-21,2.1-2.778,7.881-6.719,14-5,6.178,1.736,8.4,7.061,11.5,12,6.4,10.2,13.441,20.453,19.5,31h.5c1.067-4.034,4.468-7.285,6.5-10.5,4.142-6.556,8-13.151,12-19.5,2.856-4.019,4.085-8.444,8-11,3.8-2.314,11.231-2.673,15,0,6.092,4.321,6.4,14.105,9,22,5.127,15.574,10.749,32.221,14.5,48.5Zm206-71.5H334v41.5c0,9.35.341,20.384-1.5,27.5-11.865,7.917-16.167-.136-24-6-8.922-6.679-17.07-13.831-26-20.5-3.793-2.832-6.924-6.813-11-9.5v38.5H249v-52.5c0-8.234-1.1-16.829,5-19,5.356-4.133,13.891,2.1,16.5,4.5a271.373,271.373,0,0,0,27,22c4.828,3.6,8.932,8.591,14,12Zm98,0h23v45c0,13.973,1.626,19.479-5.5,27-12.857,1.295-16.137-6.016-23.5-11.5-11.025-8.531-22.261-19.912-34-27.5v38.5H347v-52.5c0-8.181-1.065-16.844,5-19,5.879-4.533,14.489,2.752,17.5,5,10.641,7.944,20.227,17.456,31,25.5,3.1,2.317,5.383,5.583,9,7.5Zm35.5,0h22.5v71.5H445Zm83.5,19v52.5H506v-52.5H476.5v-.5l14-18.5H564v1c-3.175,2.8-5.075,6.691-7.5,10-1.525,2.077-3.9,3.972-5.5,6-.24.6-.32,1.676-1,2Z" fill="#1168ad" fill-rule="evenodd"/>
  </g>
</svg>
