<svg xmlns="http://www.w3.org/2000/svg" width="47.493" height="47" viewBox="0 0 47.493 47">
  <g id="net_sesh_off" transform="translate(-1455.126 -178.974)">
    <path id="net_sesh_offline" d="M55.115,18.825v.192l1.154,1.057v.1h-.192v.1l-.673.1v.1h-.385v.1h-.385v.1h-.288v.1h-.385v.1h-.385v.1h-.385v.1H52.9v.1l-1.058.192v.1h-.385v.1l-.769.1A20.2,20.2,0,0,1,48,22.382l2.212-8.266h.1v.1l.673.577.1.192h.192l.192.288c.435-.182.856-.461,1.25-.673l.385-.1v-.1h.192v-.1h.288v-.1h.192v-.1l.385-.1v-.1h.288v-.1h.192v-.1h.288v-.1h.192v-.1l.865-.192v-.1h.288v-.1h.288v-.1h.288v-.1h.288v-.1h.288v-.1l.769-.1v-.1l1.154-.192v-.1L61.173,12v-.1h.192v-.1h.288v-.1l2.308-.1a23.058,23.058,0,0,1,5.1.192h.865c.538.158,1.3.221,1.827.384h.481v.1h.385v.1H73v.1h.385v.1h.385v.1l.769.1v.1l.577.1v.1H75.4v.1h.288v.1h.288v.1h.288v.1h.288v.1l.673.1v.1l.577.192v.1H78.1v.1h.192v.1l.385.1v.1h.192v.1h.192v.1h.192v.1h.192v.1h.192v.1h.192v.1h.192v.1h.192v.1H80.4v.1H80.6v.1h.192l.1.192.385.1.1.192.385.1.1.192h.192l.1.192h.192v.1l.288.1.1.192H82.9l.1.192h.192l.1.192.288.1.192.288h.192l.288.384h.192l.288.384h.192l.288.384H85.4l.481.577.288.1.192.288L88,21.132c-.081.109.012.014-.1.1a2.252,2.252,0,0,1-.962.865,3.626,3.626,0,0,0-1.154-.961l-.288-.384h-.192l-.192-.288h-.192l-.192-.288h-.192v-.1l-.288-.1-.1-.192h-.192l-.192-.288-.385-.1v-.1l-.288-.1-.1-.192h-.192v-.1h-.192l-.1-.192h-.192v-.1h-.192v-.1h-.192v-.1H81.75l-.1-.192-.577-.192v-.1h-.192v-.1h-.192v-.1l-.577-.192v-.1h-.288v-.1l-.385-.1v-.1h-.288v-.1h-.192V17h-.288v-.1h-.192v-.1l-.577-.1v-.1h-.192v-.1l-.577-.1v-.1h-.288v-.1h-.288v-.1h-.288v-.1h-.288v-.1h-.288v-.1H75.4v-.1h-.385v-.1l-.865-.1v-.1h-.577v-.1H73v-.1h-.673v-.1h-.865a14.929,14.929,0,0,0-4.231,0h-1.25v.1h-.769v.1h-.673v.1h-.481v.1h-.673A38.679,38.679,0,0,0,59.058,17h-.288v.1h-.192v.1h-.288v.1l-.577.192v.1h-.192v.1h-.192v.1h-.288l-.1.192H56.75v.1h-.192v.1h-.192v.1h-.192v.1h-.192v.1A3.028,3.028,0,0,1,55.115,18.825Zm11.923-.192a15.958,15.958,0,0,1,8.846,2.115l.577.192v.1l.288.1.1.192.385.1.192.288h.192l.1.192H77.9l.288.384h.192l.481.577h.192l.769.865.385.288v.192l.577.481v.192l.288.192v.192l.288.192v.192l.288.192.1.384.192.1.1.288h.1l.192.577.192.1.1.384h.1l.1.384h.1v.288H83l.1.384h.1v.288h.1v.192h.1l.1.577h.1v.288h.1v.288h.1v.288h.1l.1.769h.1l.1.961h.1l.1,1.73h.1a9.8,9.8,0,0,1-.192,2.98l-.1,1.153-.673,2.5h-.1l-.1.481h-.1l-.1.384H83v.288h-.1l-.192.577h-.1v.192h-.1l-.1.384-.192.1-.1.384-.192.1-.1.384-.192.1V44.3l-.288.192v.192l-.192.1v.192l-.192.1v.1l-.192.1v.192l-.481.384v.192l-.962.865-.385.481h-.192l-.385.481h-.192l-.1.192H78l-.1.192h-.192l-.1.192h-.192l-.192.288h-.192l-.1.192-.385.1-.1.192-.385.1-.1.192-.385.1v.1H75.4v.1l-.577.192v.1h-.288v.1l-.385.1v.1l-.481.1v.1l-2.981.769-1.731.1v.1a5.716,5.716,0,0,1-1.923-.1l-1.731-.1-2.981-.769v-.1l-.481-.1v-.1l-.385-.1v-.1h-.288v-.1l-.577-.192v-.1H60.4v-.1l-.385-.1-.1-.192-.385-.1-.1-.192-.385-.1-.1-.192h-.192l-.192-.288h-.192l-.1-.192H58.1l-.1-.192h-.1l-.1-.192h-.192l-.385-.481h-.192l-.865-.961-.481-.384v-.192l-.481-.384v-.192l-.192-.1v-.1l-.192-.1v-.192l-.192-.1v-.192l-.288-.192V44.1l-.192-.1-.1-.384-.192-.1-.1-.384-.192-.1-.1-.384h-.1v-.192h-.1l-.192-.577H53v-.288h-.1l-.1-.384h-.1v-.288h-.1v-.192h-.1v-.288h-.1v-.288h-.1v-.288h-.1l-.1-.769h-.1v-.384h-.1v-.384h-.1v-.577h-.1v-.673h-.1V36.031h-.1a5.707,5.707,0,0,1,.1-1.922l.1-1.73.769-2.98h.1v-.192h.1v-.288a17.358,17.358,0,0,1,9.135-9.131h.288v-.1h.192v-.1l2.981-.769C65.74,18.7,66.766,18.871,67.038,18.633Zm.577,2.211v.1l-.481.1-.192.288H66.75l-.288.384-.192.1V22l-.288.192v.192l-.192.1-.1.384-.192.1-.1.384h-.1l-.1.384h-.1v.288h-.1l-.1.384h-.1v.288l-.481,1.153a6.387,6.387,0,0,1,1.154.288h.577a9.07,9.07,0,0,0,3.942,0H70.6v-.1c.353-.108.629.027.865-.192h.1v-.384h-.1l-.1-.481h-.1v-.288h-.1V24.4h-.1l-.1-.384h-.1v-.288h-.1l-.1-.384h-.1l-.1-.384-.192-.1-.1-.384-.192-.1-.1-.288-.288-.192v-.192l-.385-.288v-.1h-.192l-.192-.288h-.192v-.1Zm-3.846.577v.1l-.577.1v.1H63v.1h-.288v.1h-.192V22h-.288v.1l-.577.192v.1h-.192v.1l-.385.1-.1.192-.385.1-.1.192-.385.1-.192.288-.288.1.1.192.288.1.1.192h.192l.1.192.385.1.1.192.577.192a2.017,2.017,0,0,0,.865.384l.577-1.73H63v-.192h.1v-.192h.1v-.192h.1v-.192h.1v-.192l.577-.961Zm8.269,0,.769,1.25v.288h.1l.1.384h.1l.577,1.73.865-.288.1-.192h.192v-.1L75.4,24.3l.1-.192h.192v-.1c.262-.156.513-.227.673-.481-.122-.064-.132-.152-.192-.192h-.192l-.1-.192h-.192l-.1-.192H75.4l-.1-.192h-.192v-.1h-.192v-.1h-.192v-.1h-.192l-.1-.192-.481-.1v-.1h-.192V22l-.385-.1v-.1H73.1v-.1H72.9v-.1ZM53.769,34.012h7.212a32.081,32.081,0,0,1,.769-6.728l-.288-.1v-.1h-.192V27h-.192v-.1l-.481-.1-.1-.192h-.192v-.1l-.577-.192-.1-.192-.385-.1-.1-.192h-.192l-.1-.192h-.192l-.1-.192c-.222-.151-.415-.183-.577-.384-.193.055-.083-.012-.192.1-.331.2-.277.295-.481.577l-.481.384v.192l-.288.192v.192l-.288.192v.192l-.192.1v.192l-.192.1-.1.384A13.657,13.657,0,0,0,53.769,34.012ZM74.25,27.188a8.525,8.525,0,0,0,.385,1.922l.1,1.442h.1l.192,3.46h7.115l.1-.288-.481-2.6h-.1V30.84h-.1v-.288h-.1v-.288h-.1v-.288h-.1v-.192h-.1v-.288h-.1l-.192-.577h-.1v-.192h-.1v-.192h-.1l-.192-.577-.192-.1-.1-.384-.192-.1v-.192h-.1l-.1-.288-.192-.1v-.192l-.288-.192v-.192l-.481-.384V25.65l-.577-.481v-.1H77.9c-.189.308-.47.376-.769.577l-.1.192-.385.1-.1.192h-.192l-.1.192-.577.192A3.994,3.994,0,0,1,74.25,27.188ZM63.192,34.012h9.615a15.975,15.975,0,0,0-.385-4.325V29.11c-.095-.315-.169-.843-.288-1.153a18.145,18.145,0,0,1-3.462.481l-.865.1v-.1H66.269v-.1H65.5v-.1h-.577v-.1l-.865-.1v-.1c-.2-.019-.111.04-.192.1-.231.261-.074.656-.192,1.057h-.1v.577A16.635,16.635,0,0,0,63.192,34.012Zm-2.212,2.115h-4.9a8.408,8.408,0,0,0-2.308.1,14.874,14.874,0,0,0,.673,3.076v.288h.1l.1.577h.1v.192h.1v.288h.1l.192.577h.1v.192h.1v.192h.1V41.8h.1v.192h.1v.192h.1v.192h.1l.1.288.192.1.1.384.288.192v.192l.288.192v.192l.385.288v.192l.192.1.481.577c.193-.055.083.012.192-.1a.724.724,0,0,0,.385-.192v-.1h.192l.1-.192h.192l.1-.192h.192l.1-.192.385-.1.1-.192h.192v-.1h.192v-.1h.192v-.1H60.5l.1-.192h.288v-.1a4.776,4.776,0,0,0,.865-.384v-.192c-.209-.237-.083-.6-.192-.961h-.1v-.577h-.1l-.1-1.346A15.58,15.58,0,0,1,60.981,36.127Zm2.212,0a15.975,15.975,0,0,0,.385,4.325v.577c.095.315.169.843.288,1.153a13.386,13.386,0,0,1,3.462-.481,3.081,3.081,0,0,1,1.154-.1v.1h1.346v.1H70.6a15.016,15.016,0,0,1,1.538.384v-.1c.231-.261.074-.656.192-1.057h.1v-.577a16.634,16.634,0,0,0,.385-4.325Zm11.827,0-.192,3.46h-.1l-.1,1.442a11.238,11.238,0,0,0-.385,1.826l2.5,1.25.1.192h.192l.1.192a3.611,3.611,0,0,1,.865.577c.193-.055.083.012.192-.1.331-.2.278-.3.481-.577l.481-.384v-.192l.288-.192v-.192l.288-.192v-.192l.192-.1v-.192l.192-.1.1-.384.192-.1.192-.577h.1v-.192h.1l.192-.577h.1v-.288h.1v-.192h.1v-.288h.1v-.192h.1l.192-.961h.1V38.53a6.435,6.435,0,0,0,.385-2.307,5.987,5.987,0,0,0-1.923-.1Zm-8.173,7.69c-.205.171-.547,0-.865.1v.1H65.4v.1c-.351.108-.631-.028-.865.192h-.1v.384h.1l.1.481h.1v.288h.1v.288h.1l.1.384h.1v.288h.1l.1.384h.1l.1.384.192.1.1.384.192.1.1.288.288.192v.192l.385.288v.1h.192l.192.288h.192v.1l1.058.1v-.1l.481-.1.192-.288h.192v-.1l.385-.288v-.192l.385-.288v-.192l.192-.1.1-.384.192-.1.1-.384h.1l.1-.384h.1v-.288a6,6,0,0,0,.673-1.826c-.109-.081-.014.012-.1-.1a6.359,6.359,0,0,1-1.442-.288Zm6.827,1.153-.288,1.057h-.1v.192h-.1v.288h-.1V46.7H73v.288l-.962,1.73h.192v-.1l.577-.1v-.1H73v-.1h.288v-.1h.192v-.1h.288v-.1l.577-.192v-.1h.192v-.1l.385-.1.1-.192.385-.1.1-.192c.31-.206.666-.265.865-.577-.123-.064-.131-.152-.192-.192h-.192l-.1-.192h-.192l-.1-.192Zm-11.346.1a2.461,2.461,0,0,0-.769.384h-.192v.1h-.192v.1h-.192v.1h-.192v.1H60.6l-.1.192-.865.481.1.192.865.481.1.192h.192v.1h.192v.1h.192v.1h.192v.1h.192v.1h.192v.1h.192v.1l.577.192v.1l.577.1v.1a2.274,2.274,0,0,0,.769.192v-.1c-.3-.2-.2-.383-.385-.673l-.192-.1v-.192h-.1v-.192h-.1v-.288h-.1L63,46.8h-.1ZM87.9,47.854l-.577,2.5h-.1v.384c-.15.435-.334,1.013-.481,1.442v.384h-.1v.288h-.1v.384h-.1v.384h-.1l-.1.673h-.1l-.1.769h-.1l-.192.961c-.427-.123-.824-.682-1.154-.961l-.1-.192c-.185-.051-.131.058-.192.1A4.811,4.811,0,0,0,83,55.639l-.865.288v.1l-.385.1v.1h-.288v.1h-.192v.1h-.288v.1h-.192v.1H80.5v.1h-.288v.1h-.288v.1h-.288v.1h-.288v.1h-.288v.1h-.288v.1h-.288v.1l-.673.1v.1l-1.154.192v.1l-1.827.288v.1h-.192v.1h-.288v.1h-.769a15.736,15.736,0,0,1-3.558.1,8.169,8.169,0,0,1-1.827-.1l-2.115-.1v-.1H65.4v-.1h-.577v-.1H64.25c-.632-.195-1.411-.369-2.019-.577l-.769-.1v-.1h-.288v-.1h-.288v-.1H60.6v-.1h-.288v-.1h-.288v-.1h-.288v-.1l-.865-.192v-.1h-.192v-.1h-.288v-.1l-.577-.192v-.1h-.192v-.1l-.385-.1v-.1h-.288v-.1l-.577-.192v-.1l-.385-.1-.1-.192h-.192v-.1H55.5v-.1h-.192v-.1h-.192l-.1-.192-.385-.1-.1-.192-.385-.1-.1-.192h-.192l-.1-.192h-.192v-.1l-.288-.1-.1-.192H53l-.1-.192h-.192l-.1-.192-.288-.1-.192-.288h-.192l-.1-.192-.288-.1-.288-.384h-.192l-.288-.384H50.6l-.481-.577-.288-.1-.769-.865c-.317-.317-.932-.68-1.058-1.153a2.348,2.348,0,0,0,.769-.769c.193.055.083-.012.192.1.346.086.527.375.769.577v.1h.192l.192.288h.192l.288.384h.192l.192.288h.192l.1.192h.192l.192.288h.192l.1.192h.192l.1.192h.192l.1.192h.192l.1.192.385.1.1.192.385.1.1.192h.192v.1h.192v.1h.192v.1h.192v.1h.192v.1h.192v.1h.192v.1h.192v.1H55.5v.1l.577.192v.1h.288v.1h.192v.1h.288v.1h.192v.1h.288v.1h.192v.1l.577.1v.1h.192v.1h.288v.1h.288v.1h.288v.1h.288v.1h.385v.1h.288v.1H60.5v.1h.385v.1h.192v.1l.769.1v.1l1.827.192a14.321,14.321,0,0,0,3.462.192,21.678,21.678,0,0,0,7.212-1.057h.385v-.1l.962-.192v-.1h.192v-.1h.288v-.1l.577-.1v-.1h.192v-.1h.288v-.1h.192v-.1h.288v-.1l.577-.192v-.1h.192v-.1h.192v-.1h.288l.1-.192h.192v-.1h.192v-.1h.192v-.1h.192a3.9,3.9,0,0,1,1.058-.577v-.192c-.239-.132-.311-.358-.481-.481h-.192v-.1l-.481-.384v-.192Z" transform="translate(1411.246 167.398)" fill="#b03d3d" fill-rule="evenodd"/>
    <line id="Line_70" data-name="Line 70" x2="43.254" y2="40" transform="translate(1457.246 181.5)" fill="none" stroke="#b03d3d" stroke-linecap="round" stroke-width="3"/>
  </g>
</svg>
