<svg xmlns="http://www.w3.org/2000/svg" width="1922.984" height="1988.918" viewBox="0 0 1922.984 1988.918">
  <path id="Path_10256" data-name="Path 10256" d="M1650.331,658.04c71.161,12.133,121.045,52.408,181.864,71.144,26.281,8.1,54.989,4.216,88.111,5.349,6.434,51.482,7.668,112.676-.643,154.271-2.764,0-49.491,16.314-98.289,4.488-72.736-24.045-137.214-61.487-171.044-74.553V953.727c65.507,19.38,122.665,52.889,173.555,70.065,40.972,10.664,79.495,15.489,102.848,13.5,0,38.272-3.79,111.5-3.79,136.444-17.137,0-76.472,17.092-131.2-2.1-37.925-13.3-91.849-33.3-141.415-51.424v141.415c101.517,11.776,160.314,66.973,269.975,64.923,6.293,58.694,4.66,116.436-.643,154.271-104.995.675-176.583-43.627-269.332-58.495,3.927,94.833,0,301.508,0,301.508s-18.142,162.992-64.28,206.3c-60.982,66.651-180.575,64.28-321.4,58.495H672.636c-108.761,0-233.734,15.839-302.115-32.14-121.084-68.927-115.061-227.2-109.276-424.889,0-317.079-4.553-1165.764,0-1268.34,1.569-35.338-1-120.244,34.51-182.249S474.047,8.375,474.047,8.375H645.734s346.173-5.988,509.643-5.988H1388.26s135.334,6.591,175.751,21.837c93.642,44.694,86.32,196.071,86.32,196.071S1653.99,545.781,1650.331,658.04Zm-1125.538,803.5V1307.266c36.215,8.665,72.553,18.018,97.062,19.284,83.634,23.912,223.25-23.552,275.76-45.639,93.527-39.346,279.835-143.389,424.889-109.276,64.9,13.37,131.259,26.284,185.768,32.783V1063c-81.256-5.888-171.383-63.142-282.188-39.211-165.43,39.018-294.266,113.647-469.242,148.486-74.989,25.178-153.841.688-232.05-.643v-160.7c2.307,0,72.741,27.7,147.75,28.622,63.93.79,131.372-24.124,160.793-35.05,117.651-43.691,342.084-171.055,527.094-128.559q73.915,16.063,147.844,32.14V773.1c-6.968-5.843-193.174-72.34-307.9-45C1055.178,766,931.922,837.393,781.912,875.948c-81.6,20.968-182.4-1.652-257.119-6.428V709.464c73.221,9.61,144.944,39.667,224.979,18.641,236.472-62.12,457.8-226.316,758.5-115.7V230.452s2.946-41.49-24.518-59.938-53.62-13.383-85.336-13.856c-50.792-.757-110.079,0-147.265,0H705.419c-36.426,0-143.1-4.8-207.6-.343-8.929.617-47.255-.384-64.718,19.786-19.414,22.424-17.588,66.668-17.588,74.328V1673.017c0,35.5-3.812,82.5,31.621,121.067s110.112,33.2,110.112,33.2H1394.56s49.928,9.163,80.561-21.47c35.281-31.1,33.152-38.028,33.152-87.164s.39-247.9,0-347.752c-2.141,0-180.51-72.07-301.472-50.781-161.336,45.066-290.313,120.929-469.242,154.271C670.612,1496.615,582.812,1473.647,524.793,1461.537ZM4.127,568.048c73.845,4.294,120.454,18.442,173.555,31.5,13.4,39.59,6.936,110.169.643,160.7-54.747-8.543-97.133-36.479-174.2-38.568Zm0,301.472c74.487-1.266,124.066,18.281,174.2,32.14v148.486c1.382,5.554-173.247-25.718-174.2-26.355C4.127,992.749,3.279,909.374,4.127,869.52Zm0,286.787c73.8-1.5,119.708,27.907,173.555,35.254,13.4,45.375,6.936,115.954.643,160.7-55.956-2.1-96.458-30.649-174.2-38.568Z" transform="translate(-3.75 -2.387)" fill="#fff" fill-rule="evenodd"/>
</svg>
