<svg xmlns="http://www.w3.org/2000/svg" width="21.994" height="20.588" viewBox="0 0 21.994 20.588">
  <g id="Group_4" data-name="Group 4" transform="translate(0 3.594)">
    <rect id="Rectangle_8" data-name="Rectangle 8" width="21.994" height="16.995" transform="translate(0 -0.001)" fill="none"/>
    <path id="Path_1" data-name="Path 1" d="M41.615,23.919a6.584,6.584,0,0,0-6.542-6.608h-.05a6.6,6.6,0,0,0-6.592,6.608A10.481,10.481,0,0,1,27.356,29.2a1.322,1.322,0,0,0,1.14,1.988h3.223a3.3,3.3,0,1,0,6.608,0H41.55A1.322,1.322,0,0,0,42.69,29.2a10.486,10.486,0,0,1-1.075-5.281Zm-6.592,9.252a1.985,1.985,0,0,1-1.983-1.983h3.965a1.985,1.985,0,0,1-1.982,1.983Zm8-12.45a.66.66,0,0,1-.885-.3,7.955,7.955,0,0,0-2.892-3.212.661.661,0,1,1,.705-1.118,9.275,9.275,0,0,1,3.372,3.746.661.661,0,0,1-.3.883Zm-15.715.068a.661.661,0,0,1-.592-.953,9.275,9.275,0,0,1,3.372-3.746.661.661,0,1,1,.705,1.118A7.955,7.955,0,0,0,27.9,20.42a.661.661,0,0,1-.593.369Z" transform="translate(-24.431 -19.582)" fill="red"/>
  </g>
</svg>
