<svg xmlns="http://www.w3.org/2000/svg" xmlns:xlink="http://www.w3.org/1999/xlink" width="54" height="45.415" viewBox="0 0 54 45.415">
  <defs>
    <clipPath id="clip-path">
      <rect id="Rectangle_36" data-name="Rectangle 36" width="54" height="45.415" fill="#3693ff"/>
    </clipPath>
  </defs>
  <g id="Group_11" data-name="Group 11" transform="translate(0 0)">
    <g id="Group_3" data-name="Group 3" transform="translate(0 0)" clip-path="url(#clip-path)">
      <path id="Path_1" data-name="Path 1" d="M0,28.478c.1-.44.191-.883.3-1.32a10.07,10.07,0,0,1,9.8-7.75c2.266-.028,4.532,0,6.8,0h.69a9.948,9.948,0,0,0,2.969,6.741c-6.458,2.487-9.028,7.3-8.512,14.037A48.444,48.444,0,0,1,0,37.864V28.478" transform="translate(0 -3.03)" fill="#3693ff"/>
      <path id="Path_2" data-name="Path 2" d="M43.47,42.652c0,1.44-.011,2.881.008,4.321a.6.6,0,0,1-.4.637,23.485,23.485,0,0,1-6.442,1.881A42.506,42.506,0,0,1,17.5,47.871c-1.018-.306-1.019-.3-1.018-1.342,0-2.547-.035-5.095.019-7.64a10,10,0,0,1,9.477-9.746c2.768-.121,5.55-.1,8.32.015a9.975,9.975,0,0,1,8.75,7.268,17.526,17.526,0,0,1,.41,3.119c.068,1.031.015,2.071.015,3.108" transform="translate(-2.573 -4.54)" fill="#3693ff"/>
      <path id="Path_3" data-name="Path 3" d="M40.705,26.263a26.377,26.377,0,0,0,1.97-3.206A26.794,26.794,0,0,0,43.723,19.4h.368c1.968,0,3.935-.006,5.9,0A10.134,10.134,0,0,1,60.341,29.787c0,2.5-.008,4.99.011,7.484a.627.627,0,0,1-.423.672,25.007,25.007,0,0,1-7.541,2.024c-1.057.13-2.121.2-3.284.309,0-1.094.069-2.114-.012-3.121-.428-5.332-3.189-8.925-8.175-10.826-.082-.031-.163-.063-.244-.1-.014-.006-.024-.022.031.03" transform="translate(-6.352 -3.031)" fill="#3693ff"/>
      <path id="Path_4" data-name="Path 4" d="M23.1,17.577A7.913,7.913,0,1,1,30.97,25.5,7.913,7.913,0,0,1,23.1,17.577" transform="translate(-3.608 -1.511)" fill="#3693ff"/>
      <path id="Path_5" data-name="Path 5" d="M14.534,0a7.907,7.907,0,0,1,7.916,7.839.948.948,0,0,1-.358.813,9.672,9.672,0,0,0-3.268,5.5,1.09,1.09,0,0,1-.5.651,7.545,7.545,0,0,1-8.129-.306A7.559,7.559,0,0,1,6.657,7.213,7.865,7.865,0,0,1,14.534,0" transform="translate(-1.036 -0.001)" fill="#3693ff"/>
      <path id="Path_6" data-name="Path 6" d="M46.554,0A7.907,7.907,0,1,1,43.6,15.249a.659.659,0,0,1-.486-.586,9.6,9.6,0,0,0-4.2-6.654.666.666,0,0,1-.278-.714A7.919,7.919,0,0,1,46.554,0" transform="translate(-6.035 0)" fill="#3693ff"/>
    </g>
  </g>
</svg>
