<svg xmlns="http://www.w3.org/2000/svg" xmlns:xlink="http://www.w3.org/1999/xlink" width="79.787" height="66.279" viewBox="0 0 79.787 66.279">
  <defs>
    <clipPath id="clip-path">
      <rect id="Rectangle_36" data-name="Rectangle 36" width="54" height="45.415" fill="#ececec"/>
    </clipPath>
  </defs>
  <g id="Group_8" data-name="Group 8" transform="translate(-510.785 -319.428)">
    <g id="Group_6" data-name="Group 6" transform="translate(523 340.293)">
      <g id="Group_3" data-name="Group 3" transform="translate(0 0)" clip-path="url(#clip-path)">
        <path id="Path_1" data-name="Path 1" d="M0,28.478c.1-.44.191-.883.3-1.32a10.07,10.07,0,0,1,9.8-7.75c2.266-.028,4.532,0,6.8,0h.69a9.948,9.948,0,0,0,2.969,6.741c-6.458,2.487-9.028,7.3-8.512,14.037A48.444,48.444,0,0,1,0,37.864V28.478" transform="translate(0 -3.03)" fill="#ececec"/>
        <path id="Path_2" data-name="Path 2" d="M43.47,42.652c0,1.44-.011,2.881.008,4.321a.6.6,0,0,1-.4.637,23.485,23.485,0,0,1-6.442,1.881A42.506,42.506,0,0,1,17.5,47.871c-1.018-.306-1.019-.3-1.018-1.342,0-2.547-.035-5.095.019-7.64a10,10,0,0,1,9.477-9.746c2.768-.121,5.55-.1,8.32.015a9.975,9.975,0,0,1,8.75,7.268,17.526,17.526,0,0,1,.41,3.119c.068,1.031.015,2.071.015,3.108" transform="translate(-2.573 -4.54)" fill="#ececec"/>
        <path id="Path_3" data-name="Path 3" d="M40.705,26.263a26.377,26.377,0,0,0,1.97-3.206A26.794,26.794,0,0,0,43.723,19.4h.368c1.968,0,3.935-.006,5.9,0A10.134,10.134,0,0,1,60.341,29.787c0,2.5-.008,4.99.011,7.484a.627.627,0,0,1-.423.672,25.007,25.007,0,0,1-7.541,2.024c-1.057.13-2.121.2-3.284.309,0-1.094.069-2.114-.012-3.121-.428-5.332-3.189-8.925-8.175-10.826-.082-.031-.163-.063-.244-.1-.014-.006-.024-.022.031.03" transform="translate(-6.352 -3.031)" fill="#ececec"/>
        <path id="Path_4" data-name="Path 4" d="M23.1,17.577A7.913,7.913,0,1,1,30.97,25.5,7.913,7.913,0,0,1,23.1,17.577" transform="translate(-3.608 -1.511)" fill="#ececec"/>
        <path id="Path_5" data-name="Path 5" d="M14.534,0a7.907,7.907,0,0,1,7.916,7.839.948.948,0,0,1-.358.813,9.672,9.672,0,0,0-3.268,5.5,1.09,1.09,0,0,1-.5.651,7.545,7.545,0,0,1-8.129-.306A7.559,7.559,0,0,1,6.657,7.213,7.865,7.865,0,0,1,14.534,0" transform="translate(-1.036 -0.001)" fill="#ececec"/>
        <path id="Path_6" data-name="Path 6" d="M46.554,0A7.907,7.907,0,1,1,43.6,15.249a.659.659,0,0,1-.486-.586,9.6,9.6,0,0,0-4.2-6.654.666.666,0,0,1-.278-.714A7.919,7.919,0,0,1,46.554,0" transform="translate(-6.035 0)" fill="#ececec"/>
      </g>
    </g>
    <g id="Group_7" data-name="Group 7" transform="translate(568 319.428)">
      <path id="Path_10" data-name="Path 10" d="M0,0H22.572V22.572H0Z" fill="none"/>
      <path id="Path_11" data-name="Path 11" d="M18.929,2H3.881A1.887,1.887,0,0,0,2,3.881V20.81l3.762-3.762H18.929a1.887,1.887,0,0,0,1.881-1.881V3.881A1.887,1.887,0,0,0,18.929,2Zm0,13.167H4.981l-1.1,1.1V3.881H18.929ZM6.7,8.584H8.584v1.881H6.7Zm7.524,0h1.881v1.881H14.227Zm-3.762,0h1.881v1.881H10.465Z" transform="translate(-0.119 -0.119)" fill="#2fadf9"/>
    </g>
    <path id="Path_12" data-name="Path 12" d="M20.177,6.472a.651.651,0,0,0-.059-.117.611.611,0,0,0-.033-.072,1.041,1.041,0,0,0-.2-.156l-.111-.039H2.611a.651.651,0,0,0-.137,0l-.111.039a.651.651,0,0,0-.1.065.651.651,0,0,0-.1.085.605.605,0,0,0-.033.072A.514.514,0,0,0,2,6.6.605.605,0,0,0,2,6.68V18.391a.651.651,0,0,0,.651.651H19.565a.651.651,0,0,0,.651-.651V6.68a.605.605,0,0,0,0-.078A.651.651,0,0,0,20.177,6.472Zm-2.524.859-6.545,5.036L4.563,7.331Zm1.262,10.41H3.3V7.981l7.41,5.7a.651.651,0,0,0,.794,0l7.41-5.7Z" transform="translate(508.787 321.251)" fill="#2fadf9"/>
  </g>
</svg>
