<svg id="Group_686" data-name="Group 686" xmlns="http://www.w3.org/2000/svg" xmlns:xlink="http://www.w3.org/1999/xlink" width="41.999" height="41.999" viewBox="0 0 41.999 41.999">
  <defs>
    <clipPath id="clip-path">
      <rect id="Rectangle_5434" data-name="Rectangle 5434" width="41.999" height="41.999" fill="#3693ff"/>
    </clipPath>
  </defs>
  <g id="Group_685" data-name="Group 685" clip-path="url(#clip-path)">
    <path id="Path_640" data-name="Path 640" d="M21,42A21,21,0,1,1,42,21,21.023,21.023,0,0,1,21,42M21,1.624A19.376,19.376,0,1,0,40.375,21,19.4,19.4,0,0,0,21,1.624" fill="#3693ff"/>
    <path id="Path_641" data-name="Path 641" d="M139.417,218.477c0,.776-.027,1.553.011,2.326.019.394-.108.622-.472.717a35.566,35.566,0,0,1-4.173,1.052,24.547,24.547,0,0,1-10.457-1.034c-.387-.117-.553-.259-.538-.688.06-1.782-.044-3.58.152-5.346a5.686,5.686,0,0,1,5.462-4.8q2.218-.036,4.438-.006a5.848,5.848,0,0,1,5.56,5.455c.025.775,0,1.551,0,2.326h.013" transform="translate(-110.385 -187.873)" fill="#3693ff"/>
    <path id="Path_642" data-name="Path 642" d="M61.685,171.254a7.093,7.093,0,0,0-4.007,3.137,8.422,8.422,0,0,0-.948,5c-1.116-.145-2.17-.23-3.2-.43-1.11-.216-2.2-.556-3.3-.807-.379-.086-.468-.264-.463-.629.022-1.55-.011-3.1.02-4.65a5.661,5.661,0,0,1,4.722-5.414,49.282,49.282,0,0,1,5.432-.038,5.779,5.779,0,0,0,1.743,3.827" transform="translate(-44.379 -149.246)" fill="#3693ff"/>
    <path id="Path_643" data-name="Path 643" d="M237.481,178.921a8.334,8.334,0,0,0-.962-5,7.2,7.2,0,0,0-3.968-3.114,5.837,5.837,0,0,0,1.707-3.939c.309,0,.59-.01.87,0a30.314,30.314,0,0,1,4.413.222,5.64,5.64,0,0,1,4.429,5.5c.02,1.516.017,3.032,0,4.547a.6.6,0,0,1-.245.461,15.777,15.777,0,0,1-6.247,1.32" transform="translate(-207.374 -148.8)" fill="#3693ff"/>
    <path id="Path_644" data-name="Path 644" d="M163.069,127.613a4.565,4.565,0,1,1-4.582-4.557,4.571,4.571,0,0,1,4.582,4.557" transform="translate(-137.273 -109.733)" fill="#3693ff"/>
    <path id="Path_645" data-name="Path 645" d="M79.673,84.083a4.561,4.561,0,0,1,9.119-.152,1.1,1.1,0,0,1-.318.718,5.577,5.577,0,0,0-1.691,2.892.953.953,0,0,1-.611.733,4.563,4.563,0,0,1-6.5-4.19" transform="translate(-71.047 -70.943)" fill="#3693ff"/>
    <path id="Path_646" data-name="Path 646" d="M228.923,79.568a4.583,4.583,0,0,1,2.882,7.733,4.4,4.4,0,0,1-4.81,1.148.6.6,0,0,1-.479-.55,5.423,5.423,0,0,0-2.222-3.571.713.713,0,0,1-.325-.767,4.7,4.7,0,0,1,4.954-3.993" transform="translate(-199.711 -70.954)" fill="#3693ff"/>
  </g>
</svg>
