<svg id="Group_6191" data-name="Group 6191" xmlns="http://www.w3.org/2000/svg" width="39.914" height="39.914" viewBox="0 0 39.914 39.914">
  <path id="Path_10426" data-name="Path 10426" d="M0,0H39.914V39.914H0Z" fill="none"/>
  <path id="Path_10427" data-name="Path 10427" d="M32.171,6.709,29.859,3.915A2.414,2.414,0,0,0,27.946,3H7.989a2.472,2.472,0,0,0-1.929.915l-2.3,2.794A3.256,3.256,0,0,0,3,8.821V29.609a3.336,3.336,0,0,0,3.326,3.326H29.609a3.336,3.336,0,0,0,3.326-3.326V8.821A3.256,3.256,0,0,0,32.171,6.709ZM8.388,6.326H27.547l1.347,1.613H7.058l1.33-1.613ZM6.326,29.609V11.315H29.609V29.609ZM20.379,14.642H15.556v4.989H11.315l6.652,6.652,6.652-6.652H20.379Z" transform="translate(1.989 1.989)" fill="#fff"/>
</svg>
