<svg xmlns="http://www.w3.org/2000/svg" width="16.443" height="15.824" viewBox="0 0 16.443 15.824">
  <g id="layer1" transform="translate(-30.91 -981.624)">
    <path id="path10454-3" d="M34.92,981.624a4.01,4.01,0,0,0-4.01,4.01c0,1.969,1.724,4.093,3.384,6.417a.723.723,0,0,0-.333.274l-1.6,2.328a.723.723,0,0,0,.45,1.115l8.373,1.663a.722.722,0,0,0,.606-.137l5.3-4.284a.723.723,0,0,0-.078-1.174l-3.326-2.074a.723.723,0,0,0-.47-.1.73.73,0,0,0-.1.02l-7.238,1.937c1.577-2.125,3.052-4.144,3.052-5.986a4.01,4.01,0,0,0-4.01-4.01Zm0,.939a3.042,3.042,0,0,1,0,6.084,3.042,3.042,0,1,1,0-6.084Zm8.255,8.588,2.211,1.389-4.245,3.4-6.964-1.369.841-1.233,8.158-2.191Z" fill="#888"/>
  </g>
</svg>
