<svg xmlns="http://www.w3.org/2000/svg" width="201.641" height="329.767" viewBox="0 0 201.641 329.767">
  <g id="mobile" transform="translate(14442.558 11943.381)">
    <rect id="Rectangle_5038" data-name="Rectangle 5038" width="174" height="285" rx="26" transform="translate(-14429 -11926)" fill="#fff"/>
    <g id="Group_6834" data-name="Group 6834" transform="translate(-14664.32 -11947.313)">
      <g id="Group_6929" data-name="Group 6929">
        <path id="Path_10344" data-name="Path 10344" d="M679.2,436.684c-2.383,10.774-6.377,20.576-14.646,28.108-8.761,7.981-19.047,11.463-30.446,11.5-37.122.1-74.244.2-111.364-.015-26.833-.154-45.085-19.328-45.117-47.263q-.138-117.506,0-235.011c.033-28.173,18.438-47.186,45.679-47.286,36.559-.134,73.119.1,109.676-.08,24.133-.119,41.626,15.824,45.371,37.035a20.259,20.259,0,0,0,.846,2.655ZM654.309,311.53c0-39.17.039-80.341-.024-119.511-.019-11.406-5.675-17.162-16.658-17.172-36.748-.033-81.5-.03-118.244,0-11.5.008-17.112,5.856-17.116,18-.033,77.756-.033,159.512,0,237.267.005,12.359,5.632,18.051,17.63,18.057,35.81.017,79.627-.367,115.429.2,13.023.207,19.3-7.12,19.155-19.672-.458-38.385-.166-78.779-.17-117.17" transform="translate(-255.794 -142.701)" fill="#e4e4e4"/>
        <path id="Path_10348" data-name="Path 10348" d="M263.4,197.248q.091-12.024.178-24.048c.021-3.463,0-6.927,0-10.669h-8.5V154.1h17.027v17.012h8.707v8.975h34.464v8.447H272.245v8.647h-8.912Z" transform="translate(42.2 -46.6)"/>
        <path id="Path_10349" data-name="Path 10349" d="M250.52,228.907c.072,5.338.159,10.676.211,16.014.031,3.155.006,6.311.006,9.655H224.871v-25.45h8.452v16.827h8.836V228.975h8.428l-.067-.067" transform="translate(57.777 -81.367)"/>
        <path id="Path_10350" data-name="Path 10350" d="M231.089,89.082V95.1H197.673v33.552h-6.155V89.082Z" transform="translate(73.271 -15.73)"/>
        <path id="Path_10351" data-name="Path 10351" d="M344.661,95.3V89.1h39.544v39.571h-6.049V95.3Z" transform="translate(0.259 -15.738)"/>
        <path id="Path_10352" data-name="Path 10352" d="M197.538,275.648H230.97v6.106H191.443V242.226h6.095Z" transform="translate(73.307 -88.203)"/>
        <path id="Path_10353" data-name="Path 10353" d="M378.1,242.126h6.129v39.616H344.76V275.68H378.1Z" transform="translate(0.215 -88.16)"/>
        <path id="Path_10354" data-name="Path 10354" d="M268.208,132.411H242.259v8.5h-17.2V123.98h43.079v8.5Zm-28.162-6.456H227.033v13h13.013Z" transform="translate(57.168 -31.785)"/>
        <path id="Path_10355" data-name="Path 10355" d="M362.384,158.218h-8.333v-17.03h-8.537V123.923h16.87ZM347.5,138.9h12.953V125.866H347.5Z" transform="translate(0.867 -32.105)"/>
        <path id="Path_10356" data-name="Path 10356" d="M299.86,138.69h8.673v8.617h8.28v17.05h-8.345V147.386h-8.536c0-3.153,0-5.96,0-8.767l-.071.071" transform="translate(22.496 -38.85)"/>
        <path id="Path_10357" data-name="Path 10357" d="M317.354,229.237v16.827H300.3v-8.307h8.459v-8.52Z" transform="translate(22.286 -81.207)"/>
        <path id="Path_10358" data-name="Path 10358" d="M353.612,229.129h8.512v25.585h-17.04v-17.02h8.528Zm-6.537,23.618H360.14V239.779H347.075Z" transform="translate(1.064 -81.469)"/>
        <rect id="Rectangle_5024" data-name="Rectangle 5024" width="8.359" height="16.871" transform="translate(282.974 116.164)"/>
        <rect id="Rectangle_5025" data-name="Rectangle 5025" width="8.22" height="8.226" transform="translate(291.093 132.566)"/>
        <rect id="Rectangle_5026" data-name="Rectangle 5026" width="8.873" height="8.672" transform="translate(286.921 96.164)"/>
        <rect id="Rectangle_5027" data-name="Rectangle 5027" width="8.799" height="8.709" transform="translate(350.431 96.102)"/>
        <rect id="Rectangle_5028" data-name="Rectangle 5028" width="8.756" height="8.759" transform="translate(350.27 160.057)"/>
        <path id="Path_10347" data-name="Path 10347" d="M608.792,451.086a10.5,10.5,0,0,1-10.276,10.625,10.369,10.369,0,0,1-10.592-9.85,10.445,10.445,0,1,1,20.868-.776" transform="translate(-277.126 -184.328)" fill="#e4e4e4"/>
      </g>
    </g>
  </g>
</svg>
