<svg xmlns="http://www.w3.org/2000/svg" width="21.006" height="19.783" viewBox="0 0 21.006 19.783">
  <g id="Group_12549" data-name="Group 12549" transform="translate(-6439 -7248.5)">
    <path id="arrow_back_FILL1_wght400_GRAD0_opsz48" d="M16.127,25.789,8.255,17.916a.863.863,0,0,1-.2-.283.885.885,0,0,1,0-.623.863.863,0,0,1,.2-.283l7.9-7.9a.768.768,0,0,1,.566-.227.841.841,0,0,1,.595,1.444l-6.428,6.428H24.934a.85.85,0,1,1,0,1.7H10.888l6.456,6.456a.768.768,0,0,1,.227.566.841.841,0,0,1-1.444.595Z" transform="translate(6431 7241.345)" fill="#3792f9"/>
    <line id="Line_12" data-name="Line 12" y2="17.783" transform="translate(6459.006 7249.5)" fill="none" stroke="#3792f9" stroke-linecap="round" stroke-width="2"/>
  </g>
</svg>
