<svg xmlns="http://www.w3.org/2000/svg" width="22.572" height="22.572" viewBox="0 0 22.572 22.572">
  <g id="Group_5139" data-name="Group 5139" transform="translate(-3.762 -3.762)">
    <path id="Path_10004" data-name="Path 10004" d="M21.81,3H6.762A3.762,3.762,0,0,0,3,6.762V21.81a3.762,3.762,0,0,0,3.762,3.762H21.81a3.762,3.762,0,0,0,3.762-3.762V6.762A3.762,3.762,0,0,0,21.81,3Zm1.254,18.81a1.254,1.254,0,0,1-1.254,1.254H6.762A1.254,1.254,0,0,1,5.508,21.81V13.032H23.064ZM5.508,10.524V6.762A1.254,1.254,0,0,1,6.762,5.508H21.81a1.254,1.254,0,0,1,1.254,1.254v3.762Z" transform="translate(0.762 0.762)" fill="#aeaeae"/>
    <circle id="Ellipse_912" data-name="Ellipse 912" cx="1.254" cy="1.254" r="1.254" transform="translate(8.777 7.562)" fill="#aeaeae"/>
    <circle id="Ellipse_913" data-name="Ellipse 913" cx="1.254" cy="1.254" r="1.254" transform="translate(13.793 7.562)" fill="#aeaeae"/>
  </g>
</svg>
