<svg xmlns="http://www.w3.org/2000/svg" width="17.499" height="17.499" viewBox="0 0 17.499 17.499"><defs><style>.a{fill:#9e9e9e;}</style></defs><path class="a" d="M18.626,10.752h-3.5V4.627a.876.876,0,0,0-.875-.875h-.875V2.877A.876.876,0,0,0,12.5,2H9a.876.876,0,0,0-.875.875v.875H7.252a.876.876,0,0,0-.875.875v6.125h-3.5A.876.876,0,0,0,2,11.627v7a.875.875,0,0,0,.875.875H9V16h3.5v3.5h6.125a.875.875,0,0,0,.875-.875v-7a.875.875,0,0,0-.875-.875Zm-13.124,7H3.752V16H5.5Zm0-3.5H3.752V12.5H5.5Zm4.375,0H8.127V12.5h1.75Zm0-3.5H8.127V9h1.75Zm0-3.5H8.127V5.5h1.75Zm3.5,7h-1.75V12.5h1.75Zm0-3.5h-1.75V9h1.75Zm0-3.5h-1.75V5.5h1.75Zm4.375,10.5H16V16h1.75Zm0-3.5H16V12.5h1.75Z" transform="translate(-2.002 -2.002)"/></svg>