<svg xmlns="http://www.w3.org/2000/svg" width="11.163" height="12.758" viewBox="0 0 11.163 12.758">
  <path id="Icon_awesome-calendar-alt" data-name="Icon awesome-calendar-alt" d="M0,11.562a1.2,1.2,0,0,0,1.2,1.2H9.967a1.2,1.2,0,0,0,1.2-1.2V4.784H0ZM7.974,6.678a.3.3,0,0,1,.3-.3h1a.3.3,0,0,1,.3.3v1a.3.3,0,0,1-.3.3h-1a.3.3,0,0,1-.3-.3Zm0,3.189a.3.3,0,0,1,.3-.3h1a.3.3,0,0,1,.3.3v1a.3.3,0,0,1-.3.3h-1a.3.3,0,0,1-.3-.3ZM4.784,6.678a.3.3,0,0,1,.3-.3h1a.3.3,0,0,1,.3.3v1a.3.3,0,0,1-.3.3h-1a.3.3,0,0,1-.3-.3Zm0,3.189a.3.3,0,0,1,.3-.3h1a.3.3,0,0,1,.3.3v1a.3.3,0,0,1-.3.3h-1a.3.3,0,0,1-.3-.3ZM1.595,6.678a.3.3,0,0,1,.3-.3h1a.3.3,0,0,1,.3.3v1a.3.3,0,0,1-.3.3h-1a.3.3,0,0,1-.3-.3Zm0,3.189a.3.3,0,0,1,.3-.3h1a.3.3,0,0,1,.3.3v1a.3.3,0,0,1-.3.3h-1a.3.3,0,0,1-.3-.3ZM9.967,1.595h-1.2V.4a.4.4,0,0,0-.4-.4h-.8a.4.4,0,0,0-.4.4v1.2H3.987V.4a.4.4,0,0,0-.4-.4h-.8a.4.4,0,0,0-.4.4v1.2H1.2A1.2,1.2,0,0,0,0,2.791v1.2H11.163v-1.2A1.2,1.2,0,0,0,9.967,1.595Z" fill="#8f8f8f"/>
</svg>
