<svg id="didid" xmlns="http://www.w3.org/2000/svg" width="24" height="24" viewBox="0 0 24 24">
  <path id="Path_27" data-name="Path 27" d="M0,0H24V24H0Z" fill="none"/>
  <circle id="Ellipse_6" data-name="Ellipse 6" cx="3" cy="3" r="3" transform="translate(9 9)" fill="#fff"/>
  <path id="Path_28" data-name="Path 28" d="M20,4H16.83L15.59,2.65A1.991,1.991,0,0,0,14.12,2H9.88a2.029,2.029,0,0,0-1.48.65L7.17,4H4A2.006,2.006,0,0,0,2,6V18a2.006,2.006,0,0,0,2,2H20a2.006,2.006,0,0,0,2-2V6A2.006,2.006,0,0,0,20,4ZM12,17a5,5,0,1,1,5-5A5,5,0,0,1,12,17Z" fill="#fff"/>
</svg>
