<svg xmlns="http://www.w3.org/2000/svg" width="31.255" height="28.249" viewBox="0 0 31.255 28.249">
  <path id="Path_10060" data-name="Path 10060" d="M31.711,23.905,20.26,4.113a4.328,4.328,0,0,0-5.8-1.555,4.089,4.089,0,0,0-1.555,1.555L1.458,23.905a4.328,4.328,0,0,0,1.555,5.8,3.989,3.989,0,0,0,2.121.565H27.894a4.253,4.253,0,0,0,4.241-4.241A3.382,3.382,0,0,0,31.711,23.905Zm-15.127.707A1.414,1.414,0,1,1,18,23.2,1.336,1.336,0,0,1,16.585,24.612ZM18,17.543a1.414,1.414,0,1,1-2.827,0V11.888a1.414,1.414,0,1,1,2.827,0Z" transform="translate(-0.918 -2.018)" fill="#d82e42"/>
</svg>
