<svg xmlns="http://www.w3.org/2000/svg" width="22.826" height="19.765" viewBox="0 0 22.826 19.765">
  <path id="Path_3366" data-name="Path 3366" d="M20.713,10.8a1.038,1.038,0,0,0-1.038,1.038V19.1a1.038,1.038,0,0,1-1.038,1.038H4.113A1.038,1.038,0,0,1,3.075,19.1V10.8A1.038,1.038,0,0,1,4.113,9.763H6.188a1.038,1.038,0,0,0,1.038-.706l.56-1.7a1.038,1.038,0,0,1,.986-.706h5.717a1.038,1.038,0,1,0,0-2.075H8.719A3.113,3.113,0,0,0,5.773,6.7L5.441,7.74H4.113A3.113,3.113,0,0,0,1,10.852v8.3a3.113,3.113,0,0,0,3.113,3.113H18.638a3.113,3.113,0,0,0,3.113-3.113V11.89A1.038,1.038,0,0,0,20.713,10.8ZM11.375,9.763a4.15,4.15,0,1,0,4.15,4.15A4.15,4.15,0,0,0,11.375,9.763Zm0,6.225a2.075,2.075,0,1,1,2.075-2.075A2.075,2.075,0,0,1,11.375,15.988ZM22.788,4.575H21.751V3.538a1.038,1.038,0,0,0-2.075,0V4.575H18.638a1.038,1.038,0,1,0,0,2.075h1.038V7.688a1.038,1.038,0,1,0,2.075,0V6.65h1.038a1.038,1.038,0,0,0,0-2.075Z" transform="translate(-1 -2.5)" fill="#fff"/>
</svg>
