<svg width="32" height="32" viewBox="0 0 32 32" fill="none" xmlns="http://www.w3.org/2000/svg">
<g clip-path="url(#clip0_319_2)">
<path d="M22 23H13.83L16.41 20.41L15 19L10 24L15 29L16.41 27.59L13.83 25H22V23ZM11 13H19.17L16.59 10.41L18 9L23 14L18 19L16.59 17.59L19.17 15H11V13Z" fill="black"/>
<path d="M24.4995 24.9996H23.9995V22.9996H24.4995C25.927 23.0033 27.2999 22.4515 28.3277 21.4609C29.3555 20.4704 29.9576 19.1188 30.0066 17.6922C30.0556 16.2656 29.5476 14.8759 28.5901 13.8172C27.6327 12.7584 26.3009 12.1138 24.8765 12.0196L24.0395 11.9636L23.9495 11.1296C23.7341 9.17168 22.8037 7.36216 21.3367 6.04775C19.8697 4.73335 17.9692 4.0065 15.9995 4.0065C14.0298 4.0065 12.1294 4.73335 10.6624 6.04775C9.19538 7.36216 8.26501 9.17168 8.04953 11.1296L7.95953 11.9636L7.12253 12.0206C5.70107 12.1185 4.37319 12.7647 3.41895 13.8228C2.4647 14.8809 1.95866 16.2682 2.00756 17.6922C2.05646 19.1162 2.65647 20.4655 3.68105 21.4557C4.70563 22.4458 6.0747 22.9994 7.49953 22.9996H7.99953V24.9996H7.49953C5.62489 25.0017 3.8175 24.3013 2.43379 23.0365C1.05008 21.7717 0.1905 20.0344 0.0245584 18.1671C-0.141383 16.2998 0.398361 14.4381 1.53735 12.9492C2.67634 11.4602 4.3319 10.4521 6.17753 10.1236C6.61449 7.83874 7.83434 5.77772 9.62708 4.29534C11.4198 2.81295 13.6733 2.00195 15.9995 2.00195C18.3258 2.00195 20.5792 2.81295 22.372 4.29534C24.1647 5.77772 25.3846 7.83874 25.8215 10.1236C27.6672 10.4521 29.3227 11.4602 30.4617 12.9492C31.6007 14.4381 32.1404 16.2998 31.9745 18.1671C31.8086 20.0344 30.949 21.7717 29.5653 23.0365C28.1816 24.3013 26.3742 25.0017 24.4995 24.9996Z" fill="black"/>
</g>
<defs>
<clipPath id="clip0_319_2">
<rect width="32" height="32" fill="white"/>
</clipPath>
</defs>
</svg>
