<svg xmlns="http://www.w3.org/2000/svg" width="10.981" height="10.981" viewBox="0 0 10.981 10.981">
  <g id="Group_4385" data-name="Group 4385" transform="translate(0 0)">
    <path id="Path_3117" data-name="Path 3117" d="M23.216,13.75H15.265a1.516,1.516,0,0,0-1.515,1.515v7.951a1.516,1.516,0,0,0,1.515,1.515h7.951a1.516,1.516,0,0,0,1.515-1.515V15.265A1.516,1.516,0,0,0,23.216,13.75Zm.909,9.466a.91.91,0,0,1-.909.909H15.265a.91.91,0,0,1-.909-.909V15.265a.91.91,0,0,1,.909-.909h7.951a.91.91,0,0,1,.909.909Z" transform="translate(-13.75 -13.75)" fill="#3693ff"/>
    <path id="Path_3118" data-name="Path 3118" d="M30.876,24.25H23.3a.3.3,0,0,0-.3.3v5.793a.3.3,0,0,0,.3.3h2.045a.3.3,0,0,0,.3-.3V29.021h2.878v1.325a.3.3,0,0,0,.3.3h2.045a.3.3,0,0,0,.3-.3V24.553A.3.3,0,0,0,30.876,24.25Zm-.3,5.793H29.134V28.718a.3.3,0,0,0-.3-.3H25.348a.3.3,0,0,0-.3.3v1.325H23.606V24.856h1.439v1.325a.3.3,0,1,0,.606,0V24.856h.555v1.325a.3.3,0,1,0,.606,0V24.856h.555v1.325a.3.3,0,1,0,.606,0V24.856h.555v1.325a.3.3,0,1,0,.606,0V24.856h1.439Z" transform="translate(-21.599 -22.66)" fill="#3693ff"/>
  </g>
</svg>
