<svg width="25" height="25" viewBox="0 0 25 25" fill="none" xmlns="http://www.w3.org/2000/svg">
<path d="M20.7502 9.92883H11.7502C10.6457 9.92883 9.75024 10.8243 9.75024 11.9288V20.9288C9.75024 22.0334 10.6457 22.9288 11.7502 22.9288H20.7502C21.8548 22.9288 22.7502 22.0334 22.7502 20.9288V11.9288C22.7502 10.8243 21.8548 9.92883 20.7502 9.92883Z" stroke="black" stroke-width="2" stroke-linecap="round" stroke-linejoin="round"/>
<path d="M5.75024 15.9288H4.75024C4.21981 15.9288 3.7111 15.7181 3.33603 15.343C2.96096 14.968 2.75024 14.4593 2.75024 13.9288V4.92883C2.75024 4.3984 2.96096 3.88969 3.33603 3.51462C3.7111 3.13955 4.21981 2.92883 4.75024 2.92883H13.7502C14.2807 2.92883 14.7894 3.13955 15.1645 3.51462C15.5395 3.88969 15.7502 4.3984 15.7502 4.92883V5.92883" stroke="black" stroke-width="2" stroke-linecap="round" stroke-linejoin="round"/>
</svg>
