<svg xmlns="http://www.w3.org/2000/svg" xmlns:xlink="http://www.w3.org/1999/xlink" width="95" height="95.003" viewBox="0 0 95 95.003">
  <defs>
    <clipPath id="clip-path">
      <rect id="Rectangle_4978" data-name="Rectangle 4978" width="95" height="95.003" fill="#e30613"/>
    </clipPath>
  </defs>
  <g id="Group_6146" data-name="Group 6146" clip-path="url(#clip-path)">
    <path id="Path_10412" data-name="Path 10412" d="M0,47.459a6.334,6.334,0,0,1,4.293-5.976,6.268,6.268,0,0,1,6.976,1.988,7.011,7.011,0,0,0,3.774,2.749,6.108,6.108,0,0,0,6.6-2.287,10.219,10.219,0,0,1,1.544-1.591,6.215,6.215,0,0,0-.028-10.282A6.369,6.369,0,0,1,27.385,20.6a6.5,6.5,0,0,1,4.815,2.73,6.114,6.114,0,0,0,7.174,2.158,18.556,18.556,0,0,0,6.762-6.885A6.309,6.309,0,0,0,43.705,11.5a6.372,6.372,0,1,1,7.828-.214,7.077,7.077,0,0,0-2.752,3.774,6.108,6.108,0,0,0,2.28,6.6A10.313,10.313,0,0,1,52.654,23.2a6.215,6.215,0,0,0,10.282-.019,6.375,6.375,0,1,1,.248,7.828,7.155,7.155,0,0,0-3.774-2.765,5.828,5.828,0,0,0-6.583,2.271,6.539,6.539,0,0,1-10.662.016,6.136,6.136,0,0,0-9.939-.025,10.568,10.568,0,0,1-1.708,1.724,6.209,6.209,0,0,0,0,10.027,6.356,6.356,0,0,1,0,10.543,6.209,6.209,0,0,0,0,10.024,10.47,10.47,0,0,1,1.708,1.72,6.218,6.218,0,0,0,9.967,0,6.363,6.363,0,0,1,10.543-.066A6.212,6.212,0,0,0,62.9,64.346a6.378,6.378,0,1,1,.239,7.743,7.014,7.014,0,0,0-3.68-2.708,6.1,6.1,0,0,0-6.683,2.293,10.4,10.4,0,0,1-1.636,1.651,6.205,6.205,0,0,0,.072,10.149,6.375,6.375,0,1,1-7.743.27,7.07,7.07,0,0,0,2.746-3.774,6.1,6.1,0,0,0-2.29-6.6,10.508,10.508,0,0,1-1.654-1.629,6.2,6.2,0,0,0-10.149.031A6.363,6.363,0,1,1,23,63.082a6.844,6.844,0,0,0,2.655-3.714,6.1,6.1,0,0,0-2.312-6.583,10.064,10.064,0,0,1-1.573-1.551A6.212,6.212,0,0,0,11.5,51.3,6.372,6.372,0,0,1,0,47.459" transform="translate(0 -0.015)" fill="#e30613"/>
    <path id="Path_10413" data-name="Path 10413" d="M247.351,199.754a6.338,6.338,0,0,1-4.287,5.976,6.271,6.271,0,0,1-6.976-1.975,7.023,7.023,0,0,0-3.869-2.777,6.083,6.083,0,0,0-6.5,2.287,6.36,6.36,0,0,1-10.6,0,6.224,6.224,0,0,0-10.09.17,6.412,6.412,0,1,1-.286-7.753,6.743,6.743,0,0,0,5.234,2.966,6.158,6.158,0,0,0,5.142-2.475,6.347,6.347,0,0,1,10.6,0,6.224,6.224,0,0,0,10.09-.17,6.366,6.366,0,0,1,11.54,3.774" transform="translate(-152.351 -152.199)" fill="#e30613"/>
  </g>
</svg>
