<svg xmlns="http://www.w3.org/2000/svg" width="11.739" height="14.348" viewBox="0 0 11.739 14.348">
  <path id="Path_178" data-name="Path 178" d="M13.435,3.3V2.436A.436.436,0,0,0,13,2h-.433a.436.436,0,0,0-.436.436V3.3m-6.522,0V2.436A.436.436,0,0,0,5.173,2H4.74a.436.436,0,0,0-.436.436V3.3M3,4.609H14.739v1.3H3ZM3,7.217H14.739v9.13H3Zm1.3,1.3v1.3h1.3v-1.3Zm2.609,0v1.3h1.3v-1.3Zm2.609,0v1.3h1.3v-1.3Zm2.609,0v1.3h1.3v-1.3ZM4.3,11.13v1.3h1.3v-1.3Zm2.609,0v1.3h1.3v-1.3Zm2.609,0v1.3h1.3v-1.3Zm2.609,0v1.3h1.3v-1.3ZM4.3,13.739v1.3h1.3v-1.3Zm2.609,0v1.3h1.3v-1.3Zm2.609,0v1.3h1.3v-1.3Z" transform="translate(-3 -2)" fill="#8e8e8e"/>
</svg>
