<svg xmlns="http://www.w3.org/2000/svg" width="18.226" height="15.962" viewBox="0 0 18.226 15.962">
  <g id="Group_860" data-name="Group 860" transform="translate(0 0)">
    <g id="Group_851" data-name="Group 851" transform="translate(0 0)">
      <path id="Path_192" data-name="Path 192" d="M6.048,15.171V12.2c-.818,0-1.611,0-2.4,0-.7,0-1.4.013-2.1.009A1.351,1.351,0,0,1,0,10.672Q0,6.1,0,1.53C0,.481.482,0,1.537,0Q9.1,0,16.673,0c1.083,0,1.552.473,1.553,1.55q0,4.551,0,9.1c0,1.064-.485,1.552-1.559,1.555-1.282,0-2.563-.006-3.845-.009h-.635v2.966c.39,0,.787,0,1.184,0a.764.764,0,0,1,.865.8H4.009a.729.729,0,0,1,.791-.795c.2-.008.4,0,.607,0h.641M9.1,11.123c2.522,0,5.044-.007,7.566.007.392,0,.508-.13.506-.516-.013-2.992-.007-5.984-.007-8.976,0-.555-.016-.571-.565-.571H1.625c-.543,0-.56.017-.56.577q0,4.468,0,8.936c0,.53.014.544.546.544H9.1" transform="translate(0 0)" fill="#cb1212"/>
      <rect id="Rectangle_96" data-name="Rectangle 96" width="7.22" height="0.88" transform="translate(5.494 7.942)" fill="#cb1212"/>
      <path id="Path_194" data-name="Path 194" d="M142.336,43.023l-.825.987-.678-.74.886-.758-.942-.8.7-.625.729.8.846-.958.65.823-.805.739.935.786-.733.677-.758-.925" transform="translate(-129.609 -37.677)" fill="#cb1212"/>
      <path id="Path_195" data-name="Path 195" d="M51.452,43.05l-.9-.823.783-.631.73.816.811-.915.669.75-.87.659.92.816-.761.8-.72-.939-.819.969-.674-.806.83-.7" transform="translate(-46.545 -38.205)" fill="#cb1212"/>
    </g>
  </g>
</svg>
