<svg xmlns="http://www.w3.org/2000/svg" width="17.307" height="17.307" viewBox="0 0 17.307 17.307">
  <g id="Group_6414" data-name="Group 6414" transform="translate(14.059 4.487)">
    <g id="Group_6196" data-name="Group 6196" transform="translate(-2.408 2.243)">
      <g id="Group_6405" data-name="Group 6405" transform="translate(-11.651 -6.73)">
        <path id="Path_10426" data-name="Path 10426" d="M0,0H17.307V17.307H0Z" fill="none"/>
        <path id="Path_10427" data-name="Path 10427" d="M15.218,4.553l-.968-1.17A1.011,1.011,0,0,0,13.45,3H5.09a1.035,1.035,0,0,0-.808.383L3.32,4.553A1.364,1.364,0,0,0,3,5.438v8.707a1.4,1.4,0,0,0,1.393,1.393h9.752a1.4,1.4,0,0,0,1.393-1.393V5.438A1.364,1.364,0,0,0,15.218,4.553Zm-9.961-.16h8.025l.564.676H4.7Zm-.864,9.752V6.483h9.752v7.662Zm5.886-6.269H8.259v2.09H6.483l2.786,2.786,2.786-2.786H10.279Z" transform="translate(-0.616 -0.616)" fill="#dfa42c"/>
      </g>
    </g>
  </g>
</svg>
