<svg id="Group_3171" data-name="Group 3171" xmlns="http://www.w3.org/2000/svg" width="36.734" height="24.489" viewBox="0 0 36.734 24.489">
  <path id="Path_2939" data-name="Path 2939" d="M6.122,11.061h27.55V8H6.122a3.06,3.06,0,0,0-3.061,3.061V27.9H0v4.592H21.428V27.9H6.122ZM35.2,14.122H26.02a1.535,1.535,0,0,0-1.531,1.531V30.959a1.535,1.535,0,0,0,1.531,1.531H35.2a1.535,1.535,0,0,0,1.531-1.531V15.653A1.535,1.535,0,0,0,35.2,14.122ZM33.673,27.9H27.55V17.183h6.122Z" transform="translate(0 -8)" fill="#3693ff"/>
</svg>
