<svg xmlns="http://www.w3.org/2000/svg" width="15.365" height="15.366" viewBox="0 0 15.365 15.366">
  <g id="Group_6410" data-name="Group 6410" transform="translate(-8.145 -7.553)">
    <g id="Group_6196" data-name="Group 6196" transform="translate(-1.328 4.581)">
      <g id="Group_6404" data-name="Group 6404" transform="translate(9.472 2.972)">
        <g id="Path_10428" data-name="Path 10428">
          <path id="Path_12372" data-name="Path 12372" d="M7.683,0A7.683,7.683,0,1,1,0,7.683,7.683,7.683,0,0,1,7.683,0Z" fill="none"/>
          <path id="Path_12373" data-name="Path 12373" d="M7.683,1a6.683,6.683,0,1,0,6.683,6.683A6.69,6.69,0,0,0,7.683,1m0-1A7.683,7.683,0,1,1,0,7.683,7.683,7.683,0,0,1,7.683,0Z" fill="#d4d42a"/>
        </g>
        <path id="comepleted" d="M6.357,0h.056c.034.081.2.186.264.239L7.34.825c.086.075.31.214.308.317Q5.326,3.166,2.983,5.183a.155.155,0,0,1-.056-.01C2.21,4.546,1.482,3.911.744,3.276c-.176-.162-.363-.324-.56-.5C.125,2.729.008,2.682,0,2.562a1.743,1.743,0,0,0,.389-.337c.056-.047.138-.085.194-.14.078-.077.153-.16.24-.237C.85,1.835.891,1.821.9,1.8c.081-.073.269-.287.388-.307A2.062,2.062,0,0,0,1.7,1.85c.275.257.572.5.857.745.086.083.322.349.435.347Q4.248,1.874,5.465.794C5.685.612,5.894.43,6.1.239,6.186.177,6.328.1,6.357,0Zm.011,3.077c.13.03.226.167.3.229l.708.614c.072.063.278.188.275.288Q5.932,5.708,4.185,7.2c-.291.27-.592.532-.893.793-.069.06-.249.265-.343.278C2.92,8.2,2.823,8.15,2.756,8.1c-.149-.129-.287-.267-.435-.387-.171-.149-.332-.307-.513-.457-.065-.066-.161-.118-.24-.189a1.57,1.57,0,0,0-.252-.248A2.4,2.4,0,0,1,1,6.542,3.438,3.438,0,0,1,.72,6.3a.819.819,0,0,0-.136-.089c-.126-.12-.251-.25-.4-.367C.128,5.791.006,5.743,0,5.629c.308-.256.617-.521.916-.785.09-.069.254-.267.376-.278a2.274,2.274,0,0,0,.4.339c.275.257.572.5.857.753.077.067.349.347.435.348.281-.257.59-.495.879-.754Q4.7,4.536,5.532,3.793C5.814,3.56,6.1,3.319,6.368,3.077Z" transform="translate(3.771 3.658)" fill="#d4d42a" fill-rule="evenodd"/>
      </g>
    </g>
  </g>
</svg>
