<svg xmlns="http://www.w3.org/2000/svg" width="70.806" height="92.332" viewBox="0 0 70.806 92.332">
  <path id="Path_10302" data-name="Path 10302" d="M72.365,36.3,70.878,81.315a14.827,14.827,0,0,1-14.871,14.34H27.751A14.827,14.827,0,0,1,12.88,81.33L11.393,36.3a3.72,3.72,0,0,1,7.436-.245L20.316,81.08a7.436,7.436,0,0,0,7.436,7.149H56.007a7.436,7.436,0,0,0,7.436-7.164L64.93,36.058a3.72,3.72,0,0,1,7.436.245Zm4.919-14.979a3.718,3.718,0,0,1-3.718,3.718H10.2a3.718,3.718,0,1,1,0-7.436H21.721a4.744,4.744,0,0,0,4.733-4.268A11.12,11.12,0,0,1,37.548,3.322H46.21A11.12,11.12,0,0,1,57.3,13.338a4.744,4.744,0,0,0,4.733,4.268H73.562a3.718,3.718,0,0,1,3.718,3.718ZM32.908,17.606h17.95a12.269,12.269,0,0,1-.948-3.51,3.718,3.718,0,0,0-3.7-3.346H37.552a3.718,3.718,0,0,0-3.7,3.346,12.269,12.269,0,0,1-.952,3.51Zm3.744,56.329V42.277a3.718,3.718,0,1,0-7.436,0V73.95a3.718,3.718,0,1,0,7.436,0Zm17.9,0V42.277a3.718,3.718,0,1,0-7.436,0V73.95a3.718,3.718,0,1,0,7.436,0Z" transform="translate(-6.478 -3.322)" fill="#e81837"/>
</svg>
