<svg xmlns="http://www.w3.org/2000/svg" width="11.624" height="13.561" viewBox="0 0 11.624 13.561">
  <path id="Icon_metro-file-pdf" data-name="Icon metro-file-pdf" d="M13.68,5.079a1.761,1.761,0,0,1,.363.575,1.746,1.746,0,0,1,.151.666v8.718a.723.723,0,0,1-.727.727H3.3a.723.723,0,0,1-.727-.727V2.93A.723.723,0,0,1,3.3,2.2h6.781a1.747,1.747,0,0,1,.666.151,1.761,1.761,0,0,1,.575.363ZM10.32,3.233V6.078h2.845A.827.827,0,0,0,13,5.768L10.63,3.4a.827.827,0,0,0-.31-.166ZM13.226,14.8V7.047H10.078a.723.723,0,0,1-.727-.727V3.172H3.539V14.8h9.687Zm-3.89-4.488a5.758,5.758,0,0,0,.636.424,7.509,7.509,0,0,1,.885-.053q1.112,0,1.339.371a.366.366,0,0,1,.015.394.022.022,0,0,1-.008.015l-.015.015v.008q-.045.288-.537.288a3.122,3.122,0,0,1-.87-.151,5.518,5.518,0,0,1-.984-.4,13.627,13.627,0,0,0-2.967.628Q5.674,13.828,5,13.828a.44.44,0,0,1-.212-.053l-.182-.091-.045-.038a.313.313,0,0,1-.045-.272,1.643,1.643,0,0,1,.424-.692,3.657,3.657,0,0,1,1-.73A.11.11,0,0,1,6.112,12a.044.044,0,0,1,.015.03q.394-.643.81-1.491a11.55,11.55,0,0,0,.787-1.983,6.118,6.118,0,0,1-.231-1.207,2.942,2.942,0,0,1,.049-.965q.083-.3.318-.3h.166a.319.319,0,0,1,.265.114.6.6,0,0,1,.068.515.164.164,0,0,1-.03.061.2.2,0,0,1,.008.061v.227a9.91,9.91,0,0,1-.106,1.453,3.829,3.829,0,0,0,1.1,1.8Zm-4.359,3.11a3.342,3.342,0,0,0,1.037-1.2,4.314,4.314,0,0,0-.662.636A2.515,2.515,0,0,0,4.977,13.419ZM7.989,6.457a2.25,2.25,0,0,0-.015,1q.008-.053.053-.333,0-.023.053-.325a.17.17,0,0,1,.03-.061A.022.022,0,0,1,8.1,6.721a.015.015,0,0,0,0-.011.015.015,0,0,1,0-.011A.436.436,0,0,0,8,6.426a.022.022,0,0,1-.008.015v.015Zm-.938,5A11.1,11.1,0,0,1,9.2,10.846a1.141,1.141,0,0,1-.1-.072,1.355,1.355,0,0,1-.121-.1A4.009,4.009,0,0,1,8.02,9.34a10.113,10.113,0,0,1-.628,1.491q-.227.424-.341.628Zm4.889-.121a1.811,1.811,0,0,0-1.059-.182,2.862,2.862,0,0,0,.938.212.734.734,0,0,0,.136-.008q0-.008-.015-.023Z" transform="translate(-2.571 -2.204)" fill="#f3f3f3"/>
</svg>
