<svg id="Group_6432" data-name="Group 6432" xmlns="http://www.w3.org/2000/svg" xmlns:xlink="http://www.w3.org/1999/xlink" width="109.012" height="135.928" viewBox="0 0 109.012 135.928">
  <defs>
    <clipPath id="clip-path">
      <rect id="Rectangle_5054" data-name="Rectangle 5054" width="109.012" height="135.928" fill="#fff"/>
    </clipPath>
  </defs>
  <g id="Group_6431" data-name="Group 6431" clip-path="url(#clip-path)">
    <path id="Path_10468" data-name="Path 10468" d="M0,85.533Q0,64.8,0,44.067c0-5.763,2.937-8.712,8.677-8.714,12.675,0,25.35.017,38.025-.011A16.228,16.228,0,0,1,58.843,40.47c5.645,5.791,11.325,11.548,16.952,17.357A16.78,16.78,0,0,1,80.7,69.9q.007,28.518.03,57.035c0,6.022-2.984,8.993-9.032,8.994q-31.416,0-62.832-.006C2.895,135.919,0,132.983,0,127q0-20.733,0-41.466m5.166.185q0,20.641,0,41.284c0,2.961.723,3.706,3.575,3.706q31.6.006,63.193,0c2.768,0,3.507-.747,3.508-3.564q.009-23.629,0-47.259c0-3.74.02-7.481-.036-11.221-.033-2.19-.414-2.46-2.591-2.445-6.879.048-13.759.029-20.637.131-1.607.024-2.177-.377-2.153-2.1.1-7.06.043-14.123.039-21.185,0-2.315-.1-2.417-2.417-2.552-.361-.021-.724-.013-1.086-.013q-18.741,0-37.482,0c-3.243,0-3.918.676-3.918,3.933q-.006,20.643,0,41.284M71.024,60.977l.327-.436-15.912-14.9V60.977Z" fill="#fff"/>
    <path id="Path_10469" data-name="Path 10469" d="M33.533,12.158H28.464a36.24,36.24,0,0,1,.058-6A7.386,7.386,0,0,1,36.166.027q32.493-.048,64.987,0a7.509,7.509,0,0,1,7.84,7.929q.036,42.358,0,84.718c0,5.015-3.876,8.43-8.648,7.692v-4.6c3.472-1.153,3.5-1.189,3.5-4.957q0-40.458,0-80.917a17.335,17.335,0,0,0-.056-2.349A2.464,2.464,0,0,0,101.4,5.236c-.538-.054-1.085-.03-1.628-.03q-31.317,0-62.634,0c-2.885,0-3.588.722-3.6,3.666-.006,1.07,0,2.14,0,3.286" fill="#fff"/>
    <path id="Path_10470" data-name="Path 10470" d="M19.325,29.847h-4.99a38.544,38.544,0,0,1,.058-6.168c.6-3.593,3.716-5.957,7.572-6,5.07-.054,10.142-.015,15.212-.015q24.359,0,48.715,0c6.061,0,8.965,2.918,8.965,9.011q0,41.646,0,83.292c0,4.541-2.817,7.813-6.966,8.262-1.277.138-2-.134-1.837-1.594a10.247,10.247,0,0,0,.006-1.989c-.088-1.012.211-1.535,1.334-1.65a2.47,2.47,0,0,0,2.268-2.609c.038-.541.025-1.086.025-1.629q0-40.834,0-81.67c0-.362.008-.724-.006-1.086-.091-2.293-.937-3.141-3.261-3.149-5.433-.019-10.866-.006-16.3-.006H23.4c-3.487,0-4.061.587-4.07,4.151,0,.9,0,1.791,0,2.847" fill="#fff"/>
    <path id="Path_10472" data-name="Path 10472" d="M40.644,108.414c-4.393-4.27-8.521-8.246-12.582-12.288a2.018,2.018,0,0,1-.467-1.778,2.2,2.2,0,0,1,1.64-.91c1.782-.117,3.577-.042,5.66-.042V71H45.859V93.4c2.048,0,3.881-.072,5.7.042a2.21,2.21,0,0,1,1.655.9,2.048,2.048,0,0,1-.454,1.8c-3.942,4.072-7.952,8.077-12.119,12.278" fill="#fff"/>
    <path id="Path_10473" data-name="Path 10473" d="M40.26,114.254c-6.437,0-12.874.012-19.311,0-2.853-.007-3.562-.722-3.568-3.571-.012-5.811,0-11.621,0-17.432,0-.277-.011-.554.007-.83.1-1.558.757-2.813,2.454-2.738,1.54.068,2.218,1.221,2.209,2.748-.029,4.841.033,9.684-.117,14.521-.058,1.856.208,2.673,2.373,2.65,10.728-.111,21.457-.089,32.185-.01,1.794.013,2.4-.425,2.349-2.3-.136-4.63-.045-9.268-.044-13.9,0-.415-.006-.831.009-1.245.054-1.455.793-2.457,2.247-2.468a2.165,2.165,0,0,1,2.286,2.409q.027,9.754.006,19.507c0,2.1-1.312,2.675-3.155,2.671-6.645-.017-13.289-.007-19.934-.006" fill="#fff"/>
  </g>
</svg>
