<svg xmlns="http://www.w3.org/2000/svg" xmlns:xlink="http://www.w3.org/1999/xlink" width="33.066" height="30.486" viewBox="0 0 33.066 30.486">
  <defs>
    <clipPath id="clip-path">
      <rect id="Rectangle_5364" data-name="Rectangle 5364" width="33.066" height="30.486" transform="translate(0 0)" fill="#9b9b9b"/>
    </clipPath>
  </defs>
  <g id="Group_6867" data-name="Group 6867" transform="translate(0 0.001)">
    <g id="Group_6866" data-name="Group 6866" transform="translate(0 -0.001)" clip-path="url(#clip-path)">
      <path id="Path_10945" data-name="Path 10945" d="M16.246,305.5H2.377a.445.445,0,0,1-.445-.445V289.239a.446.446,0,0,1,.445-.445H26.55a.446.446,0,0,1,.445.445v5.746a8.854,8.854,0,0,1,1.434.468q.253.107.5.229v-10a1.771,1.771,0,0,0-1.769-1.769h-4.1v1.212a1.357,1.357,0,0,1-2.713,0v-1.212H8.585v1.212a1.357,1.357,0,0,1-2.713,0v-1.212h-4.1A1.771,1.771,0,0,0,0,285.686v20.1a1.771,1.771,0,0,0,1.769,1.769H16.951q-.1-.211-.2-.429a8.84,8.84,0,0,1-.51-1.626" transform="translate(0 -281.276)" fill="#9b9b9b"/>
      <path id="Path_10946" data-name="Path 10946" d="M690.387,4.667a.815.815,0,0,0,.814-.814V.814a.814.814,0,1,0-1.628,0V3.853a.815.815,0,0,0,.814.814" transform="translate(-683.159 0)" fill="#9b9b9b"/>
      <path id="Path_10947" data-name="Path 10947" d="M2246.106,4.667a.815.815,0,0,0,.814-.814V.814a.814.814,0,1,0-1.628,0V3.853a.815.815,0,0,0,.814.814" transform="translate(-2224.407 0)" fill="#9b9b9b"/>
      <rect id="Rectangle_5360" data-name="Rectangle 5360" width="3.632" height="3.632" transform="translate(5.412 9.67)" fill="#9b9b9b"/>
      <rect id="Rectangle_5361" data-name="Rectangle 5361" width="3.632" height="3.632" transform="translate(12.647 9.67)" fill="#9b9b9b"/>
      <rect id="Rectangle_5362" data-name="Rectangle 5362" width="3.632" height="3.632" transform="translate(19.883 9.67)" fill="#9b9b9b"/>
      <rect id="Rectangle_5363" data-name="Rectangle 5363" width="3.632" height="3.632" transform="translate(5.412 17.774)" fill="#9b9b9b"/>
      <path id="Path_10948" data-name="Path 10948" d="M1359.7,1914.443h3.461a8.831,8.831,0,0,1,.172-1.02v-2.613H1359.7Z" transform="translate(-1347.052 -1893.037)" fill="#9b9b9b"/>
      <path id="Path_10949" data-name="Path 10949" d="M1826.249,1537.478a8.08,8.08,0,1,0,1.736,2.576,8.076,8.076,0,0,0-1.736-2.576m-5.73,12.7a6.972,6.972,0,1,1,6.972-6.972,6.98,6.98,0,0,1-6.972,6.972" transform="translate(-1795.557 -1520.825)" fill="#9b9b9b"/>
      <path id="Path_10950" data-name="Path 10950" d="M2623.691,1851.248h-3.053v-4.012a.6.6,0,1,0-1.194,0v4.609a.6.6,0,0,0,.6.6h3.65a.6.6,0,0,0,0-1.194" transform="translate(-2595.079 -1829.462)" fill="#9b9b9b"/>
    </g>
  </g>
</svg>
