<svg xmlns="http://www.w3.org/2000/svg" width="35.639" height="30.215" viewBox="0 0 35.639 30.215">
  <path id="Path_10394" data-name="Path 10394" d="M35.639,22.108A15.048,15.048,0,0,1,12.086,34.581a1.558,1.558,0,1,1,1.782-2.557A12.026,12.026,0,1,0,8.677,21.682l3.6-3.641a1.561,1.561,0,1,1,2.208,2.208L8.561,26.175a1.53,1.53,0,0,1-1.085.465,1.407,1.407,0,0,1-1.085-.465L.465,20.21A1.543,1.543,0,0,1,.465,18a1.543,1.543,0,0,1,2.208,0l2.944,2.983a15.029,15.029,0,0,1,30.022,1.123ZM20.531,13.314a1.554,1.554,0,0,0-1.55,1.55v7.244a1.441,1.441,0,0,0,.5,1.085l3.331,3.331a1.551,1.551,0,0,0,1.123.465,1.466,1.466,0,0,0,1.085-.465,1.544,1.544,0,0,0-.039-2.208L22.08,21.449V14.864A1.554,1.554,0,0,0,20.531,13.314Z" transform="translate(0 -7)" fill="#f9ec00"/>
</svg>
