<svg xmlns="http://www.w3.org/2000/svg" width="18.032" height="18.034" viewBox="0 0 18.032 18.034">
  <g id="edit" transform="translate(-0.5 -0.497)">
    <path id="Path_3281" data-name="Path 3281" d="M20.1.755a.867.867,0,0,0-1.233,0L12.237,7.38a.875.875,0,0,0-.221.366l-1.082,3.612a.87.87,0,0,0,.221.867.857.857,0,0,0,.617.256.927.927,0,0,0,.25-.035l3.612-1.082A.875.875,0,0,0,16,11.144l6.625-6.625a.871.871,0,0,0,0-1.233Z" transform="translate(-4.349)" fill="#3693ff"/>
    <path id="Path_3282" data-name="Path 3282" d="M17.66,8.644a.873.873,0,0,0-.873.873v5.817a1.456,1.456,0,0,1-1.454,1.454H3.7a1.456,1.456,0,0,1-1.454-1.454V3.7A1.456,1.456,0,0,1,3.7,2.245H9.516A.873.873,0,1,0,9.516.5H3.7A3.2,3.2,0,0,0,.5,3.7V15.333a3.2,3.2,0,0,0,3.2,3.2H15.333a3.2,3.2,0,0,0,3.2-3.2V9.516A.873.873,0,0,0,17.66,8.644Z" transform="translate(0 -0.001)" fill="#3693ff"/>
  </g>
</svg>
