<svg xmlns="http://www.w3.org/2000/svg" width="19.609" height="13.236" viewBox="0 0 19.609 13.236">
  <path id="Icon_zocial-email" data-name="Icon zocial-email" d="M.072,16.132V5.24q0-.019.057-.359l6.41,5.484L.148,16.51a1.6,1.6,0,0,1-.076-.378ZM.923,4.125a.815.815,0,0,1,.321-.057H18.508a1.071,1.071,0,0,1,.34.057l-6.429,5.5-.851.681-1.683,1.38L8.2,10.308l-.851-.681ZM.942,17.248,7.39,11.064l2.5,2.023,2.5-2.023,6.448,6.183a.908.908,0,0,1-.321.057H1.244a.856.856,0,0,1-.3-.057Zm12.291-6.883,6.391-5.484a1.129,1.129,0,0,1,.057.359V16.132a1.449,1.449,0,0,1-.057.378Z" transform="translate(-0.072 -4.068)" fill="#fff"/>
</svg>
