<svg xmlns="http://www.w3.org/2000/svg" xmlns:xlink="http://www.w3.org/1999/xlink" width="36.26" height="36.26" viewBox="0 0 36.26 36.26">
  <defs>
    <filter id="Ellipse_260" x="0" y="0" width="36.26" height="36.26" filterUnits="userSpaceOnUse">
      <feOffset dy="3" input="SourceAlpha"/>
      <feGaussianBlur stdDeviation="3" result="blur"/>
      <feFlood flood-opacity="0.161"/>
      <feComposite operator="in" in2="blur"/>
      <feComposite in="SourceGraphic"/>
    </filter>
  </defs>
  <g id="enable" transform="translate(7.37 4.216)">
    <g transform="matrix(1, 0, 0, 1, -7.37, -4.22)" filter="url(#Ellipse_260)">
      <circle id="Ellipse_260-2" data-name="Ellipse 260" cx="9.13" cy="9.13" r="9.13" transform="translate(9 6)"/>
    </g>
    <path id="Path_2689" data-name="Path 2689" d="M11.189,2a9.189,9.189,0,1,0,9.189,9.189A9.189,9.189,0,0,0,11.189,2Zm0,16.55a7.355,7.355,0,1,1,7.361-7.359A7.355,7.355,0,0,1,11.189,18.55ZM14.761,7.783,9.354,13.189,7.627,11.46a.917.917,0,0,0-1.3,1.3l2.381,2.386a.916.916,0,0,0,1.3,0l6.059-6.059a.916.916,0,0,0,0-1.3.926.926,0,0,0-1.306,0Z" transform="translate(-0.273 -0.279)" fill="#008b13"/>
  </g>
</svg>
