<svg xmlns="http://www.w3.org/2000/svg" width="16" height="16" viewBox="0 0 16 16">
  <g id="_1" data-name="1" transform="translate(-8 -8)">
    <path id="Path_3395" data-name="Path 3395" d="M16,8a8,8,0,1,0,8,8A8,8,0,0,0,16,8Zm0,14a6,6,0,1,1,6-6A6,6,0,0,1,16,22Z" fill="#3693ff"/>
    <path id="Path_3396" data-name="Path 3396" d="M16,15a1,1,0,0,0-1,1v3a1,1,0,0,0,2,0V16A1,1,0,0,0,16,15Zm.71-2.71a1.16,1.16,0,0,0-.33-.21,1,1,0,0,0-.76,0,.91.91,0,0,0-.54.54A1,1,0,0,0,15,13a1.05,1.05,0,0,0,.29.71,1.16,1.16,0,0,0,.33.21.94.94,0,0,0,.76,0,1.16,1.16,0,0,0,.33-.21A1.05,1.05,0,0,0,17,13a1,1,0,0,0-.08-.38,1.16,1.16,0,0,0-.21-.33Z" fill="#3693ff"/>
  </g>
</svg>
