<svg id="Group_862" data-name="Group 862" xmlns="http://www.w3.org/2000/svg" width="16.742" height="16.742" viewBox="0 0 16.742 16.742">
  <path id="Path_188" data-name="Path 188" d="M0,0H16.742V16.742H0Z" fill="none"/>
  <path id="Path_189" data-name="Path 189" d="M10.942,14.779l.987.987,3.488-3.488L11.929,8.79l-.987.987,1.8,1.8H6v1.4h6.746ZM17.161,6H7.4A1.4,1.4,0,0,0,6,7.4v2.79H7.4V7.4h9.766v9.766H7.4v-2.79H6v2.79a1.4,1.4,0,0,0,1.4,1.4h9.766a1.4,1.4,0,0,0,1.4-1.4V7.4A1.4,1.4,0,0,0,17.161,6Z" transform="translate(-3.907 -3.907)" fill="#9237c7"/>
</svg>
