<svg xmlns="http://www.w3.org/2000/svg" width="78.983" height="87.783" viewBox="0 0 78.983 87.783">
  <path id="export_log" d="M81.654,61.78a5.048,5.048,0,0,0-.922-1.448L67.565,47.164A4.407,4.407,0,0,0,61.332,53.4l5.706,5.662H42.5a4.389,4.389,0,0,0,0,8.778H67.038L61.332,73.5a4.407,4.407,0,1,0,6.233,6.233L80.732,66.565a4.082,4.082,0,0,0,.922-1.448A4.389,4.389,0,0,0,81.654,61.78ZM51.281,81H16.167a4.389,4.389,0,0,1-4.389-4.389V15.167a4.389,4.389,0,0,1,4.389-4.389H38.113V23.946A13.167,13.167,0,0,0,51.281,37.113H68.837a4.417,4.417,0,0,0,3.116-7.505L45.619,3.273h0a4.7,4.7,0,0,0-1.229-.834h-.4L42.766,2h-26.6A13.167,13.167,0,0,0,3,15.167V76.616A13.167,13.167,0,0,0,16.167,89.783H51.281a4.389,4.389,0,0,0,0-8.778ZM46.892,16.967,58.26,28.335H51.281a4.389,4.389,0,0,1-4.389-4.389Z" transform="translate(-3 -2)" fill="#fff"/>
</svg>
