<svg xmlns="http://www.w3.org/2000/svg" width="29.488" height="23.033" viewBox="0 0 29.488 23.033">
  <g id="Group_91" data-name="Group 91" transform="translate(-1000.728 -759.028)">
    <path id="Subtraction_2" data-name="Subtraction 2" d="M-3984.455-1266.938h0a6.9,6.9,0,0,1-.041-.937v-.036a8.217,8.217,0,0,0-.034-.932,1.9,1.9,0,0,0-.2-.029h-.019l-.044-.006c-.171-.022-.383-.048-.529-.078a15.37,15.37,0,0,1-2.482-.451l-.293-.083c-2.435-.7-4.953-1.42-6.247-3.262a3.019,3.019,0,0,1-.112-3.609,6.078,6.078,0,0,1,1.766-1.578,5.221,5.221,0,0,1,1.082-.49h.008c0,.147.008.452.015.747v.046l0,.051c.014.528.023.917.02,1.111a3.619,3.619,0,0,0-1.541,1.353c-.385.782.381,1.67.789,1.955a13.813,13.813,0,0,0,4.736,1.916,13.212,13.212,0,0,0,3.082.489c0-.033,0-.07,0-.11s0-.1,0-.15c0-.313,0-.56,0-.755a1.137,1.137,0,0,0,.023-.293v-.025a1.693,1.693,0,0,1,.015-.264c.344.2,3.72,2.411,4.261,2.95-.64.393-2.533,1.48-3.55,2.064l-.031.018-.065.037-.006,0c-.273.156-.487.279-.607.349Zm7.916-1.907h0v-1.765a11.348,11.348,0,0,0,1.33-.152c.267-.062.55-.1.824-.142h.008l.014,0a8.409,8.409,0,0,0,1.033-.193,16.756,16.756,0,0,0,4.436-1.653,3.6,3.6,0,0,0,1.428-1.278,1.039,1.039,0,0,0,.188-.751,3.026,3.026,0,0,0-1.24-1.466c-.1-.057-.2-.12-.327-.2l-.009-.005-.207-.131-.059-.037v-1.917a3.015,3.015,0,0,1,1.343.569l.082.052a3.848,3.848,0,0,1,2.184,3.326c-.005.093-.01.185-.014.278l-.007.139-.006.111-.006.117v.007l0,.05,0,.051a4.205,4.205,0,0,1-.714,1.316,6.484,6.484,0,0,1-2.308,1.64l-.172.088a20.671,20.671,0,0,1-3.947,1.391l-.132.037-.006,0c-.288.081-.515.144-.866.23a15.99,15.99,0,0,1-2.723.29h-.009Zm-11.112-5.193a3.351,3.351,0,0,1-1.543-.258c-1.027-.608-1.023-1.613-1.016-3.134,0-.129,0-.262,0-.4v-4.961c0-.228-.009-.472-.017-.707l0-.05a6.646,6.646,0,0,1,.131-2.138,2.02,2.02,0,0,1,1.653-1.278,8.655,8.655,0,0,1,1.225-.127,4.387,4.387,0,0,0,1.9-.355,2,2,0,0,0,.655-1.239l0-.008a5.209,5.209,0,0,1,.245-.751.8.8,0,0,1,.678-.526h5.778a5.045,5.045,0,0,1,1.59.151,2.409,2.409,0,0,1,.582,1.295v.006c.163.61.331,1.24.694,1.444a3.6,3.6,0,0,0,1.663.238h.174a6.472,6.472,0,0,1,1.283.079c.851.188,1.39.346,1.692.946v8.462c0,1.318,0,2.359-.79,2.906a3.8,3.8,0,0,1-2.085.379h-.325l-.333,0h-12.366c-.184,0-.372.006-.572.012l-.117,0C-3987.123-1274.046-3987.389-1274.038-3987.651-1274.038Zm7.424-10.962a4.505,4.505,0,0,0-4.5,4.5,4.506,4.506,0,0,0,4.5,4.5,4.505,4.505,0,0,0,4.5-4.5A4.505,4.505,0,0,0-3980.227-1285Zm7.5,0a1,1,0,0,0-1,1,1,1,0,0,0,1,1,1,1,0,0,0,1-1A1,1,0,0,0-3972.728-1285Z" transform="translate(4995.728 2049)" fill="#fff"/>
    <circle id="Ellipse_9" data-name="Ellipse 9" cx="2.5" cy="2.5" r="2.5" transform="translate(1013 766)" fill="#fff"/>
  </g>
</svg>
