<svg xmlns="http://www.w3.org/2000/svg" width="14.999" height="14.999" viewBox="0 0 14.999 14.999"><defs><style>.a{fill:#9e9e9e;fill-rule:evenodd;}</style></defs><path class="a" d="M17.5,7811.75a.75.75,0,0,1-.75.75H6.25a.75.75,0,0,1-.75-.75v-10.5a.75.75,0,0,1,.75-.75h1.5a.75.75,0,0,1,.75.75v2.25A1.5,1.5,0,0,0,10,7805h2.25a.75.75,0,0,1,.75.75V7808a1.5,1.5,0,0,0,1.5,1.5h2.25a.75.75,0,0,1,.75.75Zm0-3.75h-2.25a.75.75,0,0,1-.75-.75V7805a1.5,1.5,0,0,0-1.5-1.5H10v-3a1.5,1.5,0,0,0-1.5-1.5h-3a1.5,1.5,0,0,0-1.5,1.5v12a1.5,1.5,0,0,0,1.5,1.5h12a1.5,1.5,0,0,0,1.5-1.5v-3A1.5,1.5,0,0,0,17.5,7808Z" transform="translate(-4 -7799)"/></svg>