<svg xmlns="http://www.w3.org/2000/svg" width="27.208" height="33.989" viewBox="0 0 27.208 33.989">
  <g id="Group_6073" data-name="Group 6073" transform="translate(-7.885 -2.996)">
    <path id="Path_10391" data-name="Path 10391" d="M17.84,45.163a.52.52,0,1,0-1.039.044,6.225,6.225,0,0,0,2.131,4.421.52.52,0,0,0,.681-.786A5.179,5.179,0,0,1,17.84,45.163Zm10.8-.5a.543.543,0,0,0-.54.5,5.1,5.1,0,0,1-1.642,3.561.52.52,0,1,0,.707.764A6.126,6.126,0,0,0,29.14,45.2.52.52,0,0,0,28.64,44.665Z" transform="translate(-2.732 -12.769)" fill="#9b9b9b"/>
    <path id="Path_10392" data-name="Path 10392" d="M35.093,15.854a6.485,6.485,0,0,0-6.478-6.478,6.413,6.413,0,0,0-1.56.2,8.325,8.325,0,0,0-3.877-1.484V5.93a2.937,2.937,0,0,0-5.874,0V8.094a8.411,8.411,0,0,0-7.435,8.343V26.729H9.043a1.16,1.16,0,0,0-1.158,1.158v1.5a1.16,1.16,0,0,0,1.158,1.158H16.45a7.923,7.923,0,0,0-.215,1.637,4.005,4.005,0,0,0,8.01,0,7.923,7.923,0,0,0-.215-1.637h7.407A1.16,1.16,0,0,0,32.6,29.392v-1.5a1.16,1.16,0,0,0-1.158-1.158h-.832V22.02A6.494,6.494,0,0,0,35.093,15.854Zm-24.184.583a7.376,7.376,0,0,1,7.372-7.365H22.2a7.217,7.217,0,0,1,3.606.957,6.471,6.471,0,0,0,2.809,12.3,6.127,6.127,0,0,0,.95-.076v4.473H10.909V16.437Zm9.328,18.712a2.964,2.964,0,0,1-2.961-2.961,7.223,7.223,0,0,1,.243-1.637h5.444a7.223,7.223,0,0,1,.243,1.637A2.966,2.966,0,0,1,20.237,35.149Z" fill="#9b9b9b"/>
  </g>
</svg>
