<svg xmlns="http://www.w3.org/2000/svg" width="19.588" height="19.588" viewBox="0 0 19.588 19.588">
  <g id="Group_3601" data-name="Group 3601" transform="translate(32.889 32.888) rotate(180)">
    <path id="Path_3324" data-name="Path 3324" d="M23.094,13.3a9.794,9.794,0,1,0,9.794,9.794A9.794,9.794,0,0,0,23.094,13.3Zm0,18.66a8.866,8.866,0,1,1,8.866-8.866,8.866,8.866,0,0,1-8.866,8.866Z" fill="#fff"/>
    <path id="Path_3325" data-name="Path 3325" d="M47.234,46.048h-8.19l2.936-2.936a.465.465,0,1,0-.657-.657l-3.747,3.728a.421.421,0,0,0-.1.155.535.535,0,0,0,0,.348.421.421,0,0,0,.1.155l3.747,3.728a.466.466,0,0,0,.657,0,.479.479,0,0,0,0-.657l-2.936-2.936h8.21a.464.464,0,1,0-.019-.927Z" transform="translate(-19.485 -23.418)" fill="#fff"/>
  </g>
</svg>
