<svg xmlns="http://www.w3.org/2000/svg" width="39.098" height="39.098" viewBox="0 0 39.098 39.098">
  <path id="Path_9753" data-name="Path 9753" d="M67.549,48A19.549,19.549,0,1,0,87.1,67.549,19.549,19.549,0,0,0,67.549,48ZM65.524,84.184A16.758,16.758,0,0,1,54.8,56.679a18.568,18.568,0,0,1,.189,2.272c-.154,2.236-.375,3.636.934,5.523a9.112,9.112,0,0,1,.883,2.639c.243.832,1.213,1.269,1.881,1.781,1.35,1.035,2.641,2.237,4.072,3.148.944.6,1.534.9,1.258,2.053a7.283,7.283,0,0,1-.764,2.324,4.71,4.71,0,0,0,.785,2.1c.7.7,1.4,1.351,2.172,1.985,1.191.984-.116,2.262-.684,3.676ZM79.4,79.4a16.637,16.637,0,0,1-8.7,4.613,6.951,6.951,0,0,1,2.058-2.76,7,7,0,0,0,1.851-2.289,15.9,15.9,0,0,1,1.276-2.182c.664-1.024-1.637-2.569-2.383-2.893a24.563,24.563,0,0,1-4.432-2.761c-1.062-.748-3.22.39-4.419-.133a23.122,23.122,0,0,1-4.425-3.039c-1.474-1.11-1.4-2.4-1.4-4.041,1.154.043,2.8-.319,3.563.609.242.293,1.073,1.6,1.63,1.137.455-.38-.337-1.9-.49-2.261-.47-1.1,1.072-1.53,1.861-2.277,1.03-.974,3.24-2.5,3.065-3.2s-2.211-2.676-3.407-2.368c-.179.046-1.757,1.7-2.062,1.96q.012-.81.024-1.62c.005-.341-.636-.691-.606-.911.075-.556,1.622-1.565,2.007-2.007-.27-.169-1.19-.959-1.468-.843-.674.281-1.436.475-2.11.756a4.292,4.292,0,0,0-.062-.67,16.6,16.6,0,0,1,4.258-1.236l1.324.532.935,1.109.933.962.815.263,1.3-1.221-.334-.872v-.784a16.573,16.573,0,0,1,7.1,2.8c-.379.034-.8.09-1.265.149a4.212,4.212,0,0,0-.655-.247c.614,1.32,1.254,2.621,1.9,3.923.695,1.391,2.236,2.883,2.507,4.352.319,1.731.1,3.3.272,5.339.168,1.961,2.211,4.189,2.211,4.189a4.427,4.427,0,0,0,1.728.209A16.653,16.653,0,0,1,79.4,79.4Z" transform="translate(-48 -48)" fill="#fff"/>
</svg>
