<svg xmlns="http://www.w3.org/2000/svg" width="66" height="66" viewBox="0 0 66 66">
  <g id="Layer_2" data-name="Layer 2" transform="translate(0.346 0.346)">
    <g id="grid">
      <rect id="Rectangle_3715" data-name="Rectangle 3715" width="66" height="66" transform="translate(-0.346 -0.346)" opacity="0"/>
      <path id="Path_3617" data-name="Path 3617" d="M19.327,3H8.442A5.442,5.442,0,0,0,3,8.442V19.327a5.442,5.442,0,0,0,5.442,5.442H19.327a5.442,5.442,0,0,0,5.442-5.442V8.442A5.442,5.442,0,0,0,19.327,3ZM46.538,3H35.654a5.442,5.442,0,0,0-5.442,5.442V19.327a5.442,5.442,0,0,0,5.442,5.442H46.538a5.442,5.442,0,0,0,5.442-5.442V8.442A5.442,5.442,0,0,0,46.538,3ZM19.327,30.211H8.442A5.442,5.442,0,0,0,3,35.654V46.538A5.442,5.442,0,0,0,8.442,51.98H19.327a5.442,5.442,0,0,0,5.442-5.442V35.654A5.442,5.442,0,0,0,19.327,30.211Zm27.211,0H35.654a5.442,5.442,0,0,0-5.442,5.442V46.538a5.442,5.442,0,0,0,5.442,5.442H46.538a5.442,5.442,0,0,0,5.442-5.442V35.654A5.442,5.442,0,0,0,46.538,30.211Z" transform="translate(5.163 5.163)"/>
    </g>
  </g>
</svg>
