<svg xmlns="http://www.w3.org/2000/svg" width="14.43" height="14.43" viewBox="0 0 14.43 14.43">
  <g id="_" data-name="?" transform="translate(-2 -2)">
    <path id="Path_3322" data-name="Path 3322" d="M9.215,2A7.215,7.215,0,1,0,16.43,9.215,7.215,7.215,0,0,0,9.215,2Zm0,12.987a5.772,5.772,0,1,1,5.772-5.772A5.772,5.772,0,0,1,9.215,14.987Z" fill="#3693ff"/>
    <path id="Path_3323" data-name="Path 3323" d="M11.375,7a1.991,1.991,0,0,0-1.609.635A2.886,2.886,0,0,0,9.16,9.321l1.515.238a1.623,1.623,0,0,1,.231-.8.548.548,0,0,1,.462-.231.491.491,0,0,1,.382.144.642.642,0,0,1,.13.426.931.931,0,0,1-.317.592,9.834,9.834,0,0,0-.765.859,2.006,2.006,0,0,0-.253.548,2.814,2.814,0,0,0-.087.772v.18H11.93a1.53,1.53,0,0,1,.1-.62,2.164,2.164,0,0,1,.5-.628,3.788,3.788,0,0,0,.721-.945,1.861,1.861,0,0,0,.18-.808,2.006,2.006,0,0,0-.721-1.6A2.035,2.035,0,0,0,11.375,7Zm-.166,5.57a.721.721,0,1,0,.721.721A.721.721,0,0,0,11.209,12.568Z" transform="translate(-1.994 -1.391)" fill="#3693ff"/>
  </g>
</svg>
