<svg id="Group_12829" data-name="Group 12829" xmlns="http://www.w3.org/2000/svg" width="31.417" height="31.417" viewBox="0 0 31.417 31.417">
  <path id="Path_10698" data-name="Path 10698" d="M0,0H31.417V31.417H0Z" fill="none"/>
  <path id="Path_10699" data-name="Path 10699" d="M16.83,3A11.793,11.793,0,0,0,4.708,14.782H2.365A.648.648,0,0,0,1.907,15.9L5.559,19.56a.648.648,0,0,0,.929,0L10.141,15.9a.654.654,0,0,0-.471-1.113H7.326A9.161,9.161,0,0,1,16.62,5.619a9.279,9.279,0,0,1,9.032,9.032,9.169,9.169,0,0,1-9.163,9.294,9.026,9.026,0,0,1-5.6-1.937,1.309,1.309,0,0,0-1.623,2.055,11.6,11.6,0,0,0,7.226,2.5A11.793,11.793,0,0,0,28.271,14.442,11.92,11.92,0,0,0,16.83,3Zm-.668,6.545a.989.989,0,0,0-.982.982v4.817a1.324,1.324,0,0,0,.641,1.126l4.084,2.422A.983.983,0,1,0,20.914,17.2l-3.77-2.238V10.515A.986.986,0,0,0,16.162,9.546Z" transform="translate(0.528 0.926)" fill="#3693ff"/>
</svg>
