<svg xmlns="http://www.w3.org/2000/svg" width="21.334" height="20.041" viewBox="0 0 21.334 20.041">
  <g id="Group_7" data-name="Group 7" transform="translate(0 -1.959)">
    <path id="Path_2" data-name="Path 2" d="M4.833,2.5h0A1.333,1.333,0,0,1,6.167,3.833v18H3.5v-18A1.333,1.333,0,0,1,4.833,2.5Zm14,0h0a1.333,1.333,0,0,1,1.333,1.333v18H17.5v-18A1.333,1.333,0,0,1,18.833,2.5Z" transform="translate(-1.167 -0.167)" fill="#8b8891"/>
    <rect id="Rectangle_9" data-name="Rectangle 9" width="20.667" height="5.333" rx="2" transform="translate(0.333 11)" fill="#d8d9dc"/>
    <path id="Path_3" data-name="Path 3" d="M3.283,15.5,2.63,16.807.89,20.287" transform="translate(-0.297 -4.5)" fill="none"/>
    <path id="Path_4" data-name="Path 4" d="M3.153,15.5,2.5,16.807.76,20.287A1.3,1.3,0,0,1,.5,19.5V16.833A1.337,1.337,0,0,1,1.833,15.5Zm15.36,5.333.653-1.307,1.74-3.48a1.3,1.3,0,0,1,.26.787V19.5a1.337,1.337,0,0,1-1.333,1.333Z" transform="translate(-0.167 -4.5)" fill="#f0ea2a"/>
    <path id="Path_5" data-name="Path 5" d="M9.187,15.5,7.173,19.52,6.52,20.833H9.493L12.16,15.5Z" transform="translate(-2.173 -4.5)" fill="#f0ea2a"/>
    <path id="Path_6" data-name="Path 6" d="M22.673,15.5l-.667,1.327-2,4.007H17.02L19.687,15.5Z" transform="translate(-5.673 -4.5)" fill="#f0ea2a"/>
    <rect id="Rectangle_10" data-name="Rectangle 10" width="20.667" height="3.333" rx="1.666" transform="translate(0.333 4.333)" fill="#d8d9dc"/>
    <path id="Path_7" data-name="Path 7" d="M7.157,5.5,5.837,8.14l-.347.693H2.51l.66-1.327L4.177,5.5Z" transform="translate(-0.837 -1.167)" fill="#f0ea2a"/>
    <path id="Path_8" data-name="Path 8" d="M13.02,8.833,14.687,5.5H17.66L15.993,8.833Z" transform="translate(-4.34 -1.167)" fill="#f0ea2a"/>
    <path id="Path_9" data-name="Path 9" d="M25.187,5.5,24.173,7.527,23.52,8.833h2.987l.333-.673,1.273-2.513a1.315,1.315,0,0,0-.607-.147h-2.32L24.173,7.527,23.52,8.833h2.987" transform="translate(-7.84 -1.167)" fill="#f0ea2a"/>
    <path id="Path_10" data-name="Path 10" d="M19.667,8a1.667,1.667,0,0,0,1.667-1.667V5.667a1.661,1.661,0,0,0-.876-1.458.311.311,0,0,0-.031-.025c-.015-.007-.031-.01-.047-.017a1.649,1.649,0,0,0-.247-.092c-.033-.01-.067-.023-.1-.031A1.657,1.657,0,0,0,19.667,4h-.333V3.667a1.667,1.667,0,0,0-3.333,0V4H5.333V3.667A1.667,1.667,0,1,0,2,3.667V4H1.667A1.667,1.667,0,0,0,0,5.667v.667A1.667,1.667,0,0,0,1.667,8H2v2.667H1.667A1.667,1.667,0,0,0,0,12.333V15a1.683,1.683,0,0,0,.031.31c0,.027.013.053.019.079a1.609,1.609,0,0,0,.067.215c.011.029.024.059.037.087a1.6,1.6,0,0,0,.091.168c.022.037.043.073.067.107,0,.007.008.014.013.021l.007.005.018.02a1.659,1.659,0,0,0,1.316.654H2v5A.333.333,0,0,0,2.333,22H5a.333.333,0,0,0,.333-.333v-5H16v5a.333.333,0,0,0,.333.333H19a.333.333,0,0,0,.333-.333v-5h.333A1.667,1.667,0,0,0,21.333,15V12.333a1.687,1.687,0,0,0-.031-.311c0-.027-.013-.051-.019-.077a1.606,1.606,0,0,0-.067-.217q-.017-.043-.036-.084a1.591,1.591,0,0,0-.094-.173,1.09,1.09,0,0,0-.067-.1L21,11.348a.071.071,0,0,0-.012-.013,1.659,1.659,0,0,0-1.327-.667h-.333V8Zm0-3.333a.985.985,0,0,1,.133.013L18.459,7.333h-2.24l1.333-2.667ZM18.667,8v2.667h-2V8Zm-2-4.333a1,1,0,0,1,2,0V4h-2Zm-3.14,1h3.28L15.473,7.333h-3.28ZM16,8v2.667H5.333V8ZM10.552,4.667h2.229L11.448,7.333H9.219Zm-4.025,0h3.28L8.473,7.333H5.193Zm-.746,0L4.447,7.333H2.211L3.545,4.667ZM4.667,8v2.667h-2V8Zm-2-4.333a1,1,0,0,1,2,0V4h-2ZM1.477,7.314a1,1,0,0,1-.811-.981V5.667a1,1,0,0,1,1-1H2.8Zm-.81,5.019a1,1,0,0,1,1-1h.781L.667,14.894Zm1,3.667a.993.993,0,0,1-.675-.267l2.2-4.4H6.474L4.141,16Zm3,5.333h-2V16.667h2ZM7.115,16H4.885l2.333-4.667H9.447Zm4.026,0H7.86l2.333-4.667h3.28Zm2.987,0H11.885l2.333-4.667h2.241Zm4.539,5.333h-2V16.667h2Zm2-6.333a1,1,0,0,1-1,1h-.781l1.781-3.561Zm-1-3.667a.993.993,0,0,1,.674.267L18.14,16H14.873l2.333-4.667Zm-.459-4,1.185-2.35a.994.994,0,0,1,.273.683v.667a1,1,0,0,1-1,1Z"/>
  </g>
</svg>
