<svg xmlns="http://www.w3.org/2000/svg" width="40.279" height="33.263" viewBox="0 0 40.279 33.263">
  <g id="Group_6865" data-name="Group 6865" transform="translate(-425.594 -1639.998)">
    <path id="Union_5" data-name="Union 5" d="M2.588,33.263C1.818,32.361.9,31.446,0,30.525v-.416c3.678-4.222,11.385-12.493,11.449-12.493a7.615,7.615,0,0,0,1.376.915c.3-.339.824-.915.824-.915l-.907-1.332,1.083-1.489q-.142-.285-.266-.578A10.233,10.233,0,0,1,15.753,3a10.271,10.271,0,0,1,1.514-1.249,10.223,10.223,0,0,1,11.444,0,10.273,10.273,0,0,1,2.764,2.764A10.238,10.238,0,0,1,19.005,19.664q-.361-.153-.71-.334c-.557.422-1.391,1.032-1.391,1.032l-1.5-.749-.674.916.84,1.257S3.705,32.682,3.088,33.263Zm11.89-23.029a8.51,8.51,0,1,0,8.511-8.511A8.52,8.52,0,0,0,14.478,10.234Z" transform="translate(425.594 1639.998)" fill="#9b9b9b"/>
    <path id="Path_10156" data-name="Path 10156" d="M174.1,65h4.07v4.653c.067.085,2.268,1.926,3.338,2.663-1.1,2.332-5.3,3.275-8.24,2-.415-.218-1.379-.533-1.665-1V67.082a1.778,1.778,0,0,1,.746-1.658A3.38,3.38,0,0,1,174.1,65Zm5.4,0h3.08c.962,1.509.112,6-.416,6.151-.576-.576-2.083-1.5-2.663-2.081Zm7.5,0h3.269a2.5,2.5,0,0,1,2.8,2.829V81.37c0,3.269-.4,3.849-2.991,3.849-.739.021-12.122-.076-15.748-.076a2.476,2.476,0,0,1-2.65-2.279c0-1.233-.082-2.84-.082-4.138.28-.128.264-.191.574-.25,1.514,1.19,5.746.75,7.491.166a10.6,10.6,0,0,0,7.249-7.74,12.964,12.964,0,0,0,.416-4.07A15,15,0,0,0,187,65Zm-.083,15.231v2.933l3.987-.1v-2.83Z" transform="translate(272.8 1582.433)" fill="#9b9b9b" fill-rule="evenodd"/>
  </g>
</svg>
