<svg xmlns="http://www.w3.org/2000/svg" width="89.523" height="86.368" viewBox="0 0 89.523 86.368">
  <g id="Group_6145" data-name="Group 6145" transform="translate(-755.875 -343.071)">
    <path id="Path_10250" data-name="Path 10250" d="M845.4,384.2v17.309c-.344.025-.688.071-1.032.072q-4.121.02-8.242.026c-.435-.018-.871-.051-1.306-.051q-38.332,0-76.665,0c-.757,0-1.514-.025-2.271-.038q0-7.817-.007-15.634c0-3.881,2.1-5.971,6-5.978q5.023-.008,10.045,0c.011,1.512.014,3.024.034,4.535a4.044,4.044,0,1,0,8.086-.01c.023-1.511.028-3.023.04-4.535q10.3.007,20.6.012,10.169,0,20.337-.017c.013,1.4.018,2.791.041,4.187a7.422,7.422,0,0,0,.1,1.475,3.963,3.963,0,0,0,4.321,3.014,3.888,3.888,0,0,0,3.643-3.688c.068-1.655.04-3.315.055-4.972,3.377-.02,6.754-.047,10.132-.054a6.893,6.893,0,0,1,3.045.623A5.991,5.991,0,0,1,845.4,384.2Z" transform="translate(0 -28.715)" fill="#3693ff"/>
    <path id="Path_10251" data-name="Path 10251" d="M833.9,478.829c2.747-.008,7.772-.012,10.52-.026.344,0,.688-.047,1.032-.072v52.977a3.254,3.254,0,0,0-.272.438,4.75,4.75,0,0,1-4.784,3.232q-39.593,0-79.185,0a5.129,5.129,0,0,1-5.267-5.4c.466,0,.932-2.291,1.4-2.291q23.726,0,47.452-.009a31.039,31.039,0,0,0,4.615-.142,27.25,27.25,0,0,0,8.737-2.3,26.613,26.613,0,0,0,10.875-9.054,22.165,22.165,0,0,0,3.714-7.839c1.775-.11,4.408,1.937,4.433.7.035-1.687.016-3.375,0-5.063-.005-.7-2.555-1.244-3.266-1.485l2.278-7.593a1.419,1.419,0,0,0,1.326-.953,1.512,1.512,0,0,0-.566-1.62c-.264-.264-2.785-.55-3.037-.826q0-1.123.007-2.246c.273-.3,2.817-.6,3.1-.886a1.45,1.45,0,0,0,.5-1.556,1.388,1.388,0,0,0-1.324-.945Z" transform="translate(-0.052 -105.94)" fill="#e3e8f3"/>
    <path id="Path_10253" data-name="Path 10253" d="M755.891,529.991q-.008-12.831-.014-25.662,0-12.788.006-25.575c.757.013,1.514.038,2.271.038q38.332,0,76.665,0c.436,0,.871.033,1.307.051q0,3.518.008,7.036a1.991,1.991,0,0,0-1.123.623c-.391.391-.778.785-1.174,1.171-.942.919-.68.905-1.638-.027-.417-.405-.813-.833-1.24-1.228a1.367,1.367,0,0,0-2.014-.122,1.384,1.384,0,0,0,.108,2.023c.534.575,1.088,1.134,1.667,1.663.349.318.307.531-.013.833-.593.557-1.174,1.13-1.72,1.732a1.349,1.349,0,0,0-.04,1.955,1.379,1.379,0,0,0,1.958-.08,14.23,14.23,0,0,0,1.417-1.418c.495-.6.839-.629,1.411-.03.706.739,1.281,1.69,2.4,1.937q0,3.8,0,7.593c-1.89,0-3.781-.008-5.671.008-1.048.009-1.478.44-1.488,1.5q-.025,2.53,0,5.06c.01,1.114.417,1.51,1.541,1.526,1.483.021,2.966.024,4.449.036a22.168,22.168,0,0,1-3.714,7.839,26.612,26.612,0,0,1-10.875,9.054,27.248,27.248,0,0,1-8.737,2.3c-2.3.232-4.6.14-6.893.143q-23.726.024-47.452.009C756.823,529.978,756.357,529.986,755.891,529.991Zm16.238-39.585v-2.443c0-.029,0-.058,0-.087-.033-1.057-.432-1.524-1.468-1.545q-2.616-.052-5.235,0a1.271,1.271,0,0,0-1.433,1.4q-.058,2.66,0,5.322c.023.983.5,1.4,1.508,1.411q2.53.029,5.061,0c1.132-.012,1.55-.458,1.564-1.619C772.138,492.035,772.129,491.221,772.129,490.406Zm-4.086,36.442c.872,0,1.745.013,2.617,0,1.01-.02,1.45-.434,1.462-1.43q.033-2.616,0-5.233c-.012-.961-.444-1.4-1.385-1.413q-2.66-.032-5.32,0c-.929.009-1.389.39-1.413,1.295q-.071,2.745,0,5.493c.025.9.49,1.269,1.422,1.288C766.3,526.862,767.171,526.848,768.043,526.848Zm32.5,0h2.442c.058,0,.116,0,.174,0,.991-.036,1.445-.446,1.462-1.443q.043-2.615,0-5.231a1.243,1.243,0,0,0-1.4-1.405q-2.66-.03-5.319,0a1.244,1.244,0,0,0-1.415,1.391q-.048,2.659,0,5.319c.019.935.488,1.345,1.442,1.366C798.8,526.862,799.668,526.848,800.54,526.849Zm16.344-8.086c-.93,0-1.861-.019-2.791.005a1.219,1.219,0,0,0-1.364,1.348q-.045,2.7,0,5.406c.017.883.49,1.309,1.395,1.319q2.659.03,5.319,0c.919-.01,1.38-.4,1.4-1.308.046-1.83.042-3.662,0-5.492a1.205,1.205,0,0,0-1.348-1.278C818.629,518.766,817.756,518.764,816.885,518.763Zm-32.509,0c-.9,0-1.8-.015-2.7,0-.93.019-1.4.391-1.425,1.285-.049,1.829-.042,3.661,0,5.492a1.209,1.209,0,0,0,1.326,1.3q2.747.005,5.493,0a1.18,1.18,0,0,0,1.291-1.242c.046-1.859.044-3.72,0-5.579-.018-.825-.509-1.231-1.368-1.253S785.247,518.763,784.375,518.762Zm36.907-15.184a1.4,1.4,0,0,0-.693-1.338,1.179,1.179,0,0,0-1.393.083c-.471.386-.9.823-1.333,1.253-1.075,1.065-1.072,1.069-2.111.027-.267-.268-.532-.538-.8-.8q-1.324-1.3-2.271-.323c-.58.6-.461,1.4.333,2.211.49.5.974,1,1.484,1.478.3.283.312.489,0,.779-.594.557-1.174,1.131-1.727,1.729a1.384,1.384,0,0,0-.1,1.962,1.344,1.344,0,0,0,2.016-.068c.131-.116.245-.25.374-.366.581-.524,1.036-1.495,1.713-1.516s1.126.975,1.712,1.486c.131.115.244.25.374.367a1.351,1.351,0,0,0,2.017.128,1.376,1.376,0,0,0-.1-2.021c-.533-.576-1.089-1.133-1.666-1.666-.342-.317-.322-.54.009-.846.555-.514,1.078-1.062,1.607-1.6A1.56,1.56,0,0,0,821.282,503.578Zm-30.807-.01a2.281,2.281,0,0,0-.142-.454c-.435-.882-1.439-.986-2.255-.191q-2.093,2.039-4.129,4.136c-.4.416-.659.418-1.036-.007-.482-.543-1.01-1.046-1.536-1.547a1.386,1.386,0,0,0-2.075-.158,1.365,1.365,0,0,0,.188,2.01q1.366,1.409,2.774,2.777a1.405,1.405,0,0,0,2.334,0c1.781-1.756,3.541-3.531,5.307-5.3A1.619,1.619,0,0,0,790.475,503.568Zm32.509-16.116a3.287,3.287,0,0,0-.142-.451,1.323,1.323,0,0,0-2.247-.266q-2.128,2.065-4.192,4.195c-.379.39-.612.384-.965-.008-.485-.54-1.016-1.039-1.54-1.542-.765-.734-1.472-.808-2.072-.232a1.394,1.394,0,0,0,.179,2.076q1.37,1.405,2.775,2.775a1.389,1.389,0,0,0,2.27.011c1.8-1.775,3.582-3.573,5.369-5.363A1.709,1.709,0,0,0,822.984,487.452ZM764.04,504.965a1.194,1.194,0,0,0-1.206.711,1.215,1.215,0,0,0,.215,1.456c1.049,1.087,2.108,2.167,3.2,3.209a1.253,1.253,0,0,0,1.881-.005c1.93-1.893,3.847-3.8,5.727-5.742a1.253,1.253,0,0,0-.2-1.972,1.36,1.36,0,0,0-1.871.331c-1.358,1.356-2.732,2.7-4.06,4.08-.434.453-.7.435-1.1-.018-.477-.546-1.015-1.04-1.534-1.549A1.381,1.381,0,0,0,764.04,504.965Zm26.435-17.474a1.2,1.2,0,0,0-.309-.8,1.367,1.367,0,0,0-2.131.106c-1.371,1.343-2.741,2.69-4.068,4.077-.436.456-.694.436-1.086-.019-.454-.528-.971-1-1.474-1.486-.762-.732-1.478-.8-2.073-.223a1.4,1.4,0,0,0,.185,2.077q1.368,1.408,2.776,2.777a1.394,1.394,0,0,0,2.272,0c1.8-1.777,3.584-3.574,5.371-5.365A1.5,1.5,0,0,0,790.475,487.491Zm16.26.006a2.6,2.6,0,0,0-.079-.372,1.337,1.337,0,0,0-2.332-.364q-2.129,2.066-4.2,4.194c-.338.346-.554.387-.894.01-.505-.561-1.054-1.084-1.6-1.606-.757-.724-1.485-.783-2.072-.191a1.42,1.42,0,0,0,.221,2.08q1.341,1.373,2.714,2.714a1.415,1.415,0,0,0,2.334.023c1.781-1.756,3.541-3.533,5.309-5.3A1.75,1.75,0,0,0,806.735,487.5Zm0,16.155a2.727,2.727,0,0,0-.107-.433,1.316,1.316,0,0,0-2.282-.314c-1.378,1.335-2.745,2.682-4.064,4.075-.493.521-.794.475-1.226-.027a20.2,20.2,0,0,0-1.475-1.483,1.331,1.331,0,1,0-1.858,1.866c.95.981,1.913,1.951,2.9,2.9a1.329,1.329,0,0,0,2.137-.024c1.824-1.794,3.623-3.611,5.43-5.422A1.6,1.6,0,0,0,806.732,503.652Z" transform="translate(-0.001 -105.958)" fill="#e3e8f3"/>
    <path id="Path_10254" data-name="Path 10254" d="M829.1,351.179c.011-1.336.013-2.672.033-4.008a4.045,4.045,0,1,1,8.089-.01c.027,1.336.026,2.672.038,4.008-.013,1.512-.018,3.023-.04,4.535a4.044,4.044,0,1,1-8.086.01C829.119,354.2,829.116,352.691,829.1,351.179Z" transform="translate(-57.187 0)" fill="#555e6b"/>
    <path id="Path_10255" data-name="Path 10255" d="M1053.216,351.165c.011-1.307.013-2.613.036-3.92a4.05,4.05,0,1,1,8.095.015c.014,1.307.021,2.613.031,3.92-.014,1.657.013,3.317-.054,4.972a3.888,3.888,0,0,1-3.643,3.688,3.964,3.964,0,0,1-4.322-3.014,7.432,7.432,0,0,1-.1-1.475C1053.234,353.956,1053.228,352.561,1053.216,351.165Z" transform="translate(-232.202 -0.001)" fill="#555e6b"/>
    <path id="Path_10256" data-name="Path 10256" d="M1095.479,595.3c-1.483-.011-2.965-.015-4.448-.036-1.124-.015-1.531-.412-1.541-1.526q-.022-2.53,0-5.06c.01-1.056.44-1.487,1.488-1.5,1.891-.016,3.781-.007,5.671-.008a1.421,1.421,0,0,1,.989,1.485c.013,1.688.032,3.376,0,5.063C1097.609,594.965,1097.255,595.2,1095.479,595.3Z" transform="translate(-260.52 -190.63)" fill="#7b6df6"/>
    <path id="Path_10257" data-name="Path 10257" d="M1095.181,520.33c-1.118-.247-1.692-1.2-2.4-1.937-.572-.6-.916-.566-1.411.03a14.224,14.224,0,0,1-1.417,1.418,1.379,1.379,0,0,1-1.958.08,1.349,1.349,0,0,1,.04-1.955c.547-.6,1.128-1.175,1.721-1.733.32-.3.362-.514.013-.833-.579-.528-1.133-1.088-1.668-1.663a1.384,1.384,0,0,1-.108-2.023,1.368,1.368,0,0,1,2.015.122c.427.395.822.822,1.239,1.228.958.932.7.946,1.638.027.4-.386.783-.78,1.173-1.171a1.994,1.994,0,0,1,1.123-.623,1.387,1.387,0,0,1,1.324.945,1.45,1.45,0,0,1-.5,1.556c-.282.287-.548.59-.821.886-1.4,1.292-1.4.965-.007,2.246.253.276.5.561.76.826a1.513,1.513,0,0,1,.566,1.62A1.419,1.419,0,0,1,1095.181,520.33Z" transform="translate(-259.051 -131.373)" fill="#fe6464"/>
    <path id="Path_10258" data-name="Path 10258" d="M1118.5,529c-1.389-1.281-1.394-.954.007-2.246Q1118.5,527.881,1118.5,529Z" transform="translate(-282.368 -143.446)" fill="#e3e8f3"/>
    <path id="Path_10259" data-name="Path 10259" d="M800.954,517.325c0,.814.009,1.629,0,2.443-.015,1.161-.433,1.607-1.564,1.619q-2.531.026-5.061,0c-1.009-.012-1.485-.428-1.508-1.411q-.062-2.66,0-5.322a1.271,1.271,0,0,1,1.433-1.4q2.617-.052,5.235,0c1.036.021,1.435.488,1.467,1.545,0,.029,0,.058,0,.087Z" transform="translate(-28.827 -132.877)" fill="#7b6df6"/>
    <path id="Path_10260" data-name="Path 10260" d="M796.885,669.434c-.872,0-1.745.015-2.617,0-.931-.02-1.4-.388-1.422-1.288q-.075-2.745,0-5.493c.023-.9.484-1.286,1.413-1.295q2.66-.027,5.32,0c.941.011,1.373.452,1.385,1.413q.032,2.616,0,5.233c-.012,1-.452,1.41-1.462,1.43C798.629,669.448,797.757,669.434,796.885,669.434Z" transform="translate(-28.843 -248.544)" fill="#7b6df6"/>
    <path id="Path_10261" data-name="Path 10261" d="M945.192,669.434c-.872,0-1.744.014-2.616-.005-.955-.02-1.424-.431-1.443-1.366q-.053-2.659,0-5.319a1.244,1.244,0,0,1,1.415-1.391q2.659-.029,5.319,0a1.243,1.243,0,0,1,1.4,1.405q.047,2.615,0,5.232c-.016,1-.47,1.406-1.462,1.443-.058,0-.116,0-.174,0Z" transform="translate(-144.653 -248.544)" fill="#7b6df6"/>
    <path id="Path_10262" data-name="Path 10262" d="M1019.465,661.359c.872,0,1.744,0,2.616,0a1.205,1.205,0,0,1,1.348,1.278c.043,1.83.047,3.663,0,5.492-.022.906-.484,1.3-1.4,1.308q-2.659.029-5.319,0c-.9-.01-1.377-.435-1.395-1.319q-.052-2.7,0-5.406a1.219,1.219,0,0,1,1.364-1.348C1017.6,661.34,1018.535,661.359,1019.465,661.359Z" transform="translate(-202.582 -248.554)" fill="#7b6df6"/>
    <path id="Path_10263" data-name="Path 10263" d="M871.126,661.359c.872,0,1.744-.017,2.616.005s1.35.428,1.368,1.253c.04,1.859.042,3.721,0,5.579a1.18,1.18,0,0,1-1.292,1.242q-2.746.011-5.493,0a1.208,1.208,0,0,1-1.326-1.3c-.039-1.83-.046-3.662,0-5.492.023-.894.5-1.265,1.425-1.285C869.324,661.345,870.226,661.359,871.126,661.359Z" transform="translate(-86.752 -248.555)" fill="#7b6df6"/>
    <path id="Path_10264" data-name="Path 10264" d="M1022.459,586.633a1.557,1.557,0,0,1-.547.952c-.53.54-1.053,1.088-1.607,1.6-.33.307-.351.53-.009.846.576.533,1.132,1.091,1.665,1.667a1.376,1.376,0,0,1,.1,2.021,1.35,1.35,0,0,1-2.017-.128c-.13-.117-.243-.252-.374-.367-.585-.511-1.029-1.507-1.712-1.486s-1.132.992-1.713,1.516c-.129.117-.243.251-.374.366a1.344,1.344,0,0,1-2.016.068,1.384,1.384,0,0,1,.1-1.962c.552-.6,1.133-1.171,1.727-1.729.308-.289.3-.5,0-.778-.511-.475-.995-.98-1.485-1.478-.793-.806-.912-1.612-.333-2.211q.944-.976,2.271.323c.27.265.535.535.8.8,1.039,1.042,1.035,1.038,2.111-.027.433-.429.863-.867,1.333-1.252a1.18,1.18,0,0,1,1.393-.083A1.4,1.4,0,0,1,1022.459,586.633Z" transform="translate(-201.179 -189.013)" fill="#fe6464"/>
    <path id="Path_10265" data-name="Path 10265" d="M872.7,587.8a1.619,1.619,0,0,1-.568,1.265c-1.766,1.77-3.527,3.546-5.307,5.3a1.405,1.405,0,0,1-2.334,0q-1.406-1.37-2.774-2.777a1.365,1.365,0,0,1-.188-2.01,1.386,1.386,0,0,1,2.075.158c.526.5,1.054,1,1.536,1.547.376.425.633.423,1.036.007q2.03-2.1,4.129-4.135c.815-.795,1.819-.691,2.255.191A2.3,2.3,0,0,1,872.7,587.8Z" transform="translate(-82.227 -190.193)" fill="#5db531"/>
    <path id="Path_10266" data-name="Path 10266" d="M1021.053,514.119a1.71,1.71,0,0,1-.564,1.194c-1.788,1.79-3.567,3.587-5.369,5.362a1.389,1.389,0,0,1-2.27-.011q-1.408-1.367-2.776-2.775a1.4,1.4,0,0,1-.179-2.076c.6-.575,1.307-.5,2.071.232.524.5,1.056,1,1.54,1.542.353.392.586.4.965.009q2.064-2.129,4.192-4.195a1.323,1.323,0,0,1,2.247.266A3.312,3.312,0,0,1,1021.053,514.119Z" transform="translate(-198.071 -132.626)" fill="#5db531"/>
    <path id="Path_10267" data-name="Path 10267" d="M788.31,589.165a1.382,1.382,0,0,1,1.059.5c.519.509,1.057,1,1.534,1.549.4.452.665.47,1.1.018,1.328-1.384,2.7-2.724,4.061-4.08a1.36,1.36,0,0,1,1.871-.331,1.253,1.253,0,0,1,.195,1.971c-1.88,1.942-3.8,3.849-5.727,5.743a1.253,1.253,0,0,1-1.88.005c-1.094-1.042-2.153-2.122-3.2-3.209a1.215,1.215,0,0,1-.215-1.456A1.2,1.2,0,0,1,788.31,589.165Z" transform="translate(-24.271 -190.159)" fill="#5db531"/>
    <path id="Path_10268" data-name="Path 10268" d="M872.73,514.156a1.507,1.507,0,0,1-.537,1.148c-1.787,1.792-3.569,3.589-5.371,5.366a1.394,1.394,0,0,1-2.272,0q-1.41-1.365-2.776-2.777a1.4,1.4,0,0,1-.184-2.077c.6-.579,1.312-.508,2.073.224.5.483,1.02.959,1.474,1.486.392.455.65.474,1.086.019,1.327-1.387,2.7-2.733,4.068-4.076a1.367,1.367,0,0,1,2.131-.106A1.2,1.2,0,0,1,872.73,514.156Z" transform="translate(-82.256 -132.624)" fill="#5db531"/>
    <path id="Path_10269" data-name="Path 10269" d="M946.913,514.188a1.754,1.754,0,0,1-.595,1.185c-1.768,1.769-3.529,3.545-5.309,5.3a1.415,1.415,0,0,1-2.335-.023q-1.374-1.339-2.714-2.714a1.42,1.42,0,0,1-.221-2.08c.586-.592,1.315-.533,2.072.191.546.522,1.1,1.045,1.6,1.606.339.377.555.336.894-.01q2.073-2.122,4.2-4.193a1.337,1.337,0,0,1,2.332.365A2.625,2.625,0,0,1,946.913,514.188Z" transform="translate(-140.179 -132.65)" fill="#5db531"/>
    <path id="Path_10270" data-name="Path 10270" d="M946.89,587.906a1.6,1.6,0,0,1-.544,1.134c-1.807,1.81-3.607,3.628-5.43,5.421a1.329,1.329,0,0,1-2.137.024c-.986-.945-1.948-1.916-2.9-2.9a1.331,1.331,0,1,1,1.858-1.866,20.139,20.139,0,0,1,1.475,1.483c.433.5.733.548,1.226.027,1.319-1.392,2.686-2.74,4.064-4.075a1.316,1.316,0,0,1,2.281.314A2.7,2.7,0,0,1,946.89,587.906Z" transform="translate(-140.159 -190.212)" fill="#5db531"/>
  </g>
</svg>
