<svg xmlns="http://www.w3.org/2000/svg" width="42.845" height="37.49" viewBox="0 0 42.845 37.49">
  <g id="Group_6427" data-name="Group 6427" transform="translate(-1348.736 -560.054)">
    <path id="Subtraction_91" data-name="Subtraction 91" d="M16.863,36.432c-4.34,0-6.826,0-7.389-.011V31.456l-.022,0a10.5,10.5,0,0,1-1.721-.281,4.191,4.191,0,0,1-1.461-.518,1.186,1.186,0,0,1-.176-.125.992.992,0,0,0-.578-.257.853.853,0,0,1-.361.235c-.038.017-.078.034-.115.053a7.467,7.467,0,0,0-.537.561h0c-.127.142-.247.276-.352.379-.078.123-.158.251-.234.376a5.529,5.529,0,0,1-1.744,2.027,1.634,1.634,0,0,1-1.047.391,1.412,1.412,0,0,1-.414-.061.816.816,0,0,1-.4-.216A1.325,1.325,0,0,0,0,33.812v-1.13H.1A10.387,10.387,0,0,1,2.6,29.8l.04-.027c.395-.26,1.215-.8,1.232-1.288C3.027,27.618,2.679,24.9,3.2,23.3a8.006,8.006,0,0,1,.853-1.825A6.3,6.3,0,0,1,5.359,20a6.23,6.23,0,0,1,4.068-1.357.161.161,0,0,0,.047-.184c.149-.139.172-15.4.172-15.551h7.978l0,.989-.175,0c-3.3.029-5.631.045-6.562.045,0,0,0,.034,0,.089-.032,2.35-.137,10.349-.14,14.614a10.263,10.263,0,0,1,3.3,1.979,5.87,5.87,0,0,1,1.6,2.779,6.472,6.472,0,0,1-.134,3.695,5.039,5.039,0,0,1-1.656,2.524,6.167,6.167,0,0,1-1.936,1.225,3.5,3.5,0,0,1-.615.216,2.026,2.026,0,0,0-.563.208v4.057c0,.016,1.383.024,4.223.024,3.017,0,7.237-.009,10.961-.017h.006c3.081-.007,5.992-.013,7.706-.013.145-.253.1-8.837.067-15.1v-.042c-.012-2.312-.022-4.31-.022-5.6.006-.006.007-1.345.008-2.466,0-1.018,0-2.048,0-2.443V6.718c0-.859,0-2.716,0-2.732l-6.925-.094V3h8.249V8.655L34.7,36.421h-.63C26.857,36.428,21.067,36.432,16.863,36.432ZM9.227,19.63a5.44,5.44,0,1,0,5.44,5.44A5.446,5.446,0,0,0,9.227,19.63ZM13.2,9.344h0a15.193,15.193,0,0,0-.052-1.966,3.088,3.088,0,0,1,.028-.615v0c.012-.115.022-.215.024-.278l.048-.152,0-.007a1.8,1.8,0,0,1,.7-1.16,2.825,2.825,0,0,1,1.509-.319c.371,0,.765.029,1.145.057h.006c.377.028.767.057,1.126.057a3.993,3.993,0,0,0,.83-.073c.01,0,.021-.042.019-.071,0-.012,0-.026-.014-.028a3.4,3.4,0,0,0,.044-1.666,4.956,4.956,0,0,1-.044-1.161,2.7,2.7,0,0,1,1.456-1.7A9.119,9.119,0,0,1,22.244,0a4.24,4.24,0,0,1,.817.065c.126.026.262.047.405.07a4.217,4.217,0,0,1,1.4.4,2.032,2.032,0,0,1,1,1.381,4.74,4.74,0,0,1,.013,1.52,5.5,5.5,0,0,0-.013,1.448c0,.01.038.019.074.019a.142.142,0,0,0,.067-.014.405.405,0,0,0,.283.076h.087a.605.605,0,0,1,.153.014,2.819,2.819,0,0,0,.54.041c.428,0,.955-.046,1.55-.1l.08-.007c.517-.049,1.006-.095,1.356-.095a.933.933,0,0,1,.474.074,2.012,2.012,0,0,1,.828,1.138,4.317,4.317,0,0,1,.163,1.454,7.965,7.965,0,0,1-.285,1.784ZM22.142,2.2a.738.738,0,0,1-.277.081.945.945,0,0,0-.242.06.947.947,0,0,0-.389.381,1.888,1.888,0,0,1-.176.232,1.794,1.794,0,0,0,.4,1.326,1.151,1.151,0,0,0,.861.331c.036,0,.074,0,.111,0,.053-.018.107-.033.16-.048a1.062,1.062,0,0,0,.354-.145c.278-.206.716-1.117.377-1.6a.775.775,0,0,0-.331-.409,1.7,1.7,0,0,1-.187-.156l-.193-.014-.149-.011Z" transform="translate(1348.736 561.113)" fill="#959595"/>
    <path id="Subtraction_93" data-name="Subtraction 93" d="M8.828.054Zm15.146,8.82c-.71.941-1.509,1.779-2.214,2.69-.307.457-.7.823-.985,1.262-1.115,1.492-.209.22-1.326,1.734A82.39,82.39,0,0,0,9.37,30.173c-.183.395-.707,1.319-.707,1.319A16.351,16.351,0,0,0,7.82,29.98c-.489-.873-.991-1.78-1.6-2.681-1.337-2.042-2.952-3.887-4.433-5.889C1.506,21.083.267,20.022,0,19.762c.058,0,1.729-1.787,1.927-1.884.284-.036,1.342.756,1.512.848,1.235.795,2.2,1.667,3.293,2.45.4.343,1.465,1.272,1.465,1.272a13.567,13.567,0,0,0,1.032-1.272A101.011,101.011,0,0,1,19.457,9.628s.012.005,1.319-.984a8.859,8.859,0,0,1,1.319-1.005,12.449,12.449,0,0,1,2.261-.366,5.213,5.213,0,0,1,.985,0C25.341,7.324,24.327,8.407,23.975,8.874Z" transform="translate(1366.24 560.054)" fill="#959595" fill-rule="evenodd"/>
  </g>
</svg>
