<svg xmlns="http://www.w3.org/2000/svg" width="29.982" height="29.94" viewBox="0 0 29.982 29.94">
  <path id="Int_notreq" d="M27.5,25.61a14.94,14.94,0,0,0,0-19.22h0c-.1-.12-.21-.22-.31-.33q-.33-.39-.69-.75L26,4.83c-.21-.19-.42-.38-.65-.56l-.58-.43c-.22-.16-.44-.32-.68-.47L23.45,3c-.24-.14-.49-.27-.75-.4l-.61-.29c-.28-.13-.56-.24-.84-.34s-.39-.16-.59-.22-.64-.19-1-.27l-.54-.14c-.37-.08-.74-.13-1.11-.18-.15,0-.3-.06-.45-.07a14.27,14.27,0,0,0-3.2,0,1.012,1.012,0,0,0-.45.07c-.37.05-.74.1-1.11.18l-.54.14q-.48.12-1,.27c-.2.06-.39.14-.59.22s-.56.21-.84.34L9.3,2.6c-.26.13-.51.26-.75.4l-.61.37c-.24.15-.46.31-.68.47l-.58.43c-.23.18-.44.37-.65.56l-.51.45q-.36.36-.69.75c-.1.11-.21.21-.31.33h0a14.94,14.94,0,0,0,0,19.22h0c.1.12.21.22.31.33q.33.39.69.75l.51.45c.21.19.42.38.65.56l.58.43c.22.16.44.32.68.47l.61.37c.24.14.49.27.75.4l.61.3q.42.18.84.33c.2.08.39.16.59.22s.64.19,1,.27l.54.14c.37.08.74.13,1.11.18.15,0,.3.06.45.07a14.27,14.27,0,0,0,3.2,0,3.5,3.5,0,0,0,.45-.07c.37-.05.74-.1,1.11-.18l.54-.14q.48-.12,1-.27c.2-.06.39-.14.59-.22s.56-.21.84-.33l.61-.3c.26-.13.51-.26.75-.4l.61-.37c.24-.15.46-.31.68-.47l.58-.43c.23-.18.44-.37.65-.56l.51-.45q.36-.36.69-.75c.1-.11.21-.21.31-.33Zm-.87-2.16a15,15,0,0,0-2.26-1.87,25,25,0,0,0,0-11.16,15,15,0,0,0,2.26-1.87,12.89,12.89,0,0,1,0,14.9Zm-1.36,1.64c-.16.17-.32.31-.49.47l-.45.41c-.17.14-.34.26-.51.39l-.51.38c-.19.13-.38.24-.57.35s-.34.22-.52.32-.33.16-.49.24a15.16,15.16,0,0,0,2.05-4A13,13,0,0,1,25.37,25Zm-16,2c-.19-.11-.38-.22-.57-.35l-.51-.38c-.17-.13-.34-.25-.51-.39l-.45-.41c-.17-.16-.33-.3-.49-.47l-.1-.1a13,13,0,0,1,1.59-1.38,15.16,15.16,0,0,0,2,4c-.16-.08-.33-.15-.49-.24s-.31-.17-.48-.28ZM9,16a22.45,22.45,0,0,1,.46-4.51A15.06,15.06,0,0,0,15,13v6.1a15.06,15.06,0,0,0-5.54,1.46A22.45,22.45,0,0,1,9,16ZM6.73,6.91c.16-.17.32-.31.49-.47L7.67,6c.17-.14.34-.26.51-.39l.51-.38c.19-.13.38-.24.57-.35s.34-.22.52-.32.33-.16.49-.24a15.16,15.16,0,0,0-2,4A13,13,0,0,1,6.63,7Zm16-2c.19.11.38.22.57.35l.51.38c.17.13.34.25.51.39l.45.41c.17.16.33.3.49.47l.1.1a13,13,0,0,1-1.59,1.38,15.16,15.16,0,0,0-2.05-4c.16.08.33.15.49.24s.36.17.53.28ZM23,16a22.45,22.45,0,0,1-.46,4.51A15.06,15.06,0,0,0,17,19.05V13a15.06,15.06,0,0,0,5.54-1.46A22.45,22.45,0,0,1,23,16ZM17,28.84V21.05a13,13,0,0,1,5,1.44C21,25.83,19.12,28.25,17,28.84ZM17,11V3.16c2.12.59,4,3,5,6.35A13,13,0,0,1,17,11ZM15,3.16V11a13,13,0,0,1-5-1.44C11,6.17,12.88,3.75,15,3.16Zm0,17.89v7.79c-2.12-.59-4-3-5-6.35a13,13,0,0,1,5-1.44ZM5.37,8.55a15,15,0,0,0,2.26,1.87,25,25,0,0,0,0,11.16,15,15,0,0,0-2.26,1.87,12.89,12.89,0,0,1,0-14.9Z" transform="translate(-1.019 -1)" fill="#358ef5"/>
</svg>
