<svg xmlns="http://www.w3.org/2000/svg" width="23" height="22.002" viewBox="0 0 23 22.002"><defs><style>.a{fill:#9e9e9e;}</style></defs><path class="a" d="M7635,10121h-13a5.008,5.008,0,0,1-5-5v-12a5.007,5.007,0,0,1,5-5h13a5.005,5.005,0,0,1,5,5v12A5.006,5.006,0,0,1,7635,10121Zm-4.915-15.5c-.444,0-.912.018-1.39.051a8.478,8.478,0,0,0-1.372.2V10116h1.456v-3.855h1.156a9.813,9.813,0,0,0,1.963-.178,4.27,4.27,0,0,0,1.479-.579,2.661,2.661,0,0,0,.93-1.034,3.369,3.369,0,0,0,.322-1.536,2.855,2.855,0,0,0-1.176-2.484A5.821,5.821,0,0,0,7630.085,10105.5Zm-6.794.1V10116h1.455v-10.394Zm6.583,5.3h-1.095v-4.082c.315-.029.78-.043,1.425-.043a6.514,6.514,0,0,1,1.11.089,2.7,2.7,0,0,1,.922.322,1.751,1.751,0,0,1,.63.623,1.913,1.913,0,0,1,.234.99,2.118,2.118,0,0,1-.226,1.033,1.594,1.594,0,0,1-.638.638,3.066,3.066,0,0,1-1.011.331A8.49,8.49,0,0,1,7629.875,10110.9Z" transform="translate(-7616.999 -10098.999)"/></svg>