<svg xmlns="http://www.w3.org/2000/svg" width="23.986" height="23.999" viewBox="0 0 23.986 23.999"><defs><style>.a{fill:#9e9e9e;}</style></defs><path class="a" d="M7631,10128a11.965,11.965,0,0,1-8.821-3.864,20.375,20.375,0,0,0,8.864,1.864,20.587,20.587,0,0,0,8.7-1.781A11.965,11.965,0,0,1,7631,10128Zm.043-3.5a18.168,18.168,0,0,1-8.4-1.845,6.347,6.347,0,0,1-3.065-3.154h-.059a12,12,0,0,1-.512-3.094c2.865,2.282,7.236,3.592,11.993,3.592s9.129-1.31,11.993-3.594a12,12,0,0,1-.512,3.1h-.071c-.306,1.52-1.985,2.629-2.958,3.154A18.186,18.186,0,0,1,7631.044,10124.5Zm-.043-6a19.436,19.436,0,0,1-9.837-2.42,10.148,10.148,0,0,1-2.067-1.6,11.989,11.989,0,0,1,2.063-5.344c1.879,2.387,5.649,3.869,9.841,3.869s7.96-1.482,9.839-3.87a12,12,0,0,1,2.064,5.343,10.164,10.164,0,0,1-2.069,1.605A19.417,19.417,0,0,1,7631,10118.5Zm0-7a13.153,13.153,0,0,1-6.975-1.814,6.564,6.564,0,0,1-1.9-1.764,11.992,11.992,0,0,1,17.743,0,6.609,6.609,0,0,1-1.9,1.765A13.143,13.143,0,0,1,7631,10111.5Z" transform="translate(-7619.008 -10104.001)"/></svg>