<svg width="32" height="32" viewBox="0 0 32 32" fill="none" xmlns="http://www.w3.org/2000/svg">
<path d="M10.06 17.88C10.3679 17.9549 10.6832 17.9952 11 18C11.7944 17.9998 12.5707 17.7631 13.23 17.32L16.45 20.19C16.1949 20.6744 16.0452 21.2072 16.0108 21.7536C15.9763 22.2999 16.0578 22.8474 16.25 23.36C16.4519 23.9408 16.7849 24.4672 17.2232 24.8984C17.6616 25.3296 18.1934 25.6539 18.7775 25.8462C19.3615 26.0385 19.982 26.0935 20.5908 26.0071C21.1996 25.9206 21.7802 25.695 22.2876 25.3477C22.795 25.0004 23.2155 24.5408 23.5164 24.0046C23.8174 23.4684 23.9907 22.87 24.0228 22.256C24.055 21.642 23.9451 21.0288 23.7019 20.4641C23.4586 19.8994 23.0884 19.3984 22.62 19L25.16 13.91C25.6558 14.0218 26.169 14.0325 26.669 13.9415C27.169 13.8504 27.6455 13.6594 28.07 13.38C28.7909 12.94 29.3541 12.2832 29.6788 11.5036C30.0035 10.7239 30.0731 9.86151 29.8777 9.03989C29.6822 8.21826 29.2317 7.47958 28.5907 6.92969C27.9497 6.37979 27.1511 6.04689 26.3093 5.97869C25.4675 5.91048 24.6257 6.11047 23.9045 6.55C23.1834 6.98953 22.6198 7.64604 22.2946 8.42548C21.9695 9.20493 21.8993 10.0673 22.0943 10.889C22.2893 11.7108 22.7393 12.4497 23.38 13L20.84 18.09C20.5641 18.0294 20.2824 17.9992 20 18C19.2056 18.0002 18.4293 18.2369 17.77 18.68L14.55 15.81C14.8051 15.3256 14.9548 14.7928 14.9892 14.2464C15.0237 13.7001 14.9422 13.1526 14.75 12.64C14.5496 12.0634 14.22 11.5404 13.7862 11.1108C13.3525 10.6813 12.8263 10.3568 12.2478 10.1621C11.6693 9.96733 11.0539 9.90757 10.4487 9.98737C9.84354 10.0672 9.26467 10.2844 8.75643 10.6225C8.24818 10.9605 7.82404 11.4104 7.51649 11.9376C7.20894 12.4649 7.02614 13.0555 6.98208 13.6643C6.93803 14.2732 7.03389 14.884 7.26233 15.45C7.49076 16.0161 7.84572 16.5223 8.3 16.93L4 25V2H2V28C2 28.5304 2.21071 29.0391 2.58579 29.4142C2.96086 29.7893 3.46957 30 4 30H30V28H4.67L10.06 17.88ZM26 8C26.3956 8 26.7822 8.1173 27.1111 8.33706C27.44 8.55682 27.6964 8.86918 27.8478 9.23463C27.9991 9.60009 28.0387 10.0022 27.9616 10.3902C27.8844 10.7781 27.6939 11.1345 27.4142 11.4142C27.1345 11.6939 26.7781 11.8844 26.3902 11.9616C26.0022 12.0387 25.6001 11.9991 25.2346 11.8478C24.8692 11.6964 24.5568 11.44 24.3371 11.1111C24.1173 10.7822 24 10.3956 24 10C24 9.46957 24.2107 8.96086 24.5858 8.58579C24.9609 8.21071 25.4696 8 26 8V8ZM22 22C22 22.3956 21.8827 22.7822 21.6629 23.1111C21.4432 23.44 21.1308 23.6964 20.7654 23.8478C20.3999 23.9991 19.9978 24.0387 19.6098 23.9616C19.2219 23.8844 18.8655 23.6939 18.5858 23.4142C18.3061 23.1345 18.1156 22.7781 18.0384 22.3902C17.9613 22.0022 18.0009 21.6001 18.1522 21.2346C18.3036 20.8692 18.56 20.5568 18.8889 20.3371C19.2178 20.1173 19.6044 20 20 20C20.5304 20 21.0391 20.2107 21.4142 20.5858C21.7893 20.9609 22 21.4696 22 22ZM11 12C11.3956 12 11.7822 12.1173 12.1111 12.3371C12.44 12.5568 12.6964 12.8692 12.8478 13.2346C12.9991 13.6001 13.0387 14.0022 12.9616 14.3902C12.8844 14.7781 12.6939 15.1345 12.4142 15.4142C12.1345 15.6939 11.7781 15.8844 11.3902 15.9616C11.0022 16.0387 10.6001 15.9991 10.2346 15.8478C9.86918 15.6964 9.55682 15.44 9.33706 15.1111C9.1173 14.7822 9 14.3956 9 14C9 13.4696 9.21071 12.9609 9.58579 12.5858C9.96086 12.2107 10.4696 12 11 12V12Z" fill="black"/>
</svg>
