<svg xmlns="http://www.w3.org/2000/svg" width="19.978" height="29" viewBox="0 0 19.978 29">
  <path id="location" d="M38.506,12.218a9.022,9.022,0,0,0-.468-1.16A9.935,9.935,0,0,0,19,14v1.238c0,.052.018.516.043.748.361,2.887,2.639,5.955,4.34,8.842C25.214,27.916,27.113,30.959,29,34c1.16-1.985,2.316-4,3.45-5.929.309-.567.667-1.135.977-1.676.206-.361.6-.721.78-1.057,1.83-3.35,4.776-6.728,4.776-10.053V13.919a10.292,10.292,0,0,0-.472-1.7m-9.572,6.213a3.546,3.546,0,0,1-3.394-2.423,3.359,3.359,0,0,1-.1-.9v-.8a3.357,3.357,0,0,1,3.6-3.3A3.651,3.651,0,0,1,32.7,14.719a3.745,3.745,0,0,1-3.769,3.712" transform="translate(-19 -5)" fill="#848484"/>
</svg>
