<svg xmlns="http://www.w3.org/2000/svg" xmlns:xlink="http://www.w3.org/1999/xlink" width="31" height="42.866" viewBox="0 0 31 42.866">
  <defs>
    <linearGradient id="linear-gradient" x1="0.5" y1="0.237" x2="0.5" y2="0.921" gradientUnits="objectBoundingBox">
      <stop offset="0" stop-color="#6a70da"/>
      <stop offset="1" stop-color="#191b3e"/>
    </linearGradient>
  </defs>
  <g id="Group_167279" data-name="Group 167279" transform="translate(-14829 7464)">
    <g id="Path_455205" data-name="Path 455205" transform="translate(14829 -7464)" fill="url(#linear-gradient)">
      <path d="M 15.50889587402344 42.13959503173828 C 14.46135902404785 40.91030883789062 11.1036958694458 36.67007064819336 7.864809989929199 31.77894592285156 C 3.046710014343262 24.50302696228027 0.5 18.87385749816895 0.5 15.49999713897705 C 0.5 11.49335670471191 2.060270071029663 7.726526737213135 4.893400192260742 4.893396854400635 C 7.726530075073242 2.060266733169556 11.49335956573486 0.4999968111515045 15.5 0.4999968111515045 C 19.50663948059082 0.4999968111515045 23.27346992492676 2.060266733169556 26.10659980773926 4.893396854400635 C 28.93972969055176 7.726526737213135 30.5 11.49335670471191 30.5 15.49999713897705 C 30.5 18.86933708190918 27.97097969055176 24.48557662963867 23.18634033203125 31.74154663085938 C 19.8597526550293 36.78637313842773 16.53639030456543 40.95350646972656 15.50889587402344 42.13959503173828 Z" stroke="none"/>
      <path d="M 15.5 0.9999961853027344 C 11.62690925598145 0.9999961853027344 7.985639572143555 2.508255004882812 5.246950149536133 5.2469482421875 C 2.508260726928711 7.985637664794922 1 11.62690734863281 1 15.49999618530273 C 1 18.75806617736816 3.49397087097168 24.2554874420166 8.212289810180664 31.39795684814453 C 11.21355247497559 35.94117736816406 14.21469306945801 39.77962112426758 15.514892578125 41.36272048950195 C 16.83367156982422 39.77702713012695 19.85931015014648 35.89120101928711 22.84749031066895 31.34696578979492 C 24.9557991027832 28.14079666137695 26.63393020629883 25.23223686218262 27.83527946472168 22.70208740234375 C 29.27168083190918 19.67687606811523 30 17.25374603271484 30 15.49999618530273 C 30 11.62690734863281 28.49173927307129 7.985637664794922 25.75304985046387 5.2469482421875 C 23.01436042785645 2.508255004882812 19.37308883666992 0.9999961853027344 15.5 0.9999961853027344 M 15.5 -3.814697265625e-06 C 24.06040954589844 -3.814697265625e-06 31 6.939586639404297 31 15.49999618530273 C 31 24.0604305267334 15.74164962768555 42.91937255859375 15.5 42.86571502685547 C 15.25780963897705 42.81200790405273 0 24.06041717529297 0 15.49999618530273 C 0 6.939586639404297 6.939590454101562 -3.814697265625e-06 15.5 -3.814697265625e-06 Z" stroke="none" fill="#363180"/>
    </g>
    <circle id="Ellipse_1066" data-name="Ellipse 1066" cx="7" cy="7" r="7" transform="translate(14837.5 -7455)" fill="#fff"/>
  </g>
</svg>
