<svg xmlns="http://www.w3.org/2000/svg" width="279.66" height="401.252" viewBox="0 0 279.66 401.252">
  <g id="XMLID_509_" transform="translate(-50)" opacity="0.4">
    <path id="XMLID_510_" d="M68.239,401.252H311.422a18.239,18.239,0,0,0,18.239-18.239V176.308a18.239,18.239,0,0,0-18.239-18.239H293.183V103.353a103.353,103.353,0,1,0-206.706,0v54.716H68.239A18.239,18.239,0,0,0,50,176.308V383.013A18.239,18.239,0,0,0,68.239,401.252Zm139.83-115.529v24.335a18.239,18.239,0,0,1-36.477,0V285.723a30.4,30.4,0,1,1,36.477,0Zm-85.114-182.37a66.875,66.875,0,1,1,133.751,0v54.716H122.955Z" fill="#848484"/>
  </g>
</svg>
