<svg xmlns="http://www.w3.org/2000/svg" width="1199.203" height="126.135" viewBox="0 0 1199.203 126.135">
  <g id="Group_4715" data-name="Group 4715" transform="translate(1202.203 -6) rotate(90)">
    <path id="Path_9832" data-name="Path 9832" d="M74.068,76.579a9.543,9.543,0,0,1-7.358-3.153L14.153,20.869a10.161,10.161,0,0,1,0-14.716,10.161,10.161,0,0,1,14.716,0L81.426,58.71a10.161,10.161,0,0,1,0,14.716,9.542,9.542,0,0,1-7.358,3.153Z" transform="translate(47.556 0)" fill="#707070"/>
    <path id="Path_9833" data-name="Path 9833" d="M16.511,76.579a9.542,9.542,0,0,1-7.358-3.153,10.161,10.161,0,0,1,0-14.716L61.71,6.153a10.161,10.161,0,0,1,14.716,0,10.161,10.161,0,0,1,0,14.716L23.869,73.426a9.542,9.542,0,0,1-7.358,3.153Z" transform="translate(0 0)" fill="#707070"/>
    <path id="Path_9834" data-name="Path 9834" d="M21.511,1202.2C15.2,1202.2,11,1198,11,1191.692V13.511C11,7.2,15.2,3,21.511,3S32.023,7.2,32.023,13.511V1191.692C32.023,1198,27.818,1202.2,21.511,1202.2Z" transform="translate(47.556 0)" fill="#707070"/>
  </g>
</svg>
