<svg xmlns="http://www.w3.org/2000/svg" width="24" height="22.837" viewBox="0 0 24 22.837"><defs><style>.a{fill:#9e9e9e;}</style></defs><path class="a" d="M7628.751,10123.418h0v-22.836a6.033,6.033,0,0,1,3.628,3.012,17.713,17.713,0,0,1,0,16.813,6.039,6.039,0,0,1-3.627,3.012Zm-1.5,0h0a6.04,6.04,0,0,1-3.63-3.012,17.735,17.735,0,0,1,0-16.813,6.037,6.037,0,0,1,3.631-3.012v22.836Zm4.658-.069v0c2.524-2.3,4.092-6.646,4.092-11.346s-1.57-9.054-4.1-11.353a12.006,12.006,0,0,1,.007,22.7Zm-7.82,0a12,12,0,0,1,.01-22.7c-2.527,2.3-4.1,6.646-4.1,11.352s1.567,9.041,4.088,11.343Z" transform="translate(-7616 -10100.581)"/></svg>