<svg xmlns="http://www.w3.org/2000/svg" width="128" height="56" viewBox="0 0 128 56">
  <g id="Group_393" data-name="Group 393" transform="translate(-727 -698)">
    <g id="Rectangle_444" data-name="Rectangle 444" transform="translate(727 698)" fill="none" stroke="#9e9e9e" stroke-width="3">
      <rect width="128" height="56" rx="20" stroke="none"/>
      <rect x="1.5" y="1.5" width="125" height="53" rx="18.5" fill="none"/>
    </g>
    <path id="Path_313" data-name="Path 313" d="M-23.468-3.36q-.35-.84-.927-2.135t-1.243-2.8q-.665-1.5-1.417-3.1t-1.418-3.01q-.665-1.418-1.243-2.538t-.927-1.715q-.385,4.13-.63,8.943T-31.693,0h-3.325q.14-3.15.315-6.352t.4-6.3q.228-3.1.49-6.037t.577-5.565h2.975q.945,1.54,2.03,3.64t2.17,4.393q1.085,2.292,2.1,4.585T-22.1-7.455q.84-1.89,1.855-4.183t2.1-4.585q1.085-2.293,2.17-4.393t2.03-3.64h2.975Q-9.783-12.53-9.187,0h-3.325q-.175-4.9-.42-9.713t-.63-8.943q-.35.6-.927,1.715T-15.733-14.4q-.665,1.417-1.417,3.01t-1.418,3.1q-.665,1.505-1.243,2.8t-.927,2.135ZM12.337,0q-.595-1.575-1.12-3.1T10.132-6.2H-.858L-3.063,0H-6.6q1.4-3.85,2.625-7.122t2.4-6.213Q-.4-16.275.752-18.953t2.415-5.3H6.282q1.26,2.625,2.415,5.3t2.327,5.618q1.172,2.94,2.4,6.213T16.047,0ZM9.152-8.995Q8.032-12.04,6.93-14.9T4.637-20.37Q3.412-17.745,2.31-14.892T.122-8.995ZM29.1.525a12.43,12.43,0,0,1-4.655-.84,9.9,9.9,0,0,1-3.6-2.45,11.044,11.044,0,0,1-2.327-3.973,16.408,16.408,0,0,1-.823-5.408,14.716,14.716,0,0,1,.927-5.407,11.722,11.722,0,0,1,2.5-3.972,10.583,10.583,0,0,1,3.675-2.45,11.95,11.95,0,0,1,4.48-.84,15.916,15.916,0,0,1,2.712.21,16.579,16.579,0,0,1,2.1.49,10.045,10.045,0,0,1,1.452.56,8.222,8.222,0,0,1,.77.42l-.98,2.8a5.429,5.429,0,0,0-.91-.455q-.6-.245-1.348-.49a12.127,12.127,0,0,0-1.645-.4,10.353,10.353,0,0,0-1.8-.157,8.658,8.658,0,0,0-3.465.665,7.168,7.168,0,0,0-2.625,1.925,8.692,8.692,0,0,0-1.662,3.062,13.215,13.215,0,0,0-.578,4.043,14.439,14.439,0,0,0,.5,3.952,8.672,8.672,0,0,0,1.523,3.063A6.838,6.838,0,0,0,25.865-3.15a8.429,8.429,0,0,0,3.553.7A13.022,13.022,0,0,0,33.3-2.94a17.088,17.088,0,0,0,2.31-.875l.875,2.8a4.912,4.912,0,0,1-.875.437,12.006,12.006,0,0,1-1.575.507,19.657,19.657,0,0,1-2.2.42A19.892,19.892,0,0,1,29.1.525Z" transform="translate(792 739)" fill="#9e9e9e"/>
  </g>
</svg>
