<svg xmlns="http://www.w3.org/2000/svg" width="606" height="164.196" viewBox="0 0 606 164.196">
  <path id="Path_9" data-name="Path 9" d="M235.518,0h15.033V161.021H235.518ZM33.741,41.424c6.731-.117,12.786.612,17.372,2.673v.334l2,.668v.334h.668v.334h.668V46.1h.668v.334h.668v.334h.668l.334.668h.668v.334l1,.334.334.668h.668l.334.668h.668l.668,1H61.8l7.349,6.681c-.282.379.042.048-.334.334a6.263,6.263,0,0,1-2,2q-2.338,2.339-4.677,4.677c-.945.945-1.516,2.275-3.007,2.672l-.668-1h-.668l-2-2.338h-.668l-1-1.337h-.668l-.334-.668h-.668l-.334-.668h-.668l-.334-.668h-.668l-.334-.668-1.336-.334V58.8l-1.336-.334v-.334h-1v-.334h-.668v-.334l-2-.334v-.334H42.427v-.334H40.756v-.334H38.084v-.334c-1.724-.482-4.9.311-6.013.668H30.734v.334l-2,.334v.334h-.668v.334l-2,.668L22.049,61.8v.668l-1,.668q-.167.668-.334,1.336l-.668.334v.668H19.71q-.167,1-.334,2c-.421,1.127-1.257,4.948-.668,6.681h.334q.167,1.336.334,2.673h.334V77.5h.334v1h.334l.334,1.336h.334v.668h.334q.167.5.334,1l.668.334v.668l1.337,1v.668h.334l.668,1h.668l1,1.336,1.336.334.334.668,1.336.334.334.668,2,.668.334.668,2,.668.334.668,2,.668.334.668,2,.668.334.668h.668v.334h.668l.334.668,2,.668.334.668,1.337.334.334.668,1.336.334.334.668,1.336.334.334.668,1.336.334v.334l1,.334.334.668h.668v.334l1,.334.334.668h.668l.668,1h.668l.334.668h.668l1,1.336h.668l1.67,2H59.8l1.336,1.67.668.334v.668l1.67,1.337v.668l1,.668v.668l.668.334.668,2,.668.334v1h.334l.334,1.336h.334q.167,1.17.334,2.339c1.322,3.77,2.061,10.583.668,15.033q-.167,1.5-.334,3.007l-3.007,7.684-.668.334-.334,1.336h-.334l-.334,1-.668.334V150l-1,.668v.668l-2,1.67v.668h-.334l-.668,1h-.668l-1.67,2h-.668l-.668,1h-.668l-.334.668h-.668l-.334.668-2,.668-.334.668H50.11v.334l-8.018,2.673h-1.67c-2.372.989-7.112,1.1-10.022.334H27.727v-.334h-2v-.334h-1.67v-.334H22.717v-.334h-1v-.334h-1v-.334h-1v-.334l-2-.334v-.334l-1.336-.334v-.334h-1v-.334l-1.336-.334v-.334l-1.336-.334-.334-.668-1.336-.334v-.334l-1-.334-.334-.668H9.02l-.334-.668H8.018l-.668-1H6.681L5.345,153H4.677l-2.338-2.672-1-.668v-.668l-1.336-1v-1c1.069-.564.148-.033.668-1l2.338-2v-.668l2-1.67.334-1,1-.668,2.673-3.341h.334v.334l4.343,4.009.668,1h.668l1,1.336H16.7l.334.668,1,.334v.334h.668l.334.668h.668l.334.668,1.337.334v.334l2,.668v.334h1v.334h1v.334h1v.334h1v.334h1.67a17.43,17.43,0,0,0,10.022-.334h1.336v-.334h1v-.334h.668v-.334h1v-.334l1.337-.334v-.334H45.1l.334-.668H46.1l.334-.668H47.1l1-1.336h.668l.334-.668,1.336-1v-.668l1-.668v-.668l.668-.334v-.668l.668-.334V138.3h.334v-.668h.334v-1h.334v-.668h.334v-1.336h.334c.758-2.262.641-8.064-.334-10.022h-.334v-1h-.334l-.668-2h-.334l-.334-1.336-.668-.334v-.668l-1.336-1v-.668h-.334l-1-1.337h-.668l-1-1.336-1.336-.334-.334-.668-2-.668-.334-.668h-.668v-.334h-.668v-.334H41.09v-.334h-.668l-.334-.668H39.42v-.334h-.668v-.334h-.668v-.334h-.668l-.334-.668-2-.668-.334-.668-2-.668-.334-.668-2-.668-.334-.668L28.73,104.9l-.334-.668-1.336-.334-.334-.668-1.337-.334v-.334l-1-.334-.334-.668-1.336-.334-.334-.668h-.668l-.668-1h-.668l-.334-.668h-.668l-.334-.668-1-.334-.668-1H16.7l-2-2.339h-.668l-.334-.668-1-.668v-.668l-2-1.671V90.2l-1-.668v-.668l-.668-.334-.668-2H8.018l-.668-2H7.015v-1H6.681v-.668H6.347V81.512c-.969-2.952-2.1-8.832-1-12.694q.167-2,.334-4.009h.334V63.473h.334v-1h.334v-1h.334v-1H7.35l.334-1.337h.334v-1l.668-.334v-.668H9.02l.334-1.336h.334q.167-.5.334-1l.668-.334v-.668l1.336-1v-.668l1.336-1,2-2.339h.668l.668-1,1-.334.334-.668,1.336-.334.334-.668,1.336-.334V45.1h.668v-.334l2-.668v-.334h1v-.334h1v-.334h1v-.334h1v-.334l3.341-.334v-.334h2.673ZM208.793,68.818l-1,.334v.334h-.668l-.334.668h-.668v.334h-.668l-.334.668-1.336.334v.334l-1,.334-.334.668-1.336.334-.334.668h-.668l-.334.668-1.336.334-.334.668-1.671.334c-1.108-2.342-3.272-3.94-5.011-5.679l-2-2.338h-.668l-1.336-1.67h-.668l-.668-1h-.668l-.334-.668h-.668l-.334-.668-1-.334v-.334l-2-.668-.334-.668-1.337-.334v-.334l-1.336-.334v-.334h-1v-.334L175.72,59.8v-.334l-2-.334V58.8h-1v-.334h-1v-.334h-1v-.334h-1.337v-.334h-1.336v-.334h-1.67v-.334h-2v-.334h-2.338v-.334h-4.677v-.334l-9.354.334v.334l-6.013.668v.334h-1.336v.334l-2.338.334v.334h-1V58.8h-1v.334h-.668v.334h-1V59.8h-.668v.334h-1v.334l-2,.668v.334h-.668V61.8l-1.337.334-.334.668-1.337.334-.334.668h-.668v.334l-1,.334-.334.668h-.668l-.668,1h-.668l-1,1.336h-.668l-3.006,3.341-1.671,1.336v.668l-1.336,1V74.5l-1,.668v.668l-1,.668-.334,1.336-.668.334q-.167.5-.334,1h-.334l-.668,2h-.334v.668h-.334l-.668,2h-.334v1h-.334v.668h-.334v1h-.334v1H107.9v1h-.334v1h-.334q-.167,1.336-.334,2.673h-.334v1.67h-.334q-.167,2.506-.334,5.011h-.334c-.458,1.641.063,6.186.334,7.35v3.34h.334v2h.334v1.67l2.673,8.352h.334l.668,2h.334v.668h.334v.668h.334l.668,2,.668.334v.668h.334v.668l.668.334v.668l1,.668v.668l1,.668v.668l1.336,1v.668l3.007,2.673,1.336,1.671h.668l1.337,1.67,1,.334.334.668h.668l.334.668,1,.334v.334l1.337.334.334.668,1.336.334.334.668,9.02,3.675,10.356,2h11.024v-.334h3.007v-.334h2v-.334h1.67v-.334h1.336v-.334h1.336v-.334h1v-.334h1v-.334h1v-.334l2-.334v-.334h.668v-.334h1v-.334l2-.668v-.334h.668v-.334l2-.668.334-.668,1.336-.334v-.334l1-.334.334-.668h.668l.334-.668h.668l.668-1h.668l1.337-1.67h.668l2.338-2.672c1.814-1.814,4.323-3.371,5.345-5.68,4.008,2.561,8.051,5.123,12.026,7.684l-.334,1-.668.334v.668l-1,.668v.668l-1,.668v.668l-2,1.67v.668l-1.337,1-2.338,2.673h-.668l-1.67,2H197.1l-.668,1h-.668l-.668,1h-.668l-.334.668h-.668l-.334.668-1,.334v.334l-1.336.334-.334.668h-.668v.334h-.668v.334h-.668v.334h-.668v.334h-.668v.334h-.668v.334l-2,.668v.334h-1v.334h-.668v.334l-8.018,2.672c-3.641.668-7.35,1.337-11.024,2h-4.009v.334c-1.732.483-9.394.3-10.69-.334H145.32l-11.692-2.339c-11.647-4.136-22.8-10.231-29.4-19.376l-1.67-1.336v-.668l-1-.668V138.3l-.668-.334V137.3l-1-.668-.334-1.336-.668-.334q-.167-.5-.334-1h-.334v-.668h-.334v-.668h-.334v-.668h-.334v-.668l-.668-.334v-.668h-.334v-.668h-.334v-1h-.334v-.668h-.334l-.334-1.337h-.334q-.167-.835-.334-1.67h-.334L91.2,115.588v-2h-.334v-2h-.334v-3.34c-.26-1.174-.787-7.745-.334-9.354h.334V95.543h.334V93.205H91.2q.167-1.67.334-3.341h.334q.167-1.336.334-2.673h.334V85.856h.334v-1h.334v-1h.334v-1h.334q.167-1,.334-2h.334l.334-1.336h.334v-1h.334l.668-2h.334v-.668h.334v-.668h.334V74.5h.334v-.668h.334v-.668h.334v-.668l.668-.334.334-1.336.668-.334V69.82h.334l.334-1,.668-.334v-.668l1-.668v-.668l.668-.334.334-1,1.336-1v-.668l3.674-3.341,3.007-3.34h.668l1-1.337h.668l.334-.668h.334l.334-.668h.668l.334-.668h.668l.668-1,1.336-.334.334-.668,1-.334v-.334l2-.668.334-.668,1.337-.334v-.334h.668V48.44l2-.668v-.334h1V47.1l1.336-.334v-.334h1V46.1h.668v-.334l2-.334V45.1h1v-.334h1v-.334h1V44.1l11.693-2.338h3.674v-.334c1.711-.466,8.786-.013,10.022.334h3.675v.334H166.7l9.354,2v.334h1v.334h1V45.1h1v.334h1v.334l2,.334v.334l1.336.334V47.1h1v.334l2,.668v.334h.668v.334h.668v.334l2,.668.334.668,1.337.334.334.668h.668l.334.668h.668l.334.668h.668l.334.668h.668l1,1.337h.668l1.337,1.67h.668l2.672,3.007,1.671,1.336v.668l1.67,1.336.334,1,.668.334v.668l1,.668v.668l.668.334A6.453,6.453,0,0,1,208.793,68.818Zm187.412,35.411H291.642a41.177,41.177,0,0,0,3.34,17.372v1h.334v.668h.334v1h.334l.668,2h.334v.668h.334l.668,2,.668.334.334,1.337.668.334v.668l1,.668v.668l.668.334v.668L303,135.3v.668l3.006,2.673,1,1.337h.668l1,1.336,1,.334.334.668h.668l.334.668,1,.334v.334h.668l.334.668,2,.668v.334h.668v.334h.668v.334l2,.668v.334l2,.334v.334h.668v.334h1.337v.334h1v.334h1.337v.334h1.336v.334h2v.334h2.338c3.215.9,10.51.5,13.363-.334h2v-.334l3.007-.334v-.334l2.338-.334v-.334h1v-.334h1c7.436-3.217,14.235-7.832,18.708-14.031l1.67-1.336v-.668l1-.668c.11-.334.224-.668.334-1l.668-.334v-.668l.668-.334v-.668l1-.668v-.668l.668-.334v-.668l.668-.334v-.668h.334V123.6h.334c.11-.334.224-.668.334-1a5.551,5.551,0,0,1,3.007,1.336h.668v.334h.668v.334h.668v.334h.668v.334h.668v.334h.668c.11.223.224.446.334.668l5.345,2.338a7.768,7.768,0,0,1-1.336,3.341h-.334c-.11.446-.224.891-.334,1.336l-.668.334c-.11.445-.224.891-.334,1.336l-.668.334c-.11.445-.224.891-.334,1.336l-.668.334v.668l-1,.668v.668l-.668.334v.668l-1,.668v.668l-1.336,1v.668l-2,1.67v.668l-3.007,2.673c-.444.557-.892,1.114-1.336,1.67H376.5c-.444.557-.892,1.114-1.336,1.671h-.668l-1,1.336h-.668c-.11.223-.224.446-.334.668h-.668c-.224.334-.444.668-.668,1l-1.336.334c-.11.223-.224.446-.334.668l-1,.334v.334h-.668v.334h-.668v.334h-.668v.334H365.8v.334h-.668v.334h-.668v.334l-2,.668v.334h-1v.334h-.668v.334l-2,.334v.334h-.668v.334h-1.336v.334h-1v.334h-1v.334h-1.336c-1.52.5-3.765.882-5.345,1.336h-2.339v.334h-3.675c-3.08.856-10.944.446-13.7-.334h-2.673v-.334h-1.67v-.334h-1.67v-.334h-1.67v-.334h-1.336v-.334h-1v-.334h-1.336v-.334l-2-.334v-.334h-.668v-.334l-2-.334v-.334l-1.336-.334v-.334h-1v-.334l-2-.668v-.334h-.668v-.334l-1.336-.334-.334-.668-1.337-.334-.334-.668-1.337-.334v-.334l-1-.334-.334-.668h-.668l-.334-.668-1-.334-1-1.336h-.668l-1.336-1.67h-.668l-2.673-3.007-1.67-1.336v-.668l-1.67-1.336v-.668l-1.336-1v-.668l-1-.668v-.668l-.668-.334v-.668l-.668-.334-.334-1h-.334l-.334-1.336-.668-.334V134.3h-.334v-.668h-.334v-.668h-.334v-.668h-.334v-.668h-.334v-.668h-.334l-.668-2h-.334l-.334-1.671h-.334v-.668h-.334v-1h-.334v-1h-.334v-1h-.334v-1h-.334v-1h-.334v-1h-.334l-.334-2.673h-.334l-.334-3.341h-.334q-.167-2.338-.334-4.677h-.334q-.167-4.175-.334-8.351h.334V96.545h.334l.668-6.681,2.672-9.354h.334l.334-1.67h.334v-.668h.334v-1h.334l.668-2h.334V74.5h.334v-.668h.334v-.668h.334v-.668h.334v-.668h.334v-.668l.668-.334.334-1.337h.334l.334-1,.668-.334v-.668l.668-.334v-.668l.668-.334v-.668l.668-.334.334-1,1-.668V62.8l2-1.67v-.668l3.007-2.673,1.337-1.67h.668l1.67-2h.668l.668-1h.668l.668-1H302l.334-.668,1-.334v-.334H304l.334-.668,1-.334v-.334h.668v-.334h.668v-.334h.668V48.44h.668l.334-.668h.668v-.334h.668V47.1h1V46.77h.668v-.334l1.336-.334v-.334h1c12.967-5.639,32.352-5.694,45.1,0h1V46.1h.668v.334h1v.334l2,.668v.334h.668v.334l2,.668c.11.223.224.446.334.668l2,.668v.334l1,.334c.11.223.224.446.334.668h.668c.11.222.224.445.334.668h.668c.224.334.444.668.668,1h.668c.224.334.444.668.668,1h.668c.558.668,1.112,1.336,1.67,2h.668q1.338,1.5,2.673,3.006l1.67,1.337v.668l1.67,1.337v.668l1.336,1v.668l1,.668v.668l.668.334v.668l.668.334c.11.446.224.891.334,1.337C392.47,78.222,396.132,89.1,396.205,104.229ZM477.384,45.1a6.256,6.256,0,0,1-1,2.339l-.668.334c-.11.445-.224.891-.334,1.336l-.668.334v.668l-.668.334c-.11.445-.224.891-.334,1.336h-.334c-.11.334-.224.668-.334,1l-.668.334c-.11.445-.224.891-.334,1.336l-.668.334v.668h-.334c-.578.988-.822,1.986-1.67,2.673-1.006-1.146-2.726-1.089-4.343-1.67v-.334h-2v-.334c-2.018-.572-5.455.544-6.681,1h-1v.334h-1v.334h-.668v.334H453v.334h-.668v.334h-.668V58.8h-.668c-.11.222-.224.445-.334.668h-.668c-.224.334-.444.668-.668,1h-.668q-1.338,1.5-2.673,3.007l-1.67,1.336v.668l-1,.668v.668l-.668.334c-.11.334-.224.668-.334,1h-.334v.668l-.668.334c-.224.668-.444,1.336-.668,2H440.3v.668h-.334v.668h-.334c-.224.668-.444,1.337-.668,2h-.334v1H438.3v.668h-.334v1h-.334v1H437.3v1h-.334v1h-.334v1h-.334v1.67h-.334v1.336h-.334v2h-.334v2.673h-.334V92.2h-.334v5.011h-.334V107.57h-.334v53.451h-15.7V44.431h15.7v16.7h.334V60.8c.9-.574.8-1.243,1.336-2l1-.668v-.668l1-.668v-.668c.558-.446,1.112-.891,1.67-1.336v-.668l3.007-2.673q1.168-1.336,2.338-2.673h.668l1-1.336h.668c.11-.223.224-.446.334-.668l1-.334V46.1h.668c.11-.222.224-.445.334-.668l1.336-.334c.11-.222.224-.445.334-.668h.668V44.1h.668v-.334h1v-.334H454v-.334l2-.334v-.334h1v-.334c1.43-.473,8.686-1.241,10.69-.668v.334h2v.334h1.336v.334h1v.334h1v.334l2,.668A9.51,9.51,0,0,0,477.384,45.1ZM591.3,44.431H606v116.59H591.3V140.977h-.334v.668q-1.338,1.17-2.673,2.338v.668l-1,.668-2,2.339h-.668l-2,2.338h-.668c-.444.557-.892,1.114-1.336,1.67l-1,.334c-.11.223-.224.446-.334.668h-.668c-.11.223-.224.446-.334.668l-1,.334v.334H576.6c-.11.222-.224.445-.334.668H575.6c-.11.223-.224.446-.334.668l-1.336.334c-.11.223-.224.446-.334.668l-2,.668v.334h-.668v.334h-.668v.334l-2,.668v.334h-1v.334h-.668v.334h-1v.334h-.668v.334h-1v.334h-1v.334h-1v.334l-2.338.334v.334h-1.336v.334h-1.67v.334h-2v.334h-2v.334h-3.341v.334H544.2a44,44,0,0,1-13.029-1.67H529.5v-.334l-2.339-.334v-.334h-1v-.334h-1v-.334h-1v-.334h-.668v-.334h-1v-.334h-.668v-.334h-1v-.334l-2-.668v-.334h-.668v-.334h-.668v-.334l-2-.668c-.11-.222-.224-.445-.334-.668l-1.336-.334c-.11-.222-.224-.445-.334-.668l-1.336-.334c-.11-.222-.224-.445-.334-.668h-.668c-.224-.334-.444-.668-.668-1h-.668c-.224-.334-.444-.668-.668-1h-.668c-.224-.334-.444-.668-.668-1h-.668c-.558-.668-1.112-1.336-1.67-2h-.668q-1.338-1.5-2.673-3.006l-1.336-1v-.668l-2-1.67v-.668l-1.336-1c-.11-.334-.224-.668-.334-1l-.668-.334v-.668l-.668-.334c-.11-.334-.224-.668-.334-1h-.334v-.668l-.668-.334c-.11-.334-.224-.668-.334-1h-.334c-.224-.668-.444-1.337-.668-2l-.668-.334c-.224-.668-.444-1.336-.668-2h-.334v-.668h-.334c-.224-.668-.444-1.336-.668-2h-.334v-1h-.334c-.11-.445-.224-.891-.334-1.336h-.334c-.11-.668-.224-1.337-.334-2h-.334v-.668h-.334q-1.168-4.343-2.339-8.686v-2H485.4v-2.338h-.334V106.9h-.334c-.441-1.585.12-7.875.334-9.02q.336-3.841.668-7.684h.334c.11-1,.224-2,.334-3.007h.334c.11-.779.224-1.559.334-2.338h.334v-1h.334v-1h.334v-1h.334c.11-.668.224-1.336.334-2h.334v-.668h.334c.11-.557.224-1.114.334-1.67h.334c.224-.668.444-1.337.668-2h.334v-.668h.334v-.668h.334V73.5h.334v-.668h.334v-.668h.334V71.49l.668-.334c.11-.445.224-.891.334-1.336h.334c.11-.334.224-.668.334-1l.668-.334v-.668l.668-.334v-.668l1-.668v-.668l.668-.334c.11-.334.224-.668.334-1l1.336-1v-.668l4.009-3.675,3.007-3.341h.668c.444-.557.892-1.113,1.336-1.67l1-.334c.11-.222.224-.445.334-.668h.668c.11-.222.224-.445.334-.668l1-.334v-.334h.668c.11-.223.224-.446.334-.668h.668c.11-.222.224-.445.334-.668l1.336-.334c.11-.222.224-.445.334-.668l2-.668v-.334h.668v-.334h.668v-.334h.668V47.1l2-.668V46.1h1v-.334h.668v-.334h1V45.1h.668v-.334l3.341-.668c10.219-3.535,25.369-3.493,35.077.334l3.007.668v.334h.668v.334h1V46.1l2,.668V47.1h.668v.334h.668v.334h.668v.334h.668v.334h.668c.11.222.224.445.334.668l1.336.334v.334l1,.334c.11.222.224.445.334.668h.668c.224.334.444.668.668,1h.668c.11.223.224.446.334.668h.668l1,1.336h.668q1.338,1.5,2.673,3.007h.668v.334l1,.668c.11.334.224.668.334,1l3.007,2.673v.668l1.336,1v.668l.668.334c.224.445.444.891.668,1.336h.334ZM379.836,90.866a36.152,36.152,0,0,0-3.007-8.352v-1H376.5c-.11-.445-.224-.891-.334-1.336h-.334v-.668h-.334V78.84h-.334v-.668h-.334V77.5h-.334v-.668l-.668-.334c-.11-.446-.224-.891-.334-1.337l-.668-.334v-.668l-.668-.334v-.668l-1-.668v-.668l-1.336-1v-.668l-2.338-2-2-2.339H364.8l-1-1.336h-.668c-.224-.334-.444-.668-.668-1H361.8c-.11-.223-.224-.446-.334-.668h-.668c-.11-.222-.224-.445-.334-.668l-2-.668c-.11-.223-.224-.446-.334-.668h-.668v-.334l-1.336-.334V59.8h-1v-.334h-.668V59.13h-1V58.8h-.668v-.334l-2-.334v-.334l-2.673-.334v-.334h-1.336v-.334h-1.67v-.334h-2.338v-.334h-4.009v-.334h-5.011v.334l-6.348.334-9.354,2.673v.334l-2,.668v.334h-.668V60.8l-2,.668-.334.668h-.668l-.334.668h-.668l-.334.668h-.668l-.668,1h-.668l-1.67,2h-.668l-.334.668-1.337,1v.668l-2.338,2v.668l-1,.668v.668l-.668.334-.334,1h-.334v.668l-.668.334-.334,1h-.334l-.668,2-.668.334v.668h-.334l-.334,1.336h-.334v1h-.334l-.334,1.337h-.334v1h-.334v.668h-.334v1h-.334v.668h-.334q-.668,2.339-1.336,4.677ZM543.863,55.789c-.935.792-4.57.234-6.013.668L528.5,59.13v.334l-2,.668v.334h-.668V60.8h-.668v.334h-.668v.334h-.668V61.8h-.668v.334h-.668c-.11.223-.224.446-.334.668h-.668v.334l-1,.334c-.11.222-.224.445-.334.668h-.668c-.224.334-.444.668-.668,1h-.668l-1,1.336h-.668q-1.338,1.5-2.673,3.007l-2.673,2.339v.668l-1.336,1v.668l-.668.334v.668l-1,.668V76.5l-.668.334c-.11.446-.224.891-.334,1.337l-.668.334c-.224.668-.444,1.336-.668,2h-.334v.668h-.334v.668h-.334c-.224.668-.444,1.337-.668,2h-.334v1h-.334v.668h-.334q-1.168,4.176-2.338,8.352v2c-1.557,5.422-.524,14.182,1,18.708v1.337h.334v1h.334v1h.334v1h.334c.11.668.224,1.337.334,2h.334c.11.446.224.891.334,1.337h.334v1h.334c.11.445.224.891.334,1.336h.334v.668l.668.334c.224.668.444,1.337.668,2l.668.334c.11.445.224.891.334,1.336l.668.334v.668l1,.668v.668l.668.334c.11.334.224.668.334,1l1.67,1.336v.668l3.007,2.673,1,1.336h.668c.444.557.892,1.114,1.336,1.67h.668c.224.334.444.668.668,1h.668c.11.223.224.446.334.668l1,.334v.334h.668c.11.222.224.445.334.668l1.336.334c.11.223.224.446.334.668l1.336.334v.334l2,.668v.334h1v.334l1.336.334v.334l2,.334A35.343,35.343,0,0,0,544.865,150h6.013v-.334h2.339v-.334h2v-.334h1.67v-.334h1.336v-.334h1v-.334h1v-.334h1.336c13.105-5.171,22.175-13.659,27.728-26.391.11-.668.224-1.337.334-2,3.571-9.1,3.585-22.97,0-32.071-.11-.668-.224-1.336-.334-2h-.334v-.668h-.334v-1h-.334c-.224-.668-.444-1.336-.668-2h-.334v-.668h-.334v-.668h-.334c-.224-.668-.444-1.337-.668-2l-.668-.334c-.11-.445-.224-.891-.334-1.336l-.668-.334V75.5l-1-.668C575.262,63.458,563.223,56.083,543.863,55.789Z" fill="#f1f1f1" fill-rule="evenodd"/>
</svg>
