<svg xmlns="http://www.w3.org/2000/svg" width="19.929" height="14" viewBox="0 0 19.929 14">
  <path id="group_FILL0_wght400_GRAD0_opsz48" d="M1.9,22.95V20.831A2.626,2.626,0,0,1,2.306,19.4a2.47,2.47,0,0,1,1.127-.958A17.874,17.874,0,0,1,6.4,17.4a11.632,11.632,0,0,1,2.717-.316,11.489,11.489,0,0,1,2.705.316,18.027,18.027,0,0,1,2.953,1.037,2.537,2.537,0,0,1,1.138.958,2.573,2.573,0,0,1,.417,1.432V22.95Zm15.781,0V20.831A3.649,3.649,0,0,0,16.96,18.5a5.28,5.28,0,0,0-1.894-1.477,22.357,22.357,0,0,1,2.931.53,10.33,10.33,0,0,1,2.232.8,3.489,3.489,0,0,1,1.172,1.06,2.472,2.472,0,0,1,.428,1.42V22.95ZM9.114,15.713a3.243,3.243,0,0,1-3.382-3.382A3.243,3.243,0,0,1,9.114,8.95,3.243,3.243,0,0,1,12.5,12.332a3.243,3.243,0,0,1-3.382,3.382Zm8.116-3.382a3.243,3.243,0,0,1-3.382,3.382,5.041,5.041,0,0,1-.552-.034,2.385,2.385,0,0,1-.552-.124,3.7,3.7,0,0,0,.823-1.386,5.646,5.646,0,0,0,.282-1.837,5.248,5.248,0,0,0-.282-1.792,4.793,4.793,0,0,0-.823-1.432A4.758,4.758,0,0,1,13.3,9a3.8,3.8,0,0,1,.552-.045,3.243,3.243,0,0,1,3.382,3.382ZM3.253,21.6H14.976v-.767a1.289,1.289,0,0,0-.214-.7,1.179,1.179,0,0,0-.53-.473,15.222,15.222,0,0,0-2.728-.969,10.9,10.9,0,0,0-2.39-.248,11.056,11.056,0,0,0-2.4.248,15.088,15.088,0,0,0-2.739.969,1.118,1.118,0,0,0-.519.473,1.341,1.341,0,0,0-.2.7Zm5.862-7.237a2.029,2.029,0,1,0,0-4.058,2.029,2.029,0,1,0,0,4.058ZM9.114,21.6ZM9.114,12.332Z" transform="translate(-1.9 -8.95)" fill="#fff"/>
</svg>
