<svg xmlns="http://www.w3.org/2000/svg" width="16" height="16" viewBox="0 0 16 16">
  <g id="Group_798" data-name="Group 798" transform="translate(-6309 -14881)">
    <circle id="Ellipse_64" data-name="Ellipse 64" cx="8" cy="8" r="8" transform="translate(6309 14881)" fill="#fff"/>
    <path id="qr_code_FILL0_wght400_GRAD0_opsz48" d="M6,10.583V6h4.583v4.583Zm.833-.833H9.75V6.833H6.833ZM6,16V11.417h4.583V16Zm.833-.833H9.75V12.25H6.833Zm4.583-4.583V6H16v4.583Zm.833-.833h2.917V6.833H12.25ZM14.861,16V14.861H16V16Zm-3.444-3.431V11.417h1.139v1.153Zm1.139,1.139V12.569h1.153v1.139Zm-1.139,1.153V13.708h1.139v1.153ZM12.556,16V14.861h1.153V16Zm1.153-1.139V13.708h1.153v1.153Zm0-2.292V11.417h1.153v1.153Zm1.153,1.139V12.569H16v1.139Z" transform="translate(6306 14878)"/>
  </g>
</svg>
