<svg xmlns="http://www.w3.org/2000/svg" width="14" height="14.5" viewBox="0 0 14 14.5">
  <g id="Group_4877" data-name="Group 4877" transform="translate(-1 -0.75)">
    <path id="Path_9888" data-name="Path 9888" d="M9.5,11.813a2.5,2.5,0,1,1,1.768-.73,2.494,2.494,0,0,1-1.768.73Zm0-4a1.472,1.472,0,1,0,1.061.438A1.5,1.5,0,0,0,9.5,7.816ZM8.086,7.9h0Z" fill="#888"/>
    <path id="Path_9889" data-name="Path 9889" d="M9.5,11.813a2.5,2.5,0,1,1,1.768-.73,2.494,2.494,0,0,1-1.768.73Zm0-4a1.472,1.472,0,1,0,1.061.438A1.5,1.5,0,0,0,9.5,7.816ZM8.086,7.9h0Z" fill="#888"/>
    <path id="Path_9890" data-name="Path 9890" d="M9.5,15.25a.5.5,0,0,1-.5-.5V11.315a.5.5,0,0,1,1,0V14.75A.5.5,0,0,1,9.5,15.25Zm-4-2.5a.508.508,0,0,1-.224-.053L1.829,10.973A1.489,1.489,0,0,1,1,9.632V2.868A1.5,1.5,0,0,1,3.171,1.527L5.724,2.8A.5.5,0,0,1,6,3.25v9A.5.5,0,0,1,5.5,12.75ZM2.5,2.367a.508.508,0,0,0-.264.076A.492.492,0,0,0,2,2.868V9.632a.5.5,0,0,0,.276.447L5,11.441V3.559L2.724,2.421A.494.494,0,0,0,2.5,2.367Z" fill="#888"/>
    <path id="Path_9891" data-name="Path 9891" d="M5.5,12.75a.5.5,0,0,1-.5-.5v-9a.5.5,0,0,1,.314-.464l5-2A.5.5,0,0,1,11,1.25V7.592a.5.5,0,0,1-.751.433,1.5,1.5,0,0,0-1.81,2.351h0a1.474,1.474,0,0,0,.32.235.5.5,0,0,1-.062.9l-3.013,1.2a.51.51,0,0,1-.185.035ZM6,3.588v7.923l1.558-.623A2.494,2.494,0,0,1,10,6.873V1.988Z" fill="#888"/>
    <path id="Path_9892" data-name="Path 9892" d="M13.5,12.133a1.5,1.5,0,0,1-.672-.16l-1.98-.99a.5.5,0,0,1-.171-.753,1.5,1.5,0,0,0-.117-1.975,1.468,1.468,0,0,0-.312-.23A.5.5,0,0,1,10,7.592V1.25A.5.5,0,0,1,10.723.8L14.17,2.527A1.488,1.488,0,0,1,15,3.868v6.764a1.5,1.5,0,0,1-1.5,1.5Zm-1.726-1.8,1.5.75A.5.5,0,0,0,14,10.632V3.868a.5.5,0,0,0-.276-.447L11,2.059V7.32a2.144,2.144,0,0,1,.268.228,2.5,2.5,0,0,1,.507,2.781Z" fill="#888"/>
  </g>
</svg>
