<svg xmlns="http://www.w3.org/2000/svg" width="8.338" height="6.391" viewBox="0 0 8.338 6.391">
  <defs>
    <style>
      .cls-1 {
        fill: #fff;
      }
    </style>
  </defs>
  <path id="Path_242" data-name="Path 242" class="cls-1" d="M129.338,335.248a.5.5,0,0,1-.151.366l-3.895,3.895-.732.732a.519.519,0,0,1-.732,0l-.732-.732-1.947-1.947a.52.52,0,0,1,0-.732l.732-.732a.52.52,0,0,1,.732,0l1.582,1.587,3.529-3.534a.519.519,0,0,1,.732,0l.732.732A.5.5,0,0,1,129.338,335.248Z" transform="translate(-121 -334)"/>
</svg>
