<svg id="Group_6193" data-name="Group 6193" xmlns="http://www.w3.org/2000/svg" width="40.23" height="40.23" viewBox="0 0 40.23 40.23">
  <g id="Path_10428" data-name="Path 10428" fill="none">
    <path d="M20.115,0A20.115,20.115,0,1,1,0,20.115,20.115,20.115,0,0,1,20.115,0Z" stroke="none"/>
    <path d="M 20.115234375 1.999996185302734 C 15.27647399902344 1.999996185302734 10.72734451293945 3.884304046630859 7.305824279785156 7.305824279785156 C 3.884304046630859 10.72734451293945 1.999996185302734 15.27647399902344 1.999996185302734 20.115234375 C 1.999996185302734 24.95398330688477 3.884304046630859 29.50311470031738 7.305824279785156 32.92463302612305 C 10.72734451293945 36.34615325927734 15.27647399902344 38.23046493530273 20.115234375 38.23046493530273 C 24.95398330688477 38.23046493530273 29.50311470031738 36.34615325927734 32.92463302612305 32.92463302612305 C 36.34615325927734 29.50311470031738 38.23046493530273 24.95398330688477 38.23046493530273 20.115234375 C 38.23046493530273 15.27647399902344 36.34615325927734 10.72734451293945 32.92463302612305 7.305824279785156 C 29.50311470031738 3.884304046630859 24.95398330688477 1.999996185302734 20.115234375 1.999996185302734 M 20.115234375 -3.814697265625e-06 C 31.22456359863281 -3.814697265625e-06 40.23046493530273 9.005893707275391 40.23046493530273 20.115234375 C 40.23046493530273 31.22456359863281 31.22456359863281 40.23046493530273 20.115234375 40.23046493530273 C 9.005893707275391 40.23046493530273 -3.814697265625e-06 31.22456359863281 -3.814697265625e-06 20.115234375 C -3.814697265625e-06 9.005893707275391 9.005893707275391 -3.814697265625e-06 20.115234375 -3.814697265625e-06 Z" stroke="none" fill="#fff"/>
  </g>
  <path id="comepleted" d="M16.5,0h.145c.088.243.526.556.685.715l1.721,1.75c.223.223.8.64.8.946Q13.822,9.462,7.742,15.488c-.045.011-.051.007-.145-.03-1.861-1.872-3.75-3.771-5.665-5.669C1.474,9.3.989,8.82.478,8.309.324,8.156.02,8.014,0,7.656A4.781,4.781,0,0,0,1.009,6.648c.145-.14.359-.255.5-.418.2-.229.4-.477.623-.709.07-.037.177-.08.211-.151.211-.218.7-.858,1.006-.917A5.656,5.656,0,0,0,4.419,5.52C5.134,6.288,5.9,7,6.644,7.745c.222.249.835,1.044,1.13,1.038,2.163-2.118,4.3-4.264,6.408-6.41.571-.544,1.114-1.088,1.658-1.658C16.052.53,16.422.3,16.5,0Zm.03,9.2c.338.089.586.5.771.685l1.836,1.836c.188.188.72.562.715.86q-4.454,4.479-8.988,8.932c-.754.808-1.536,1.589-2.317,2.37-.179.179-.647.791-.889.831-.076-.21-.327-.356-.5-.5-.386-.386-.745-.8-1.13-1.156-.445-.445-.861-.918-1.332-1.365-.169-.2-.417-.352-.623-.564a4.421,4.421,0,0,0-.653-.74,6.59,6.59,0,0,1-.831-.831c-.2-.239-.494-.437-.715-.715a2.125,2.125,0,0,0-.353-.267c-.327-.358-.65-.747-1.038-1.1C.332,17.3.015,17.163,0,16.823c.8-.764,1.6-1.555,2.376-2.346.233-.206.658-.8.976-.831A6.205,6.205,0,0,0,4.39,14.657c.715.768,1.483,1.483,2.225,2.252.2.2.905,1.037,1.13,1.041.728-.767,1.532-1.479,2.281-2.254q2.165-2.14,4.331-4.361c.732-.695,1.464-1.417,2.169-2.139Z" transform="translate(10 8)" fill="#fff" fill-rule="evenodd"/>
</svg>
