<svg xmlns="http://www.w3.org/2000/svg" width="22" height="16" viewBox="0 0 22 16"><defs><style>.a{fill:#9e9e9e;}</style></defs><path class="a" d="M3,7A1,1,0,0,1,4,6H20a1,1,0,0,0,0-2H3A2.006,2.006,0,0,0,1,6V18a2.006,2.006,0,0,0,2,2H6a1,1,0,0,0,0-2H4a1,1,0,0,1-1-1Zm9,5H10a1,1,0,0,0-1,1v.78a2.964,2.964,0,0,0,0,4.44V19a1,1,0,0,0,1,1h2a1,1,0,0,0,1-1v-.78a2.964,2.964,0,0,0,0-4.44V13A1,1,0,0,0,12,12Zm-1,5.5A1.5,1.5,0,1,1,12.5,16,1.5,1.5,0,0,1,11,17.5ZM22,8H16a1.075,1.075,0,0,0-1,1V19a1.075,1.075,0,0,0,1,1h6a1.075,1.075,0,0,0,1-1V9A1.075,1.075,0,0,0,22,8ZM21,18H17V10h4Z" transform="translate(-1 -4)"/></svg>