<svg id="Group_6833" data-name="Group 6833" xmlns="http://www.w3.org/2000/svg" xmlns:xlink="http://www.w3.org/1999/xlink" width="42.32" height="52.352" viewBox="0 0 42.32 52.352">
  <defs>
    <clipPath id="clip-path">
      <rect id="Rectangle_5345" data-name="Rectangle 5345" width="42.32" height="52.352" fill="#3693ff"/>
    </clipPath>
  </defs>
  <g id="Group_6832" data-name="Group 6832" clip-path="url(#clip-path)">
    <path id="Path_10912" data-name="Path 10912" d="M33.268,4.543c1.109,0,2.072-.011,3.035,0,1.039.015,1.47.447,1.489,1.5.017.962,0,1.925,0,3.028.98,0,1.9,0,2.826,0,1.293.005,1.7.388,1.7,1.653q0,18.3,0,36.6c0,1.147.011,2.295,0,3.442-.009,1.206-.382,1.585-1.547,1.586q-15.082,0-30.164,0c-1.167,0-1.533-.38-1.542-1.589-.007-.934,0-1.867,0-2.941-1.04,0-2.024,0-3.008,0-1.117,0-1.5-.386-1.517-1.522-.012-.961,0-1.922,0-3.009h-2.4c-1.952,0-2.125-.17-2.125-2.09V28.516c0-4.68.012-9.36-.012-14.04a2.487,2.487,0,0,1,.788-1.923Q6.7,6.686,12.574.771A2.388,2.388,0,0,1,14.411,0c5.707.023,11.413.012,17.12.014,1.34,0,1.733.392,1.736,1.711,0,.9,0,1.8,0,2.819M2.375,14.942V41.015H30.9V2.382H14.932c0,.438,0,.822,0,1.206q0,4.847,0,9.694c0,1.329-.333,1.655-1.672,1.657q-4.892.008-9.785,0h-1.1M33.267,6.909V8.134q0,16.705,0,33.411c0,1.433-.312,1.744-1.746,1.744l-21.55-.007H6.888v2.249H35.432V6.909ZM37.8,11.427v1.242q0,16.669,0,33.338c0,1.515-.292,1.811-1.773,1.811H11.442v2.2H39.961V11.427ZM12.62,4.4,4.377,12.6H12.62Z" transform="translate(0 0)" fill="#3693ff"/>
  </g>
</svg>
