<svg xmlns="http://www.w3.org/2000/svg" width="19.035" height="17.676" viewBox="0 0 19.035 17.676"><defs><style>.a{fill:#9e9e9e;}</style></defs><g transform="translate(-1 -1038.362)"><path class="a" d="M10.518,2a2.713,2.713,0,0,0-.68,5.34v2.807h-6.8v4.185a2.719,2.719,0,1,0,1.36,0V11.507h6.118v.011h6.118v2.815a2.719,2.719,0,1,0,1.36,0V10.158H11.2V7.34A2.713,2.713,0,0,0,10.518,2Zm0,1.36a1.36,1.36,0,1,1-1.36,1.36A1.349,1.349,0,0,1,10.518,3.36ZM3.719,15.6a1.36,1.36,0,1,1-1.36,1.36A1.349,1.349,0,0,1,3.719,15.6Zm13.6,0a1.36,1.36,0,1,1-1.36,1.36A1.35,1.35,0,0,1,17.316,15.6Z" transform="translate(0 1036.362)"/></g></svg>