<svg xmlns="http://www.w3.org/2000/svg" width="24" height="24" viewBox="0 0 24 24"><defs><style>.a{fill:none;}.b{fill:#9e9e9e;}</style></defs><path class="a" d="M0,0H24V24H0Z"/><path class="b" d="M12.6,18.06a1.006,1.006,0,0,1-1.23,0L5.22,13.28A.994.994,0,1,0,4,14.85l6.76,5.26a2.011,2.011,0,0,0,2.46,0l6.76-5.26a1,1,0,0,0,0-1.57l-.01-.01a.991.991,0,0,0-1.22,0L12.6,18.06Zm.63-3.02,6.76-5.26a1.007,1.007,0,0,0,0-1.58L13.23,2.94a2.011,2.011,0,0,0-2.46,0L4.01,8.21a1.007,1.007,0,0,0,0,1.58l6.76,5.26a2,2,0,0,0,2.46-.01Z"/></svg>