<svg xmlns="http://www.w3.org/2000/svg" width="42.699" height="43.246" viewBox="0 0 42.699 43.246">
  <g id="new_tab" transform="translate(-0.5 -0.5)">
    <path id="Path_3464" data-name="Path 3464" d="M27.873,35.9H8.076A7.634,7.634,0,0,1,.5,28.224V8.173A7.634,7.634,0,0,1,8.076.5h19.8a7.633,7.633,0,0,1,7.576,7.673V28.224A7.633,7.633,0,0,1,27.873,35.9ZM31.316,8.173a3.47,3.47,0,0,0-3.443-3.488H8.076A3.469,3.469,0,0,0,4.632,8.173V28.224a3.469,3.469,0,0,0,3.443,3.488h19.8a3.47,3.47,0,0,0,3.443-3.488Z" transform="translate(7.751)" fill="#fff"/>
    <path id="Path_3465" data-name="Path 3465" d="M9.269,13.458a2.08,2.08,0,0,1,2.066,2.093V30.635a6.245,6.245,0,0,0,6.2,6.278H32.428a2.093,2.093,0,0,1,0,4.185H17.534A10.409,10.409,0,0,1,7.2,30.635V15.55A2.08,2.08,0,0,1,9.269,13.458Z" transform="translate(-6.703 2.648)" fill="#fff"/>
    <g id="Group_3881" data-name="Group 3881" transform="translate(26.832 -0.505) rotate(45)">
      <path id="Path_3466" data-name="Path 3466" d="M17.98,11.143a1.056,1.056,0,0,1-.814-.349L11.349,4.978a1.152,1.152,0,0,1,1.629-1.629l5.817,5.817a1.125,1.125,0,0,1,0,1.629,1.056,1.056,0,0,1-.814.349Z" transform="translate(0.817)" fill="#fff"/>
      <path id="Path_3467" data-name="Path 3467" d="M7.163,11.143a1.056,1.056,0,0,1-.814-.349,1.125,1.125,0,0,1,0-1.629l5.817-5.817a1.152,1.152,0,1,1,1.629,1.629L7.978,10.794a1.056,1.056,0,0,1-.814.349Z" transform="translate(0 0)" fill="#fff"/>
      <path id="Path_3468" data-name="Path 3468" d="M12.163,23.94A1.1,1.1,0,0,1,11,22.777V4.163A1.1,1.1,0,0,1,12.163,3a1.1,1.1,0,0,1,1.163,1.163V22.777A1.1,1.1,0,0,1,12.163,23.94Z" transform="translate(0.817 0)" fill="#fff"/>
    </g>
  </g>
</svg>
