<svg id="Group_6463" data-name="Group 6463" xmlns="http://www.w3.org/2000/svg" xmlns:xlink="http://www.w3.org/1999/xlink" width="202.06" height="218.613" viewBox="0 0 202.06 218.613">
  <defs>
    <clipPath id="clip-path">
      <rect id="Rectangle_5060" data-name="Rectangle 5060" width="202.06" height="218.613" fill="#3793ff"/>
    </clipPath>
  </defs>
  <g id="Group_6462" data-name="Group 6462" clip-path="url(#clip-path)">
    <path id="Path_10492" data-name="Path 10492" d="M21.45,236.907H0V149.936c6.894,0,13.6-.131,20.289.13,1.108.043,2.492,1.6,3.169,2.795,7.993,14.068,15.873,28.2,23.794,42.31.534.95,1.158,1.85,1.856,2.959V176.154c0-7.6.086-15.21-.046-22.811-.046-2.623.834-3.532,3.464-3.468,6.011.148,12.027.046,18.413.046v87.119c-7.1,0-14.333.09-21.556-.123-.821-.024-1.772-1.645-2.361-2.695Q35.682,213.986,24.429,193.7c-.727-1.3-1.559-2.547-2.98-4.851Z" transform="translate(0 -20.845)" fill="#3793ff"/>
    <path id="Path_10493" data-name="Path 10493" d="M19.254,51.7,7.469,41.417C55.057-11.544,143.437-15.911,196.621,41.1L184.879,51.579A115.059,115.059,0,0,0,19.254,51.7" transform="translate(-1.039 0)" fill="#3793ff"/>
    <path id="Path_10494" data-name="Path 10494" d="M225.76,149.135v20.359c-11.23-2.73-21.788-3.043-27.936,8.637-5.524,10.492-5.283,21.36.966,31.505,4.941,8.022,11.925,9.568,26.867,7.033,0,6.675,0,13.3.006,19.929-14.162,5.945-33.356.957-44.058-11.445-15.072-17.467-14.937-47.309.363-64.574,10.329-11.655,26.46-16.189,43.791-11.444" transform="translate(-23.7 -20.484)" fill="#3793ff"/>
    <path id="Path_10495" data-name="Path 10495" d="M129.308,202.759v34.078H107.153v-86.59h44.418v18.571H129.53v15.512h19.289v18.429Z" transform="translate(-14.904 -20.898)" fill="#3793ff"/>
    <path id="Path_10496" data-name="Path 10496" d="M43.681,78.724,32.092,68.679c34.857-38.912,104.093-43.32,144.556,1.43l-11.824,10.3C133.008,46.977,78.886,45.125,43.681,78.724" transform="translate(-4.464 -5.287)" fill="#3793ff"/>
    <path id="Path_10497" data-name="Path 10497" d="M70.4,107.972,58.793,97.3C81.766,69,130.44,64.291,159.608,96.812l-12.2,10.472a51.71,51.71,0,0,0-37.96-16.451c-15.645-.065-28.588,6.161-39.048,17.139" transform="translate(-8.177 -10.321)" fill="#3793ff"/>
  </g>
</svg>
