<svg id="Group_6065" data-name="Group 6065" xmlns="http://www.w3.org/2000/svg" xmlns:xlink="http://www.w3.org/1999/xlink" width="511.209" height="411.035" viewBox="0 0 511.209 411.035">
  <defs>
    <clipPath id="clip-path1133f4">
      <rect id="Rectangle_4939" data-name="Rectangle 4939" width="511.209" height="411.035" fill="none"/>
    </clipPath>
  </defs>
  <g id="Group_6064" data-name="Group 6064" clip-path="url(#clip-pathclip-path1133f4)">
    <path id="Path_10371" data-name="Path 10371" d="M0,320.375c1.619-5.37,3.2-10.753,4.869-16.107,1.335-4.271,2.7-8.539,4.2-12.752,4.012-11.2,10.6-19.9,21.818-25.188,9.583-4.521,18.667-10.147,27.755-15.643,3.342-2.021,5.839-2.188,8.807.367a62.861,62.861,0,0,0,6.7,4.453c-.965,1.513-1.475,2.81-2.393,3.672-5.6,5.249-4.8,10.739-1.305,16.812,4.3,7.472,7.8,15.412,12.3,22.756s9.771,14.2,15.338,22.171c-2.6.492-4.968,1.325-7.343,1.334q-45.37.164-90.741.121v-2"/>
    <path id="Path_10372" data-name="Path 10372" d="M255.491,322.167c-15.651-13.2-30.485-26.524-41.235-43.616-2-3.178-3.447-7.549-3.128-11.192,1.516-17.3-1.916-32.985-11.14-47.941-6.953-11.275-9.946-24.221-9.965-37.64C190,165.6,184.945,150.369,181.19,134.9c-4.322-17.8-5.2-35.459,1.16-53,10.481-28.911,31.425-44.871,61.637-47.618a116.1,116.1,0,0,1,35.572,2.268C308.429,43.081,328.5,67.4,332.5,97.207c2.447,18.2-2.488,35.21-6.294,52.567a263.829,263.829,0,0,0-5.234,34.864c-1.055,12.857-3.974,25.134-10.577,36-8.446,13.9-12.393,28.419-10.351,44.56.752,5.945-1.345,11.05-4.7,15.847-10.972,15.682-24.839,28.522-39.857,41.12"/>
    <path id="Path_10373" data-name="Path 10373" d="M44.469,133.587c13.021-2.9,19.484-12.266,23.008-23.218,3.216-10,4.635-20.62,6.284-31.056,1.733-10.966,2.1-22.181,4.319-33.029,3.372-16.447,13.027-29.191,26.079-39.523,8.561-6.776,17.822-8.422,28.031-4.45,1.856.723,4.019,1.069,5.508,2.256,8.382,6.677,16,5.182,24.88.009,13.332-7.763,26.339-5.5,37.2,5.642,5.747,5.9,10.879,12.39,16.725,19.116-3.689,1.983-6.339,3.275-8.86,4.784-23.665,14.157-35.794,35.769-40.012,62.376-2.986,18.834.532,37.115,5.582,55.114A171.16,171.16,0,0,1,179.6,198.36c-.015,6.995-1.971,14.139-3.966,20.945-4.289,14.628-9.049,29.123-13.907,43.574a42.115,42.115,0,0,1-5.373,10.07c-4.365,6.38-8.469,6.464-12.692.074a73.585,73.585,0,0,1-6.871-13.21c-7.842-19.642-13.177-40.01-17.005-60.79-1.354-7.347-2.687-14.7-4.245-22a11.515,11.515,0,0,0-2.474-4.68c-6.11-7.355-12.344-14.606-18.552-21.911-8.8,9.465-21.038,6.077-32.1,3.609-9.667-2.156-13.937-11.4-17.949-20.45"/>
    <path id="Path_10374" data-name="Path 10374" d="M291.419,27.569C304.2,10.937,321.16,2.305,341.687.44c35.853-3.256,65.217,13.9,76.924,46.287,5.173,14.312,4.1,28.309-.965,42.374-3.817,10.6-7.347,21.3-10.763,32.03a27.906,27.906,0,0,0-1.024,8.376,80.4,80.4,0,0,1-10.3,39.1c-5.377,9.817-8.167,19.989-6.588,31.028,1.413,9.883-2.654,17.233-9.13,24.051-7.65,8.055-16.2,14.8-26.424,19.171-1.97.842-5.15,1.089-6.8.058-7.845-4.895-15.355-10.325-22.98-15.57-2.3-1.583-2.515-3.389-1.234-5.94,6.6-13.141,8.582-27.229,9.984-41.794,1.406-14.6,5.13-29.029,8.516-43.373,5.743-24.335,4.443-47.782-7.256-70.221-8.6-16.5-21.32-28.66-38.451-36.1-1.062-.461-2.112-.95-3.158-1.447-.122-.058-.18-.25-.62-.9"/>
    <path id="Path_10375" data-name="Path 10375" d="M444.259,411.035H279.273c.149-.535.127-1.136.4-1.337,22.013-16.182,33.158-39.03,38.53-64.879,3.3-15.893,4.836-32.153,7.171-48.246.327-2.252.692-4.5,1.074-6.96,16.226,8.178,32.065,16.175,47.915,24.147,15.125,7.6,30.479,14.795,45.3,22.959,6.259,3.449,11.9,8.442,16.918,13.611,5.45,5.614,7.864,12.869,7.737,20.956-.206,13.092-.055,26.189-.055,39.749"/>
    <path id="Path_10376" data-name="Path 10376" d="M184.715,289.5c1.347,11.426,2.485,22.318,3.941,33.167,2.775,20.679,7.4,40.816,17.893,59.189a91.694,91.694,0,0,0,26.228,28.924H67.053c0-15.384-1.159-30.738.357-45.824C68.684,352.282,78.115,343.735,89,337.9c15.94-8.543,32.265-16.369,48.419-24.514,15.549-7.84,31.089-15.7,47.294-23.881"/>
    <path id="Path_10377" data-name="Path 10377" d="M410.336,225.3c11.1,5.839,21.62,11.441,32.2,16.932,15.915,8.259,32.11,16.017,47.687,24.868a51.534,51.534,0,0,1,15.626,14.171c3.092,4.237,4.417,10.325,4.942,15.744.794,8.191.207,16.516.207,25.3h-5.335c-28.429,0-56.859.039-85.288-.089a18.4,18.4,0,0,1-7.548-1.81c-9.575-4.544-19.021-9.357-28.968-14.3,19.372-23.562,22.8-52.03,26.475-80.824"/>
    <path id="Path_10378" data-name="Path 10378" d="M88.765,251.453c-3.234-2.045-6.166-3.846-9.041-5.734-2.757-1.811-3.021-4.071-.273-5.918,8.527-5.729,17.183-11.265,26.268-17.188,5.239,28.185,12.727,55.388,26.7,80.9l-25.7,12.776c-1.7-2.577-3.454-4.948-4.918-7.483-7.556-13.082-15.123-26.161-22.423-39.386-.756-1.369-.369-4.068.521-5.514,2.584-4.2,5.693-8.079,8.864-12.452"/>
    <path id="Path_10379" data-name="Path 10379" d="M266.673,387.178V333l18.687,7.378c10.232-18.5,20.672-37.38,31.554-57.059.394,1.577,1.229,3.066,1.027,4.4-2.719,17.994-7.154,35.437-17.294,50.912q-16.185,24.7-32.438,49.356l-1.536-.812"/>
    <path id="Path_10380" data-name="Path 10380" d="M244.245,333v54.168a12.222,12.222,0,0,1-2-1.745c-11.732-17.485-23.686-34.828-35.062-52.542-8.886-13.837-11.618-29.833-14.231-45.735-.186-1.126.893-2.46,1.251-3.36,5.6,9.911,10.983,19.37,16.3,28.863,5.25,9.368,10.44,18.77,15.481,27.841L244.245,333"/>
    <path id="Path_10381" data-name="Path 10381" d="M362.166,256.45l13.4,12.19,26.369-46.394,1.511.726c-4.295,28.085-13.648,54.069-32.614,76.362-6.167-2.181-11.931-4.309-11.766-12.414a20.554,20.554,0,0,0-1.256-5.823c-1.4-4.9-2.662-9.395,1.444-14.128,1.992-2.295,1.873-6.423,2.911-10.519"/>
    <path id="Path_10382" data-name="Path 10382" d="M312.538,246.8q5.883,11.066,11.75,22.1c4.371-4.011,8.775-8.054,12.472-11.449,2.392,4.9,4.717,9.295,6.638,13.854.546,1.295.1,3.118-.2,4.636-.553,2.743-1.344,5.439-2.212,8.852-9.55-5.48-18.771-10.695-27.874-16.107a4.923,4.923,0,0,1-1.974-3.532c-.2-5.955-.092-11.919-.092-17.881l1.5-.475"/>
    <path id="Path_10383" data-name="Path 10383" d="M192.126,235.849c6.8,8.549,8.875,18.525,7.746,29.287a5.309,5.309,0,0,1-1.84,3.613c-6.036,3.719-12.234,7.177-18.8,10.963,4.417-15.033,8.646-29.421,12.89-43.863"/>
  </g>
</svg>
