<svg id="Group_6067" data-name="Group 6067" xmlns="http://www.w3.org/2000/svg" xmlns:xlink="http://www.w3.org/1999/xlink" width="552.472" height="466.396" viewBox="0 0 552.472 466.396">
  <defs>
    <clipPath id="clip-path2323e23">
      <rect id="Rectangle_4940" data-name="Rectangle 4940" width="552.472" height="466.397" fill="none"/>
    </clipPath>
  </defs>
  <g id="Group_6066" data-name="Group 6066" clip-path="url(#clip-path2323e23)">
    <path id="Path_10384" data-name="Path 10384" d="M247.358,90.692c48.255,29.066,74.188,70.051,75.565,125.723.284,11.536-.757,23.154.255,34.606,1.128,12.714-4.29,21.248-15.595,24.166-24.984,6.454-50.105,14.26-75.6,16.418-47.422,4.018-95.123,3.878-142-7.313-1.865-.447-3.78-.7-5.633-1.192-33.7-9.007-35.448-12.363-36.492-46.972C46.711,197.986,53.1,162.356,77,131.547a170.937,170.937,0,0,1,21.628-23.087c20.085-17.785,20.894-17.149,44.933-5.625,36.46,17.483,70.837,11.977,103.8-12.143" transform="translate(90.734 172.386)"/>
    <path id="Path_10385" data-name="Path 10385" d="M196.717,254.029c-11.853-45.275-36.872-79.235-76.505-103.349C141.1,124.085,147.1,95.031,139.583,63.615c14.1,3.084,27.972,7.333,42.146,8.926,20.227,2.271,39.416-3.223,55.843-15.061,8.328-6,13.93-4.949,21.535.377,40.982,28.68,62.944,67.611,64.464,117.74.348,11.528-1.07,23.192.183,34.589,1.74,15.827-7.005,22.69-19.76,27.412-34.29,12.7-70.071,15.249-107.277,16.43" transform="translate(228.497 101.512)"/>
    <path id="Path_10386" data-name="Path 10386" d="M184.082,61.31c-5.665,40.121-2.878,53.377,19.128,89.234-38.409,23.9-64.421,57.641-75.452,103.053-37.762-1-74.333-3.591-109.4-16.97-12.587-4.8-18.777-12.305-18.336-27,.905-30.226-.957-60.5,12.166-89.121C24.553,93.514,42.521,71.584,67.856,56.132c3.687-2.248,10.811-3.562,13.8-1.54,32.877,22.2,66.883,23.528,102.421,6.718" transform="translate(-0.001 101.865)"/>
    <path id="Path_10387" data-name="Path 10387" d="M195.74,0c44.782.078,79.438,34.656,79.461,79.287.026,45.415-34.888,80.215-80.323,80.062-44.678-.151-79.374-34.859-79.47-79.493C115.31,34.326,149.922-.08,195.74,0" transform="translate(219.366 0.002)"/>
    <path id="Path_10388" data-name="Path 10388" d="M100.676,0c44.988.226,79.055,34.554,79.012,79.612-.044,45.394-35.047,80.044-80.552,79.731C54.5,159.04,19.97,124.2,20.028,79.512,20.086,34.066,54.869-.23,100.676,0" transform="translate(38.069 0.001)"/>
    <path id="Path_10389" data-name="Path 10389" d="M227.35,118.113c-.061,44.455-34.894,79.835-79.174,80.421-44.246.583-80.549-35.807-80.439-80.636C67.85,72.618,103.13,37.672,148.393,38c44.414.325,79.017,35.433,78.956,80.111" transform="translate(128.753 72.23)"/>
  </g>
</svg>
