<svg xmlns="http://www.w3.org/2000/svg" width="7.382" height="11.042" viewBox="0 0 7.382 11.042"><path fill="#3693ff"  d="M22.068,9.425a1.481,1.481,0,0,0-1.216.786H18.174a.3.3,0,0,1-.332-.319V7.14h3.009a1.277,1.277,0,0,0,1.216.8,1.3,1.3,0,1,0,0-2.6,1.3,1.3,0,0,0-1.216.823H17.842V3.517L17.818,3.5A1.305,1.305,0,1,0,16,2.288a1.311,1.311,0,0,0,.835,1.2l.025.012V9.891a1.275,1.275,0,0,0,1.314,1.3h2.678a1.307,1.307,0,1,0,1.216-1.769Zm0-3.353a.565.565,0,1,1-.577.565A.566.566,0,0,1,22.068,6.071Zm0,5.257a.565.565,0,1,1,.577-.565A.582.582,0,0,1,22.068,11.328Z" transform="translate(-16 -0.998)"/></svg>