<svg xmlns="http://www.w3.org/2000/svg" width="17.687" height="17.687" viewBox="0 0 17.687 17.687">
  <path id="Icon_material-call" data-name="Icon material-call" d="M8.057,12.154a14.885,14.885,0,0,0,6.475,6.475l2.162-2.162a.977.977,0,0,1,1-.236,11.208,11.208,0,0,0,3.508.56.985.985,0,0,1,.983.983V21.2a.985.985,0,0,1-.983.983A16.7,16.7,0,0,1,4.5,5.483.985.985,0,0,1,5.483,4.5H8.922a.985.985,0,0,1,.983.983,11.163,11.163,0,0,0,.56,3.508.986.986,0,0,1-.246,1L8.057,12.154Z" transform="translate(-4.5 -4.5)" fill="#fff"/>
</svg>
