<svg xmlns="http://www.w3.org/2000/svg" width="192.832" height="131.802" viewBox="0 0 192.832 131.802">
  <g id="Group_33672" data-name="Group 33672" transform="translate(-6230.822 10973.423)">
    <g id="Group_592" data-name="Group 592" transform="translate(6295.736 -10973.424)">
      <g id="Layer_3" data-name="Layer 3" transform="translate(0 0)">
        <path id="Path_350" data-name="Path 350" d="M75.41,109.515a2.284,2.284,0,0,0,4.567,0,10.606,10.606,0,0,1,7.768-8.91,2.284,2.284,0,0,0,0-4.342,10.607,10.607,0,0,1-7.768-8.91,2.284,2.284,0,1,0-4.567,0,10.607,10.607,0,0,1-7.768,8.91,2.268,2.268,0,0,0,0,4.342,10.607,10.607,0,0,1,7.768,8.91Zm32.889,2.742a10.607,10.607,0,0,1-7.768-8.91,2.284,2.284,0,1,0-4.567,0,10.607,10.607,0,0,1-7.768,8.91,2.284,2.284,0,0,0,0,4.342,10.607,10.607,0,0,1,7.768,8.91,2.284,2.284,0,0,0,4.567,0,10.607,10.607,0,0,1,7.768-8.91,2.284,2.284,0,0,0,0-4.342Zm9.593-106.9a6.626,6.626,0,0,0-9.593,0L43.655,70l9.593,9.593,64.644-64.644a6.626,6.626,0,0,0,0-9.593ZM52.758,108.148l3.651-9.135A11.652,11.652,0,0,0,53.9,86.677L36.57,69.308A11.652,11.652,0,0,0,24.235,66.8L15.1,70.45Zm18.5,12.561c-8.91-1.608-12.794,2.509-19.187-3.884a17.818,17.818,0,0,1-.458-3.217l-8.91-9.135a37.457,37.457,0,0,0,.684,14.161,24.759,24.759,0,0,0,11.419,12.1l7.993,4.342H78.779A2.287,2.287,0,1,0,79,130.511a42.8,42.8,0,0,1-20.787-5.484c4.109.458,7.535-.684,12.335,0,8.226,1.367,15.078,5.709,15.078,9.593H90.2c.048-7.06-9.545-12.311-18.905-13.92Z" transform="translate(7.971 -3.3)" fill="#d9d900"/>
        <path id="Path_351" data-name="Path 351" d="M51.825,81.108A50.267,50.267,0,0,1,51.6,61.7L40.382,50.278a37.344,37.344,0,0,0-6.168,23.754H29.671a42.128,42.128,0,0,1,7.31-26.955L23.728,33.6C7.284,43.418,5,59.871,5,73.348s7.31,22.845,18.27,22.845H65.527a32.664,32.664,0,0,1-13.7-15.086ZM24.412,91.618A20.1,20.1,0,0,1,18.7,77.457a34.722,34.722,0,0,1,2.509-12.1,53.217,53.217,0,0,0,.225,13.477A29.922,29.922,0,0,0,27.6,91.626Zm19.187,0a23.754,23.754,0,0,1-2.967-13.252,47.282,47.282,0,0,0,6.433,13.252Z" transform="translate(-5 35.608)" fill="#d9d900"/>
      </g>
    </g>
    <g id="Group_33669" data-name="Group 33669" transform="translate(6230.845 -10966.822)">
      <g id="Group_33673" data-name="Group 33673" transform="translate(-0.197 -0.2)">
        <path id="Path_18660" data-name="Path 18660" d="M117.11,28.5A33.924,33.924,0,0,0,105.274,8.458,34.549,34.549,0,0,0,76.391.568,33.937,33.937,0,0,0,57.818,9.974a34.763,34.763,0,0,0-10.764,23.21,34.474,34.474,0,0,0,3.428,17.641c.192.4.266.652-.108,1.01q-1.756,1.666-3.422,3.406c-.071.068-.14.138-.206.211a3.369,3.369,0,0,0,.264,4.757c.641.639,1.3,1.263,1.85,1.8L45.8,65.2c-.794-.793-1.573-1.585-2.366-2.363a2.533,2.533,0,0,0-3.96.1q-8.994,9.9-17.957,19.813Q11.266,94.108,1,105.465c-1.338,1.481-1.354,2.738.043,4.142q3.7,3.709,7.432,7.388a2.347,2.347,0,0,0,.22.229,2.464,2.464,0,0,0,3.481-.161c2.229-2,4.445-4.015,6.667-6.023L35.1,96.346q9.882-8.953,19.777-17.89a2.5,2.5,0,0,0,.446-.414,2.549,2.549,0,0,0-.293-3.594c-.8-.807-1.622-1.587-2.465-2.409l3.2-3.172v-.01c.638.674,1.2,1.294,1.8,1.889a3.458,3.458,0,0,0,.467.467,3.375,3.375,0,0,0,4.751-.467c1.214-1.228,2.422-2.463,3.6-3.666a35.364,35.364,0,0,0,5.085,2.088V63.1a29.685,29.685,0,1,1,39.29-18.759v12.3l.029-.038a34.347,34.347,0,0,0,6.322-28.1" transform="translate(0.175 0.178)" fill="#d9d900"/>
      </g>
    </g>
  </g>
</svg>
