<svg xmlns="http://www.w3.org/2000/svg" width="20.267" height="20.268" viewBox="0 0 20.267 20.268">
  <g id="Group_15454" data-name="Group 15454" transform="translate(-18.794 -18.808)">
    <g id="Group_15455" data-name="Group 15455" transform="translate(18.794 18.808)">
      <path id="Path_11571" data-name="Path 11571" d="M28.732,37.7a6.106,6.106,0,0,0-8.554-8.551c-.069-.077-.138-.159-.213-.236-.322-.328-.642-.658-.971-.979a.563.563,0,0,1-.182-.44q0-3.671,0-7.343c0-.392,0-.784-.014-1.176,0-.127.031-.162.156-.162,1.158,0,2.317,0,3.475,0,1.686,0,3.371,0,5.057-.005a.7.7,0,0,1,.557.226c.509.529,1.039,1.038,1.557,1.559q3.141,3.159,6.279,6.321,1.281,1.291,2.553,2.59a2.063,2.063,0,0,1-.007,2.979q-2.848,2.86-5.709,5.707a4.285,4.285,0,0,1-.525.485,2.017,2.017,0,0,1-2.536-.1c-.323-.271-.611-.583-.919-.88M20.795,22.349a1.545,1.545,0,1,0,1.541-1.543,1.565,1.565,0,0,0-1.541,1.543" transform="translate(-18.794 -18.808)" fill="#3693ff"/>
      <path id="Path_11572" data-name="Path 11572" d="M29.007,117.63A5.052,5.052,0,1,1,24,112.662a5.059,5.059,0,0,1,5.006,4.968m-4.034-2.963a.187.187,0,0,0-.041-.015c-.635,0-1.27.007-1.906.008-.088,0-.1.04-.1.116,0,.559,0,1.117,0,1.676,0,.08,0,.159,0,.257H20.9a.629.629,0,0,0-.009.071c0,.626.008,1.252.01,1.879,0,.076.031.087.1.087.509,0,1.018,0,1.527,0h.4v2.027h2.05V118.76c.059,0,.108-.008.156-.008.586,0,1.171-.007,1.757,0,.1,0,.129-.026.128-.129,0-.532,0-1.063,0-1.595,0-.1,0-.2,0-.324H24.973Z" transform="translate(-18.892 -102.508)" fill="#3693ff"/>
    </g>
  </g>
</svg>
