<svg xmlns="http://www.w3.org/2000/svg" xmlns:xlink="http://www.w3.org/1999/xlink" width="98.091" height="84.935" viewBox="0 0 98.091 84.935">
  <defs>
    <linearGradient id="linear-gradient" x1="0.5" x2="0.5" y2="1.184" gradientUnits="objectBoundingBox">
      <stop offset="0" stop-color="#6de5fe"/>
      <stop offset="1" stop-color="#55bcd2"/>
    </linearGradient>
  </defs>
  <g id="Layer_1-2" transform="translate(-49.909 -89.436)">
    <path id="Path_11531" data-name="Path 11531" d="M234.131,156.728c.523-.615,1.019-1.255,1.58-1.833a1.285,1.285,0,0,1,.85-.386,38.887,38.887,0,0,1,10.768,1.677,8.58,8.58,0,0,1,1.878.885c1.353.869,1.363,1.949-.025,2.776a11.323,11.323,0,0,1-2.751,1.158,49.873,49.873,0,0,1-15.235,1.415,41.246,41.246,0,0,1-10.058-1.438,11.719,11.719,0,0,1-2.462-1.007c-1.649-.924-1.664-2.133.01-3.037a10.809,10.809,0,0,1,3.264-1.211c3.014-.5,6.054-.839,9.086-1.234.266-.035.536-.037.959-.065-.715-1.153-1.368-2.2-2.02-3.254a219.057,219.057,0,0,1-14.07-25.58,78.086,78.086,0,0,1-3.587-9.689,18.822,18.822,0,0,1,2.123-15.281c4.4-7.539,11.092-11.3,19.818-11.185a21.879,21.879,0,0,1,21.293,22.7,27.983,27.983,0,0,1-2.284,8.772,154.519,154.519,0,0,1-10.915,21.673c-2.745,4.676-5.608,9.284-8.417,13.922l.2.221Zm11.578-45.993a12.124,12.124,0,1,0-12.335,12.139,12.182,12.182,0,0,0,12.335-12.139Z" transform="translate(-134.634)" fill="url(#linear-gradient)"/>
    <path id="Path_11532" data-name="Path 11532" d="M64.775,442.677c-1.26.613-2.559,1.156-3.765,1.859a21.827,21.827,0,0,0-3.274,2.284c-2.937,2.531-2.9,5.807-.008,8.4a23.183,23.183,0,0,0,7.6,4.251,71.909,71.909,0,0,0,15.223,3.66,131.384,131.384,0,0,0,24.4,1.123c8.92-.409,17.749-1.443,26.266-4.3a24.832,24.832,0,0,0,8.939-4.729c2.93-2.616,2.925-5.875-.017-8.473A22.518,22.518,0,0,0,134,443.111a4.962,4.962,0,0,1-.88-.459,36.966,36.966,0,0,1,8.254,3.234,25.193,25.193,0,0,1,4.587,3.286c2.758,2.614,2.689,5.8.01,8.514a22.424,22.424,0,0,1-7.866,4.771,77.59,77.59,0,0,1-17.1,4.382,144.243,144.243,0,0,1-25.959,1.569,122.171,122.171,0,0,1-28-3.586A41.961,41.961,0,0,1,54.921,460a16.83,16.83,0,0,1-3.388-2.806c-2.223-2.434-2.13-5.27.073-7.726a17.9,17.9,0,0,1,6.306-4.285c2.227-.979,4.525-1.8,6.792-2.684l.07.179Z" transform="translate(0 -294.086)" fill="url(#linear-gradient)"/>
  </g>
</svg>
