<svg xmlns="http://www.w3.org/2000/svg" width="15.908" height="16.39" viewBox="0 0 15.908 16.39">
  <g id="Group_592" data-name="Group 592" transform="translate(-5002 -7944.001)">
    <g id="Layer_3" data-name="Layer 3" transform="translate(4997 7940.7)">
      <path id="Path_350" data-name="Path 350" d="M22.6,16.509a.284.284,0,1,0,.568,0,1.319,1.319,0,0,1,.966-1.108.284.284,0,0,0,0-.54,1.319,1.319,0,0,1-.966-1.108.284.284,0,1,0-.568,0,1.319,1.319,0,0,1-.966,1.108.282.282,0,0,0,0,.54,1.319,1.319,0,0,1,.966,1.108Zm4.09.341a1.319,1.319,0,0,1-.966-1.108.284.284,0,1,0-.568,0,1.319,1.319,0,0,1-.966,1.108.284.284,0,0,0,0,.54,1.319,1.319,0,0,1,.966,1.108.284.284,0,0,0,.568,0,1.319,1.319,0,0,1,.966-1.108.284.284,0,0,0,0-.54ZM27.883,3.556a.824.824,0,0,0-1.193,0l-8.039,8.039,1.193,1.193,8.039-8.039a.824.824,0,0,0,0-1.193Zm-8.1,12.783.454-1.136a1.449,1.449,0,0,0-.312-1.534l-2.155-2.16a1.449,1.449,0,0,0-1.534-.312l-1.136.454Zm2.3,1.562c-1.108-.2-1.591.312-2.386-.483a2.216,2.216,0,0,1-.057-.4l-1.108-1.136a4.658,4.658,0,0,0,.085,1.761,3.079,3.079,0,0,0,1.42,1.5l.994.54h1.988a.284.284,0,1,0,.028-.568,5.323,5.323,0,0,1-2.585-.682c.511.057.937-.085,1.534,0,1.023.17,1.875.71,1.875,1.193h.568c.006-.878-1.187-1.531-2.351-1.731Z" transform="translate(-7.231)" fill="#0d8d19"/>
      <path id="Path_351" data-name="Path 351" d="M10.823,39.508a6.251,6.251,0,0,1-.028-2.414l-1.4-1.42a4.644,4.644,0,0,0-.767,2.954H8.068a5.239,5.239,0,0,1,.909-3.352L7.329,33.6C5.284,34.821,5,36.867,5,38.543s.909,2.841,2.272,2.841h5.255a4.062,4.062,0,0,1-1.7-1.876ZM7.414,40.815a2.5,2.5,0,0,1-.71-1.761,4.318,4.318,0,0,1,.312-1.5,6.618,6.618,0,0,0,.028,1.676,3.721,3.721,0,0,0,.767,1.591Zm2.386,0a2.954,2.954,0,0,1-.369-1.648,5.88,5.88,0,0,0,.8,1.648Z" transform="translate(0 -21.693)" fill="#0d8d19"/>
    </g>
  </g>
</svg>
