<svg xmlns="http://www.w3.org/2000/svg" width="27.054" height="27.054" viewBox="0 0 27.054 27.054">
  <g id="Group_809" data-name="Group 809" transform="translate(-770.796 -4013.199)">
    <ellipse id="Ellipse_70" data-name="Ellipse 70" cx="13.527" cy="13.527" rx="13.527" ry="13.527" transform="translate(770.796 4013.199)" fill="#fff"/>
    <path id="Union_12" data-name="Union 12" d="M17073,22256.775c.008-1.611,1.338-1.574,2.881-1.547.3.014.619.02.932.014h9.947c1.889,0,3.6-.338,3.578,1.533Zm1.295-2.439a7.281,7.281,0,0,1,5.977-7.275,12.386,12.386,0,0,1,2.9,0,4.312,4.312,0,0,0,.91.232,6.05,6.05,0,0,1,1.26.6,7.08,7.08,0,0,1,3.7,6.445Zm4.367-5.621a6.334,6.334,0,0,0-1.85,1.846,2.078,2.078,0,0,0-.508,1.494,1.208,1.208,0,0,0,.232.162.572.572,0,0,0,.395-.008c.395-.127.424-.613.594-.977a6.45,6.45,0,0,1,1.408-1.461c.428-.3,1.055-.328,1.064-1.059-.035-.041-.062-.113-.117-.191a.384.384,0,0,1-.162-.158.689.689,0,0,1-.275-.006c-.246.148-.535.188-.785.342Zm2.818-2.2v-.525h-.473a.476.476,0,0,1-.34-.811.48.48,0,0,1,.34-.139h1.707a.477.477,0,0,1,0,.953l-.479,0v.525Z" transform="translate(-16297.387 -18225.938)" fill="#192e58"/>
  </g>
</svg>
