<svg xmlns="http://www.w3.org/2000/svg" width="27.245" height="27.246" viewBox="0 0 27.245 27.246">
  <g id="Group_807" data-name="Group 807" transform="translate(-774 -4102)">
    <ellipse id="Ellipse_69" data-name="Ellipse 69" cx="13.623" cy="13.623" rx="13.623" ry="13.623" transform="translate(774 4102)" fill="#fff"/>
    <g id="Group_5766" data-name="Group 5766" transform="translate(780 4107)">
      <path id="Path_10253" data-name="Path 10253" d="M2.936,10.125V8.994c0-.136,0-.321.012-.474a.628.628,0,0,1,.675-.472.66.66,0,0,1,.692.479v1.6a.719.719,0,0,1-1.379,0Zm7.971-1.472V10.1a.7.7,0,0,1-.672.516.715.715,0,0,1-.695-.516c-.008-.1,0-.261,0-.378,0-.251-.007-.964,0-1.066a.7.7,0,0,1,.695-.518A.67.67,0,0,1,10.908,8.653Zm2.676,1.5v6.6a5.222,5.222,0,0,1,0,.641c-.08.007-.262-.053-.447-.071a3.814,3.814,0,0,0-.432,0,2.431,2.431,0,0,1,0-.486V12.787a.046.046,0,0,1-.042,0c-.036-.029-.149-.014-.222-.014H9.695c-2.839,0-8.54,0-8.557.015a2.3,2.3,0,0,0,0,.362V14.1c0,1.244,0,2.5,0,3.722.349,0,.4.012.566,0h1.27a2.178,2.178,0,0,1,1.175.385A1.761,1.761,0,0,1,4.5,19.379a1.2,1.2,0,0,1,0,.378v1.394c.014.017,4.441.057,4.459.056a1.865,1.865,0,0,0,0,.4,3.187,3.187,0,0,0,.085.436H4.665c-.011-.007-.159-.005-.558-.4S.474,18.022.4,17.913a1.145,1.145,0,0,1-.111-.207,1.874,1.874,0,0,1,0-.378V10.193h0A1.834,1.834,0,0,1,.648,9.1c.322-.339,1-.356,1.828-.356v1.3a1.219,1.219,0,0,0,1.147,1.067A1.136,1.136,0,0,0,4.776,10.1V9.133l4.306.042v.878a1.18,1.18,0,0,0,1.155,1.053,1.121,1.121,0,0,0,1.131-1.025h0V9.733a8.635,8.635,0,0,1,.026-.976.224.224,0,0,1,.084-.014c.031.024.114.014.167.014h.432a2.013,2.013,0,0,1,1.139.365,1.66,1.66,0,0,1,.367,1.035ZM2.039,18.71A18.854,18.854,0,0,0,3.605,20.23c.023-.016.008-1.015.007-1.139a.418.418,0,0,0-.093-.289.514.514,0,0,0-.366-.08C3.07,18.727,2.125,18.7,2.039,18.71Zm9.984,1.033c.048.044.7.936.71.93a1.658,1.658,0,0,0,.223-.233,4.031,4.031,0,0,1,.293-.285.485.485,0,0,1,.153-.079.3.3,0,0,1,.307.066.258.258,0,0,1,.083.312c0,.013-.041.066-.042.056a2.022,2.022,0,0,1-.223.279l-.439.46s-.128.128-.188.181a.379.379,0,0,1-.209.1c-.135.007-.175-.084-.21-.1,0,0-1.017-1.316-1.017-1.338a.339.339,0,0,1,.145-.376.361.361,0,0,1,.413.028Z" transform="translate(-0.278 -8.045)" fill="#192e58" fill-rule="evenodd"/>
      <g id="Ellipse_619" data-name="Ellipse 619" transform="translate(8.936 9.547)" fill="none" stroke="#192e58" stroke-width="2">
        <ellipse cx="3.427" cy="3.427" rx="3.427" ry="3.427" stroke="none"/>
        <ellipse cx="3.427" cy="3.427" rx="2.427" ry="2.427" fill="none"/>
      </g>
      <path id="Union_12" data-name="Union 12" d="M17073,22248.471c0-.473.393-.463.846-.451.09,0,.184,0,.275,0h2.922c.555,0,1.057-.1,1.053.451Zm.379-.715a2.142,2.142,0,0,1,1.758-2.139,3.467,3.467,0,0,1,.854,0c.072.047.184.037.268.07a1.822,1.822,0,0,1,.371.172,2.085,2.085,0,0,1,1.086,1.895Zm1.285-1.654a1.828,1.828,0,0,0-.543.545.6.6,0,0,0-.15.438c.021.018.043.033.066.049a.193.193,0,0,0,.115,0c.119-.039.127-.184.178-.289a1.954,1.954,0,0,1,.414-.428c.125-.09.309-.1.313-.312-.012-.012-.018-.033-.035-.057a.129.129,0,0,1-.047-.045.219.219,0,0,1-.08,0c-.074.049-.158.061-.23.105Zm.828-.646v-.154h-.139a.136.136,0,0,1-.127-.068.134.134,0,0,1,0-.143.14.14,0,0,1,.127-.068h.5a.142.142,0,0,1,.127.068.134.134,0,0,1,0,.143.138.138,0,0,1-.127.068h-.137v.154Z" transform="translate(-17068.414 -22238.922)" fill="#727272"/>
    </g>
  </g>
</svg>
