<svg width="19" height="18" viewBox="0 0 19 18" fill="none" xmlns="http://www.w3.org/2000/svg">
<path d="M9.78955 11.25C10.3863 11.25 10.9586 11.0129 11.3805 10.591C11.8025 10.169 12.0396 9.59674 12.0396 9C12.0396 8.40326 11.8025 7.83097 11.3805 7.40901C10.9586 6.98705 10.3863 6.75 9.78955 6.75C9.19281 6.75 8.62052 6.98705 8.19856 7.40901C7.7766 7.83097 7.53955 8.40326 7.53955 9C7.53955 9.59674 7.7766 10.169 8.19856 10.591C8.62052 11.0129 9.19281 11.25 9.78955 11.25Z" fill="#FF0000"/>
<path fill-rule="evenodd" clip-rule="evenodd" d="M10.4647 1.1243C12.2647 1.2368 13.9522 2.1368 15.1897 3.3743C16.6522 4.9493 17.4397 6.8618 17.4397 9.1118C17.4397 10.9118 16.7647 12.5993 15.6397 14.0618C14.5147 15.4118 12.9397 16.4243 11.1397 16.7618C9.33975 17.0993 7.53975 16.8743 5.96475 15.9743C4.38975 15.0743 3.15225 13.7243 2.47725 12.0368C1.80225 10.3493 1.68975 8.4368 2.25225 6.7493C2.81475 4.9493 3.82725 3.4868 5.40225 2.4743C6.86475 1.4618 8.66475 1.0118 10.4647 1.1243ZM11.0272 15.6368C12.4897 15.2993 13.8397 14.5118 14.8522 13.2743C15.7522 12.0368 16.3147 10.5743 16.2022 8.9993C16.2022 7.1993 15.5272 5.3993 14.2897 4.1618C13.1647 3.0368 11.8147 2.3618 10.2397 2.2493C8.77725 2.1368 7.20225 2.4743 5.96475 3.3743C4.72725 4.2743 3.82725 5.5118 3.37725 7.0868C2.92725 8.5493 2.92725 10.1243 3.60225 11.5868C4.27725 13.0493 5.28975 14.1743 6.63975 14.9618C7.98975 15.7493 9.56475 15.9743 11.0272 15.6368Z" fill="#FF0000"/>
</svg>
