<svg xmlns="http://www.w3.org/2000/svg" xmlns:xlink="http://www.w3.org/1999/xlink" width="78.105" height="87.518" viewBox="0 0 78.105 87.518">
  <defs>
    <linearGradient id="linear-gradient" x1="0.5" x2="0.5" y2="1" gradientUnits="objectBoundingBox">
      <stop offset="0" stop-color="#f0bb8c"/>
      <stop offset="1" stop-color="#f27d68"/>
    </linearGradient>
  </defs>
  <path id="Path_10252" data-name="Path 10252" d="M45.608,9.259H53.89c1.338,0,4.9.064,4.9,0,.131,0,5.421.9,8.149,3.958,2.539,2.844,2.532,8.3,2.532,8.414.14,0,.114.909.114,1.363.14,0,.1,26.767,0,26.925a3.239,3.239,0,0,1-3.295,2.965,3.466,3.466,0,0,1-3.749-2.965c0-.531-.114-26.687-.114-27.039.035,0,.192-3.046-1-4.606s-3.779-1.632-3.779-1.632-2.756-.114-3.863-.114H45.608s.055,3.572-.568,4.874A9.6,9.6,0,0,1,35.529,28.4c-7.8,0-10.155-7.864-10.155-8.015a11.326,11.326,0,0,1-.443-3.851h-10.8c0,.075-3.456-.546-5.06.965-1.356,1.277-.885,4.716-.95,4.716V72.073c.05,1.04-.274,5.156,1.931,6.93,2.244,1.8,6.953,1.455,7.636,1.455H28.263c2.033,0,4.1-.011,5.93-.011v.011c.172.065,3.184.6,3.235,3.486a3.576,3.576,0,0,1-3.01,3.529s-3.38-.051-4.613-.051c-3.862,0-16.482.051-16.482.051s-6.918.1-8.955-1.426-3.42-2.7-3.42-7.269,0-8.691,0-13.169V22.21c0-.157-.272-7.226,2.672-10.311C6.3,9.092,14.127,9.462,14.127,9.462s7.915-.2,10.691-.2c.09-1.338.114-5.226.114-5.226a3.635,3.635,0,0,1,.541-2.322,3.264,3.264,0,0,1,2.089-.695S39.538.954,42.3.954a4.309,4.309,0,0,1,2.511.585,3.147,3.147,0,0,1,.8,2.181ZM32.2,8.123c.064.114.064,9.986,0,11.122A2.952,2.952,0,0,0,35.324,21.4a2.863,2.863,0,0,0,3.116-2.159V8.123ZM24.59,40.5c0,4.695-8.975,4.62-8.975,0S24.59,35.807,24.59,40.5Zm8.85-2.572c4.207,0,18.191-.055,18.191-.055A3.617,3.617,0,0,1,54.7,41.435a3.2,3.2,0,0,1-3.065,3.383c-3.278.082-13.853.114-18.261.114a3.857,3.857,0,0,1-2.624-3.647A3.37,3.37,0,0,1,33.441,37.929ZM24.59,54.691c.055,4.012-8.435,4.631-8.435,0S24.525,49.9,24.59,54.691Zm27.443,3.592c-4.142.36-14.554.338-18.664.173-.454-.018-3.351-1.2-3.326-3.765a3.564,3.564,0,0,1,3.4-3.522H51.732c0,.018,2.853.882,2.965,3.522A3.451,3.451,0,0,1,52.034,58.283ZM58.7,86.352l-.259.263s-1.985,2.011-4.2,1.841-4.669-2.523-4.669-2.523c-.076,0-10.725-10.044-11.134-10.452-.477-.477-1-.9-1.472-1.45-.147-.169-2.3-2.637,0-4.781s4.781-.024,4.98.134c.758.6,1.4,1.425,2.058,2.018.151.114,8.558,8.282,8.646,8.509.178,0,.341.227.341.227s1.087.076,1.477.114c.36-.093.538-.363.9-.454a2.56,2.56,0,0,1,.454-.8c.076-.038,17-23.328,17.041-23.506.037,0,2.531-1.885,4.782.1a3.458,3.458,0,0,1,1.045,4.311C78.652,59.911,58.7,86.352,58.7,86.352Z" transform="translate(-0.941 -0.948)" fill-rule="evenodd" fill="url(#linear-gradient)"/>
</svg>
