<svg xmlns="http://www.w3.org/2000/svg" width="10.324" height="10.324" viewBox="0 0 10.324 10.324">
  <path id="Path_10043" data-name="Path 10043" d="M8.162,3a5.162,5.162,0,1,0,5.162,5.162A5.162,5.162,0,0,0,8.162,3Zm0,9.53A4.368,4.368,0,1,1,12.53,8.162,4.368,4.368,0,0,1,8.162,12.53Zm3.463-4.116-.794.794a.4.4,0,0,1-.561,0l-.794-.794a.4.4,0,1,1,.562-.562l.089.089A1.975,1.975,0,1,0,9.2,9.855a.4.4,0,0,1,.416.675,2.78,2.78,0,1,1,1.318-2.548l.131-.131a.4.4,0,1,1,.562.562Z" transform="translate(-3 -3)" fill="#fff"/>
</svg>
