<svg xmlns="http://www.w3.org/2000/svg" width="29.008" height="29.007" viewBox="0 0 29.008 29.007">
  <path id="shutter" d="M17.121,25.962,9.656,13.572a14.49,14.49,0,0,0-1.835,12.39Zm3.137-10.434H34.809A14.555,14.555,0,0,0,24.946,7.55Zm-4.671,4.49L23.094,7.244c-.466-.046-.938-.07-1.416-.07A14.469,14.469,0,0,0,10.808,12.09Zm3.024,15.706,4.593-8.01H8.5a14.551,14.551,0,0,0,10.457,8.206Zm7.6-18.444L33.543,30A14.463,14.463,0,0,0,35.5,17.281H26.212Zm1.494,6.1L20.4,36.122c.42.037.845.059,1.274.059A14.467,14.467,0,0,0,32.366,31.47Z" transform="translate(-7.174 -7.174)" fill="#fff"/>
</svg>
