<svg id="Group_4874" data-name="Group 4874" xmlns="http://www.w3.org/2000/svg" width="56" height="56" viewBox="0 0 56 56">
  <path id="Path_9885" data-name="Path 9885" d="M0,0H56V56H0Z" fill="none"/>
  <path id="Path_9886" data-name="Path 9886" d="M12.23,9.24,3.69,17.78l8.517,8.54,8.54-8.54Z" transform="translate(4.92 12.32)" fill="#fff" opacity="0.3"/>
  <path id="Path_9887" data-name="Path 9887" d="M15.98,13.943.86,29.087,16,44.207l15.143-15.12Zm0,23.683-8.517-8.54L16,20.547l8.517,8.54ZM44.027,14.48a20.881,20.881,0,0,0-14.84-6.16V.76l-9.893,9.893,9.893,9.893v-7.56A16.333,16.333,0,1,1,22.56,44.23l-3.477,3.477A20.983,20.983,0,0,0,44.027,14.48Z" transform="translate(1.147 1.013)" fill="#fff"/>
</svg>
