<svg xmlns="http://www.w3.org/2000/svg" width="18" height="18" viewBox="0 0 18 18">
  <path id="Path_196" data-name="Path 196" d="M18.636,10.62a6.543,6.543,0,0,1,1.718.712L22.5,9.776l1.72,1.72-1.557,2.15a6.549,6.549,0,0,1,.712,1.718l2.62.419v2.433l-2.62.419a6.543,6.543,0,0,1-.712,1.718l1.557,2.15-1.72,1.72-2.15-1.557a6.548,6.548,0,0,1-1.718.712L18.217,26H15.783l-.419-2.62a6.543,6.543,0,0,1-1.718-.712L11.5,24.224,9.776,22.5l1.557-2.15a6.549,6.549,0,0,1-.712-1.718L8,18.217V15.783l2.62-.419a6.545,6.545,0,0,1,.712-1.718L9.776,11.5l1.72-1.72,2.15,1.557a6.545,6.545,0,0,1,1.718-.712L15.783,8h2.433l.419,2.62ZM17,12.612A4.388,4.388,0,1,0,21.388,17,4.388,4.388,0,0,0,17,12.612ZM14.37,17.3,16.1,19.028a.646.646,0,0,0,.913,0c1.239-1.239,1.444-1.472,2.677-2.717a.644.644,0,0,0-.913-.908l-2.222,2.254-1.272-1.272a.646.646,0,0,0-.913.913Z" transform="translate(-8 -8)" fill="#19b829" fill-rule="evenodd"/>
</svg>
