<?xml version="1.0" encoding="utf-8" standalone="yes"?> <svg width="1000" height="1000" viewBox="-1 -1 23 23" xmlns="http://www.w3.org/2000/svg" shape-rendering="crispEdges" id="qr code"><rect id="qr background" fill-opacity="1" fill="rgb(255, 255, 255)" x="-1" y="-1" width="23" height="23"></rect><path fill-opacity="1" fill="rgb(0, 0, 0)" id="qr dark pixels" fill-rule="evenodd" d="M 10 0 L 11 0 L 11 2 L 12 2 L 12 3 L 10 3 z M 12 0 L 13 0 L 13 2 L 12 2 z M 8 1 L 9 1 L 9 3 L 8 3 z M 12 3 L 13 3 L 13 5 L 12 5 z M 8 4 L 11 4 L 11 7 L 10 7 L 10 6 L 9 6 L 9 8 L 8 8 z M 12 6 L 13 6 L 13 7 L 12 7 z M 0 8 L 2 8 L 2 9 L 3 9 L 3 8 L 4 8 L 4 9 L 5 9 L 5 11 L 6 11 L 6 12 L 5 12 L 5 13 L 4 13 L 4 10 L 3 10 L 3 12 L 2 12 L 2 13 L 0 13 L 0 12 L 1 12 L 1 9 L 0 9 z M 6 8 L 8 8 L 8 9 L 9 9 L 9 10 L 8 10 L 8 12 L 7 12 L 7 11 L 6 11 L 6 10 L 7 10 L 7 9 L 6 9 z M 10 8 L 11 8 L 11 9 L 12 9 L 12 8 L 13 8 L 13 9 L 14 9 L 14 10 L 13 10 L 13 11 L 10 11 L 10 12 L 9 12 L 9 10 L 10 10 z M 14 8 L 17 8 L 17 9 L 14 9 z M 18 8 L 20 8 L 20 9 L 21 9 L 21 11 L 20 11 L 20 10 L 19 10 L 19 9 L 18 9 z M 17 9 L 18 9 L 18 10 L 19 10 L 19 11 L 18 11 L 18 12 L 17 12 z M 14 10 L 16 10 L 16 12 L 15 12 L 15 13 L 13 13 L 13 15 L 14 15 L 14 17 L 15 17 L 15 16 L 16 16 L 16 17 L 17 17 L 17 20 L 16 20 L 16 21 L 14 21 L 14 20 L 15 20 L 15 19 L 14 19 L 14 18 L 13 18 L 13 19 L 14 19 L 14 20 L 13 20 L 13 21 L 10 21 L 10 20 L 12 20 L 12 19 L 11 19 L 11 18 L 12 18 L 12 17 L 13 17 L 13 16 L 12 16 L 12 14 L 10 14 L 10 15 L 11 15 L 11 16 L 12 16 L 12 17 L 11 17 L 11 18 L 10 18 L 10 16 L 9 16 L 9 15 L 8 15 L 8 13 L 10 13 L 10 12 L 14 12 z M 6 12 L 7 12 L 7 13 L 6 13 z M 16 12 L 17 12 L 17 13 L 16 13 z M 20 12 L 21 12 L 21 13 L 20 13 z M 15 13 L 16 13 L 16 14 L 15 14 z M 18 13 L 20 13 L 20 15 L 21 15 L 21 16 L 19 16 L 19 15 L 18 15 z M 14 14 L 15 14 L 15 15 L 14 15 z M 16 14 L 17 14 L 17 15 L 16 15 z M 17 16 L 18 16 L 18 17 L 17 17 z M 8 17 L 9 17 L 9 18 L 8 18 z M 19 17 L 21 17 L 21 19 L 20 19 L 20 18 L 19 18 z M 9 18 L 10 18 L 10 19 L 9 19 z M 18 18 L 19 18 L 19 19 L 18 19 z M 8 19 L 9 19 L 9 21 L 8 21 z M 17 20 L 18 20 L 18 21 L 17 21 z M 19 20 L 20 20 L 20 21 L 19 21 z"></path><path id="qr squares" d="M0,0h7h0v0v7v0h0h-7h0v0v-7v0h0zM1,1h5h0v0v5v0h0h-5h0v0v-5v0h0zM2,2h3h0v0v3v0h0h-3h0v0v-3v0h0z M14,0h7h0v0v7v0h0h-7h0v0v-7v0h0zM15,1h5h0v0v5v0h0h-5h0v0v-5v0h0zM16,2h3h0v0v3v0h0h-3h0v0v-3v0h0z M0,14h7h0v0v7v0h0h-7h0v0v-7v0h0zM1,15h5h0v0v5v0h0h-5h0v0v-5v0h0zM2,16h3h0v0v3v0h0h-3h0v0v-3v0h0z" fill-rule="evenodd" fill-opacity="1" fill="rgb(0, 0, 0)"></path></svg>