<svg xmlns="http://www.w3.org/2000/svg" width="15.185" height="15.185" viewBox="0 0 15.185 15.185">
  <g id="Layer_2" data-name="Layer 2" transform="translate(-2 -2)">
    <path id="Path_9893" data-name="Path 9893" d="M8.833,17.68h2.278V16.162H9.592V14.446a5.968,5.968,0,0,0,5.816-1.579.759.759,0,0,0,0-1.071L7.892,4.28a.759.759,0,0,0-1.071,0,6.074,6.074,0,0,0-.911,7.4,2.133,2.133,0,0,0-.068.342L3.663,16.162H2V17.68ZM7.315,12.366v-.084a.683.683,0,0,1,.091-.311.759.759,0,1,1,1.139.957L8.438,13a.722.722,0,0,1-1.124-.638ZM7.4,5.92l6.355,6.355a4.5,4.5,0,0,1-3.508.759q0-.068,0-.137v-.121a2.278,2.278,0,0,0,.106-.41,2.265,2.265,0,0,0-3.409-1.974A4.555,4.555,0,0,1,7.4,5.928Zm-.9,8.093c.053.046.114.091.167.129l.144.114a2.278,2.278,0,0,0,.228.121l.159.084a2.277,2.277,0,0,0,.273.084l.144.046a2.278,2.278,0,0,0,.456.053v1.518h-2.7ZM13.388,8.57h1.518a3.8,3.8,0,0,0-3.8-3.8V6.292A2.278,2.278,0,0,1,13.388,8.57Z" transform="translate(0 -0.496)" fill="#888"/>
    <path id="Path_9894" data-name="Path 9894" d="M14,2V3.518a4.555,4.555,0,0,1,4.555,4.555h1.518A6.074,6.074,0,0,0,14,2Z" transform="translate(-2.889)" fill="#888"/>
  </g>
</svg>
