<svg xmlns="http://www.w3.org/2000/svg" width="53.544" height="77.828" viewBox="0 0 53.544 77.828">
  <g id="Group_129" data-name="Group 129" transform="translate(-9.99)">
    <path id="Path_2981" data-name="Path 2981" d="M9.99,72.9V9.941A3.555,3.555,0,0,1,13.541,6.39H59.983a3.555,3.555,0,0,1,3.551,3.551V72.9a3.555,3.555,0,0,1-3.551,3.551H13.529A3.545,3.545,0,0,1,9.99,72.9Z" transform="translate(0 1.381)" fill="#5e5e61"/>
    <path id="Path_2982" data-name="Path 2982" d="M58.81,9.77V63.459l-8.367,8.354H13.28V9.77Z" transform="translate(0.711 2.111)" fill="#f9f9f9"/>
    <path id="Path_2983" data-name="Path 2983" d="M52.207,53.92,43.84,62.274V53.92Z" transform="translate(7.314 11.65)" fill="#e1e2e0"/>
    <path id="Path_2984" data-name="Path 2984" d="M38.818,4.536a4.7,4.7,0,0,0-9.388,0H23.921A1.752,1.752,0,0,0,22.17,6.287V12.9a1.752,1.752,0,0,0,1.751,1.751H44.327A1.752,1.752,0,0,0,46.078,12.9V6.287a1.752,1.752,0,0,0-1.751-1.751ZM33.479,7.248a2.613,2.613,0,1,1,3.259-2.529A2.628,2.628,0,0,1,33.479,7.248Z" transform="translate(2.632)" fill="#67c1e8"/>
    <rect id="Rectangle_2827" data-name="Rectangle 2827" width="17.791" height="2.019" transform="translate(16.788 18.363)" fill="#e1e2e0"/>
    <rect id="Rectangle_2828" data-name="Rectangle 2828" width="17.791" height="2.019" transform="translate(16.788 23.045)" fill="#e1e2e0"/>
    <rect id="Rectangle_2829" data-name="Rectangle 2829" width="17.791" height="2.019" transform="translate(16.788 27.739)" fill="#e1e2e0"/>
    <rect id="Rectangle_2830" data-name="Rectangle 2830" width="17.791" height="2.019" transform="translate(16.788 32.42)" fill="#e1e2e0"/>
    <rect id="Rectangle_2831" data-name="Rectangle 2831" width="39.936" height="2.019" transform="translate(16.788 37.102)" fill="#e1e2e0"/>
    <rect id="Rectangle_2832" data-name="Rectangle 2832" width="39.936" height="2.019" transform="translate(16.788 41.796)" fill="#e1e2e0"/>
    <rect id="Rectangle_2833" data-name="Rectangle 2833" width="39.936" height="2.019" transform="translate(16.788 46.478)" fill="#e1e2e0"/>
    <rect id="Rectangle_2834" data-name="Rectangle 2834" width="39.936" height="2.019" transform="translate(16.788 51.16)" fill="#e1e2e0"/>
    <rect id="Rectangle_2835" data-name="Rectangle 2835" width="3.32" height="8.792" transform="translate(37.193 25.647)" fill="#a488b7"/>
    <rect id="Rectangle_2836" data-name="Rectangle 2836" width="3.32" height="12.149" transform="translate(42.301 22.278)" fill="#7ca3c2"/>
    <rect id="Rectangle_2837" data-name="Rectangle 2837" width="3.32" height="16.076" transform="translate(47.408 18.363)" fill="#da4765"/>
    <rect id="Rectangle_2838" data-name="Rectangle 2838" width="3.32" height="10.47" transform="translate(52.516 23.969)" fill="#59cbef"/>
    <path id="Path_2985" data-name="Path 2985" d="M32.148,52.573A7.447,7.447,0,0,1,19.44,57.839l5.266-5.266,5.253-5.253A7.4,7.4,0,0,1,32.148,52.573Z" transform="translate(2.042 10.224)" fill="#a488b7"/>
    <path id="Path_2986" data-name="Path 2986" d="M25.092,45.52v7.442l-5.266,5.266A7.447,7.447,0,0,1,25.092,45.52Z" transform="translate(1.655 9.835)" fill="#ed9155"/>
    <path id="Path_2987" data-name="Path 2987" d="M29.023,47.709,23.77,52.962V45.52A7.377,7.377,0,0,1,29.023,47.709Z" transform="translate(2.977 9.835)" fill="#da4765"/>
  </g>
</svg>
