<svg xmlns="http://www.w3.org/2000/svg" width="13.532" height="13.532" viewBox="0 0 13.532 13.532">
  <path id="Path_3557" data-name="Path 3557" d="M16.314,7.729,11.8,3.218a.752.752,0,0,0-.241-.158A.819.819,0,0,0,11.27,3H5.255A2.255,2.255,0,0,0,3,5.255v9.021a2.255,2.255,0,0,0,2.255,2.255h9.021a2.255,2.255,0,0,0,2.255-2.255V8.262A.752.752,0,0,0,16.314,7.729ZM7.511,4.5h3.007v1.5H7.511Zm4.511,10.525H7.511V12.773a.752.752,0,0,1,.752-.752H11.27a.752.752,0,0,1,.752.752Zm3.007-.752a.752.752,0,0,1-.752.752h-.752V12.773a2.255,2.255,0,0,0-2.255-2.255H8.262a2.255,2.255,0,0,0-2.255,2.255v2.255H5.255a.752.752,0,0,1-.752-.752V5.255A.752.752,0,0,1,5.255,4.5h.752V6.759a.752.752,0,0,0,.752.752H11.27a.752.752,0,0,0,.752-.752v-1.2l3.007,3.007Z" transform="translate(-3 -3)" fill="#fff"/>
</svg>
