<svg xmlns="http://www.w3.org/2000/svg" width="11.855" height="11.855" viewBox="0 0 11.855 11.855">
  <path id="save" d="M14.664,7.143,10.713,3.191a.659.659,0,0,0-.211-.138A.718.718,0,0,0,10.245,3H4.976A1.976,1.976,0,0,0,3,4.976v7.9a1.976,1.976,0,0,0,1.976,1.976h7.9a1.976,1.976,0,0,0,1.976-1.976V7.61A.659.659,0,0,0,14.664,7.143ZM6.952,4.317H9.586V5.635H6.952ZM10.9,13.538H6.952V11.562A.659.659,0,0,1,7.61,10.9h2.635a.659.659,0,0,1,.659.659Zm2.635-.659a.659.659,0,0,1-.659.659h-.659V11.562a1.976,1.976,0,0,0-1.976-1.976H7.61a1.976,1.976,0,0,0-1.976,1.976v1.976H4.976a.659.659,0,0,1-.659-.659v-7.9a.659.659,0,0,1,.659-.659h.659V6.293a.659.659,0,0,0,.659.659h3.952a.659.659,0,0,0,.659-.659V5.246l2.635,2.635Z" transform="translate(-3 -3)" fill="#3693ff"/>
</svg>
