<svg xmlns="http://www.w3.org/2000/svg" width="490.122" height="523.618" viewBox="0 0 490.122 523.618">
  <path id="Path_3285" data-name="Path 3285" d="M152.775.985C164.943.6,170.594,3.669,177.583,8.047c1.24.413,2.481,1.827,3.722,2.24,4,2.555,8.431,4.577,12.4,7.063.827.207,1.654,1.413,2.481,1.62,2.006,1.11,4.282,2.517,6.2,3.341,1.24.413,2.481,1.827,3.721,2.24,22.225,13.842,45.984,26.47,68.223,40.312,11.441,7.123,32.136,18.205,35.351,25.429,3.449,7.749,2.544,39.626,2.481,55.2-24,13.85-48.378,27.7-72.564,41.554V132.606a3.556,3.556,0,0,0-.475-1.975,11.2,11.2,0,0,0-3.246-2.986c-.785-.566-36.867-22.885-47.136-29.289-2.553-1.592-5.5-3.133-8.063-4.721-5.843-3.626-17.057-11.444-24.808-12.024a16.563,16.563,0,0,0-9.306,2.7c-2.563,1.589-67.053,40.307-68.219,41.332-1.642,1.121-3.529,3.094-3.721,4.962,0,19.845-2.232,65.371-2.232,85.031,0,5,2.7,7.426,3.472,8,11.327,8.429,65.447,39.439,69.463,41.933,1.174.653,2.086,1.384,3.266,2.1,2.392,1.484,4.187,1.857,7.9,1.857,3.166,0,9.325-3.031,11.587-4.449C170.629,263.488,319.1,176.3,328.913,173.4c10.255-3.036,20.283,3.192,26.048,6.822.827.207,109.776,62.847,111.016,63.26,6.769,4.2,15.328,8.4,19.846,14.885,6.275,9.013,5.024,25.5,4.962,40.933V415.278c0,4.539.611,10.013-.62,13.644-3.724,10.986-10.83,16.1-19.846,21.707-1.24.414-97.518,55.954-98.768,56.757-10.089,6.755-22.817,17.184-36.428,17.184-11.577,0-16.967-5.239-21.1-7.82-4.617-2.885-9.577-5.727-14.265-8.442-27.4-15.871-57.749-30.876-84.589-47.592-11.456-7.134-27.356-13.7-33.249-26.212-4.81-10.778-2.539-39.184-2.481-55.2,24.186-13.85,48.562-27.7,72.564-41.553v56.438a4.679,4.679,0,0,0,.589,2.412,11.7,11.7,0,0,0,3.132,2.549c.827.207,50.866,31.029,53.425,32.617,5.843,3.626,18.83,11.2,26.58,11.418a15.332,15.332,0,0,0,7.976-2.465c2.564-1.589,68.309-41.156,69.549-41.57a6.675,6.675,0,0,0,3.721-4.962c0-19.66.8-91.963-1.24-93.03-1.886-2.914-71.777-42.536-73.017-42.949-2.392-1.484-4.241-2.939-8.139-2.939-3.47,0-8.615,3.186-11,4.539-2.908,1.572-5.032,2.763-7.584,4.354-8.128,5.064-126.3,73.639-127.518,74.441-9.7,6.02-26.273,18.469-42.529,11.55a108.471,108.471,0,0,1-13.4-7.442c-2.555-1.591-74.8-41.734-91.78-52.408-13.179-8.194-30.758-14.7-37.083-29.458C.476,253.355.826,240.115.826,229.838V116.962C.889,104.837.6,96.467,5.168,89.192c2.594-4.128,7.63-7.96,11.784-10.543,1.24-.414,2.481-1.827,3.721-2.24,6.447-4,13.419-8.4,19.846-12.4,1.282-.8,2.336-1.325,3.721-2.24,25.1-15.568,51.831-29.682,76.9-45.275,2.557-1.59,5.506-3.132,8.063-4.721a126.178,126.178,0,0,1,14.885-8.3C146.381,2.451,150.13,1.068,152.775.985Z" transform="translate(-0.815 -0.953)" fill="#0d9eff" fill-rule="evenodd"/>
</svg>
