<svg width="14" height="14" viewBox="0 0 14 14" fill="none" xmlns="http://www.w3.org/2000/svg">
<path d="M9.06647 1.51867C9.92735 2.35888 10.4662 3.46177 10.5928 4.64285C10.7194 5.82394 10.4261 7.01159 9.76204 8.00714C9.87796 8.10131 9.97457 8.2049 10.1098 8.29907C10.303 8.44975 10.5639 8.63809 10.8923 8.85469C11.2208 9.0807 11.4333 9.22196 11.5299 9.29729C11.9357 9.58923 12.2351 9.83408 12.438 10.0318C12.7472 10.3332 13.0177 10.644 13.2495 10.9736C13.491 11.3032 13.6746 11.6233 13.8195 11.953C13.9547 12.2826 14.0224 12.5933 13.9934 12.8947C13.9741 13.196 13.8581 13.4503 13.6456 13.6575C13.4331 13.8646 13.1722 13.9777 12.8631 13.9965C12.5636 14.0153 12.2351 13.9588 11.9067 13.8176C11.5686 13.6857 11.2304 13.4974 10.902 13.2619C10.5639 13.0359 10.2451 12.7722 9.93593 12.4709C9.73305 12.2731 9.48188 11.9812 9.19206 11.5951C9.09545 11.4727 8.95055 11.2655 8.73801 10.9736C8.52548 10.6722 8.35159 10.4368 8.19702 10.239C8.04245 10.0507 7.91686 9.90941 7.77195 9.76816C6.76923 10.28 5.6251 10.4665 4.50611 10.3005C3.38712 10.1345 2.35168 9.62467 1.55053 8.84527C-0.516842 6.82057 -0.516842 3.53396 1.55053 1.51867C2.04382 1.03723 2.62962 0.6553 3.27445 0.394714C3.91927 0.134128 4.61046 0 5.3085 0C6.00654 0 6.69773 0.134128 7.34255 0.394714C7.98737 0.6553 8.57318 1.03723 9.06647 1.51867ZM7.70433 7.50802C8.33544 6.88831 8.68961 6.05049 8.68961 5.17726C8.68961 4.30403 8.33544 3.46621 7.70433 2.8465C7.39067 2.53984 7.01802 2.29653 6.60773 2.13051C6.19743 1.9645 5.75756 1.87904 5.31333 1.87904C4.86909 1.87904 4.42923 1.9645 4.01893 2.13051C3.60864 2.29653 3.23599 2.53984 2.92233 2.8465C2.60774 3.15225 2.35815 3.51552 2.18784 3.91547C2.01753 4.31543 1.92987 4.74422 1.92987 5.17726C1.92987 5.6103 2.01753 6.03909 2.18784 6.43905C2.35815 6.83901 2.60774 7.20227 2.92233 7.50802C3.23599 7.81468 3.60864 8.058 4.01893 8.22401C4.42923 8.39003 4.86909 8.47548 5.31333 8.47548C5.75756 8.47548 6.19743 8.39003 6.60773 8.22401C7.01802 8.058 7.39067 7.81468 7.70433 7.50802Z" fill="black"/>
</svg>
