<svg width="18" height="18" viewBox="0 0 18 18" fill="none" xmlns="http://www.w3.org/2000/svg">
<path d="M12.1781 7.25449L12.1816 7.25098L11.5734 6.47227C11.5621 6.4577 11.548 6.44551 11.532 6.43639C11.516 6.42726 11.4983 6.42139 11.48 6.41911C11.4618 6.41682 11.4432 6.41817 11.4254 6.42306C11.4077 6.42796 11.391 6.43632 11.3765 6.44766L10.4906 7.13848L9.2513 5.55469C9.24001 5.54012 9.22595 5.52793 9.20993 5.51881C9.19392 5.50969 9.17626 5.50381 9.15797 5.50153C9.13968 5.49924 9.12112 5.50059 9.10335 5.50549C9.08559 5.51039 9.06896 5.51874 9.05443 5.53008L8.38822 6.05215C8.37365 6.06344 8.36146 6.0775 8.35234 6.09352C8.34321 6.10953 8.33734 6.12719 8.33506 6.14548C8.33277 6.16377 8.33412 6.18233 8.33901 6.2001C8.34391 6.21786 8.35227 6.23449 8.36361 6.24902L9.60286 7.83457L9.59935 7.83633L10.2076 8.61504C10.255 8.67656 10.3429 8.68711 10.4044 8.63965L11.2904 7.94883L12.4171 9.39024C12.4646 9.45176 12.5525 9.46231 12.614 9.41484L13.2802 8.89453C13.3417 8.84707 13.3523 8.75918 13.3048 8.69766L12.1781 7.25449ZM10.6874 1.96875C7.73607 1.96875 5.34368 4.36113 5.34368 7.3125C5.34368 8.54824 5.7638 9.68555 6.46693 10.5908L2.00911 15.0486C1.98294 15.0751 1.96826 15.1108 1.96826 15.148C1.96826 15.1851 1.98294 15.2208 2.00911 15.2473L2.75267 15.9908C2.80716 16.0453 2.89681 16.0453 2.9513 15.9908L7.40911 11.533C8.31439 12.2361 9.45169 12.6563 10.6874 12.6563C13.6388 12.6563 16.0312 10.2639 16.0312 7.3125C16.0312 4.36113 13.6388 1.96875 10.6874 1.96875ZM13.521 10.1461C12.7652 10.9037 11.7579 11.3203 10.6874 11.3203C9.61693 11.3203 8.6097 10.9037 7.85384 10.1461C7.09622 9.39024 6.67962 8.38301 6.67962 7.3125C6.67962 6.24199 7.09622 5.23477 7.85384 4.47891C8.6097 3.72129 9.61693 3.30469 10.6874 3.30469C11.7579 3.30469 12.7652 3.72129 13.521 4.47891C14.2786 5.23477 14.6952 6.24199 14.6952 7.3125C14.6952 8.38301 14.2786 9.39024 13.521 10.1461Z" fill="white"/>
</svg>
