<svg xmlns="http://www.w3.org/2000/svg" width="101.068" height="113.661" viewBox="0 0 101.068 113.661">
  <g id="Group_4950" data-name="Group 4950" transform="translate(-98.091 -73.236)">
    <path id="Path_9928" data-name="Path 9928" d="M273.615,140.167a101.837,101.837,0,0,1-49.947-14.375,101.745,101.745,0,0,1-49.936,14.375c-3.509,37.462,7.829,82.539,49.936,99.286,42.122-16.747,53.417-61.824,49.947-99.286Z" transform="translate(-75.043 -52.557)" fill="#409cb5"/>
    <path id="Path_9929" data-name="Path 9929" d="M285.144,176.292a77.923,77.923,0,0,1-38.218-11,77.853,77.853,0,0,1-38.21,11c-2.685,28.665,5.99,63.156,38.21,75.971C279.156,239.448,287.8,204.956,285.144,176.292Z" transform="translate(-98.3 -78.711)" fill="#1e4f5e"/>
    <path id="Path_9931" data-name="Path 9931" d="M294.06,238.26v-8.681a6.59,6.59,0,0,1,6.651-6.589h.724a6.587,6.587,0,0,1,6.651,6.589V232.5a.75.75,0,0,0,.74.744l3.5.016a.745.745,0,0,0,.748-.744v-2.456A11.463,11.463,0,0,0,301.6,218.6h-1.049a11.465,11.465,0,0,0-11.475,11.466v8.429Zm0,0" transform="translate(-151.811 -114.006)" fill="#ee781d"/>
    <path id="Path_9932" data-name="Path 9932" d="M305,300.839a3.316,3.316,0,0,0,3.308-3.308V278.715A3.316,3.316,0,0,0,305,275.407H277.685a3.316,3.316,0,0,0-3.308,3.308V297.53a3.316,3.316,0,0,0,3.308,3.308Zm0,0" transform="translate(-142.08 -151.623)" fill="#f9ae2b"/>
    <path id="Path_9933" data-name="Path 9933" d="M317.649,294.51a3.556,3.556,0,0,0-3.544,3.545,3.488,3.488,0,0,0,1.441,2.719v4.16a2.1,2.1,0,0,0,4.207,0v-4.16a3.5,3.5,0,0,0,1.441-2.719,3.556,3.556,0,0,0-3.544-3.545Zm0,0" transform="translate(-168.385 -164.271)" fill="#ee781d"/>
  </g>
</svg>
