<svg xmlns="http://www.w3.org/2000/svg" width="14" height="14" viewBox="0 0 14 14">
  <g id="send_vendor" transform="translate(14 14) rotate(180)">
    <path id="Path_3398" data-name="Path 3398" d="M0,0H14V14H0Z" fill="none"/>
    <path id="Path_3399" data-name="Path 3399" d="M2.817,13.365,13,9a.584.584,0,0,0,0-1.073L2.817,3.565a.579.579,0,0,0-.811.531L2,6.785a.58.58,0,0,0,.507.578l8.242,1.1-8.242,1.1A.59.59,0,0,0,2,10.145l.006,2.689A.579.579,0,0,0,2.817,13.365Z" transform="translate(-0.833 -1.465)" fill="#fff"/>
  </g>
</svg>
