<svg xmlns="http://www.w3.org/2000/svg" width="128" height="56" viewBox="0 0 128 56">
  <g id="Group_394" data-name="Group 394" transform="translate(-727 -698)">
    <g id="Rectangle_444" data-name="Rectangle 444" transform="translate(727 698)" fill="none" stroke="#9e9e9e" stroke-width="3">
      <rect width="128" height="56" rx="20" stroke="none"/>
      <rect x="1.5" y="1.5" width="125" height="53" rx="18.5" fill="none"/>
    </g>
    <path id="Path_314" data-name="Path 314" d="M-37.118-2.415q5.32,0,5.32-3.64a3.643,3.643,0,0,0-.472-1.907,4.571,4.571,0,0,0-1.278-1.365,8.874,8.874,0,0,0-1.838-1q-1.032-.42-2.187-.84a22.3,22.3,0,0,1-2.52-1.033,8.817,8.817,0,0,1-2.065-1.365,5.794,5.794,0,0,1-1.382-1.872,6.161,6.161,0,0,1-.507-2.625,6.08,6.08,0,0,1,2.17-4.97,9.155,9.155,0,0,1,5.985-1.785,15.8,15.8,0,0,1,4.008.473,9.16,9.16,0,0,1,2.642,1.033l-1.085,2.765a9.565,9.565,0,0,0-2.187-.892,11.746,11.746,0,0,0-3.378-.437,7.491,7.491,0,0,0-1.82.21,4.667,4.667,0,0,0-1.47.63,3.118,3.118,0,0,0-1,1.067,3.033,3.033,0,0,0-.368,1.523,3.238,3.238,0,0,0,.385,1.645,3.812,3.812,0,0,0,1.085,1.172,9.307,9.307,0,0,0,1.627.928q.927.42,2.048.84,1.575.63,2.888,1.26a9.4,9.4,0,0,1,2.277,1.5,6.031,6.031,0,0,1,1.488,2.082A7.311,7.311,0,0,1-28.227-6.1a5.721,5.721,0,0,1-2.328,4.9A10.9,10.9,0,0,1-37.118.525,16.832,16.832,0,0,1-39.76.333a19.668,19.668,0,0,1-2.153-.455,12.455,12.455,0,0,1-1.627-.56q-.682-.3-1.068-.508l1.015-2.8a15.321,15.321,0,0,0,2.45,1.015,12.59,12.59,0,0,0,4.025.56ZM-18.882.35q-3.01-.07-4.27-1.3a5.114,5.114,0,0,1-1.26-3.815V-26.6l3.255-.56V-5.285a5.276,5.276,0,0,0,.14,1.33,1.824,1.824,0,0,0,.455.84,1.958,1.958,0,0,0,.84.472,8.666,8.666,0,0,0,1.3.263Zm7.945-2.24a2.38,2.38,0,0,1-.63,1.645,2.191,2.191,0,0,1-1.715.7A2.191,2.191,0,0,1-15-.245a2.38,2.38,0,0,1-.63-1.645A2.38,2.38,0,0,1-15-3.535a2.191,2.191,0,0,1,1.715-.7,2.191,2.191,0,0,1,1.715.7,2.38,2.38,0,0,1,.633,1.645ZM10.658,0Q9.888-1.3,8.89-2.9T6.738-6.248Q5.582-7.98,4.34-9.765T1.872-13.213Q.647-14.875-.508-16.345t-2.135-2.59V0H-5.968V-24.255h2.695q1.645,1.75,3.517,4.078t3.71,4.8q1.837,2.468,3.465,4.848T10.168-6.3V-24.255h3.325V0Zm24.71-9.1a11.513,11.513,0,0,1-.63,3.92A8.965,8.965,0,0,1,32.97-2.17,7.775,7.775,0,0,1,30.257-.228a8.534,8.534,0,0,1-3.43.683A8.534,8.534,0,0,1,23.4-.228,7.775,7.775,0,0,1,20.685-2.17a8.965,8.965,0,0,1-1.767-3.01,11.513,11.513,0,0,1-.63-3.92,11.554,11.554,0,0,1,.63-3.9,8.933,8.933,0,0,1,1.767-3.028A7.775,7.775,0,0,1,23.4-17.973a8.534,8.534,0,0,1,3.43-.683,8.534,8.534,0,0,1,3.43.683,7.775,7.775,0,0,1,2.71,1.943A8.933,8.933,0,0,1,34.737-13a11.554,11.554,0,0,1,.631,3.9Zm-3.4,0a7.83,7.83,0,0,0-1.382-4.882,4.488,4.488,0,0,0-3.763-1.8,4.488,4.488,0,0,0-3.763,1.8A7.83,7.83,0,0,0,21.682-9.1a7.83,7.83,0,0,0,1.382,4.883,4.488,4.488,0,0,0,3.763,1.8,4.488,4.488,0,0,0,3.763-1.8A7.83,7.83,0,0,0,31.972-9.1ZM43.8-1.89a2.38,2.38,0,0,1-.63,1.645,2.191,2.191,0,0,1-1.715.7,2.191,2.191,0,0,1-1.715-.7,2.38,2.38,0,0,1-.63-1.645,2.38,2.38,0,0,1,.63-1.645,2.191,2.191,0,0,1,1.715-.7,2.191,2.191,0,0,1,1.715.7A2.38,2.38,0,0,1,43.8-1.89Z" transform="translate(791 738)" fill="#9e9e9e"/>
  </g>
</svg>
