<svg xmlns="http://www.w3.org/2000/svg" xmlns:xlink="http://www.w3.org/1999/xlink" width="192.464" height="73.881" viewBox="0 0 192.464 73.881">
  <defs>
    <linearGradient id="linear-gradient" x1="0.208" y1="0.13" x2="0.653" y2="0.865" gradientUnits="objectBoundingBox">
      <stop offset="0" stop-color="#66cad7"/>
      <stop offset="0.12" stop-color="#45b3da"/>
      <stop offset="0.18" stop-color="#37a9db"/>
      <stop offset="0.25" stop-color="#2da3dc"/>
      <stop offset="0.27" stop-color="#2798de"/>
      <stop offset="0.36" stop-color="#1473e8"/>
      <stop offset="0.43" stop-color="#095cee"/>
      <stop offset="0.48" stop-color="#0554f1"/>
      <stop offset="0.53" stop-color="#0e4ff0"/>
      <stop offset="0.63" stop-color="#2644ef"/>
      <stop offset="0.74" stop-color="#4e31ed"/>
      <stop offset="0.88" stop-color="#8518eb"/>
      <stop offset="1" stop-color="#ba00e9"/>
    </linearGradient>
  </defs>
  <g id="Serve_Icon_white" data-name="Serve Icon_white" transform="translate(0 0)">
    <path id="Path_11534" data-name="Path 11534" d="M9.044,73.88C4.058,73.88,0,70.351,0,66.01V52.6A9.833,9.833,0,0,1,5.679,44l14.028-7.062L5.7,29.889A9.846,9.846,0,0,1,0,21.278V7.87C0,3.532,4.055,0,9.044,0a10.073,10.073,0,0,1,4.562,1.079L43.584,16.222a9.842,9.842,0,0,1,5.691,8.606,9.836,9.836,0,0,1-5.679,8.6l-6.968,3.513,6.954,3.506a9.84,9.84,0,0,1,5.693,8.606,9.836,9.836,0,0,1-5.679,8.6L13.589,72.811a10.075,10.075,0,0,1-4.546,1.07h0ZM28.169,41.2,9.939,50.378A2.517,2.517,0,0,0,8.474,52.6V66.01a.579.579,0,0,0,.853.429L39.336,51.283a2.425,2.425,0,0,0-.012-4.463L28.171,41.2h0ZM9.044,7.373a.54.54,0,0,0-.573.5v13.4a2.529,2.529,0,0,0,1.482,2.234l18.213,9.169,11.167-5.627a2.424,2.424,0,0,0-.014-4.461L9.336,7.449a.609.609,0,0,0-.295-.075h0Z" fill="url(#linear-gradient)"/>
    <path id="Path_11535" data-name="Path 11535" d="M119.53,127.3l8.462,4.258,6.968-3.513-8.46-4.256Z" transform="translate(-91.364 -94.62)" fill="#24313a" opacity="0.5"/>
    <path id="Path_11536" data-name="Path 11536" d="M54.06,160.273l8.462,4.258,6.966-3.511-8.457-4.26Z" transform="translate(-41.321 -119.821)" fill="#24313a" opacity="0.5"/>
    <path id="Path_11537" data-name="Path 11537" d="M21.906-109.892c7.522,0,11.417-4.253,11.417-9.4,0-3.985-2.328-6.94-6.581-9.133l-4.209-2.149c-2.821-1.477-4.656-3-4.656-5.641,0-3.4,3.179-5.91,8.283-5.91a13.221,13.221,0,0,1,5.955,1.433v-2.642a13.812,13.812,0,0,0-6-1.254c-6.761,0-11.059,3.537-11.059,8.372,0,3.671,2.462,5.91,6.089,7.835l4.164,2.149c3.447,1.791,5.283,4.074,5.283,7.029,0,3.761-3.044,6.805-8.82,6.805a13.637,13.637,0,0,1-7.522-2.194v2.642a14.179,14.179,0,0,0,7.656,2.058Zm40.25-13.745c0-6.805-4.343-11.82-11.238-11.82-6.85,0-12.133,5.283-12.133,12.536,0,7.969,5.194,13.029,13.655,13.029a17.374,17.374,0,0,0,8.551-2.015l-.045-2.462a16.554,16.554,0,0,1-8.328,2.06c-6.805,0-10.924-3.627-11.282-9.805H62.021a7.7,7.7,0,0,0,.135-1.523Zm-11.327-9.536c5.552,0,8.641,3.806,8.82,8.91H41.426C41.964-129.636,45.859-133.173,50.829-133.173Zm28.654-2.283a8.969,8.969,0,0,0-8.6,5.776v-5.194H68.334v24.356H71.02V-123.95c0-5.641,3.492-8.954,8.1-8.954a8.49,8.49,0,0,1,3.9.851v-2.731a8.451,8.451,0,0,0-3.538-.673Zm27.758.582-8.82,20.013L89.6-134.875H86.69l11.417,24.938h.582l11.417-24.938Zm27.8,11.238c0-6.805-4.343-11.82-11.238-11.82-6.85,0-12.133,5.283-12.133,12.536,0,7.969,5.194,13.029,13.655,13.029a17.374,17.374,0,0,0,8.551-2.015l-.045-2.462a16.554,16.554,0,0,1-8.328,2.06c-6.805,0-10.924-3.627-11.282-9.8H134.91a7.7,7.7,0,0,0,.134-1.524Zm-11.327-9.536c5.552,0,8.641,3.806,8.82,8.91H114.315c.537-5.374,4.432-8.911,9.4-8.911Z" transform="translate(51.232 151.898)"/>
    <path id="Path_11538" data-name="Path 11538" d="M3.149-36.284,2.689-34.8H5.611l-.458-1.483q-.268-.816-.506-1.629t-.475-1.651h-.06q-.223.845-.46,1.651T3.149-36.284ZM.183-30.842l3.292-9.728H4.869l3.292,9.728H6.841l-.919-2.966H2.377l-.939,2.966Zm19.175.177a3.92,3.92,0,0,1-1.96-.452,3.621,3.621,0,0,1-1.327-1.372l1.72-1.291a2,2,0,0,0,.579.689,1.109,1.109,0,0,0,.638.23.989.989,0,0,0,.793-.319,1.96,1.96,0,0,0,.274-1.224v-6.08h2.55v6.293a4.375,4.375,0,0,1-.349,1.765A2.889,2.889,0,0,1,21.2-31.141a3.261,3.261,0,0,1-1.844.482Zm7.712-.177v-9.639h2.55v7.5h3.648v2.136Zm10.232,0v-9.639h2.55v7.5H43.5v2.136Zm18.537.177a4.579,4.579,0,0,1-1.9-.393A4.9,4.9,0,0,1,52.428-32.1l.742-.86a4.058,4.058,0,0,0,1.224.882,3.375,3.375,0,0,0,1.461.333,2.3,2.3,0,0,0,1.5-.437,1.413,1.413,0,0,0,.533-1.149,1.341,1.341,0,0,0-.215-.8,1.807,1.807,0,0,0-.579-.5q-.363-.206-.825-.413l-1.394-.608a5.065,5.065,0,0,1-.912-.5,2.666,2.666,0,0,1-.756-.8,2.235,2.235,0,0,1-.31-1.2,2.327,2.327,0,0,1,.393-1.327,2.663,2.663,0,0,1,1.089-.919,3.6,3.6,0,0,1,1.572-.333,3.894,3.894,0,0,1,1.617.333,4.058,4.058,0,0,1,1.261.868l-.667.8a3.467,3.467,0,0,0-.986-.675,2.938,2.938,0,0,0-1.224-.245,2.082,2.082,0,0,0-1.312.386,1.245,1.245,0,0,0-.5,1.038,1.179,1.179,0,0,0,.245.763,1.908,1.908,0,0,0,.619.5q.37.193.756.356l1.379.593a4.917,4.917,0,0,1,1.016.571,2.523,2.523,0,0,1,.722.816,2.476,2.476,0,0,1,.267,1.208,2.56,2.56,0,0,1-.4,1.4,2.8,2.8,0,0,1-1.142,1,3.9,3.9,0,0,1-1.77.368Zm11.181,0a3.817,3.817,0,0,1-2.157-.619A4.127,4.127,0,0,1,63.4-33.048a6.4,6.4,0,0,1-.526-2.7A6.245,6.245,0,0,1,63.4-38.43a4,4,0,0,1,1.468-1.72,3.92,3.92,0,0,1,2.157-.6,3.92,3.92,0,0,1,2.167.6,4.063,4.063,0,0,1,1.466,1.721,6.171,6.171,0,0,1,.533,2.682,6.32,6.32,0,0,1-.533,2.7,4.2,4.2,0,0,1-1.468,1.765,3.817,3.817,0,0,1-2.167.619Zm0-1.082a2.419,2.419,0,0,0,1.519-.492,3.2,3.2,0,0,0,1-1.394,5.716,5.716,0,0,0,.356-2.113,4.683,4.683,0,0,0-.786-2.862,2.476,2.476,0,0,0-2.09-1.06,2.476,2.476,0,0,0-2.091,1.053,4.683,4.683,0,0,0-.786,2.862,5.716,5.716,0,0,0,.356,2.113,3.169,3.169,0,0,0,1.008,1.4,2.428,2.428,0,0,0,1.513.492Zm8.631.9v-9.728h1.231v8.675h4.256v1.053Zm12.605.177a3.91,3.91,0,0,1-1.787-.4,2.834,2.834,0,0,1-1.259-1.32,5.589,5.589,0,0,1-.46-2.476v-5.709h1.231v5.739a4.583,4.583,0,0,0,.3,1.847,1.96,1.96,0,0,0,.816.956,2.342,2.342,0,0,0,1.149.282,2.415,2.415,0,0,0,1.172-.282,1.944,1.944,0,0,0,.825-.956,4.584,4.584,0,0,0,.31-1.847v-5.739h1.186v5.709a5.59,5.59,0,0,1-.46,2.476,2.844,2.844,0,0,1-1.245,1.32,3.865,3.865,0,0,1-1.779.4Zm10.5-.177v-8.69H95.819v-1.038h7.119v1.038H100v8.69Zm8.3,0v-9.728h1.231v9.728Zm9.862.177a3.817,3.817,0,0,1-2.157-.619,4.127,4.127,0,0,1-1.468-1.765,6.4,6.4,0,0,1-.526-2.7,6.245,6.245,0,0,1,.526-2.677,4,4,0,0,1,1.468-1.72,3.92,3.92,0,0,1,2.157-.6,3.92,3.92,0,0,1,2.167.6,4.063,4.063,0,0,1,1.468,1.716,6.171,6.171,0,0,1,.533,2.677,6.32,6.32,0,0,1-.533,2.7,4.2,4.2,0,0,1-1.468,1.765,3.817,3.817,0,0,1-2.167.619Zm0-1.082a2.419,2.419,0,0,0,1.52-.5,3.2,3.2,0,0,0,1-1.394,5.715,5.715,0,0,0,.356-2.113,4.683,4.683,0,0,0-.786-2.862,2.476,2.476,0,0,0-2.091-1.053,2.476,2.476,0,0,0-2.091,1.053,4.683,4.683,0,0,0-.786,2.862,5.716,5.716,0,0,0,.356,2.113,3.169,3.169,0,0,0,1.008,1.394,2.428,2.428,0,0,0,1.513.5Zm8.631.9v-9.728h1.275l3.515,6.11,1.053,2.017h.06q-.044-.742-.1-1.535t-.052-1.564v-5.027h1.172v9.728h-1.275l-3.529-6.125-1.053-2h-.059q.059.722.111,1.5t.052,1.542v5.086Z" transform="translate(59.984 92.753)"/>
  </g>
</svg>
