<svg xmlns="http://www.w3.org/2000/svg" width="91.52" height="80.082" viewBox="0 0 91.52 80.082">
  <g id="Group_6144" data-name="Group 6144" transform="translate(-220 -748)">
    <g id="Group_6032" data-name="Group 6032" transform="translate(220 748)">
      <path id="Subtraction_91" data-name="Subtraction 91" d="M36.021,77.821c-9.27,0-14.58-.008-15.784-.024v-10.6l-.048,0a22.434,22.434,0,0,1-3.675-.6,8.95,8.95,0,0,1-3.12-1.107,2.532,2.532,0,0,1-.376-.266,2.119,2.119,0,0,0-1.235-.549,1.823,1.823,0,0,1-.77.5c-.082.036-.167.074-.246.112a15.911,15.911,0,0,0-1.148,1.2l0,0c-.271.3-.528.589-.752.811-.167.262-.336.537-.5.8-1.03,1.669-2.095,3.393-3.726,4.329a3.49,3.49,0,0,1-2.235.835,3.016,3.016,0,0,1-.884-.131,1.743,1.743,0,0,1-.846-.461A2.829,2.829,0,0,0,0,72.224V69.809H.211c.572-1.714,4-5.087,5.334-6.149l.086-.057c.843-.556,2.6-1.713,2.631-2.75-1.8-1.859-2.539-7.658-1.419-11.08a17.1,17.1,0,0,1,1.823-3.9,13.445,13.445,0,0,1,2.782-3.164,13.308,13.308,0,0,1,8.689-2.9.345.345,0,0,0,.1-.393c.319-.3.367-32.889.368-33.218H37.646l-.01,2.113-.374,0c-7.05.062-12.028.1-14.017.1,0,0,0,.073,0,.191-.069,5.02-.293,22.107-.3,31.216A21.923,21.923,0,0,1,30,44.047a12.538,12.538,0,0,1,3.422,5.937,13.827,13.827,0,0,1-.287,7.892A10.765,10.765,0,0,1,29.6,63.268a13.171,13.171,0,0,1-4.136,2.616,7.472,7.472,0,0,1-1.313.461,4.329,4.329,0,0,0-1.2.445v8.666c0,.035,2.954.052,9.021.052,6.444,0,15.459-.019,23.413-.037h.014c6.582-.014,12.8-.028,16.46-.028.31-.541.214-18.875.144-32.263v-.09c-.026-4.94-.048-9.206-.048-11.966.012-.013.016-2.872.017-5.268,0-2.174,0-4.374,0-5.219V14.351c0-1.834-.01-5.8-.01-5.837l-14.793-.2V6.4H74.779V18.487L74.123,77.8H72.776C57.367,77.813,45,77.821,36.021,77.821ZM19.71,41.93a11.62,11.62,0,1,0,11.62,11.62A11.633,11.633,0,0,0,19.71,41.93Zm8.477-21.971h0a32.468,32.468,0,0,0-.111-4.2,6.6,6.6,0,0,1,.06-1.314v0c.025-.246.047-.458.051-.594q.053-.167.1-.325l0-.015a3.85,3.85,0,0,1,1.492-2.478,6.036,6.036,0,0,1,3.223-.682c.793,0,1.634.062,2.447.122h.014c.806.059,1.639.121,2.406.121a8.531,8.531,0,0,0,1.773-.157c.022-.007.044-.09.04-.152,0-.025-.008-.056-.03-.06.4-.561.243-2.085.093-3.558a10.576,10.576,0,0,1-.093-2.48A5.775,5.775,0,0,1,42.769.565,19.478,19.478,0,0,1,47.514,0a9.055,9.055,0,0,1,1.744.139c.27.055.559.1.866.149a9.008,9.008,0,0,1,2.993.848,4.34,4.34,0,0,1,2.13,2.95,10.122,10.122,0,0,1,.027,3.247,11.75,11.75,0,0,0-.027,3.093c.006.021.082.041.158.041a.3.3,0,0,0,.144-.031.866.866,0,0,0,.6.162h.185a1.294,1.294,0,0,1,.327.031,6.019,6.019,0,0,0,1.154.087c.915,0,2.041-.1,3.311-.218l.17-.016c1.105-.1,2.149-.2,2.9-.2a1.993,1.993,0,0,1,1.013.158,4.3,4.3,0,0,1,1.769,2.432,9.222,9.222,0,0,1,.349,3.106,17.018,17.018,0,0,1-.608,3.811ZM47.3,4.691a1.576,1.576,0,0,1-.591.173,2.019,2.019,0,0,0-.516.129,2.023,2.023,0,0,0-.831.813,4.02,4.02,0,0,1-.377.5,3.833,3.833,0,0,0,.851,2.833,2.459,2.459,0,0,0,1.839.707c.078,0,.158,0,.238-.007.113-.039.229-.071.341-.1a2.269,2.269,0,0,0,.756-.31c.594-.44,1.529-2.386.805-3.421a1.655,1.655,0,0,0-.707-.875,3.639,3.639,0,0,1-.4-.333l-.412-.029-.318-.023Z" transform="translate(0 2.261)" fill="#1492e6"/>
      <path id="Subtraction_93" data-name="Subtraction 93" d="M18.858.115ZM51.211,18.956c-1.517,2.01-3.223,3.8-4.73,5.746-.656.977-1.5,1.757-2.1,2.7-2.382,3.187-.447.469-2.833,3.7.023,0-11.005,12.548-21.53,33.349-.392.844-1.509,2.818-1.509,2.818a34.911,34.911,0,0,0-1.8-3.23c-1.045-1.866-2.117-3.8-3.422-5.726-2.856-4.362-6.307-8.3-9.469-12.579-.6-.7-3.244-2.965-3.814-3.522.124-.01,3.693-3.818,4.116-4.025C4.722,38.11,6.982,39.8,7.346,40c2.637,1.7,4.7,3.562,7.034,5.233.85.732,3.13,2.717,3.13,2.717a29,29,0,0,0,2.2-2.717C32.6,28.726,41.561,20.566,41.561,20.566s.025.011,2.818-2.1A18.917,18.917,0,0,1,47.2,16.317a26.591,26.591,0,0,1,4.83-.782,11.134,11.134,0,0,1,2.1,0C54.13,15.645,51.965,17.958,51.211,18.956Z" transform="translate(37.39 0)" fill="#d1d1d1" fill-rule="evenodd"/>
    </g>
  </g>
</svg>
