<svg xmlns="http://www.w3.org/2000/svg" xmlns:xlink="http://www.w3.org/1999/xlink" width="64" height="64" viewBox="0 0 64 64">
  <defs>
    <clipPath id="clip-path">
      <rect id="Rectangle_4525" data-name="Rectangle 4525" width="64" height="64" fill="#3693ff"/>
    </clipPath>
  </defs>
  <g id="Group_4901" data-name="Group 4901" clip-path="url(#clip-path)">
    <path id="Path_9914" data-name="Path 9914" d="M36.482,61.617a27.369,27.369,0,0,1-8.568.088,1.972,1.972,0,0,1-1.426-1.275l-1.617-5.564a3.231,3.231,0,0,0-1.291-1.647l-5.859-3.382a3.13,3.13,0,0,0-2.066-.272l-5.519,1.479a1.936,1.936,0,0,1-1.816-.57,27.263,27.263,0,0,1-4.1-7.049,1.974,1.974,0,0,1,.39-1.872l4.15-4.327a3.234,3.234,0,0,0,.78-1.942V28.519a3.128,3.128,0,0,0-.8-1.925L4.609,22.458A1.918,1.918,0,0,1,4.2,20.6a32.848,32.848,0,0,1,4.06-7,1.976,1.976,0,0,1,1.819-.6l5.9,1.45a3.236,3.236,0,0,0,2.072-.3l5.858-3.383a3.128,3.128,0,0,0,1.269-1.653l1.492-5.569a1.912,1.912,0,0,1,1.4-1.277,27.249,27.249,0,0,1,8.043.039,1.936,1.936,0,0,1,1.4,1.288L39,9.125a3.131,3.131,0,0,0,1.268,1.653l5.859,3.383a3.13,3.13,0,0,0,2.066.272l5.519-1.479a1.936,1.936,0,0,1,1.816.569,27.353,27.353,0,0,1,4.211,7.329,1.945,1.945,0,0,1-.418,1.86l-3.883,3.882a3.128,3.128,0,0,0-.8,1.925v6.765a3.126,3.126,0,0,0,.8,1.925l3.941,3.941a1.954,1.954,0,0,1,.422,1.861,29.974,29.974,0,0,1-1.941,3.963A30.492,30.492,0,0,1,55.589,50.4a1.931,1.931,0,0,1-1.814.572l-5.243-1.405a3.129,3.129,0,0,0-2.066.272l-5.859,3.382a3.126,3.126,0,0,0-1.268,1.653l-1.458,5.442A1.969,1.969,0,0,1,36.482,61.617ZM18.466,32A13.53,13.53,0,1,1,32,45.529,13.537,13.537,0,0,1,18.466,32Z" fill="#3693ff" fill-rule="evenodd"/>
  </g>
</svg>
