<svg id="Group_3733" data-name="Group 3733" xmlns="http://www.w3.org/2000/svg" width="12.591" height="12.591" viewBox="0 0 12.591 12.591">
  <path id="Path_3381" data-name="Path 3381" d="M0,0H12.591V12.591H0Z" fill="none"/>
  <path id="Path_3382" data-name="Path 3382" d="M10.869,9.387a1.528,1.528,0,0,0-1.028.4L6.1,7.613a1.452,1.452,0,0,0,0-.734L9.8,4.723a1.57,1.57,0,1,0-.5-1.149,1.717,1.717,0,0,0,.047.367L5.644,6.1a1.574,1.574,0,1,0,0,2.3l3.735,2.182a1.48,1.48,0,0,0-.042.341,1.532,1.532,0,1,0,1.532-1.532Z" transform="translate(-1.426 -0.951)" fill="#3693ff"/>
</svg>
