<svg xmlns="http://www.w3.org/2000/svg" width="59.265" height="52.478" viewBox="0 0 59.265 52.478">
  <g id="location-on-map-svgrepo-com_1_" data-name="location-on-map-svgrepo-com (1)" transform="translate(-0.001 -17.008)">
    <path id="Path_17" data-name="Path 17" d="M59.189,66.951l-6.143-21.53a1.989,1.989,0,0,0-1.912-1.443H37.006c2.834-3.825,5.593-8.867,5.593-14a12.966,12.966,0,1,0-25.932,0c0,5.133,2.759,10.174,5.593,14H8.133A1.989,1.989,0,0,0,6.22,45.421L.077,66.951a1.989,1.989,0,0,0,1.912,2.534H57.277a1.989,1.989,0,0,0,1.912-2.534ZM29.633,20.985a9,9,0,0,1,8.989,8.994c0,6.654-6.211,13.662-8.989,16.463-2.778-2.8-8.989-9.809-8.989-16.463A9,9,0,0,1,29.633,20.985Zm-4.068,26.97c1.491,1.612,2.61,2.608,2.753,2.735a1.989,1.989,0,0,0,2.629,0c.143-.127,1.262-1.123,2.753-2.735H49.633l.553,1.937L42.494,56.3,8.99,50.211l.644-2.256ZM15.215,65.508V55.386l23.3,4.236-7.064,5.887ZM7.893,54.055l3.345.608V65.508H4.625ZM37.66,65.508,51.379,54.075l3.262,11.433Z" transform="translate(0)" fill="#3693ff"/>
    <path id="Path_18" data-name="Path 18" d="M132.387,60.437a5.35,5.35,0,1,0-5.35,5.378A5.37,5.37,0,0,0,132.387,60.437Zm-6.723,0a1.373,1.373,0,1,1,1.373,1.4A1.389,1.389,0,0,1,125.665,60.437Z" transform="translate(-97.404 -30.458)" fill="#3693ff"/>
  </g>
</svg>
