<svg xmlns="http://www.w3.org/2000/svg" width="10" height="14.902" viewBox="0 0 10 14.902">
  <g id="Group_1041" data-name="Group 1041" transform="translate(0)">
    <g id="Group_513" data-name="Group 513">
      <path id="arrow_drop_down_FILL1_wght400_GRAD0_opsz48_1_" data-name="arrow_drop_down_FILL1_wght400_GRAD0_opsz48 (1)" d="M20.476,20.336l-4.042,4.042a.883.883,0,0,0-.207,1.034A.872.872,0,0,0,17.1,26h8.083a.872.872,0,0,0,.875-.589.883.883,0,0,0-.207-1.034l-4.042-4.042a.97.97,0,0,0-.318-.223.994.994,0,0,0-.7,0A.97.97,0,0,0,20.476,20.336Z" transform="translate(-16.144 -20.05)" fill="#707070"/>
      <path id="arrow_drop_down_FILL1_wght400_GRAD0_opsz48_1_2" data-name="arrow_drop_down_FILL1_wght400_GRAD0_opsz48 (1)" d="M20.476,25.715l-4.042-4.042a.883.883,0,0,1-.207-1.034.872.872,0,0,1,.875-.589h8.083a.872.872,0,0,1,.875.589.883.883,0,0,1-.207,1.034l-4.042,4.042a.97.97,0,0,1-.318.223.994.994,0,0,1-.7,0A.97.97,0,0,1,20.476,25.715Z" transform="translate(-16.144 -11.099)" fill="#3693ff"/>
    </g>
  </g>
</svg>
