<svg xmlns="http://www.w3.org/2000/svg" width="51.521" height="49.119" viewBox="0 0 51.521 49.119">
  <path id="Path_3618" data-name="Path 3618" d="M53.482,22.128A2.412,2.412,0,0,0,51.423,19.3L36.75,17.237,30.058,3.852a2.01,2.01,0,0,0-1.03-1.03,2.6,2.6,0,0,0-3.6,1.03L18.989,17.237,4.317,19.3a1.556,1.556,0,0,0-1.544.772,2.488,2.488,0,0,0,0,3.6l10.554,10.3L10.752,48.641a3.265,3.265,0,0,0,.257,1.544,2.6,2.6,0,0,0,3.6,1.03l13.128-6.95,13.128,6.95a1.929,1.929,0,0,0,1.287.257h.515a2.67,2.67,0,0,0,2.059-3.089L42.156,33.711l10.554-10.3A1.416,1.416,0,0,0,53.482,22.128Z" transform="translate(-2 -2.459)"/>
</svg>
