<svg xmlns="http://www.w3.org/2000/svg" width="88.319" height="117.703" viewBox="0 0 88.319 117.703">
  <path id="Path_9921" data-name="Path 9921" d="M16.565,14.851A43.3,43.3,0,0,1,47.64,2,44.646,44.646,0,0,1,78.875,14.6a42.364,42.364,0,0,1,12.943,30.43c0,12.685-5.728,23.967-15.871,33.723l-3.009,11.53H22.8l-2.253-9.451C9.93,69.754,4.063,59.08,3.507,46.945L3.5,46.756l.006-.189C3.9,33.86,8.731,22.8,16.565,14.851Zm8.574,85.243,2.287,9.6.071.212a14.274,14.274,0,0,0,5.243,7.041A14.864,14.864,0,0,0,41.4,119.7h.014l13.572-.038.2-.018a14.807,14.807,0,0,0,8.24-3.39,14.191,14.191,0,0,0,4.713-7.584l2.239-8.579Z" transform="translate(-3.499 -2.001)" fill="#0d9eff"/>
</svg>
