<svg id="check" xmlns="http://www.w3.org/2000/svg" width="14.992" height="14.995" viewBox="0 0 14.992 14.995">
  <path id="Path_3403" data-name="Path 3403" d="M9.5,17.065a7.5,7.5,0,1,1,5.3-2.193A7.478,7.478,0,0,1,9.5,17.065Zm0-13.8a6.3,6.3,0,1,0,4.455,1.845A6.257,6.257,0,0,0,9.5,3.27ZM14.38,14.448h0Z" transform="translate(-2.006 -2.07)" fill="#fff"/>
  <path id="Path_3404" data-name="Path 3404" d="M10.9,15.67a.6.6,0,0,1-.424-.176L7.933,12.949a.6.6,0,0,1,.848-.848L10.9,14.222,14.825,10.3a.6.6,0,1,1,.848.848l-4.347,4.347A.6.6,0,0,1,10.9,15.67Z" transform="translate(-4.307 -5.292)" fill="#fff"/>
</svg>
