<svg xmlns="http://www.w3.org/2000/svg" width="14" height="14" viewBox="0 0 14 14">
  <g id="Group_839" data-name="Group 839" transform="translate(-859 -192)">
    <g id="Group_838" data-name="Group 838" transform="translate(859 192)">
      <path id="Path_179" data-name="Path 179" d="M7,14a7,7,0,1,1,7-7A7.021,7.021,0,0,1,7,14ZM7,1.167A5.833,5.833,0,1,0,12.833,7,5.85,5.85,0,0,0,7,1.167Z" fill="#155bff"/>
      <path id="Path_180" data-name="Path 180" d="M10.333,11.392a.551.551,0,0,1-.583-.583V10.4a2.353,2.353,0,0,1,1.167-2.042A1.1,1.1,0,0,0,11.5,7.133a1.114,1.114,0,0,0-.933-.933,1.219,1.219,0,0,0-.992.233,1.14,1.14,0,0,0-.408.875A.583.583,0,0,1,8,7.308,2.392,2.392,0,0,1,8.817,5.5a2.294,2.294,0,0,1,1.925-.525,2.367,2.367,0,0,1,1.867,1.867,2.311,2.311,0,0,1-1.167,2.45,1.115,1.115,0,0,0-.525,1.05v.467A.551.551,0,0,1,10.333,11.392Z" transform="translate(-3.333 -2.058)" fill="#155bff"/>
      <ellipse id="Ellipse_61" data-name="Ellipse 61" cx="1" cy="0.5" rx="1" ry="0.5" transform="translate(6 10)" fill="#155bff"/>
      <path id="Path_181" data-name="Path 181" d="M11.375,18.25a.875.875,0,1,1,.875-.875A.9.9,0,0,1,11.375,18.25Zm0-1.167a.292.292,0,1,0,.292.292A.276.276,0,0,0,11.375,17.083Z" transform="translate(-4.375 -6.875)" fill="#155bff"/>
    </g>
  </g>
</svg>
