<svg xmlns="http://www.w3.org/2000/svg" width="137.899" height="135.134" viewBox="0 0 137.899 135.134">
  <g id="Group_11129" data-name="Group 11129" transform="translate(141.449 -3064.551)">
    <g id="Group_11128" data-name="Group 11128" transform="translate(-134 3082.937)">
      <g id="Group_11126" data-name="Group 11126" transform="translate(2 4.063)">
        <path id="Path_25136" data-name="Path 25136" d="M115.88,93.643H8.117A6.117,6.117,0,0,1,2,87.526V10.7A6.637,6.637,0,0,1,8.637,4.063H115.36A6.637,6.637,0,0,1,122,10.7V87.521a6.117,6.117,0,0,1-6.117,6.12Zm-32.7,20.1H40.824l11.342-20.1h19.67ZM2,73.436H122" transform="translate(-2 -4.063)" fill="none" stroke="#fff" stroke-linecap="round" stroke-linejoin="round" stroke-miterlimit="10" stroke-width="6"/>
      </g>
      <path id="Path_25137" data-name="Path 25137" d="M25.125,35.833H29.5" transform="translate(34.686 47.653)" fill="none" stroke="#fff" stroke-linecap="round" stroke-linejoin="round" stroke-miterlimit="10" stroke-width="6"/>
    </g>
    <line id="Line_1" data-name="Line 1" x2="128" y2="125" transform="translate(-136.5 3069.5)" fill="none" stroke="#fff" stroke-linecap="round" stroke-width="7"/>
  </g>
</svg>
