<svg xmlns="http://www.w3.org/2000/svg" xmlns:xlink="http://www.w3.org/1999/xlink" width="338" height="337" viewBox="0 0 338 337">
  <defs>
    <clipPath id="clip-path">
      <rect id="Rectangle_4996" data-name="Rectangle 4996" width="91.344" height="90.795" fill="#fb0000"/>
    </clipPath>
  </defs>
  <g id="Group_6162" data-name="Group 6162" transform="translate(-3090 -7290)">
    <rect id="Rectangle_4995" data-name="Rectangle 4995" width="338" height="337" rx="22" transform="translate(3090 7290)" fill="#fff"/>
    <path id="Path_10415" data-name="Path 10415" d="M244.918,244.918" transform="translate(3137 7336)" fill="none" stroke="#fb0000" stroke-linecap="round" stroke-width="12"/>
    <g id="Group_6161" data-name="Group 6161" transform="translate(-14.004 8.19)">
      <path id="Path_10414" data-name="Path 10414" d="M74.28,210.372H32.406A10.469,10.469,0,0,1,21.937,199.9V158.029a10.469,10.469,0,1,0-20.937,0V199.9a31.406,31.406,0,0,0,31.406,31.406H74.28a10.469,10.469,0,1,0,0-20.937Zm146.56-62.812a10.469,10.469,0,0,0-10.469,10.469V199.9A10.469,10.469,0,0,1,199.9,210.372H158.029a10.469,10.469,0,1,0,0,20.937H199.9A31.406,31.406,0,0,0,231.309,199.9V158.029A10.469,10.469,0,0,0,220.841,147.56ZM199.9,1H158.029a10.469,10.469,0,1,0,0,20.937H199.9a10.469,10.469,0,0,1,10.469,10.469V74.28a10.469,10.469,0,1,0,20.937,0V32.406A31.406,31.406,0,0,0,199.9,1ZM11.469,84.749A10.469,10.469,0,0,0,21.937,74.28V32.406A10.469,10.469,0,0,1,32.406,21.937H74.28A10.469,10.469,0,0,0,74.28,1H32.406A31.406,31.406,0,0,0,1,32.406V74.28A10.469,10.469,0,0,0,11.469,84.749ZM95.217,42.874H53.343A10.469,10.469,0,0,0,42.874,53.343V95.217a10.469,10.469,0,0,0,10.469,10.469H95.217a10.469,10.469,0,0,0,10.469-10.469V53.343A10.469,10.469,0,0,0,95.217,42.874ZM84.749,84.749H63.812V63.812H84.749Zm52.343,20.937h41.874a10.469,10.469,0,0,0,10.469-10.469V53.343a10.469,10.469,0,0,0-10.469-10.469H137.092a10.469,10.469,0,0,0-10.469,10.469V95.217A10.469,10.469,0,0,0,137.092,105.686ZM147.56,63.812H168.5V84.749H147.56ZM95.217,126.623H53.343a10.469,10.469,0,0,0-10.469,10.469v41.874a10.469,10.469,0,0,0,10.469,10.469H95.217a10.469,10.469,0,0,0,10.469-10.469V137.092A10.469,10.469,0,0,0,95.217,126.623ZM84.749,168.5H63.812V147.56H84.749Zm52.343-10.469A10.469,10.469,0,0,0,147.56,147.56a10.469,10.469,0,1,0,0-20.937H137.092a10.469,10.469,0,0,0-10.469,10.469V147.56A10.469,10.469,0,0,0,137.092,158.029Zm41.874-31.406A10.469,10.469,0,0,0,168.5,137.092V168.5a10.469,10.469,0,0,0,0,20.937h10.469a10.469,10.469,0,0,0,10.469-10.469V137.092A10.469,10.469,0,0,0,178.966,126.623ZM137.092,168.5a10.469,10.469,0,1,0,10.469,10.469A10.469,10.469,0,0,0,137.092,168.5Z" transform="translate(3145.418 7344.418)"/>
      <g id="Group_6160" data-name="Group 6160" transform="translate(3336.246 7301)">
        <g id="Group_6159" data-name="Group 6159" clip-path="url(#clip-path)">
          <path id="Path_10416" data-name="Path 10416" d="M104.527,51.818c-6.6-6.627-13.045-13.112-19.5-19.584C76.935,24.129,68.868,16,60.709,7.97a2.59,2.59,0,0,1-.581-3.512A7.235,7.235,0,0,1,66.806.066Q82.158-.042,97.51.037a7.265,7.265,0,0,1,7.288,7.2c.068,14.648.027,29.3.02,43.946,0,.106-.093.213-.291.638" transform="translate(-36.761 0)" fill="#fb0000"/>
          <path id="Path_10417" data-name="Path 10417" d="M59.2,100.8c3.271,3.333,6.194,6.354,9.163,9.329Q85.8,127.6,103.256,145.045a5.225,5.225,0,0,1,.191,6.6c-1.6,1.719-3.852,1.613-5.9-.323-4.189-3.955-8.356-7.934-12.543-11.891-2.4-2.265-4.089-2.269-6.472-.017q-6.42,6.069-12.816,12.162a3.745,3.745,0,0,1-4.38.956,3.791,3.791,0,0,1-2.283-3.866q.023-23.334.021-46.667c0-.189.04-.379.131-1.191" transform="translate(-36.368 -62.081)" fill="#fb0000"/>
          <path id="Path_10418" data-name="Path 10418" d="M91.344,87.087c-.958,1.245-1.541,2.7-2.558,3.132-1.1.466-2.641.11-3.932-.158-.589-.123-1.059-.881-1.556-1.378q-40.61-40.6-81.213-81.21A12.091,12.091,0,0,1,.667,5.915,3.7,3.7,0,0,1,1.1,1.167,3.71,3.71,0,0,1,5.848.7,10.45,10.45,0,0,1,7.271,1.981q40.815,40.8,81.605,81.633a27.213,27.213,0,0,1,2.468,3.472" transform="translate(0 -0.031)" fill="#fb0000"/>
        </g>
      </g>
    </g>
  </g>
</svg>
