<svg id="Group_493" data-name="Group 493" xmlns="http://www.w3.org/2000/svg" width="36.364" height="26.097" viewBox="0 0 36.364 26.097">
  <g id="Ellipse_56" data-name="Ellipse 56" transform="translate(23.248 0.202)" fill="#0b6401" stroke="#707070" stroke-width="1">
    <circle cx="6.118" cy="6.118" r="6.118" stroke="none"/>
    <circle cx="6.118" cy="6.118" r="5.618" fill="none"/>
  </g>
  <g id="Group_492" data-name="Group 492" transform="translate(0 0)">
    <g id="monitoring-svgrepo-com" transform="translate(0 3.43)">
      <g id="Group_491" data-name="Group 491" transform="translate(0 0)">
        <g id="Group_490" data-name="Group 490">
          <path id="Path_168" data-name="Path 168" d="M25,28.339H1.272A1.272,1.272,0,0,0,0,29.611V44.5A1.272,1.272,0,0,0,1.272,45.77h8.874v2.883H6.693a1.177,1.177,0,0,0,0,2.354H19.58a1.177,1.177,0,0,0,0-2.354H16.126V45.77H25A1.272,1.272,0,0,0,26.273,44.5V29.611A1.272,1.272,0,0,0,25,28.339Zm-.636,15.522H1.908V30.247H24.364Z" transform="translate(0 -28.339)" fill="#fff"/>
          <path id="Path_169" data-name="Path 169" d="M121.765,148.64a.872.872,0,0,0,.872-.871v-4.145a.871.871,0,0,0-1.743,0v4.145A.871.871,0,0,0,121.765,148.64Z" transform="translate(-113.203 -135.474)" fill="#fff"/>
          <path id="Path_170" data-name="Path 170" d="M169.7,103.748a.871.871,0,0,0,.871-.871V95.682a.871.871,0,0,0-1.743,0v7.195A.872.872,0,0,0,169.7,103.748Z" transform="translate(-158.091 -90.582)" fill="#fff"/>
          <path id="Path_171" data-name="Path 171" d="M217.646,130.685a.872.872,0,0,0,.871-.871v-5.365a.871.871,0,0,0-1.743,0v5.365A.871.871,0,0,0,217.646,130.685Z" transform="translate(-202.985 -117.518)" fill="#fff"/>
          <path id="Path_172" data-name="Path 172" d="M265.582,117.217a.871.871,0,0,0,.871-.871v-6.28a.871.871,0,1,0-1.743,0v6.28A.872.872,0,0,0,265.582,117.217Z" transform="translate(-247.87 -104.05)" fill="#fff"/>
        </g>
      </g>
    </g>
    <g id="Layer_2" data-name="Layer 2" transform="translate(22.444)">
      <path id="arrow-circle-up" d="M8.96,15.92A6.96,6.96,0,1,0,2,8.96,6.96,6.96,0,0,0,8.96,15.92ZM6.392,7.665,8.48,5.675a.341.341,0,0,1,.1-.07.376.376,0,0,1,.111-.07.654.654,0,0,1,.529,0,.7.7,0,0,1,.23.146L11.542,7.77a.7.7,0,0,1-.988.988l-.9-.9v3.891a.7.7,0,0,1-1.392,0V7.8l-.912.87a.7.7,0,0,1-.961-1.009Z" transform="translate(-2 -2)" fill="#28d62e"/>
    </g>
  </g>
</svg>
