<svg xmlns="http://www.w3.org/2000/svg" width="296" height="414" viewBox="0 0 296 414">
  <g id="Group_4038" data-name="Group 4038" transform="translate(-436 -190)">
    <rect id="Rectangle_3600" data-name="Rectangle 3600" width="286" height="403" rx="8" transform="translate(441 195)" fill="#d5d5d5"/>
    <path id="Path_3570" data-name="Path 3570" d="M700.508,323.949H563.1L646.052,241l-46.982-46.982h96.425l5.014,3.68V323.949Z" transform="translate(26.492)" fill="#252525"/>
    <path id="Path_3569" data-name="Path 3569" d="M-12874.748,11728.018l55.15,55.149-226.332,226.332v-275.006l5.385-6.476Z" transform="translate(13484 -11534)" fill="#3693ff" opacity="0.49"/>
    <path id="Path_3568" data-name="Path 3568" d="M-12887.9,11728.018l50.915,50.914-208.948,208.948V11734l4.97-5.978Z" transform="translate(13484 -11534)" fill="#3693ff" opacity="0.49"/>
    <path id="Path_3567" data-name="Path 3567" d="M-12907.2,11728.018l44.7,44.7-183.429,183.429v-222.877l4.363-5.248Z" transform="translate(13484 -11534)" fill="#252525"/>
    <g id="Rectangle_3598" data-name="Rectangle 3598" transform="translate(436 190)" fill="none" stroke="#515151" stroke-width="6">
      <rect width="296" height="414" rx="13" stroke="none"/>
      <rect x="3" y="3" width="290" height="408" rx="10" fill="none"/>
    </g>
    <path id="Path_3583" data-name="Path 3583" d="M19.361,0h1.172V12.611H19.361ZM2.593,3.268a3.146,3.146,0,0,1,1.066.107H3.8V3.41l.178.036v.036H4.05v.036l.32.107.036.071.142.036v.036l.107.035.036.071H4.76l.071.107c.168.119.551.363.6.568l-.568.533c-.076.076-.087.155-.213.178l-.107-.142H4.476l-.142-.178H4.263l-.071-.107H4.121L4.085,4.76H4.014l-.036-.071H3.908V4.654l-.142-.036V4.583l-.178-.036V4.512H3.481V4.476H3.339V4.44H3.162V4.4a1.369,1.369,0,0,0-.71.071H2.345v.036H2.274v.036H2.167l-.036.071H2.06v.036H1.989L1.883,4.8l-.178.142v.071l-.071.035v.071H1.6v.071H1.563a2.731,2.731,0,0,0-.071.6h.036v.142h.036v.142H1.6v.071h.036l.071.213.391.426h.071l.036.071.142.035.036.071.213.071.036.071.213.071.036.071.213.071.036.071.213.071.036.071.142.035.036.071.142.036.036.071.142.035v.036l.107.035.036.071h.071v.036l.107.036.036.071H4.3l.071.107H4.44l.107.142h.071l.213.249.107.071V8.7l.142.107v.071l.071.036.036.142a1.938,1.938,0,0,1,.249,1.066v.462H5.4v.178H5.364v.142H5.329v.142H5.293v.071H5.258v.107H5.222l-.071.213H5.115l-.036.142-.071.036v.071l-.071.035v.071l-.107.071v.071l-.142.107-.178.213H4.44l-.071.107H4.3l-.035.071H4.192l-.036.071-.213.071v.035H3.872v.036H3.765v.035H3.694v.036l-.249.036v.036H3.3v.036H3.055v.036a2.241,2.241,0,0,1-.746-.036H2.1l-.639-.178v-.036H1.385v-.035H1.279V12.54L1.137,12.5v-.036l-.142-.036-.036-.071-.142-.036-.036-.071H.71l-.071-.107H.568l-.142-.178H.355L0,11.545l.142-.107v-.071l.249-.213v-.071l.071-.036a1.592,1.592,0,0,0,.249-.32H.782a1.37,1.37,0,0,0,.426.391l.107.142h.071l.036.071.107.036V11.4l.142.036v.036l.213.071v.036h.107v.036H2.06v.035l.32.036v.035a1.4,1.4,0,0,0,.71-.071h.142a2.11,2.11,0,0,0,.888-.675l.071-.213h.036v-.071h.036a1.993,1.993,0,0,0,.071-.639H4.3V9.876H4.263V9.734H4.227L4.156,9.52H4.121V9.449L4.05,9.414V9.343l-.213-.178L3.73,9.023l-.142-.036-.036-.071H3.481V8.881H3.41V8.845H3.339V8.81H3.268l-.036-.071L3.02,8.668,2.984,8.6H2.913V8.561H2.842V8.526H2.771V8.49H2.7l-.036-.071-.213-.071-.036-.071-.142-.036L2.238,8.17,2.1,8.135,2.06,8.064l-.142-.036-.036-.071H1.812V7.922l-.107-.036L1.67,7.815H1.6l-.036-.071-.107-.036L1.35,7.567H1.279L1.03,7.282.888,7.176V7.1L.782,7.034V6.963L.71,6.927.675,6.785H.639L.6,6.643H.568V6.536H.533V6.43H.5a3.626,3.626,0,0,1-.071-1.1H.462V5.151H.5V4.973L.746,4.4l.071-.036V4.3l.071-.035V4.192l.142-.107.284-.32h.071l.036-.071h.071l.036-.071.142-.036V3.552l.213-.071V3.446h.107V3.41H2.1V3.375H2.2V3.339h.142V3.3h.249Zm9.556,0a6.075,6.075,0,0,1,2.274.284l.32.071v.036h.071v.036h.107V3.73l.213.071v.036H15.2v.035l.142.036.035.071.142.035V4.05l.107.035.036.071h.071l.071.107h.071l.142.178h.071l.213.249.107.071v.071l.178.142v.071l.107.071v.071l.071.036v.071H16.8l.036.107H16.8c-.058.085-.027.022-.107.071v.035h-.071l-.036.071-.142.036v.035l-.107.036-.036.071h-.071V5.79a1.691,1.691,0,0,0-.284.178c-.071-.02-.031,0-.071-.036l-.6-.639a5.909,5.909,0,0,0-1.1-.639h-.107V4.618h-.107V4.583h-.107V4.547h-.142V4.512l-.355-.036V4.44h-.32V4.4h-.426a3.433,3.433,0,0,0-1.172.178H11.3v.035H11.19v.036l-.178.035v.036h-.071V4.76h-.107V4.8h-.071v.035h-.071l-.036.071-.213.071v.036l-.107.035-.035.071h-.071l-.107.142h-.071l-.178.213-.32.284v.071L9.449,5.9v.071L9.378,6v.071l-.071.036-.036.142L9.2,6.288l-.035.142H9.13l-.035.142H9.059v.107H9.023V6.75H8.988l-.213.924a2.9,2.9,0,0,0,.036.746l.036.462h.036v.142h.036V9.13h.036v.142h.036v.071h.036v.107h.036V9.52h.036v.107H9.13l.036.142H9.2l.036.142.071.035v.071l.071.036v.071h.036l.036.107.071.036v.071l.178.142v.071l.213.178.035.071h.071l.142.178h.071l.036.071.107.036v.036h.071l.035.071h.071l.036.071.746.32h.142a4.379,4.379,0,0,0,2.984-.213v-.036h.071l.036-.071.213-.071.036-.071h.071l.035-.071h.071l.071-.107h.071l.107-.142a2.144,2.144,0,0,0,.639-.639l.107.036.036.071.142.036.036.071h.071l.036.071.107.036v.036l.142.036.035.071h.071l.036.071h.071c.021.014.028.047.071.071a2.751,2.751,0,0,1-.639.746l-.213.249h-.071l-.071.107h-.071l-.036.071-.107.036v.036h-.071l-.036.071-.107.036v.036l-.213.071v.036h-.071v.036l-.213.071V12.4h-.107v.036h-.071v.036h-.107V12.5h-.107v.035h-.107v.036h-.107v.035h-.142v.036h-.142v.035H13.89v.036h-.178v.036h-.249v.036h-.32a3.66,3.66,0,0,1-1.421-.036H11.51v-.036h-.178v-.036H11.19v-.035h-.142v-.036h-.142v-.035l-.213-.036V12.5h-.071v-.036h-.107v-.036h-.071V12.4h-.107v-.036l-.213-.071v-.036h-.071V12.22l-.213-.071L9.8,12.078H9.734L9.7,12.007H9.627v-.036l-.107-.036-.036-.071H9.414l-.036-.071-.107-.035-.178-.213H9.023L8.81,11.3l-.071-.036V11.19l-.178-.142-.036-.107-.071-.036v-.071l-.107-.071v-.071l-.071-.036-.036-.142L8.17,10.48,8.1,10.266H8.064V10.2H8.028v-.071H7.993l-.071-.213H7.886L7.851,9.7H7.815V9.591H7.78V9.485H7.744V9.378H7.709V9.236H7.673V9.059A4.157,4.157,0,0,1,7.709,7V6.856l.213-.639h.036L8.028,6h.035V5.932H8.1V5.861h.036l.071-.213h.036l.036-.107.071-.036V5.435L8.419,5.4V5.329l.071-.036V5.222l.142-.107V5.044l.249-.213V4.76l.107-.071V4.654h.071L9.272,4.4h.071l.107-.142H9.52l.036-.071h.071L9.7,4.085h.071V4.05H9.84l.035-.071.213-.071.036-.071H10.2V3.8h.071V3.766h.107V3.73l.142-.036V3.659l.924-.284.71-.071ZM32.4,8.17h-8.17a3.438,3.438,0,0,0,.426,1.741l.071.213.071.035v.071h.036l.036.107.071.036v.071l.533.568h.071l.071.107h.071l.071.107.142.036.035.071.142.036V11.4l.213.071v.036h.107v.036H26.5v.036h.107v.036h.107v.035h.142a2.368,2.368,0,0,0,1.137.071h.32v-.035h.178v-.036h.178v-.035l.249-.036v-.036h.107V11.51l.178-.036v-.036l.142-.036v-.036l.142-.036.036-.071.142-.036.035-.071h.071l.036-.071.107-.036.107-.142h.071l.249-.284.107-.071V10.48l.178-.142v-.071l.107-.071v-.071l.107-.071V9.982l.071-.036V9.876l.071-.035a.686.686,0,0,0,.107-.249.825.825,0,0,1,.284.142h.071l.036.071.142.036v.035h.071v.036h.071v.035h.071v.036c.142.077.223,0,.249.213a1.619,1.619,0,0,0-.178.249v.071h-.035l-.036.107-.071.036-.035.142-.107.071v.071l-.071.035v.071l-.142.107v.071l-.32.284-.32.355h-.071l-.071.107-.107.036-.036.071a5.149,5.149,0,0,1-1.492.639l-.391.036a4.414,4.414,0,0,1-2.025-.071h-.178a4.425,4.425,0,0,1-2.309-1.528l-.142-.107-.036-.107-.071-.036-.035-.142-.071-.035-.036-.107h-.035v-.071h-.036V10.48h-.036v-.071h-.035v-.071h-.036v-.071h-.035l-.071-.213h-.036l-.249-.746V9.13a4.358,4.358,0,0,1,0-2.06l.035-.32H23.2l.035-.249h.036V6.43H23.3l.036-.213h.035V6.146h.036V6.039h.035l.071-.213h.036V5.755h.035l.036-.142.071-.036.036-.142L23.8,5.4V5.329h.035l.036-.107.071-.036V5.115l.071-.035.035-.107.178-.142V4.76l.284-.249.071-.107h.071l.142-.178h.071l.071-.107.107-.036.036-.071.142-.035.035-.071.142-.036.036-.071.142-.035V3.73l.142-.036V3.659h.107V3.623l.142-.036V3.552l.462-.107a4.727,4.727,0,0,1,2.984.142h.107v.036h.071v.036H29.7v.036l.213.071V3.8l.142.036A4.837,4.837,0,0,1,32.4,8.17Zm6.785-4.618c-.009.08,0,.094-.036.142h-.036v.071l-.071.035-.036.142-.071.036V4.05l-.071.035-.036.142-.071.036-.036.142-.071.036v.071c-.014.021-.047.029-.071.071a5,5,0,0,0-.5-.178.877.877,0,0,0-.462.071l-.249.036v.036H37.3v.036l-.142.035-.036.071h-.071L36.98,4.8h-.071l-.178.213-.107.071v.071l-.107.071v.071l-.071.036V5.4l-.071.035-.036.142h-.036v.071H36.27v.071h-.036l-.071.213h-.036v.107h-.036v.107h-.036v.107h-.036v.107h-.036V6.5H35.95v.178h-.036v.249h-.036q-.018.48-.036.959a10.2,10.2,0,0,0-.036,1.528v3.2H34.565V3.517h1.243V4.8h.036V4.725c.12-.073.134-.174.213-.284l.178-.142.036-.107.249-.213.071-.107h.071l.107-.142h.071l.036-.071h.071l.036-.071h.071V3.552h.071V3.517h.071V3.481h.071V3.446h.071V3.41l.355-.071a1.435,1.435,0,0,1,.71-.071V3.3h.213v.035h.107v.036h.107V3.41H38.9v.036h.107l.036.071Zm9.378-.036h1.172v9.094H48.561V11.083h-.036v.071l-.533.5-.071.107h-.071l-.107.142h-.071l-.071.107h-.071l-.036.071h-.071l-.036.071-.142.036-.036.071-.142.036v.036H47v.036l-.213.071v.036h-.107V12.5h-.071v.035H46.5v.036h-.107v.035h-.107v.036h-.107v.035l-.284.036v.036h-.213v.036H45.4a3.365,3.365,0,0,1-1.705-.142h-.142l-.853-.355-.036-.071-.142-.036-.036-.071h-.071v-.036h-.071l-.071-.107H42.2l-.071-.107H42.06l-.107-.142h-.071l-.178-.213-.284-.249V11.19l-.142-.107v-.071l-.107-.071V10.87l-.071-.036-.036-.107H41.03v-.071l-.071-.036v-.071l-.071-.036-.071-.213h-.036v-.071h-.036l-.071-.213h-.036V9.911H40.6V9.84h-.036V9.734a4.236,4.236,0,0,1-.32-1.6V7.567h.036V7.282h.036V7.069h.036V6.927h.036V6.785h.036V6.643h.036V6.536H40.5V6.43h.036V6.323a5.015,5.015,0,0,1,2.735-2.771l.462-.107a4.376,4.376,0,0,1,2.877.142h.107v.036l.213.071V3.73H47v.036l.142.035.036.071.142.036.036.071h.071l.036.071h.071l.036.071H47.6l.036.071h.071l.142.178h.071l.213.249.071.036v.071l.071.035.107.142h.036v.071h.036a.279.279,0,0,1,.071.142h.036ZM24.334,7.14h6.75l-.071-.391h-.036V6.678h-.036l-.036-.213H30.87L30.8,6.252h-.036V6.181h-.035l-.036-.142L30.622,6l-.035-.142-.071-.035V5.755l-.107-.071V5.613L30.2,5.435l-.32-.355H29.8l-.036-.071H29.7l-.035-.071h-.071l-.036-.071-.142-.036V4.8h-.071V4.76l-.213-.071V4.654h-.107V4.618h-.071V4.583h-.107V4.547l-.284-.036a2.667,2.667,0,0,0-1.243-.071h-.284v.036h-.178v.036h-.142v.036h-.142v.036h-.107v.035h-.071v.036h-.107v.035l-.213.071V4.8l-.142.035v.036l-.107.035-.036.071h-.071l-.035.071h-.071l-.178.213h-.071v.036l-.107.071v.071l-.178.142v.071l-.107.071V5.79l-.071.036-.035.107h-.036l-.036.142-.071.036-.035.142h-.036l-.035.142h-.036V6.5A3,3,0,0,0,24.334,7.14ZM44.689,4.4c-.088.075-.3.03-.426.071v.036h-.142v.036h-.142v.036h-.107v.035h-.107v.036h-.071v.035h-.107v.036l-.142.035V4.8l-.142.035-.036.071-.142.036v.035l-.107.036-.036.071h-.071l-.107.142A3.563,3.563,0,0,0,41.67,6.75v.107h-.036v.107H41.6V7.1h-.036v.142h-.036v.178h-.036v.249a2.525,2.525,0,0,0,.071,1.208l.036.284h.036l.036.213h.036v.071h.036v.107h.036l.071.213h.036V9.84h.036l.036.142.071.035v.071l.071.036V10.2l.071.035V10.3l.107.071v.071l.355.32.178.213h.071l.071.107h.071l.071.107h.071v.036h.071l.036.071h.071v.036h.071v.036h.071V11.4h.071v.036l.142.036v.036H43.8v.036h.107v.036h.107v.036h.107v.035h.142v.036l.462.035v.036h.6v-.036h.284v-.035h.213v-.036h.142v-.035h.142v-.036h.107v-.036h.107a3.532,3.532,0,0,0,1.528-1.137l.142-.107v-.071l.071-.035.036-.107h.036l.071-.213.071-.035V9.769h.036V9.662h.036l.036-.142h.036V9.414h.036V9.307h.036V9.2h.036V9.059h.036V8.916H48.6V8.739h.036V8.384h.036v-.6h-.036V7.5H48.6V7.282h-.036V7.14h-.036V7H48.49V6.892h-.036V6.785h-.036V6.678h-.036V6.607h-.036V6.5h-.036l-.071-.213h-.036l-.036-.142L48.1,6.11V6.039h-.036l-.036-.107L47.957,5.9V5.826l-.107-.071V5.684l-.355-.32-.142-.178h-.071l-.071-.107H47.14L47.1,5.009,47,4.973V4.938L46.856,4.9l-.036-.071L46.678,4.8V4.76l-.142-.035V4.689H46.43V4.654h-.071V4.618L46,4.547A4.1,4.1,0,0,0,44.689,4.4Z" transform="translate(559 570.834)" fill="#1b1b1b" fill-rule="evenodd" opacity="0.46"/>
  </g>
</svg>
