<svg xmlns="http://www.w3.org/2000/svg" width="45.346" height="44" viewBox="0 0 45.346 44">
  <path id="person_FILL1_wght400_GRAD0_opsz48_1_" data-name="person_FILL1_wght400_GRAD0_opsz48 (1)" d="M30.673,30.206A10.193,10.193,0,0,1,20.045,19.578,10.193,10.193,0,0,1,30.673,8.95,10.193,10.193,0,0,1,41.3,19.578,10.193,10.193,0,0,1,30.673,30.206ZM8,52.95V46.29a7.8,7.8,0,0,1,1.346-4.605,8.643,8.643,0,0,1,3.472-2.9,53.257,53.257,0,0,1,9.1-3.188,36.805,36.805,0,0,1,8.75-1.063,35.257,35.257,0,0,1,8.715,1.1,60.358,60.358,0,0,1,9.069,3.153A8.543,8.543,0,0,1,52,41.684a7.8,7.8,0,0,1,1.346,4.605v6.66Z" transform="translate(-8 -8.95)" fill="#3693ff"/>
</svg>
