<svg xmlns="http://www.w3.org/2000/svg" xmlns:xlink="http://www.w3.org/1999/xlink" width="230.772" height="214.621" viewBox="0 0 230.772 214.621">
  <defs>
    <clipPath id="clip-path">
      <rect id="Rectangle_31" data-name="Rectangle 31" width="230.772" height="214.621" fill="none"/>
    </clipPath>
  </defs>
  <g id="Group_52" data-name="Group 52" transform="translate(-3189 -3151)">
    <circle id="Ellipse_16" data-name="Ellipse 16" cx="32" cy="32" r="32" transform="translate(3345 3288)" fill="#ff2020"/>
    <g id="Group_46" data-name="Group 46" transform="translate(3189 3151)">
      <g id="Group_45" data-name="Group 45" clip-path="url(#clip-path)">
        <path id="Path_8" data-name="Path 8" d="M93.512,106.338A52.692,52.692,0,0,1,40.351,53.715,53.035,53.035,0,0,1,93.253,0c29.006.022,52.916,23.991,52.993,53.122a53.049,53.049,0,0,1-52.734,53.216" fill="#fff"/>
        <path id="Path_9" data-name="Path 9" d="M0,169.644c0-18.719,5.783-34.106,20.965-45.035C32.234,116.5,45.2,112.858,58.737,111.118c1.982-.255,4.365.693,6.22,1.711,18.939,10.4,37.785,10.387,56.692-.062,1.695-.936,3.813-2.017,5.569-1.783,14.443,1.923,28.223,5.818,39.993,15a30.162,30.162,0,0,1,2.864,3.143c-16.149,8.8-25.837,21.9-27.544,40.521Z" fill="#fff"/>
        <path id="Path_10" data-name="Path 10" d="M230.771,172.021c-.111,23.574-19.293,42.735-42.645,42.6a42.772,42.772,0,1,1,42.645-42.6m-21.9-10.342L199.3,150.591l-10.944,10.164-11.658-10.9c-1.693,2.25-2.972,4.125-4.432,5.844-1.54,1.814-3.254,3.479-4.83,5.145,3.323,3.913,8.47,10.721,8.47,10.721s-4.992,6.8-7.757,10.247c-.227.283-.128.83.033-.476l9.45,11.659L188.472,182.9l10.581,9.915,10.594-10.034-10.188-10.9,9.415-10.207" fill="#fff"/>
      </g>
    </g>
  </g>
</svg>
