<svg xmlns="http://www.w3.org/2000/svg" width="48" height="48" viewBox="0 0 48 48">
  <g id="Group_682" data-name="Group 682" transform="translate(-13671 -7298)">
    <path id="Path_10555" data-name="Path 10555" d="M26,2A24,24,0,1,0,50,26,24,24,0,0,0,26,2ZM40.6,39.85a16.29,16.29,0,0,0-29.184,0A19.91,19.91,0,0,1,5.841,25.986a20.159,20.159,0,1,1,40.319,0A19.909,19.909,0,0,1,40.6,39.835ZM26,11.6a8.641,8.641,0,1,0,8.641,8.641A8.641,8.641,0,0,0,26,11.6Z" transform="translate(13669 7296)" fill="#656565"/>
    <line id="Line_38" data-name="Line 38" x1="34" y2="34" transform="translate(13678.5 7305.5)" fill="none" stroke="#db3636" stroke-width="3"/>
  </g>
</svg>
