<svg id="Octicons" xmlns="http://www.w3.org/2000/svg" width="33.916" height="33.916" viewBox="0 0 33.916 33.916">
  <g id="verified">
    <path id="Shape" d="M33.207,14.967l-2.288-2.839a3.18,3.18,0,0,1-.657-1.631l-.4-3.6a3.2,3.2,0,0,0-2.817-2.817l-3.6-.4a3.226,3.226,0,0,1-1.652-.7L18.95.689a3.186,3.186,0,0,0-3.983,0L12.129,2.977a3.18,3.18,0,0,1-1.631.657l-3.6.4A3.2,3.2,0,0,0,4.079,6.854l-.4,3.6a3.226,3.226,0,0,1-.7,1.652L.689,14.946a3.186,3.186,0,0,0,0,3.983l2.288,2.839A3.18,3.18,0,0,1,3.634,23.4l.4,3.6a3.2,3.2,0,0,0,2.817,2.817l3.6.4a3.226,3.226,0,0,1,1.652.7l2.839,2.288a3.186,3.186,0,0,0,3.983,0l2.839-2.288a3.18,3.18,0,0,1,1.631-.657l3.6-.4a3.2,3.2,0,0,0,2.817-2.817l.4-3.6a3.226,3.226,0,0,1,.7-1.652l2.288-2.839a3.186,3.186,0,0,0,0-3.983ZM13.781,25.432,6.366,18.018A3.115,3.115,0,0,1,6.988,15.5a3.263,3.263,0,0,1,2.556-.656l4.237,4.237L24.373,8.485a3.216,3.216,0,0,1,2.669.505c.951.924.508,2.778.508,2.778Z" transform="translate(0.01 0.01)" fill="#fff" fill-rule="evenodd"/>
  </g>
</svg>
