<svg id="Group_6822" data-name="Group 6822" xmlns="http://www.w3.org/2000/svg" xmlns:xlink="http://www.w3.org/1999/xlink" width="70.928" height="64.032" viewBox="0 0 70.928 64.032">
  <defs>
    <clipPath id="clip-path">
      <rect id="Rectangle_5333" data-name="Rectangle 5333" width="70.928" height="64.032" fill="#3693ff"/>
    </clipPath>
  </defs>
  <g id="Group_6821" data-name="Group 6821" clip-path="url(#clip-path)">
    <path id="Path_10903" data-name="Path 10903" d="M35.423,49.726c-9.308,0-18.616-.015-27.924.013a7.327,7.327,0,0,1-4.913-1.577A6.77,6.77,0,0,1,.047,43.289c-.033-.45-.027-.9-.027-1.357,0-11.42.024-22.839-.02-34.259A7.321,7.321,0,0,1,3.024,1.324,7.552,7.552,0,0,1,6.738.014,5.461,5.461,0,0,1,7.384.006q28.086,0,56.171.007a7.019,7.019,0,0,1,6.82,4.4,5.645,5.645,0,0,1,.49,2.117c.07,2.239.049,4.481.05,6.721,0,9.7-.016,19.392.014,29.088a7.173,7.173,0,0,1-2.311,5.579,6.276,6.276,0,0,1-3.978,1.759c-.538.029-1.076.047-1.615.047q-13.8,0-27.6,0m.039-42.554q-13.765,0-27.53,0C7,7.172,7,7.186,7,8.106Q7,24.843,7,41.581c0,1.149.031,1.179,1.141,1.179H62.808c.151,0,.3-.006.452,0,.466.017.667-.23.673-.671q.006-.388.006-.775,0-16.544,0-33.087c0-1.052,0-1.054-1.077-1.054h-27.4" transform="translate(0 0)" fill="#3693ff"/>
    <path id="Path_10904" data-name="Path 10904" d="M155.182,423.6c-5.621,0-11.243-.01-16.864.014-.641,0-.819-.213-.81-.815.025-1.83.008-3.661.009-5.492,0-.869,0-.872.855-.873q4.426,0,8.852,0c.927,0,.927,0,.927-.928,0-.625.018-1.25-.006-1.874-.019-.47.158-.659.637-.65,1.12.02,2.24.006,3.36.006,3.1,0,6.2.014,9.3-.012.622-.005.851.191.806.815s.028,1.252-.021,1.872.2.782.774.779c2.972-.018,5.944-.008,8.917-.007.954,0,.955,0,.956.967,0,1.809-.012,3.618.006,5.427.006.561-.148.789-.772.786-5.643-.024-11.286-.014-16.929-.014" transform="translate(-119.73 -359.583)" fill="#3693ff"/>
    <path id="Path_10905" data-name="Path 10905" d="M151.959,110.257H138.274c-.772,0-.774,0-.774-.754,0-5.5.019-7.392-.009-12.887a5.687,5.687,0,0,1,3.047-5.269,5.185,5.185,0,0,1,2.623-.677c5.794-.018,11.589-.035,17.383,0a5.6,5.6,0,0,1,5.38,3.471,4.966,4.966,0,0,1,.446,1.981c.038,5.724.024,7.85.041,13.574,0,.514-.257.562-.662.561q-6.9-.01-13.79,0m-.013-5.7q4.012,0,8.024,0c.678,0,.752-.084.752-.764q0-3.669,0-7.338c0-.7-.047-.756-.742-.756q-8.024,0-16.048,0c-.7,0-.753.055-.753.745q0,3.642,0,7.285c0,.772.052.829.846.829q3.959,0,7.918,0" transform="translate(-116.484 -73.373)" fill="#3693ff"/>
  </g>
</svg>
