<svg xmlns="http://www.w3.org/2000/svg" width="13" height="13" viewBox="0 0 13 13">
  <defs>
  </defs>
  <g id="Group_3531" data-name="Group 3531" transform="translate(-504.325 -90.5)">
    <g id="_1" data-name="1" transform="translate(504.325 90.5)">
      <path id="Path_3217" data-name="Path 3217" fill="#21c700" d="M14.5,8A6.5,6.5,0,1,0,21,14.5,6.5,6.5,0,0,0,14.5,8Zm0,11.375A4.875,4.875,0,1,1,19.375,14.5,4.875,4.875,0,0,1,14.5,19.375Z" transform="translate(-8 -8)"/>
      <path id="Path_3218" data-name="Path 3218" fill="#21c700" d="M15.813,14.438a.813.813,0,0,0-.812.813v2.438a.812.812,0,0,0,1.625,0V15.251A.813.813,0,0,0,15.813,14.438Zm.577-2.2a.943.943,0,0,0-.268-.171.813.813,0,0,0-.618,0,.739.739,0,0,0-.439.439.812.812,0,0,0-.065.309.853.853,0,0,0,.236.577.942.942,0,0,0,.268.171.764.764,0,0,0,.617,0,.943.943,0,0,0,.268-.171.853.853,0,0,0,.236-.577.813.813,0,0,0-.065-.309.943.943,0,0,0-.171-.268Z" transform="translate(-9.313 -8.751)"/>
    </g>
  </g>
</svg>
