<svg xmlns="http://www.w3.org/2000/svg" width="52.6" height="58.741" viewBox="0 0 52.6 58.741">
  <g id="Group_5553" data-name="Group 5553" transform="translate(-640.271 -79.385)">
    <path id="Path_10056" data-name="Path 10056" d="M25.5,53.867H10.811A2.937,2.937,0,0,1,7.874,50.93V9.811a2.937,2.937,0,0,1,2.937-2.937H28.433V18.622a2.937,2.937,0,0,0,2.937,2.937H46.056a2.955,2.955,0,0,0,2.085-5.022L33.456,1.852h0a3.143,3.143,0,0,0-.822-.558h-.264A3.848,3.848,0,0,0,31.547,1H10.811A8.811,8.811,0,0,0,2,9.811V50.93a8.811,8.811,0,0,0,8.811,8.811H25.5a2.937,2.937,0,1,0,0-5.874Zm8.811-42.852,4.67,4.67h-4.67Z" transform="translate(638.271 78.385)" fill="#f2f2f2"/>
    <path id="Path_10065" data-name="Path 10065" d="M2.4,14.226h8.419a1.4,1.4,0,0,0,1.4-1.4V4.4a1.4,1.4,0,0,0-1.4-1.4H2.4A1.4,1.4,0,0,0,1,4.4v8.419A1.4,1.4,0,0,0,2.4,14.226Zm1.4-8.419H9.42v5.613H3.807Zm26.661,1.4H16.436a1.4,1.4,0,0,0,0,2.806H30.468a1.4,1.4,0,0,0,0-2.806Zm0,14.032H16.436a1.4,1.4,0,0,0,0,2.806H30.468a1.4,1.4,0,0,0,0-2.806ZM5.128,26.855h.017a1.4,1.4,0,0,0,.982-.406L11.8,20.836a1.4,1.4,0,1,0-1.965-2L5.169,23.456,3.412,21.632a1.4,1.4,0,1,0-2.018,1.952l2.742,2.85a1.4,1.4,0,0,0,.992.421Z" transform="translate(661 102.405)" fill="#f2f2f2"/>
  </g>
</svg>
