<svg xmlns="http://www.w3.org/2000/svg" width="53.288" height="58.741" viewBox="0 0 53.288 58.741">
  <g id="Group_5554" data-name="Group 5554" transform="translate(-640.271 -79.385)">
    <path id="Path_10056" data-name="Path 10056" d="M25.5,53.867H10.811A2.937,2.937,0,0,1,7.874,50.93V9.811a2.937,2.937,0,0,1,2.937-2.937H28.433V18.622a2.937,2.937,0,0,0,2.937,2.937H46.056a2.955,2.955,0,0,0,2.085-5.022L33.456,1.852h0a3.143,3.143,0,0,0-.822-.558h-.264A3.848,3.848,0,0,0,31.547,1H10.811A8.811,8.811,0,0,0,2,9.811V50.93a8.811,8.811,0,0,0,8.811,8.811H25.5a2.937,2.937,0,1,0,0-5.874Zm8.811-42.852,4.67,4.67h-4.67Z" transform="translate(638.271 78.385)" fill="#f2f2f2"/>
    <path id="Path_10064" data-name="Path 10064" d="M24.726,18.114a3.834,3.834,0,0,1,3.834,3.834v1.278c0,5.039-4.753,10.224-12.78,10.224S3,28.264,3,23.226V21.948a3.834,3.834,0,0,1,3.834-3.834ZM15.78,1.5A7.029,7.029,0,1,1,8.751,8.529,7.029,7.029,0,0,1,15.78,1.5Z" transform="translate(665 101.676)" fill="#f2f2f2"/>
  </g>
</svg>
