<svg id="workorder" xmlns="http://www.w3.org/2000/svg" width="82.244" height="120.203" viewBox="0 0 82.244 120.203">
  <path id="Path_10045" data-name="Path 10045" d="M15.053,48.649h34.8a3.163,3.163,0,1,0,0-6.326h-34.8a3.163,3.163,0,1,0,0,6.326Zm0,18.979h34.8a3.163,3.163,0,1,0,0-6.326h-34.8a3.163,3.163,0,1,0,0,6.326Zm0,18.979h34.8a3.163,3.163,0,1,0,0-6.326h-34.8a3.163,3.163,0,1,0,0,6.326Zm0,18.979h34.8a3.163,3.163,0,1,0,0-6.326h-34.8a3.163,3.163,0,1,0,0,6.326ZM5.563,48.649A3.163,3.163,0,1,0,2.4,45.485,3.173,3.173,0,0,0,5.563,48.649Zm0,18.979A3.163,3.163,0,1,0,2.4,64.465,3.173,3.173,0,0,0,5.563,67.628Zm0,18.979A3.163,3.163,0,1,0,2.4,83.444,3.173,3.173,0,0,0,5.563,86.607Zm0,18.979A3.163,3.163,0,1,0,2.4,102.424,3.173,3.173,0,0,0,5.563,105.587Zm9.49-91.734H8.726A6.328,6.328,0,0,0,2.4,20.179v6.326a6.328,6.328,0,0,0,6.326,6.326H46.685a6.328,6.328,0,0,0,6.326-6.326V20.179a6.328,6.328,0,0,0-6.326-6.326H40.359a12.653,12.653,0,1,0-25.306,0Zm31.632,6.326v6.326H8.726V20.179h9.49a3.156,3.156,0,0,0,3.163-3.163V13.853a6.326,6.326,0,0,1,12.653,0v3.163A3.156,3.156,0,0,0,37.2,20.179Z" transform="translate(13.416 -1.2)" fill="#18bb44" fill-rule="evenodd"/>
  <path id="Path_10046" data-name="Path 10046" d="M20.179,2.64H10.69A9.5,9.5,0,0,0,1.2,12.13V94.374a9.5,9.5,0,0,0,9.49,9.49H73.955a9.5,9.5,0,0,0,9.49-9.49V12.13a9.5,9.5,0,0,0-9.49-9.49h-9.49a3.163,3.163,0,0,0,0,6.326h9.49a3.173,3.173,0,0,1,3.163,3.163V94.374a3.173,3.173,0,0,1-3.163,3.163H10.69a3.173,3.173,0,0,1-3.163-3.163V12.13A3.173,3.173,0,0,1,10.69,8.966h9.49a3.163,3.163,0,1,0,0-6.326Z" transform="translate(-1.2 16.339)" fill="#18bb44" fill-rule="evenodd"/>
</svg>
