<svg xmlns="http://www.w3.org/2000/svg" width="26.009" height="26.495" viewBox="0 0 26.009 26.495">
  <g id="Group_13863" data-name="Group 13863" transform="translate(0 0)">
    <path id="Path_11342" data-name="Path 11342" d="M37.834,92.091H30.165a.7.7,0,1,0,0,1.394h7.669a.7.7,0,0,0,0-1.394" transform="translate(-23.891 -74.662)" fill="#3693ff"/>
    <path id="Path_11343" data-name="Path 11343" d="M37.834,69.992H30.165a.7.7,0,1,0,0,1.394h7.669a.7.7,0,0,0,0-1.394" transform="translate(-23.891 -56.746)" fill="#3693ff"/>
    <path id="Path_11344" data-name="Path 11344" d="M37.834,114.19H30.165a.7.7,0,1,0,0,1.394h7.669a.7.7,0,0,0,0-1.394" transform="translate(-23.891 -92.579)" fill="#3693ff"/>
    <path id="Path_11345" data-name="Path 11345" d="M19.114,69.992a.7.7,0,1,0,.7.7.7.7,0,0,0-.7-.7" transform="translate(-14.932 -56.746)" fill="#3693ff"/>
    <path id="Path_11346" data-name="Path 11346" d="M19.114,114.19a.7.7,0,1,0,0,1.391h0a.7.7,0,0,0,0-1.394" transform="translate(-14.932 -92.579)" fill="#3693ff"/>
    <path id="Path_11347" data-name="Path 11347" d="M19.114,92.091a.7.7,0,1,0,.7.7.7.7,0,0,0-.7-.7" transform="translate(-14.932 -74.662)" fill="#3693ff"/>
    <path id="Path_11348" data-name="Path 11348" d="M19.114,47.893a.7.7,0,1,0,.7.7.7.7,0,0,0-.7-.7" transform="translate(-14.932 -38.829)" fill="#3693ff"/>
    <path id="Path_11349" data-name="Path 11349" d="M19.114,4.184a.7.7,0,0,1,.7.689v-.69H21.9a.7.7,0,0,0,.7-.693v-.7a1.394,1.394,0,1,1,2.788,0v.7a.7.7,0,0,0,.693.7h2.1v1.4H19.81V4.9a.7.7,0,0,1-.7.689h-.7a1.4,1.4,0,0,0,1.4,1.383h8.365a1.4,1.4,0,0,0,1.4-1.391h-.7a.7.7,0,0,1,0-1.394h.7a1.394,1.394,0,0,0-1.395-1.4h-1.4a2.789,2.789,0,1,0-5.579,0H19.81a1.4,1.4,0,0,0-1.394,1.394h.7Z" transform="translate(-14.931)" fill="#3693ff"/>
    <path id="Path_11350" data-name="Path 11350" d="M37.833,47.893h-7.67a.7.7,0,0,0,0,1.394h7.67a.7.7,0,0,0,0-1.394" transform="translate(-23.889 -38.829)" fill="#3693ff"/>
    <path id="Path_11351" data-name="Path 11351" d="M16.731,42.323a.7.7,0,0,1-.7.7H2.092a.7.7,0,0,1-.7-.7V24.195a.7.7,0,0,1,.7-.7H3.485V22.1H2.092A2.093,2.093,0,0,0,0,24.2V42.323a2.093,2.093,0,0,0,2.092,2.092H16.034a2.093,2.093,0,0,0,2.091-2.092V38.314H16.731Z" transform="translate(0 -17.92)" fill="#3693ff"/>
    <path id="Path_11352" data-name="Path 11352" d="M25.781,25.745v0" transform="translate(-20.902 -20.873)" fill="#3693ff"/>
    <path id="Path_11353" data-name="Path 11353" d="M78.762,23.5a.7.7,0,0,1,.7.7v5.053h1.395V24.195A2.093,2.093,0,0,0,78.762,22.1H77.371v1.4Z" transform="translate(-62.728 -17.92)" fill="#3693ff"/>
    <path id="Path_11354" data-name="Path 11354" d="M19.114,23.5a.7.7,0,0,0,.7-.689v-.017a.7.7,0,0,0-.7-.689h-.7V23.5Z" transform="translate(-14.931 -17.921)" fill="#3693ff"/>
    <path id="Path_11355" data-name="Path 11355" d="M69.986,22.8a.7.7,0,0,0,.7.7h.7V22.1h-.7a.7.7,0,0,0-.7.7" transform="translate(-56.741 -17.92)" fill="#3693ff"/>
    <path id="Path_11356" data-name="Path 11356" d="M96.382,74.9v.249a1.407,1.407,0,0,1-.469.756q-1.545,1.535-3.08,3.08a1.38,1.38,0,0,1-.743.455h-.249a1.4,1.4,0,0,1-.74-.459q-2.03-2.039-4.069-4.069a1.389,1.389,0,0,1-.459-.74v-3.7a.233.233,0,0,0,.018-.042,1,1,0,0,1,.347-.578,1.225,1.225,0,0,1,.479-.223h3.7a1.415,1.415,0,0,1,.748.465q2.024,2.032,4.056,4.056a1.4,1.4,0,0,1,.465.748m-8.1-2.817a.736.736,0,1,0-.733-.734.736.736,0,0,0,.733.734" transform="translate(-70.377 -57.132)" fill="#3693ff"/>
  </g>
</svg>
