<svg xmlns="http://www.w3.org/2000/svg" width="30.063" height="43.593" viewBox="0 0 30.063 43.593">
  <path id="Path_3583" data-name="Path 3583" d="M13.08,20.105V12.341a5.19,5.19,0,1,1,10.379,0v7.764a9.341,9.341,0,1,0-10.379,0ZM24.5,25.233A4.1,4.1,0,0,0,22.65,24.8H21.384V12.341a3.114,3.114,0,0,0-6.228,0V34.636L8.015,33.142a2.333,2.333,0,0,0-2.138,3.923L14.2,45.389a4.233,4.233,0,0,0,2.948,1.2H29.812a4.14,4.14,0,0,0,4.11-3.571l1.308-9.279a4.154,4.154,0,0,0-2.263-4.3L24.5,25.233Z" transform="translate(-5.208 -3)" fill="#cad1d8"/>
</svg>
