<svg xmlns="http://www.w3.org/2000/svg" xmlns:xlink="http://www.w3.org/1999/xlink" width="308.223" height="340.765" viewBox="0 0 308.223 340.765">
  <defs>
    <linearGradient id="linear-gradientdjkfsuijewkhruy34879piroejhfdkoeiru;hfdskGFHJKJJBHJKHJKNHJKM" x1="0.5" x2="0.5" y2="1" gradientUnits="objectBoundingBox">
      <stop offset="0" stop-color="#efcf96"/>
      <stop offset="1" stop-color="#ed756f"/>
    </linearGradient>
  </defs>
  <path id="Path_10179" data-name="Path 10179" d="M154.8,59.652H294.11c10.448,0,17.414-6.965,17.414-17.414s-6.966-17.414-17.414-17.414H154.8c-10.448,0-17.414,6.966-17.414,17.414S144.351,59.652,154.8,59.652Zm139.31,87.069H154.8c-10.448,0-17.414,6.965-17.414,17.414s6.965,17.414,17.414,17.414H294.11c10.448,0,17.414-6.966,17.414-17.414S304.558,146.721,294.11,146.721Zm0,121.9H154.8c-10.448,0-17.414,6.965-17.414,17.414s6.965,17.414,17.414,17.414H294.11c10.448,0,17.414-6.965,17.414-17.414S304.558,268.617,294.11,268.617ZM71.214,10.894,41.61,54.428,32.9,45.721a16.833,16.833,0,0,0-24.379,0,16.833,16.833,0,0,0,0,24.379L31.162,94.48c3.483,3.483,6.966,5.224,12.19,5.224h1.741c5.224,0,10.448-3.483,12.19-6.966l41.793-62.69c5.224-8.707,3.483-19.155-3.483-24.379C86.886.446,76.438,2.187,71.214,10.894Zm0,121.9-29.6,43.534L32.9,167.618a16.833,16.833,0,0,0-24.379,0,16.833,16.833,0,0,0,0,24.379l22.638,24.379c3.483,3.483,6.966,5.224,12.19,5.224h1.741c5.224,0,10.448-3.483,12.19-6.965l41.793-62.69c5.224-8.707,3.483-19.155-5.224-24.379-6.966-5.224-17.414-3.483-22.638,5.224Zm0,121.9-29.6,43.534L32.9,289.514a16.833,16.833,0,0,0-24.379,0,16.833,16.833,0,0,0,0,24.379l22.638,24.379c3.483,3.483,6.966,5.224,12.19,5.224h1.741c5.224,0,10.448-3.483,12.19-6.965l41.793-62.69c5.224-8.707,3.483-19.155-5.224-24.379-6.966-5.224-17.414-3.483-22.638,5.224Z" transform="translate(-3.3 -2.731)" fill="url(#linear-gradientdjkfsuijewkhruy34879piroejhfdkoeiru;hfdskGFHJKJJBHJKHJKNHJKM)"/>
</svg>
