<svg xmlns="http://www.w3.org/2000/svg" xmlns:xlink="http://www.w3.org/1999/xlink" width="322.25" height="247.236" viewBox="0 0 322.25 247.236">
  <defs>
    <linearGradient id="linear-gradient45654654DMKHSOILSJKDFHUYE8UISFY78EW78WEHJhdguijcksdjhusd;ikljdsidjskjsdj" x1="0.109" x2="0.953" y2="1.093" gradientUnits="objectBoundingBox">
      <stop offset="0" stop-color="#fcd190"/>
      <stop offset="1" stop-color="#fea78e"/>
    </linearGradient>
  </defs>
  <path id="Union_4" data-name="Union 4" d="M19979.641,22387.2c-1.557-.016-3.494-.033-5.338-.033h-231.918c-7.574-1.787-13.783-3.326-18.969-5.484-5.949-2.477-9.859-5.5-12.314-9.512a22.1,22.1,0,0,1-3.041-10.518,52.537,52.537,0,0,1,1.8-15.445c6.09-3.078,11.326-3.287,19.254-3.6l.551-.021c1.078-.039,2.2-.084,3.377-.141v-139.811a32.721,32.721,0,0,1,3.146-14.9,22.83,22.83,0,0,1,7.652-8.682c6.488-4.393,14.164-5.051,18.158-5.051,4.371,0,8.939.027,13.631.057,4.434.027,9.955.057,15.338.057,5.709,0,10.721-.035,15.328-.113,4.688-.078,12.236-.145,21.832-.186a41.748,41.748,0,0,1,81.967-.037c13.531.051,21.176.133,21.531.229l44.486-.006a31.051,31.051,0,0,1,14.418,3.152,23.248,23.248,0,0,1,8.584,7.635c4.691,6.871,5.2,14.777,5.2,17.855v139.8c1.332.1,2.928.111,4.451.111h1.354c.381,0,.764,0,1.146,0,4.8,0,9.674.135,11.85,1.713,3.342,1.066,5.365,2.658,6.359,5.006,1.063,2.488,1.033,5.922-.1,10.8-1.674,7.27-4.332,12.2-8.619,15.967-3.988,3.512-9.074,5.787-15.82,8.619-5.1,2.135-11.727,2.574-20.109,2.574C19983.113,22387.234,19981.32,22387.217,19979.641,22387.2Zm-169.1-11.377,4.557.006c22.467.027,47.936.057,72.291.057,48.641,0,78.93-.119,92.609-.365,9.557-.18,15.879-1.41,20.5-3.99,5.775-3.23,8.664-8.613,8.832-16.467h-80.775a11.5,11.5,0,0,1-1.248,5.641c-.275.264-.572.59-.877.934l-.006.01c-1.111,1.23-2.488,2.766-4.191,2.877h-83.973c-2.652.141-5.461.213-8.338.213s-5.73-.072-8.479-.213a27.7,27.7,0,0,1-7.309-1.09,7.177,7.177,0,0,1-4.637-3.988c-.162-.49-.279-.951-.432-1.541l-.012-.033c-.2-.752-.416-1.6-.809-2.809H19728.6c.174,8.23,3.539,13.811,10.287,17.051,5.314,2.557,12.6,3.691,23.613,3.691.855,0,1.811,0,2.838-.021C19776.545,22375.783,19791.512,22375.8,19810.537,22375.822Zm11.494-31.559a8.6,8.6,0,0,1,4.934,3.078,10.155,10.155,0,0,1,1.893,5.691h80.209c.377-4.516,2.266-7.3,5.939-8.775,3.344-1.338,7.787-1.494,12.922-1.674l.332-.012c1.1-.039,2.225-.078,3.371-.129h58.072v-144.8c0-5.248-5.658-9.254-9.715-9.82a126.824,126.824,0,0,0-16-.721c-6.406,0-13.2.186-18.666.332l-.252.006c-3.389.09-6.314.168-8.371.18-4.77.027-13.6.045-26.258.051a41.746,41.746,0,0,1-82.648-.033q-19.714-.018-27.7-.018h-39.672c-11.99,0-14,11.766-14.328,15.377-.455,4.973-.281,51.623-.129,92.773.068,18.086.129,35.17.129,46.678h56.506c1.629.141,3.506.156,4.961.156.674,0,1.359,0,2.063-.01.482,0,1.234-.006,2.055-.006C19815.711,22342.584,19820.166,22342.713,19822.031,22344.264Zm13.7-162.525a33.393,33.393,0,1,0,33.389-33.391A33.387,33.387,0,0,0,19835.73,22181.738Zm29.215,16.7v-20.871a4.175,4.175,0,1,1,8.35,0v20.871a4.175,4.175,0,0,1-8.35,0Zm.482-33.109a3.636,3.636,0,1,1,3.637,3.631A3.638,3.638,0,0,1,19865.428,22165.326Z" transform="translate(-19708.002 -22139.998)" fill="url(#linear-gradient45654654DMKHSOILSJKDFHUYE8UISFY78EW78WEHJhdguijcksdjhusd;ikljdsidjskjsdj)"/>
</svg>
