<svg xmlns="http://www.w3.org/2000/svg" xmlns:xlink="http://www.w3.org/1999/xlink" width="373.916" height="308.783" viewBox="0 0 373.916 308.783">
  <defs>
    <linearGradient id="linear-gradientkhrieotu9pro'jirio43u43743898794043@#$%^*(^%$#" y1="0.034" x2="1.263" y2="1.071" gradientUnits="objectBoundingBox">
      <stop offset="0" stop-color="#9aaef1"/>
      <stop offset="1" stop-color="#26c3cf"/>
    </linearGradient>
  </defs>
  <g id="Group_5709" data-name="Group 5709" transform="translate(-425.594 -1639.998)">
    <path id="Union_5" data-name="Union 5" d="M19732.027,22448.781c-7.148-8.373-15.666-16.869-24.027-25.42v-3.865c34.146-39.2,105.691-115.969,106.283-115.969,3.217,2.76,9.725,7.178,12.777,8.5,2.813-3.15,7.65-8.5,7.65-8.5l-8.422-12.361,10.051-13.826q-1.318-2.643-2.467-5.363a94.853,94.853,0,0,1,8.76-90.09,95.407,95.407,0,0,1,25.656-25.658,94.891,94.891,0,0,1,106.234,0,95.407,95.407,0,0,1,25.656,25.658,95.037,95.037,0,0,1-115.754,140.65q-3.349-1.418-6.59-3.1c-5.174,3.92-12.916,9.58-12.916,9.58l-13.9-6.953-6.258,8.5,7.8,11.668s-110.166,101.15-115.9,106.543ZM19842.4,22235a79,79,0,1,0,79-79A79.09,79.09,0,0,0,19842.4,22235Z" transform="translate(-19282.406 -20500)" fill="url(#linear-gradientkhrieotu9pro'jirio43u43743898794043@#$%^*(^%$#)"/>
    <path id="Path_10156" data-name="Path 10156" d="M194.781,65h37.782v43.19c.621.789,21.057,17.877,30.983,24.724-10.22,21.647-49.165,30.4-76.491,18.543-3.854-2.026-12.8-4.943-15.453-9.272V84.317c0-7.026,1.13-10.56,6.925-15.389C182.026,66.012,190.469,65,194.781,65Zm50.144,0h28.587c8.931,14.012,1.039,55.722-3.863,57.1-5.347-5.347-19.337-13.929-24.724-19.316Zm69.614,0h30.343c14.544,0,26.033,6.379,26.033,26.261V216.953c0,30.344-3.714,35.733-27.769,35.733-6.864.2-112.531-.708-146.188-.708-17.344,0-24.6-13.177-24.6-21.161,0-11.447-.757-26.362-.757-38.409,2.6-1.184,2.454-1.77,5.331-2.318,14.055,11.048,53.342,6.967,69.537,1.545,35.461-11.872,57.012-35.394,67.3-71.855,3.309-8.681,4.045-24.054,3.863-37.782C317.49,77.283,315.689,71.291,314.54,65Zm-.773,141.392v27.224l37.009-.955v-26.27Z" transform="translate(428.594 1644.023)" fill-rule="evenodd" fill="url(#linear-gradientkhrieotu9pro'jirio43u43743898794043@#$%^*(^%$#)"/>
  </g>
</svg>
