<svg xmlns="http://www.w3.org/2000/svg" xmlns:xlink="http://www.w3.org/1999/xlink" width="473.854" height="431.115" viewBox="0 0 473.854 431.115">
  <defs>
    <linearGradient id="linear-gradienteknsli;ruwpoksjiu4873930reiute094wroeksfnjo;erwijhu84w9uirthue8urfsidjhru" x1="0.071" y1="0.061" x2="1.067" y2="1.024" gradientUnits="objectBoundingBox">
      <stop offset="0" stop-color="#ff6438"/>
      <stop offset="1" stop-color="#fd5dd9"/>
    </linearGradient>
  </defs>
  <path id="inventory" d="M12047.087,16835.58c-3.562-1.621-103.382-48.764-109.923-51.771-.758.313-1.518.619-2.25.941-7.138,3.135-96.146,45.488-102.519,48.268-3.2,1.395-5.789,3.428-10.019,4.057-1.563.275-3.225-1-4.289-1.494-3.634-1.652-107.475-50.7-110.208-51.9-2.341-1.031-4.8-1.689-6.385-3.82-1.6-2.293-1.3-6.562-1.5-11.107.266-7.354.642-108.873.642-114.072.2-2.746-.144-5.949.428-8.113,1.644-4.111,6.7-5.18,10.251-7.047,6.514-3.154,93.476-44.781,101.755-49.139-.018-.857-.036-1.738-.074-2.631.263-7.352.643-108.873.643-114.07.19-2.746-.144-5.949.427-8.113,1.64-4.111,6.693-5.18,10.251-7.047,6.618-3.2,96.269-46.119,102.087-49.318,2.286-.85,5.92-1.736,7.67-3.2,4.994.029,7.175,2.363,10.463,3.635,6.283,2.979,96.631,46.156,103.159,49.334,3,1.74,6.546,2.367,8.329,5.1,1.509,2.316,1.069,6.9,1.069,10.488.067,7.594.638,106.693.638,113.191,0,.492.013,1.008.029,1.537a24.009,24.009,0,0,0,2.776,1.346c6.279,2.979,96.632,46.156,103.156,49.334,3,1.74,6.55,2.367,8.328,5.105,1.509,2.314,1.069,6.9,1.069,10.486.072,7.594.643,106.693.643,113.193,0,3.152.516,7.334-.621,9.592-1.331,3.639-5.6,4.82-9.2,6.406-7.137,3.135-96.141,45.488-102.518,48.268-3.194,1.395-5.789,3.428-10.015,4.057a2.467,2.467,0,0,1-.448.039C12049.5,16837.113,12048.051,16836.023,12047.087,16835.58Zm-3.419-18.986v-107.877l-40.557-19.416-.021,19.2-21.356-10.656-.405-19.029-35.905-17.088-.734,95.518c.031,6.135.05,10.33.05,11.506,0,.438.01.895.024,1.365Zm-328.076-46.559,99.077,46.559v-107.877l-40.557-19.416-.021,19.2-21.36-10.656-.406-19.029-35.9-17.088Zm295.827-95.043,40.173,19.418,95.232-45.281-41.2-19.414Zm-229,0,40.173,19.418,95.232-45.281-41.2-19.414Zm173.686-25.863a.273.273,0,0,1,.017.236l32.039,14.738,94.615-45.709-32.038-14.949S11978.315,16638.521,11956.105,16649.129Zm-229,0a.265.265,0,0,1,.021.236l32.039,14.738,94.611-45.709-32.034-14.949S11749.316,16638.521,11727.1,16649.129Zm101.491-60.094,99.078,46.559v-107.877l-40.558-19.416-.025,19.2-21.356-10.656-.405-19.029-35.9-17.088Zm66.828-95.043,40.173,19.418,95.233-45.283-41.2-19.412Zm-55.317-25.865a.273.273,0,0,1,.021.238l32.038,14.738,94.611-45.709-32.034-14.949S11862.317,16457.521,11840.1,16468.127Z" transform="translate(-11699.999 -16405.998)" fill="url(#linear-gradienteknsli;ruwpoksjiu4873930reiute094wroeksfnjo;erwijhu84w9uirthue8urfsidjhru)"/>
</svg>
