<svg xmlns="http://www.w3.org/2000/svg" xmlns:xlink="http://www.w3.org/1999/xlink" width="277.178" height="277.178" viewBox="0 0 277.178 277.178">
  <defs>
    <linearGradient id="linear-gradientjkrfhuiwpeiw567328736527839327egvdsbncjdfhvbnjhfvbcxnj" x2="0.906" y2="1" gradientUnits="objectBoundingBox">
      <stop offset="0" stop-color="#9796ef"/>
      <stop offset="1" stop-color="#b4345f"/>
    </linearGradient>
  </defs>
  <path id="Path_10181" data-name="Path 10181" d="M186.664,131.246,117.152,87.8a8.689,8.689,0,0,0-13.294,7.368v86.89a8.706,8.706,0,0,0,13.294,7.368l69.512-43.445a8.689,8.689,0,0,0,0-14.736ZM34.781,129.925a104.337,104.337,0,0,1,95.144-95.144V.025a138.815,138.815,0,0,0-129.9,129.9ZM147.3,34.781a104.337,104.337,0,0,1,95.144,95.144H277.2A138.815,138.815,0,0,0,147.3.025ZM129.925,242.447A104.337,104.337,0,0,1,34.781,147.3H.025a138.815,138.815,0,0,0,129.9,129.9ZM242.447,147.3A104.337,104.337,0,0,1,147.3,242.447V277.2A138.815,138.815,0,0,0,277.2,147.3Z" transform="translate(-0.025 -0.025)" fill="url(#linear-gradientjkrfhuiwpeiw567328736527839327egvdsbncjdfhvbnjhfvbcxnj)"/>
</svg>
