<svg xmlns="http://www.w3.org/2000/svg" xmlns:xlink="http://www.w3.org/1999/xlink" width="1021.579" height="899.042" viewBox="0 0 1021.579 899.042">
  <defs>
    <linearGradient id="linear-gradient55458796544544564654ldkjifuposkjfuseifjheue678765786" x1="-0.026" y1="-0.037" x2="1.389" y2="1.296" gradientUnits="objectBoundingBox">
      <stop offset="0" stop-color="#b588f7"/>
      <stop offset="1" stop-color="#2fe2e3"/>
    </linearGradient>
  </defs>
  <path id="reactive_service" data-name="reactive service" d="M593.99,3.723C647.017,12.76,953.127,186.67,970.1,198c21.5,13.06,37.14,14.795,49,36.1v18c-6.44,4.26-7.28,16.1-21,19.9-14.036,4.432-31.228-2.182-42-6-19.3-7.811-165.1-63.417-203-78-10.315-4.42-18.088-17.491-29-24.9-17.63-11.148-50.027-12.075-81-13-17.765.567-183.143-2.717-188.1-2-3.32.74-13.8,2.587-13.8,14.941S455,177.09,455,177.09s234.492,2.286,246.1,6.91c9.189,3.224,33.122,10.839,31.838,49.773S698.1,275,698.1,275s-15.6-1-47.1,1-52,4.667-78.9,7c-18.421,4.427-41.791,4.8-60,12-28.272,12.138-54.271,27.894-83.1,39.1-19.292,9-41.476,11.486-63,16.9-4.119,1.036-24.114,5.536-66.807,6-49.948.543-123.366-3.043-123.366-3.043s-.2,21.371,0,37.016c-.792,2.838-5.386,10.868-15.659,11.954-40.884,4.324-143.458,0-160.168,0,0-1.857-11.251-101.81,14.187-184.763C40.322,132.937,103.218,64.638,107,62.1c10.782-5.036,32.242-.1,46-1,6.688.9,14.952.124,18.1,2C184.979,67.942,186.449,80.28,186,98c2.542,1.372,3.5,1.917,8,2,4.9-3.63,10.066-2.834,17-5.9,15.383-3.906,33.607-10.329,49-16,2.1.567,213.334-59.433,218-60.1,12.2-3.814,27.639-7.841,40.1-11.9C526.231,5.291,557.519-.823,593.99,3.723ZM536,308.1H639.72s13.549,2.9,13.549,25.222S639.72,357,639.72,357H607.1v24h-37V357H536s-13.347-.762-13.347-23.678S536,308.1,536,308.1Zm53.539,96.685C637.289,406.035,680,417.333,686,417.1c12.034,4.048,23.853,7.159,35,11.9,35.505,15.1,51.575,22.825,94.1,57.1s74.315,77.111,76,80c37.361,54.342,60.565,120.6,60,209.9-12.844,4.513-51.64,1-70,1H209c-2.951-8.786,1.257-62.608,4-73,4.893-18.539,8.4-38.374,14.1-56.9C257.692,568.709,317.126,495.754,387,457c32.842-18.215,68.364-32.441,108-44.9C505.424,409.96,541.789,403.535,589.539,404.785ZM443,484.1c-8.336,4.266-9.285,4.224-24.826,14.075S364.06,545.686,343,574.1c-13.829,19.955-31.441,47.779-33.975,64.074s6.9,24.661,19.612,28.281c15.677,4.464,26.4-12.088,27.6-14.8C360.9,641.183,365.474,628.888,372,619c17.2-26.066,51.122-60.661,77.1-77,11.851-6.839,23.1-10.124,31.844-17.237,2.044-1.662,15.813-20.4,3.774-38.663S446.96,482.941,443,484.1Zm-207,338c198.172.755,400.208,1.912,599.1,1,79.611.9,160.2-14.077,178,50.9,3.07,7.554,5.35,19.077,3,26.1.23,0-13.79,1-20,1H144c-1.966-2.72-2.65-17.336.1-28.1,4.371-10.362,13.32-22.483,20.528-28.524,7.967-5.542,15.309-10.8,25.215-14.11C196.352,828.192,221.618,822.045,236,822.1Z" transform="translate(2.479 -2.058)" fill-rule="evenodd" fill="url(#linear-gradient55458796544544564654ldkjifuposkjfuseifjheue678765786)"/>
</svg>
