<svg xmlns="http://www.w3.org/2000/svg" xmlns:xlink="http://www.w3.org/1999/xlink" width="395.623" height="246.748" viewBox="0 0 395.623 246.748">
  <defs>
    <linearGradient id="linear-gradientjkhu44848394yrhjfdhjh48474jrfjdfnjndjiuy48783u32jdnkjsdfnsdnvs" x1="0.318" x2="0.852" y2="1.075" gradientUnits="objectBoundingBox">
      <stop offset="0" stop-color="#9cb2dd"/>
      <stop offset="1" stop-color="#30559a"/>
    </linearGradient>
  </defs>
  <path id="path4884-4-9-2-8-5-7-1" d="M317.4,982.8c-59.416,0-109.663,42.341-121.555,98.368h18.548C225.788,1034.62,267.451,999.7,317.4,999.7c58.748,0,105.986,48.229,105.986,106.98A106.068,106.068,0,0,1,214.723,1133.5H196.176c12.443,55.086,62.33,96.05,121.226,96.05,68.191,0,123.866-54.69,123.866-122.876S385.594,982.8,317.4,982.8Zm-1.993,46.7a77.316,77.316,0,0,0-72.865,51.667H261.76a59.295,59.295,0,1,1,.986,52.329H243.212a77.555,77.555,0,0,0,72.2,49.352c42.331,0,76.84-34.177,76.84-76.51A76.976,76.976,0,0,0,315.41,1029.506Zm-155.333,18.546a8.736,8.736,0,0,0-6.3,5.3L130.263,1103.7l-18.547,39.413L99.8,1105.02a8.736,8.736,0,0,0-8.288-6.292H54.422a8.777,8.777,0,0,0,0,17.554H84.891l16.894,53.324a8.731,8.731,0,0,0,15.9,1.325l28.478-59.95,15.241-32.126,12.591,31.8a8.736,8.736,0,0,0,8.277,5.63H287.928a31.766,31.766,0,1,0,30.132-41.731c-14.7,0-27.228,10.511-30.8,24.177H187.9l-18.219-45.043a8.729,8.729,0,0,0-8.935-5.633A6.151,6.151,0,0,0,160.077,1048.052Z" transform="translate(-45.645 -982.805)" fill="url(#linear-gradientjkhu44848394yrhjfdhjh48474jrfjdfnjndjiuy48783u32jdnkjsdfnsdnvs)"/>
</svg>
