<svg xmlns="http://www.w3.org/2000/svg" xmlns:xlink="http://www.w3.org/1999/xlink" width="365.674" height="237.875" viewBox="0 0 365.674 237.875">
  <defs>
    <linearGradient id="linear-gradientehwijkfnjbuewyriuejw3763836437ygegfvgshfvukefbhriufhruhjgrj" x1="0.114" x2="1" y2="1.139" gradientUnits="objectBoundingBox">
      <stop offset="0" stop-color="#efdf9d"/>
      <stop offset="1" stop-color="#3acca7"/>
    </linearGradient>
  </defs>
  <path id="Path_10151" data-name="Path 10151" d="M338.314,186.551H27.357C26.409,104.2,85.282,46.914,153.365,33.187,145.388,10.33,179.912-8.331,199.042,4.172c5.827,3.2,10.921,9.815,13.181,15,1.447,4.547.706,12.859,2.487,14.01,5.114,3.367,13.04,2.768,19.067,4.974,8.961,3.28,19.25,7.5,26.611,12.435C303.479,76.388,339.092,118.844,338.314,186.551ZM135.956,60.544c-5.214,3.467-11.4,4.244-16.58,7.461-16.2,10.065-28.435,23.917-38.963,39.046-5.968,9.746-13.031,18.76-10.694,31.5a30.829,30.829,0,0,0,4.891,3.316c2.88.855,6.659,1.023,8.29-.083,8.418-2.755,8.989-12.964,12.518-20.642,7.936-10.913,18.662-22.951,29.761-30.756C134.2,84.043,147.355,83.377,147.562,68c-.662-.812-1.2-2.274-2.4-4.062a7.226,7.226,0,0,1-3.4-3.316A15.189,15.189,0,0,1,135.956,60.544ZM365.671,238.032H0c.325-40.676,40.312-31.586,80.413-32.331H290.232C330.055,205.7,366.05,198.593,365.671,238.032Z" transform="translate(0 -0.158)" fill-rule="evenodd" fill="url(#linear-gradientehwijkfnjbuewyriuejw3763836437ygegfvgshfvukefbhriufhruhjgrj)"/>
</svg>
