<svg id="Layer_2" data-name="Layer 2" xmlns="http://www.w3.org/2000/svg" xmlns:xlink="http://www.w3.org/1999/xlink" width="145.163" height="102.436" viewBox="0 0 145.163 102.436">
  <defs>
    <linearGradient id="linear-gradient" x1="0.504" y1="-0.071" x2="0.497" y2="1.011" gradientUnits="objectBoundingBox">
      <stop offset="0" stop-color="#54bfff"/>
      <stop offset="1" stop-color="#0d6da8"/>
    </linearGradient>
  </defs>
  <path id="Path_639" data-name="Path 639" d="M118.69,23.229h0q6.464-.005,12.928,0c1.71,0,2.628.733,2.642,2.073s-.914,2.125-2.607,2.129q-13.07.016-26.143,0c-3.409.192-3.444-4.386-.035-4.2,4.407-.01,8.811,0,13.218,0ZM94.651,56.243a26.7,26.7,0,0,0,5.227.056c2.952-1.794-.328-3.378-2.523-2.837v.021C95.45,52.868,91.737,54.54,94.651,56.243Zm-47.1,25.605c-4.683-.017-9.369,0-14.048,0h0q-6.674.005-13.34,0c-1.459-.15-3.444.126-3.468,1.972-.185,1.821,1.776,2.369,3.245,2.216H36.681c.457-.007,10.779.014,10.929-.007,3.228-.021,3.2-4.289-.063-4.18ZM19.23,74.171H33.15q6.956.016,13.916,0c1.776,0,2.819-.8,2.792-2.108-.028-1.26-1.047-2.094-2.7-2.094q-13.991-.016-27.978,0C15.591,69.831,15.538,74.388,19.23,74.171ZM25.9,27.7a1.389,1.389,0,0,0,2.188-1.078c-.206-1.124-4.041-5.73-5.541-4.494C20.584,24.053,24.765,26.317,25.9,27.7ZM130.854,62.656h-9.073V88.478h-4.187v-17.8h-9.073v17.8h-4.536V66.844H94.913V88.478H90.725V77.661H81.653V88.478H77.116V91.27h57.227V88.478h-3.489Zm-68.191,5.5c-6.354.08-4.728,9.893,1.4,7.862C68.142,74.625,67,68.1,62.663,68.159Zm42.742-52.6c4.4.017,8.811.007,13.214.007h0c4.449,0,8.9.017,13.354-.007a2.062,2.062,0,0,0,2.279-2.265c-.108-1.616-1.71-2.118-3.106-1.933h-25C102.6,10.625,101.508,15.549,105.405,15.559ZM145.16,91.88c0,6.414-4.149,10.556-10.562,10.556H10.559A10.558,10.558,0,0,1,0,91.877V10.559A10.557,10.557,0,0,1,10.556,0H134.738c6.232,0,10.423,4.18,10.423,10.409,0,26.31,0,53.72,0,81.468Zm-5.932-80.759c0-3.894-1.441-5.342-5.311-5.342-29.789-.021-62.935.028-92.906,0H10.842c-3.291,0-4.892,1.605-4.892,4.906q-.005,40.46,0,80.91c0,3.3,1.6,4.91,4.885,4.91H134.193c3.479,0,5.035-1.556,5.035-5.042V11.121ZM62.412,80.1c-5.423.014-5.185,8.2.028,8.123C67.744,88.171,67.705,80.142,62.412,80.1ZM79.73,43.7a1.216,1.216,0,0,0-.283,1.068,32.766,32.766,0,0,1,1.87,9.994,4.116,4.116,0,0,0,4.187,3.845c8.556-.59,2.711-15.873.328-20.375C83.67,40.156,81.677,41.9,79.73,43.7Zm25.661-4.351c4.4.021,8.8.007,13.208.007h0c4.355,0,8.71.017,13.064,0,1.7-.007,2.617-.789,2.593-2.132-.021-1.3-.89-2.006-2.526-2.027-8.758-.007-17.513.017-26.272-.007A2.109,2.109,0,1,0,105.391,39.347ZM85.568,28.3a58.88,58.88,0,0,0,4.864-4.882h.007c0-1.117-1.228-1.93-2.073-1.225-1.253,1.371-6.689,4.962-2.8,6.107ZM62.255,54.962Q75.749,42.95,89.221,30.927l-.115-.2C77.1,36.793,65.169,43.053,53.217,49.236a4.773,4.773,0,0,0-2.736,4.9c.115,4.159,5.768,6.745,8.727,3.58C60.217,56.791,61.236,55.873,62.255,54.962Zm-36.315,3.6c9.184.653-1.082-20.385,21.959-28.341,10.566-3.563,16.781-.073,25.626,4.892,2.436-1.152,4.8-2.439,7.391-3.786-19.53-22.709-59.683-7.432-59,22.632a4.321,4.321,0,0,0,4.023,4.6ZM54.17,14.858a1.375,1.375,0,0,0,1.473,1.27c1.982-.066,1.319-2.537,1.424-3.873v.007c-.1-1.312.527-3.653-1.417-3.734-.994-.028-1.448.6-1.466,1.528-.035,1.6-.01,3.2-.014,4.8ZM17.2,54.9c-.792-2.4-4.229-1.277-6.162-1.357-3.116,1.657.272,3.36,2.4,2.792v-.007C14.806,56.449,16.805,56.6,17.2,54.9Z" fill="url(#linear-gradient)"/>
</svg>
