<svg xmlns="http://www.w3.org/2000/svg" width="42.249" height="79.216" viewBox="0 0 42.249 79.216">
  <g id="battery_low" transform="translate(-8 -1)">
    <path id="Path_3605" data-name="Path 3605" d="M14.241,39.1h0a2.641,2.641,0,0,1-.422-3.7l6.865-8.661H13l6.073-13.2a2.641,2.641,0,0,1,3.512-1.294h0a2.641,2.641,0,0,1,1.294,3.512l-2.641,5.572H31.484L17.859,38.542a2.641,2.641,0,0,1-3.618.555Z" transform="translate(8.203 18.041)" fill="#f12d2d"/>
    <rect id="Rectangle_3710" data-name="Rectangle 3710" width="5.281" height="10.562" rx="1" transform="translate(8 38.971)" fill="#f12d2d"/>
    <path id="Path_3606" data-name="Path 3606" d="M43.093,11.562V7.549A6.549,6.549,0,0,0,36.544,1H21.7a6.549,6.549,0,0,0-6.549,6.549v4.014A7.42,7.42,0,0,0,8,18.982V30.548a2.641,2.641,0,0,0,2.641,2.641h0a2.641,2.641,0,0,0,2.641-2.641V18.982a2.139,2.139,0,0,1,2.139-2.139H42.829a2.139,2.139,0,0,1,2.139,2.139V72.8a2.139,2.139,0,0,1-2.139,2.139H15.42A2.139,2.139,0,0,1,13.281,72.8V57.93a2.641,2.641,0,0,0-2.641-2.641h0A2.641,2.641,0,0,0,8,57.93V72.8a7.42,7.42,0,0,0,7.42,7.42H42.829a7.42,7.42,0,0,0,7.42-7.42V18.982A7.42,7.42,0,0,0,43.093,11.562Zm-5.281,0H20.437V7.549A1.267,1.267,0,0,1,21.7,6.281h14.84a1.267,1.267,0,0,1,1.267,1.267Z" transform="translate(0 0)" fill="#f12d2d"/>
  </g>
</svg>
