<svg xmlns="http://www.w3.org/2000/svg" width="33.571" height="47" viewBox="0 0 33.571 47">
  <path id="Path_3621" data-name="Path 3621" d="M21.786,11.071a1.119,1.119,0,1,0,0,2.238,4.4,4.4,0,0,1,4.4,4.4,1.119,1.119,0,1,0,2.238,0A6.643,6.643,0,0,0,21.786,11.071ZM21.786,1A16.757,16.757,0,0,0,7.851,27.107l.179.3c4.085,5.832,4.8,7.677,4.8,9.4v6.714a2.238,2.238,0,0,0,2.238,2.238h4.476a2.247,2.247,0,0,0,3.827,1.589,2.353,2.353,0,0,0,.649-1.589H28.5a2.238,2.238,0,0,0,2.238-2.238V36.809c0-1.75.714-3.6,4.772-9.4A16.756,16.756,0,0,0,21.786,1Zm4.476,40.286H17.309V39.047h8.952Zm5.584-16.443c-3.281,4.684-4.8,7.361-5.338,9.729H24.024V30.1a2.238,2.238,0,0,0-4.476,0v4.476H17.057c-.537-2.305-2.01-4.924-5.161-9.445l-.172-.289a12.309,12.309,0,1,1,20.123,0Z" transform="translate(-5 -1)"/>
</svg>
