<svg id="Group_4082" data-name="Group 4082" xmlns="http://www.w3.org/2000/svg" width="66" height="66" viewBox="0 0 66 66">
  <path id="Path_3682" data-name="Path 3682" d="M0,0H66V66H0Z" fill="none"/>
  <path id="Path_3565" data-name="Path 3565" d="M-2038.27,45.067a26.4,26.4,0,0,1,0-37.334,26.4,26.4,0,0,1,37.334,0,26.4,26.4,0,0,1,0,37.334A26.315,26.315,0,0,1-2019.6,52.8a26.321,26.321,0,0,1-18.673-7.73Zm3.5-33.825a21.473,21.473,0,0,0,0,30.335,21.471,21.471,0,0,0,30.335,0,21.475,21.475,0,0,0,0-30.335A21.38,21.38,0,0,0-2019.6,4.948a21.386,21.386,0,0,0-15.179,6.284Zm19.187,22.7-5.835-5.835a2.679,2.679,0,0,1-.783-1.892V12.879a2.676,2.676,0,0,1,2.676-2.676,2.676,2.676,0,0,1,2.676,2.676V25.091l5.052,5.052a2.675,2.675,0,0,1,0,3.784,2.666,2.666,0,0,1-1.892.784,2.671,2.671,0,0,1-1.892-.784Z" transform="translate(2052.598 6.602)"/>
</svg>
