<svg xmlns="http://www.w3.org/2000/svg" xmlns:xlink="http://www.w3.org/1999/xlink" width="109.857" height="99.953" viewBox="0 0 109.857 99.953">
  <defs>
    <linearGradient id="linear-gradient" x1="0.5" x2="0.5" y2="1" gradientUnits="objectBoundingBox">
      <stop offset="0" stop-color="#fff" stop-opacity="0.506"/>
      <stop offset="1" stop-opacity="0.149"/>
    </linearGradient>
    <radialGradient id="radial-gradient" cx="0.265" cy="0.097" r="1.98" gradientTransform="matrix(0.439, 0.456, -1.169, 0.29, 0.262, -0.052)" gradientUnits="objectBoundingBox">
      <stop offset="0" stop-color="#fff" stop-opacity="0.302"/>
      <stop offset="1" stop-color="#d2d1d4" stop-opacity="0.302"/>
    </radialGradient>
    <linearGradient id="linear-gradient-3" x1="0.026" x2="1.326" y2="1.332" gradientUnits="objectBoundingBox">
      <stop offset="0" stop-color="#fff"/>
      <stop offset="1" stop-color="gray"/>
    </linearGradient>
  </defs>
  <g id="Group_3254" data-name="Group 3254" transform="translate(-1319.944 -630.047)">
    <rect id="Rectangle_2914" data-name="Rectangle 2914" width="6" height="8" transform="translate(1333.125 666.438) rotate(90)" fill="#ffa200"/>
    <rect id="Rectangle_2915" data-name="Rectangle 2915" width="6" height="8" transform="translate(1426.125 666.438) rotate(90)" fill="#ffa200"/>
    <g id="connector" transform="translate(1315.944 628.047)">
      <path id="Path_2742" data-name="Path 2742" d="M8.592,52.752l-.577.23-.587.078-.583-.077-.577-.228-.578-.385L5.316,52l-.211-.282-.2-.351-.191-.433-.132-.388-.12-.443-.1-.492-.086-.531-.07-.565-.055-.587L4.08,46.916l-.035-1.037L4.03,44.835l-.018-3.821L4,37.184l0-3.826.007-3.83.012-2.738.018-2.737.025-2.731L4.095,18.6l.042-2.731.052-2.724.064-2.71.08-2.7L4.378,6.65l.036-.6.049-.592.065-.567.088-.531.112-.464.133-.372.146-.292.2-.288.212-.209.215-.157.521-.287L6.686,2.1l.371-.074L7.428,2l.527.049.525.149.368.164.367.212.261.2.163.166.16.212.152.275.139.354.12.44.094.512.072.561.069.794.046.819.032.828.105,3.7.079,3.718.058,3.716.042,3.723.022,2.787.015,2.788.009,2.784,0,2.783v2.785L10.85,39.3l-.01,2.773-.014,2.767-.008.726-.017.724-.034.829-.054.815-.077.785-.076.557-.093.523-.109.475-.123.418-.135.366-.144.315-.254.426-.265.326-.271.249Z"/>
      <path id="Path_2743" data-name="Path 2743" d="M8.592,52.752l-.577.23-.587.078-.583-.077-.577-.228-.578-.385L5.316,52l-.211-.282-.2-.351-.191-.433-.132-.388-.12-.443-.1-.492-.086-.531-.07-.565-.055-.587L4.08,46.916l-.035-1.037L4.03,44.835l-.018-3.821L4,37.184l0-3.826.007-3.83.012-2.738.018-2.737.025-2.731L4.095,18.6l.042-2.731.052-2.724.064-2.71.08-2.7L4.378,6.65l.036-.6.049-.592.065-.567.088-.531.112-.464.133-.372.146-.292.2-.288.212-.209.215-.157.521-.287L6.686,2.1l.371-.074L7.428,2l.527.049.525.149.368.164.367.212.261.2.163.166.16.212.152.275.139.354.12.44.094.512.072.561.069.794.046.819.032.828.105,3.7.079,3.718.058,3.716.042,3.723.022,2.787.015,2.788.009,2.784,0,2.783v2.785L10.85,39.3l-.01,2.773-.014,2.767-.008.726-.017.724-.034.829-.054.815-.077.785-.076.557-.093.523-.109.475-.123.418-.135.366-.144.315-.254.426-.265.326-.271.249Z" fill="#fff"/>
      <path id="Path_2744" data-name="Path 2744" d="M8.592,52.752l-.577.23-.587.078-.583-.077-.577-.228-.578-.385L5.316,52l-.211-.282-.2-.351-.191-.433-.132-.388-.12-.443-.1-.492-.086-.531-.07-.565-.055-.587L4.08,46.916l-.035-1.037L4.03,44.835l-.018-3.821L4,37.184l0-3.826.007-3.83.012-2.738.018-2.737.025-2.731L4.095,18.6l.042-2.731.052-2.724.064-2.71.08-2.7L4.378,6.65l.036-.6.049-.592.065-.567.088-.531.112-.464.133-.372.146-.292.2-.288.212-.209.215-.157.521-.287L6.686,2.1l.371-.074L7.428,2l.527.049.525.149.368.164.367.212.261.2.163.166.16.212.152.275.139.354.12.44.094.512.072.561.069.794.046.819.032.828.105,3.7.079,3.718.058,3.716.042,3.723.022,2.787.015,2.788.009,2.784,0,2.783v2.785L10.85,39.3l-.01,2.773-.014,2.767-.008.726-.017.724-.034.829-.054.815-.077.785-.076.557-.093.523-.109.475-.123.418-.135.366-.144.315-.254.426-.265.326-.271.249Z" fill="url(#linear-gradient)"/>
      <path id="Path_2745" data-name="Path 2745" d="M8.592,52.752l-.577.23-.587.078-.583-.077-.577-.228-.578-.385L5.316,52l-.211-.282-.2-.351-.191-.433-.132-.388-.12-.443-.1-.492-.086-.531-.07-.565-.055-.587L4.08,46.916l-.035-1.037L4.03,44.835l-.018-3.821L4,37.184l0-3.826.007-3.83.012-2.738.018-2.737.025-2.731L4.095,18.6l.042-2.731.052-2.724.064-2.71.08-2.7L4.378,6.65l.036-.6.049-.592.065-.567.088-.531.112-.464.133-.372.146-.292.2-.288.212-.209.215-.157.521-.287L6.686,2.1l.371-.074L7.428,2l.527.049.525.149.368.164.367.212.261.2.163.166.16.212.152.275.139.354.12.44.094.512.072.561.069.794.046.819.032.828.105,3.7.079,3.718.058,3.716.042,3.723.022,2.787.015,2.788.009,2.784,0,2.783v2.785L10.85,39.3l-.01,2.773-.014,2.767-.008.726-.017.724-.034.829-.054.815-.077.785-.076.557-.093.523-.109.475-.123.418-.135.366-.144.315-.254.426-.265.326-.271.249Z" fill="url(#radial-gradient)"/>
    </g>
    <g id="connector-2" data-name="connector" transform="translate(1418.944 628.047)">
      <path id="Path_2742-2" data-name="Path 2742" d="M8.592,52.752l-.577.23-.587.078-.583-.077-.577-.228-.578-.385L5.316,52l-.211-.282-.2-.351-.191-.433-.132-.388-.12-.443-.1-.492-.086-.531-.07-.565-.055-.587L4.08,46.916l-.035-1.037L4.03,44.835l-.018-3.821L4,37.184l0-3.826.007-3.83.012-2.738.018-2.737.025-2.731L4.095,18.6l.042-2.731.052-2.724.064-2.71.08-2.7L4.378,6.65l.036-.6.049-.592.065-.567.088-.531.112-.464.133-.372.146-.292.2-.288.212-.209.215-.157.521-.287L6.686,2.1l.371-.074L7.428,2l.527.049.525.149.368.164.367.212.261.2.163.166.16.212.152.275.139.354.12.44.094.512.072.561.069.794.046.819.032.828.105,3.7.079,3.718.058,3.716.042,3.723.022,2.787.015,2.788.009,2.784,0,2.783v2.785L10.85,39.3l-.01,2.773-.014,2.767-.008.726-.017.724-.034.829-.054.815-.077.785-.076.557-.093.523-.109.475-.123.418-.135.366-.144.315-.254.426-.265.326-.271.249Z"/>
      <path id="Path_2743-2" data-name="Path 2743" d="M8.592,52.752l-.577.23-.587.078-.583-.077-.577-.228-.578-.385L5.316,52l-.211-.282-.2-.351-.191-.433-.132-.388-.12-.443-.1-.492-.086-.531-.07-.565-.055-.587L4.08,46.916l-.035-1.037L4.03,44.835l-.018-3.821L4,37.184l0-3.826.007-3.83.012-2.738.018-2.737.025-2.731L4.095,18.6l.042-2.731.052-2.724.064-2.71.08-2.7L4.378,6.65l.036-.6.049-.592.065-.567.088-.531.112-.464.133-.372.146-.292.2-.288.212-.209.215-.157.521-.287L6.686,2.1l.371-.074L7.428,2l.527.049.525.149.368.164.367.212.261.2.163.166.16.212.152.275.139.354.12.44.094.512.072.561.069.794.046.819.032.828.105,3.7.079,3.718.058,3.716.042,3.723.022,2.787.015,2.788.009,2.784,0,2.783v2.785L10.85,39.3l-.01,2.773-.014,2.767-.008.726-.017.724-.034.829-.054.815-.077.785-.076.557-.093.523-.109.475-.123.418-.135.366-.144.315-.254.426-.265.326-.271.249Z" fill="#fff"/>
      <path id="Path_2744-2" data-name="Path 2744" d="M8.592,52.752l-.577.23-.587.078-.583-.077-.577-.228-.578-.385L5.316,52l-.211-.282-.2-.351-.191-.433-.132-.388-.12-.443-.1-.492-.086-.531-.07-.565-.055-.587L4.08,46.916l-.035-1.037L4.03,44.835l-.018-3.821L4,37.184l0-3.826.007-3.83.012-2.738.018-2.737.025-2.731L4.095,18.6l.042-2.731.052-2.724.064-2.71.08-2.7L4.378,6.65l.036-.6.049-.592.065-.567.088-.531.112-.464.133-.372.146-.292.2-.288.212-.209.215-.157.521-.287L6.686,2.1l.371-.074L7.428,2l.527.049.525.149.368.164.367.212.261.2.163.166.16.212.152.275.139.354.12.44.094.512.072.561.069.794.046.819.032.828.105,3.7.079,3.718.058,3.716.042,3.723.022,2.787.015,2.788.009,2.784,0,2.783v2.785L10.85,39.3l-.01,2.773-.014,2.767-.008.726-.017.724-.034.829-.054.815-.077.785-.076.557-.093.523-.109.475-.123.418-.135.366-.144.315-.254.426-.265.326-.271.249Z" fill="url(#linear-gradient)"/>
      <path id="Path_2745-2" data-name="Path 2745" d="M8.592,52.752l-.577.23-.587.078-.583-.077-.577-.228-.578-.385L5.316,52l-.211-.282-.2-.351-.191-.433-.132-.388-.12-.443-.1-.492-.086-.531-.07-.565-.055-.587L4.08,46.916l-.035-1.037L4.03,44.835l-.018-3.821L4,37.184l0-3.826.007-3.83.012-2.738.018-2.737.025-2.731L4.095,18.6l.042-2.731.052-2.724.064-2.71.08-2.7L4.378,6.65l.036-.6.049-.592.065-.567.088-.531.112-.464.133-.372.146-.292.2-.288.212-.209.215-.157.521-.287L6.686,2.1l.371-.074L7.428,2l.527.049.525.149.368.164.367.212.261.2.163.166.16.212.152.275.139.354.12.44.094.512.072.561.069.794.046.819.032.828.105,3.7.079,3.718.058,3.716.042,3.723.022,2.787.015,2.788.009,2.784,0,2.783v2.785L10.85,39.3l-.01,2.773-.014,2.767-.008.726-.017.724-.034.829-.054.815-.077.785-.076.557-.093.523-.109.475-.123.418-.135.366-.144.315-.254.426-.265.326-.271.249Z" fill="url(#radial-gradient)"/>
    </g>
    <rect id="Rectangle_2913" data-name="Rectangle 2913" width="92" height="72" rx="7" transform="translate(1329 658)" fill="url(#linear-gradient-3)"/>
    <circle id="Ellipse_412" data-name="Ellipse 412" cx="2" cy="2" r="2" transform="translate(1353 717)" fill="#3bc700"/>
    <circle id="Ellipse_413" data-name="Ellipse 413" cx="2" cy="2" r="2" transform="translate(1363 717)" fill="#3bc700"/>
    <circle id="Ellipse_414" data-name="Ellipse 414" cx="2" cy="2" r="2" transform="translate(1373 717)" fill="#3bc700"/>
    <circle id="Ellipse_415" data-name="Ellipse 415" cx="2" cy="2" r="2" transform="translate(1383 717)" fill="#3bc700"/>
    <circle id="Ellipse_416" data-name="Ellipse 416" cx="2" cy="2" r="2" transform="translate(1393 717)" fill="#3bc700"/>
  </g>
</svg>
