<svg xmlns="http://www.w3.org/2000/svg" width="196" height="196" viewBox="0 0 196 196">
  <g id="gateway" transform="translate(-708 -482)">
    <circle id="Ellipse_411" data-name="Ellipse 411" cx="98" cy="98" r="98" transform="translate(708 482)" fill="#3693ff"/>
    <path id="Path_3135" data-name="Path 3135" d="M41.434,23.795a5.432,5.432,0,0,0-7.681,0L29.445,28.1V8.432a5.432,5.432,0,1,0-10.865,0V28.1l-4.308-4.308a5.432,5.432,0,1,0-7.682,7.682L24.013,48.9,41.434,31.476A5.432,5.432,0,0,0,41.434,23.795Z" transform="translate(781.987 605)" fill="#fff"/>
    <path id="Path_3136" data-name="Path 3136" d="M41.434,23.795a5.432,5.432,0,0,0-7.681,0L29.445,28.1V8.432a5.432,5.432,0,1,0-10.865,0V28.1l-4.308-4.308a5.432,5.432,0,1,0-7.682,7.682L24.013,48.9,41.434,31.476A5.432,5.432,0,0,0,41.434,23.795Z" transform="translate(830.013 563.897) rotate(180)" fill="#fff"/>
    <path id="Path_3137" data-name="Path 3137" d="M41.434,23.795a5.432,5.432,0,0,0-7.681,0L29.445,28.1V8.432a5.432,5.432,0,1,0-10.865,0V28.1l-4.308-4.308a5.432,5.432,0,1,0-7.682,7.682L24.013,48.9,41.434,31.476A5.432,5.432,0,0,0,41.434,23.795Z" transform="translate(733.551 608.461) rotate(-90)" fill="#fff"/>
    <path id="Path_3138" data-name="Path 3138" d="M41.434,23.795a5.432,5.432,0,0,0-7.681,0L29.445,28.1V8.432a5.432,5.432,0,1,0-10.865,0V28.1l-4.308-4.308a5.432,5.432,0,1,0-7.682,7.682L24.013,48.9,41.434,31.476A5.432,5.432,0,0,0,41.434,23.795Z" transform="translate(878.449 560.436) rotate(90)" fill="#fff"/>
  </g>
</svg>
