<svg xmlns="http://www.w3.org/2000/svg" width="95.833" height="83.855" viewBox="0 0 95.833 83.855">
  <g id="Group_4673" data-name="Group 4673" transform="translate(-2960 -2034.145)">
    <path id="Path_9798" data-name="Path 9798" d="M53.906,86.855a41.845,41.845,0,0,1-32.242-15.13,4.438,4.438,0,0,0,.539-.359l8.427-7.811a29.811,29.811,0,1,0-6.068-24.618h5.385a5.988,5.988,0,0,1,4.235,10.224L22.2,61.142a5.987,5.987,0,0,1-8.469,0L1.754,49.162A5.988,5.988,0,0,1,5.989,38.938h6.469A41.9,41.9,0,1,1,53.906,86.855Z" transform="translate(3055.834 2121) rotate(180)" fill="#fff"/>
    <g id="Group_4674" data-name="Group 4674" transform="translate(2990.412 2063.189)">
      <path id="Path_9799" data-name="Path 9799" d="M22.857,7.511l-.784-1.36a2.41,2.41,0,0,0-3.286-.888h0A2.4,2.4,0,0,1,15.5,4.41a2.307,2.307,0,0,1-.323-1.153h0A2.41,2.41,0,0,0,12.768.778h-1.58a2.4,2.4,0,0,0-2.4,2.41h0a2.41,2.41,0,0,1-2.41,2.375A2.306,2.306,0,0,1,5.228,5.24h0a2.41,2.41,0,0,0-3.286.888L1.1,7.511A2.41,2.41,0,0,0,1.977,10.8h0a2.41,2.41,0,0,1,0,4.174h0A2.4,2.4,0,0,0,1.1,18.245h0l.8,1.372a2.41,2.41,0,0,0,3.286.934h0a2.387,2.387,0,0,1,3.274.876,2.306,2.306,0,0,1,.323,1.153h0a2.41,2.41,0,0,0,2.41,2.41h1.58a2.41,2.41,0,0,0,2.41-2.4h0a2.4,2.4,0,0,1,2.41-2.41,2.455,2.455,0,0,1,1.153.323h0a2.41,2.41,0,0,0,3.286-.876h0l.83-1.384a2.4,2.4,0,0,0-.876-3.286h0a2.4,2.4,0,0,1-.876-3.286,2.364,2.364,0,0,1,.876-.876h0a2.41,2.41,0,0,0,.876-3.274h0Z" transform="translate(0 0)" fill="none" stroke="#fff" stroke-linecap="round" stroke-linejoin="round" stroke-width="1.5" fill-rule="evenodd"/>
      <circle id="Ellipse_777" data-name="Ellipse 777" cx="3.32" cy="3.32" r="3.32" transform="translate(8.664 9.564)" fill="none" stroke="#fff" stroke-linecap="round" stroke-linejoin="round" stroke-width="1.5"/>
    </g>
  </g>
</svg>
