<svg xmlns="http://www.w3.org/2000/svg" width="61.781" height="61.78" viewBox="0 0 61.781 61.78">
  <g id="sernsornotEx" transform="translate(-377 -895)">
    <circle id="Ellipse_382" data-name="Ellipse 382" cx="29" cy="29" r="29" transform="translate(379 897)"/>
    <path id="Warning" d="M30.891,0A30.89,30.89,0,1,0,61.781,30.89,30.89,30.89,0,0,0,30.891,0Zm0,58.349A27.459,27.459,0,1,1,58.351,30.89,27.46,27.46,0,0,1,30.891,58.349Z" transform="translate(377 895)" fill="#ffa836"/>
    <path id="Path_2926" data-name="Path 2926" d="M32.667,43.461a2,2,0,0,1-2-2V23.147a2,2,0,1,1,4,0V41.461A2,2,0,0,1,32.667,43.461Zm0,7.958a2.659,2.659,0,0,1-1.88-4.547,2.761,2.761,0,0,1,3.773,0,2.688,2.688,0,0,1,0,3.773A2.719,2.719,0,0,1,32.667,51.419Z" transform="translate(375.332 889.607)" fill="#ffa836"/>
  </g>
</svg>
