<svg xmlns="http://www.w3.org/2000/svg" width="44.578" height="51.805" viewBox="0 0 44.578 51.805">
  <path id="sensorreport" d="M17176.891,6414.016h-35.023a4.828,4.828,0,0,1-4.781-4.855v-26.3a1.205,1.205,0,0,1,1.2-1.219h42.18a1.207,1.207,0,0,1,1.2,1.219v26.3A4.831,4.831,0,0,1,17176.891,6414.016Zm-20.562-11.113a.827.827,0,0,0-.82.816v1.945a.826.826,0,0,0,.82.824h6.094a.813.813,0,0,0,.8-.824v-1.945a.814.814,0,0,0-.8-.816h-.8v-8.652a.817.817,0,0,0-.8-.82h-4.492a.825.825,0,0,0-.82.82v1.941a.825.825,0,0,0,.82.82h.8v5.891Zm3.047-17.3a2.94,2.94,0,1,0,2.883,2.945A2.92,2.92,0,0,0,17159.375,6385.6Zm21.086-7.187h-42.18a1.205,1.205,0,0,1-1.2-1.219v-3.637a4.823,4.823,0,0,1,4.781-4.855h4.773v-5.27a1.207,1.207,0,0,1,1.2-1.219h3.961a1.205,1.205,0,0,1,1.2,1.219v5.27h12.742v-5.27a1.207,1.207,0,0,1,1.2-1.219h3.969a1.192,1.192,0,0,1,1.18,1.219v5.27h4.8a4.826,4.826,0,0,1,4.773,4.855v3.637A1.207,1.207,0,0,1,17180.461,6378.41Z" transform="translate(-17137.086 -6362.211)" fill="#ffa836"/>
</svg>
