<svg xmlns="http://www.w3.org/2000/svg" width="196" height="196" viewBox="0 0 196 196">
  <g id="SensorLo_" data-name="SensorLo\" transform="translate(-1203 -482)">
    <circle id="Ellipse_412" data-name="Ellipse 412" cx="98" cy="98" r="98" transform="translate(1203 482)" fill="#3693ff"/>
    <g id="Group_1809" data-name="Group 1809" transform="translate(566.466 -1942.371)">
      <g id="Path_1667" data-name="Path 1667" transform="translate(718.873 2494.524)" fill="none">
        <path d="M17.143,0A17.143,17.143,0,0,1,34.286,17.143v21.3A17.143,17.143,0,0,1,0,38.447v-21.3A17.143,17.143,0,0,1,17.143,0Z" stroke="none"/>
        <path d="M 17.14299392700195 8.999996185302734 C 12.65292739868164 8.999996185302734 8.999994277954102 12.65291213989258 8.999994277954102 17.14296340942383 L 8.999994277954102 38.44683074951172 C 8.999994277954102 42.9368782043457 12.65292739868164 46.58979415893555 17.14299392700195 46.58979415893555 C 21.63306045532227 46.58979415893555 25.2859935760498 42.9368782043457 25.2859935760498 38.44683074951172 L 25.2859935760498 17.14296340942383 C 25.2859935760498 12.65291213989258 21.63306045532227 8.999996185302734 17.14299392700195 8.999996185302734 M 17.14299392700195 -3.814697265625e-06 C 26.61081123352051 -3.814697265625e-06 34.28599548339844 7.675163269042969 34.28599548339844 17.14296340942383 L 34.28599548339844 38.44683074951172 C 34.28599548339844 47.91462707519531 26.61081123352051 55.58979415893555 17.14299392700195 55.58979415893555 C 7.675176620483398 55.58979415893555 -7.62939453125e-06 47.91462707519531 -7.62939453125e-06 38.44683074951172 L -7.62939453125e-06 17.14296340942383 C -7.62939453125e-06 7.675163269042969 7.675176620483398 -3.814697265625e-06 17.14299392700195 -3.814697265625e-06 Z" stroke="none" fill="#fff"/>
      </g>
      <path id="Path_1661" data-name="Path 1661" d="M7056.944,6098s7.9,9.958,0,19.222" transform="translate(-6294.848 -3583.896)" fill="none" stroke="#fff" stroke-linecap="round" stroke-width="9"/>
      <path id="Path_1666" data-name="Path 1666" d="M0,0S7.9,9.958,0,19.224" transform="translate(709.068 2533.326) rotate(180)" fill="none" stroke="#fff" stroke-linecap="round" stroke-width="9"/>
      <path id="Path_1662" data-name="Path 1662" d="M7056.944,6098s15.205,19.162,0,36.993" transform="translate(-6280.237 -3593.113)" fill="none" stroke="#fff" stroke-linecap="round" stroke-width="9"/>
      <path id="Path_1665" data-name="Path 1665" d="M0,0S15.206,19.166,0,37" transform="translate(695.838 2541.885) rotate(180)" fill="none" stroke="#fff" stroke-linecap="round" stroke-width="9"/>
      <path id="Path_1663" data-name="Path 1663" d="M7056.944,6098s24.027,30.286,0,58.463" transform="translate(-6266.421 -3604.627)" fill="none" stroke="#fff" stroke-linecap="round" stroke-width="9"/>
      <path id="Path_1664" data-name="Path 1664" d="M0,0S24.03,30.287,0,58.465" transform="translate(678.546 2551.837) rotate(180)" fill="none" stroke="#fff" stroke-linecap="round" stroke-width="9"/>
    </g>
  </g>
</svg>
