<svg xmlns="http://www.w3.org/2000/svg" width="51" height="51" viewBox="0 0 51 51">
  <g id="Group_5470" data-name="Group 5470" transform="translate(-1699 -50)">
    <rect id="Rectangle_4652" data-name="Rectangle 4652" width="51" height="51" rx="7" transform="translate(1699 50)" fill="#393838"/>
    <path id="path7" d="M5.245,1C3.762,1,3,2.9,3,4.384V24.112c0,.827.112,1.465.7,1.748.2.1.2.151.431.151a2.16,2.16,0,0,0,1.3-.5l5.254-4.074a1.591,1.591,0,0,1,1.758,0l5.293,4.074a2.014,2.014,0,0,0,2.056.347,1.99,1.99,0,0,0,1.142-1.748V4.384C20.934,2.9,19.283,1,17.8,1Z" transform="translate(1712.533 61.994)" fill="#0d9eff"/>
  </g>
</svg>
