<svg xmlns="http://www.w3.org/2000/svg" width="83" height="82.999" viewBox="0 0 83 82.999">
  <path id="profile" d="M-31.195,45.075a41.5,41.5,0,1,1,41.5,41.5A41.5,41.5,0,0,1-31.195,45.075ZM-6.781,64.966C-10.9,66.529-15.388,67.837-19.3,69.7v.338c1.618,1,2.56,2.943,4.06,4.06,3.43,2.7,7.064,5.358,11.334,6.936,2.259.889,4.9,1.352,7.105,2.03H4.722a20.242,20.242,0,0,0,8.289.338h2.03c1.154-.3,2.618-.31,3.891-.677A42.924,42.924,0,0,0,32.466,76.47c.289-.2.556-.135.846-.339A35.047,35.047,0,0,0,37.88,71.9c.617-.617,1.567-1.111,1.861-2.03h.169V69.7h-.169c-1.055-.992-2.925-1.122-4.4-1.692C32.6,66.953,29.5,65.838,26.715,64.8c-1.527-.571-2.983-.776-4.4-1.353-.577-.21-1.447-.177-1.692-.677V59.553c.443-.593.36-1.461.677-2.2.612-1.423,1.5-3.154,2.03-4.737.281-.7.085-1.927.339-2.707.355-.821,1.3-1.656,1.692-2.538a36.875,36.875,0,0,0,1.523-5.752c.638-2.551-1.157-4.21-.677-6.259.275-1.074.158-2.739.338-4.06a15.172,15.172,0,0,0-1.184-10.488c-1.554-3.1-4.72-5.38-8.12-6.767a29.01,29.01,0,0,0-3.722-.846H7.091c-.693.5-3.573.757-4.568,1.184a16.431,16.431,0,0,0-6.936,5.921c-2.01,3.239-2.452,8.437-1.354,13.026q.085,1.86.169,3.722c-.126.456-.548,1.306-.677,1.692a13.714,13.714,0,0,0,.339,4.906,20.827,20.827,0,0,0,1.692,4.737A17.261,17.261,0,0,1-3.06,49.911c.337.786.058,1.957.339,2.707,1.2,3.577,2.522,5.458,2.03,10.488h-.339C-1.926,63.914-5.391,64.439-6.781,64.966Z" transform="translate(31.195 -3.575)" fill="#7f7f7f"/>
</svg>
