<svg id="sclera_logo" xmlns="http://www.w3.org/2000/svg" width="151.589" height="68.837" viewBox="0 0 151.589 68.837">
  <path id="Path_3588" data-name="Path 3588" d="M380.518,342.688H355.789c-.448,4,2.44,8.7,6.315,10.277a11.106,11.106,0,0,0,8.452-.031c2.8-1.084,4.575-3.336,6.138-5.893l2.9,1.542c-1.594,5.957-9.515,9.743-16.8,8.054-7.484-1.735-12.136-9.324-10.546-17.209a14.233,14.233,0,0,1,16.644-11.438C375.886,329.156,381.357,335.992,380.518,342.688Zm-3.934-3.25c-.827-3.958-4.089-8.457-11.047-8.133-4.6.212-8.931,3.924-9.36,8.133Z" transform="translate(-281.855 -317.782)" fill="#7f7f7f"/>
  <path id="Path_3589" data-name="Path 3589" d="M601.918,356.341h-3.479v-4.482a14.34,14.34,0,0,1-21.6.555,15.039,15.039,0,0,1,.388-20.254,13.746,13.746,0,0,1,10.847-4.315,13.224,13.224,0,0,1,10.363,5.719v-4.956h3.479Zm-3.243-13.728A10.943,10.943,0,1,0,576.8,342.5a11.09,11.09,0,0,0,10.878,11.285A10.873,10.873,0,0,0,598.675,342.614Z" transform="translate(-450.329 -317.825)" fill="#7f7f7f"/>
  <path id="Path_3590" data-name="Path 3590" d="M182.95,334.213l-2.859,1.778c-.2-.217-.369-.384-.519-.567-4.037-4.921-11.145-5.114-15.4-2.838a11.191,11.191,0,0,0,3.4,20.836,12.343,12.343,0,0,0,12.076-4.17c.117-.136.212-.293.355-.493l2.936,1.863c-.222.329-.4.634-.612.905a14.013,14.013,0,0,1-8.974,5.116,17.039,17.039,0,0,1-11.252-1.589,14.083,14.083,0,0,1-7.418-13.708,14.51,14.51,0,0,1,10.484-12.908,16.3,16.3,0,0,1,14.681,2.292A11.254,11.254,0,0,1,182.95,334.213Z" transform="translate(-131.558 -317.685)" fill="#7f7f7f"/>
  <path id="Path_3591" data-name="Path 3591" d="M57.83,352.945l2.185-2.5c.517.465.986.922,1.494,1.332a6.323,6.323,0,0,0,5.852,1.494,4.683,4.683,0,0,0,3.543-3.863,4.458,4.458,0,0,0-2.5-4.484c-2.171-1.28-4.389-2.5-6.434-3.953-2.69-1.894-3.438-4.642-2.674-7.758,1.044-4.277,5.7-6.553,10.16-5.037a13.039,13.039,0,0,1,4.921,3.336l-2.452,2.221c-.179-.15-.5-.419-.817-.681a7,7,0,0,0-4.566-1.8,4.039,4.039,0,0,0-4.07,2.762,4.25,4.25,0,0,0,2.013,4.6c1.191.715,2.433,1.38,3.629,2.1,1.041.629,2.075,1.272,3.064,1.975a7.065,7.065,0,0,1,2.957,8,7.746,7.746,0,0,1-6.219,6.093A10.134,10.134,0,0,1,57.83,352.945Z" transform="translate(-57.83 -317.732)" fill="#7f7f7f"/>
  <path id="Path_3592" data-name="Path 3592" d="M514.535,328.751l-1.849,2.967c-2.943-.841-4.9-.1-6.543,2.433a12.479,12.479,0,0,0-1.84,6.777c-.074,4.685-.081,9.369-.117,14.059v1.246H500.46V328.562h3.732v3.493c1.906-2.133,3.784-4.1,6.793-4.289A5.514,5.514,0,0,1,514.535,328.751Z" transform="translate(-394.989 -317.766)" fill="#7f7f7f"/>
  <path id="Path_3593" data-name="Path 3593" d="M305.86,285.84h3.469v38.5H305.86Z" transform="translate(-246.759 -285.84)" fill="#7f7f7f"/>
  <path id="Path_3594" data-name="Path 3594" d="M385.568,504c2.2,4.418,4.392,8.838,6.672,13.442L398.859,504l.291.048,2.323,16.327c-1.587.281-1.592.281-1.78-1.091q-.636-4.649-1.27-9.293c-.04-.288-.114-.57-.207-1.037-.253.465-.431.767-.589,1.084q-2.423,4.9-4.849,9.8a3.517,3.517,0,0,1-.55.648,3.968,3.968,0,0,1-.539-.672q-2.495-4.968-4.963-9.948c-.145-.291-.307-.574-.586-1.091-.543,4.039-1.056,7.835-1.573,11.676H382.93c.782-5.492,1.554-10.923,2.326-16.351Z" transform="translate(-305.464 -452.016)" fill="#7f7f7f"/>
  <path id="Path_3595" data-name="Path 3595" d="M312.64,520.337v-16.4c2.988.107,5.974-.367,8.855.662,3.5,1.249,5.481,4.844,4.968,8.89-.515,3.994-2.736,6.369-6.755,6.791A65.771,65.771,0,0,1,312.64,520.337Zm1.7-1.465c2-.114,3.913-.131,5.8-.36a4.765,4.765,0,0,0,3.86-2.859,7.334,7.334,0,0,0-.224-6.991,5.137,5.137,0,0,0-2.6-2.318c-2.2-.9-4.5-.727-6.832-.715Z" transform="translate(-251.923 -451.957)" fill="#7f7f7f"/>
  <path id="Path_3596" data-name="Path 3596" d="M470,516.17l1.349-.817a16.417,16.417,0,0,0,1.906,2.025,2.868,2.868,0,0,0,4.585-1.906,2.778,2.778,0,0,0-1.027-2.426c-1.339-1.191-2.721-2.33-4.106-3.469a4.089,4.089,0,0,1-1.525-2.707,3.591,3.591,0,0,1,1.635-3.784,3.965,3.965,0,0,1,4.477-.031A18.209,18.209,0,0,1,479.472,505l-1.334,1.07c-.477-.455-.9-.894-1.368-1.277a2.454,2.454,0,0,0-3.319-.017,2.311,2.311,0,0,0,.1,3.15,9.15,9.15,0,0,0,1.208,1.1c1.115.936,2.323,1.78,3.336,2.809,2.047,2.066,2.042,4.751.107,6.543a4.806,4.806,0,0,1-6.793-.343A22.556,22.556,0,0,1,470,516.17Z" transform="translate(-371.787 -450.781)" fill="#7f7f7f"/>
  <path id="Path_3597" data-name="Path 3597" d="M236.82,504c1.77-.164,1.768-.162,2.383,1.251l4.837,11.273c.179-.35.307-.572.41-.805q2.3-5.261,4.592-10.525c.62-1.43.62-1.43,2.345-1.165l-7.148,16.413-.338.029Z" transform="translate(-194.17 -451.934)" fill="#7f7f7f"/>
</svg>
