<svg xmlns="http://www.w3.org/2000/svg" width="47.917" height="41.929" viewBox="0 0 47.917 41.929">
  <g id="Group_6004" data-name="Group 6004" transform="translate(-1348.736 -560.054)">
    <path id="Subtraction_91" data-name="Subtraction 91" d="M18.859,40.745c-4.853,0-7.634,0-8.264-.013V35.18l-.025,0a11.744,11.744,0,0,1-1.924-.314,4.687,4.687,0,0,1-1.633-.579,1.327,1.327,0,0,1-.2-.139,1.11,1.11,0,0,0-.646-.288.954.954,0,0,1-.4.263c-.043.019-.087.039-.129.059a8.351,8.351,0,0,0-.6.628h0c-.142.159-.276.309-.394.424-.087.137-.176.281-.262.421A6.184,6.184,0,0,1,2.429,37.92a1.827,1.827,0,0,1-1.17.437A1.58,1.58,0,0,1,.8,38.289a.912.912,0,0,1-.443-.241A1.481,1.481,0,0,0,0,37.815V36.55H.111A11.617,11.617,0,0,1,2.9,33.331l.045-.03c.441-.291,1.359-.9,1.377-1.44-.941-.973-1.329-4.009-.743-5.8a8.954,8.954,0,0,1,.954-2.041,7.042,7.042,0,0,1,1.457-1.656,6.968,6.968,0,0,1,4.549-1.518.18.18,0,0,0,.053-.206c.167-.155.192-17.22.192-17.392h8.923l-.005,1.107-.2,0c-3.691.033-6.3.051-7.339.051,0,0,0,.038,0,.1-.036,2.628-.154,11.575-.157,16.344a11.478,11.478,0,0,1,3.693,2.213A6.565,6.565,0,0,1,17.5,26.171a7.239,7.239,0,0,1-.15,4.132A5.636,5.636,0,0,1,15.5,33.126,6.9,6.9,0,0,1,13.33,34.5a3.914,3.914,0,0,1-.687.241,2.266,2.266,0,0,0-.63.233v4.538c0,.018,1.546.027,4.723.027,3.374,0,8.094-.01,12.258-.019H29c3.446-.007,6.7-.014,8.618-.014.162-.283.112-9.883.075-16.892v-.047c-.013-2.586-.025-4.82-.025-6.265.006-.007.008-1.5.009-2.758,0-1.138,0-2.29,0-2.733V7.514c0-.96-.005-3.038-.005-3.056l-7.745-.105v-1h9.226V9.68l-.344,31.053H38.1C30.036,40.741,23.561,40.745,18.859,40.745ZM10.32,21.954A6.084,6.084,0,1,0,16.4,28.038,6.091,6.091,0,0,0,10.32,21.954Zm4.438-11.5h0a16.992,16.992,0,0,0-.058-2.2,3.453,3.453,0,0,1,.031-.688v0c.013-.129.025-.24.027-.311l.054-.17,0-.008a2.016,2.016,0,0,1,.781-1.3,3.16,3.16,0,0,1,1.687-.357c.415,0,.855.033,1.281.064h.007c.422.031.858.063,1.26.063a4.466,4.466,0,0,0,.928-.082c.011,0,.023-.047.021-.079,0-.013,0-.029-.016-.031a3.8,3.8,0,0,0,.049-1.863,5.542,5.542,0,0,1-.049-1.3A3.024,3.024,0,0,1,22.393.3,10.2,10.2,0,0,1,24.877,0a4.742,4.742,0,0,1,.913.073c.141.029.293.053.453.078A4.716,4.716,0,0,1,27.811.6,2.273,2.273,0,0,1,28.926,2.14a5.3,5.3,0,0,1,.014,1.7,6.152,6.152,0,0,0-.014,1.619c0,.011.043.021.083.021a.159.159,0,0,0,.075-.016.453.453,0,0,0,.317.085h.1a.677.677,0,0,1,.171.016,3.153,3.153,0,0,0,.6.045c.479,0,1.068-.052,1.734-.114l.089-.008c.579-.054,1.125-.106,1.516-.106a1.043,1.043,0,0,1,.531.083,2.25,2.25,0,0,1,.926,1.273,4.828,4.828,0,0,1,.182,1.626,8.908,8.908,0,0,1-.318,2ZM24.763,2.456a.825.825,0,0,1-.31.091,1.057,1.057,0,0,0-.27.067,1.059,1.059,0,0,0-.435.426,2.112,2.112,0,0,1-.2.259A2.007,2.007,0,0,0,24,4.782a1.288,1.288,0,0,0,.963.37c.041,0,.083,0,.125,0,.059-.02.12-.037.179-.054a1.188,1.188,0,0,0,.4-.162c.311-.23.8-1.249.422-1.791a.866.866,0,0,0-.37-.458,1.9,1.9,0,0,1-.209-.174l-.216-.015-.166-.012Z" transform="translate(1348.736 561.238)" fill="#1492e6"/>
    <path id="Subtraction_93" data-name="Subtraction 93" d="M9.873.06Zm16.94,9.865c-.794,1.052-1.687,1.99-2.476,3.008-.343.511-.787.92-1.1,1.411-1.247,1.668-.234.246-1.483,1.94A92.143,92.143,0,0,0,10.48,33.745c-.205.442-.79,1.475-.79,1.475a18.287,18.287,0,0,0-.943-1.691c-.547-.977-1.109-1.99-1.791-3-1.5-2.284-3.3-4.347-4.958-6.586C1.685,23.579.3,22.393,0,22.1c.065-.005,1.933-2,2.155-2.108.317-.04,1.5.846,1.691.948,1.381.889,2.461,1.865,3.683,2.74.445.383,1.639,1.423,1.639,1.423a15.173,15.173,0,0,0,1.154-1.423A112.97,112.97,0,0,1,21.76,10.768s.013.006,1.475-1.1a9.908,9.908,0,0,1,1.475-1.124,13.923,13.923,0,0,1,2.529-.409,5.83,5.83,0,0,1,1.1,0C28.341,8.191,27.207,9.4,26.813,9.925Z" transform="translate(1368.312 560.054)" fill="#d1d1d1" fill-rule="evenodd"/>
  </g>
</svg>
