<svg xmlns="http://www.w3.org/2000/svg" width="1104" height="1148" viewBox="0 0 1104 1148">
  <g id="Group_5936" data-name="Group 5936" transform="translate(-7431 -10308)">
    <path id="Path_12314" data-name="Path 12314" d="M249.1,8.1c1.973,6.7,6.586,10.741,7.9,13v149c.008,29.8,2.547,59.017-26.9,58.9-2.825,2.2-9.17-.613-12.1-2.9-19.315-8.247-19.9-16.408-19.9-44.1V67.1c.9-14.61-2.333-38.116,2-51,3.669-5.441,10.384-8.457,14-13.1,8.35-.638,15.716-3.781,23.9-1C242.57,3.553,244.478,7.817,249.1,8.1ZM678,1c11.11.14,21.247,3.531,25.1,10,8.021,9.693,5.9,30.341,5,47V169c0,29.8,4.841,59.178-24.1,60-3.747,2.213-10.053-.647-13.9-2.9-21.7-9.474-19-20.021-19-52V67c.9-15.574-2-37.811,2.9-50.9,1.908-3.845,9.37-11.084,14-13.1C670.928,1.726,675.521,2.526,678,1ZM171.1,85.1V144c-48.569-.423-84.225-4.241-105,25.1-8.54,15.263-7.1,38.785-8,64V899c.9,12.759-2.233,41.3,1.9,51,7.354,17.257,18.76,31.365,38,39.1,7.983,4.483,21.373,2.9,32,2.9H490.1c7.38,14.2,16.048,29.4,24.9,41.1,2.81,4.9,10.092,12.52,10,15-3.341,2.97-11.911,1-17.9,1H160c-15.861.9-55.016,4.26-67-1-5.919-1.25-16.873-3.08-23.9-7-26.822-12.76-48.466-34.37-62-64C-.293,959.145.1,932.679,1,906V186c0-18.733,10.147-37.954,21-53.9C35.211,114.685,57.378,98.663,81,91c7.435-2.412,23.1-5.9,23.1-5.9ZM625,144H284V87l340-1.9S625.08,128.216,625,144ZM907.1,498c-5.971-.329-11.289-3.457-18-5-10.85-3.121-26.327-5.676-39.1-6.9v-223c0-36.3,3.688-77.811-12.9-99.1-16.669-23.842-58.324-20.223-100.1-20V87c13.129-4.359,67.1-1.9,67.1-1.9s10.77,2.544,15,3c10.128,3.34,18.451,6.169,26,9,20.645,9.619,38,29.007,48,46.9,17.779,27.7,14.9,74.082,14,119Zm-602-129H745v57.1s-16.292.9-26,0H305ZM307,539H617c0,.667-23.572,14.188-37.757,26.242-16.475,14-27.027,31-29.143,30.858H307Zm1,169.1H479c0,.887-7.113,14.206-11.793,29-3.438,10.87-6.107,29-6.107,29H308Z" transform="translate(7430.478 10307.131)" fill="#3693ff" fill-rule="evenodd"/>
    <circle id="Ellipse_420" data-name="Ellipse 420" cx="301" cy="301" r="301" transform="translate(7933 10854)" fill="#3693ff"/>
    <circle id="Ellipse_421" data-name="Ellipse 421" cx="28.5" cy="28.5" r="28.5" transform="translate(7707 10676)" fill="#3693ff"/>
    <circle id="Ellipse_422" data-name="Ellipse 422" cx="28.5" cy="28.5" r="28.5" transform="translate(7707 10846)" fill="#3693ff"/>
    <circle id="Ellipse_423" data-name="Ellipse 423" cx="29" cy="29" r="29" transform="translate(7707 11015)" fill="#3693ff"/>
    <path id="Path_12315" data-name="Path 12315" d="M793.216,680.41c12.25-1.025,23.419,8.98,27.589,16.359s3.2,21.994,2.3,40.33V834s85.123,33.476,99.9,39c10.3,3.852,30.118,10.941,34.625,18.736,7.767,9.9,9.351,23.987,2.375,33.364-3.053,5.4-9.027,7.265-13,10.9-17.278.514-28.622-3.859-40.043-9.025C901.993,924.73,831.906,897.3,811.1,889c-14.678-6.494-36.385-8.9-44-24.9-3.277-8.492-1.1-26.453-2-39.1V737.1c.9-12.4-1.646-32.185,2-43C771.463,687.446,780.966,681.435,793.216,680.41Z" transform="translate(7435.478 10307.131)" fill="#fff" fill-rule="evenodd"/>
  </g>
</svg>
