<svg xmlns="http://www.w3.org/2000/svg" width="39.307" height="37.921" viewBox="0 0 39.307 37.921">
  <g id="Group_6066" data-name="Group 6066" transform="translate(-755.875 -343.071)">
    <path id="Path_10250" data-name="Path 10250" d="M795.182,381.753v7.6c-.151.011-.3.031-.453.032q-1.809.009-3.619.011c-.191-.008-.382-.023-.574-.023l-33.661,0c-.332,0-.665-.011-1-.017q0-3.432,0-6.864a2.361,2.361,0,0,1,2.633-2.625q2.205,0,4.41,0c0,.664.006,1.328.015,1.991a1.776,1.776,0,1,0,3.55,0c.01-.664.012-1.327.018-1.991q4.522,0,9.044.005,4.465,0,8.93-.007c.005.613.008,1.226.018,1.838a3.257,3.257,0,0,0,.044.648,1.74,1.74,0,0,0,1.9,1.323,1.707,1.707,0,0,0,1.6-1.619c.03-.727.018-1.455.024-2.183,1.483-.009,2.966-.021,4.448-.024a3.027,3.027,0,0,1,1.337.274A2.631,2.631,0,0,1,795.182,381.753Z" transform="translate(0 -33.233)" fill="#3693ff"/>
    <path id="Path_10251" data-name="Path 10251" d="M790.17,478.774c1.206,0,3.412-.005,4.619-.011.151,0,.3-.021.453-.032v23.26a1.424,1.424,0,0,0-.12.192,2.085,2.085,0,0,1-2.1,1.419q-17.384,0-34.767,0a2.252,2.252,0,0,1-2.312-2.372c.2,0,.409-1.006.614-1.006q10.417,0,20.835,0a13.628,13.628,0,0,0,2.026-.063,11.964,11.964,0,0,0,3.836-1.009,11.685,11.685,0,0,0,4.775-3.975,9.732,9.732,0,0,0,1.631-3.442c.78-.048,1.935.851,1.946.307.016-.741.007-1.482,0-2.223,0-.306-1.122-.546-1.434-.652l1-3.334a.623.623,0,0,0,.582-.419.664.664,0,0,0-.249-.711c-.116-.116-1.223-.241-1.334-.363q0-.493,0-.986c.12-.13,1.237-.263,1.36-.389a.637.637,0,0,0,.218-.683.609.609,0,0,0-.581-.415Z" transform="translate(-0.06 -122.611)" fill="#e3e8f3"/>
    <path id="Path_10253" data-name="Path 10253" d="M755.883,501.25q0-5.634-.006-11.267,0-5.615,0-11.229c.332.006.665.016,1,.017l33.661,0c.191,0,.382.015.574.023l0,3.089a.875.875,0,0,0-.493.274c-.172.172-.342.345-.515.514-.414.4-.3.4-.719-.012-.183-.178-.357-.366-.544-.539a.6.6,0,0,0-.884-.054.608.608,0,0,0,.048.888c.234.252.478.5.732.73.153.14.135.233-.006.366-.26.245-.516.5-.755.761a.592.592,0,0,0-.018.858.605.605,0,0,0,.86-.035,6.248,6.248,0,0,0,.622-.622c.217-.262.368-.276.619-.013.31.325.562.742,1.053.85q0,1.667,0,3.334c-.83,0-1.66,0-2.49,0-.46,0-.649.193-.653.657q-.011,1.111,0,2.221c0,.489.183.663.677.67.651.009,1.3.011,1.953.016a9.733,9.733,0,0,1-1.631,3.442,11.684,11.684,0,0,1-4.775,3.975,11.962,11.962,0,0,1-3.836,1.009c-1.01.1-2.018.062-3.026.063q-10.417.011-20.835,0C756.293,501.245,756.088,501.248,755.883,501.25Zm7.129-17.38V482.8c0-.013,0-.026,0-.038-.014-.464-.19-.669-.644-.678q-1.149-.023-2.3,0a.558.558,0,0,0-.629.616q-.026,1.168,0,2.337c.01.432.219.614.662.62q1.111.013,2.222,0c.5-.005.68-.2.687-.711C763.017,484.585,763.013,484.228,763.013,483.87Zm-1.794,16c.383,0,.766.006,1.149,0,.444-.009.636-.19.642-.628q.014-1.149,0-2.3c-.005-.422-.2-.616-.608-.621q-1.168-.014-2.336,0c-.408,0-.61.171-.62.568q-.031,1.205,0,2.412c.011.4.215.557.624.566C760.453,499.877,760.836,499.87,761.219,499.871Zm14.268,0h1.149c.435-.016.635-.2.642-.633q.019-1.148,0-2.3a.546.546,0,0,0-.615-.617q-1.168-.013-2.335,0a.546.546,0,0,0-.621.611q-.021,1.167,0,2.335c.008.411.214.591.633.6C774.721,499.877,775.1,499.87,775.487,499.871Zm7.176-3.55c-.408,0-.817-.008-1.225,0a.535.535,0,0,0-.6.592q-.02,1.187,0,2.374c.007.388.215.575.612.579q1.168.013,2.336,0c.4,0,.606-.176.616-.574.02-.8.018-1.608,0-2.411a.529.529,0,0,0-.592-.561C783.429,496.322,783.046,496.321,782.663,496.321Zm-14.274,0c-.4,0-.791-.006-1.187,0s-.615.172-.626.564c-.021.8-.018,1.608,0,2.411a.531.531,0,0,0,.582.572q1.206,0,2.412,0a.518.518,0,0,0,.567-.545c.02-.816.019-1.633,0-2.45-.008-.362-.223-.541-.6-.55S768.773,496.321,768.39,496.32Zm16.2-6.667a.613.613,0,0,0-.3-.587.518.518,0,0,0-.611.037c-.207.169-.4.362-.585.55-.472.468-.471.469-.927.012-.117-.118-.234-.236-.352-.353q-.581-.57-1-.142c-.255.263-.2.617.146.971.215.219.427.44.652.649.133.124.137.215,0,.342-.261.245-.516.5-.758.759a.608.608,0,0,0-.043.861.59.59,0,0,0,.885-.03c.057-.051.107-.11.164-.161.255-.23.455-.656.752-.666s.495.428.752.653c.057.05.107.11.164.161a.593.593,0,0,0,.886.056.6.6,0,0,0-.042-.887c-.234-.253-.478-.5-.731-.732-.15-.139-.141-.237,0-.372.243-.226.473-.466.706-.7A.685.685,0,0,0,784.594,489.653Zm-13.526,0a1.006,1.006,0,0,0-.062-.2c-.191-.387-.632-.433-.99-.084q-.919.9-1.813,1.816c-.177.183-.289.184-.455,0-.211-.238-.443-.459-.674-.679a.608.608,0,0,0-.911-.069.6.6,0,0,0,.083.882q.6.619,1.218,1.219a.617.617,0,0,0,1.025,0c.782-.771,1.555-1.55,2.33-2.328A.711.711,0,0,0,771.068,489.649Zm14.273-7.076a1.438,1.438,0,0,0-.062-.2.581.581,0,0,0-.987-.117q-.934.906-1.841,1.842c-.166.171-.269.168-.424,0-.213-.237-.446-.456-.676-.677-.336-.322-.646-.355-.909-.1a.612.612,0,0,0,.079.912q.6.617,1.219,1.219a.61.61,0,0,0,1,.005c.791-.779,1.573-1.569,2.357-2.354A.751.751,0,0,0,785.342,482.573Zm-25.88,7.689a.524.524,0,0,0-.53.312.533.533,0,0,0,.094.639c.461.477.926.951,1.406,1.409a.55.55,0,0,0,.826,0c.847-.831,1.689-1.669,2.515-2.521a.55.55,0,0,0-.086-.866.6.6,0,0,0-.822.145c-.6.6-1.2,1.184-1.783,1.791-.191.2-.309.191-.483-.008-.21-.24-.446-.457-.673-.68A.607.607,0,0,0,759.461,490.262Zm11.607-7.672a.525.525,0,0,0-.136-.349.6.6,0,0,0-.936.047c-.6.59-1.2,1.181-1.786,1.79-.191.2-.3.192-.477-.008-.2-.232-.426-.44-.647-.653-.334-.321-.649-.352-.91-.1a.613.613,0,0,0,.081.912q.6.618,1.219,1.219a.612.612,0,0,0,1,0c.791-.78,1.573-1.569,2.358-2.356A.661.661,0,0,0,771.068,482.59Zm7.139,0a1.138,1.138,0,0,0-.035-.164.587.587,0,0,0-1.024-.16q-.935.907-1.842,1.841c-.149.152-.243.17-.392,0-.222-.246-.463-.476-.7-.705-.332-.318-.652-.344-.91-.084a.623.623,0,0,0,.1.913q.589.6,1.192,1.192a.621.621,0,0,0,1.025.01c.782-.771,1.555-1.551,2.331-2.328A.769.769,0,0,0,778.207,482.593Zm0,7.093a1.207,1.207,0,0,0-.047-.19.578.578,0,0,0-1-.138c-.6.586-1.205,1.178-1.784,1.789-.217.229-.349.209-.538-.012a8.869,8.869,0,0,0-.648-.651.584.584,0,1,0-.816.819c.417.431.84.857,1.273,1.272a.584.584,0,0,0,.938-.011c.8-.787,1.591-1.586,2.384-2.38A.7.7,0,0,0,778.206,489.686Z" transform="translate(-0.002 -122.632)" fill="#e3e8f3"/>
    <path id="Path_10254" data-name="Path 10254" d="M829.1,346.631c0-.587.005-1.173.015-1.76a1.776,1.776,0,1,1,3.552,0c.012.586.011,1.173.017,1.76-.006.664-.008,1.327-.018,1.991a1.776,1.776,0,1,1-3.55,0C829.111,347.959,829.11,347.295,829.1,346.631Z" transform="translate(-66.186)" fill="#555e6b"/>
    <path id="Path_10255" data-name="Path 10255" d="M1053.216,346.625c0-.574.006-1.147.016-1.721a1.778,1.778,0,1,1,3.554.006c.006.574.009,1.147.013,1.721-.006.728.006,1.456-.024,2.183a1.707,1.707,0,0,1-1.6,1.619,1.74,1.74,0,0,1-1.9-1.323,3.248,3.248,0,0,1-.044-.648C1053.224,347.851,1053.221,347.238,1053.216,346.625Z" transform="translate(-268.741 -0.001)" fill="#555e6b"/>
    <path id="Path_10256" data-name="Path 10256" d="M1092.114,590.746c-.651,0-1.3-.007-1.953-.016-.493-.007-.672-.181-.677-.67q-.01-1.111,0-2.222c0-.464.193-.653.653-.657.83-.007,1.66,0,2.49,0a.624.624,0,0,1,.434.652c.006.741.014,1.482,0,2.223C1093.049,590.6,1092.893,590.7,1092.114,590.746Z" transform="translate(-301.515 -220.627)" fill="#7b6df6"/>
    <path id="Path_10257" data-name="Path 10257" d="M1090.927,515.264c-.491-.108-.743-.526-1.053-.85-.251-.263-.4-.248-.619.013a6.255,6.255,0,0,1-.622.623.605.605,0,0,1-.86.035.592.592,0,0,1,.017-.858c.24-.265.5-.516.756-.761.141-.132.159-.226.006-.366-.254-.232-.5-.478-.732-.73a.608.608,0,0,1-.047-.888.6.6,0,0,1,.885.054c.187.173.361.361.544.539.421.409.305.415.719.012.174-.169.344-.342.515-.514a.876.876,0,0,1,.493-.274.609.609,0,0,1,.581.415.637.637,0,0,1-.218.683c-.124.126-.241.259-.361.389-.615.567-.613.424,0,.986.111.121.218.247.334.363a.664.664,0,0,1,.249.711A.623.623,0,0,1,1090.927,515.264Z" transform="translate(-299.815 -152.046)" fill="#fe6464"/>
    <path id="Path_10258" data-name="Path 10258" d="M1117.914,527.744c-.61-.562-.612-.419,0-.986Q1117.915,527.251,1117.914,527.744Z" transform="translate(-326.801 -166.019)" fill="#e3e8f3"/>
    <path id="Path_10259" data-name="Path 10259" d="M796.374,515.025c0,.357,0,.715,0,1.073-.006.51-.19.706-.687.711q-1.111.011-2.222,0c-.443-.005-.652-.188-.662-.62q-.027-1.168,0-2.337a.558.558,0,0,1,.629-.616q1.149-.023,2.3,0c.455.009.63.214.644.678,0,.013,0,.026,0,.038Z" transform="translate(-33.363 -153.786)" fill="#7b6df6"/>
    <path id="Path_10260" data-name="Path 10260" d="M794.6,664.894c-.383,0-.766.006-1.149,0-.409-.009-.613-.17-.624-.566q-.033-1.205,0-2.412c.01-.4.213-.564.62-.568q1.168-.012,2.336,0c.413,0,.6.2.608.62q.014,1.149,0,2.3c-.005.438-.2.619-.642.628C795.365,664.9,794.982,664.894,794.6,664.894Z" transform="translate(-33.381 -287.655)" fill="#7b6df6"/>
    <path id="Path_10261" data-name="Path 10261" d="M942.9,664.893c-.383,0-.766.006-1.148,0-.419-.009-.625-.189-.633-.6q-.023-1.167,0-2.335a.546.546,0,0,1,.621-.611q1.167-.013,2.335,0a.546.546,0,0,1,.615.617q.021,1.148,0,2.3c-.007.438-.206.617-.642.633H942.9Z" transform="translate(-167.416 -287.655)" fill="#7b6df6"/>
    <path id="Path_10262" data-name="Path 10262" d="M1017.122,661.355c.383,0,.766,0,1.149,0a.529.529,0,0,1,.592.561c.019.8.021,1.608,0,2.412-.01.4-.213.57-.616.574q-1.168.013-2.336,0c-.4,0-.6-.191-.612-.579q-.023-1.187,0-2.374a.535.535,0,0,1,.6-.592C1016.3,661.347,1016.714,661.355,1017.122,661.355Z" transform="translate(-234.46 -287.666)" fill="#7b6df6"/>
    <path id="Path_10263" data-name="Path 10263" d="M868.792,661.356c.383,0,.766-.007,1.149,0s.593.188.6.55c.017.816.018,1.634,0,2.45a.518.518,0,0,1-.567.545q-1.206,0-2.412,0a.53.53,0,0,1-.582-.572c-.017-.8-.02-1.608,0-2.411.01-.392.217-.556.626-.564S868.4,661.356,868.792,661.356Z" transform="translate(-100.404 -287.668)" fill="#7b6df6"/>
    <path id="Path_10264" data-name="Path 10264" d="M1017.429,585.778a.684.684,0,0,1-.24.418c-.233.237-.462.478-.706.7-.145.135-.154.233,0,.372.253.234.5.479.731.732a.6.6,0,0,1,.042.887.593.593,0,0,1-.886-.056c-.057-.051-.107-.111-.164-.161-.257-.224-.452-.662-.751-.652s-.5.435-.752.666c-.057.051-.107.11-.164.161a.59.59,0,0,1-.885.03.608.608,0,0,1,.043-.861c.243-.262.5-.514.758-.759.135-.127.132-.218,0-.342-.224-.209-.437-.43-.652-.649-.348-.354-.4-.708-.146-.971q.415-.428,1,.142c.118.116.235.235.352.353.456.457.455.456.927-.012.19-.188.379-.38.585-.55a.518.518,0,0,1,.611-.037A.613.613,0,0,1,1017.429,585.778Z" transform="translate(-232.836 -218.756)" fill="#fe6464"/>
    <path id="Path_10265" data-name="Path 10265" d="M866.232,587.139a.711.711,0,0,1-.249.556c-.775.777-1.548,1.557-2.33,2.328a.617.617,0,0,1-1.025,0q-.617-.6-1.218-1.219a.6.6,0,0,1-.083-.882.608.608,0,0,1,.911.069c.231.22.463.441.674.679.165.187.278.186.455,0q.891-.923,1.813-1.816c.358-.349.8-.3.99.084A1.016,1.016,0,0,1,866.232,587.139Z" transform="translate(-95.166 -220.122)" fill="#5db531"/>
    <path id="Path_10266" data-name="Path 10266" d="M1014.578,513.437a.751.751,0,0,1-.248.524c-.785.786-1.566,1.575-2.357,2.354a.61.61,0,0,1-1-.005q-.618-.6-1.219-1.219a.612.612,0,0,1-.079-.912c.263-.252.574-.22.909.1.23.221.464.44.676.677.155.172.257.175.424,0q.906-.935,1.841-1.842a.581.581,0,0,1,.987.117A1.451,1.451,0,0,1,1014.578,513.437Z" transform="translate(-229.239 -153.496)" fill="#5db531"/>
    <path id="Path_10267" data-name="Path 10267" d="M787.549,587.712a.607.607,0,0,1,.465.22c.228.223.464.44.673.68.174.2.292.206.483.008.583-.608,1.187-1.2,1.783-1.792a.6.6,0,0,1,.822-.145.55.55,0,0,1,.086.866c-.825.853-1.667,1.69-2.515,2.521a.55.55,0,0,1-.826,0c-.48-.458-.945-.932-1.406-1.409a.533.533,0,0,1-.094-.639A.525.525,0,0,1,787.549,587.712Z" transform="translate(-28.09 -220.082)" fill="#5db531"/>
    <path id="Path_10268" data-name="Path 10268" d="M866.266,513.451a.662.662,0,0,1-.236.5c-.785.787-1.567,1.576-2.358,2.356a.612.612,0,0,1-1,0q-.619-.6-1.219-1.219a.613.613,0,0,1-.081-.912c.262-.254.576-.223.91.1.221.212.448.421.647.653.172.2.285.208.477.008.583-.609,1.184-1.2,1.786-1.79a.6.6,0,0,1,.936-.047A.527.527,0,0,1,866.266,513.451Z" transform="translate(-95.199 -153.493)" fill="#5db531"/>
    <path id="Path_10269" data-name="Path 10269" d="M940.443,513.484a.77.77,0,0,1-.261.52c-.776.777-1.549,1.557-2.331,2.328a.621.621,0,0,1-1.025-.01q-.6-.588-1.192-1.192a.623.623,0,0,1-.1-.913c.257-.26.577-.234.91.084.24.229.481.459.7.705.149.165.244.148.392,0q.91-.932,1.842-1.841a.587.587,0,0,1,1.024.16A1.153,1.153,0,0,1,940.443,513.484Z" transform="translate(-162.238 -153.523)" fill="#5db531"/>
    <path id="Path_10270" data-name="Path 10270" d="M940.418,587.2a.7.7,0,0,1-.239.5c-.793.795-1.583,1.593-2.384,2.38a.584.584,0,0,1-.938.011c-.433-.415-.855-.841-1.273-1.272A.585.585,0,1,1,936.4,588a8.844,8.844,0,0,1,.648.651c.19.22.322.241.538.012.579-.611,1.179-1.2,1.784-1.789a.578.578,0,0,1,1,.138A1.186,1.186,0,0,1,940.418,587.2Z" transform="translate(-162.214 -220.143)" fill="#5db531"/>
  </g>
</svg>
