<svg xmlns="http://www.w3.org/2000/svg" width="21.041" height="21.036" viewBox="0 0 21.041 21.036">
  <path id="Path_2861" data-name="Path 2861" d="M9.059,8.007l2.409-2.42V15.677a1.052,1.052,0,1,0,2.1,0V5.587l2.409,2.42a1.056,1.056,0,1,0,1.494-1.494L13.268,2.3a1.088,1.088,0,0,0-1.494,0L7.565,6.513A1.056,1.056,0,0,0,9.059,8.007Zm12.93,6.617a1.052,1.052,0,0,0-1.052,1.052v4.208a1.052,1.052,0,0,1-1.052,1.052H5.156A1.052,1.052,0,0,1,4.1,19.885V15.677a1.052,1.052,0,1,0-2.1,0v4.208a3.156,3.156,0,0,0,3.156,3.156H19.885a3.156,3.156,0,0,0,3.156-3.156V15.677A1.052,1.052,0,0,0,21.989,14.625Z" transform="translate(-2 -2.005)" fill="#3693ff"/>
</svg>
