<svg xmlns="http://www.w3.org/2000/svg" width="24.03" height="24.03" viewBox="0 0 24.03 24.03">
  <g id="Icon_feather-eye-off" data-name="Icon feather-eye-off" transform="translate(3 2.982)">
    <path id="Path_188" data-name="Path 188" d="M15.386,17.427a8.255,8.255,0,0,1-4.869,1.689c-5.738,0-9.017-6.558-9.017-6.558A15.124,15.124,0,0,1,5.648,7.689M8.8,6.2A7.476,7.476,0,0,1,10.517,6c5.738,0,9.017,6.558,9.017,6.558a15.165,15.165,0,0,1-1.771,2.615M12.255,14.3A2.459,2.459,0,1,1,8.779,10.82" transform="translate(-1.5 -3.541)" fill="none" stroke="#6e6e6e" stroke-linecap="round" stroke-linejoin="round" stroke-width="2"/>
    <path id="Path_189" data-name="Path 189" d="M1.5,1.5,19.534,19.534" transform="translate(-1.5 -1.5)" fill="none" stroke="#6e6e6e" stroke-linecap="round" stroke-linejoin="round" stroke-width="2"/>
    <rect id="Rectangle_3550" data-name="Rectangle 3550" width="24.03" height="24.03" transform="translate(-3 -2.982)" fill="none"/>
  </g>
</svg>
