<svg xmlns="http://www.w3.org/2000/svg" width="21.041" height="23.036" viewBox="0 0 21.041 23.036">
  <g id="Group_4020" data-name="Group 4020" transform="translate(-29.365 -11.229)">
    <path id="Path_2863" data-name="Path 2863" d="M21.989,14.625a1.052,1.052,0,0,0-1.052,1.052v4.208a1.052,1.052,0,0,1-1.052,1.052H5.156A1.052,1.052,0,0,1,4.1,19.885V15.677a1.052,1.052,0,1,0-2.1,0v4.208a3.156,3.156,0,0,0,3.156,3.156H19.885a3.156,3.156,0,0,0,3.156-3.156V15.677A1.052,1.052,0,0,0,21.989,14.625Z" transform="translate(27.365 11.225)" fill="#3693ff"/>
    <path id="Path_2864" data-name="Path 2864" d="M9.086,8.043l2.445-2.434v10.15a1.068,1.068,0,0,0,2.136,0V5.609l2.445,2.434a1.074,1.074,0,0,0,1.516,0,1.052,1.052,0,0,0,0-1.5L13.357,2.307a1.11,1.11,0,0,0-1.516,0L7.57,6.54a1.056,1.056,0,0,0,0,1.5A1.079,1.079,0,0,0,9.086,8.043Z" transform="translate(52.564 28.047) rotate(180)" fill="#3693ff"/>
  </g>
</svg>
