<svg xmlns="http://www.w3.org/2000/svg" width="26.97" height="27.016" viewBox="0 0 26.97 27.016">
  <path id="_8" data-name="8" d="M33.12,31.654a13.472,13.472,0,0,0,.227-17.295h0A13.49,13.49,0,0,0,22.881,9.35h0A13.494,13.494,0,0,0,12.44,14.3l0,0v.03a13.466,13.466,0,0,0,.227,17.295.334.334,0,0,1,.03.048h.036a13.472,13.472,0,0,0,10.15,4.693h0a13.484,13.484,0,0,0,10.174-4.64h.036ZM10.6,23.454h4.264a15.923,15.923,0,0,0,1.193,5.367,13.27,13.27,0,0,0-1.407.65,10.269,10.269,0,0,0-1.461.96A12.232,12.232,0,0,1,10.6,23.454Zm2.332-7.818a9.351,9.351,0,0,0,1.294.936,13.12,13.12,0,0,0,1.64.817,15.774,15.774,0,0,0-1,4.872H10.6a12.244,12.244,0,0,1,2.332-6.626Zm22.239,6.626H30.9v-.6a13.311,13.311,0,0,0-.745-4.377,10.532,10.532,0,0,0,2.654-1.634,12.244,12.244,0,0,1,2.356,6.608Zm-5.433-.6v.6H23.477V18.683a19.155,19.155,0,0,0,5.594-.972,12.315,12.315,0,0,1,.662,3.954ZM23.477,17.49V10.93A12.369,12.369,0,0,1,28.642,16.6a18.052,18.052,0,0,1-5.165.895Zm-1.193,0A18.136,18.136,0,0,1,17.43,16.7a13.12,13.12,0,0,1,4.854-5.773Zm0,1.193v3.578H16.052a14.724,14.724,0,0,1,.918-4.461,19.132,19.132,0,0,0,5.314.883Zm-6.232,4.771h6.232v4.175a19.448,19.448,0,0,0-5.093.805A14.766,14.766,0,0,1,16.052,23.454Zm6.232,5.367v5.862A12.84,12.84,0,0,1,17.7,29.525a18.01,18.01,0,0,1,4.586-.7Zm1.193,5.815V28.822a18.625,18.625,0,0,1,4.216.6,15.249,15.249,0,0,1-4.216,5.236Zm0-7.007V23.454h6.131a18.189,18.189,0,0,1-1.4,4.9A19.466,19.466,0,0,0,23.477,27.629Zm7.329-4.175h4.359a12.232,12.232,0,0,1-2.612,7,9.506,9.506,0,0,0-1.014-.71,12.923,12.923,0,0,0-2.183-1.02A19.758,19.758,0,0,0,30.806,23.454Zm1.282-8.749a9.291,9.291,0,0,1-2.338,1.461A13.6,13.6,0,0,0,25.493,10.8a12.345,12.345,0,0,1,6.6,3.906ZM20.459,10.787a15.052,15.052,0,0,0-4.139,5.51,10.663,10.663,0,0,1-1.479-.728,7.86,7.86,0,0,1-1.193-.847,12.327,12.327,0,0,1,6.811-3.936ZM13.989,31.356a10.64,10.64,0,0,1,1.246-.817,11.928,11.928,0,0,1,1.336-.6,14.867,14.867,0,0,0,3.99,5.01,12.3,12.3,0,0,1-6.572-3.6Zm11,3.62a16.758,16.758,0,0,0,3.853-5.165,11.927,11.927,0,0,1,2.057.954,10.008,10.008,0,0,1,.853.6A12.309,12.309,0,0,1,24.992,34.976Z" transform="translate(-9.407 -9.35)" fill="#3693ff"/>
</svg>
