<svg xmlns="http://www.w3.org/2000/svg" width="25.15" height="19.914" viewBox="0 0 25.15 19.914">
  <path id="Icon_awesome-user-tag" data-name="Icon awesome-user-tag" d="M24.782,14.193l-3.549-3.508a2.529,2.529,0,0,0-1.78-.727H16.337A1.25,1.25,0,0,0,15.079,11.2v3.081a2.468,2.468,0,0,0,.735,1.758l3.549,3.508a1.269,1.269,0,0,0,1.78,0l3.635-3.6a1.229,1.229,0,0,0,0-1.758ZM17.6,13.376a.934.934,0,1,1,.943-.934A.936.936,0,0,1,17.6,13.376ZM8.8,9.953a5,5,0,0,0,5.03-4.979,5.031,5.031,0,0,0-10.061,0A5,5,0,0,0,8.8,9.953Zm5.022,4.325V11.435a5.337,5.337,0,0,0-1.5-.241h-.656a6.906,6.906,0,0,1-5.73,0H5.282A5.262,5.262,0,0,0,0,16.426v1.618a1.877,1.877,0,0,0,1.886,1.867H15.72a1.885,1.885,0,0,0,1.489-.735L14.93,16.92a3.69,3.69,0,0,1-1.1-2.641Z" fill="#3693ff"/>
</svg>
