<svg xmlns="http://www.w3.org/2000/svg" width="32.878" height="28.181" viewBox="0 0 32.878 28.181">
  <path id="Path_2865" data-name="Path 2865" d="M92.181,36.7a4.7,4.7,0,1,0-7.045,4.065v3.877L78.09,48.162l-7.045-3.523V40.762a4.7,4.7,0,1,0-4.7,0v6.78l9.394,4.7v3.877a4.7,4.7,0,1,0,4.7,0V52.239l9.394-4.7v-6.78A4.7,4.7,0,0,0,92.181,36.7ZM68.7,34.348A2.348,2.348,0,1,1,66.348,36.7,2.348,2.348,0,0,1,68.7,34.348ZM78.09,62.529a2.348,2.348,0,1,1,2.348-2.348A2.348,2.348,0,0,1,78.09,62.529Zm9.394-23.484A2.348,2.348,0,1,1,89.833,36.7,2.348,2.348,0,0,1,87.484,39.045Z" transform="translate(64.878 -64) rotate(90)" fill="#3693ff"/>
</svg>
