<svg xmlns="http://www.w3.org/2000/svg" width="63.375" height="62.698" viewBox="0 0 63.375 62.698">
  <g id="Group_4035" data-name="Group 4035" transform="translate(-881.762 -601.073)">
    <path id="Path_3580" data-name="Path 3580" d="M15.119,37.089l11.97,11.849L49.059,27.2,37.083,15.359,15.119,37.089ZM62.977,20.825l-5.093-5.042a6.877,6.877,0,0,1-8.095-1.15,6.7,6.7,0,0,1-1.165-8.008L43.531,1.582a3.454,3.454,0,0,0-4.827,0L1.592,38.3a3.366,3.366,0,0,0,0,4.776l5.1,5.036a6.877,6.877,0,0,1,8.1,1.148,6.7,6.7,0,0,1,1.158,8.016l5.1,5.036a3.447,3.447,0,0,0,4.827,0L62.977,25.6a3.359,3.359,0,0,0,0-4.776ZM27.088,54.357,9.641,37.089,37.086,9.94,54.533,27.2,27.088,54.357Z" transform="translate(881.164 600.474)" fill="#f5a200"/>
    <circle id="Ellipse_603" data-name="Ellipse 603" cx="7" cy="7" r="7" transform="translate(888 604)" fill="#3693ff"/>
  </g>
</svg>
