<svg xmlns="http://www.w3.org/2000/svg" width="30.677" height="24.289" viewBox="0 0 30.677 24.289">
  <path id="Icon_awesome-network-wired" data-name="Icon awesome-network-wired" d="M30.677,12.524v-.759a.763.763,0,0,0-.767-.759H16.489v-1.9H19.94A1.526,1.526,0,0,0,21.474,7.59V1.518A1.526,1.526,0,0,0,19.94,0h-9.2A1.526,1.526,0,0,0,9.2,1.518V7.59a1.526,1.526,0,0,0,1.534,1.518h3.451v1.9H.767A.763.763,0,0,0,0,11.765v.759a.763.763,0,0,0,.767.759H5.752v1.9H3.068A1.526,1.526,0,0,0,1.534,16.7v6.072a1.526,1.526,0,0,0,1.534,1.518h7.669a1.526,1.526,0,0,0,1.534-1.518V16.7a1.526,1.526,0,0,0-1.534-1.518H8.053v-1.9H22.624v1.9H19.94A1.526,1.526,0,0,0,18.406,16.7v6.072a1.526,1.526,0,0,0,1.534,1.518h7.669a1.526,1.526,0,0,0,1.534-1.518V16.7a1.526,1.526,0,0,0-1.534-1.518H24.925v-1.9H29.91A.763.763,0,0,0,30.677,12.524ZM10.737,7.59V1.518h9.2V7.59Zm0,15.181H3.068V16.7h7.669Zm16.872,0H19.94V16.7h7.669Z" fill="#989800"/>
</svg>
