<svg xmlns="http://www.w3.org/2000/svg" width="67.673" height="77.94" viewBox="0 0 67.673 77.94">
  <path id="Path_3578" data-name="Path 3578" d="M32.35,0C44.805.1,52.013,5.446,55.7,14.012a33.412,33.412,0,0,1,1.494,5.6v1.868c.315.783,1.86,1.244,2.242,2.616.645,2.317-.141,9.035-.561,10.649-.649.437-1.261,1.233-2.055,1.495-1.212.4-3.1-.607-3.363-.373-1.088.35-1.973,1.242-2.989,1.681l-3.55,1.121L43,39.233c-.155.112-.187.623-.374.747-.728.484-4.277.93-5.231.187a1.481,1.481,0,0,1-1.121-1.121c-.468-.594-.267-.989-.187-1.868.411-.311.42-.53.934-.747.584-.474,3.871-.769,5.044-.373.542.126.633.811.934.934.687.282,1.8-.259,2.242-.373,2.113-.437,6.539-1.17,6.726-3.363-.464-.618-.348-8.615,0-9.528.366-.959,1.513-1.27,1.868-1.868V19.99c-.783-1.243-.881-3.817-1.495-5.231A20.307,20.307,0,0,0,41.878,4.671c-3.258-1.365-9.129-1.905-12.891-.56C21.94,6.629,15.319,12.4,15.349,21.859c2.934.966,3.083,12.832.187,13.825-.658.616-1.745.593-3.176.56-.852-.793-1.944-1.063-2.429-2.242-.5-1.214-.487-9.233,0-10.462.366-.835,1.74-1.284,2.055-2.055V19.617l1.121-4.671A25.126,25.126,0,0,1,23.383,2.8,25.372,25.372,0,0,1,29.174.56C30.135.276,31.549.495,32.35,0ZM33.1,5.791c8.475-.146,12.886,3.432,16.067,8.594.517.838,2.709,5.076,2.055,6.165a13.368,13.368,0,0,0-1.681,2.616c-.723,2.194-.192,7.036-.187,9.715-1.448.35-2.9,1.159-4.484,1.495-1.309.278-2.206-.7-3.176-.934-4.447-1.083-7.546,1.2-8.221,4.11-.2.849.3,1.571.374,2.055.963,2.654,2.507,3.307,6.165,3.176h2.429c.792-.226,1.289-1.038,1.868-1.308,1.072-.441,2.486-.243,3.363-.561v.374c-.9.7-1.366,2.025-2.055,2.8a18.065,18.065,0,0,1-6.352,5.044c-8.451,3.593-14.4-3.395-17.561-8.221a18.143,18.143,0,0,1-2.616-4.671c-.282-1.045.624-1.893.747-2.615a54,54,0,0,0-.187-10.462,8.592,8.592,0,0,0-1.868-2.8c.785-1.167.908-3.715,1.495-5.044A17.7,17.7,0,0,1,26,8.034a19.52,19.52,0,0,1,4.857-1.868C31.628,5.953,32.516,6.157,33.1,5.791ZM20.02,50.63h1.308c2.527,5.1,15.385,6.4,21.859,3.736a12.934,12.934,0,0,0,3.55-2.055c.349-.333.741-1.474,1.121-1.681h1.308c.7.422,2.021-.024,2.989.187,2.348.51,4.882.451,6.913,1.308,4.516,1.9,7.055,6.862,8.781,11.583,1.229,3.382.316,7.008-1.868,8.594-3.3,2.4-7.451,2.793-12.143,3.923-2.96.713-6.691.618-9.9,1.308H40.2a40.006,40.006,0,0,1-11.4,0h-3.55c-3.206-.7-6.945-.58-9.9-1.308-5.175-1.274-11.309-1.82-13.825-5.6C-.93,66.929,2.91,59.276,4.513,56.982c2.139-3.061,4.958-4.729,9.155-5.792C15.264,50.786,18.811,51.358,20.02,50.63Z" transform="translate(-0.726)" fill="gray"/>
</svg>
