<svg xmlns="http://www.w3.org/2000/svg" width="32.212" height="23.186" viewBox="0 0 32.212 23.186">
  <path id="Icon_material-devices-other" data-name="Icon material-devices-other" d="M4.428,8.9H30.784V6H4.428A2.922,2.922,0,0,0,1.5,8.9v17.39a2.922,2.922,0,0,0,2.928,2.9h5.857v-2.9H4.428ZM19.07,17.593H13.213v2.579a4.266,4.266,0,0,0,0,6.434v2.579H19.07V26.607a4.266,4.266,0,0,0,0-6.434Zm-2.928,7.97a2.174,2.174,0,1,1,2.2-2.174A2.182,2.182,0,0,1,16.142,25.563ZM32.248,11.8H23.463A1.567,1.567,0,0,0,22,13.246V27.737a1.567,1.567,0,0,0,1.464,1.449h8.785a1.567,1.567,0,0,0,1.464-1.449V13.246A1.567,1.567,0,0,0,32.248,11.8ZM30.784,26.288H24.927V14.695h5.857Z" transform="translate(-1.5 -6)" fill="#a52e52"/>
</svg>
