<svg xmlns="http://www.w3.org/2000/svg" width="619.864" height="379.552" viewBox="0 0 3508 2148">
  <defs>
    <style>
      .cls-1 {
        fill: #fff;
        fill-rule: evenodd;
      }
    </style>
  </defs>
  <path id="Color_Fill_1" data-name="Color Fill 1" class="cls-1" d="M1389,250h81v872h-81V250ZM302,477c74.448-1.755,115.669,25.313,157,56,8.017,5.953,29.8,20.054,33,29-6.782,4.483-11.318,12.317-17,18-11.042,11.044-25.324,21.895-34,35h-1v-1c-10.964-7.189-19.407-18.384-30-26a209.221,209.221,0,0,0-77-35c-12.128-2.857-30.989-2.025-42,1-38.633,10.613-87.653,52.026-70,107,20.236,63.02,87.891,82.339,140,114,44.642,27.125,95.3,56.237,117,106,7.683,17.616,10.324,36.374,15,58,1.758,8.129.434,22.434-1,29q-0.5,8.5-1,17c-3.313,13.927-7.111,27.47-12,39-24.243,57.15-63.864,89.36-127,108-25.114,7.42-68.267,9.34-96,2-40.506-10.72-73.542-24.56-102-47-14.9-11.75-25.683-24.69-37-38q25.5-28.995,51-58h1v1c31.947,29.96,54.543,54.38,105,67,64.505,16.14,120.978-29.94,137-70,5.938-14.845,7.383-42.194,2-59-20.844-65.072-99.96-86.92-154-120-42.947-26.289-82.613-56.06-103-105-5.27-12.651-6.848-27.7-10-42V645c-2.858-15.166,1.642-39.527,6-53,7.682-23.752,20.532-42.155,34-60,15.413-20.422,48.842-39.221,76-48l30-6C295.627,477.18,299.6,478.5,302,477Zm635,0c115.63-2.317,206.34,32.327,263,89,11.03,11.035,42.35,41.742,45,58-16.99,7.818-32.69,19.94-48,30-2.84,1.865-14.64,9.306-16,8-13.62-12.73-23.03-30.675-38-42-23.97-18.138-48.01-35.622-78-48-21.01-8.672-44.73-11.328-69-17-28.3-6.614-82.754-1.34-106,5-13.016,3.55-24.382,4.216-36,9-69.626,28.674-122.363,76.518-151,146-7.1,17.231-9.387,36.388-14,56-1.826,7.762-1.429,16.8-2,24-0.919,11.574.2,25.731,1,35a237.364,237.364,0,0,0,5,33,228.788,228.788,0,0,0,28,69c36.808,60.164,77.107,96.04,150,120,16.6,5.46,34.776,7.22,53,10,35.891,5.48,72.125-.78,78-2,14.86-3.59,29.96-5.32,44-10,30.7-10.24,58.19-25.53,82-43,6.1-4.47,11.03-11.482,17-16,13.08-9.895,27.53-23.729,36-38,17.34,8.225,32.17,21.967,48,32,5.35,3.394,14.22,5.224,16,12-5,4.75-7.86,11.36-12,17-7.38,10.06-24.3,29.65-34,37-20.72,15.68-41.11,31.06-64,45-30.08,18.31-67.76,26.11-106,36l-29,3c-41.675,9.2-116.122,1.34-150-9-115.949-35.39-193.826-106.75-231-221-9.092-27.943-12.991-59.26-13-97q0.5-15.5,1-31c4.793-20.938,5.631-41.863,12-61,35.178-105.7,103.2-174.865,203-216,22.755-9.38,48.258-12.72,74-19ZM2257,813H1691c2.37,26.08,2.85,52.057,10,74,23.73,72.791,64.83,126.83,132,156,34.35,14.92,94.67,28.76,144,16,22.64-5.86,44.18-11.3,64-20,36.85-16.16,69.69-43.046,92-74,8.47-11.752,17.35-23.9,25-36,3.35-5.3,5.4-14.13,11-17,6.23,5.677,15.25,7.8,23,12,14.26,7.733,29.86,15.628,44,24-39.97,87.9-109.03,147.5-206,179-18.94,6.15-45.17,9.48-68,10-33.98.78-71.46,2.66-101-5-26.83-6.96-51.77-13.79-75-24-8.65-3.8-17.24-10.16-25-15-64.55-40.27-106.6-98.4-135-175-17.57-47.387-26.25-129.716-10-187,30.79-108.58,91.02-189.014,188-231,68.77-29.776,180.54-29.735,250-1C2170.44,547.17,2256.44,649.47,2257,813Zm203,309h-83V493h83v91h1c25.45-43.3,66.38-80.5,117-99,18.88-6.9,50.3-11.641,74-5,15.71,4.4,29.51,11.554,43,18-0.63,1.754-.19.971-1,2-1.39,4.7-4.75,7.433-7,11-8.28,13.114-15.98,26.307-24,39-3.4,5.376-5.26,14.151-11,17-9.96-8.977-44.89-13.986-63-9-34.58,9.518-58.56,29.282-77,55-19.29,26.9-31.59,58.579-41,96-5.8,23.041-2.81,48.977-8,73q-1.005,34-2,68v22c-4.53,21.055-1,58.114-1,82v168Zm851-629h80v629h-80V1015h-1c-7.04,10.66-17.11,19.11-26,28-33.58,33.58-71.03,58.32-119,78-16.14,6.62-32.54,7.5-51,12-26.9,6.56-83.74,8.13-112,1-18.97-4.78-38.76-7.89-56-15-79.41-32.73-136.63-87.13-175-161-13.45-25.9-21.63-54.665-30-87-3.56-13.765-.77-26.962-4-42-1.9-8.822-3.32-35.774-1-46,2.03-8.964.68-19.367,3-29,5.01-20.772,7.36-42.4,15-61,39.23-95.547,103.35-159.841,199-199,17.76-7.271,38.26-9.223,58-14,14.02-3.391,53.86-5.424,69-2h13c17.1,3.911,35.03,3.8,51,9,35.95,11.707,67.39,26.14,95,46,7.5,5.392,13.73,13.5,21,19,15.75,11.916,28.23,27.083,40,43,3.19,4.313,8.04,7.3,10,13h1V493ZM1700,743h468v-1c-3.45-4.631-2.98-11.867-5-18-4.37-13.3-9.39-27.18-15-40-18.29-41.811-50.53-73.188-88-96-18.33-11.159-40.86-19.353-63-26-12.1-3.635-25.41-4.246-38-7-25.15-5.5-65.8.275-85,6-10.89,3.248-20.06,3.937-30,8-37,15.124-72.76,38.906-95,69-7.77,10.507-12.99,21.477-20,33C1718.06,688.974,1703.14,718.862,1700,743ZM3052,555a213.64,213.64,0,0,0-27,3c-18.94,3.456-36.65,8.072-53,15-66.65,28.25-111.3,78.713-139,146-6.22,15.1-8.83,32.4-13,49-7.31,29.123-1.34,79.273,6,103,24.29,78.525,65.89,136.76,137,168,14.33,6.29,30.52,13.02,47,18,13.62,4.11,26.62,1.69,42,5,6.77,1.45,21.69,2.88,30,1,19.71-4.46,39.37-4.14,57-10,74.01-24.6,128.11-70.3,158-139,8.32-19.12,11.64-40.786,17-63q0.495-10,1-20c2.29-10.618,2.41-31.394,0-42q-0.495-10-1-20c-5.12-21.462-9.4-42.213-17-60C3257.64,616.9,3183.92,555.184,3052,555Zm-520,863c57.72-.7,95.82,22.82,120,55,5.52,7.35,10.46,15.65,17,22-0.63,1.75-.19.97-1,2-3.63,5.19-21.18,17.82-27,22-2.41,1.73-9.68,7.13-11,6-20.89-20.26-31.21-44.59-63-55-47.91-15.69-103.52,22.65-88,75,10.28,34.68,37.77,53.16,64,72,38.1,27.37,78.61,56.8,106,95,11.23,15.67,35.97,56.03,29,88-2.77,12.7-3.52,25.06-8,36-14.24,34.81-43.11,61.8-78,76-8.5,3.46-18.84,4.91-28,7-9.68,2.21-25.77,2.04-35,0-9.17-2.02-15.81-.55-24-3-36.18-10.83-61.13-30.87-81-58-8.55-11.67-21.76-24.74-26-40q20.505-12,41-24c2.8,10.42,11.38,19.03,17,27,15.49,21.99,33.21,41.44,62,50,31.75,9.44,75.57-9.56,88-26,5.98-7.91,9.8-14.98,14-25,3.38-8.08,9.01-22.55,6-36-12.22-54.67-62.59-89.66-102-118-15.8-11.37-29.62-26.39-45-38-9.46-7.14-20.2-16.32-27-26-14.84-21.11-32.11-58.62-22-97a132.979,132.979,0,0,1,22-46c11.6-15.59,32.21-27.73,52-35C2511,1421.43,2526.16,1421.64,2532,1418ZM835,1430h52q78.991,184.485,158,369h1c1.11-9.14,7.69-17.52,11-25,8.27-18.69,16.09-37.08,24-55,28.81-65.25,56.68-130.39,85-195,10.51-23.97,20.8-47.71,31-71,1.66-3.79,6.8-21.42,9-23h52v2c-6.82,9.17-9.19,22.08-14,33-12.29,27.91-24.39,56.32-37,85-35.7,81.17-72.48,163.7-108,245-12.52,28.66-24.78,57.02-37,85-1.42,3.26-10.12,27.36-11,28h-11Q937.51,1669.02,835,1430Zm504,0h94c115.42,0,203.9,14.58,253,80,10.53,14.02,23.29,28.13,31,45,8.45,18.49,14.44,38.7,20,60q1.005,9.495,2,19c7.57,33.29,3.02,88.12-6,116-10.86,33.57-26.09,60.78-45,86-24.17,32.23-62.67,51.77-107,64-30.93,8.53-67.91,8-106,8H1339V1430Zm542,0h9q96.495,195.48,193,391h1v-1c8.4-9.51,12.63-24.85,18-37,8.46-19.14,19.2-37.08,28-57,7.71-17.47,19.29-34.53,27-52,22.71-51.49,48.29-101.71,74-151,12.32-23.63,23.08-47.87,35-71,4.68-9.09,3.92-22,18-22q34.5,238.98,69,478h-47v-1h-1q-22.995-169.98-46-340h-1v1q-64.5,129.48-129,259l-39,81h-13q-59.49-120.495-119-241c-11.32-21.77-21.49-44.84-33-67-5.82-11.21-14.55-23.23-18-36h-1q-22.995,171.99-46,344h-47v-1c5.41-8.98,3.19-30.22,6-42,5.88-24.67,6.16-53.32,12-78q1.005-10.5,2-21c9.68-40.65,9.38-86.29,19-127q1.995-17.505,4-35c6.43-27.1,5.33-56.82,12-85,3.66-15.46,3.1-32.48,7-49A235.028,235.028,0,0,0,1881,1430Zm-496,47v386c109.12,1.07,218.55,3.71,265-58,15.57-20.68,28.19-42.12,37-70,4.69-14.85,9.77-49.55,6-67q-0.495-13.005-1-26c-6.01-26.08-10.85-51.04-23-71-17.92-29.43-43.2-56.7-76-71C1539.22,1476.55,1462.46,1477.17,1385,1477Z"/>
</svg>
