<svg xmlns="http://www.w3.org/2000/svg" width="3274" height="889.072" viewBox="0 0 3274 889.072">
  <path id="Color_Fill_1" data-name="Color Fill 1" d="M1389,250h81v872h-81ZM302,477c74.448-1.755,115.669,25.313,157,56,8.017,5.953,29.8,20.054,33,29-6.782,4.483-11.318,12.317-17,18-11.042,11.044-25.324,21.9-34,35h-1v-1c-10.964-7.189-19.407-18.384-30-26a209.222,209.222,0,0,0-77-35c-12.128-2.857-30.989-2.025-42,1-38.633,10.613-87.653,52.026-70,107,20.236,63.02,87.891,82.339,140,114,44.642,27.125,95.3,56.237,117,106,7.683,17.616,10.324,36.374,15,58,1.758,8.129.434,22.434-1,29l-1,17c-3.313,13.927-7.111,27.47-12,39-24.243,57.15-63.864,89.36-127,108-25.114,7.42-68.267,9.34-96,2-40.506-10.72-73.542-24.56-102-47-14.9-11.75-25.683-24.69-37-38q25.5-28.995,51-58h1v1c31.947,29.96,54.543,54.38,105,67,64.505,16.14,120.978-29.94,137-70,5.938-14.845,7.383-42.194,2-59-20.844-65.072-99.96-86.92-154-120-42.947-26.289-82.613-56.06-103-105-5.27-12.651-6.848-27.7-10-42V645c-2.858-15.166,1.642-39.527,6-53,7.682-23.752,20.532-42.155,34-60,15.413-20.422,48.842-39.221,76-48l30-6C295.627,477.18,299.6,478.5,302,477Zm635,0c115.63-2.317,206.34,32.327,263,89,11.03,11.035,42.35,41.742,45,58-16.99,7.818-32.69,19.94-48,30-2.84,1.865-14.64,9.306-16,8-13.62-12.73-23.03-30.675-38-42-23.97-18.138-48.01-35.622-78-48-21.01-8.672-44.73-11.328-69-17-28.3-6.614-82.754-1.34-106,5-13.016,3.55-24.382,4.216-36,9-69.626,28.674-122.363,76.518-151,146-7.1,17.231-9.387,36.388-14,56-1.826,7.762-1.429,16.8-2,24-.919,11.574.2,25.731,1,35a237.357,237.357,0,0,0,5,33,228.788,228.788,0,0,0,28,69c36.808,60.164,77.107,96.04,150,120,16.6,5.46,34.776,7.22,53,10,35.891,5.48,72.125-.78,78-2,14.86-3.59,29.96-5.32,44-10,30.7-10.24,58.19-25.53,82-43,6.1-4.47,11.03-11.482,17-16,13.08-9.9,27.53-23.729,36-38,17.34,8.225,32.17,21.967,48,32,5.35,3.394,14.22,5.224,16,12-5,4.75-7.86,11.36-12,17-7.38,10.06-24.3,29.65-34,37-20.72,15.68-41.11,31.06-64,45-30.08,18.31-67.76,26.11-106,36l-29,3c-41.675,9.2-116.122,1.34-150-9-115.949-35.39-193.826-106.75-231-221-9.092-27.943-12.991-59.26-13-97l1-31c4.793-20.938,5.631-41.863,12-61,35.178-105.7,103.2-174.865,203-216,22.755-9.38,48.258-12.72,74-19ZM2257,813H1691c2.37,26.08,2.85,52.057,10,74,23.73,72.791,64.83,126.83,132,156,34.35,14.92,94.67,28.76,144,16,22.64-5.86,44.18-11.3,64-20,36.85-16.16,69.69-43.046,92-74,8.47-11.752,17.35-23.9,25-36,3.35-5.3,5.4-14.13,11-17,6.23,5.677,15.25,7.8,23,12,14.26,7.733,29.86,15.628,44,24-39.97,87.9-109.03,147.5-206,179-18.94,6.15-45.17,9.48-68,10-33.98.78-71.46,2.66-101-5-26.83-6.96-51.77-13.79-75-24-8.65-3.8-17.24-10.16-25-15-64.55-40.27-106.6-98.4-135-175-17.57-47.387-26.25-129.716-10-187,30.79-108.58,91.02-189.014,188-231,68.77-29.776,180.54-29.735,250-1C2170.44,547.17,2256.44,649.47,2257,813Zm203,309h-83V493h83v91h1c25.45-43.3,66.38-80.5,117-99,18.88-6.9,50.3-11.641,74-5,15.71,4.4,29.51,11.554,43,18-.63,1.754-.19.971-1,2-1.39,4.7-4.75,7.433-7,11-8.28,13.114-15.98,26.307-24,39-3.4,5.376-5.26,14.151-11,17-9.96-8.977-44.89-13.986-63-9-34.58,9.518-58.56,29.282-77,55-19.29,26.9-31.59,58.579-41,96-5.8,23.041-2.81,48.977-8,73q-1,34-2,68v22c-4.53,21.055-1,58.114-1,82Zm851-629h80v629h-80V1015h-1c-7.04,10.66-17.11,19.11-26,28-33.58,33.58-71.03,58.32-119,78-16.14,6.62-32.54,7.5-51,12-26.9,6.56-83.74,8.13-112,1-18.97-4.78-38.76-7.89-56-15-79.41-32.73-136.63-87.13-175-161-13.45-25.9-21.63-54.665-30-87-3.56-13.765-.77-26.962-4-42-1.9-8.822-3.32-35.774-1-46,2.03-8.964.68-19.367,3-29,5.01-20.772,7.36-42.4,15-61,39.23-95.547,103.35-159.841,199-199,17.76-7.271,38.26-9.223,58-14,14.02-3.391,53.86-5.424,69-2h13c17.1,3.911,35.03,3.8,51,9,35.95,11.707,67.39,26.14,95,46,7.5,5.392,13.73,13.5,21,19,15.75,11.916,28.23,27.083,40,43,3.19,4.313,8.04,7.3,10,13h1ZM1700,743h468v-1c-3.45-4.631-2.98-11.867-5-18-4.37-13.3-9.39-27.18-15-40-18.29-41.811-50.53-73.188-88-96-18.33-11.159-40.86-19.353-63-26-12.1-3.635-25.41-4.246-38-7-25.15-5.5-65.8.275-85,6-10.89,3.248-20.06,3.937-30,8-37,15.124-72.76,38.906-95,69-7.77,10.507-12.99,21.477-20,33C1718.06,688.974,1703.14,718.862,1700,743ZM3052,555a213.634,213.634,0,0,0-27,3c-18.94,3.456-36.65,8.072-53,15-66.65,28.25-111.3,78.713-139,146-6.22,15.1-8.83,32.4-13,49-7.31,29.123-1.34,79.273,6,103,24.29,78.525,65.89,136.76,137,168,14.33,6.29,30.52,13.02,47,18,13.62,4.11,26.62,1.69,42,5,6.77,1.45,21.69,2.88,30,1,19.71-4.46,39.37-4.14,57-10,74.01-24.6,128.11-70.3,158-139,8.32-19.12,11.64-40.786,17-63q.5-10,1-20c2.29-10.618,2.41-31.394,0-42q-.5-10-1-20c-5.12-21.462-9.4-42.213-17-60C3257.64,616.9,3183.92,555.184,3052,555Z" transform="translate(-117 -250)" fill="#fff" fill-rule="evenodd"/>
</svg>
