<svg xmlns="http://www.w3.org/2000/svg" width="234.226" height="163.979" viewBox="0 0 234.226 163.979">
  <g id="Group_3289" data-name="Group 3289" transform="translate(29.375 -12.564)">
    <path id="Path_3170" data-name="Path 3170" d="M216.707,11.015A19.554,19.554,0,0,0,197.579,26.63H40.647A19.519,19.519,0,0,0,2,30.534V155.455a19.542,19.542,0,0,0,19.519,19.519H216.707a19.542,19.542,0,0,0,19.519-19.519V69.888h-7.808V139.84c-.148-.109-.324-.191-.476-.3-.324-.23-.668-.429-1.007-.64a19.2,19.2,0,0,0-2.03-1.1q-.586-.269-1.171-.5a19.911,19.911,0,0,0-2.315-.718c-.367-.094-.726-.207-1.1-.277A19.128,19.128,0,0,0,205,139.84V30.534a11.711,11.711,0,1,1,23.423,0v15.8h7.808v-15.8A19.542,19.542,0,0,0,216.707,11.015ZM9.808,30.534a11.711,11.711,0,1,1,23.423,0V139.84A19.128,19.128,0,0,0,17.9,136.3c-.39.07-.734.184-1.1.277a19.919,19.919,0,0,0-2.315.718q-.586.234-1.171.5a19.6,19.6,0,0,0-2.03,1.1,11.494,11.494,0,0,0-1.007.64c-.152.109-.328.191-.476.3Zm206.9,113.209a11.711,11.711,0,0,1,0,23.423H21.519A11.711,11.711,0,1,1,33.23,155.455a3.9,3.9,0,0,0,7.808,0V34.438H197.189V155.455a3.9,3.9,0,0,0,7.808,0A11.711,11.711,0,0,1,216.707,143.744Z" transform="translate(-31.375 1.57)" fill="#707070"/>
    <rect id="Rectangle_2928" data-name="Rectangle 2928" width="8.028" height="8.157" transform="translate(196.822 54.129)" fill="#707070"/>
    <path id="Path_3171" data-name="Path 3171" d="M121.994,19H51.026a3.086,3.086,0,0,0-3.086,3.086V37.2A15.452,15.452,0,0,1,35.6,22.086,3.086,3.086,0,0,0,32.513,19H17.086A3.086,3.086,0,0,0,14,22.086V96.138a3.086,3.086,0,0,0,3.086,3.086H32.513A3.086,3.086,0,0,0,35.6,96.138,15.452,15.452,0,0,1,47.941,81.019V96.138a3.086,3.086,0,0,0,3.086,3.086h70.967a3.086,3.086,0,0,0,3.086-3.086V71.454a3.086,3.086,0,0,0-3.086-3.086h-21.38a21.559,21.559,0,0,1,21.38-18.513,3.086,3.086,0,0,0,3.086-3.086V22.086A3.086,3.086,0,0,0,121.994,19ZM51.026,74.54a21.633,21.633,0,0,0-21.38,18.513H20.171V62.2H35.623V56.026H20.171V25.171h9.476a21.633,21.633,0,0,0,21.38,18.513A3.086,3.086,0,0,0,54.112,40.6V25.171h9.257V56.026H47.941V62.2H63.369V93.053H54.112V77.625A3.086,3.086,0,0,0,51.026,74.54Zm67.882-30.686A27.708,27.708,0,0,0,102.354,51.8v.015a27.714,27.714,0,0,0-8.13,19.639A3.086,3.086,0,0,0,97.31,74.54h21.6V93.053H69.54V25.171h49.369Z" transform="translate(18.198 35.45)" fill="#707070"/>
    <rect id="Rectangle_2929" data-name="Rectangle 2929" width="12.518" height="6.259" transform="translate(32.189 140.722)" fill="#707070"/>
    <rect id="Rectangle_2930" data-name="Rectangle 2930" width="58.678" height="6.259" transform="translate(50.966 140.722)" fill="#707070"/>
    <rect id="Rectangle_2931" data-name="Rectangle 2931" width="28.165" height="6.259" transform="translate(115.121 140.722)" fill="#707070"/>
  </g>
</svg>
