<svg xmlns="http://www.w3.org/2000/svg" width="20.422" height="20.422" viewBox="0 0 20.422 20.422">
  <g id="Group_4883" data-name="Group 4883" transform="translate(-2.679 -2.679)">
    <path id="Path_9901" data-name="Path 9901" d="M4.135,16.615A1.138,1.138,0,0,0,3,17.749v3.4a2.276,2.276,0,0,0,2.269,2.269h3.4a1.135,1.135,0,0,0,0-2.269H6.4a1.138,1.138,0,0,1-1.135-1.135V17.749A1.138,1.138,0,0,0,4.135,16.615ZM5.269,6.4A1.138,1.138,0,0,1,6.4,5.269H8.673A1.135,1.135,0,0,0,8.673,3h-3.4A2.276,2.276,0,0,0,3,5.269v3.4a1.135,1.135,0,0,0,2.269,0ZM21.153,3h-3.4a1.135,1.135,0,0,0,0,2.269h2.269A1.138,1.138,0,0,1,21.153,6.4V8.673a1.135,1.135,0,0,0,2.269,0v-3.4A2.276,2.276,0,0,0,21.153,3Zm0,17.018a1.138,1.138,0,0,1-1.135,1.135H17.749a1.135,1.135,0,0,0,0,2.269h3.4a2.276,2.276,0,0,0,2.269-2.269v-3.4a1.135,1.135,0,0,0-2.269,0ZM13.211,9.807a3.4,3.4,0,1,0,3.4,3.4A3.4,3.4,0,0,0,13.211,9.807Z" transform="translate(-0.321 -0.321)" fill="#404040"/>
  </g>
</svg>
