<svg xmlns="http://www.w3.org/2000/svg" width="510.99" height="510.798" viewBox="0 0 510.99 510.798">
  <g id="Group_90" data-name="Group 90" transform="translate(-390.46 -115.662)">
    <path id="Path_27" data-name="Path 27" d="M704.85,626.46H630c-8.35-1.14-16.75-2-25.05-3.47-58.99-10.39-108.85-37.59-148.9-82.15-34.2-38.06-55.2-82.54-62.6-133.28-1.15-7.86-2-15.76-2.99-23.65V357.96c.33-1.77.73-3.53.97-5.31,1.45-10.86,2.28-21.83,4.39-32.56C422.18,185.84,553.84,95.3,689.17,119.61c88.19,15.84,150.94,66.12,189.59,146.76.82,1.72,1.44,3.53,2.5,6.13H753.23a463.8,463.8,0,0,1,10.26,108.38H655.55V488.7H565.16a8.854,8.854,0,0,0,.02,2.1c7.48,22.45,16.23,44.31,30.25,63.63,8.39,11.56,18.16,21.67,31.21,28.05,2.86,1.4,5.95,2.33,9.75,3.78V515.81h68.33v6.37q.075,52.14.14,104.27ZM430.16,380.97c-.22.62-.44.92-.42,1.21a226.58,226.58,0,0,0,21.65,83.79c1.53,3.21,3.7,3.62,6.73,3.62,24.92-.07,49.84-.03,74.76-.05,1.74,0,3.48-.22,4.43-.29-3.51-29.74-6.97-58.96-10.43-88.28H430.17ZM537.05,272.58a4.806,4.806,0,0,0-1.27-.2c-26.42-.03-52.84-.1-79.26.11a6.717,6.717,0,0,0-4.95,3.59c-5.63,15.21-11.74,30.31-16.04,45.91-3.44,12.48-4.54,25.61-6.74,38.83h97.99c3.45-29.61,6.83-58.7,10.27-88.25Zm10.83,108.38a14.484,14.484,0,0,0-.3,2.18,423.64,423.64,0,0,0,9.91,81.51c.86,3.9,2.43,5.02,6.29,5,22.28-.17,44.57-.07,66.86-.1,1.76,0,3.51-.21,5.29-.32V380.97H547.89Zm88.18-107.98a9.179,9.179,0,0,0-1.95-.55c-24.12-.04-48.23-.13-72.35.08-1.32.01-3.53,2.31-3.79,3.81-3.12,17.99-6.29,35.98-8.72,54.06-1.34,9.97-1.3,20.13-1.89,30.45h88.7V272.99Zm19.92-.3v88.25h88.03a14.1,14.1,0,0,0,.3-2.16,414.92,414.92,0,0,0-10.14-82.47c-.71-3.14-2.04-4.02-5.01-4.01-23.28.08-46.56.04-69.85.06-.97,0-1.94.19-3.33.34ZM591.97,579.66c-1.86-2.14-3.04-3.49-4.21-4.85-1.3-1.51-2.63-3-3.87-4.56-18.11-22.71-29.33-48.85-37.6-76.39-1.21-4.03-2.89-5.41-7.17-5.37-22.77.23-45.55.1-68.33.12-1.69,0-3.38.15-5.44.25C491.71,532.18,541.81,568.59,591.97,579.66Zm-1.23-417.05c-37.23,3.21-116.57,60.8-124.78,90.67h4.52c22.76,0,45.52-.12,68.27.12,4.16.04,5.6-1.38,6.76-5.15,9.46-30.72,22.71-59.5,44.19-83.91a11.981,11.981,0,0,0,1.05-1.72Zm235.4,90.4c-13.52-33.75-93.13-91.14-124.81-90.08,3.41,4.18,6.91,8.16,10.08,12.4,16.5,22.09,27.22,46.99,35.08,73.22,1.12,3.72,2.69,4.84,6.51,4.81,22.92-.18,45.84-.08,68.77-.09,1.42,0,2.85-.16,4.38-.26Zm-190.17.02V155.91c-2.14.7-3.86,1.16-5.51,1.81-11.6,4.56-20.78,12.38-28.73,21.73-16.42,19.32-26.42,42.06-34.64,65.72-.85,2.46-1.5,4.98-2.36,7.86h71.24Zm20.08-98.32v98.33h71.01a31.223,31.223,0,0,0-1.03-4.05c-5.59-13.66-10.62-27.59-17.01-40.86-7.92-16.44-18.35-31.35-33.35-42.26C669.9,161.68,663.22,158.73,656.05,154.71Z" fill="#fff"/>
    <path id="Path_28" data-name="Path 28" d="M832.6,626.46c.07-4.15.21-8.3.21-12.45q.015-153.63.01-307.25v-6.15h68.47V619.99c0,2.16.11,4.32.16,6.47H832.58Z" fill="#fff"/>
    <path id="Path_29" data-name="Path 29" d="M734.8,626.46V411.05a42.452,42.452,0,0,1,4.55-.51c19.46-.03,38.91.04,58.37-.09,3.71-.03,5.24.87,5.23,4.98q-.165,104.28-.09,208.55c0,.83-.13,1.66-.19,2.48H734.8Z" fill="#fff"/>
  </g>
</svg>
