<svg xmlns="http://www.w3.org/2000/svg" width="31.115" height="31.066" viewBox="0 0 31.115 31.066">
  <g id="master_user" transform="translate(-648.324 -194.791)">
    <path id="polygon7" d="M24.355.5a7.217,7.217,0,0,0-5.48,2.55A14.516,14.516,0,1,0,29.555,17.041a14.482,14.482,0,0,0-.542-3.776A7.218,7.218,0,0,0,24.355.5Zm0,2.072a5.18,5.18,0,1,1-5.18,5.18A5.186,5.186,0,0,1,24.355,2.576Zm-9.329,2a12.519,12.519,0,0,1,2.667.324,7.164,7.164,0,0,0,.753,7.026,6.214,6.214,0,0,0-9.734,5.148A6.149,6.149,0,0,0,11,21.841a12.125,12.125,0,0,0-5.233,3.517,12.445,12.445,0,0,1,9.26-20.778Zm-.073,8.329a4.14,4.14,0,0,1,.134,8.277c-.06,0-.118-.012-.178-.012s-.1.01-.15.012a4.14,4.14,0,0,1,.194-8.277ZM20.1,13.6a7.166,7.166,0,0,0,7.078.834A12.069,12.069,0,0,1,24.16,25.483a12.064,12.064,0,0,0-5.314-3.634,6.21,6.21,0,0,0,2.295-4.82A6.13,6.13,0,0,0,20.1,13.6Zm-5.338,9.653c.05,0,.1.016.146.016h.049c.046,0,.084-.014.13-.016a10.034,10.034,0,0,1,7.548,3.63,12.406,12.406,0,0,1-15.359-.1A10.043,10.043,0,0,1,14.759,23.253Z" transform="translate(647.832 194.287)" fill="#3693ff"/>
    <path id="Path_3443" data-name="Path 3443" d="M8.422,4.912a.3.3,0,0,0-.257-.353L6.335,4.3,5.5,2.633A.251.251,0,0,0,5.371,2.5a.325.325,0,0,0-.45.128l-.8,1.67-1.83.257a.194.194,0,0,0-.193.1.31.31,0,0,0,0,.45L3.413,6.389,3.092,8.22a.407.407,0,0,0,.032.193.325.325,0,0,0,.45.128l1.638-.867,1.638.867a.241.241,0,0,0,.161.032h.064a.333.333,0,0,0,.257-.385l-.321-1.83L8.325,5.073A.177.177,0,0,0,8.422,4.912Z" transform="translate(667.234 196.286)" fill="#3693ff"/>
  </g>
</svg>
