<?xml version="1.0" encoding="UTF-8"?>
<svg width="32px" height="42px" viewBox="0 0 32 42" version="1.1" xmlns="http://www.w3.org/2000/svg" xmlns:xlink="http://www.w3.org/1999/xlink">
    <!-- Generator: Sketch 52.5 (67469) - http://www.bohemiancoding.com/sketch -->    
    <desc>Created with Sketch.</desc>
    <defs>
        <linearGradient x1="50%" y1="0%" x2="50%" y2="100%" id="linearGradient-1">
            <stop stop-color="#7780f2" offset="0%"></stop>
            <stop stop-color="#2f2873" offset="100%"></stop>
        </linearGradient>
        <path d="M0.00859611412,11.5405622 C-0.133948992,15.3551932 1.50664779,18.7891137 4.16099705,21.081788 C4.87460795,21.6980078 5.52491466,22.3824014 6.12431241,23.1097356 C7.93888506,25.3112164 10.8774391,29.1786703 12.0000925,35 C13.1223032,29.1804411 16.0595293,25.3138725 17.8745446,23.1115063 C18.4633179,22.3965674 19.0968025,21.717486 19.8006743,21.1149895 C22.3700277,18.9139514 24,15.6482518 24,12.000071 C24,5.09106019 18.1618482,-0.454032989 11.1496914,0.0293808503 C5.08488412,0.447277063 0.235694374,5.4660158 0.00859611412,11.5405622 Z" id="path-2"></path>

    </defs>
    <g id="Sensor-Map" stroke="none" stroke-width="1" fill="#85f781" fill-rule="nonzero">
        <g id="sensor-map-pop2-copy" transform="translate(-207.000000, -330.000000)">
            <g id="Group-3" transform="translate(-80.000000, 0.000000)">
                <g id="pin-sensor-green" transform="translate(291.000000, 334.000000)">
                    <g id="pin">
                        <path stroke="#2f2873" stroke-width="1" d="M12.0000812,32.8065609 C13.0618915,28.9848753 14.8794961,25.9595526 17.4885795,22.7936527 C18.1446584,21.9969854 18.7924253,21.3198663 19.4753864,20.7352688 C22.0124404,18.5619 23.5,15.4025303 23.5,12.000071 C23.5,5.34363493 17.8703611,0.0672487069 11.1840625,0.528198082 C5.37753031,0.928297819 0.725916884,5.73689241 0.508247066,11.5592418 C0.375587553,15.1093257 1.85964954,18.4333252 4.48778253,20.7033553 C5.1963818,21.3152475 5.86639363,22.0105664 6.51014088,22.7917161 C9.11973645,25.9577368 10.93794,28.9837298 12.0000812,32.8065609 Z" stroke-linejoin="square" fill="url(#linearGradient-1)" fill-rule="evenodd"></path>
                    </g>
                </g>
            </g>
        </g>
    </g>
</svg>