<svg xmlns="http://www.w3.org/2000/svg" width="11.121" height="12.71" viewBox="0 0 11.121 12.71">
  <path id="Icon_awesome-building" data-name="Icon awesome-building" d="M10.823,11.915h-.5V.6a.6.6,0,0,0-.6-.6H1.39a.6.6,0,0,0-.6.6v11.32H.3a.3.3,0,0,0-.3.3v.5H11.121v-.5A.3.3,0,0,0,10.823,11.915ZM3.177,1.887a.3.3,0,0,1,.3-.3h.993a.3.3,0,0,1,.3.3V2.88a.3.3,0,0,1-.3.3H3.475a.3.3,0,0,1-.3-.3Zm0,2.383a.3.3,0,0,1,.3-.3h.993a.3.3,0,0,1,.3.3v.993a.3.3,0,0,1-.3.3H3.475a.3.3,0,0,1-.3-.3ZM4.468,7.944H3.475a.3.3,0,0,1-.3-.3V6.653a.3.3,0,0,1,.3-.3h.993a.3.3,0,0,1,.3.3v.993A.3.3,0,0,1,4.468,7.944Zm1.887,3.972H4.766V9.83a.3.3,0,0,1,.3-.3h.993a.3.3,0,0,1,.3.3Zm1.589-4.27a.3.3,0,0,1-.3.3H6.653a.3.3,0,0,1-.3-.3V6.653a.3.3,0,0,1,.3-.3h.993a.3.3,0,0,1,.3.3Zm0-2.383a.3.3,0,0,1-.3.3H6.653a.3.3,0,0,1-.3-.3V4.27a.3.3,0,0,1,.3-.3h.993a.3.3,0,0,1,.3.3Zm0-2.383a.3.3,0,0,1-.3.3H6.653a.3.3,0,0,1-.3-.3V1.887a.3.3,0,0,1,.3-.3h.993a.3.3,0,0,1,.3.3Z" fill="#fff"/>
</svg>
