<svg xmlns="http://www.w3.org/2000/svg" width="19.197" height="16.22" viewBox="0 0 19.197 16.22">
  <path id="Icon_material-important-devices" data-name="Icon material-important-devices" d="M18.4,10.307l-4-.008a.808.808,0,0,0-.8.811v7.3a.808.808,0,0,0,.8.811h4a.808.808,0,0,0,.8-.811v-7.3A.8.8,0,0,0,18.4,10.307Zm0,7.291h-4V11.921h4ZM16,3H1.6A1.605,1.605,0,0,0,0,4.622v9.732a1.611,1.611,0,0,0,1.6,1.622H7.2V17.6H5.6V19.22H12V17.6H10.4V15.976H12V14.354H1.6V4.622H16V8.677h1.6V4.622A1.611,1.611,0,0,0,16,3Z" transform="translate(0 -3)" fill="#3693ff"/>
</svg>
