<svg xmlns="http://www.w3.org/2000/svg" width="159.173" height="176.859" viewBox="0 0 159.173 176.859">
  <path id="Path_3347" data-name="Path 3347" d="M49.779,101.837a8.843,8.843,0,0,0,0,12.557l26.529,26.529a8.843,8.843,0,0,0,12.557,0l26.529-26.529a8.879,8.879,0,0,0-12.557-12.557l-11.407,11.5V10.843a8.843,8.843,0,1,0-17.686,0v102.49l-11.407-11.5a8.843,8.843,0,0,0-12.557,0ZM135.645,63.9H117.959a8.843,8.843,0,1,0,0,17.686h17.686a8.843,8.843,0,0,1,8.843,8.843v61.9a8.843,8.843,0,0,1-8.843,8.843H29.529a8.843,8.843,0,0,1-8.843-8.843V90.43a8.843,8.843,0,0,1,8.843-8.843H47.215a8.843,8.843,0,1,0,0-17.686H29.529A26.529,26.529,0,0,0,3,90.43v61.9a26.529,26.529,0,0,0,26.529,26.529H135.645a26.529,26.529,0,0,0,26.529-26.529V90.43A26.529,26.529,0,0,0,135.645,63.9Z" transform="translate(-3 -2)" fill="#595959"/>
</svg>
