<svg id="peding" xmlns="http://www.w3.org/2000/svg" width="13.296" height="8.985" viewBox="0 0 13.296 8.985">
  <path id="Path_3440" data-name="Path 3440" d="M7.972,8.109a2.6,2.6,0,0,0,.9-1.966,2.643,2.643,0,0,0-5.285,0,2.6,2.6,0,0,0,.9,1.966A4.228,4.228,0,0,0,2,11.956a.529.529,0,1,0,1.057,0,3.171,3.171,0,0,1,6.342,0,.529.529,0,1,0,1.057,0A4.228,4.228,0,0,0,7.972,8.109ZM6.228,7.728A1.586,1.586,0,1,1,7.814,6.143,1.586,1.586,0,0,1,6.228,7.728Z" transform="translate(-2 -3.5)" fill="#ff2e2e"/>
  <g id="_5" data-name="5" transform="translate(7.736 0.766)">
    <path id="Path_3441" data-name="Path 3441" d="M4.78,2A2.78,2.78,0,1,0,7.56,4.78,2.78,2.78,0,0,0,4.78,2Zm0,5A2.224,2.224,0,1,1,7,4.78,2.224,2.224,0,0,1,4.78,7Z" transform="translate(-2 -2)" fill="#ff2e2e"/>
    <path id="Path_3442" data-name="Path 3442" d="M9.069,6a.278.278,0,0,0-.278.278V7.554L8.038,8.3A.278.278,0,1,0,8.43,8.7l.834-.834a.278.278,0,0,0,.083-.195V6.278A.278.278,0,0,0,9.069,6Z" transform="translate(-6.289 -4.888)" fill="#ff2e2e"/>
  </g>
</svg>
