<svg xmlns="http://www.w3.org/2000/svg" width="35" height="35" viewBox="0 0 35 35">
  <g id="connected" transform="translate(-105 -416)">
    <rect id="Rectangle_2755" data-name="Rectangle 2755" width="35" height="35" transform="translate(105 416)" fill="none"/>
    <path id="Path_2944" data-name="Path 2944" d="M25.345,10.982a9.951,9.951,0,0,0-18.992,2.7A5.686,5.686,0,0,0,7.69,24.9H23.327a7.108,7.108,0,0,0,2.019-13.917ZM23.327,22.056H7.69a2.843,2.843,0,1,1,0-5.686,1.422,1.422,0,0,0,1.422-1.422A7.108,7.108,0,0,1,22.943,12.66a1.422,1.422,0,0,0,1.109.938,4.265,4.265,0,0,1-.725,8.458Z" transform="translate(106.009 416.992)" fill="#e8e3e3"/>
  </g>
</svg>
