<svg xmlns="http://www.w3.org/2000/svg" width="35" height="35" viewBox="0 0 35 35">
  <g id="DNS" transform="translate(-7820.048 -1536)">
    <rect id="Rectangle_2758" data-name="Rectangle 2758" width="35" height="35" transform="translate(7820.048 1536)" fill="none"/>
    <path id="Subtraction_8" data-name="Subtraction 8" d="M-14203.307,24475.594h-.072a13.726,13.726,0,0,1-3.807-.539,13.816,13.816,0,0,1-3.465-1.555,13.939,13.939,0,0,1-3.111-2.662,13.753,13.753,0,0,1-2.2-3.473h2.043c.178.34.375.67.586,1a16.847,16.847,0,0,1,1.6-.951.074.074,0,0,1-.01-.033l0-.012h6.691a16.031,16.031,0,0,0-4.414,1.027c1.191,2.914,3.094,4.838,5.217,5.27v-6.3h1.838v6.3c2.123-.432,4.023-2.355,5.217-5.27a16.045,16.045,0,0,0-4.416-1.027h6.691c0,.012,0,.027-.006.035l-.006.01a16.339,16.339,0,0,1,1.594.951,10.814,10.814,0,0,0,.586-1h2.045a13.592,13.592,0,0,1-2.232,3.5,13.824,13.824,0,0,1-3.154,2.682A13.7,13.7,0,0,1-14203.307,24475.594Zm7.746-6.449a14.232,14.232,0,0,1-1.615,2.879,11.863,11.863,0,0,0,2.717-2.244C-14194.814,24469.555-14195.186,24469.338-14195.561,24469.145Zm-15.561,0c-.375.193-.744.41-1.105.635a12.01,12.01,0,0,0,2.721,2.244,13.919,13.919,0,0,1-1.615-2.881Zm20.541-12.592h-2.016a12.01,12.01,0,0,0-.752-1.314,16.687,16.687,0,0,1-1.594.945c.037.129.072.248.105.369h-17.01q.05-.182.105-.369a17.216,17.216,0,0,1-1.6-.945,11.994,11.994,0,0,0-.75,1.314h-2.016a13.684,13.684,0,0,1,2.053-3.451,13.914,13.914,0,0,1,2.939-2.705,13.934,13.934,0,0,1,3.633-1.764,13.964,13.964,0,0,1,4.139-.629,13.939,13.939,0,0,1,4.135.629,13.812,13.812,0,0,1,3.633,1.764,13.914,13.914,0,0,1,2.939,2.705,13.813,13.813,0,0,1,2.057,3.451Zm-13.68-6.617c-2.123.434-4.025,2.355-5.217,5.271a15.852,15.852,0,0,0,5.217,1.07Zm1.838,0h0v6.342a15.862,15.862,0,0,0,5.217-1.07C-14198.4,24452.291-14200.3,24450.369-14202.422,24449.936Zm5.246,1.639a14.05,14.05,0,0,1,1.615,2.881c.373-.2.744-.412,1.1-.639A11.856,11.856,0,0,0-14197.176,24451.574Zm-12.33,0a11.9,11.9,0,0,0-2.719,2.242c.361.227.729.441,1.1.639A13.869,13.869,0,0,1-14209.506,24451.574Z" transform="translate(22040.883 -22908.004)" fill="#fb0"/>
    <path id="Exclusion_1" data-name="Exclusion 1" d="M1517.3,21158.857h-27.246a1,1,0,0,1-1-1v-6.129a1,1,0,0,1,1-1H1517.3a1,1,0,0,1,1,1v6.129A1,1,0,0,1,1517.3,21158.857Zm-9.6-1.881-.265.717c.067.035.152.076.276.133a4.189,4.189,0,0,0,.419.145c.193.049.369.088.552.117a4.828,4.828,0,0,0,.68.047,2.826,2.826,0,0,0,1.689-.441,1.471,1.471,0,0,0,.6-1.258,1.878,1.878,0,0,0-.138-.754,1.607,1.607,0,0,0-.382-.537,2.534,2.534,0,0,0-.584-.387c-.23-.111-.493-.221-.743-.324-.191-.068-.363-.139-.526-.213a2.823,2.823,0,0,1-.42-.238.982.982,0,0,1-.276-.3.785.785,0,0,1-.1-.42.775.775,0,0,1,.35-.668,1.15,1.15,0,0,1,.377-.16,1.918,1.918,0,0,1,.467-.059,2.842,2.842,0,0,1,.871.117,2.323,2.323,0,0,1,.563.229l.281-.711a2.3,2.3,0,0,0-.68-.266,4.085,4.085,0,0,0-1.036-.123,2.375,2.375,0,0,0-1.535.457,1.556,1.556,0,0,0-.557,1.279,1.453,1.453,0,0,0,.483,1.158,2.4,2.4,0,0,0,.531.35,5.608,5.608,0,0,0,.648.266l.1.037.037.014c.152.057.295.111.431.168a2,2,0,0,1,.473.254,1.212,1.212,0,0,1,.329.352.942.942,0,0,1,.122.488c0,.623-.461.939-1.37.939a3.252,3.252,0,0,1-1.036-.148,4.592,4.592,0,0,1-.627-.256Zm-11.1-5.277c-.246,0-.519.01-.834.031a5.015,5.015,0,0,0-.823.123v6.047a5.023,5.023,0,0,0,.823.123c.315.021.587.031.834.031a4.671,4.671,0,0,0,1.4-.2,3.078,3.078,0,0,0,1.1-.584,2.6,2.6,0,0,0,.712-.988,4.11,4.11,0,0,0,0-2.82,2.6,2.6,0,0,0-.712-.988,3.13,3.13,0,0,0-1.1-.588A4.821,4.821,0,0,0,1496.6,21151.7Zm5.613,1.434,0,0c.176.2.361.422.551.662l.047.063.006.008c.181.232.369.475.557.736.18.238.352.482.558.775l.079.111c.159.227.311.451.452.66l.15.221.015.021c.173.264.374.57.552.861.157.254.322.521.451.748h.733v-6.24h-.855v4.621c-.175-.291-.4-.639-.706-1.094-.257-.369-.565-.8-.892-1.242-.29-.393-.593-.785-.956-1.238-.318-.4-.621-.748-.9-1.047h-.7v6.24h.855v-4.869Zm-5.544,4.158c-.2,0-.393-.006-.568-.012-.113,0-.212-.008-.287-.016v-4.773c.06-.006.158-.012.287-.016.175-.006.367-.012.568-.012a2.423,2.423,0,1,1,0,4.828Z" transform="translate(6333.875 -19601)" fill="#fb0"/>
  </g>
</svg>
