<svg xmlns="http://www.w3.org/2000/svg" width="169.958" height="236.264" viewBox="0 0 169.958 236.264">
  <path id="Subtraction_42" data-name="Subtraction 42" d="M-15921.021,21041.262a84.251,84.251,0,0,1-33.052-6.687,84.968,84.968,0,0,1-14.435-7.844,85.738,85.738,0,0,1-12.581-10.385,85.775,85.775,0,0,1-10.384-12.58,85.035,85.035,0,0,1-7.843-14.434,84.284,84.284,0,0,1-6.687-33.053,84.185,84.185,0,0,1,6.831-33.369,85.164,85.164,0,0,1,7.992-14.523,86.079,86.079,0,0,1,10.556-12.619V20864.6a59.031,59.031,0,0,1,4.693-23.168,59.55,59.55,0,0,1,12.788-18.947,59.577,59.577,0,0,1,18.949-12.789,59.056,59.056,0,0,1,23.172-4.693,59.7,59.7,0,0,1,42.145,17.379,60.564,60.564,0,0,1,12.957,19.453,59.288,59.288,0,0,1,4.5,22.766v31.172a86.079,86.079,0,0,1,10.556,12.619,85.129,85.129,0,0,1,7.991,14.525,84.191,84.191,0,0,1,6.832,33.373,84.275,84.275,0,0,1-6.687,33.049,85.173,85.173,0,0,1-7.842,14.434,85.706,85.706,0,0,1-10.383,12.58,85.753,85.753,0,0,1-12.58,10.383,84.968,84.968,0,0,1-14.435,7.844A84.246,84.246,0,0,1-15921.021,21041.262Zm0-103.654a18.66,18.66,0,0,0-18.6,18.678,18.658,18.658,0,0,0,12.119,17.438V20992a6.508,6.508,0,0,0,6.5,6.5,6.508,6.508,0,0,0,6.5-6.5v-18.291a18.667,18.667,0,0,0,12.071-17.422A18.657,18.657,0,0,0-15921.021,20937.607Zm0-109.744a36.777,36.777,0,0,0-36.737,36.732v15.094a86.879,86.879,0,0,1,17.6-6.23,83.519,83.519,0,0,1,19.141-2.23,83.481,83.481,0,0,1,19.138,2.23,86.926,86.926,0,0,1,17.595,6.23V20864.6a36.547,36.547,0,0,0-10.82-25.984A36.41,36.41,0,0,0-15921.021,20827.863Z" transform="translate(16006.002 -20804.998)"/>
</svg>
