<svg xmlns="http://www.w3.org/2000/svg" width="34" height="34" viewBox="0 0 34 34">
  <g id="reload" transform="translate(-2469 -430.313)">
    <path id="reload-2" data-name="reload" d="M10.317,25.75A9.983,9.983,0,0,0,17.067,28,12,12,0,0,0,28.974,17.5h1.79a1.5,1.5,0,0,0,1.248-2.332l-3.2-4.8a1.5,1.5,0,0,0-2.5,0l-3.2,4.8A1.5,1.5,0,0,0,24.369,17.5h1.573a9,9,0,0,1-13.377,6.3ZM21.568,8.2A9,9,0,0,0,8.191,14.5H9.764a1.5,1.5,0,0,1,1.248,2.332l-3.2,4.8a1.5,1.5,0,0,1-2.5,0l-3.2-4.8A1.5,1.5,0,0,1,3.369,14.5h1.79A12,12,0,0,1,17.067,4a9.984,9.984,0,0,1,6.75,2.25Z" transform="translate(2468.133 431.313)" fill="#fff"/>
    <rect id="Rectangle_4214" data-name="Rectangle 4214" width="34" height="34" transform="translate(2469 430.313)" fill="none"/>
  </g>
</svg>
