<svg xmlns="http://www.w3.org/2000/svg" width="34" height="34" viewBox="0 0 34 34">
  <g id="reorganixe" transform="translate(-2509 -430.313)">
    <g id="reorganixe-2" data-name="reorganixe" transform="translate(1832.988 -503.676)">
      <path id="up" d="M27.77,13.22a10.72,10.72,0,0,0-.88-3,11.14,11.14,0,0,0-1.78-2.64,12.28,12.28,0,0,0-2.5-2,12.52,12.52,0,0,0-3-1.25,13.1,13.1,0,0,0-3.23-.39,12.94,12.94,0,0,0-3.17.49,11.76,11.76,0,0,0-2.85,1.32,11.54,11.54,0,0,0-2.29,2,10.71,10.71,0,0,0-1.55,2.5A10.1,10.1,0,0,0,5.84,13a9.76,9.76,0,0,1,.91-2.68A10.34,10.34,0,0,1,8.44,8a10.91,10.91,0,0,1,2.32-1.72A11.37,11.37,0,0,1,16.36,5a11.48,11.48,0,0,1,2.8.55,10.46,10.46,0,0,1,2.47,1.26,10,10,0,0,1,1.94,1.85,9,9,0,0,1,1.26,2.26,8.15,8.15,0,0,1,.49,2.47,8.89,8.89,0,0,1-.3,2.47A8.81,8.81,0,0,1,24,18.11,8.91,8.91,0,0,1,22.29,20a9.72,9.72,0,0,1-2.17,1.29,9.66,9.66,0,0,1-2,.57c0-.06.07-.11.1-.16a7.13,7.13,0,0,0,.66-1.53,9,9,0,0,0-1.77.13,10.79,10.79,0,0,0-1.56.4A11.6,11.6,0,0,0,12.82,22L11.3,23l1,1.5a8.79,8.79,0,0,0,2,2,9.32,9.32,0,0,0,1.3.83,8.25,8.25,0,0,0,1.64.62,6.42,6.42,0,0,0,0-1.64,7.6,7.6,0,0,0-.18-.88,6.939,6.939,0,0,0,1.27-.18,13.84,13.84,0,0,0,3.35-1.16,13.13,13.13,0,0,0,2.81-2,11.74,11.74,0,0,0,2-2.64,10.5,10.5,0,0,0,1.28-6.23Z" transform="translate(677.169 935.05)" fill="#fff"/>
      <path id="Path_9564" data-name="Path 9564" d="M4.372,4.744A.372.372,0,0,0,4,5.117V8.095a.372.372,0,0,0,.372.372H7.35a.372.372,0,0,0,.372-.372V5.117a.372.372,0,0,0-.372-.372Zm.744,4.467a.372.372,0,0,0-.372.372v2.233a.372.372,0,0,0,.372.372H7.35a.372.372,0,0,0,.372-.372V9.583a.372.372,0,0,0-.372-.372Zm.372.744H6.978v1.489H5.489Zm3.35-.744a.372.372,0,0,0-.372.372v2.978a.372.372,0,0,0,.372.372h2.978a.372.372,0,0,0,.372-.372V9.583a.372.372,0,0,0-.372-.372ZM8.839,4a.372.372,0,0,0-.372.372V8.095a.372.372,0,0,0,.372.372h3.722a.372.372,0,0,0,.372-.372V4.372A.372.372,0,0,0,12.561,4Z" transform="translate(685.533 940.533)" fill="#fff"/>
    </g>
    <rect id="Rectangle_4216" data-name="Rectangle 4216" width="34" height="34" transform="translate(2509 430.313)" fill="none"/>
  </g>
</svg>
