<svg xmlns="http://www.w3.org/2000/svg" width="34" height="34" viewBox="0 0 34 34">
  <g id="rotate" transform="translate(-2448 -430.313)">
    <g id="rotate-2" data-name="rotate" transform="translate(2453 435.313)">
      <path id="Path_9561" data-name="Path 9561" d="M12,24A12.035,12.035,0,0,1,0,12a.945.945,0,0,1,1-1,.945.945,0,0,1,1,1A10,10,0,1,0,12,2,10.1,10.1,0,0,0,3.7,6.4a.984.984,0,0,1-1.4.3A.984.984,0,0,1,2,5.3,12.2,12.2,0,0,1,12,0a12,12,0,0,1,0,24Z" fill="#fff"/>
      <path id="Path_9562" data-name="Path 9562" d="M6,8H2A.945.945,0,0,1,1,7V3A.945.945,0,0,1,2,2,.945.945,0,0,1,3,3V6H6A.945.945,0,0,1,7,7,.945.945,0,0,1,6,8Zm6,8a4,4,0,1,1,4-4A4.012,4.012,0,0,1,12,16Zm0-6a2,2,0,1,0,2,2A2.006,2.006,0,0,0,12,10Z" fill="#fff"/>
    </g>
    <rect id="Rectangle_4213" data-name="Rectangle 4213" width="34" height="34" transform="translate(2448 430.313)" fill="none"/>
  </g>
</svg>
