<svg xmlns="http://www.w3.org/2000/svg" width="169.959" height="236.262" viewBox="0 0 169.959 236.262">
  <path id="Subtraction_44" data-name="Subtraction 44" d="M-15921.018,21041.264a84.2,84.2,0,0,1-33.052-6.689,84.782,84.782,0,0,1-14.437-7.842,85.9,85.9,0,0,1-12.579-10.383,85.369,85.369,0,0,1-10.381-12.584,84.845,84.845,0,0,1-7.848-14.432,84.3,84.3,0,0,1-6.686-33.051,84.085,84.085,0,0,1,6.834-33.369,85.319,85.319,0,0,1,7.989-14.527,85.824,85.824,0,0,1,10.556-12.615V20864.6a59.013,59.013,0,0,1,4.7-23.172,59.584,59.584,0,0,1,12.784-18.947,59.656,59.656,0,0,1,18.952-12.789,59.116,59.116,0,0,1,23.172-4.689,59.7,59.7,0,0,1,42.145,17.379,60.445,60.445,0,0,1,12.953,19.449,59.209,59.209,0,0,1,4.456,20.467h-22.894a36.751,36.751,0,0,0-10.748-23.684,36.418,36.418,0,0,0-25.912-10.746,36.777,36.777,0,0,0-36.738,36.732v15.092a86.968,86.968,0,0,1,17.6-6.232,83.679,83.679,0,0,1,19.143-2.227,83.654,83.654,0,0,1,19.137,2.227,87.053,87.053,0,0,1,17.576,6.225c3.361,1.779,14.943,8.2,22.885,16.016v.072a85.824,85.824,0,0,1,10.556,12.615,85.59,85.59,0,0,1,7.989,14.527,84.131,84.131,0,0,1,6.834,33.373,84.243,84.243,0,0,1-6.686,33.047,85.683,85.683,0,0,1-7.842,14.438,86.018,86.018,0,0,1-10.388,12.578,85.75,85.75,0,0,1-12.578,10.383,84.609,84.609,0,0,1-14.432,7.842A84.2,84.2,0,0,1-15921.018,21041.264Zm0-103.654a18.66,18.66,0,0,0-18.6,18.678,18.65,18.65,0,0,0,12.119,17.438V20992a6.508,6.508,0,0,0,6.5,6.5,6.508,6.508,0,0,0,6.5-6.5v-18.293a18.663,18.663,0,0,0,12.071-17.422A18.657,18.657,0,0,0-15921.018,20937.609Z" transform="translate(16006 -20805.002)"/>
</svg>
