<svg xmlns="http://www.w3.org/2000/svg" xmlns:xlink="http://www.w3.org/1999/xlink" width="369.988" height="551.554" viewBox="0 0 369.988 551.554">
  <defs>
    <style>
      .cls-1 {
        fill: #d5d5d5;
      }

      .cls-2 {
        fill: #fff;
      }

      .cls-3 {
        fill: #b6b4b5;
      }

      .cls-4 {
        fill: #ddd;
      }

      .cls-5 {
        fill: #8f8f8f;
      }

      .cls-6 {
        fill: #727272;
      }

      .cls-7 {
        fill: #585858;
      }

      .cls-8 {
        fill: #b8b8b8;
      }

      .cls-9 {
        fill: #b2b2b2;
      }

      .cls-10 {
        fill: #f7f7f7;
      }

      .cls-11 {
        fill: #a8a8a8;
      }

      .cls-12 {
        filter: url(#Path_524);
      }
    </style>
    <filter id="Path_524">
      <feOffset dy="3" input="SourceAlpha"/>
      <feGaussianBlur stdDeviation="3" result="blur"/>
      <feFlood flood-opacity="0.161" result="color"/>
      <feComposite operator="out" in="SourceGraphic" in2="blur"/>
      <feComposite operator="in" in="color"/>
      <feComposite operator="in" in2="SourceGraphic"/>
    </filter>
  </defs>
  <g id="_16panel_bg" data-name="16panel_bg" transform="translate(-11920.454 -5295.479)">
    <g id="Group_591" data-name="Group 591">
      <g id="Group_661" data-name="Group 661">
        <g data-type="innerShadowGroup">
          <path id="Path_524-2" data-name="Path 524" class="cls-1" d="M0,24.686V526.87a24.685,24.685,0,0,0,24.685,24.685H345.3a24.685,24.685,0,0,0,24.686-24.685V24.686A24.685,24.685,0,0,0,345.3,0H24.685A24.685,24.685,0,0,0,0,24.686" transform="translate(11920.453 5295.479)"/>
          <g class="cls-12" transform="matrix(1, 0, 0, 1, 11920.45, 5295.48)">
            <path id="Path_524-3" data-name="Path 524" class="cls-2" d="M0,24.686V526.87a24.685,24.685,0,0,0,24.685,24.685H345.3a24.685,24.685,0,0,0,24.686-24.685V24.686A24.685,24.685,0,0,0,345.3,0H24.685A24.685,24.685,0,0,0,0,24.686" transform="translate(0 0)"/>
          </g>
        </g>
      </g>
      <g id="Group_662" data-name="Group 662">
        <path id="Path_525" data-name="Path 525" class="cls-2" d="M9,24.686V526.87a15.7,15.7,0,0,0,15.686,15.686H345.3a15.7,15.7,0,0,0,15.685-15.686V24.686A15.7,15.7,0,0,0,345.3,9H24.686A15.7,15.7,0,0,0,9,24.686M345.3,11a13.7,13.7,0,0,1,13.685,13.685V526.87A13.7,13.7,0,0,1,345.3,540.556H24.686A13.7,13.7,0,0,1,11,526.87V24.686A13.7,13.7,0,0,1,24.686,11Z" transform="translate(11920.453 5295.479)"/>
        <rect id="Rectangle_5418" data-name="Rectangle 5418" class="cls-3" width="244.2" height="464.541" transform="translate(11983.346 5338.985)"/>
        <rect id="Rectangle_5419" data-name="Rectangle 5419" class="cls-4" width="275.42" height="461.139" transform="translate(11968.322 5340.82)"/>
        <rect id="Rectangle_5420" data-name="Rectangle 5420" class="cls-5" width="238.359" height="420.172" transform="translate(11986.268 5361.171)"/>
        <path id="Path_526" data-name="Path 526" class="cls-6" d="M25.316,18.026a7.752,7.752,0,1,1-7.752,7.752,7.752,7.752,0,0,1,7.752-7.752" transform="translate(11920.453 5295.479)"/>
        <path id="Path_527" data-name="Path 527" class="cls-7" d="M23.646,21.927v2.117H21.529a1.581,1.581,0,0,0,0,3.162h2.117v2.117a1.581,1.581,0,0,0,3.162,0V27.206h2.117a1.581,1.581,0,1,0,0-3.162H26.808V21.927a1.581,1.581,0,0,0-3.162,0" transform="translate(11920.453 5295.479)"/>
        <path id="Path_537" data-name="Path 537" class="cls-6" d="M25.316,517.082a7.752,7.752,0,1,1-7.752,7.752,7.752,7.752,0,0,1,7.752-7.752" transform="translate(11920.453 5295.479)"/>
        <path id="Path_538" data-name="Path 538" class="cls-7" d="M23.735,521.136v2.117H21.618a1.581,1.581,0,1,0,0,3.162h2.117v2.117a1.581,1.581,0,0,0,3.162,0v-2.117h2.117a1.581,1.581,0,1,0,0-3.162H26.9v-2.117a1.581,1.581,0,0,0-3.162,0" transform="translate(11920.453 5295.479)"/>
        <path id="Path_533" data-name="Path 533" class="cls-6" d="M344.665,18.026a7.752,7.752,0,1,1-7.752,7.752,7.752,7.752,0,0,1,7.752-7.752" transform="translate(11920.453 5295.479)"/>
        <path id="Path_534" data-name="Path 534" class="cls-7" d="M342.995,21.927v2.117h-2.117a1.581,1.581,0,0,0,0,3.162h2.117v2.117a1.581,1.581,0,0,0,3.162,0V27.206h2.117a1.581,1.581,0,1,0,0-3.162h-2.117V21.927a1.581,1.581,0,0,0-3.162,0" transform="translate(11920.453 5295.479)"/>
        <path id="Path_539" data-name="Path 539" class="cls-6" d="M344.665,517.082a7.752,7.752,0,1,1-7.752,7.752,7.752,7.752,0,0,1,7.752-7.752" transform="translate(11920.453 5295.479)"/>
        <path id="Path_540" data-name="Path 540" class="cls-7" d="M343.084,521.136v2.117h-2.117a1.581,1.581,0,1,0,0,3.162h2.117v2.117a1.581,1.581,0,0,0,3.162,0v-2.117h2.117a1.581,1.581,0,0,0,0-3.162h-2.117v-2.117a1.581,1.581,0,0,0-3.162,0" transform="translate(11920.453 5295.479)"/>
        <path id="Path_528" data-name="Path 528" class="cls-8" d="M57.382,53.719l8.432,12.24V486.131L57.382,497.97Z" transform="translate(11920.453 5295.479)"/>
        <path id="Path_529" data-name="Path 529" class="cls-9" d="M312.605,53.585,304,65.691H65.814L57.382,53.719Z" transform="translate(11920.453 5295.479)"/>
        <path id="Path_535" data-name="Path 535" class="cls-9" d="M57.382,497.97l8.6-12.106H304.173l8.432,11.972Z" transform="translate(11920.453 5295.479)"/>
        <path id="Path_532" data-name="Path 532" class="cls-8" d="M312.605,53.585l-8.432,12.106V485.863l8.432,11.973Z" transform="translate(11920.453 5295.479)"/>
        <path id="Path_530" data-name="Path 530" class="cls-10" d="M39.01,505.184,38.657,31.917l9.214,13.294-1.379,461.27-7.437,13.294Z" transform="translate(11920.453 5295.479)"/>
        <path id="Path_531" data-name="Path 531" class="cls-11" d="M55.638,31.917H330.259l-6.968,13.294H47.716L39.055,31.917Z" transform="translate(11920.453 5295.479)"/>
        <path id="Path_541" data-name="Path 541" class="cls-11" d="M309.466,519.774H39.055l7.437-13.294H323.976l8.661,13.294Z" transform="translate(11920.453 5295.479)"/>
        <path id="Path_536" data-name="Path 536" class="cls-10" d="M332.5,504.865,330.259,31.917l-6.968,13.294.685,461.27,8.661,13.294Z" transform="translate(11920.453 5295.479)"/>
      </g>
    </g>
  </g>
</svg>
