<svg xmlns="http://www.w3.org/2000/svg" xmlns:xlink="http://www.w3.org/1999/xlink" width="370" height="347" viewBox="0 0 370 347">
  <defs>
    <style>
      .cls-1 {
        fill: #d5d5d5;
      }

      .cls-2 {
        fill: #fff;
      }

      .cls-3 {
        fill: #b6b4b5;
      }

      .cls-4 {
        fill: #ddd;
      }

      .cls-5 {
        fill: #8f8f8f;
      }

      .cls-6 {
        fill: #727272;
      }

      .cls-7 {
        fill: #585858;
      }

      .cls-8 {
        fill: #b8b8b8;
      }

      .cls-9 {
        fill: #b2b2b2;
      }

      .cls-10 {
        fill: #f7f7f7;
      }

      .cls-11 {
        fill: #a8a8a8;
      }

      .cls-12 {
        filter: url(#Rectangle_5422);
      }
    </style>
    <filter id="Rectangle_5422">
      <feOffset dy="3" input="SourceAlpha"/>
      <feGaussianBlur stdDeviation="3" result="blur"/>
      <feFlood flood-opacity="0.161" result="color"/>
      <feComposite operator="out" in="SourceGraphic" in2="blur"/>
      <feComposite operator="in" in="color"/>
      <feComposite operator="in" in2="SourceGraphic"/>
    </filter>
  </defs>
  <g id="_8panel_bg" data-name="8panel_bg" transform="translate(-11174 -4867)">
    <g data-type="innerShadowGroup">
      <rect id="Rectangle_5422-2" data-name="Rectangle 5422" class="cls-1" width="370" height="347" rx="27" transform="translate(11174 4867)"/>
      <g class="cls-12" transform="matrix(1, 0, 0, 1, 11174, 4867)">
        <rect id="Rectangle_5422-3" data-name="Rectangle 5422" class="cls-2" width="370" height="347" rx="27"/>
      </g>
    </g>
    <path id="Path_543" data-name="Path 543" class="cls-2" d="M9,24.686V320.87a15.7,15.7,0,0,0,15.686,15.686H345.3a15.7,15.7,0,0,0,15.685-15.686V24.686A15.7,15.7,0,0,0,345.3,9H24.686A15.7,15.7,0,0,0,9,24.686M345.3,11a13.7,13.7,0,0,1,13.685,13.685V320.87A13.7,13.7,0,0,1,345.3,334.556H24.686A13.7,13.7,0,0,1,11,320.87V24.686A13.7,13.7,0,0,1,24.686,11Z" transform="translate(11174.11 4869.046)"/>
    <rect id="Rectangle_5423" data-name="Rectangle 5423" class="cls-3" width="244.2" height="259.967" transform="translate(11237.004 4910.277)"/>
    <rect id="Rectangle_5424" data-name="Rectangle 5424" class="cls-4" width="275.42" height="256.565" transform="translate(11221.98 4912.112)"/>
    <rect id="Rectangle_5425" data-name="Rectangle 5425" class="cls-5" width="238.359" height="215.598" transform="translate(11239.925 4932.462)"/>
    <path id="Path_552" data-name="Path 552" class="cls-6" d="M25.316,18.026a7.752,7.752,0,1,1-7.752,7.752,7.752,7.752,0,0,1,7.752-7.752" transform="translate(11174.11 4866.771)"/>
    <path id="Path_554" data-name="Path 554" class="cls-7" d="M23.646,21.927v2.117H21.529a1.581,1.581,0,0,0,0,3.162h2.117v2.117a1.581,1.581,0,0,0,3.162,0V27.206h2.117a1.581,1.581,0,1,0,0-3.162H26.808V21.927a1.581,1.581,0,0,0-3.162,0" transform="translate(11174.11 4866.771)"/>
    <g id="Group_560" data-name="Group 560" transform="translate(913 -200.869)">
      <path id="Path_537" data-name="Path 537" class="cls-6" d="M25.316,517.082a7.752,7.752,0,1,1-7.752,7.752,7.752,7.752,0,0,1,7.752-7.752" transform="translate(10261.11 4866.771)"/>
      <path id="Path_538" data-name="Path 538" class="cls-7" d="M23.735,521.136v2.117H21.618a1.581,1.581,0,1,0,0,3.162h2.117v2.117a1.581,1.581,0,0,0,3.162,0v-2.117h2.117a1.581,1.581,0,1,0,0-3.162H26.9v-2.117a1.581,1.581,0,0,0-3.162,0" transform="translate(10261.11 4866.771)"/>
    </g>
    <path id="Path_553" data-name="Path 553" class="cls-6" d="M344.665,18.026a7.752,7.752,0,1,1-7.752,7.752,7.752,7.752,0,0,1,7.752-7.752" transform="translate(11174.11 4866.771)"/>
    <path id="Path_555" data-name="Path 555" class="cls-7" d="M342.995,21.927v2.117h-2.117a1.581,1.581,0,0,0,0,3.162h2.117v2.117a1.581,1.581,0,0,0,3.162,0V27.206h2.117a1.581,1.581,0,1,0,0-3.162h-2.117V21.927a1.581,1.581,0,0,0-3.162,0" transform="translate(11174.11 4866.771)"/>
    <g id="Group_550" data-name="Group 550" transform="translate(913 -200.869)">
      <path id="Path_539" data-name="Path 539" class="cls-6" d="M344.665,517.082a7.752,7.752,0,1,1-7.752,7.752,7.752,7.752,0,0,1,7.752-7.752" transform="translate(10261.11 4866.771)"/>
      <path id="Path_540" data-name="Path 540" class="cls-7" d="M343.084,521.136v2.117h-2.117a1.581,1.581,0,1,0,0,3.162h2.117v2.117a1.581,1.581,0,0,0,3.162,0v-2.117h2.117a1.581,1.581,0,0,0,0-3.162h-2.117v-2.117a1.581,1.581,0,0,0-3.162,0" transform="translate(10261.11 4866.771)"/>
    </g>
    <path id="Path_548" data-name="Path 548" class="cls-8" d="M57.382,53.719l8.432,6.6V287.009L57.382,293.4Z" transform="translate(11174.11 4866.771)"/>
    <path id="Path_549" data-name="Path 549" class="cls-9" d="M312.605,53.585,304,65.691H65.814L57.382,53.719Z" transform="translate(11174.11 4866.771)"/>
    <path id="Path_544" data-name="Path 544" class="cls-9" d="M57.382,497.97l8.605-12.106H304.174l8.432,11.972Z" transform="translate(11174.11 4662.196)"/>
    <path id="Path_545" data-name="Path 545" class="cls-8" d="M312.605,53.585l-8.432,6.531V286.8l8.432,6.46Z" transform="translate(11174.11 4866.771)"/>
    <path id="Path_550" data-name="Path 550" class="cls-10" d="M39.01,306.728,38.657,31.917l9.214,7.719L46.492,307.481,39.055,315.2Z" transform="translate(11174.11 4866.771)"/>
    <path id="Path_551" data-name="Path 551" class="cls-11" d="M55.638,31.917H330.259l-6.968,13.294H47.716L39.055,31.917Z" transform="translate(11174.11 4866.771)"/>
    <path id="Path_546" data-name="Path 546" class="cls-11" d="M309.466,519.774H39.055l7.437-13.294,276.516-1.9,9.63,15.192Z" transform="translate(11174.11 4663.209)"/>
    <path id="Path_547" data-name="Path 547" class="cls-10" d="M330.033,28.729l-8.349,13.576V298.66l9.635,15.213Z" transform="translate(11175.489 4869.087)"/>
  </g>
</svg>
