<svg xmlns="http://www.w3.org/2000/svg" xmlns:xlink="http://www.w3.org/1999/xlink" width="108" height="89.666" viewBox="0 0 108 89.666">
  <defs>
    <filter id="Path_627">
      <feOffset dy="1" input="SourceAlpha"/>
      <feGaussianBlur stdDeviation="1.5" result="blur"/>
      <feFlood flood-opacity="0.161" result="color"/>
      <feComposite operator="out" in="SourceGraphic" in2="blur"/>
      <feComposite operator="in" in="color"/>
      <feComposite operator="in" in2="SourceGraphic"/>
    </filter>
    <filter id="Path_627-2">
      <feOffset dy="1" input="SourceAlpha"/>
      <feGaussianBlur stdDeviation="1.5" result="blur-2"/>
      <feFlood flood-opacity="0.161" result="color-2"/>
      <feComposite operator="out" in="SourceGraphic" in2="blur-2"/>
      <feComposite operator="in" in="color-2"/>
      <feComposite operator="in" in2="SourceGraphic"/>
    </filter>
  </defs>
  <g id="_2" data-name="2" transform="translate(-14016 -7998.649)">
    <g id="Group_496" data-name="Group 496" transform="translate(14016 7998.649)">
      <g id="Group_698" data-name="Group 698">
        <g id="Path_628" data-name="Path 628">
          <path id="Path_673" data-name="Path 673" d="M104.982,89.166H3a2.5,2.5,0,0,1-2.5-2.5L.52,3A2.5,2.5,0,0,1,3.017.5H105A2.5,2.5,0,0,1,107.5,3l-.02,83.666A2.5,2.5,0,0,1,104.982,89.166Z" transform="translate(0 0)" fill="#fff"/>
          <path id="Path_674" data-name="Path 674" d="M104.983,88.666a2,2,0,0,0,2-2L107,3a2,2,0,0,0-2-2H3.017a2,2,0,0,0-2,2L1,86.666a2,2,0,0,0,2,2H104.983m0,1H3a3,3,0,0,1-3-3L.02,3a3,3,0,0,1,3-3H105a3,3,0,0,1,3,3l-.02,83.666A3,3,0,0,1,104.983,89.666Z" transform="translate(0 0)" fill="#fff"/>
        </g>
        <g id="Path_628-2" data-name="Path 628">
          <path id="Path_675" data-name="Path 675" d="M104.982,89.166H3a2.5,2.5,0,0,1-2.5-2.5L.52,3A2.5,2.5,0,0,1,3.017.5H105A2.5,2.5,0,0,1,107.5,3l-.02,83.666A2.5,2.5,0,0,1,104.982,89.166Z" transform="translate(0 0)" fill="none"/>
          <path id="Path_676" data-name="Path 676" d="M104.983,88.666a2,2,0,0,0,2-2L107,3a2,2,0,0,0-2-2H3.017a2,2,0,0,0-2,2L1,86.666a2,2,0,0,0,2,2H104.983m0,1H3a3,3,0,0,1-3-3L.02,3a3,3,0,0,1,3-3H105a3,3,0,0,1,3,3l-.02,83.666A3,3,0,0,1,104.983,89.666Z" transform="translate(0 0)" fill="#f5f5f5"/>
        </g>
      </g>
      <g data-type="innerShadowGroup">
        <path id="Path_627-3" data-name="Path 627" d="M2,33.425H95.084a2,2,0,0,0,2-2V2a2,2,0,0,0-2-2H2A2,2,0,0,0,0,2V31.425A2,2,0,0,0,2,33.425Z" transform="translate(5.469 5.142)" fill="#e9ebe9"/>
        <g transform="matrix(1, 0, 0, 1, 0, 0)" filter="url(#Path_627)">
          <path id="Path_627-4" data-name="Path 627" d="M2,33.425H95.084a2,2,0,0,0,2-2V2a2,2,0,0,0-2-2H2A2,2,0,0,0,0,2V31.425A2,2,0,0,0,2,33.425Z" transform="translate(5.47 5.14)" fill="#fff"/>
        </g>
      </g>
    </g>
    <g id="Group_496-2" data-name="Group 496" transform="translate(14021.469 8049.792)">
      <g data-type="innerShadowGroup">
        <path id="Path_627-5" data-name="Path 627" d="M2,33.425H95.084a2,2,0,0,0,2-2V2a2,2,0,0,0-2-2H2A2,2,0,0,0,0,2V31.425A2,2,0,0,0,2,33.425Z" fill="#e9ebe9"/>
        <g transform="matrix(1, 0, 0, 1, -5.47, -51.14)" filter="url(#Path_627-2)">
          <path id="Path_627-6" data-name="Path 627" d="M2,33.425H95.084a2,2,0,0,0,2-2V2a2,2,0,0,0-2-2H2A2,2,0,0,0,0,2V31.425A2,2,0,0,0,2,33.425Z" transform="translate(5.47 51.14)" fill="#fff"/>
        </g>
      </g>
    </g>
  </g>
</svg>
