<svg xmlns="http://www.w3.org/2000/svg" xmlns:xlink="http://www.w3.org/1999/xlink" width="108" height="43.709" viewBox="0 0 108 43.709">
  <defs>
    <filter id="Path_627">
      <feOffset dy="1" input="SourceAlpha"/>
      <feGaussianBlur stdDeviation="1.5" result="blur"/>
      <feFlood flood-opacity="0.161" result="color"/>
      <feComposite operator="out" in="SourceGraphic" in2="blur"/>
      <feComposite operator="in" in="color"/>
      <feComposite operator="in" in2="SourceGraphic"/>
    </filter>
  </defs>
  <g id="_1" data-name="1" transform="translate(-13897 -7998.649)">
    <g id="Group_496" data-name="Group 496" transform="translate(13897 7998.649)">
      <g id="Group_697" data-name="Group 697">
        <g id="Path_628" data-name="Path 628">
          <path id="Path_669" data-name="Path 669" d="M105,43.209H3a2.5,2.5,0,0,1-2.5-2.5V3A2.5,2.5,0,0,1,3,.5H105A2.5,2.5,0,0,1,107.5,3V40.709A2.5,2.5,0,0,1,105,43.209Z" transform="translate(0 0)" fill="#fff"/>
          <path id="Path_670" data-name="Path 670" d="M105,42.709a2,2,0,0,0,2-2V3a2,2,0,0,0-2-2H3A2,2,0,0,0,1,3V40.709a2,2,0,0,0,2,2H105m0,1H3a3,3,0,0,1-3-3V3A3,3,0,0,1,3,0H105a3,3,0,0,1,3,3V40.709A3,3,0,0,1,105,43.709Z" transform="translate(0 0)" fill="#fff"/>
        </g>
        <g id="Path_628-2" data-name="Path 628">
          <path id="Path_671" data-name="Path 671" d="M105,43.209H3a2.5,2.5,0,0,1-2.5-2.5V3A2.5,2.5,0,0,1,3,.5H105A2.5,2.5,0,0,1,107.5,3V40.709A2.5,2.5,0,0,1,105,43.209Z" transform="translate(0 0)" fill="none"/>
          <path id="Path_672" data-name="Path 672" d="M105,42.709a2,2,0,0,0,2-2V3a2,2,0,0,0-2-2H3A2,2,0,0,0,1,3V40.709a2,2,0,0,0,2,2H105m0,1H3a3,3,0,0,1-3-3V3A3,3,0,0,1,3,0H105a3,3,0,0,1,3,3V40.709A3,3,0,0,1,105,43.709Z" transform="translate(0 0)" fill="#f5f5f5"/>
        </g>
      </g>
      <g data-type="innerShadowGroup">
        <path id="Path_627-2" data-name="Path 627" d="M2,33.425H95.1a2,2,0,0,0,2-2V2a2,2,0,0,0-2-2H2A2,2,0,0,0,0,2V31.425A2,2,0,0,0,2,33.425Z" transform="translate(5.449 5.142)" fill="#e9ebe9"/>
        <g transform="matrix(1, 0, 0, 1, 0, 0)" filter="url(#Path_627)">
          <path id="Path_627-3" data-name="Path 627" d="M2,33.425H95.1a2,2,0,0,0,2-2V2a2,2,0,0,0-2-2H2A2,2,0,0,0,0,2V31.425A2,2,0,0,0,2,33.425Z" transform="translate(5.45 5.14)" fill="#fff"/>
        </g>
      </g>
    </g>
  </g>
</svg>
