<svg xmlns="http://www.w3.org/2000/svg" xmlns:xlink="http://www.w3.org/1999/xlink" width="108" height="181.709" viewBox="0 0 108 181.709">
  <defs>
    <filter id="Path_627">
      <feOffset dy="1" input="SourceAlpha"/>
      <feGaussianBlur stdDeviation="1.5" result="blur"/>
      <feFlood flood-opacity="0.161" result="color"/>
      <feComposite operator="out" in="SourceGraphic" in2="blur"/>
      <feComposite operator="in" in="color"/>
      <feComposite operator="in" in2="SourceGraphic"/>
    </filter>
    <filter id="Path_627-2">
      <feOffset dy="1" input="SourceAlpha"/>
      <feGaussianBlur stdDeviation="1.5" result="blur-2"/>
      <feFlood flood-opacity="0.161" result="color-2"/>
      <feComposite operator="out" in="SourceGraphic" in2="blur-2"/>
      <feComposite operator="in" in="color-2"/>
      <feComposite operator="in" in2="SourceGraphic"/>
    </filter>
    <filter id="Path_627-3">
      <feOffset dy="1" input="SourceAlpha"/>
      <feGaussianBlur stdDeviation="1.5" result="blur-3"/>
      <feFlood flood-opacity="0.161" result="color-3"/>
      <feComposite operator="out" in="SourceGraphic" in2="blur-3"/>
      <feComposite operator="in" in="color-3"/>
      <feComposite operator="in" in2="SourceGraphic"/>
    </filter>
    <filter id="Path_627-4">
      <feOffset dy="1" input="SourceAlpha"/>
      <feGaussianBlur stdDeviation="1.5" result="blur-4"/>
      <feFlood flood-opacity="0.161" result="color-4"/>
      <feComposite operator="out" in="SourceGraphic" in2="blur-4"/>
      <feComposite operator="in" in="color-4"/>
      <feComposite operator="in" in2="SourceGraphic"/>
    </filter>
  </defs>
  <g id="_4" data-name="4" transform="translate(-14254 -7998.649)">
    <g id="Group_496" data-name="Group 496" transform="translate(14254 7998.649)">
      <g id="Group_700" data-name="Group 700">
        <g id="Path_628" data-name="Path 628">
          <path id="Path_681" data-name="Path 681" d="M105,181.209H3a2.5,2.5,0,0,1-2.5-2.5V3A2.5,2.5,0,0,1,3,.5H105A2.5,2.5,0,0,1,107.5,3V178.709A2.5,2.5,0,0,1,105,181.209Z" transform="translate(0 0)" fill="#fff"/>
          <path id="Path_682" data-name="Path 682" d="M105,180.709a2,2,0,0,0,2-2V3a2,2,0,0,0-2-2H3A2,2,0,0,0,1,3V178.709a2,2,0,0,0,2,2H105m0,1H3a3,3,0,0,1-3-3V3A3,3,0,0,1,3,0H105a3,3,0,0,1,3,3V178.709A3,3,0,0,1,105,181.709Z" transform="translate(0 0)" fill="#fff"/>
        </g>
        <g id="Path_628-2" data-name="Path 628">
          <path id="Path_683" data-name="Path 683" d="M105,181.209H3a2.5,2.5,0,0,1-2.5-2.5V3A2.5,2.5,0,0,1,3,.5H105A2.5,2.5,0,0,1,107.5,3V178.709A2.5,2.5,0,0,1,105,181.209Z" transform="translate(0 0)" fill="none"/>
          <path id="Path_684" data-name="Path 684" d="M105,180.709a2,2,0,0,0,2-2V3a2,2,0,0,0-2-2H3A2,2,0,0,0,1,3V178.709a2,2,0,0,0,2,2H105m0,1H3a3,3,0,0,1-3-3V3A3,3,0,0,1,3,0H105a3,3,0,0,1,3,3V178.709A3,3,0,0,1,105,181.709Z" transform="translate(0 0)" fill="#f5f5f5"/>
        </g>
      </g>
      <g data-type="innerShadowGroup">
        <path id="Path_627-5" data-name="Path 627" d="M2,33.425H95.1a2,2,0,0,0,2-2V2a2,2,0,0,0-2-2H2A2,2,0,0,0,0,2V31.425A2,2,0,0,0,2,33.425Z" transform="translate(5.449 5.142)" fill="#e9ebe9"/>
        <g transform="matrix(1, 0, 0, 1, 0, 0)" filter="url(#Path_627)">
          <path id="Path_627-6" data-name="Path 627" d="M2,33.425H95.1a2,2,0,0,0,2-2V2a2,2,0,0,0-2-2H2A2,2,0,0,0,0,2V31.425A2,2,0,0,0,2,33.425Z" transform="translate(5.45 5.14)" fill="#fff"/>
        </g>
      </g>
    </g>
    <g id="Group_496-2" data-name="Group 496" transform="translate(14259.449 8049.792)">
      <g data-type="innerShadowGroup">
        <path id="Path_627-7" data-name="Path 627" d="M2,33.425H95.1a2,2,0,0,0,2-2V2a2,2,0,0,0-2-2H2A2,2,0,0,0,0,2V31.425A2,2,0,0,0,2,33.425Z" fill="#e9ebe9"/>
        <g transform="matrix(1, 0, 0, 1, -5.45, -51.14)" filter="url(#Path_627-2)">
          <path id="Path_627-8" data-name="Path 627" d="M2,33.425H95.1a2,2,0,0,0,2-2V2a2,2,0,0,0-2-2H2A2,2,0,0,0,0,2V31.425A2,2,0,0,0,2,33.425Z" transform="translate(5.45 51.14)" fill="#fff"/>
        </g>
      </g>
    </g>
    <g id="Group_496-3" data-name="Group 496" transform="translate(14259.449 8095.792)">
      <g data-type="innerShadowGroup">
        <path id="Path_627-9" data-name="Path 627" d="M2,33.425H95.1a2,2,0,0,0,2-2V2a2,2,0,0,0-2-2H2A2,2,0,0,0,0,2V31.425A2,2,0,0,0,2,33.425Z" fill="#e9ebe9"/>
        <g transform="matrix(1, 0, 0, 1, -5.45, -97.14)" filter="url(#Path_627-3)">
          <path id="Path_627-10" data-name="Path 627" d="M2,33.425H95.1a2,2,0,0,0,2-2V2a2,2,0,0,0-2-2H2A2,2,0,0,0,0,2V31.425A2,2,0,0,0,2,33.425Z" transform="translate(5.45 97.14)" fill="#fff"/>
        </g>
      </g>
    </g>
    <g id="Group_496-4" data-name="Group 496" transform="translate(14259.449 8141.792)">
      <g data-type="innerShadowGroup">
        <path id="Path_627-11" data-name="Path 627" d="M2,33.425H95.1a2,2,0,0,0,2-2V2a2,2,0,0,0-2-2H2A2,2,0,0,0,0,2V31.425A2,2,0,0,0,2,33.425Z" fill="#e9ebe9"/>
        <g transform="matrix(1, 0, 0, 1, -5.45, -143.14)" filter="url(#Path_627-4)">
          <path id="Path_627-12" data-name="Path 627" d="M2,33.425H95.1a2,2,0,0,0,2-2V2a2,2,0,0,0-2-2H2A2,2,0,0,0,0,2V31.425A2,2,0,0,0,2,33.425Z" transform="translate(5.45 143.14)" fill="#fff"/>
        </g>
      </g>
    </g>
  </g>
</svg>
