<svg xmlns="http://www.w3.org/2000/svg" xmlns:xlink="http://www.w3.org/1999/xlink" width="108" height="43.709" viewBox="0 0 108 43.709">
  <defs>
    <linearGradient id="linear-gradient" x1="0.523" x2="0.528" y2="1" gradientUnits="objectBoundingBox">
      <stop offset="0" stop-color="#10221e"/>
      <stop offset="0.237" stop-color="#1d2f2d"/>
      <stop offset="0.5" stop-color="#465856"/>
      <stop offset="0.784" stop-color="#1d2f2d"/>
      <stop offset="1" stop-color="#1d2f2d"/>
    </linearGradient>
    <filter id="Rectangle_5295" x="0" y="0" width="108" height="43.709" filterUnits="userSpaceOnUse">
      <feOffset dy="3" input="SourceAlpha"/>
      <feGaussianBlur stdDeviation="3" result="blur"/>
      <feFlood flood-opacity="0.161" result="color"/>
      <feComposite operator="out" in="SourceGraphic" in2="blur"/>
      <feComposite operator="in" in="color"/>
      <feComposite operator="in" in2="SourceGraphic"/>
    </filter>
    <filter id="Rectangle_5324" x="4.987" y="5.48" width="97.793" height="33.425" filterUnits="userSpaceOnUse">
      <feOffset dy="1" input="SourceAlpha"/>
      <feGaussianBlur stdDeviation="1.5" result="blur-2"/>
      <feFlood flood-opacity="0.161" result="color-2"/>
      <feComposite operator="out" in="SourceGraphic" in2="blur-2"/>
      <feComposite operator="in" in="color-2"/>
      <feComposite operator="in" in2="SourceGraphic"/>
    </filter>
    <clipPath id="clip-path">
      <path id="Path_516" data-name="Path 516" d="M4.567,34.644V11.854A2.553,2.553,0,0,0,2.252,9.32C1.5,9.246.751,9.153,0,9.064V0H25.447V9.064c-.751.089-1.5.182-2.252.256a2.551,2.551,0,0,0-2.315,2.534v22.79Z" fill="none"/>
    </clipPath>
    <clipPath id="clip-path-2">
      <path id="Path_511" data-name="Path 511" d="M0,15.75V1.222A140.076,140.076,0,0,1,18.218,0h.434A140.041,140.041,0,0,1,36.869,1.222V15.75A118.514,118.514,0,0,1,18.435,17.2,118.538,118.538,0,0,1,0,15.75" fill="url(#linear-gradient)"/>
    </clipPath>
  </defs>
  <g id="Group_907" data-name="Group 907" transform="translate(-1553.424 -997.5)">
    <g id="Group_503" data-name="Group 503" transform="translate(1661.424 990.209) rotate(180)">
      <g data-type="innerShadowGroup">
        <rect id="Rectangle_5295-2" data-name="Rectangle 5295" width="108" height="43.709" rx="3" transform="translate(0 -51)" fill="#fff"/>
        <g transform="matrix(-1, 0, 0, -1, 108, -7.29)" filter="url(#Rectangle_5295)">
          <rect id="Rectangle_5295-3" data-name="Rectangle 5295" width="108" height="43.709" rx="3" transform="translate(108 43.71) rotate(180)" fill="#fff"/>
        </g>
        <g id="Rectangle_5295-4" data-name="Rectangle 5295" transform="translate(0 -51)" fill="none" stroke="#f5f5f5" stroke-width="1">
          <rect width="108" height="43.709" rx="3" stroke="none"/>
          <rect x="0.5" y="0.5" width="107" height="42.709" rx="2.5" fill="none"/>
        </g>
      </g>
    </g>
    <g id="Group_773" data-name="Group 773" transform="translate(1661.422 1041.547) rotate(180)">
      <g data-type="innerShadowGroup">
        <rect id="Rectangle_5324-2" data-name="Rectangle 5324" width="97.793" height="33.425" rx="2" transform="translate(5.218 5.142)" fill="#e9ebe9"/>
        <g transform="matrix(-1, 0, 0, -1, 108, 44.05)" filter="url(#Rectangle_5324)">
          <rect id="Rectangle_5324-3" data-name="Rectangle 5324" width="97.793" height="33.425" rx="2" transform="translate(102.78 38.9) rotate(180)" fill="#fff"/>
        </g>
      </g>
    </g>
    <g id="Group_506" data-name="Group 506" transform="translate(1648.681 1000.92) rotate(90)">
      <g id="Group_458" data-name="Group 458" transform="translate(5.711 6.613)">
        <g id="Group_457" data-name="Group 457" clip-path="url(#clip-path)">
          <path id="Path_629" data-name="Path 629" d="M0,34.744H25.583V0H0Z" transform="translate(0 -0.1) rotate(0.225)" fill="#1f302e"/>
        </g>
      </g>
      <g id="Group_451" data-name="Group 451">
        <g id="Group_450" data-name="Group 450" clip-path="url(#clip-path-2)">
          <path id="Path_630" data-name="Path 630" d="M0,17.2H36.869V0H0Z" fill="#273937"/>
        </g>
      </g>
      <g id="Group_460" data-name="Group 460" transform="translate(7.508 4.971)">
        <path id="Path_514" data-name="Path 514" d="M18.21,3.284H1.642A1.642,1.642,0,1,1,1.642,0H18.21a1.642,1.642,0,1,1,0,3.284" transform="translate(0 0)" fill="#0a1c19"/>
        <path id="Path_515" data-name="Path 515" d="M18.21,1.028H1.642A1.637,1.637,0,0,0,.09,2.156,1.633,1.633,0,0,1,0,1.642,1.642,1.642,0,0,1,1.642,0H18.21a1.642,1.642,0,0,1,1.642,1.642,1.633,1.633,0,0,1-.09.514A1.637,1.637,0,0,0,18.21,1.028" transform="translate(0)" fill="#505b59"/>
      </g>
    </g>
  </g>
</svg>
