<svg xmlns="http://www.w3.org/2000/svg" width="87.563" height="82.5" viewBox="0 0 87.563 82.5">
  <g id="Group_13480" data-name="Group 13480" transform="translate(-1.674 -3.363)">
    <path id="Path_11032" data-name="Path 11032" d="M6.992,57.863c-.811,1.175-1.752,2.317-2.51,3.293l-2.4-3.292" transform="translate(0 24.207)" fill="none" stroke="#6f7c91" stroke-linejoin="round" stroke-width="1"/>
    <path id="Path_11033" data-name="Path 11033" d="M3.779,4V83.655" transform="translate(0.759 0.061)" fill="none" stroke="#6f7c91" stroke-linecap="round" stroke-linejoin="round" stroke-width="1"/>
    <path id="Path_11034" data-name="Path 11034" d="M2.085,7.156C2.9,5.983,3.837,4.841,4.593,3.863l2.4,3.293" fill="none" stroke="#6f7c91" stroke-linejoin="round" stroke-width="1"/>
    <path id="Path_11035" data-name="Path 11035" d="M86.331,31.987H3.779" transform="translate(0.759 12.607)" fill="none" stroke="#6f7c91" stroke-linecap="round" stroke-linejoin="round" stroke-width="1"/>
    <path id="Path_11036" data-name="Path 11036" d="M59.642,30.307c1.173.811,2.317,1.751,3.293,2.508l-3.293,2.4" transform="translate(25.802 11.854)" fill="none" stroke="#6f7c91" stroke-linejoin="round" stroke-width="1"/>
    <path id="Path_11037" data-name="Path 11037" d="M3.779,35.572s7.807-18.78,21.264-18.78,20.736,18.78,20.736,18.78,6.748,21.047,19.254,21.047,18.4-21.047,18.4-21.047" transform="translate(0.759 9.041)" fill="none" stroke="#f06a58" stroke-linecap="round" stroke-linejoin="round" stroke-width="1"/>
  </g>
</svg>
