<svg xmlns="http://www.w3.org/2000/svg" xmlns:xlink="http://www.w3.org/1999/xlink" width="108.076" height="146.987" viewBox="0 0 108.076 146.987">
  <defs>
    <linearGradient id="linear-gradient" x1="0.523" y1="1" x2="0.528" gradientUnits="objectBoundingBox">
      <stop offset="0" stop-color="#10221e"/>
      <stop offset="0.237" stop-color="#1d2f2d"/>
      <stop offset="0.5" stop-color="#465856"/>
      <stop offset="0.784" stop-color="#1d2f2d"/>
      <stop offset="1" stop-color="#1d2f2d"/>
    </linearGradient>
    <filter id="Rectangle_5295" x="0" y="0" width="108.076" height="146.987" filterUnits="userSpaceOnUse">
      <feOffset dy="3" input="SourceAlpha"/>
      <feGaussianBlur stdDeviation="3" result="blur"/>
      <feFlood flood-opacity="0.161" result="color"/>
      <feComposite operator="out" in="SourceGraphic" in2="blur"/>
      <feComposite operator="in" in="color"/>
      <feComposite operator="in" in2="SourceGraphic"/>
    </filter>
    <filter id="Rectangle_5324" x="5.449" y="108.42" width="97.178" height="33.425" filterUnits="userSpaceOnUse">
      <feOffset dy="1" input="SourceAlpha"/>
      <feGaussianBlur stdDeviation="1.5" result="blur-2"/>
      <feFlood flood-opacity="0.161" result="color-2"/>
      <feComposite operator="out" in="SourceGraphic" in2="blur-2"/>
      <feComposite operator="in" in="color-2"/>
      <feComposite operator="in" in2="SourceGraphic"/>
    </filter>
    <filter id="Rectangle_5324-2" x="5.449" y="56.808" width="97.178" height="33.425" filterUnits="userSpaceOnUse">
      <feOffset dy="1" input="SourceAlpha"/>
      <feGaussianBlur stdDeviation="1.5" result="blur-3"/>
      <feFlood flood-opacity="0.161" result="color-3"/>
      <feComposite operator="out" in="SourceGraphic" in2="blur-3"/>
      <feComposite operator="in" in="color-3"/>
      <feComposite operator="in" in2="SourceGraphic"/>
    </filter>
    <filter id="Rectangle_5324-3" x="5.449" y="5.196" width="97.178" height="33.425" filterUnits="userSpaceOnUse">
      <feOffset dy="1" input="SourceAlpha"/>
      <feGaussianBlur stdDeviation="1.5" result="blur-4"/>
      <feFlood flood-opacity="0.161" result="color-4"/>
      <feComposite operator="out" in="SourceGraphic" in2="blur-4"/>
      <feComposite operator="in" in="color-4"/>
      <feComposite operator="in" in2="SourceGraphic"/>
    </filter>
    <clipPath id="clip-path">
      <path id="Path_516" data-name="Path 516" d="M4.567,0V22.79a2.553,2.553,0,0,1-2.315,2.534C1.5,25.4.751,25.491,0,25.58v9.064H25.447V25.58c-.751-.089-1.5-.182-2.252-.256A2.551,2.551,0,0,1,20.88,22.79V0Z" fill="none"/>
    </clipPath>
    <linearGradient id="linear-gradient-4" x1="0.497" y1="1.001" x2="0.503" y2="0.024" gradientUnits="objectBoundingBox">
      <stop offset="0" stop-color="#1d2f2d"/>
      <stop offset="0.323" stop-color="#172926"/>
      <stop offset="0.546" stop-color="#465856"/>
      <stop offset="0.802" stop-color="#293b39"/>
      <stop offset="1" stop-color="#142623"/>
    </linearGradient>
    <clipPath id="clip-path-2">
      <path id="Path_511" data-name="Path 511" d="M0,26.181V40.709a140.072,140.072,0,0,0,18.218,1.222h.434a140.045,140.045,0,0,0,18.217-1.222V26.181A117.988,117.988,0,0,0,0,26.181" fill="url(#linear-gradient)"/>
    </clipPath>
    <linearGradient id="linear-gradient-10" x1="0.5" y1="1" x2="0.5" gradientUnits="objectBoundingBox">
      <stop offset="0" stop-color="#1d2f2d"/>
      <stop offset="0.477" stop-color="#546a68"/>
      <stop offset="1" stop-color="#1d2f2d"/>
    </linearGradient>
  </defs>
  <g id="Group_521" data-name="Group 521" transform="translate(9852.785 4469.532) rotate(180)">
    <g id="Group_425" data-name="Group 425" transform="translate(9852.785 4366.254) rotate(180)">
      <g data-type="innerShadowGroup">
        <rect id="Rectangle_5295-2" data-name="Rectangle 5295" width="108.076" height="146.987" rx="3" transform="translate(0 -103.278)" fill="#fff"/>
        <g transform="matrix(1, 0, 0, 1, 0, -103.28)" filter="url(#Rectangle_5295)">
          <rect id="Rectangle_5295-3" data-name="Rectangle 5295" width="108.076" height="146.987" rx="3" fill="#fff"/>
        </g>
        <g id="Rectangle_5295-4" data-name="Rectangle 5295" transform="translate(0 -103.278)" fill="none" stroke="#f5f5f5" stroke-width="1">
          <rect width="108.076" height="146.987" rx="3" stroke="none"/>
          <rect x="0.5" y="0.5" width="107.076" height="145.987" rx="2.5" fill="none"/>
        </g>
      </g>
      <g data-type="innerShadowGroup">
        <rect id="Rectangle_5324-4" data-name="Rectangle 5324" width="97.178" height="33.425" rx="2" transform="translate(5.449 5.142)" fill="#e9ebe9"/>
        <g transform="matrix(1, 0, 0, 1, 0, -103.28)" filter="url(#Rectangle_5324)">
          <rect id="Rectangle_5324-5" data-name="Rectangle 5324" width="97.178" height="33.425" rx="2" transform="translate(5.45 108.42)" fill="#fff"/>
        </g>
      </g>
    </g>
    <g id="Group_429" data-name="Group 429" transform="translate(9852.785 4417.866) rotate(180)">
      <g data-type="innerShadowGroup">
        <rect id="Rectangle_5324-6" data-name="Rectangle 5324" width="97.178" height="33.425" rx="2" transform="translate(5.449 5.142)" fill="#e9ebe9"/>
        <g transform="matrix(1, 0, 0, 1, 0, -51.67)" filter="url(#Rectangle_5324-2)">
          <rect id="Rectangle_5324-7" data-name="Rectangle 5324" width="97.178" height="33.425" rx="2" transform="translate(5.45 56.81)" fill="#fff"/>
        </g>
      </g>
    </g>
    <g id="Group_431" data-name="Group 431" transform="translate(9852.785 4469.478) rotate(180)">
      <g data-type="innerShadowGroup">
        <rect id="Rectangle_5324-8" data-name="Rectangle 5324" width="97.178" height="33.425" rx="2" transform="translate(5.449 5.142)" fill="#e9ebe9"/>
        <g transform="matrix(1, 0, 0, 1, 0, -0.05)" filter="url(#Rectangle_5324-3)">
          <rect id="Rectangle_5324-9" data-name="Rectangle 5324" width="97.178" height="33.425" rx="2" transform="translate(5.45 5.2)" fill="#fff"/>
        </g>
      </g>
    </g>
    <g id="Group_461" data-name="Group 461" transform="translate(14246.353 -5506.989) rotate(90)">
      <g id="Group_458" data-name="Group 458" transform="translate(9839 4448)">
        <g id="Group_457" data-name="Group 457" clip-path="url(#clip-path)">
          <rect id="Rectangle_5417" data-name="Rectangle 5417" width="25.583" height="34.744" transform="translate(-0.136 0) rotate(-0.225)" fill="url(#linear-gradient-4)"/>
        </g>
      </g>
      <g id="Group_451" data-name="Group 451" transform="translate(9833.289 4447.326)">
        <g id="Group_450" data-name="Group 450" clip-path="url(#clip-path-2)">
          <rect id="Rectangle_5413" data-name="Rectangle 5413" width="36.869" height="17.199" transform="translate(0 24.732)" fill="url(#linear-gradient)"/>
        </g>
      </g>
    </g>
    <g id="Group_483" data-name="Group 483" transform="translate(14246.353 -5454.989) rotate(90)">
      <g id="Group_458-2" data-name="Group 458" transform="translate(9839 4448)">
        <g id="Group_457-2" data-name="Group 457" clip-path="url(#clip-path)">
          <rect id="Rectangle_5417-2" data-name="Rectangle 5417" width="25.583" height="34.744" transform="translate(-0.136 0) rotate(-0.225)" fill="url(#linear-gradient-4)"/>
        </g>
      </g>
      <g id="Group_451-2" data-name="Group 451" transform="translate(9833.289 4447.326)">
        <g id="Group_450-2" data-name="Group 450" clip-path="url(#clip-path-2)">
          <rect id="Rectangle_5413-2" data-name="Rectangle 5413" width="36.869" height="17.199" transform="translate(0 24.732)" fill="url(#linear-gradient)"/>
        </g>
      </g>
    </g>
    <g id="Group_463" data-name="Group 463" transform="translate(14246.353 -5403.989) rotate(90)">
      <g id="Group_458-3" data-name="Group 458" transform="translate(9839 4448)">
        <g id="Group_457-3" data-name="Group 457" clip-path="url(#clip-path)">
          <rect id="Rectangle_5417-3" data-name="Rectangle 5417" width="25.583" height="34.744" transform="translate(-0.136 0) rotate(-0.225)" fill="url(#linear-gradient-4)"/>
        </g>
      </g>
      <g id="Group_451-3" data-name="Group 451" transform="translate(9833.289 4447.326)">
        <g id="Group_450-3" data-name="Group 450" clip-path="url(#clip-path-2)">
          <rect id="Rectangle_5413-3" data-name="Rectangle 5413" width="36.869" height="17.199" transform="translate(0 24.732)" fill="url(#linear-gradient)"/>
        </g>
      </g>
    </g>
    <path id="Path_520" data-name="Path 520" d="M0,0H15.388V11.016H0Z" transform="translate(9771.008 4363) rotate(90)" fill="url(#linear-gradient-10)"/>
    <path id="Path_521" data-name="Path 521" d="M0,0H14.375V11.016H0Z" transform="translate(9771.008 4415) rotate(90)" fill="url(#linear-gradient-10)"/>
    <g id="Group_486" data-name="Group 486" transform="translate(-0.852 52)">
      <path id="Path_517" data-name="Path 517" d="M25.19,30.854H8.622a1.642,1.642,0,0,0,0,3.284H25.19a1.642,1.642,0,1,0,0-3.284" transform="translate(9796.205 4326.828) rotate(90)" fill="#0a1c19"/>
      <path id="Path_518" data-name="Path 518" d="M25.19,33.284H8.622A1.637,1.637,0,0,1,7.07,32.156a1.623,1.623,0,0,0,1.552,2.156H25.19a1.623,1.623,0,0,0,1.552-2.156,1.637,1.637,0,0,1-1.552,1.128" transform="translate(9796.379 4326.828) rotate(90)" fill="#505b59"/>
    </g>
  </g>
</svg>
