<svg id="closed_vendormsg" xmlns="http://www.w3.org/2000/svg" width="34.88" height="36.355" viewBox="0 0 34.88 36.355">
  <path id="Path_1747" data-name="Path 1747" d="M8.583,21.758l6.582,6.871,12.082-12.6L20.662,9.158ZM34.9,12.327,32.1,9.4a3.636,3.636,0,0,1-4.451-.667,4.041,4.041,0,0,1-.641-4.644l-2.8-2.924a1.83,1.83,0,0,0-2.654,0L1.145,22.46a2.028,2.028,0,0,0,0,2.769l2.8,2.92a3.636,3.636,0,0,1,4.455.666,4.041,4.041,0,0,1,.637,4.648l2.8,2.92a1.827,1.827,0,0,0,2.654,0L34.9,15.1a2.023,2.023,0,0,0,0-2.769ZM15.165,31.771,5.571,21.758,20.663,6.015l9.594,10.009L15.165,31.771Z" transform="translate(-0.598 -0.599)" fill="#eb3737"/>
  <g id="Group_2702" data-name="Group 2702" transform="translate(15.641 16.628)">
    <circle id="Ellipse_279" data-name="Ellipse 279" cx="9.62" cy="9.62" r="9.62" fill="#8b14e6"/>
    <rect id="Rectangle_2673" data-name="Rectangle 2673" width="11.797" height="1.242" rx="0.621" transform="translate(3.452 6.02)" fill="#fff"/>
    <rect id="Rectangle_2674" data-name="Rectangle 2674" width="11.797" height="1.242" rx="0.621" transform="translate(3.452 9.125)" fill="#fff"/>
    <rect id="Rectangle_2675" data-name="Rectangle 2675" width="7.451" height="1.242" rx="0.621" transform="translate(3.452 12.229)" fill="#fff"/>
  </g>
</svg>
