<svg xmlns="http://www.w3.org/2000/svg" width="24" height="24" viewBox="0 0 24 24">
  <g id="IP_CHANGE_" data-name="IP_CHANGE " transform="translate(-139.148 -82.541)">
    <path id="Subtraction_18" data-name="Subtraction 18" d="M8.188,23.156h0c-.005,0-.517-.434-1.279-1.2-.445-.446-.887-.917-1.311-1.4-.531-.6-1.036-1.221-1.5-1.842A23.484,23.484,0,0,1,1.279,13.97,16.473,16.473,0,0,1,.352,11.2,13.014,13.014,0,0,1,0,8.243,8.354,8.354,0,0,1,.166,6.581,8.231,8.231,0,0,1,5,.648,8.094,8.094,0,0,1,6.538.167a8.213,8.213,0,0,1,3.3,0,8.116,8.116,0,0,1,2.928,1.24,8.244,8.244,0,0,1,3.443,5.174,8.36,8.36,0,0,1,.166,1.661,13.414,13.414,0,0,1-.352,3.006,16.5,16.5,0,0,1-.927,2.8,22.872,22.872,0,0,1-2.815,4.74c-.467.615-.973,1.228-1.5,1.821-.424.474-.865.936-1.311,1.375-.747.734-1.258,1.154-1.279,1.172ZM8.216,1.875a6.777,6.777,0,1,0,6.777,6.777A6.785,6.785,0,0,0,8.216,1.875Z" transform="translate(143.149 82.541)" fill="#3693ff"/>
    <text id="IP" transform="translate(146.148 95.541)" fill="#3693ff" font-size="12" font-family="Ubuntu-Regular, Ubuntu"><tspan x="0" y="0">IP</tspan></text>
    <path id="Path_3199" data-name="Path 3199" d="M0,0H24V24H0Z" transform="translate(139.148 82.541)" fill="none"/>
  </g>
</svg>
