<svg id="new_ticket" xmlns="http://www.w3.org/2000/svg" width="40.915" height="41.094" viewBox="0 0 40.915 41.094">
  <g id="newticket" transform="translate(0 0)">
    <path id="Path_1747" data-name="Path 1747" d="M9.973,24.516,17.7,32.282,31.885,18.035l-7.732-7.762Zm30.9-10.66-3.288-3.3A4.39,4.39,0,0,1,32.356,9.8,4.439,4.439,0,0,1,31.6,4.548l-3.288-3.3a2.206,2.206,0,0,0-3.116,0L1.24,25.309a2.23,2.23,0,0,0,0,3.13l3.29,3.3a4.39,4.39,0,0,1,5.23.753,4.439,4.439,0,0,1,.748,5.254l3.29,3.3a2.2,2.2,0,0,0,3.116,0L40.87,16.986a2.226,2.226,0,0,0,0-3.13ZM17.7,35.834,6.436,24.516,24.155,6.721,35.419,18.035,17.7,35.834Z" transform="translate(-0.598 -0.599)" fill="#ffaf47"/>
    <ellipse id="Ellipse_279" data-name="Ellipse 279" cx="5.83" cy="5.83" rx="5.83" ry="5.83" transform="translate(1.546 0.487)" fill="#1492e6"/>
  </g>
</svg>
