<svg xmlns="http://www.w3.org/2000/svg" width="36.862" height="30" viewBox="0 0 36.862 30">
  <g id="Group_11" data-name="Group 11" transform="translate(-4526 -633)">
    <path id="Path_10" data-name="Path 10" d="M36.592,16a4.321,4.321,0,0,1,.553-1.56,3.7,3.7,0,0,0,.541-3.09c-.455-1.1-1.708-1.73-2.8-2.29A6.532,6.532,0,0,1,33.3,8.1a4.241,4.241,0,0,1-.7-1.48,4.511,4.511,0,0,0-1.9-2.77A7.372,7.372,0,0,0,26.8,3.31a8.027,8.027,0,0,1-2.076-.08,6.454,6.454,0,0,1-1.646-.85A6.726,6.726,0,0,0,19.429,1,6.734,6.734,0,0,0,15.78,2.38a6.454,6.454,0,0,1-1.646.85,8.027,8.027,0,0,1-2.076.08,7.372,7.372,0,0,0-3.895.54,4.511,4.511,0,0,0-1.9,2.77,4.241,4.241,0,0,1-.7,1.48,6.672,6.672,0,0,1-1.573.96c-1.106.56-2.359,1.19-2.814,2.29a3.7,3.7,0,0,0,.541,3.09A4.321,4.321,0,0,1,2.266,16a4.321,4.321,0,0,1-.553,1.56,3.7,3.7,0,0,0-.541,3.09c.455,1.1,1.708,1.73,2.8,2.29a6.532,6.532,0,0,1,1.585.96,4.241,4.241,0,0,1,.7,1.48,4.511,4.511,0,0,0,1.9,2.77,7.372,7.372,0,0,0,3.895.54,8.027,8.027,0,0,1,2.076.08,6.454,6.454,0,0,1,1.646.85A6.734,6.734,0,0,0,19.429,31a6.734,6.734,0,0,0,3.649-1.38,6.454,6.454,0,0,1,1.646-.85,8.027,8.027,0,0,1,2.076-.08,7.372,7.372,0,0,0,3.895-.54,4.511,4.511,0,0,0,1.9-2.77,4.241,4.241,0,0,1,.7-1.48,6.672,6.672,0,0,1,1.573-.96c1.106-.56,2.359-1.19,2.814-2.29a3.7,3.7,0,0,0-.541-3.09A4.3,4.3,0,0,1,36.592,16Z" transform="translate(4525.001 632)" fill="#df3939"/>
    <text id="NEW" transform="translate(4534 652)" fill="#fff" font-size="10" font-family="Roboto-Bold, Roboto" font-weight="700"><tspan x="0" y="0">NEW</tspan></text>
  </g>
</svg>
