<svg xmlns="http://www.w3.org/2000/svg" width="27" height="23.296" viewBox="0 0 27 23.296"><g transform="translate(-500 -384.348)"><g transform="translate(500 389.2)"><path d="M36.252,257.953v10.8c0,.5-.006.995,0,1.492v.02l1-1H20.284c-.229,0-.459,0-.688,0h-.03l1,1v-10.8c0-.5.006-1,0-1.491v-.02l-1,1H36.531c.229,0,.459,0,.688,0h.03a1.038,1.038,0,0,0,.706-.291,1,1,0,0,0,0-1.412,1.034,1.034,0,0,0-.706-.291H20.284c-.229,0-.459,0-.688,0h-.03a1.012,1.012,0,0,0-1,1v10.8c0,.5-.006.995,0,1.492v.02a1.012,1.012,0,0,0,1,1H36.531c.229,0,.459,0,.688,0h.03a1.012,1.012,0,0,0,1-1v-10.8c0-.5.006-1,0-1.491v-.02a1.038,1.038,0,0,0-.291-.706,1,1,0,0,0-1.412,0A1.051,1.051,0,0,0,36.252,257.953Z" transform="translate(-18.567 -252.816)" fill="#f90"/><path d="M37.6,53.469H20.636c-.229,0-.459,0-.688,0h-.03l.706,1.7,1.316-1.4q1.05-1.116,2.1-2.229l.481-.51c-.235.1-.471.2-.706.291h8.682c.4,0,.8.006,1.2,0h.018c-.235-.1-.471-.2-.706-.291l1.316,1.4q1.05,1.116,2.1,2.229l.481.51a1,1,0,0,0,1.7-.706,1.074,1.074,0,0,0-.291-.706L37.12,52.5q-1.014-1.077-2.026-2.151c-.2-.215-.4-.429-.606-.644a1.077,1.077,0,0,0-.782-.373H24.116a1.933,1.933,0,0,0-.568.036,1.847,1.847,0,0,0-.766.6q-.942,1-1.882,2l-1.6,1.7-.086.092a1,1,0,0,0,.706,1.7H36.881c.229,0,.459,0,.688,0h.03a1.038,1.038,0,0,0,.706-.291,1,1,0,0,0,0-1.412A1.035,1.035,0,0,0,37.6,53.469Z" transform="translate(-18.919 -49.326)" fill="#f90"/><path d="M353.063,257.861v5.467l1.5-.861-1.976-1.035c-.084-.044-.168-.09-.253-.134a1.04,1.04,0,0,0-.5-.138,1.182,1.182,0,0,0-.5.136.142.142,0,0,0-.024.014c-.044.024-.09.046-.134.07l-1.148.6q-.461.242-.923.483l1.5.861v-5.467l-1,1h4.46a1.038,1.038,0,0,0,.706-.291,1,1,0,0,0,0-1.412,1.034,1.034,0,0,0-.706-.291H349.6a1.012,1.012,0,0,0-1,1v5.467a1.007,1.007,0,0,0,.495.861,1.019,1.019,0,0,0,1.007,0l1.952-1.023.279-.146h-1.007l1.952,1.023c.094.048.185.1.279.146a1.019,1.019,0,0,0,1.007,0,1,1,0,0,0,.494-.861v-5.467a1.038,1.038,0,0,0-.291-.706,1,1,0,0,0-1.412,0A1.052,1.052,0,0,0,353.063,257.861Z" transform="translate(-342.02 -252.724)" fill="#f90"/></g><circle cx="7.5" cy="7.5" r="7.5" transform="translate(512 384.348)" fill="#f90"/><path d="M7.408,2a5.408,5.408,0,1,0,5.408,5.408A5.408,5.408,0,0,0,7.408,2Zm0,9.734a4.326,4.326,0,1,1,4.326-4.326A4.326,4.326,0,0,1,7.408,11.734Zm0-4.6a.541.541,0,0,0-.541.541V9.3a.541.541,0,1,0,1.082,0V7.678A.541.541,0,0,0,7.408,7.138Zm0-2.163a.676.676,0,1,0,.676.676A.676.676,0,0,0,7.408,4.974Z" transform="translate(526.908 399.182) rotate(180)" fill="#fff"/></g></svg>