<svg xmlns="http://www.w3.org/2000/svg" width="10.235" height="6.824" viewBox="0 0 10.235 6.824">
  <g id="Group_2693" data-name="Group 2693" transform="translate(-26.136 -25.424)">
    <path id="Path_2939" data-name="Path 2939" d="M1.706,8.853H9.382V8H1.706a.853.853,0,0,0-.853.853v4.691H0v1.279H5.971V13.544H1.706Zm8.1.853H7.25a.428.428,0,0,0-.426.426V14.4a.428.428,0,0,0,.426.426H9.809a.428.428,0,0,0,.426-.426V10.132A.428.428,0,0,0,9.809,9.706Zm-.426,3.838H7.676V10.559H9.382Z" transform="translate(26.136 17.424)" fill="#3693ff"/>
  </g>
</svg>
