<svg xmlns="http://www.w3.org/2000/svg" width="36.35" height="34.065" viewBox="0 0 36.35 34.065">
  <g id="Group_5681" data-name="Group 5681" transform="translate(-18.567 -49.326)">
    <path id="Path_10132" data-name="Path 10132" d="M51.229,258.8V278.74c0,.917-.011,1.838,0,2.755v.037l1.841-1.841H21.739c-.424,0-.847,0-1.27,0h-.055l1.841,1.841V261.59c0-.917.011-1.838,0-2.755V258.8l-1.841,1.841H51.744c.424,0,.847,0,1.27,0h.055a1.917,1.917,0,0,0,1.3-.538,1.849,1.849,0,0,0,0-2.607,1.91,1.91,0,0,0-1.3-.538H21.739c-.424,0-.847,0-1.27,0h-.055a1.869,1.869,0,0,0-1.841,1.841V278.74c0,.917-.011,1.838,0,2.755v.037a1.869,1.869,0,0,0,1.841,1.841H51.744c.424,0,.847,0,1.27,0h.055a1.869,1.869,0,0,0,1.841-1.841V261.59c0-.917.011-1.838,0-2.755V258.8a1.917,1.917,0,0,0-.538-1.3,1.849,1.849,0,0,0-2.607,0A1.941,1.941,0,0,0,51.229,258.8Z" transform="translate(0 -199.983)" fill="#0eff00"/>
    <path id="Path_10133" data-name="Path 10133" d="M53.416,56.978H22.085c-.423,0-.847,0-1.27,0h-.055q.652,1.574,1.3,3.145l2.431-2.585q1.939-2.06,3.874-4.117l.888-.943c-.435.18-.869.361-1.3.538H43.985c.737,0,1.473.011,2.21,0h.033c-.435-.18-.869-.361-1.3-.538l2.431,2.585q1.939,2.06,3.874,4.117l.887.943a1.841,1.841,0,0,0,3.145-1.3,1.984,1.984,0,0,0-.538-1.3q-1.1-1.166-2.195-2.331-1.873-1.989-3.742-3.974c-.372-.4-.748-.792-1.12-1.189a1.989,1.989,0,0,0-1.444-.689H28.511a3.57,3.57,0,0,0-1.05.066,3.41,3.41,0,0,0-1.414,1.112q-1.74,1.845-3.476,3.694-1.48,1.574-2.961,3.145l-.158.169a1.85,1.85,0,0,0,1.3,3.141H52.087c.424,0,.847,0,1.27,0h.055a1.917,1.917,0,0,0,1.3-.538,1.849,1.849,0,0,0,0-2.607A1.911,1.911,0,0,0,53.416,56.978Z" transform="translate(-0.346 0)" fill="#0eff00"/>
    <path id="Path_10134" data-name="Path 10134" d="M356.842,258.708v10.1q1.386-.8,2.769-1.591-1.823-.956-3.649-1.911c-.155-.081-.309-.166-.468-.247a1.922,1.922,0,0,0-.932-.254,2.186,2.186,0,0,0-.932.25.276.276,0,0,0-.044.026c-.081.044-.166.085-.247.129-.707.372-1.414.74-2.121,1.112q-.851.447-1.705.891,1.387.8,2.769,1.591V258.7l-1.841,1.841h8.238a1.917,1.917,0,0,0,1.3-.538,1.849,1.849,0,0,0,0-2.607,1.91,1.91,0,0,0-1.3-.538h-8.238A1.869,1.869,0,0,0,348.6,258.7v10.1a1.86,1.86,0,0,0,.913,1.591,1.881,1.881,0,0,0,1.86,0l3.605-1.889c.173-.088.343-.18.516-.269h-1.86l3.605,1.889c.173.088.343.18.516.269a1.882,1.882,0,0,0,1.86,0,1.855,1.855,0,0,0,.913-1.591V258.7a1.917,1.917,0,0,0-.538-1.3,1.849,1.849,0,0,0-2.607,0A1.943,1.943,0,0,0,356.842,258.708Z" transform="translate(-317.88 -199.893)" fill="#0eff00"/>
  </g>
</svg>
