<svg xmlns="http://www.w3.org/2000/svg" width="426.964" height="417.051" viewBox="0 0 426.964 417.051">
  <g id="Group_5890" data-name="Group 5890" transform="translate(-116.254 -0.998)">
    <path id="Path_10174" data-name="Path 10174" d="M648.9,105.254v53.4s-17.937.071-23.261,0c0,4.123,0,258.969,0,258.969s-40.928-.276-55.729-.393c-.172-.516-.116-152.393-.1-163.466-11.286.15-261.91,1.312-270.342,0V418.049H242.39l1.774-258.361v-.61H221.937v-54.7S428.32.855,435.419,1C439.855,1.908,648.9,105.254,648.9,105.254ZM299.472,179.33v21.711c8.532.31,259.694-.233,270.342.517.338-.969.361-18.632.517-22.227C569.986,179.33,361.846,179.221,299.472,179.33Zm0,38.252v19.642c13.954.089,270.859-.517,270.859-.517V217.582S309.357,217.575,299.472,217.582Z" transform="translate(-105.683 0)" fill="#8e8e8e" fill-rule="evenodd"/>
    <rect id="Rectangle_4836" data-name="Rectangle 4836" width="76" height="51" rx="6" transform="translate(204.604 366.996)" fill="#1492e6"/>
    <rect id="Rectangle_4837" data-name="Rectangle 4837" width="58" height="51" rx="6" transform="translate(222.604 311.996)" fill="#1492e6"/>
    <rect id="Rectangle_4838" data-name="Rectangle 4838" width="69" height="63" rx="6" transform="translate(288.604 299.996)" fill="#1492e6"/>
    <rect id="Rectangle_4840" data-name="Rectangle 4840" width="60" height="63" rx="6" transform="translate(367.604 280.996)" fill="#1492e6"/>
    <rect id="Rectangle_4839" data-name="Rectangle 4839" width="70" height="50" rx="6" transform="translate(287.604 367.996)" fill="#1492e6"/>
    <rect id="Rectangle_4841" data-name="Rectangle 4841" width="86" height="69" rx="6" transform="translate(367.604 348.996)" fill="#1492e6"/>
  </g>
</svg>
