<svg xmlns="http://www.w3.org/2000/svg" width="24.557" height="22.297" viewBox="0 0 24.557 22.297">
  <g id="mute1" transform="translate(-86.815 -102.383)">
    <path id="Path_3458" data-name="Path 3458" d="M279.015,106.575h0Z" transform="translate(-178.251 -3.888)" fill="#ff2c2c"/>
    <path id="Path_3459" data-name="Path 3459" d="M102.411,102.568a1.531,1.531,0,0,0-1.647.12l-8.365,6.13H88.961a2.149,2.149,0,0,0-2.146,2.147V116.1a2.149,2.149,0,0,0,2.146,2.147h3.45l8.353,6.13a1.52,1.52,0,0,0,.906.3,1.639,1.639,0,0,0,.742-.185,3.059,3.059,0,0,0,1.465-2.521V105.1A3.027,3.027,0,0,0,102.411,102.568Zm-.316,19.408a1.467,1.467,0,0,1-.4.871l-8.461-6.209a.891.891,0,0,0-.527-.173H88.961a.369.369,0,0,1-.365-.365v-5.135a.37.37,0,0,1,.365-.365H92.69a.891.891,0,0,0,.527-.172l8.474-6.21a1.462,1.462,0,0,1,.4.883v16.874Zm7.569-8.443,1.448-1.448a.891.891,0,0,0-1.26-1.26l-1.448,1.448-1.448-1.448a.891.891,0,1,0-1.26,1.26l1.448,1.448L105.7,114.98a.891.891,0,1,0,1.26,1.26l1.448-1.448,1.448,1.448a.891.891,0,0,0,1.26-1.26Z" fill="#ff2c2c"/>
  </g>
</svg>
