<svg xmlns="http://www.w3.org/2000/svg" width="31.782" height="22.297" viewBox="0 0 31.782 22.297">
  <g id="unmute1" transform="translate(-86.815 -102.383)">
    <path id="Path_3458" data-name="Path 3458" d="M279.015,106.575h0Z" transform="translate(-178.251 -3.888)" fill="#3693ff"/>
    <path id="Path_3459" data-name="Path 3459" d="M102.411,102.568a1.531,1.531,0,0,0-1.647.12l-8.365,6.13H88.961a2.149,2.149,0,0,0-2.146,2.147V116.1a2.149,2.149,0,0,0,2.146,2.147h3.45l8.353,6.13a1.52,1.52,0,0,0,.906.3,1.639,1.639,0,0,0,.742-.185,3.059,3.059,0,0,0,1.465-2.521V105.1A3.027,3.027,0,0,0,102.411,102.568Zm-.316,19.408a1.467,1.467,0,0,1-.4.871l-8.461-6.209a.891.891,0,0,0-.527-.173H88.961a.369.369,0,0,1-.365-.365v-5.135a.37.37,0,0,1,.365-.365H92.69a.891.891,0,0,0,.527-.172l8.474-6.21a1.462,1.462,0,0,1,.4.883v16.874Z" fill="#3693ff"/>
    <path id="Path_3460" data-name="Path 3460" d="M58.336,28.134a1.04,1.04,0,0,1-.892-1.574,9.374,9.374,0,0,0,0-9.592A1.04,1.04,0,1,1,59.23,15.9a11.452,11.452,0,0,1,0,11.726A1.04,1.04,0,0,1,58.336,28.134Zm3.113,2.854a1.04,1.04,0,0,1-.859-1.626,13.531,13.531,0,0,0,0-15.2A1.04,1.04,0,1,1,62.311,13a15.612,15.612,0,0,1,0,17.538A1.04,1.04,0,0,1,61.45,30.988Zm-6.291-5.767a1.04,1.04,0,0,1-.959-1.443,5.222,5.222,0,0,0,0-4.037,1.04,1.04,0,1,1,1.916-.811,7.3,7.3,0,0,1,.007,5.654,1.04,1.04,0,0,1-.959.637Z" transform="translate(53.591 91.769)" fill="#3693ff"/>
  </g>
</svg>
