<svg xmlns="http://www.w3.org/2000/svg" width="41.264" height="29.472" viewBox="0 0 41.264 29.472">
  <g id="Group_5400" data-name="Group 5400" transform="translate(-340.35 -18.765)">
    <path id="Path_10384" data-name="Path 10384" d="M3.091,0H1.041V-9.1h2.05ZM5.161,0V-9.1H8.385q4.85,0,4.85,4.437a4.487,4.487,0,0,1-1.323,3.4A4.88,4.88,0,0,1,8.385,0Zm2.05-7.433v5.77H8.227a2.744,2.744,0,0,0,2.092-.8,3.035,3.035,0,0,0,.759-2.177,2.753,2.753,0,0,0-.752-2.047,2.868,2.868,0,0,0-2.111-.746Z" transform="translate(354 39)" fill="#368cff"/>
    <path id="Icon_ionic-ios-tablet-landscape" data-name="Icon ionic-ios-tablet-landscape" d="M2.895,7.395A2.2,2.2,0,0,0,2.25,8.952V34.02a2.188,2.188,0,0,0,.645,1.557h0a2.2,2.2,0,0,0,1.557.645H41.312a2.188,2.188,0,0,0,1.557-.645h0a2.2,2.2,0,0,0,.645-1.557V8.952a2.188,2.188,0,0,0-.645-1.557h0a2.2,2.2,0,0,0-1.557-.645H4.452a2.2,2.2,0,0,0-1.557.645Zm.894,14.132a.645.645,0,1,1,.645.645A.653.653,0,0,1,3.789,21.527ZM42.6,21.491a1.294,1.294,0,1,1-1.3-1.3A1.322,1.322,0,0,1,42.6,21.491ZM39.1,8.224V34.757H6.672V8.224Z" transform="translate(338.1 12.015)" fill="#368cff"/>
  </g>
</svg>
