<svg id="batteryLow" xmlns="http://www.w3.org/2000/svg" width="97.958" height="97.958" viewBox="0 0 97.958 97.958">
  <path id="Path_2239" data-name="Path 2239" d="M0,0H97.957V97.957H0Z" transform="translate(0 0)" fill="none"/>
  <path id="Subtraction_7" data-name="Subtraction 7" d="M10678.934,13987.427H10649a5.456,5.456,0,0,1-5.451-5.448v-62.59a5.435,5.435,0,0,1,5.451-5.451h6.8v-8.162h16.323v8.162h6.8a5.463,5.463,0,0,1,5.469,5.451v62.59A5.455,5.455,0,0,1,10678.934,13987.427Zm-29.41-71.039a3,3,0,0,0-3,3v62a3,3,0,0,0,3,3h29a3,3,0,0,0,3-3v-62a3,3,0,0,0-3-3Z" transform="translate(-10614.976 -13897.612)" fill="#dc3838"/>
  <path id="Path_2321" data-name="Path 2321" d="M18.457,43.113A3.457,3.457,0,0,0,15,46.57v3.457a3.457,3.457,0,0,0,6.914,0V46.57A3.457,3.457,0,0,0,18.457,43.113Zm0-31.113A3.457,3.457,0,0,0,15,15.457V36.2a3.457,3.457,0,1,0,6.914,0V15.457A3.457,3.457,0,0,0,18.457,12Z" transform="translate(30.532 19.657)" fill="#dc3838"/>
</svg>
