<svg xmlns="http://www.w3.org/2000/svg" width="60" height="60" viewBox="0 0 60 60">
  <g id="Group_2533" data-name="Group 2533" transform="translate(0.25 0.25)">
    <circle id="Ellipse_331" data-name="Ellipse 331" cx="30" cy="30" r="30" transform="translate(-0.25 -0.25)" fill="#fff"/>
    <path id="Path_2732" data-name="Path 2732" d="M30.381,31.332a4.678,4.678,0,1,1,3.6.135V48.749a1.8,1.8,0,1,1-3.6,0ZM26.21,33.517a.713.713,0,0,1-.526-.231,9.745,9.745,0,0,1,.269-13.429.714.714,0,1,1,1.006,1.012,8.313,8.313,0,0,0-.224,11.448.709.709,0,0,1-.041,1.006.691.691,0,0,1-.484.194Zm12.4.256a.716.716,0,0,1-.51-1.214,8.331,8.331,0,0,0,0-11.5.713.713,0,0,1,.014-1.009.7.7,0,0,1,1.009.014,9.758,9.758,0,0,1,0,13.492A.726.726,0,0,1,38.614,33.773ZM23.308,37.258a1.083,1.083,0,0,1-.8-.343,14.992,14.992,0,0,1,.16-20.583,1.1,1.1,0,1,1,1.576,1.531,12.8,12.8,0,0,0-.138,17.551,1.1,1.1,0,0,1-.049,1.55,1.08,1.08,0,0,1-.752.294Zm18.252.157a1.095,1.095,0,0,1-.789-1.858,12.792,12.792,0,0,0,0-17.694,1.1,1.1,0,0,1,1.576-1.531,14.99,14.99,0,0,1,0,20.75,1.089,1.089,0,0,1-.786.331Z" transform="translate(-2.759 -1.142)" fill-rule="evenodd"/>
  </g>
</svg>
