<svg xmlns="http://www.w3.org/2000/svg" xmlns:xlink="http://www.w3.org/1999/xlink" width="189.558" height="172.929" viewBox="0 0 189.558 172.929">
  <defs>
    <linearGradient id="linear-gradient" x1="1.138" y1="-0.128" x2="-0.251" y2="1.128" gradientUnits="objectBoundingBox">
      <stop offset="0" stop-color="#636363"/>
      <stop offset="1" stop-color="#1e1e1e"/>
    </linearGradient>
    <linearGradient id="linear-gradient-2" x1="1" y1="-0.028" x2="0.019" y2="0.97" gradientUnits="objectBoundingBox">
      <stop offset="0" stop-color="#1d1d1d"/>
      <stop offset="0" stop-color="#fff"/>
      <stop offset="1" stop-color="#1d1d1d"/>
    </linearGradient>
  </defs>
  <g id="connector_svg" transform="translate(-895.055 -219.608)">
    <path id="Path_2757" data-name="Path 2757" d="M130.952,173.887l-15.943.778-16.234.263-16.107-.26L66.725,173.9l-15.983-1.3-10.355-1.238-5.828-.956-5.631-1.19-5.285-1.467L20,166.427l-3.306-1.5-2.874-1.665-2.386-1.8-1.946-1.915L7.963,157.56,6.2,154.122l-.973-3.513-.387-3.533-.49-12.941-.288-12.973L4,108.205l.2-12.971.329-9.272.5-9.269.69-9.248.9-9.238,1.163-9.248,1.451-9.226,1.779-9.177,2.2-9.142,1.243-3.663,1.006-2.043L16.809,13.7l1.81-1.919,2.447-1.8,3.106-1.57L27.836,7.15l4.046-.989,5.659-.976L43.4,4.476l5.947-.531,14.406-.971,14.5-.641L88.5,2.083,98.778,2l14.565.167,14.525.5,10.185.555,10.145.72,7.2.673,4.519.562,4.42.717,4.208.93,3.837,1.2L175.7,9.514l2.6,1.733,1.984,1.9,1.9,2.688,1.279,2.772.88,2.8,2.907,12.531,2.174,12.591,1.613,12.585,1.15,12.611.607,9.438.42,9.443.253,9.427.1,9.424-.035,9.432-.159,9.42-.273,9.39-.377,9.372-.22,2.46-.475,2.45-.943,2.806-1.481,2.762-2.141,2.66-2.113,1.885-2.578,1.771-3.013,1.609-3.4,1.416-3.73,1.24-3.968,1.066-7.016,1.444-7.332,1.1-7.486.843Z" transform="translate(891.055 217.608)" fill="url(#linear-gradient)"/>
    <path id="Path_2759" data-name="Path 2759" d="M122.128,161.94l-14.835.724-15.105.245L77.2,162.668l-14.835-.72-14.872-1.213-9.635-1.152-5.423-.89-5.24-1.107-4.917-1.365L18.887,155,15.81,153.6l-2.674-1.55-2.22-1.675L9.106,148.6l-1.418-1.85-1.642-3.2-.905-3.269-.36-3.287-.456-12.041L4.056,112.88,4,100.823l.188-12.069.306-8.627L4.955,71.5,5.6,62.9l.842-8.6,1.082-8.606,1.35-8.585,1.656-8.539,2.046-8.507,1.157-3.408.936-1.9,1.253-1.866L17.6,11.1l2.276-1.675,2.89-1.461,3.41-1.174,3.765-.92,5.266-.908,5.456-.66L46.2,3.81l13.4-.9,13.49-.6,9.534-.232L92.19,2l13.553.156,13.515.468,9.477.516,9.44.67,6.7.626,4.2.523,4.113.667,3.916.866,3.57,1.115,3.081,1.385,2.422,1.613,1.846,1.769,1.766,2.5,1.19,2.58.818,2.608,2.7,11.66,2.023,11.716,1.5,11.71,1.07,11.734.564,8.782.39,8.786.235,8.772.089,8.769-.033,8.777-.148,8.766-.254,8.737-.35,8.721-.2,2.289-.442,2.28-.877,2.611-1.378,2.57-1.992,2.475-1.966,1.754-2.4,1.648-2.8,1.5-3.163,1.318-3.471,1.154-3.692.992-6.528,1.344-6.822,1.027-6.966.784Z" transform="translate(897.642 223.618)" fill="url(#linear-gradient-2)"/>
    <path id="Path_2760" data-name="Path 2760" d="M119.543,158.44l-14.51.708-14.775.24-14.66-.236-14.51-.7-14.547-1.186-9.424-1.127-5.3-.87-5.125-1.083-4.81-1.336-3.317-1.2-3.009-1.364-2.615-1.516-2.171-1.638L8.994,145.39l-1.387-1.81L6,140.451l-.886-3.2-.352-3.215-.446-11.778-.262-11.807L4,98.661l.184-11.805.3-8.439.451-8.436.628-8.417.824-8.408,1.058-8.417,1.32-8.4,1.619-8.352,2-8.32,1.132-3.334.916-1.86,1.226-1.826L17.3,10.9l2.227-1.638,2.827-1.429,3.335-1.148,3.683-.9,5.15-.888,5.337-.645,5.413-.484,13.112-.884L71.582,2.3l9.325-.227L90.26,2l13.257.152,13.22.458,9.27.5,9.233.655,6.556.612,4.113.511,4.023.653,3.83.847,3.492,1.091,3.013,1.355,2.369,1.577,1.806,1.731,1.728,2.446,1.164,2.523.8,2.551,2.645,11.4,1.978,11.459,1.468,11.454,1.047,11.477.552,8.59.382,8.594.23,8.58.087,8.577-.032,8.584-.145,8.574-.248,8.546-.343,8.53-.2,2.239-.432,2.23-.858,2.554-1.348,2.514L170.968,146l-1.923,1.716-2.346,1.611-2.742,1.464-3.094,1.289-3.4,1.129-3.611.97-6.386,1.314-6.673,1-6.813.767Z" transform="translate(899.573 225.379)"/>
    <path id="Path_2758" data-name="Path 2758" d="M6.492,53.119A168.65,168.65,0,0,1,10.209,29.48c2.754-11.163,1.995-8.8,1.995-8.8l1.128-3.525.912-1.966,1.222-1.93,1.641-1.847,2.219-1.732L22.144,8.17l3.324-1.214L29.138,6l5.133-.939,5.319-.682,5.394-.511,13.068-.935L71.2,2.32,80.5,2.08,89.818,2l13.212.161,13.175.484,9.239.534,9.2.693,6.534.648,4.1.541,4.01.69,3.817.9,3.48,1.153,3,1.433,2.361,1.668,1.8,1.83,1.722,2.587,1.16,2.668s-3.274-9.742.8,2.7,5.718,32.438,5.718,32.438Z" transform="translate(899.686 225.618)" fill="#1d1d1d"/>
  </g>
</svg>
