<svg xmlns="http://www.w3.org/2000/svg" xmlns:xlink="http://www.w3.org/1999/xlink" width="259.785" height="236.995" viewBox="0 0 259.785 236.995">
  <defs>
    <linearGradient id="linear-gradient" x1="1.138" y1="-0.128" x2="-0.251" y2="1.128" gradientUnits="objectBoundingBox">
      <stop offset="0" stop-color="#ebebeb"/>
      <stop offset="1" stop-color="#8e8e8e"/>
    </linearGradient>
    <linearGradient id="linear-gradient-2" x1="1.035" y1="-0.05" x2="0" y2="0.989" gradientUnits="objectBoundingBox">
      <stop offset="0" stop-color="#dbdbdb"/>
      <stop offset="1" stop-color="#6d6d6d"/>
      <stop offset="1" stop-color="#1d1d1d"/>
    </linearGradient>
  </defs>
  <g id="connLitht" transform="translate(-895.055 -219.608)">
    <path id="Path_2757" data-name="Path 2757" d="M177.984,237.567l-21.849,1.067-22.248.361-22.075-.356-21.849-1.06-21.9-1.787-14.191-1.7-7.987-1.31-7.717-1.631-7.243-2.011-4.995-1.8-4.531-2.054-3.938-2.282-3.27-2.467-2.667-2.624-2.089-2.725-2.418-4.712L5.68,205.665l-.53-4.842-.672-17.735-.395-17.78L4,147.552l.277-17.776.45-12.707.679-12.7L6.352,91.69l1.24-12.66L9.185,66.355l1.988-12.644,2.438-12.577,3.013-12.529,1.7-5.02,1.379-2.8,1.846-2.749,2.48-2.63,3.353-2.467,4.257-2.152,5.022-1.729L42.212,7.7l7.755-1.338L58,5.394l8.15-.728L85.9,3.334l19.868-.879,14.042-.342L133.891,2l19.962.229,19.906.69,13.959.76,13.9.986,9.872.922,6.193.77,6.058.983,5.767,1.275,5.258,1.642,4.538,2.04,3.568,2.375,2.719,2.606,2.6,3.684,1.753,3.8,1.205,3.841,3.983,17.173,2.979,17.255,2.21,17.247L261.9,97.562l.831,12.935.575,12.941.346,12.92.132,12.915-.048,12.927-.218,12.91-.374,12.869-.516,12.845-.3,3.371-.651,3.358-1.292,3.846-2.03,3.785-2.934,3.645-2.9,2.584-3.533,2.427-4.129,2.205-4.659,1.941-5.113,1.7-5.438,1.461-9.615,1.979-10.048,1.512-10.26,1.155Z" transform="translate(891.055 217.608)" fill="url(#linear-gradient)"/>
    <path id="Path_2759" data-name="Path 2759" d="M165.892,221.194l-20.331.992-20.7.336-20.54-.331L83.989,221.2l-20.382-1.662-13.2-1.579-7.432-1.219-7.181-1.518-6.739-1.871L24.4,211.681l-4.216-1.912-3.665-2.124-3.043-2.3L11,202.909l-1.943-2.535L6.8,195.989l-1.241-4.48L5.07,187l-.625-16.5-.367-16.544L4,137.435l.258-16.541.419-11.824L5.309,97.25l.88-11.794,1.154-11.78L8.825,61.882l1.85-11.765,2.269-11.7,2.8-11.658,1.586-4.671,1.283-2.606,1.718-2.558,2.308-2.447,3.12-2.3,3.961-2L34.4,8.568l5.16-1.261,7.216-1.245,7.477-.9,7.584-.678L80.2,3.242l18.487-.818,13.066-.318L124.863,2l18.574.213,18.523.642,12.989.707,12.937.918,9.186.858,5.763.716,5.637.915,5.366,1.186,4.892,1.528,4.222,1.9,3.32,2.21,2.53,2.425,2.42,3.428,1.631,3.535,1.122,3.574,3.706,15.98,2.772,16.056,2.056,16.048,1.466,16.081.774,12.036L245.284,115l.322,12.022.122,12.018-.045,12.028-.2,12.013-.348,11.974L244.652,187l-.28,3.137-.606,3.125-1.2,3.579-1.889,3.522-2.73,3.392-2.694,2.4-3.287,2.258-3.842,2.052-4.335,1.806-4.757,1.582-5.06,1.359-8.947,1.842-9.35,1.407-9.547,1.074Z" transform="translate(900.083 225.845)" fill="url(#linear-gradient-2)"/>
    <path id="Path_2760" data-name="Path 2760" d="M162.349,216.4l-19.886.971-20.248.328-20.091-.324-19.886-.965L62.3,214.782l-12.916-1.544-7.27-1.193-7.024-1.484L28.5,208.73l-4.546-1.638-4.123-1.87-3.584-2.077L13.271,200.9l-2.427-2.388-1.9-2.48-2.2-4.288-1.214-4.382-.482-4.407-.612-16.141-.359-16.182L4,134.471l.252-16.179.41-11.565L5.28,95.166,6.141,83.63,7.269,72.107l1.45-11.536,1.81-11.508,2.219-11.447,2.743-11.4,1.551-4.569L18.3,19.1l1.68-2.5L22.234,14.2l3.052-2.245L29.16,10l4.571-1.574,5.047-1.233,7.058-1.217,7.314-.885,7.418-.663L78.537,3.214l18.083-.8L109.4,2.1,122.218,2l18.168.209,18.117.628,12.7.692,12.654.9,8.985.839,5.637.7L204,6.861l5.249,1.16,4.785,1.495,4.13,1.857,3.247,2.162,2.475,2.372,2.368,3.353,1.6,3.458,1.1,3.5,3.625,15.63,2.711,15.7,2.011,15.7,1.434,15.729.757,11.772L240,112.524l.315,11.759.12,11.755-.044,11.765-.2,11.75-.34,11.712-.47,11.69-.274,3.068-.593,3.057-1.176,3.5-1.847,3.445-2.67,3.318-2.635,2.351-3.216,2.208-3.758,2.007-4.24,1.766-4.653,1.547-4.949,1.33-8.751,1.8-9.145,1.376-9.338,1.051Z" transform="translate(902.728 228.258)" fill="#efefef"/>
    <path id="Path_2758" data-name="Path 2758" d="M6.492,72.057a231.13,231.13,0,0,1,5.093-32.4C15.36,24.362,14.319,27.6,14.319,27.6l1.546-4.831,1.25-2.695,1.675-2.645,2.25-2.531,3.041-2.374,3.861-2.071L32.5,8.793l5.03-1.3L44.563,6.2l7.289-.935,7.393-.7L77.154,3.284l18.022-.846,12.737-.329L120.689,2l18.107.221,18.057.664,12.662.732,12.612.949,8.954.887,5.618.741,5.5.946,5.231,1.227,4.769,1.58,4.116,1.963,3.236,2.286,2.466,2.508,2.36,3.545,1.59,3.656s-4.486-13.352,1.093,3.7,7.836,44.456,7.836,44.456Z" transform="translate(903.808 228.586)" fill="#fff"/>
  </g>
</svg>
