<svg id="Group_3761" data-name="Group 3761" xmlns="http://www.w3.org/2000/svg" width="18.208" height="18.208" viewBox="0 0 18.208 18.208">
  <path id="Path_3641" data-name="Path 3641" d="M0,0H18.208V18.208H0Z" fill="none"/>
  <path id="Path_3543" data-name="Path 3543" d="M16.33,3.435,13.638.71A2.689,2.689,0,0,0,11.4.033H8.926A1.354,1.354,0,0,0,7.581,1.4V2.758H6.237A1.354,1.354,0,0,0,4.9,4.12V13.2h0a1.354,1.354,0,0,0,1.344,1.366H13.2A1.354,1.354,0,0,0,14.544,13.2V11.835h1.338a1.354,1.354,0,0,0,1.345-1.366V5.478a2.358,2.358,0,0,0-.9-2.044Zm-3.813-1.9a.974.974,0,0,1,.17.143L15.378,4.4a3.954,3.954,0,0,1,.366.4H13.321a.806.806,0,0,1-.8-.809ZM13.191,13.2H6.237V4.12H7.58v6.355a1.354,1.354,0,0,0,1.347,1.36h4.264Zm2.7-2.724H8.928V1.4h2.244V3.991a2.162,2.162,0,0,0,2.149,2.174h2.567Z" transform="translate(-1.939 1.821)" fill="#3693ff"/>
</svg>
