<svg xmlns="http://www.w3.org/2000/svg" width="38.566" height="38.566" viewBox="0 0 38.566 38.566">
  <g id="_1" data-name="1" transform="translate(46.566 46.565) rotate(180)">
    <path id="Subtraction_7" data-name="Subtraction 7" d="M12833.618,7814.565a19.283,19.283,0,1,1,13.635-5.647A19.156,19.156,0,0,1,12833.618,7814.565Zm0-22.4a3.123,3.123,0,0,0-3.119,3.12v9.354a3.119,3.119,0,0,0,6.238,0v-9.354A3.123,3.123,0,0,0,12833.618,7792.163Zm0-9.34a3.115,3.115,0,0,0-1.187.234,2.844,2.844,0,0,0-1.684,1.684,3.141,3.141,0,0,0-.248,1.184,3.27,3.27,0,0,0,.9,2.213,3.706,3.706,0,0,0,1.028.658,2.93,2.93,0,0,0,1.188.248,2.9,2.9,0,0,0,1.184-.248,3.65,3.65,0,0,0,1.029-.658,3.265,3.265,0,0,0,.906-2.213,3.092,3.092,0,0,0-.252-1.184,2.807,2.807,0,0,0-1.684-1.684A3.092,3.092,0,0,0,12833.618,7782.823Z" transform="translate(-12806.335 -7768)" fill="#c82626"/>
  </g>
</svg>
