<svg xmlns="http://www.w3.org/2000/svg" width="60.5" height="60.5" viewBox="0 0 60.5 60.5">
  <g id="Group_2533" data-name="Group 2533" transform="translate(0.5 0.5)">
    <circle id="Ellipse_331" data-name="Ellipse 331" cx="30" cy="30" r="30" transform="translate(-0.25 -0.25)" fill="#fff" stroke="#17384c" stroke-width="0.5"/>
    <path id="Path_2722" data-name="Path 2722" d="M45.422,27.11H43.787L43.776,20H42.141l.011,7.11H40.518L40.547,20H38.872v7.11H37.249V20H35.581l.034,7.11H33.98V20H32.345v7.11H30.711V20H29.076v7.11H27.442V20H25.807v7.11H24.173V20H22.538v7.11H20.9V20H16V38.96h7.355V43.7h4.086v5.53h11.43V43.7h4.1V38.96h7.355V20h-4.9Z" transform="translate(-3.413 -3.634)"/>
  </g>
</svg>
