<svg xmlns="http://www.w3.org/2000/svg" width="9.617" height="10.098" viewBox="0 0 9.617 10.098">
  <g id="Page-1" transform="translate(0 10.098) rotate(-90)">
    <g id="Dribbble-Light-Preview" transform="translate(0 0)">
      <g id="icons" transform="translate(0)">
        <path id="url-_1424_" data-name="url-[#1424]" d="M244.635,444.3a1.911,1.911,0,0,1,.338-3.038,2.179,2.179,0,0,1,2.62.3l.323.307a.534.534,0,0,0,.729,0,.474.474,0,0,0,0-.694l-.273-.26a3.3,3.3,0,0,0-4.4-.151,2.848,2.848,0,0,0-.068,4.228l.364.347a.534.534,0,0,0,.729,0,.474.474,0,0,0,0-.694Zm7.49.191-.263-.25a.534.534,0,0,0-.729,0,.474.474,0,0,0,0,.693l.323.308a1.928,1.928,0,0,1,.317,2.494,2.13,2.13,0,0,1-3.191.321l-.364-.347a.534.534,0,0,0-.729,0,.474.474,0,0,0,0,.694l.364.347a3.2,3.2,0,0,0,4.431-.055,2.931,2.931,0,0,0-.159-4.205Zm-2.086,2.873-4.676-4.452a.475.475,0,0,1,0-.694.534.534,0,0,1,.729,0l4.676,4.452a.475.475,0,0,1,0,.694A.535.535,0,0,1,250.04,447.367Z" transform="translate(-243 -440)" fill="#3693ff" fill-rule="evenodd"/>
      </g>
    </g>
  </g>
</svg>
