<svg xmlns="http://www.w3.org/2000/svg" width="48.632" height="42.592" viewBox="0 0 48.632 42.592">
  <path id="Path_3630" data-name="Path 3630" d="M26.523,4a1.775,1.775,0,0,0-1.445.887L2.536,43.931a1.775,1.775,0,0,0,1.535,2.662H49.158a1.775,1.775,0,0,0,1.536-2.662L28.152,4.89A1.775,1.775,0,0,0,26.523,4Zm.091,14.17a1.7,1.7,0,0,1,1.775,1.8v10.6a1.775,1.775,0,1,1-3.549,0v-10.6A1.7,1.7,0,0,1,26.613,18.173Zm.108,17.772a1.777,1.777,0,0,1,.177.011,2.624,2.624,0,1,1-.315-.007H26.6q.062,0,.124,0Z" transform="translate(-2.299 -4)" fill="#ff1c1c"/>
</svg>
