<svg xmlns="http://www.w3.org/2000/svg" width="40.559" height="40.559" viewBox="0 0 40.559 40.559">
  <path id="Path_3622" data-name="Path 3622" d="M147.936,152.5a.835.835,0,0,1-.264.607l-8.767,8.767,3.8,3.8a1.69,1.69,0,0,1-1.188,2.878H129.69a1.713,1.713,0,0,1-1.69-1.69v-11.83a1.681,1.681,0,0,1,2.878-1.188l3.8,3.8,8.767-8.767a.83.83,0,0,1,1.215,0l3.01,3.01A.835.835,0,0,1,147.936,152.5Zm20.623-22.815v11.83a1.68,1.68,0,0,1-2.878,1.188l-3.8-3.8-8.767,8.767a.83.83,0,0,1-1.215,0l-3.01-3.01a.83.83,0,0,1,0-1.215l8.767-8.767-3.8-3.8A1.69,1.69,0,0,1,155.039,128h11.83a1.713,1.713,0,0,1,1.69,1.69Z" transform="translate(-128 -128)"/>
</svg>
