<svg xmlns="http://www.w3.org/2000/svg" width="57" height="57" viewBox="0 0 57 57">
  <g id="humidity" transform="translate(-782 -1132)">
    <rect id="Rectangle_2599" data-name="Rectangle 2599" width="57" height="57" rx="5" transform="translate(782 1132)" fill="#fff"/>
    <circle id="Ellipse_329" data-name="Ellipse 329" cx="2.5" cy="2.5" r="2.5" transform="translate(785 1135)" fill="#f79631"/>
    <g id="Group_2518" data-name="Group 2518" transform="translate(-0.651 -1.428)">
      <path id="Path_2709" data-name="Path 2709" d="M18.752,39.3A6.306,6.306,0,0,1,12.47,33.02c0-2.972,4.349-10.873,5.219-12.443a1.281,1.281,0,0,1,2.126,0c.87,1.57,5.219,9.471,5.219,12.443A6.306,6.306,0,0,1,18.752,39.3Z" transform="translate(804.516 1143.132)"/>
      <path id="Path_2710" data-name="Path 2710" d="M16.554,32.552a4.1,4.1,0,0,1-4.084-4.084c0-1.932,2.827-7.068,3.393-8.089a.832.832,0,0,1,1.382,0c.565,1.021,3.393,6.157,3.393,8.089a4.1,4.1,0,0,1-4.084,4.084Z" transform="translate(798.682 1136.862)"/>
      <path id="Path_2711" data-name="Path 2711" d="M15.519,29.375a3.061,3.061,0,0,1-3.049-3.049c0-1.443,2.111-5.278,2.533-6.04a.622.622,0,0,1,1.032,0c.422.762,2.533,4.6,2.533,6.04a3.061,3.061,0,0,1-3.049,3.049Z" transform="translate(806.849 1131.449)"/>
    </g>
  </g>
</svg>
