<svg xmlns="http://www.w3.org/2000/svg" width="57" height="57" viewBox="0 0 57 57">
  <g id="proximityCounter" transform="translate(-782 -1132)">
    <rect id="Rectangle_2599" data-name="Rectangle 2599" width="57" height="57" rx="5" transform="translate(782 1132)" fill="#fff"/>
    <circle id="Ellipse_329" data-name="Ellipse 329" cx="2.5" cy="2.5" r="2.5" transform="translate(785 1135)" fill="#f79631"/>
    <g id="Group_2516" data-name="Group 2516" transform="translate(800.508 1175.235)">
      <path id="Union_9" data-name="Union 9" d="M3.7,7.692a3.139,3.139,0,0,1-2.2-.9l-.022-.02-.02-.022a3.11,3.11,0,0,1-.9-2.19h0a3.1,3.1,0,0,1,.584-1.814L.729,2.333l-.25.25a.277.277,0,0,1-.2.081.281.281,0,0,1-.2-.081.277.277,0,0,1,0-.395L1.149,1.125a.28.28,0,0,1,.4,0,.277.277,0,0,1,0,.394l-.251.25.4.395a3.136,3.136,0,0,1,1.564-.7V.558H2.9A.279.279,0,1,1,2.9,0H4.339a.279.279,0,1,1,0,.558H3.984v.889A3.141,3.141,0,0,1,5.9,2.327a.284.284,0,0,1,.028.025.256.256,0,0,1,.025.028,3.11,3.11,0,0,1,.9,2.163c0,.007,0,.014,0,.02s0,.012,0,.018a3.112,3.112,0,0,1-.9,2.173l-.019.02L5.9,6.8a3.139,3.139,0,0,1-2.2.9Z" transform="translate(0 0)" stroke="#000" stroke-width="0.5"/>
    </g>
    <g id="Group_2517" data-name="Group 2517" transform="translate(1030.51 1350.744) rotate(180)">
      <path id="Path_2707" data-name="Path 2707" d="M219.246,170.942h-3.623V168.85a.957.957,0,0,0-.885-1.033.822.822,0,0,0-.2.026L198.229,172a1.2,1.2,0,0,0-.811,1.172v28.5a1.2,1.2,0,0,0,.811,1.172L214.535,207a.821.821,0,0,0,.2.026.957.957,0,0,0,.885-1.033V203.9h3.623a1.068,1.068,0,0,0,.956-1.15V172.092A1.068,1.068,0,0,0,219.246,170.942Zm-4.879,34.565-15.694-4V173.337l15.694-4v36.172Z" transform="translate(0 0)"/>
      <path id="Path_2708" data-name="Path 2708" d="M704.467,806.129a2.418,2.418,0,1,0,2,2.382A2.22,2.22,0,0,0,704.467,806.129Z" transform="translate(-494.48 -621.09)"/>
    </g>
  </g>
</svg>
