<svg xmlns="http://www.w3.org/2000/svg" width="57" height="57" viewBox="0 0 57 57">
  <g id="temperature" transform="translate(-782 -1132)">
    <rect id="Rectangle_2599" data-name="Rectangle 2599" width="57" height="57" rx="5" transform="translate(782 1132)" fill="#fff"/>
    <circle id="Ellipse_329" data-name="Ellipse 329" cx="2.5" cy="2.5" r="2.5" transform="translate(785 1135)" fill="#f79631"/>
    <g id="temperature_CO2_NH3_noise" transform="translate(799.402 1144.96)">
      <path id="Subtraction_6" data-name="Subtraction 6" d="M-8112.2-13953.247a7.217,7.217,0,0,1-7.205-7.212,7.271,7.271,0,0,1,2.71-5.629v-20.4a4.478,4.478,0,0,1,4.477-4.47,4.5,4.5,0,0,1,4.516,4.47v20.4a7.245,7.245,0,0,1,1.991,2.506,7.274,7.274,0,0,1,.716,3.126,7.148,7.148,0,0,1-.4,2.381,7.2,7.2,0,0,1-.713,1.479A7.18,7.18,0,0,1-8112.2-13953.247Zm-.007-26.292a.562.562,0,0,0-.565.572v16.31a2.554,2.554,0,0,0-1.991,2.5,2.567,2.567,0,0,0,2.563,2.563,2.567,2.567,0,0,0,2.563-2.563,2.558,2.558,0,0,0-2-2.5v-16.31A.573.573,0,0,0-8112.2-13979.539Zm.007,20.8a1.422,1.422,0,0,1-1.418-1.422,1.42,1.42,0,0,1,1.418-1.418,1.421,1.421,0,0,1,1.422,1.418A1.423,1.423,0,0,1-8112.2-13958.739Z" transform="translate(8134.142 13990.96)"/>
      <path id="Path_1961" data-name="Path 1961" d="M38.742,7.3h2.811a.572.572,0,1,0,0-1.143H38.742a.572.572,0,0,0,0,1.143Zm2.811,13.971H38.742a.572.572,0,0,0,0,1.143h2.811a.572.572,0,1,0,0-1.143Zm2.457-7.56H38.442a.572.572,0,1,0,0,1.143H44.01a.572.572,0,1,0,0-1.143Z" transform="translate(-9.501 -2.53)"/>
    </g>
  </g>
</svg>
