<svg xmlns="http://www.w3.org/2000/svg" width="57" height="57" viewBox="0 0 57 57">
  <g id="touch" transform="translate(-782 -1132)">
    <rect id="Rectangle_2599" data-name="Rectangle 2599" width="57" height="57" rx="5" transform="translate(782 1132)" fill="#fff"/>
    <g id="Group_2503" data-name="Group 2503" transform="translate(795.066 1141.746)">
      <path id="Path_2316" data-name="Path 2316" d="M36.536,24.98a3.276,3.276,0,0,0-3.952-.538A3.313,3.313,0,0,0,27.29,22.7a3.286,3.286,0,0,0-4.217-1.077V16.31a3.231,3.231,0,0,0-1-2.327,3.331,3.331,0,0,0-5.64,2.327v14.6a10.541,10.541,0,0,0,20.991,1.159c.137-.776,0-2.948.073-3.76A3.885,3.885,0,0,0,36.536,24.98ZM17.78,9.7a.913.913,0,0,0-1.186-.548,6.5,6.5,0,0,0-4.244,6.078.913.913,0,0,0,1.825,0,4.655,4.655,0,0,1,3.067-4.4A.913.913,0,0,0,17.78,9.7Zm4.938-.548a.913.913,0,0,0-.648,1.679A4.655,4.655,0,0,1,25.118,15.2a.913.913,0,1,0,1.825,0A6.5,6.5,0,0,0,22.718,9.154Z" transform="translate(-0.375 -0.493)"/>
      <path id="Path_2317" data-name="Path 2317" d="M9.894,14.749c.52-12.567,18.436-12.567,18.956,0a9.592,9.592,0,0,1-.767,3.806.913.913,0,1,0,1.67.73A11.308,11.308,0,0,0,19.377,3.45c-7.995-.164-13.69,8.625-10.34,15.862a.934.934,0,0,0,1.707-.758,9.446,9.446,0,0,1-.849-3.806Z" transform="translate(0 0)"/>
    </g>
    <circle id="Ellipse_329" data-name="Ellipse 329" cx="2.5" cy="2.5" r="2.5" transform="translate(785 1135)" fill="#f79631"/>
  </g>
</svg>
