<svg xmlns="http://www.w3.org/2000/svg" width="57" height="57" viewBox="0 0 57 57">
  <g id="touchCounter" transform="translate(-782 -1132)">
    <rect id="Rectangle_2599" data-name="Rectangle 2599" width="57" height="57" rx="5" transform="translate(782 1132)" fill="#fff"/>
    <circle id="Ellipse_329" data-name="Ellipse 329" cx="2.5" cy="2.5" r="2.5" transform="translate(785 1135)" fill="#f79631"/>
    <g id="Group_2516" data-name="Group 2516" transform="translate(806.651 1175.472)">
      <path id="Union_9" data-name="Union 9" d="M3.383,7.026a2.867,2.867,0,0,1-2.01-.82l-.02-.018-.018-.02a2.841,2.841,0,0,1-.822-2h0a2.835,2.835,0,0,1,.534-1.657L.666,2.131.437,2.36a.253.253,0,0,1-.181.074A.256.256,0,0,1,.075,2.36a.253.253,0,0,1,0-.36l.974-.971a.256.256,0,0,1,.361,0,.253.253,0,0,1,0,.36l-.229.229.362.36A2.864,2.864,0,0,1,2.973,1.34V.51H2.649a.255.255,0,1,1,0-.51H3.963a.255.255,0,1,1,0,.51H3.639v.812a2.869,2.869,0,0,1,1.748.8.259.259,0,0,1,.026.023.234.234,0,0,1,.023.026A2.841,2.841,0,0,1,6.254,4.15c0,.006,0,.012,0,.019s0,.011,0,.017A2.843,2.843,0,0,1,5.43,6.17l-.017.019-.021.019a2.867,2.867,0,0,1-2.01.819Z" transform="translate(0 0)" stroke="#000" stroke-width="0.5"/>
    </g>
    <g id="Group_2564" data-name="Group 2564" transform="translate(796.066 1141.746)">
      <path id="Path_2316" data-name="Path 2316" d="M36.536,24.98a3.276,3.276,0,0,0-3.952-.538A3.313,3.313,0,0,0,27.29,22.7a3.286,3.286,0,0,0-4.217-1.077V16.31a3.231,3.231,0,0,0-1-2.327,3.331,3.331,0,0,0-5.64,2.327v14.6a10.541,10.541,0,0,0,20.991,1.159c.137-.776,0-2.948.073-3.76A3.885,3.885,0,0,0,36.536,24.98ZM17.78,9.7a.913.913,0,0,0-1.186-.548,6.5,6.5,0,0,0-4.244,6.078.913.913,0,0,0,1.825,0,4.655,4.655,0,0,1,3.067-4.4A.913.913,0,0,0,17.78,9.7Zm4.938-.548a.913.913,0,0,0-.648,1.679A4.655,4.655,0,0,1,25.118,15.2a.913.913,0,1,0,1.825,0A6.5,6.5,0,0,0,22.718,9.154Z" transform="translate(-0.375 -0.493)"/>
      <path id="Path_2317" data-name="Path 2317" d="M9.894,14.749c.52-12.567,18.436-12.567,18.956,0a9.592,9.592,0,0,1-.767,3.806.913.913,0,1,0,1.67.73A11.308,11.308,0,0,0,19.377,3.45c-7.995-.164-13.69,8.625-10.34,15.862a.934.934,0,0,0,1.707-.758,9.446,9.446,0,0,1-.849-3.806Z" transform="translate(0 0)"/>
    </g>
  </g>
</svg>
