<svg xmlns="http://www.w3.org/2000/svg" width="57" height="57" viewBox="0 0 57 57">
  <g id="waterDetector" transform="translate(-782 -1132)">
    <rect id="Rectangle_2599" data-name="Rectangle 2599" width="57" height="57" rx="5" transform="translate(782 1132)" fill="#fff"/>
    <circle id="Ellipse_329" data-name="Ellipse 329" cx="2.5" cy="2.5" r="2.5" transform="translate(785 1135)" fill="#f79631"/>
    <path id="path7" d="M23.026,7.02a.78.78,0,0,0-.7.384,59.632,59.632,0,0,1-3.744,5.878c-2,2.865-3.583,5.127-3.583,7.881a8.024,8.024,0,1,0,16.047,0c0-2.754-1.579-5.016-3.58-7.881A59.317,59.317,0,0,1,23.723,7.4.78.78,0,0,0,23.026,7.02ZM12.85,22.379a.794.794,0,0,0-.316.012C7.111,23.689,4,25.874,4,28.393c0,4.635,9.8,7.135,19.026,7.135s19.026-2.5,19.026-7.135c0-2.519-3.112-4.706-8.538-6a.793.793,0,0,0-.368,1.542c4.447,1.061,7.321,2.812,7.321,4.459,0,2.624-7.163,5.549-17.441,5.549S5.586,31.017,5.586,28.393c0-1.647,2.872-3.4,7.318-4.459a.793.793,0,0,0-.053-1.555Zm1.3,2.821c-3.631.728-5.394,1.772-5.394,3.193,0,3.13,8.969,3.964,14.27,3.964s14.27-.834,14.27-3.964c0-1.421-1.762-2.465-5.391-3.193a.793.793,0,1,0-.313,1.555c3.284.658,4.087,1.462,4.122,1.632-.152.81-4.766,2.384-12.687,2.384S10.493,29.2,10.342,28.4c.033-.179.837-.986,4.122-1.644a.793.793,0,0,0-.313-1.555Z" transform="translate(794.084 1146.149)"/>
  </g>
</svg>
