<svg width="24" height="24" viewBox="0 0 24 24" fill="none" xmlns="http://www.w3.org/2000/svg">
<g clip-path="url(#clip0_19383_5675)">
<path d="M10.0606 1.2024C10.0606 1.22419 10.0558 1.24468 10.0542 1.26599C10.0217 1.67343 9.68854 1.99369 9.27421 2.00024C9.26978 2.00024 9.26569 2.00155 9.26126 2.00155H2.65855C2.12622 2.00155 1.68567 2.39638 1.61093 2.90822C1.60356 2.95838 1.59864 3.00935 1.59864 3.06163V15.8929C1.59864 15.9597 1.60552 16.0248 1.61749 16.0882C1.70943 16.5796 2.14097 16.9528 2.65872 16.9528H7.86684C7.89404 16.9528 7.91977 16.9582 7.94633 16.9608C8.35049 17.0011 8.66616 17.3371 8.66616 17.7521C8.66616 18.1525 8.37246 18.4801 7.98894 18.5391C7.94878 18.5454 7.90863 18.5514 7.86684 18.5514H2.65855C2.47532 18.5514 2.29634 18.5327 2.12327 18.4973C1.03746 18.2749 0.195036 17.3886 0.0317958 16.2826C0.0129478 16.1551 0 16.0256 0 15.893V3.06163C0 2.95215 0.00868647 2.8448 0.0216342 2.73876C0.176844 1.46152 1.23856 0.465029 2.54366 0.408977C2.58201 0.407338 2.61971 0.403076 2.65855 0.403076H9.26126C9.26569 0.403076 9.26978 0.404387 9.27421 0.404387C9.68854 0.411107 10.0216 0.73136 10.0542 1.13864C10.0558 1.16011 10.0606 1.1806 10.0606 1.2024ZM21.3848 0.405207C21.3712 0.405043 21.3579 0.403076 21.3442 0.403076H13.9979C13.991 0.403076 13.9844 0.404879 13.9775 0.405207C13.5999 0.414877 13.2877 0.683338 13.2148 1.04145C13.2041 1.09341 13.1985 1.14733 13.1985 1.2024C13.1985 1.25747 13.2041 1.31139 13.2148 1.36334C13.2877 1.72145 13.5999 1.99008 13.9775 1.99959C13.9844 1.99975 13.9908 2.00172 13.9979 2.00172H21.3442C21.9286 2.00172 22.4042 2.47718 22.4042 3.06179V15.8953C22.4042 16.4798 21.9288 16.9554 21.3442 16.9554H14.3255C14.0506 16.9554 13.7987 17.0929 13.6517 17.323L10.9781 21.4989L10.4212 22.3687C10.4197 22.371 10.419 22.3735 10.4175 22.3756C10.3902 22.4194 10.3667 22.4648 10.3485 22.5118C10.3451 22.5207 10.344 22.53 10.3408 22.5388C10.3266 22.5797 10.3138 22.621 10.3066 22.6634C10.3053 22.671 10.3059 22.6785 10.3048 22.686C10.2986 22.7295 10.2941 22.7734 10.2951 22.8176C10.2963 22.8693 10.3027 22.9207 10.3136 22.971C10.3138 22.9714 10.3136 22.9719 10.3138 22.9722C10.3177 22.9902 10.3254 23.0064 10.3307 23.0238C10.34 23.0554 10.3482 23.0876 10.3613 23.1179C10.3754 23.1505 10.3943 23.1803 10.4125 23.2107C10.4208 23.2244 10.4269 23.2393 10.4361 23.2528C10.4588 23.2857 10.4859 23.3152 10.5134 23.3444C10.5219 23.3534 10.5283 23.3637 10.5374 23.3723C10.5755 23.409 10.6173 23.4424 10.6631 23.4714C10.6632 23.4714 10.6634 23.4716 10.6634 23.4716C10.6654 23.4729 10.6677 23.4737 10.6696 23.475C10.7003 23.4942 10.7319 23.5116 10.7645 23.5263C10.7791 23.5329 10.7942 23.5371 10.8089 23.5427C10.8296 23.5506 10.8499 23.5593 10.871 23.5653C10.8887 23.5704 10.9068 23.573 10.9246 23.577C10.9435 23.5811 10.962 23.5861 10.9812 23.5889C11.0072 23.5925 11.0331 23.5934 11.0592 23.5945C11.0703 23.595 11.0812 23.5968 11.0923 23.5968C11.159 23.5968 11.2244 23.5883 11.2873 23.5727C11.2875 23.5727 11.2877 23.5725 11.288 23.5725C11.3195 23.5647 11.3501 23.5548 11.3801 23.5434C11.3826 23.5424 11.3849 23.5412 11.3873 23.5403C11.4147 23.5294 11.4414 23.5173 11.4673 23.5037C11.4732 23.5006 11.4788 23.4968 11.4845 23.4937C11.5063 23.4814 11.5278 23.4686 11.5484 23.4544C11.557 23.4485 11.565 23.4419 11.5733 23.4357C11.5904 23.4229 11.6071 23.4098 11.623 23.3957C11.633 23.3868 11.6425 23.3773 11.652 23.368C11.6653 23.3551 11.6782 23.3418 11.6905 23.3278C11.7007 23.3164 11.7104 23.3044 11.7199 23.2923C11.7254 23.2851 11.7318 23.2787 11.7372 23.2713L11.7387 23.2723L11.7658 23.2302C11.7659 23.2298 11.7661 23.2297 11.7662 23.2295L14.7598 18.5518H21.3438C21.5002 18.5518 21.6524 18.5355 21.8014 18.5095C23.0503 18.292 24.0024 17.2039 24.0024 15.8932V3.06163C24.0025 1.60837 22.833 0.427169 21.3848 0.405207Z" fill="white"/>
<path d="M8.16469 9.50464C8.16469 10.2094 7.59105 10.7814 6.8863 10.7814C6.18155 10.7814 5.60791 10.2094 5.60791 9.50464C5.60791 8.79988 6.18155 8.22625 6.8863 8.22625C7.59105 8.22625 8.16469 8.79988 8.16469 9.50464ZM13.0357 8.75727C12.8374 8.48029 12.5407 8.29672 12.2047 8.24264C12.1342 8.23117 12.0654 8.22461 11.9966 8.22461C11.7311 8.22461 11.4721 8.3082 11.2525 8.46717C10.9755 8.66713 10.7919 8.96214 10.7378 9.29977C10.6821 9.63575 10.7624 9.97502 10.9624 10.252C11.1623 10.529 11.4574 10.7109 11.795 10.765C12.131 10.8207 12.4702 10.7404 12.7472 10.5405C13.0242 10.3421 13.2061 10.0455 13.2618 9.70951V9.70787C13.3159 9.37188 13.2356 9.03425 13.0357 8.75727ZM17.1118 8.22625C16.407 8.22625 15.8334 8.79988 15.8334 9.50464C15.8334 10.2094 16.407 10.7814 17.1118 10.7814C17.8165 10.7814 18.3901 10.2094 18.3901 9.50464C18.3901 8.79988 17.8165 8.22625 17.1118 8.22625Z" fill="white"/>
</g>
<defs>
<clipPath id="clip0_19383_5675">
<rect width="24" height="24" fill="white"/>
</clipPath>
</defs>
</svg>
