<svg xmlns="http://www.w3.org/2000/svg" width="66" height="61" viewBox="0 0 66 61">
  <g id="network_er" transform="translate(-944 -509)">
    <path id="Path_3289" data-name="Path 3289" d="M2.738,31.973a5.384,5.384,0,0,0,9.481-.324l12.487,3.3a7.351,7.351,0,0,0,.953,4.569h0c.115.2.249.377.38.559L15.106,50.909a5.06,5.06,0,0,0-6.541,7.124h0a5.03,5.03,0,0,0,3.087,2.342,5.105,5.105,0,0,0,1.292.167,5.056,5.056,0,0,0,3.779-8.419L27.411,41.536a7.412,7.412,0,0,0,3.441,1.535L28.609,56.842a4.273,4.273,0,1,0,2.021.037l2.239-13.75a7.373,7.373,0,0,0,5.478-3.461L59.365,45.4a4.313,4.313,0,0,0,3.218,4.382,4.294,4.294,0,0,0,3.276-.45,4.321,4.321,0,1,0-5.928-5.85L39.154,37.816c.015-.052.035-.1.049-.155a7.338,7.338,0,0,0-.634-5.347l10.093-5.9a5.981,5.981,0,0,0,3.092,1.979,6.068,6.068,0,0,0,1.541.2,6.042,6.042,0,1,0-5.65-3.9L37.4,30.683a7.32,7.32,0,0,0-2.822-1.849L33.38,14.595a5.308,5.308,0,1,0-2,.094L32.531,28.4A7.371,7.371,0,0,0,25.2,33.012l-12.441-3.29a5.39,5.39,0,1,0-10.019,2.25ZM15.9,56.254a3.062,3.062,0,1,1-.319-2.322A3.044,3.044,0,0,1,15.9,56.254Zm15.615,3.625a2.331,2.331,0,1,1-2.048-1.146h.013c.011,0,.021-.005.032-.006a2.326,2.326,0,0,1,2,1.15ZM61.433,45.012a2.325,2.325,0,0,1,2.242-1.734,2.338,2.338,0,0,1,.592.077,2.321,2.321,0,1,1-2.593,3.417h0A2.307,2.307,0,0,1,61.433,45.012ZM51.247,19.064A4.038,4.038,0,1,1,49.8,24.588,4.011,4.011,0,0,1,51.247,19.064ZM29.5,11.235a3.062,3.062,0,1,1,4.188,1.1A3.042,3.042,0,0,1,29.5,11.235Zm-.174,19.89a5.4,5.4,0,1,1-1.936,7.385A5.369,5.369,0,0,1,29.321,31.125ZM5.683,26.318a3.395,3.395,0,1,1-1.218,4.645A3.371,3.371,0,0,1,5.683,26.318Z" transform="translate(941.998 504.371)" fill="#7b7b7b"/>
    <g id="Group_3558" data-name="Group 3558" transform="translate(988 548)">
      <path id="Path_3290" data-name="Path 3290" d="M12,4a8,8,0,1,0,8,8A8,8,0,0,0,12,4Zm1,13H11V15h2Zm0-4H11V7h2Z" fill="#ff0c0c" opacity="0.14"/>
      <path id="Path_3291" data-name="Path 3291" d="M11.99,2A10,10,0,1,0,22,12,10,10,0,0,0,11.99,2ZM12,20a8,8,0,1,1,8-8A8,8,0,0,1,12,20Zm-1-5h2v2H11Zm0-8h2v6H11Z" fill="#ff0c0c"/>
    </g>
  </g>
</svg>
