<svg id="Group_3092" data-name="Group 3092" xmlns="http://www.w3.org/2000/svg" width="119.895" height="119.895" viewBox="0 0 119.895 119.895">
  <path id="Path_3079" data-name="Path 3079" d="M0,0H119.895V119.895H0Z" fill="none"/>
  <path id="Path_3080" data-name="Path 3080" d="M75.435,7.166a2.433,2.433,0,0,0-2.048,1.149l-.35.749-25.877,58.2a9.841,9.841,0,0,0-1.3,4.8,10.026,10.026,0,0,0,19.833,2.1l.05-.15L77.932,9.664A2.474,2.474,0,0,0,75.435,7.166ZM1,27.149l9.991,9.991a63.252,63.252,0,0,1,52.6-18.084L69.54,5.668A77.54,77.54,0,0,0,1,27.149Zm99.912,9.991,9.991-9.991A76.769,76.769,0,0,0,82.978,9.314L80.33,23.4A63.028,63.028,0,0,1,100.912,37.14ZM80.93,57.122l9.991-9.991a49.352,49.352,0,0,0-13.288-9.442L74.885,52.277A36.222,36.222,0,0,1,80.93,57.122ZM20.982,47.131l9.991,9.991a35.464,35.464,0,0,1,20.132-9.991L57.5,32.744A49.351,49.351,0,0,0,20.982,47.131Z" transform="translate(3.996 17.812)" fill="#878787"/>
</svg>
