<svg xmlns="http://www.w3.org/2000/svg" width="128.431" height="121.431" viewBox="0 0 128.431 121.431">
  <g id="Speedtesterror" transform="translate(0 1.536)">
    <path id="Path_3079" data-name="Path 3079" d="M0,0H119.895V119.895H0Z" fill="none"/>
    <path id="Path_3080" data-name="Path 3080" d="M75.435,7.166a2.433,2.433,0,0,0-2.048,1.149l-.35.749-25.877,58.2a9.841,9.841,0,0,0-1.3,4.8,10.026,10.026,0,0,0,19.833,2.1l.05-.15L77.932,9.664A2.474,2.474,0,0,0,75.435,7.166ZM1,27.149l9.991,9.991a63.252,63.252,0,0,1,52.6-18.084L69.54,5.668A77.54,77.54,0,0,0,1,27.149Zm99.912,9.991,9.991-9.991A76.769,76.769,0,0,0,82.978,9.314L80.33,23.4A63.028,63.028,0,0,1,100.912,37.14ZM80.93,57.122l9.991-9.991a49.352,49.352,0,0,0-13.288-9.442L74.885,52.277A36.222,36.222,0,0,1,80.93,57.122ZM20.982,47.131l9.991,9.991a35.464,35.464,0,0,1,20.132-9.991L57.5,32.744A49.351,49.351,0,0,0,20.982,47.131Z" transform="translate(3.996 17.812)" fill="#878787"/>
    <path id="Path_3081" data-name="Path 3081" d="M17.536,2A15.536,15.536,0,1,0,33.072,17.536,15.542,15.542,0,0,0,17.536,2Zm0,17.09a1.558,1.558,0,0,1-1.554-1.554V11.322a1.554,1.554,0,1,1,3.107,0v6.214A1.558,1.558,0,0,1,17.536,19.09ZM19.09,25.3H15.983V22.2H19.09Z" transform="translate(95.358 -3.536)" fill="red"/>
  </g>
</svg>
