<svg xmlns="http://www.w3.org/2000/svg" width="21.036" height="17.75" viewBox="0 0 21.036 17.75">
  <path id="Icon_awesome-tasks" data-name="Icon awesome-tasks" d="M5.736,2.393a.493.493,0,0,0-.7,0l-2.616,2.6-.933-.909a.493.493,0,0,0-.7,0l-.645.646a.493.493,0,0,0,0,.7L2.1,7.377a.525.525,0,0,0,.724,0l.641-.642L6.431,3.769a.5.5,0,0,0,0-.7Zm0,6.54a.493.493,0,0,0-.7,0L2.421,11.551l-.933-.908a.493.493,0,0,0-.7,0l-.645.645a.493.493,0,0,0,0,.7L2.1,13.938a.525.525,0,0,0,.723,0l.645-.645L6.43,10.326a.493.493,0,0,0,0-.694ZM2.629,16.054a1.972,1.972,0,1,0,0,3.944,1.972,1.972,0,1,0,0-3.944Zm17.749.657H8.546a.657.657,0,0,0-.657.657v1.315a.657.657,0,0,0,.657.657H20.379a.657.657,0,0,0,.657-.657V17.369A.657.657,0,0,0,20.379,16.711Zm0-13.147H8.546a.657.657,0,0,0-.657.657V5.536a.657.657,0,0,0,.657.657H20.379a.657.657,0,0,0,.657-.657V4.221A.657.657,0,0,0,20.379,3.564Zm0,6.574H8.546a.657.657,0,0,0-.657.657V12.11a.657.657,0,0,0,.657.657H20.379a.657.657,0,0,0,.657-.657V10.795A.657.657,0,0,0,20.379,10.138Z" transform="translate(0 -2.248)" fill="#4c4c4c"/>
</svg>
