<svg xmlns="http://www.w3.org/2000/svg" xmlns:xlink="http://www.w3.org/1999/xlink" width="113" height="113" viewBox="0 0 113 113">
  <defs>
    <filter id="Path_1709" x="0" y="0" width="113" height="113" filterUnits="userSpaceOnUse">
      <feOffset dy="3" input="SourceAlpha"/>
      <feGaussianBlur stdDeviation="6.5" result="blur"/>
      <feFlood flood-color="#3b3b3b" flood-opacity="0.278"/>
      <feComposite operator="in" in2="blur"/>
    </filter>
    <filter id="Path_1709-2" x="0" y="0" width="113" height="113" filterUnits="userSpaceOnUse">
      <feOffset dy="3" input="SourceAlpha"/>
      <feGaussianBlur stdDeviation="3" result="blur-2"/>
      <feFlood flood-opacity="0.369" result="color"/>
      <feComposite operator="out" in="SourceGraphic" in2="blur-2"/>
      <feComposite operator="in" in="color"/>
      <feComposite operator="in" in2="SourceGraphic"/>
    </filter>
    <filter id="Path_1705" x="33.889" y="23.197" width="46.396" height="65.606" filterUnits="userSpaceOnUse">
      <feOffset dy="3" input="SourceAlpha"/>
      <feGaussianBlur stdDeviation="3" result="blur-3"/>
      <feFlood flood-opacity="0.78"/>
      <feComposite operator="in" in2="blur-3"/>
      <feComposite in="SourceGraphic"/>
    </filter>
  </defs>
  <g id="Group_52" data-name="Group 52" transform="translate(-585.682 -748.682)">
    <g data-type="innerShadowGroup">
      <g transform="matrix(1, 0, 0, 1, 585.68, 748.68)" filter="url(#Path_1709)">
        <g id="Path_1709-3" data-name="Path 1709" transform="translate(19.5 16.5)" fill="#0080ff">
          <path d="M 37 73.5 C 32.07231140136719 73.5 27.29228973388672 72.53501892089844 22.79270935058594 70.63185119628906 C 18.44636917114258 68.79351043701172 14.54286003112793 66.16165161132812 11.19060039520264 62.80939865112305 C 7.83834981918335 59.4571418762207 5.206490039825439 55.55363082885742 3.368149995803833 51.20729064941406 C 1.464980006217957 46.70771026611328 0.5 41.92768859863281 0.5 37 C 0.5 32.07231140136719 1.464980006217957 27.29228973388672 3.368149995803833 22.79270935058594 C 5.206490039825439 18.44636917114258 7.83834981918335 14.54286003112793 11.19060039520264 11.19060039520264 C 14.54286003112793 7.83834981918335 18.44636917114258 5.206490039825439 22.79270935058594 3.368149995803833 C 27.29228973388672 1.464980006217957 32.07231140136719 0.5 37 0.5 C 41.92768859863281 0.5 46.70771026611328 1.464980006217957 51.20729064941406 3.368149995803833 C 55.55363082885742 5.206490039825439 59.4571418762207 7.83834981918335 62.80939865112305 11.19060039520264 C 66.16165161132812 14.54286003112793 68.79351043701172 18.44636917114258 70.63185119628906 22.79270935058594 C 72.53501892089844 27.29228973388672 73.5 32.07231140136719 73.5 37 C 73.5 41.92768859863281 72.53501892089844 46.70771026611328 70.63185119628906 51.20729064941406 C 68.79351043701172 55.55363082885742 66.16165161132812 59.4571418762207 62.80939865112305 62.80939865112305 C 59.4571418762207 66.16165161132812 55.55363082885742 68.79351043701172 51.20729064941406 70.63185119628906 C 46.70771026611328 72.53501892089844 41.92768859863281 73.5 37 73.5 Z" stroke="none"/>
          <path d="M 37 1 C 32.13959121704102 1 27.42509841918945 1.951690673828125 22.98748016357422 3.828651428222656 C 18.70074844360352 5.641792297363281 14.85065841674805 8.237663269042969 11.54415893554688 11.54415893554688 C 8.237663269042969 14.85065841674805 5.641792297363281 18.70074844360352 3.828651428222656 22.98748016357422 C 1.951690673828125 27.42509841918945 1 32.13959121704102 1 37 C 1 41.86040878295898 1.951690673828125 46.57489776611328 3.828651428222656 51.01251983642578 C 5.641792297363281 55.29924774169922 8.237663269042969 59.14933776855469 11.54415893554688 62.45584106445312 C 14.85065841674805 65.76233673095703 18.70074844360352 68.35820770263672 22.98748016357422 70.17134857177734 C 27.42509841918945 72.04830932617188 32.13959121704102 73 37 73 C 41.86040878295898 73 46.57489776611328 72.04830932617188 51.01251983642578 70.17134857177734 C 55.29924774169922 68.35820770263672 59.14933776855469 65.76233673095703 62.45584106445312 62.45584106445312 C 65.76233673095703 59.14933776855469 68.35820770263672 55.29924774169922 70.17134857177734 51.01251983642578 C 72.04830932617188 46.57489776611328 73 41.86040878295898 73 37 C 73 32.13959121704102 72.04830932617188 27.42509841918945 70.17134857177734 22.98748016357422 C 68.35820770263672 18.70074844360352 65.76233673095703 14.85065841674805 62.45584106445312 11.54415893554688 C 59.14933776855469 8.237663269042969 55.29924774169922 5.641792297363281 51.01251983642578 3.828651428222656 C 46.57489776611328 1.951690673828125 41.86040878295898 1 37 1 M 37 0 C 57.43453216552734 0 74 16.56547164916992 74 37 C 74 57.43453216552734 57.43453216552734 74 37 74 C 16.56547164916992 74 0 57.43453216552734 0 37 C 0 16.56547164916992 16.56547164916992 0 37 0 Z" stroke="none" fill="#9b9b9b"/>
        </g>
      </g>
      <g id="Path_1709-4" data-name="Path 1709" transform="translate(605.182 765.182)" fill="#0080ff">
        <path d="M 37 73.5 C 32.07231140136719 73.5 27.29228973388672 72.53501892089844 22.79270935058594 70.63185119628906 C 18.44636917114258 68.79351043701172 14.54286003112793 66.16165161132812 11.19060039520264 62.80939865112305 C 7.83834981918335 59.4571418762207 5.206490039825439 55.55363082885742 3.368149995803833 51.20729064941406 C 1.464980006217957 46.70771026611328 0.5 41.92768859863281 0.5 37 C 0.5 32.07231140136719 1.464980006217957 27.29228973388672 3.368149995803833 22.79270935058594 C 5.206490039825439 18.44636917114258 7.83834981918335 14.54286003112793 11.19060039520264 11.19060039520264 C 14.54286003112793 7.83834981918335 18.44636917114258 5.206490039825439 22.79270935058594 3.368149995803833 C 27.29228973388672 1.464980006217957 32.07231140136719 0.5 37 0.5 C 41.92768859863281 0.5 46.70771026611328 1.464980006217957 51.20729064941406 3.368149995803833 C 55.55363082885742 5.206490039825439 59.4571418762207 7.83834981918335 62.80939865112305 11.19060039520264 C 66.16165161132812 14.54286003112793 68.79351043701172 18.44636917114258 70.63185119628906 22.79270935058594 C 72.53501892089844 27.29228973388672 73.5 32.07231140136719 73.5 37 C 73.5 41.92768859863281 72.53501892089844 46.70771026611328 70.63185119628906 51.20729064941406 C 68.79351043701172 55.55363082885742 66.16165161132812 59.4571418762207 62.80939865112305 62.80939865112305 C 59.4571418762207 66.16165161132812 55.55363082885742 68.79351043701172 51.20729064941406 70.63185119628906 C 46.70771026611328 72.53501892089844 41.92768859863281 73.5 37 73.5 Z" stroke="none"/>
        <path d="M 37 1 C 32.13959121704102 1 27.42509841918945 1.951690673828125 22.98748016357422 3.828651428222656 C 18.70074844360352 5.641792297363281 14.85065841674805 8.237663269042969 11.54415893554688 11.54415893554688 C 8.237663269042969 14.85065841674805 5.641792297363281 18.70074844360352 3.828651428222656 22.98748016357422 C 1.951690673828125 27.42509841918945 1 32.13959121704102 1 37 C 1 41.86040878295898 1.951690673828125 46.57489776611328 3.828651428222656 51.01251983642578 C 5.641792297363281 55.29924774169922 8.237663269042969 59.14933776855469 11.54415893554688 62.45584106445312 C 14.85065841674805 65.76233673095703 18.70074844360352 68.35820770263672 22.98748016357422 70.17134857177734 C 27.42509841918945 72.04830932617188 32.13959121704102 73 37 73 C 41.86040878295898 73 46.57489776611328 72.04830932617188 51.01251983642578 70.17134857177734 C 55.29924774169922 68.35820770263672 59.14933776855469 65.76233673095703 62.45584106445312 62.45584106445312 C 65.76233673095703 59.14933776855469 68.35820770263672 55.29924774169922 70.17134857177734 51.01251983642578 C 72.04830932617188 46.57489776611328 73 41.86040878295898 73 37 C 73 32.13959121704102 72.04830932617188 27.42509841918945 70.17134857177734 22.98748016357422 C 68.35820770263672 18.70074844360352 65.76233673095703 14.85065841674805 62.45584106445312 11.54415893554688 C 59.14933776855469 8.237663269042969 55.29924774169922 5.641792297363281 51.01251983642578 3.828651428222656 C 46.57489776611328 1.951690673828125 41.86040878295898 1 37 1 M 37 0 C 57.43453216552734 0 74 16.56547164916992 74 37 C 74 57.43453216552734 57.43453216552734 74 37 74 C 16.56547164916992 74 0 57.43453216552734 0 37 C 0 16.56547164916992 16.56547164916992 0 37 0 Z" stroke="none"/>
      </g>
      <g transform="matrix(1, 0, 0, 1, 585.68, 748.68)" filter="url(#Path_1709-2)">
        <g id="Path_1709-5" data-name="Path 1709" transform="translate(19.5 16.5)" fill="#fff">
          <path d="M 37 73.5 C 32.07231140136719 73.5 27.29228973388672 72.53501892089844 22.79270935058594 70.63185119628906 C 18.44636917114258 68.79351043701172 14.54286003112793 66.16165161132812 11.19060039520264 62.80939865112305 C 7.83834981918335 59.4571418762207 5.206490039825439 55.55363082885742 3.368149995803833 51.20729064941406 C 1.464980006217957 46.70771026611328 0.5 41.92768859863281 0.5 37 C 0.5 32.07231140136719 1.464980006217957 27.29228973388672 3.368149995803833 22.79270935058594 C 5.206490039825439 18.44636917114258 7.83834981918335 14.54286003112793 11.19060039520264 11.19060039520264 C 14.54286003112793 7.83834981918335 18.44636917114258 5.206490039825439 22.79270935058594 3.368149995803833 C 27.29228973388672 1.464980006217957 32.07231140136719 0.5 37 0.5 C 41.92768859863281 0.5 46.70771026611328 1.464980006217957 51.20729064941406 3.368149995803833 C 55.55363082885742 5.206490039825439 59.4571418762207 7.83834981918335 62.80939865112305 11.19060039520264 C 66.16165161132812 14.54286003112793 68.79351043701172 18.44636917114258 70.63185119628906 22.79270935058594 C 72.53501892089844 27.29228973388672 73.5 32.07231140136719 73.5 37 C 73.5 41.92768859863281 72.53501892089844 46.70771026611328 70.63185119628906 51.20729064941406 C 68.79351043701172 55.55363082885742 66.16165161132812 59.4571418762207 62.80939865112305 62.80939865112305 C 59.4571418762207 66.16165161132812 55.55363082885742 68.79351043701172 51.20729064941406 70.63185119628906 C 46.70771026611328 72.53501892089844 41.92768859863281 73.5 37 73.5 Z" stroke="none"/>
          <path d="M 37 1 C 32.13959121704102 1 27.42509841918945 1.951690673828125 22.98748016357422 3.828651428222656 C 18.70074844360352 5.641792297363281 14.85065841674805 8.237663269042969 11.54415893554688 11.54415893554688 C 8.237663269042969 14.85065841674805 5.641792297363281 18.70074844360352 3.828651428222656 22.98748016357422 C 1.951690673828125 27.42509841918945 1 32.13959121704102 1 37 C 1 41.86040878295898 1.951690673828125 46.57489776611328 3.828651428222656 51.01251983642578 C 5.641792297363281 55.29924774169922 8.237663269042969 59.14933776855469 11.54415893554688 62.45584106445312 C 14.85065841674805 65.76233673095703 18.70074844360352 68.35820770263672 22.98748016357422 70.17134857177734 C 27.42509841918945 72.04830932617188 32.13959121704102 73 37 73 C 41.86040878295898 73 46.57489776611328 72.04830932617188 51.01251983642578 70.17134857177734 C 55.29924774169922 68.35820770263672 59.14933776855469 65.76233673095703 62.45584106445312 62.45584106445312 C 65.76233673095703 59.14933776855469 68.35820770263672 55.29924774169922 70.17134857177734 51.01251983642578 C 72.04830932617188 46.57489776611328 73 41.86040878295898 73 37 C 73 32.13959121704102 72.04830932617188 27.42509841918945 70.17134857177734 22.98748016357422 C 68.35820770263672 18.70074844360352 65.76233673095703 14.85065841674805 62.45584106445312 11.54415893554688 C 59.14933776855469 8.237663269042969 55.29924774169922 5.641792297363281 51.01251983642578 3.828651428222656 C 46.57489776611328 1.951690673828125 41.86040878295898 1 37 1 M 37 0 C 57.43453216552734 0 74 16.56547164916992 74 37 C 74 57.43453216552734 57.43453216552734 74 37 74 C 16.56547164916992 74 0 57.43453216552734 0 37 C 0 16.56547164916992 16.56547164916992 0 37 0 Z" stroke="none"/>
        </g>
      </g>
      <g id="Path_1709-6" data-name="Path 1709" transform="translate(605.182 765.182)" fill="none">
        <path d="M 37 73.5 C 32.07231140136719 73.5 27.29228973388672 72.53501892089844 22.79270935058594 70.63185119628906 C 18.44636917114258 68.79351043701172 14.54286003112793 66.16165161132812 11.19060039520264 62.80939865112305 C 7.83834981918335 59.4571418762207 5.206490039825439 55.55363082885742 3.368149995803833 51.20729064941406 C 1.464980006217957 46.70771026611328 0.5 41.92768859863281 0.5 37 C 0.5 32.07231140136719 1.464980006217957 27.29228973388672 3.368149995803833 22.79270935058594 C 5.206490039825439 18.44636917114258 7.83834981918335 14.54286003112793 11.19060039520264 11.19060039520264 C 14.54286003112793 7.83834981918335 18.44636917114258 5.206490039825439 22.79270935058594 3.368149995803833 C 27.29228973388672 1.464980006217957 32.07231140136719 0.5 37 0.5 C 41.92768859863281 0.5 46.70771026611328 1.464980006217957 51.20729064941406 3.368149995803833 C 55.55363082885742 5.206490039825439 59.4571418762207 7.83834981918335 62.80939865112305 11.19060039520264 C 66.16165161132812 14.54286003112793 68.79351043701172 18.44636917114258 70.63185119628906 22.79270935058594 C 72.53501892089844 27.29228973388672 73.5 32.07231140136719 73.5 37 C 73.5 41.92768859863281 72.53501892089844 46.70771026611328 70.63185119628906 51.20729064941406 C 68.79351043701172 55.55363082885742 66.16165161132812 59.4571418762207 62.80939865112305 62.80939865112305 C 59.4571418762207 66.16165161132812 55.55363082885742 68.79351043701172 51.20729064941406 70.63185119628906 C 46.70771026611328 72.53501892089844 41.92768859863281 73.5 37 73.5 Z" stroke="none"/>
        <path d="M 37 1 C 32.13959121704102 1 27.42509841918945 1.951690673828125 22.98748016357422 3.828651428222656 C 18.70074844360352 5.641792297363281 14.85065841674805 8.237663269042969 11.54415893554688 11.54415893554688 C 8.237663269042969 14.85065841674805 5.641792297363281 18.70074844360352 3.828651428222656 22.98748016357422 C 1.951690673828125 27.42509841918945 1 32.13959121704102 1 37 C 1 41.86040878295898 1.951690673828125 46.57489776611328 3.828651428222656 51.01251983642578 C 5.641792297363281 55.29924774169922 8.237663269042969 59.14933776855469 11.54415893554688 62.45584106445312 C 14.85065841674805 65.76233673095703 18.70074844360352 68.35820770263672 22.98748016357422 70.17134857177734 C 27.42509841918945 72.04830932617188 32.13959121704102 73 37 73 C 41.86040878295898 73 46.57489776611328 72.04830932617188 51.01251983642578 70.17134857177734 C 55.29924774169922 68.35820770263672 59.14933776855469 65.76233673095703 62.45584106445312 62.45584106445312 C 65.76233673095703 59.14933776855469 68.35820770263672 55.29924774169922 70.17134857177734 51.01251983642578 C 72.04830932617188 46.57489776611328 73 41.86040878295898 73 37 C 73 32.13959121704102 72.04830932617188 27.42509841918945 70.17134857177734 22.98748016357422 C 68.35820770263672 18.70074844360352 65.76233673095703 14.85065841674805 62.45584106445312 11.54415893554688 C 59.14933776855469 8.237663269042969 55.29924774169922 5.641792297363281 51.01251983642578 3.828651428222656 C 46.57489776611328 1.951690673828125 41.86040878295898 1 37 1 M 37 0 C 57.43453216552734 0 74 16.56547164916992 74 37 C 74 57.43453216552734 57.43453216552734 74 37 74 C 16.56547164916992 74 0 57.43453216552734 0 37 C 0 16.56547164916992 16.56547164916992 0 37 0 Z" stroke="none" fill="#9b9b9b"/>
      </g>
    </g>
    <g transform="matrix(1, 0, 0, 1, 585.68, 748.68)" filter="url(#Path_1705)">
      <path id="Path_1705-2" data-name="Path 1705" d="M75.892,119.005c-2.828-2.213-5.492-4.287-8.144-6.377-1.233-.972-1.463-2.012-.7-2.951.721-.883,1.766-.908,2.939-.009,2.278,1.747,4.537,3.52,7.034,5.463v-2.118c0-5.167-.047-10.334.051-15.5A2.989,2.989,0,0,1,78.211,95.3a2.657,2.657,0,0,1,2.275.472c4.5,3.405,8.94,6.9,13.379,10.383,1.51,1.186,1.512,2.352.006,3.541-3.9,3.076-7.816,6.124-11.885,9.307,2.245,1.764,4.391,3.454,6.541,5.139,1.785,1.4,3.584,2.781,5.361,4.19q2.218,1.757-.033,3.526c-4.4,3.454-8.793,6.931-13.257,10.306a2.9,2.9,0,0,1-2.426.521,2.88,2.88,0,0,1-1.1-2.221c-.09-5.739-.048-11.48-.048-17.529-.622.455-1.068.764-1.5,1.1-1.9,1.481-3.791,2.985-5.711,4.446a1.927,1.927,0,0,1-2.827-.183,1.887,1.887,0,0,1,.575-2.768c2.72-2.148,5.457-4.274,8.326-6.517m14.18,11.072-9.2-7.177v14.356l9.2-7.179m0-22.144-9.163-7.142v14.3l9.163-7.156" transform="translate(-23.71 -65.98)" fill="#fff"/>
    </g>
  </g>
</svg>
