<svg xmlns="http://www.w3.org/2000/svg" width="13.797" height="15.768" viewBox="0 0 13.797 15.768">
  <path id="Icon_awesome-building" data-name="Icon awesome-building" d="M13.427,14.782h-.616V.739A.739.739,0,0,0,12.072,0H1.725A.739.739,0,0,0,.985.739V14.782H.37a.37.37,0,0,0-.37.37v.616H13.8v-.616A.37.37,0,0,0,13.427,14.782ZM3.942,2.341a.37.37,0,0,1,.37-.37H5.543a.37.37,0,0,1,.37.37V3.572a.37.37,0,0,1-.37.37H4.312a.37.37,0,0,1-.37-.37Zm0,2.956a.37.37,0,0,1,.37-.37H5.543a.37.37,0,0,1,.37.37V6.529a.37.37,0,0,1-.37.37H4.312a.37.37,0,0,1-.37-.37Zm1.6,4.558H4.312a.37.37,0,0,1-.37-.37V8.253a.37.37,0,0,1,.37-.37H5.543a.37.37,0,0,1,.37.37V9.485A.37.37,0,0,1,5.543,9.855Zm2.341,4.927H5.913V12.2a.37.37,0,0,1,.37-.37H7.514a.37.37,0,0,1,.37.37Zm1.971-5.3a.37.37,0,0,1-.37.37H8.253a.37.37,0,0,1-.37-.37V8.253a.37.37,0,0,1,.37-.37H9.485a.37.37,0,0,1,.37.37Zm0-2.956a.37.37,0,0,1-.37.37H8.253a.37.37,0,0,1-.37-.37V5.3a.37.37,0,0,1,.37-.37H9.485a.37.37,0,0,1,.37.37Zm0-2.956a.37.37,0,0,1-.37.37H8.253a.37.37,0,0,1-.37-.37V2.341a.37.37,0,0,1,.37-.37H9.485a.37.37,0,0,1,.37.37Z" fill="#535353"/>
</svg>
