<svg xmlns="http://www.w3.org/2000/svg" width="36.319" height="58.076" viewBox="0 0 36.319 58.076">
  <g id="Group_5916" data-name="Group 5916" transform="translate(-16 -4)">
    <path id="Path_10183" class="Path_10183" data-name="Path 10183" d="M26.159,8a9.08,9.08,0,1,0,9.08,9.08A9.077,9.077,0,0,0,26.159,8Zm0,22.7C20.11,30.7,8,33.73,8,39.779v4.54H44.319v-4.54C44.319,33.73,32.209,30.7,26.159,30.7Z" transform="translate(8 17.757)"/>
    <path id="Polygon_6" data-name="Polygon 6" d="M8.772,2.962a2,2,0,0,1,3.455,0l7.018,12.031A2,2,0,0,1,17.518,18H3.482a2,2,0,0,1-1.728-3.008Z" transform="translate(24 4)" fill="red"/>
  </g>
</svg>
