<svg xmlns="http://www.w3.org/2000/svg" width="60" height="77.019" viewBox="0 0 60 77.019">
  <g id="Group_5982" data-name="Group 5982" transform="translate(-730 -350.001)">
    <g id="Path_10218" data-name="Path 10218" transform="translate(730 358.143)" fill="#fff">
      <path d="M 45.23805618286133 68.28275299072266 L 0.4999983906745911 68.26189422607422 L 0.4999983906745911 0.4999999105930328 L 51.52361679077148 0.4999999105930328 L 51.52361679077148 61.44905853271484 L 48.30204772949219 64.63310241699219 L 48.28544998168945 64.64951324462891 L 48.27043914794922 64.66739654541016 L 45.23805618286133 68.28275299072266 Z" stroke="none"/>
      <path d="M 1 1 L 1 67.76212310791016 L 45.00493621826172 67.78263854980469 L 47.9173583984375 64.310302734375 L 51.02361679077148 61.24023818969727 L 51.02361679077148 1 L 1 1 M 0 0 L 52.02361679077148 0 L 52.02361679077148 61.65789031982422 L 48.65353012084961 64.98870849609375 L 45.47118759155273 68.78285980224609 L 0 68.76165771484375 L 0 0 Z" stroke="none" fill="#cccece"/>
    </g>
    <path id="Path_10219" data-name="Path 10219" d="M-6021.024-1189.595H-6045v-5.881h8.169a4.173,4.173,0,0,1-.026-.452,4.076,4.076,0,0,1,4.071-4.071,4.076,4.076,0,0,1,4.072,4.071,4.2,4.2,0,0,1-.025.452h7.714v5.88Zm-11.761-8.143a1.812,1.812,0,0,0-1.81,1.81,1.812,1.812,0,0,0,1.81,1.809,1.811,1.811,0,0,0,1.809-1.809A1.812,1.812,0,0,0-6032.785-1197.738Z" transform="translate(6789.024 1550)" fill="#fbe92a"/>
    <path id="Path_10220" data-name="Path 10220" d="M-6021.024-1189.595H-6045v-2.262h8.169l4.132-.091v-2.158a1.851,1.851,0,0,0,1.707-1.972c.015-1.382-1.707-1.652-1.707-1.652s-.086-.929-.086-2.269a4.076,4.076,0,0,1,4.072,4.071,4.2,4.2,0,0,1-.025.452h7.714v5.88Z" transform="translate(6789.024 1550)" fill="#eed310"/>
    <path id="Path_10221" data-name="Path 10221" d="M6.524,11.048A4.524,4.524,0,1,0,2,6.524,4.524,4.524,0,0,0,6.524,11.048Zm1.6-6.123a.453.453,0,0,1,.64.641L6.206,8.122l0,0a.451.451,0,0,1-.64,0l0,0L4.285,6.844a.452.452,0,1,1,.64-.64l.96.96L8.123,4.925Z" transform="translate(734.333 364.06)" fill="#1ed895" stroke="#31be8b" stroke-width="1" fill-rule="evenodd"/>
    <path id="Path_10222" data-name="Path 10222" d="M6.524,11.048A4.524,4.524,0,1,0,2,6.524,4.524,4.524,0,0,0,6.524,11.048Zm1.6-6.123a.453.453,0,0,1,.64.641L6.206,8.122l0,0a.451.451,0,0,1-.64,0l0,0L4.285,6.844a.452.452,0,1,1,.64-.64l.96.96L8.123,4.925Z" transform="translate(734.333 378.536)" fill="#1ed895" stroke="#31be8b" stroke-width="1" fill-rule="evenodd"/>
    <path id="Path_10223" data-name="Path 10223" d="M6.524,11.048A4.524,4.524,0,1,0,2,6.524,4.524,4.524,0,0,0,6.524,11.048Zm1.6-6.123a.453.453,0,0,1,.64.641L6.206,8.122l0,0a.451.451,0,0,1-.64,0l0,0L4.285,6.844a.452.452,0,1,1,.64-.64l.96.96L8.123,4.925Z" transform="translate(734.333 393.465)" fill="#1ed895" stroke="#31be8b" stroke-width="1" fill-rule="evenodd"/>
    <path id="Path_10224" data-name="Path 10224" d="M6.524,11.048A4.524,4.524,0,1,0,2,6.524,4.524,4.524,0,0,0,6.524,11.048Zm1.6-6.123a.453.453,0,0,1,.64.641L6.206,8.122l0,0a.451.451,0,0,1-.64,0l0,0L4.285,6.844a.452.452,0,1,1,.64-.64l.96.96L8.123,4.925Z" transform="translate(734.333 408.393)" fill="#1ed895" stroke="#31be8b" stroke-width="1" fill-rule="evenodd"/>
    <rect id="Rectangle_4883" data-name="Rectangle 4883" width="28.048" height="1.81" rx="0.905" transform="translate(748.095 366.286)" fill="#34a5d4"/>
    <rect id="Rectangle_4890" data-name="Rectangle 4890" width="28.048" height="1.81" rx="0.905" transform="translate(748.095 380.762)" fill="#34a5d4"/>
    <rect id="Rectangle_4894" data-name="Rectangle 4894" width="28.048" height="1.81" rx="0.905" transform="translate(748.095 395.691)" fill="#34a5d4"/>
    <rect id="Rectangle_4898" data-name="Rectangle 4898" width="28.048" height="1.81" rx="0.905" transform="translate(748.095 410.167)" fill="#34a5d4"/>
    <rect id="Rectangle_4884" data-name="Rectangle 4884" width="19" height="0.905" rx="0.452" transform="translate(748.548 369.001)" fill="#c2c3c3"/>
    <rect id="Rectangle_4889" data-name="Rectangle 4889" width="19" height="0.905" rx="0.452" transform="translate(748.548 383.477)" fill="#c2c3c3"/>
    <rect id="Rectangle_4893" data-name="Rectangle 4893" width="19" height="0.905" rx="0.452" transform="translate(748.548 398.405)" fill="#c2c3c3"/>
    <rect id="Rectangle_4897" data-name="Rectangle 4897" width="19" height="0.905" rx="0.452" transform="translate(748.548 412.881)" fill="#c2c3c3"/>
    <rect id="Rectangle_4885" data-name="Rectangle 4885" width="23.976" height="0.905" rx="0.452" transform="translate(748.548 370.81)" fill="#c2c3c3"/>
    <rect id="Rectangle_4888" data-name="Rectangle 4888" width="23.976" height="0.905" rx="0.452" transform="translate(748.548 385.286)" fill="#c2c3c3"/>
    <rect id="Rectangle_4892" data-name="Rectangle 4892" width="23.976" height="0.905" rx="0.452" transform="translate(748.548 400.215)" fill="#c2c3c3"/>
    <rect id="Rectangle_4896" data-name="Rectangle 4896" width="23.976" height="0.905" rx="0.452" transform="translate(748.548 414.691)" fill="#c2c3c3"/>
    <rect id="Rectangle_4886" data-name="Rectangle 4886" width="27.143" height="0.905" rx="0.452" transform="translate(748.548 372.62)" fill="#c2c3c3"/>
    <rect id="Rectangle_4887" data-name="Rectangle 4887" width="27.143" height="0.905" rx="0.452" transform="translate(748.548 387.096)" fill="#c2c3c3"/>
    <rect id="Rectangle_4891" data-name="Rectangle 4891" width="27.143" height="0.905" rx="0.452" transform="translate(748.548 402.024)" fill="#c2c3c3"/>
    <rect id="Rectangle_4895" data-name="Rectangle 4895" width="27.143" height="0.905" rx="0.452" transform="translate(748.548 416.5)" fill="#c2c3c3"/>
    <g id="Path_10225" data-name="Path 10225" transform="translate(772.016 423.828) rotate(-48)" fill="#ebebeb">
      <path d="M 8.485153198242188 4.252902030944824 L 1.245305776596069 4.147468090057373 L 4.927851676940918 0.6958392858505249 L 8.485153198242188 4.252902030944824 Z" stroke="none"/>
      <path d="M 4.916604995727539 1.391669750213623 L 2.490592479705811 3.665557384490967 L 7.26010799407959 3.735015869140625 L 4.916604995727539 1.391669750213623 M 4.939098358154297 -9.5367431640625e-07 L 9.71021842956543 4.770798683166504 L -1.9073486328125e-06 4.629388809204102 L 4.939098358154297 -9.5367431640625e-07 Z" stroke="none" fill="#d9d9d9"/>
    </g>
    <g id="Group_5983" data-name="Group 5983" transform="translate(46.256 -175.321)">
      <circle id="Ellipse_1117" data-name="Ellipse 1117" cx="8.5" cy="8.5" r="8.5" transform="translate(726.744 526.953)" fill="#02af0e"/>
      <path id="Path_10195" data-name="Path 10195" d="M10.475,3.973a.664.664,0,1,1,.939.939L6.426,9.9a.664.664,0,0,1-.939,0L2.992,7.407a.664.664,0,0,1,.939-.939L5.956,8.492l4.519-4.519Z" transform="translate(728.041 528.515)" fill="#fff"/>
    </g>
  </g>
</svg>
