<svg xmlns="http://www.w3.org/2000/svg" xmlns:xlink="http://www.w3.org/1999/xlink" width="74.002" height="74.002" viewBox="0 0 74.002 74.002">
  <defs>
    <filter id="Path_1705" x="20.399" y="12.739" width="34.39" height="53.543" filterUnits="userSpaceOnUse">
      <feOffset dy="3" input="SourceAlpha"/>
      <feGaussianBlur stdDeviation="1" result="blur"/>
      <feFlood flood-opacity="0.059"/>
      <feComposite operator="in" in2="blur"/>
      <feComposite in="SourceGraphic"/>
    </filter>
  </defs>
  <g id="Group_52" data-name="Group 52" transform="translate(-605.18 -765.18)">
    <g id="Group_65" data-name="Group 65">
      <g id="Path_1709" data-name="Path 1709" transform="translate(605.18 765.18)">
        <path id="Path_41" data-name="Path 41" d="M37,73.5A36.51,36.51,0,0,1,22.793,3.368,36.51,36.51,0,0,1,51.207,70.632,36.272,36.272,0,0,1,37,73.5Z" fill="#9ab0c5"/>
        <path id="Path_42" data-name="Path 42" d="M37,1A36.01,36.01,0,0,0,22.987,70.171,36.01,36.01,0,0,0,51.013,3.829,35.773,35.773,0,0,0,37,1m0-1A37,37,0,1,1,0,37,37,37,0,0,1,37,0Z" fill="#fff"/>
      </g>
      <g id="Path_1709-2" data-name="Path 1709" transform="translate(605.182 765.182)">
        <path id="Path_43" data-name="Path 43" d="M37,73.5A36.51,36.51,0,0,1,22.793,3.368,36.51,36.51,0,0,1,51.207,70.632,36.272,36.272,0,0,1,37,73.5Z" fill="none"/>
        <path id="Path_44" data-name="Path 44" d="M37,1A36.01,36.01,0,0,0,22.987,70.171,36.01,36.01,0,0,0,51.013,3.829,35.773,35.773,0,0,0,37,1m0-1A37,37,0,1,1,0,37,37,37,0,0,1,37,0Z" fill="#c8c8c8"/>
      </g>
    </g>
    <g transform="matrix(1, 0, 0, 1, 605.18, 765.18)" filter="url(#Path_1705)">
      <path id="Path_1705-2" data-name="Path 1705" d="M75.892,119c-2.828-2.213-5.492-4.287-8.144-6.377-1.233-.972-1.463-2.012-.7-2.951.721-.883,1.766-.908,2.939-.009,2.278,1.747,4.537,3.52,7.034,5.463v-2.118c0-5.167-.047-10.334.051-15.5A2.989,2.989,0,0,1,78.211,95.3a2.657,2.657,0,0,1,2.275.472c4.5,3.4,8.94,6.9,13.379,10.383,1.51,1.186,1.512,2.352.006,3.541-3.9,3.076-7.816,6.124-11.885,9.307,2.245,1.764,4.391,3.454,6.541,5.139,1.785,1.4,3.584,2.781,5.361,4.19q2.218,1.757-.033,3.526c-4.4,3.454-8.793,6.931-13.257,10.306a2.9,2.9,0,0,1-2.426.521,2.88,2.88,0,0,1-1.1-2.221c-.09-5.739-.048-11.48-.048-17.529-.622.455-1.068.764-1.5,1.1-1.9,1.481-3.791,2.985-5.711,4.446a1.927,1.927,0,0,1-2.827-.183,1.887,1.887,0,0,1,.575-2.768c2.72-2.148,5.457-4.274,8.326-6.517m14.18,11.072-9.2-7.177v14.356l9.2-7.179m0-22.144L80.9,100.8v14.3l9.163-7.156" transform="translate(-43.21 -82.48)" fill="rgba(225,225,225,0.64)"/>
    </g>
  </g>
</svg>
