<svg xmlns="http://www.w3.org/2000/svg" xmlns:xlink="http://www.w3.org/1999/xlink" width="74.002" height="74.002" viewBox="0 0 74.002 74.002">
  <defs>
    <filter id="Path_1710" x="17.774" y="32.214" width="38.61" height="15.698" filterUnits="userSpaceOnUse">
      <feOffset dy="3" input="SourceAlpha"/>
      <feGaussianBlur stdDeviation="1" result="blur"/>
      <feFlood flood-opacity="0.18"/>
      <feComposite operator="in" in2="blur"/>
      <feComposite in="SourceGraphic"/>
    </filter>
    <filter id="Path_1711" x="10.908" y="22.635" width="52.187" height="18.481" filterUnits="userSpaceOnUse">
      <feOffset dy="3" input="SourceAlpha"/>
      <feGaussianBlur stdDeviation="1" result="blur-2"/>
      <feFlood flood-opacity="0.18"/>
      <feComposite operator="in" in2="blur-2"/>
      <feComposite in="SourceGraphic"/>
    </filter>
    <filter id="Path_1712" x="24.567" y="41.793" width="24.893" height="12.912" filterUnits="userSpaceOnUse">
      <feOffset dy="3" input="SourceAlpha"/>
      <feGaussianBlur stdDeviation="1" result="blur-3"/>
      <feFlood flood-opacity="0.18"/>
      <feComposite operator="in" in2="blur-3"/>
      <feComposite in="SourceGraphic"/>
    </filter>
    <filter id="Path_1713" x="30.501" y="49.871" width="13" height="13" filterUnits="userSpaceOnUse">
      <feOffset dy="3" input="SourceAlpha"/>
      <feGaussianBlur stdDeviation="1" result="blur-4"/>
      <feFlood flood-opacity="0.18"/>
      <feComposite operator="in" in2="blur-4"/>
      <feComposite in="SourceGraphic"/>
    </filter>
  </defs>
  <g id="Group_53" data-name="Group 53" transform="translate(-605.18 -765.18)">
    <g id="Group_71" data-name="Group 71">
      <g id="Path_1708" data-name="Path 1708" transform="translate(605.18 765.18)">
        <path id="Path_57" data-name="Path 57" d="M37,73.5A36.51,36.51,0,0,1,22.793,3.368,36.51,36.51,0,0,1,51.207,70.632,36.272,36.272,0,0,1,37,73.5Z" fill="#a297b0"/>
        <path id="Path_58" data-name="Path 58" d="M37,1A36.01,36.01,0,0,0,22.987,70.171,36.01,36.01,0,0,0,51.013,3.829,35.773,35.773,0,0,0,37,1m0-1A37,37,0,1,1,0,37,37,37,0,0,1,37,0Z" fill="#fff"/>
      </g>
      <g id="Path_1708-2" data-name="Path 1708" transform="translate(605.182 765.182)">
        <path id="Path_59" data-name="Path 59" d="M37,73.5A36.51,36.51,0,0,1,22.793,3.368,36.51,36.51,0,0,1,51.207,70.632,36.272,36.272,0,0,1,37,73.5Z" fill="none"/>
        <path id="Path_60" data-name="Path 60" d="M37,1A36.01,36.01,0,0,0,22.987,70.171,36.01,36.01,0,0,0,51.013,3.829,35.773,35.773,0,0,0,37,1m0-1A37,37,0,1,1,0,37,37,37,0,0,1,37,0Z" fill="#c8c8c8"/>
      </g>
    </g>
    <g id="Icon_feather-wifi" data-name="Icon feather-wifi" transform="translate(619.781 782.311)">
      <g transform="matrix(1, 0, 0, 1, -14.6, -17.13)" filter="url(#Path_1710)">
        <path id="Path_1710-2" data-name="Path 1710" d="M7.5,19.885a21.075,21.075,0,0,1,26.976,0" transform="translate(16.09 19.21)" fill="none" stroke="rgba(255,255,255,0.53)" stroke-linecap="round" stroke-linejoin="round" stroke-width="4"/>
      </g>
      <g transform="matrix(1, 0, 0, 1, -14.6, -17.13)" filter="url(#Path_1711)">
        <path id="Path_1711-2" data-name="Path 1711" d="M2.13,15.163a30.655,30.655,0,0,1,40.541,0" transform="translate(14.6 17.13)" fill="none" stroke="rgba(255,255,255,0.53)" stroke-linecap="round" stroke-linejoin="round" stroke-width="4"/>
      </g>
      <g transform="matrix(1, 0, 0, 1, -14.6, -17.13)" filter="url(#Path_1712)">
        <path id="Path_1712-2" data-name="Path 1712" d="M12.8,24.626a11.5,11.5,0,0,1,13.316,0" transform="translate(17.56 21.29)" fill="none" stroke="rgba(255,255,255,0.53)" stroke-linecap="round" stroke-linejoin="round" stroke-width="4"/>
      </g>
      <g transform="matrix(1, 0, 0, 1, -14.6, -17.13)" filter="url(#Path_1713)">
        <path id="Path_1713-2" data-name="Path 1713" d="M18,30h0" transform="translate(19 23.37)" fill="none" stroke="rgba(255,255,255,0.53)" stroke-linecap="round" stroke-linejoin="round" stroke-width="7"/>
      </g>
    </g>
  </g>
</svg>
