<svg xmlns="http://www.w3.org/2000/svg" width="31" height="31.001" viewBox="0 0 31 31.001">
  <g id="Group_5590" data-name="Group 5590" transform="translate(-0.5 31.501) rotate(-90)">
    <path id="Path_9922" data-name="Path 9922" d="M9.5,26.5l-9-3V.5l9,3Z" fill="#37b678"/>
    <path id="Path_9923" data-name="Path 9923" d="M1.5,23.5V.833L.5.5v23l9,3v-.333Z" fill="#00a653"/>
    <path id="Path_9924" data-name="Path 9924" d="M27.5,26.5l-9-3V.5l9,3Z" fill="#37b678"/>
    <path id="Path_9925" data-name="Path 9925" d="M9.5,26.5l9-3V.5l-9,3Z" fill="#00a653"/>
    <path id="Path_9926" data-name="Path 9926" d="M31.484,19.525A10.639,10.639,0,0,1,30.4,23.5a27.324,27.324,0,0,1-4.061,5.39c-.208.249-2.413,2.787-2.6,2.6-3.007-3.041-6.5-6.348-7.5-10.682A7.594,7.594,0,0,1,22.7,11.565c3.811-.5,7.847,1.949,8.64,5.805a8.214,8.214,0,0,1,.145,2.155Z" fill="#e5303e"/>
    <path id="Path_9927" data-name="Path 9927" d="M17.241,20.808A7.594,7.594,0,0,1,23.7,11.565c.175-.023.35-.033.525-.044a7.7,7.7,0,0,0-1.525.044,7.594,7.594,0,0,0-6.458,9.243c1,4.334,4.495,7.641,7.5,10.682.054.054.284-.13.585-.419C21.421,28.145,18.2,24.944,17.241,20.808Z" fill="#b72732"/>
    <circle id="Ellipse_992" data-name="Ellipse 992" cx="5.5" cy="5.5" r="5.5" transform="translate(18.271 13.5)" fill="#fff"/>
    <path id="Path_9928" data-name="Path 9928" d="M19.271,19a5.5,5.5,0,0,1,5-5.475c-.164-.015-.33-.025-.5-.025a5.5,5.5,0,0,0,0,11c.169,0,.335-.01.5-.025a5.5,5.5,0,0,1-5-5.475Z" fill="#e0e0e2"/>
    <path id="Path_9929" data-name="Path 9929" d="M26.021,19.5h-1.25a.5.5,0,0,1,0-1h1.25a.5.5,0,1,1,0,1Zm-2.25-1a.5.5,0,0,1-.5-.5V16.25a.5.5,0,0,1,1,0V18a.5.5,0,0,1-.5.5Z" fill="#3c3b41"/>
    <circle id="Ellipse_993" data-name="Ellipse 993" cx="1" cy="1" r="1" transform="translate(22.368 18.824) rotate(-37.84)" fill="#e5303e"/>
  </g>
</svg>
