<svg xmlns="http://www.w3.org/2000/svg" width="19" height="19" viewBox="0 0 19 19">
  <g id="Lift" transform="translate(0 0)">
    <path id="Path_10" data-name="Path 10" d="M9.5,0A9.5,9.5,0,1,1,0,9.5,9.5,9.5,0,0,1,9.5,0Z" transform="translate(0 0)" fill="#754a12"/>
    <path id="elevator_FILL0_wght400_GRAD0_opsz48" d="M122.521-831.906h.8a.385.385,0,0,0,.284-.115.385.385,0,0,0,.114-.284v-1.858h.133a.385.385,0,0,0,.284-.114.385.385,0,0,0,.114-.284v-1.062a1.022,1.022,0,0,0-.312-.75,1.022,1.022,0,0,0-.75-.312h-.531a1.022,1.022,0,0,0-.75.312,1.022,1.022,0,0,0-.312.75v1.062a.385.385,0,0,0,.114.284.385.385,0,0,0,.284.114h.133v1.858a.385.385,0,0,0,.114.284A.385.385,0,0,0,122.521-831.906Zm.4-5.228a.715.715,0,0,0,.524-.219.715.715,0,0,0,.219-.524.715.715,0,0,0-.219-.524.715.715,0,0,0-.524-.219.715.715,0,0,0-.524.219.715.715,0,0,0-.219.524.715.715,0,0,0,.219.524A.715.715,0,0,0,122.919-837.134Zm2.68,1.247h1.937a.2.2,0,0,0,.179-.1.184.184,0,0,0-.007-.206l-.969-1.553a1.5,1.5,0,0,0-.169-.093.2.2,0,0,0-.1.026.262.262,0,0,0-.078.066l-.969,1.553a.184.184,0,0,0-.007.206A.2.2,0,0,0,125.6-835.886Zm.965,3.278a.2.2,0,0,0,.1-.026.261.261,0,0,0,.078-.066l.969-1.552a.184.184,0,0,0,.007-.206.2.2,0,0,0-.179-.1H125.6a.2.2,0,0,0-.179.1.184.184,0,0,0,.007.206l.969,1.552A1.476,1.476,0,0,0,126.565-832.609Zm-5.769,2.163a.764.764,0,0,1-.557-.239.764.764,0,0,1-.239-.557V-839.2a.772.772,0,0,1,.239-.551A.754.754,0,0,1,120.8-840h7.962a.762.762,0,0,1,.551.245.762.762,0,0,1,.245.551v7.962a.754.754,0,0,1-.245.557.771.771,0,0,1-.551.239Zm0-.8h7.962V-839.2H120.8Zm0,0v0Z" transform="translate(-115.277 844.723)" fill="#ff9100"/>
  </g>
</svg>
