<svg xmlns="http://www.w3.org/2000/svg" width="19" height="19" viewBox="0 0 19 19">
  <g id="Escalator" transform="translate(-0.07 -0.182)">
    <circle id="Ellipse_12" data-name="Ellipse 12" cx="9.5" cy="9.5" r="9.5" transform="translate(0.07 0.182)" fill="#1a2754"/>
    <g id="escalator-2" data-name="escalator" transform="translate(3.581 4.925)">
      <path id="Path_7" data-name="Path 7" d="M183.3,1.567a.783.783,0,1,0-.783-.783A.783.783,0,0,0,183.3,1.567Zm0-.783" transform="translate(-178.295 0)" fill="#54c0ff"/>
      <path id="Path_8" data-name="Path 8" d="M5.777,38.891V38.4a.775.775,0,1,0-1.551,0v2.013h0L2.764,41.876c-.138.138-.155.144-.426.144h-.9A1.488,1.488,0,0,0,0,43.517a1.553,1.553,0,0,0,1.522,1.555h1.6a1.793,1.793,0,0,0,1.21-.5L9,39.915a.391.391,0,0,1,.327-.116H10.48a1.542,1.542,0,0,0,1.341-1.537,1.517,1.517,0,0,0-1.387-1.5H8.613a1.737,1.737,0,0,0-1.15.443L5.777,38.891Z" transform="translate(0 -35.914)" fill="#54c0ff"/>
      <path id="Path_9" data-name="Path 9" d="M41.338,70.311h1.639a.758.758,0,0,1,.667.712.738.738,0,0,1-.678.762h-.985a.982.982,0,0,0-.842.3l-4.708,4.708a.981.981,0,0,1-.742.266H34.136a.768.768,0,0,1-.75-.78.667.667,0,0,1,.682-.691h1.065a.9.9,0,0,0,.692-.266l4.787-4.787A.88.88,0,0,1,41.338,70.311Z" transform="translate(-32.614 -68.686)" fill="#182a67"/>
    </g>
  </g>
</svg>
