<svg xmlns="http://www.w3.org/2000/svg" width="16.945" height="15.936" viewBox="0 0 16.945 15.936">
  <path id="Path_9914" data-name="Path 9914" d="M8.682.934a2.907,2.907,0,0,1,1.584.332l.147.037.037.074h.074v.037H10.6V1.45h.074v.037h.074v.037h.074V1.56h.074V1.6h.074v.037h.074v.037h.074l.037.074.147.037v.037h.074v.037h.074v.037h.074v.037h.074v.037h.074V2h.074v.037h.074l.037.074.221.074v.037h.074V2.26h.074V2.3h.074v.037l.147.037.037.074h.074v.037h.074v.037H12.7v.037h.074v.037h.074v.037h.074v.037h.074V2.7h.074l.037.074h.074v.037h.074V2.85h.074v.037H13.4v.037h.074V2.96h.074l.553.332h.074v.037h.074v.037h.074V3.4h.074v.037h.074v.037h.074l.037.074h.074v.037h.074v.037H14.8V3.66h.074V3.7h.074l.479.295H15.5v.037h.074v.037h.074V4.1h.074v.037h.074l.037.074.147.037v.037h.074v.037h.074V4.36H16.2V4.4h.074v.037h.074v.037h.074v.037h.074v.037h.074l.037.074h.074v.037h.074l.037.074.111.037v.074l.074.037V4.95h.037a.7.7,0,0,1,.074.442h-.037v.147h-.037c-.1.345-.449.4-.737.553v.037l-.147.037-.037.074h-.074v.037H15.94v.037h-.074v.037h-.074v.037h-.074v.037h-.074V6.46h-.074l-.553.332h-.074v.037h-.074v.037H14.8V6.9h-.074v.037H14.65v.037h-.074l-.037.074h-.074v.037h-.074v.037h-.074V7.16h-.074V7.2h-.074v.037H14.1V7.27h-.074v.037l-.147.037-.037.074h-.074v.037h-.074v.037h-.074v.037h-.074v.037h-.074V7.6H13.4v.037h-.074l-.553.332H12.7v.037h-.074v.037H12.55v.037h-.074v.037H12.4v.037h-.074l-.037.074-.147.037V8.3L12,8.339v.037h-.074v.037h-.074v.037h-.074v.037H11.7v.037l-.147.037-.037.074h-.074V8.67h-.074v.037H11.3v.037h-.074v.037h-.074v.037h-.074v.037H11v.037l-.147.037L10.819,9h-.074v.037h-.074v.037H10.6v.037h-.074v.037h-.074v.037h-.074v.037H10.3V9.26H10.23V9.3l-.221.074v.037H9.9v.037H9.788v.037H9.64v.037H9.456v.037H9.161v.037a.8.8,0,0,1-.368-.037H8.5V9.518H8.351V9.481H8.2V9.444h-.11V9.407H7.982V9.37L7.761,9.3V9.26H7.688V9.223H7.614V9.186C6.823,8.762,6,8.4,5.256,7.934H5.183V7.9H5.109V7.86H5.035V7.823H4.962V7.786H4.888V7.749H4.814V7.712l-.221-.074-.037-.074H4.483V7.528H4.409V7.491H4.335V7.455H4.262V7.418H4.188V7.381H4.114V7.344H4.041V7.307H3.967L3.93,7.234H3.856V7.2H3.783V7.16H3.709V7.123H3.635V7.086H3.562V7.049H3.488V7.012H3.414V6.976l-.147-.037L3.23,6.865H3.157V6.828H3.083V6.792H3.009V6.755H2.936V6.718H2.862V6.681H2.788V6.644H2.714V6.607H2.641V6.57H2.567V6.534H2.493L2.457,6.46H2.383V6.423H2.309V6.386H2.236V6.349H2.162V6.313H2.088V6.276H2.015V6.239H1.941V6.2H1.867L1.83,6.128l-.147-.037V6.055H1.609V6.018H1.536V5.981l-.221-.074-.037-.074H1.2l-.11-.147L1.02,5.649.983,5.5H.946V5.392H.909a.889.889,0,0,1,.074-.479H1.02V4.839L1.094,4.8l.11-.147h.074l.037-.074.221-.074V4.471h.074V4.434h.074V4.4h.074V4.36H1.83V4.323H1.9l.037-.074.147-.037V4.176h.074V4.139h.074V4.1h.074V4.065h.074V4.029h.074V3.992L2.6,3.955V3.918h.074l.037-.074h.074V3.808h.074V3.771h.074V3.734h.074V3.7h.074V3.66h.074V3.623H3.23V3.587H3.3V3.55h.074V3.513l.147-.037L3.562,3.4h.074V3.365h.074V3.329h.074V3.292h.074V3.255H3.93V3.218H4V3.181h.074V3.144h.074V3.108h.074V3.071H4.3L4.335,3h.074V2.96h.074V2.923h.074V2.887H4.63V2.85H4.7V2.813h.074l.553-.332H5.4V2.445h.074V2.408h.074V2.371h.074V2.334H5.7V2.3h.074l.037-.074h.074V2.187h.074V2.15H6.03V2.113H6.1V2.076h.074V2.039h.074V2h.074V1.966H6.4V1.929h.074V1.892h.074V1.855h.074l.037-.074H6.73V1.745H6.8V1.708h.074V1.671h.074V1.634h.074V1.6H7.1V1.56h.074V1.524h.074V1.487h.074V1.45h.074l.037-.074.147-.037V1.3h.074V1.266l.221-.074V1.155h.111V1.118h.074V1.081Zm.184,1.031V2H8.609v.037H8.5v.037H8.388v.037H8.277V2.15l-.147.037v.037l-.147.037-.037.074-.589.258v.037H7.282L7.246,2.7H7.172v.037H7.1v.037H7.025v.037H6.951V2.85H6.877v.037H6.8v.037H6.73V2.96L6.583,3l-.037.074H6.472v.037H6.4v.037H6.325v.037H6.251v.037H6.177v.037H6.1v.037H6.03v.037H5.956v.037H5.883V3.4H5.809l-.037.074H5.7v.037H5.625V3.55H5.551v.037H5.477v.037H5.4V3.66H5.33V3.7H5.256v.037H5.183v.037H5.109v.037H5.035v.037H4.962l-.037.074H4.851v.037H4.777v.037H4.7v.037H4.63v.037H4.556V4.1H4.483v.037H4.409v.037H4.335v.037H4.262l-.037.074H4.151v.037H4.077V4.36H4V4.4H3.93v.037H3.856v.037H3.783v.037H3.709v.037H3.635v.037H3.562l-.037.074-.147.037v.037H3.3v.037H3.23V4.8H3.157v.037H3.083v.037H3.009v.037H2.936V4.95H2.862v.037H2.788l-.037.074c-.042.027-.161.032-.184.074v.221l.295.184.147.037v.037l.221.074.037.074.589.258.037.074h.074v.037h.074v.037h.074V6.2h.074v.037h.074v.037h.074v.037h.074v.037l.147.037.037.074h.074V6.5h.074v.037h.074V6.57h.074v.037h.074v.037h.074v.037h.074v.037h.074l.037.074h.074v.037h.074v.037h.074V6.9h.074v.037h.074v.037h.074v.037h.074v.037h.074v.037h.074l.037.074h.074V7.2h.074v.037H6.14V7.27h.074v.037h.074v.037h.074v.037h.074v.037h.074v.037h.074l.037.074h.074v.037h.074V7.6H6.84v.037h.074v.037h.074v.037h.074v.037h.074v.037h.074v.037h.074l.037.074h.074v.037h.074V7.97H7.54v.037h.074v.037h.074v.037h.074v.037h.074v.037h.074l.037.074.147.037V8.3l.221.074v.037l.221.037v.037h.147v.037h.626V8.486h.147V8.449l.221-.037V8.376L9.9,8.3V8.265h.074l.037-.074h.074V8.155h.074V8.118h.074V8.081l.589-.258.037-.074L11,7.712V7.676l.147-.037V7.6h.074V7.565H11.3V7.528h.074V7.491h.074V7.455l.147-.037.037-.074H11.7V7.307h.074V7.27h.074V7.234h.074V7.2H12V7.16h.074l.553-.332H12.7V6.792h.074V6.755h.074V6.718h.074V6.681h.074l.037-.074.147-.037V6.534h.074V6.5h.074V6.46H13.4V6.423h.074V6.386h.074V6.349h.074V6.313h.074V6.276h.074V6.239h.074l.037-.074h.074V6.128h.074V6.092l.589-.258.037-.074h.074V5.723H14.8V5.686h.074V5.649h.074V5.613h.074V5.576c.161-.087.262-.065.368-.221h.037V5.171l-.479-.295h-.074V4.839H14.8V4.8h-.074V4.765H14.65V4.729h-.074V4.692H14.5l-.037-.074h-.074V4.581h-.074V4.544h-.074V4.507h-.074V4.471H14.1V4.434h-.074V4.4H13.95V4.36L13.8,4.323l-.037-.074h-.074V4.213h-.074V4.176h-.074V4.139h-.074V4.1H13.4V4.065h-.074V4.029L13.1,3.955l-.037-.074h-.074V3.844h-.074V3.808h-.074V3.771h-.074V3.734H12.7V3.7h-.074V3.66H12.55l-.037-.074H12.44V3.55h-.074V3.513h-.074V3.476h-.074V3.439h-.074V3.4h-.074V3.365H12V3.329h-.074V3.292h-.074l-.037-.074H11.74V3.181h-.074V3.144h-.074V3.108h-.074V3.071h-.074V3.034h-.074V3H11.3V2.96h-.074V2.923h-.074V2.887h-.074l-.037-.074-.221-.074V2.7h-.074V2.666h-.074V2.629H10.6V2.592h-.074l-.037-.074h-.074V2.481H10.34V2.445h-.074V2.408h-.074V2.371h-.074V2.334h-.074V2.3A2.388,2.388,0,0,0,8.867,1.966ZM1.241,8.376a1.494,1.494,0,0,1,.7.295h.074v.037h.074v.037h.074v.037h.074v.037l.221.074v.037L2.678,9v.037l.147.037v.037l.147.037v.037h.074v.037H3.12V9.26h.074V9.3h.074v.037h.074V9.37h.074v.037h.074v.037h.074v.037h.074v.037h.074v.037l.147.037c.672.36,1.391.707,2.063,1.068l.589.258v.037l.147.037v.037l.147.037V11.1h.074v.037h.074v.037h.074v.037H7.1v.037l.221.074.037.074.405.147.037.074.147.037v.037h.074v.037l.221.074v.037h.111v.037h.074v.037h.111v.037h.184v.037l.737-.037v-.037l.221-.037v-.037l.221-.074v-.037h.074v-.037h.074v-.037l.221-.074v-.037l.147-.037V11.47l.147-.037V11.4l.147-.037v-.037h.074v-.037h.074v-.037h.074v-.037H11v-.037h.074v-.037l.147-.037v-.037H11.3v-.037h.074v-.037h.074v-.037h.074v-.037l.147-.037c.842-.45,1.738-.874,2.579-1.326h.074V9.518l.147-.037V9.444h.074V9.407h.074V9.37h.074V9.333h.074V9.3h.074V9.26l.147-.037V9.186l.221-.074V9.076l.147-.037V9l.147-.037V8.928h.074V8.891h.074V8.854h.074V8.818h.074V8.781l.221-.074a1.508,1.508,0,0,1,.847-.295c.14.156.315.126.332.442.092.1-.012.285-.037.368l-.147.111V9.37l-.221.074v.037h-.074v.037H16.64v.037h-.074v.037l-.147.037-.037.074h-.074v.037h-.074v.037l-.221.074v.037L15.682,10l-.037.074h-.074v.037H15.5v.037h-.074v.037H15.35v.037h-.074v.037H15.2v.037l-.221.074V10.4h-.111v.037l-.147.037v.037l-.221.074v.037l-.147.037V10.7l-.147.037v.037h-.074v.037h-.074v.037h-.074v.037h-.074v.037l-.147.037v.037l-.147.037v.037l-.147.037v.037l-.147.037v.037H13.25v.037h-.074v.037H13.1v.037h-.074v.037l-.221.074v.037h-.074v.037h-.074v.037h-.074v.037h-.074v.037H12.44v.037h-.074v.037h-.074v.037h-.074v.037h-.074V11.8l-.221.074v.037l-.147.037v.037l-.147.037v.037h-.074V12.1h-.074v.037h-.074v.037h-.074v.037h-.074v.037h-.074v.037h-.074v.037H11.04v.037h-.074v.037h-.074v.037h-.074v.037l-.147.037v.037l-.147.037v.037h-.074v.037h-.074v.037H10.3v.037H10.23v.037l-.147.037v.037h-.074v.037H9.9v.037H9.788v.037H9.64v.037H9.456v.037H9.124v.037l-.589-.037V12.98l-.442-.074c-.411-.178-.829-.418-1.216-.626l-.147-.037v-.037l-.147-.037v-.037L6.435,12.1v-.037H6.361v-.037H6.288v-.037H6.214v-.037H6.14v-.037H6.067v-.037L5.846,11.8v-.037H5.772v-.037l-.147-.037v-.037l-.147-.037v-.037H5.4v-.037H5.33v-.037H5.256V11.47H5.183v-.037L5.035,11.4c-.692-.37-1.41-.715-2.1-1.105H2.862v-.037H2.788v-.037H2.714v-.037H2.641v-.037L2.42,10.07v-.037L2.2,9.96V9.923l-.147-.037V9.849L1.9,9.812V9.775H1.83V9.739H1.757V9.7H1.683V9.665H1.609V9.628H1.536V9.591H1.462V9.554H1.388V9.518H1.315V9.481H1.241V9.444H1.167V9.407H1.094V9.37H1.02L.8,9.112a.792.792,0,0,1,.037-.405c.041-.16.169-.188.258-.295h.147Zm0,3.463a1.259,1.259,0,0,1,.589.221H1.9V12.1h.074v.037l.221.074v.037l.147.037v.037h.111v.037H2.53v.037H2.6v.037h.074v.037h.074V12.5h.074v.037H2.9v.037h.074v.037h.074v.037H3.12v.037h.074v.037h.074v.037h.111V12.8h.074v.037h.074v.037H3.6v.037h.074v.037h.074v.037H3.82v.037h.074v.037h.074v.037h.074v.037h.074v.037h.111V13.2l.221.074v.037H4.52v.037h.074v.037h.074v.037h.074v.037h.074V13.5h.074v.037H5v.037h.074v.037h.074v.037H5.22v.037h.074v.037h.074v.037h.074v.037h.074v.037l.221.074v.037h.11v.037h.074v.037h.074v.037h.074v.037H6.14v.037h.074v.037h.074V14.2h.074v.037l.221.074v.037h.111v.037h.074v.037H6.84v.037h.074v.037h.074v.037h.074v.037h.074V14.6h.074v.037h.074v.037l.221.074v.037h.111v.037l.147.037V14.9h.074v.037h.074v.037h.074v.037h.074v.037l.221.074v.037h.111v.037H8.5v.037h.111v.037H8.83V15.3a1.154,1.154,0,0,0,.553-.074l.258-.037v-.037l.221-.074v-.037l.332-.111V14.9l.221-.074v-.037h.074v-.037h.074v-.037h.074v-.037h.074v-.037l.332-.11v-.037h.074v-.037h.074v-.037h.074V14.38h.074v-.037h.074v-.037h.074V14.27L11.7,14.2v-.037h.111v-.037l.221-.074v-.037h.074v-.037h.074v-.037l.147-.037v-.037h.11v-.037l.221-.074v-.037h.074V13.68h.074v-.037h.074v-.037h.074V13.57h.074v-.037H13.1V13.5h.111v-.037l.221-.074v-.037h.074v-.037h.074v-.037h.074v-.037h.074V13.2H13.8v-.037h.074v-.037h.074v-.037h.111v-.037h.074v-.037h.074V12.98h.074v-.037h.074v-.037h.074V12.87H14.5v-.037l.221-.074v-.037h.11v-.037l.221-.074v-.037h.074v-.037H15.2V12.5l.147-.037v-.037h.111v-.037l.221-.074V12.28h.074v-.037h.074v-.037H15.9V12.17h.074v-.037h.074V12.1h.074v-.037h.11v-.037h.074v-.037l.221-.074v-.037a.587.587,0,0,1,.663.332v.147c.011,0,.058.028.037.11h-.037v.111h-.037l-.037.147-.258.184h-.074v.037h-.074v.037H16.64v.037l-.147.037v.037l-.184.037v.037h-.074V13.2h-.074v.037h-.074v.037h-.074v.037l-.221.074v.037h-.111v.037l-.147.037v.037l-.221.074v.037H15.24v.037l-.221.074v.037h-.111v.037h-.074v.037h-.074V13.9h-.074v.037h-.074v.037H14.54v.037h-.074v.037l-.221.074v.037h-.111V14.2l-.147.037v.037l-.147.037v.037h-.074v.037h-.074v.037l-.221.074v.037h-.111v.037l-.147.037v.037H13.14v.037h-.074v.037h-.074v.037h-.074v.037h-.074v.037l-.221.074v.037h-.111v.037H12.44v.037h-.074v.037h-.074v.037h-.074v.037h-.074v.037h-.074v.037l-.221.074V15.3H11.74v.037l-.221.074v.037h-.074v.037h-.074v.037H11.3v.037l-.147.037v.037H11.04v.037h-.074v.037h-.074v.037h-.074v.037h-.074v.037h-.074v.037H10.6v.037l-.221.074V16h-.111v.037h-.074v.037l-.147.037v.037H9.935v.037H9.824v.037H9.714v.037H9.567V16.3H9.345v.037a2.023,2.023,0,0,1-.7-.037l-.368-.037v-.037l-.332-.074v-.037l-.221-.074V16H7.651v-.037l-.221-.074v-.037l-.147-.037V15.78h-.11v-.037l-.147-.037V15.67H6.951v-.037H6.877V15.6H6.8v-.037H6.73v-.037H6.656v-.037l-.221-.074v-.037H6.325v-.037L6.1,15.264v-.037H6.03v-.037H5.956v-.037H5.883v-.037H5.809V15.08H5.735v-.037H5.662v-.037H5.588V14.97H5.477v-.037l-.221-.074v-.037H5.183v-.037H5.109v-.037H5.035v-.037H4.962v-.037H4.888v-.037H4.814V14.6H4.7v-.037l-.221-.074v-.037H4.409v-.037H4.335V14.38H4.262v-.037H4.188v-.037H4.114V14.27H4.041v-.037H3.967V14.2l-.332-.11v-.037H3.562v-.037H3.488v-.037H3.414v-.037H3.341V13.9l-.221-.074v-.037h-.11v-.037l-.221-.074v-.037H2.714v-.037H2.641V13.57H2.567v-.037L2.42,13.5v-.037l-.147-.037v-.037H2.162v-.037H2.088v-.037l-.147-.037v-.037H1.867V13.2H1.793v-.037H1.72v-.037H1.646v-.037L1.5,13.054v-.037H1.425V12.98H1.351v-.037H1.241v-.037l-.147-.037v-.037H1.02V12.8l-.147-.111c-.042-.061,0-.083-.074-.147v-.332H.836V12.1l.258-.221h.147Z" transform="translate(-0.544 -0.682)" fill="#5a5a5a" stroke="#5a5a5a" stroke-width="0.5" fill-rule="evenodd"/>
</svg>
