<svg xmlns="http://www.w3.org/2000/svg" width="11.917" height="12.294" viewBox="0 0 11.917 12.294">
  <g id="Group_5965" data-name="Group 5965" transform="translate(-8.878 -0.914)">
    <path id="Path_10201" data-name="Path 10201" d="M304.186,304.859l-.264.246-.784-.84-.278-.3.264-.246.278.3Z" transform="translate(-286.904 -295.515)" fill="#5e35b1"/>
    <path id="Path_10203" data-name="Path 10203" d="M17.594,5.424A4.359,4.359,0,1,1,16.425,2.3a4.361,4.361,0,0,1,1.169,3.125Z" transform="translate(0 0)" fill="#5e35b1"/>
    <path id="Path_10236" data-name="Path 10236" d="M15.909,4.552a3.517,3.517,0,1,1-.943-2.521,3.518,3.518,0,0,1,.943,2.521Z" transform="translate(0.843 0.842)" fill="#fff"/>
    <path id="Path_10206" data-name="Path 10206" d="M326.815,332.125a.8.8,0,0,1-.55.217h-.029a.8.8,0,0,1-.561-.255l-2.966-3.066,1.18-1.1,2.965,3.064A.808.808,0,0,1,326.815,332.125Z" transform="translate(-306.276 -319.133)" fill="#5e35b1"/>
  </g>
</svg>
