<svg xmlns="http://www.w3.org/2000/svg" width="386.05" height="493.426" viewBox="0 0 386.05 493.426">
  <path id="Path_10155" data-name="Path 10155" d="M221.135,0C250.1.138,277.41,7.313,295.862,18.037c1.2.7,2.272.756,3.514,1.406,6.922,3.622,13.624,8.37,19.912,12.65,3.825,2.7,7.25,6.063,11.01,8.9l2.343,2.577c7.625,5.768,14,13.814,19.677,21.551,1.982,2.7,4.605,5.374,6.325,8.2,9.672,14.705,17.007,31.467,22.488,50.364q.116,1.406.234,2.811c4.758,15.5,4.685,34.995,4.685,55.284q-.116,33.612-.234,67.231-.351,121.915-.7,243.858c-1.684.857-5.28.469-7.73.469H296.8c-.239-.187-.066-.082-.469-.234v-.469c-.794-1.281-.234-4.994-.234-6.793V179.672c.023-16.3-.241-30.638-4.685-42.166-6.615-17.159-18.119-29.992-32.8-39.12-3.652-2.271-8-3.763-11.947-5.622-2.97-1.333-5.976-1.376-9.37-2.343-2.762-.787-6.5-1.108-9.6-1.874h-4.216c-4.252,0-8.877-.126-12.181.7l-3.514.234c-2.76.687-5.857,1.106-8.667,2.108a86.233,86.233,0,0,0-20.38,10.541,101.889,101.889,0,0,0-9.136,7.5l-1.171.7c-2.448,2.874-5.3,5.607-7.5,8.667-5.636,7.844-9.792,17.017-12.884,27.408-3.135,10.535-1.874,26.816-1.874,40.058v46.616c0,7.36-.336,15.9,0,22.489h.469c.866.536,3.157.234,4.451.234h51.067v.468c.146,1.719-4.229,7.85-5.388,9.6-5.467,8.782-9.93,18.112-15.46,26.7-.984,1.527-1.291,3.132-2.343,4.685-3.551,6.191-6.975,12.523-10.776,18.74-15.137,24.894-29.02,51-44.274,75.9-3.714,6.06-6.421,12.537-10.307,18.506-2.174,3.338-4.594,7.081-6.559,10.541-1.083,1.907-4.384,9.583-6.325,9.839-6.336-11.647-13.72-22.912-20.146-34.435-5.048-9.052-9.991-18.089-15.46-26.7-2.992-4.713-5.247-9.64-7.965-14.524-4.535-8.15-9.921-16.257-14.524-24.362-4.156-7.32-7.79-14.624-12.181-21.786-7.37-12.022-13.907-24.641-21.317-36.778-1.953-3.2-3.654-6.444-5.622-9.839C2.427,260.405.429,258.6,0,256.039a25.934,25.934,0,0,1,5.622-.234H57.158c.283-.19.064-.082.469-.234.766-2.242.234-6.353.234-9.136V160.7c.732-1.253.221-4.582.234-6.325q.468-5.387.937-10.776c.9-3.178,1.109-6.9,1.874-9.838l.234-3.28c1.21-4.191,2.5-9.1,3.748-13.118.594-1.9.656-3.115,1.172-4.919,16.589-43.774,40.458-70.7,78.475-93C154.713,13.529,167.145,9.431,179.2,5.622c4.073-1.268,8.409-1.748,12.415-2.811l3.28-.234c4.731-1.212,10.517-.97,15.695-2.108C213.071.076,219.379,1.1,221.135,0Z" fill="#128ada" fill-rule="evenodd"/>
</svg>
