<svg xmlns="http://www.w3.org/2000/svg" width="14.4" height="18" viewBox="0 0 14.4 18">
  <path id="Path_9911" data-name="Path 9911" d="M11.2,2A7.2,7.2,0,0,0,4,9.2c0,4.86,6.345,10.35,6.615,10.584a.9.9,0,0,0,1.17,0C12.1,19.55,18.4,14.06,18.4,9.2A7.2,7.2,0,0,0,11.2,2Zm0,15.885c-1.917-1.8-5.4-5.679-5.4-8.685a5.4,5.4,0,1,1,10.8,0C16.6,12.206,13.117,16.094,11.2,17.885ZM11.2,5.6a3.6,3.6,0,1,0,3.6,3.6A3.6,3.6,0,0,0,11.2,5.6Zm0,5.4A1.8,1.8,0,1,1,13,9.2,1.8,1.8,0,0,1,11.2,11Z" transform="translate(-4 -2)" fill="#535353"/>
</svg>
