<svg xmlns="http://www.w3.org/2000/svg" width="202.164" height="476.381" viewBox="0 0 202.164 476.381">
  <path id="Path_10170" data-name="Path 10170" d="M239.407-45.588s.469,263.133.469,278.67c0,7.361.336,15.9,0,22.489h-.469c-.867.536-3.157.234-4.451.234H183.889v.468c-.146,1.719,4.229,7.85,5.388,9.6,5.467,8.782,9.93,18.112,15.461,26.7.984,1.527,1.291,3.132,2.343,4.685,3.551,6.191,6.975,12.523,10.776,18.74,15.137,24.894,29.021,51,44.274,75.9,3.714,6.06,6.421,12.537,10.307,18.506,2.174,3.338,4.594,7.081,6.559,10.541,1.083,1.907,4.384,9.583,6.325,9.839,6.336-11.647,13.72-22.912,20.146-34.435,5.048-9.052,9.991-18.089,15.461-26.7,2.992-4.713,5.247-9.64,7.965-14.524,4.535-8.15,9.921-16.257,14.524-24.362,4.156-7.32,7.79-14.624,12.181-21.786,7.37-12.022,13.907-24.641,21.317-36.778,1.953-3.2,3.654-6.444,5.622-9.839,1.087-1.958,3.085-3.764,3.514-6.325a25.934,25.934,0,0,0-5.622-.234H328.892c-.283-.19-.064-.082-.469-.234-.766-2.242-.234-6.353-.234-9.136V-45.588Z" transform="translate(386.05 430.793) rotate(180)" fill="#128ada" fill-rule="evenodd"/>
</svg>
