<svg xmlns="http://www.w3.org/2000/svg" width="31" height="31" viewBox="0 0 31 31">
  <g id="Group_5834" data-name="Group 5834" transform="translate(-525 -330)">
    <circle id="Ellipse_1078" data-name="Ellipse 1078" cx="15.5" cy="15.5" r="15.5" transform="translate(525 330)" fill="#fff"/>
    <g id="Group_5833" data-name="Group 5833" transform="translate(533.68 334.901)">
      <path id="Path_10171" data-name="Path 10171" d="M4.708,122.132H4.689l-.028.037H4.643l-.019.028H4.606l-.028.037H4.559l-.019.028H4.522l-.019.028H4.485l-.019.028H4.448l-.028.037H4.4c-.006.009-1.529,1.182-1.532,1.189l-.037.019-.019.139H2.8l-.009.13H2.786v.037H2.776v.065H2.767l-.009.1H2.748l-.009.121c-.044.141-.048.325-.093.464v.065c-.015.05-.022.117-.037.167v.065H2.6v.037H2.591v.065H2.581v.056H2.572v.046H2.563v.065c-.023.077-.033.182-.056.26v.065H2.5v.028H2.488v.065H2.479v.065c-.049.159-.054.36-.1.52l-.009.1H2.358v.065c-.014.048-.023.111-.037.158v.065c-.028.092-.035.214-.065.306L2.247,127H2.238v.028H2.228v.065H2.219v.056H2.21v.037H2.2l-.009.111H2.182l-.009.084H2.163v.037l-.019.009v.037H2.136l-.019.056H2.108v.019H2.1l-.009.028-.019.009v.019l-.037.028a.778.778,0,0,1-.845.223l-.065-.009a.807.807,0,0,1-.464-.446l-.009-.065H.641V127.3H.631l-.009-.139H.613a.752.752,0,0,1,.009-.195v-.1c.015-.051.022-.125.037-.176,0-.019.619-4.036.622-4.058h.009l.009-.046h.009l.009-.037h.009v-.028h.009l.019-.056h.009v-.019h.009l.009-.037.019-.009.009-.037.019-.009v-.019l.019-.009V122.3l.028-.019v-.019h.009c.02-.024.046-.041.056-.074.026-.007.021,0,.028-.028h.019c.023-.032.033-.019.056-.046l.019-.028h.019l.009-.019h.019l.009-.019h.019l.009-.019h.019l.046-.056h.019l.019-.028h.009l.009-.019h.019c.015-.019,2.705-2.3,2.711-2.3l.009-.019h.009l.009-.019h.019l.009-.019.037-.009.009-.019.056-.019.009-.019h.019V119.5H4.8l.009-.019.056-.019.009-.019.037-.009.009-.019H4.94V119.4h.019v-.009h.019v-.009H5v-.009h.019v-.009h.019v-.009l.056-.019v-.009a1.229,1.229,0,0,1,.279-.093c.207-.046,1.432-.028,1.644-.028v.009h.056v.009h.065v.009h.046v.009l.065.009v.009H7.28v.009l.046.009v.009l.037.009v.009h.028l.009.019.046.009.009.019.037.009.009.019h.019l.019.028h.019l.019.028H7.6l.093.1.084.074v.019l.028.019v.019l.037.028.009.028.019.009.009.037.028.019v.019l.019.009.009.037h.009l.009.028.019.009.009.037.019.009.019.056.019.009v.028l.019.009.009.037.019.009.009.046.019.009c.006.019,1.73,3.708,1.746,3.733.016,0,3.2,1.579,3.2,1.579v.009h.019v.009h.019v.009h.028l.009.019.037.009.009.019h.019v.009h.019l.009.019.028.009.028.037H13.3l.037.046.084.074v.019l.037.028v.019l.019.009.009.028h.009v.019l.019.009.019.056.019.009v.019h.009v.028h.009l.009.037h.009l.009.046H13.6v.037h.009v.037h.009v.037h.009v.084h.009v.046h.009v.009H13.64v.056h-.009v.074h-.009l-.009.074H13.6v.028h-.009l-.009.046h-.009l-.009.037h-.009l-.009.037-.019.009-.009.037-.037.028v.019l-.056.046-.009.019H13.4l-.019.028h-.019l-.009.019h-.019l-.009.019h-.019v.009l-.037.009v.009a1.026,1.026,0,0,1-.576.046h-.074v-.009l-.121-.019v-.009h-.037v-.009L12.4,126.9v-.009h-.028v-.009c-.009,0-3.544-1.684-3.556-1.7H8.793l-.037-.046-.019-.009V125.1l-.037-.028v-.019c-.009-.006-.811-1.176-.817-1.189H7.874l-.734,3.111c.049.043,4.584,7.472,4.587,7.484l.019.009v.019h.009v.019l.019.009.009.037.019.009v.019h.009v.019h.009v.019h.009v.019l.019.009.009.037h.009v.019h.009v.019h.009v.019h.009v.019H11.9v.028l.019.009.111.306.056.316v.121a.922.922,0,0,1-.056.344v.037h-.009l-.009.037h-.009v.028H12l-.009.037h-.009l-.009.037-.019.009-.009.037-.019.009v.019l-.019.009v.019l-.056.046v.019l-.019.009-.028.037h-.019l-.037.046h-.019l-.019.028H11.69l-.009.019-.037.009-.009.019-.028.009v.009l-.056.019v.009h-.019v.009l-.056.019v.009l-.046.009v.009h-.019v.009h-.028v.009h-.019v.009l-.065.009v.009h-.019v.009h-.046v.009H11.2v.009h-.037v.009h-.074v.009l-.288-.009v-.009h-.037v-.009h-.037v-.009h-.037v-.009h-.019v-.009h-.028v-.009h-.028v-.009l-.056-.019v-.009h-.019v-.009l-.056-.019-.009-.019-.037-.009-.009-.019h-.019l-.009-.019h-.019l-.009-.019h-.019l-.009-.019-.028-.009-.019-.028h-.019l-.046-.056h-.019l-.1-.111-.1-.093v-.019l-.019-.009v-.009l-.056-.046v-.019l-.046-.037V135.9l-.046-.037v-.019l-.037-.028-.009-.028-.019-.009v-.019l-.037-.028-.009-.028-.019-.009v-.019l-.019-.009v-.019c-.009-.006-5.516-8.611-5.516-8.617A.208.208,0,0,1,4.16,127H4.151v-.028H4.141v-.019H4.132l-.009-.037H4.113l-.009-.056H4.095v-.019H4.086l-.009-.056H4.067v-.019H4.058l-.009-.065H4.039v-.019H4.03l-.009-.074H4.011v-.028H4v-.046H3.993v-.046H3.983v-.037H3.974v-.056H3.965v-.056H3.956v-.074H3.946v-.121a1.278,1.278,0,0,1,.009-.288l.019-.195c.063-.183.073-.4.13-.585v-.056h.009c0-.012.548-2.653.548-2.665h.009v-.037H4.68v-.056h.009Zm-.529,4.9,1.777,2.782L4.5,132.551l-.019.056H4.476l-.009.028-.019.009c0,.012-2.34,3.142-2.358,3.157a2.809,2.809,0,0,1-.306.334l-.13.139H1.634l-.037.046H1.579l-.009.019-.028.009-.028.037H1.495l-.019.028H1.458l-.009.019H1.43l-.009.019-.037.009-.009.019-.037.009v.009H1.319v.009l-.056.019v.009H1.235v.009H1.216v.009H1.189v.009H1.161v.009H1.133v.009l-.084.009v.009H.984v.009H.854V136.6H.789l-.223-.074-.009-.019L.511,136.5v-.009l-.028-.009-.009-.019-.037-.009-.019-.028H.4l-.019-.028H.362l-.019-.028H.325l-.046-.056-.093-.084v-.019l-.028-.019v-.019l-.028-.019-.009-.037L.1,136.107l-.009-.037H.084l-.019-.056H.056l-.019-.084H.028V135.9H.019v-.056H.009v-.028H0V135.6H.009v-.028H.019l.009-.1.074-.223H.111l.009-.037H.13v-.028l.019-.009v-.028H.158v-.019l.019-.009v-.028l.019-.009c0-.006,2.5-3.7,2.5-3.7l.028-.019.009-.037h.009l.009-.084h.009v-.019h.009C2.77,131.189,4.178,127.035,4.178,127.035Z" transform="translate(0 -115.4)" fill="#128ada" fill-rule="evenodd"/>
      <circle id="Ellipse_1077" data-name="Ellipse 1077" cx="2.115" cy="2.115" r="2.115" transform="translate(5.268)" fill="#128ada"/>
    </g>
  </g>
</svg>
