<svg xmlns="http://www.w3.org/2000/svg" width="42.014" height="40.352" viewBox="0 0 42.014 40.352">
  <g id="Group_5798" data-name="Group 5798" transform="translate(-7.5 -17.334)">
    <path id="Path_10140" data-name="Path 10140" d="M49.514,37.51c0,2.174-2.052,4-2.688,5.959-.659,2.033-.093,4.711-1.323,6.4-1.243,1.709-3.97,1.991-5.677,3.235C38.135,54.34,37.031,56.856,35,57.516c-1.96.637-4.321-.728-6.493-.728s-4.533,1.365-6.493.728c-2.031-.66-3.135-3.177-4.826-4.408-1.707-1.244-4.435-1.526-5.677-3.235-1.23-1.692-.664-4.37-1.323-6.4C9.552,41.507,7.5,39.684,7.5,37.51s2.052-4,2.688-5.959c.659-2.033.093-4.711,1.323-6.4,1.243-1.709,3.97-1.991,5.677-3.235,1.691-1.232,2.795-3.748,4.826-4.408,1.96-.637,4.321.728,6.493.728S33.041,16.867,35,17.5c2.031.66,3.135,3.177,4.826,4.408,1.707,1.244,4.435,1.526,5.677,3.235,1.23,1.692.664,4.37,1.323,6.4C47.463,33.513,49.514,35.336,49.514,37.51Z" fill="#04a650"/>
    <ellipse id="Ellipse_1066" data-name="Ellipse 1066" cx="14.795" cy="14.811" rx="14.795" ry="14.811" transform="translate(13.712 22.699)" fill="#00ce60"/>
    <path id="Path_10141" data-name="Path 10141" d="M193.747,191.893a1.632,1.632,0,0,1-1.158-.479l-3.406-3.406a1.637,1.637,0,1,1,2.315-2.315l2.249,2.249,8.612-8.612a1.637,1.637,0,1,1,2.315,2.315l-9.77,9.77A1.632,1.632,0,0,1,193.747,191.893Z" transform="translate(-165.886 -147.861)" fill="#04a650"/>
    <path id="Path_10142" data-name="Path 10142" d="M163.747,191.893a1.632,1.632,0,0,1-1.158-.479l-3.406-3.406a1.637,1.637,0,1,1,2.315-2.315l2.249,2.249,8.612-8.612a1.637,1.637,0,1,1,2.315,2.315l-9.77,9.77A1.632,1.632,0,0,1,163.747,191.893Z" transform="translate(-138.422 -147.861)" fill="#fff"/>
  </g>
</svg>
