<svg xmlns="http://www.w3.org/2000/svg" width="16.011" height="9.986" viewBox="0 0 16.011 9.986">
  <g id="layer1" transform="translate(-45.645 -982.806)">
    <path id="path4884-4-9-2-8-5-7-1" d="M56.643,982.806a5.048,5.048,0,0,0-4.919,3.981h.751a4.288,4.288,0,1,1,.013,2.118h-.751a5.018,5.018,0,1,0,4.906-6.1Zm-.081,1.89a3.129,3.129,0,0,0-2.949,2.091h.778a2.4,2.4,0,1,1,.04,2.118h-.79a3.139,3.139,0,0,0,2.922,2,3.1,3.1,0,1,0,0-6.206Zm-6.286.751a.353.353,0,0,0-.255.214L49.07,987.7l-.751,1.6-.482-1.541a.353.353,0,0,0-.335-.255H46a.355.355,0,0,0,0,.71h1.233l.684,2.158a.353.353,0,0,0,.643.054l1.153-2.426.617-1.3.51,1.287a.354.354,0,0,0,.335.228H55.45a1.287,1.287,0,1,0-.027-.71H51.4l-.737-1.823a.353.353,0,0,0-.362-.228Z" transform="translate(0 0)" fill="#ff960d"/>
  </g>
</svg>
