<svg xmlns="http://www.w3.org/2000/svg" width="33.68" height="22.404" viewBox="0 0 33.68 22.404">
  <path id="Union_8" data-name="Union 8" d="M17073,22267.406c.021-3.08,2.6-3.014,5.594-2.945.592.01,1.2.021,1.811.016h19.324c3.666,0,6.986-.643,6.951,2.93Zm2.52-4.662c-.09-7.455,5.332-12.646,11.607-13.887a23.968,23.968,0,0,1,5.645,0,8.566,8.566,0,0,0,1.76.447,12.488,12.488,0,0,1,2.447,1.129c3.969,2.336,7.248,6.18,7.182,12.311Zm8.473-10.734a12.291,12.291,0,0,0-3.588,3.537c-.549.883-1.2,1.7-.984,2.85a2.77,2.77,0,0,0,.453.3,1.062,1.062,0,0,0,.76-.012c.777-.246.828-1.174,1.156-1.867a12.505,12.505,0,0,1,2.738-2.783c.834-.574,2.041-.637,2.063-2.027-.061-.072-.111-.207-.223-.369a.679.679,0,0,1-.312-.3,1.429,1.429,0,0,1-.531-.01C17085.041,22251.646,17084.471,22251.719,17083.99,22252.01Zm5.477-4.2v-.994h-.934a.905.905,0,1,1,0-1.811h3.348a.905.905,0,0,1,0,1.811h-.939v.994Z" transform="translate(-17072.998 -22245.002)" fill="#3cbc87"/>
</svg>
