<svg xmlns="http://www.w3.org/2000/svg" width="317.259" height="470.768" viewBox="0 0 317.259 470.768">
  <path id="Union_6" data-name="Union 6" d="M201.856,565.889v-80.91h0s1.936-29.134,4.412-44.082c1.218-7.345,1.86-15.139,3.718-22.375,3.227-12.58,7.4-25.033,11.228-37.522l1.635-2.56c.638-1.257.684-2.945,1.125-4.207.472-1.4,1.632-2.354,2.228-3.864.337-.958.186-2.426.58-3.353q1.363-2.133,2.725-4.267c.364-1.022.323-2.555.829-3.556.726-1.434,1.832-2.244,2.43-3.614.488-1.121.538-2.709,1.077-3.758.83-1.614,2.158-2.464,2.927-4.018.528-1.067.5-2.668,1.077-3.757l3.424-4.421c.6-1.126.717-2.812,1.327-3.959l3.424-4.421c2.48-4.484,5.825-10.362,8.613-14.8l4.124-4.576c1.515-2.332,2.84-5.039,4.656-7.478l4.076-4.125c1.805-2.61,4.011-5.89,6.15-8.688l5.818-5.536a76.837,76.837,0,0,1,7.358-7.195l43.9,54.217L421.1,95.122,173.118,138.434l51.437,63.52a32.768,32.768,0,0,0-8.958,7.254l-3.235,2.619c-3.516,4.451-7.13,8.32-10.427,12.564-2.072,2.668-4.781,3.989-6.611,6.59-1.569,2.229-3.147,4.932-4.858,7.231l-5.368,5.582c-1.232,1.9-2.2,4.375-3.613,6.223l-4.621,4.978c-11.484,17.765-22.369,35.367-31.788,53.347-.622,1.695-.981,3.633-1.67,5.061a245.5,245.5,0,0,0-14.548,34.442l-1.931,3.211c-3.54,10.369-6.558,20.535-9.618,30.862-.31,1.047.059,2.668-.378,3.6-2.112,6.826-3.6,13.5-5.33,20.384-.567,2.251-.167,4.973-.758,7.205-1.567,5.921-2.02,11.741-3,17.671-1.066,6.493-2.507,12.942-2.284,19.566q-.647,5.056-1.29,10.11c.2,5.943-.257,19.552-.395,23.433h-.022v.613c-.01.284-.016.438-.016.438h.016v80.949Z" transform="translate(-103.84 -95.121)" fill="#128ada"/>
</svg>
