<svg id="Group_5780" data-name="Group 5780" xmlns="http://www.w3.org/2000/svg" width="47.18" height="58.446" viewBox="0 0 47.18 58.446">
  <path id="Path_10130" data-name="Path 10130" d="M99.015,7.5c-13.031,0-23.6,11.34-23.6,25.331,0,10.826,14.129,25.7,20.514,31.875a4.433,4.433,0,0,0,6.152,0C108.477,58.53,122.6,43.656,122.6,32.831,122.61,18.84,112.046,7.5,99.015,7.5Zm0,40.973a17.682,17.682,0,1,1,17.829-17.682A17.755,17.755,0,0,1,99.015,48.473Z" transform="translate(-75.42 -7.5)" fill="#00b282"/>
  <ellipse id="Ellipse_1057" data-name="Ellipse 1057" cx="18.201" cy="18.201" rx="18.201" ry="18.201" transform="translate(5.339 5.077)" fill="#fff"/>
  <ellipse id="Ellipse_1059" data-name="Ellipse 1059" cx="11.163" cy="11.164" rx="11.163" ry="11.164" transform="translate(12.619 12.358)" fill="#00b282"/>
</svg>
