<svg xmlns="http://www.w3.org/2000/svg" width="68" height="68" viewBox="0 0 68 68">
  <g id="Group_5916" data-name="Group 5916" transform="translate(-31 -90)">
    <g id="Group_5915" data-name="Group 5915" transform="translate(55.702 90.967)">
      <path id="Polygon_4" class="Polygon_4" data-name="Polygon 4" d="M6.03,3.881a1,1,0,0,1,1.94,0l5.719,22.877A1,1,0,0,1,12.719,28H1.281a1,1,0,0,1-.97-1.243Z" transform="translate(2.299 0.033)" fill="red"/>
      <path id="Polygon_5" data-name="Polygon 5" d="M6.03,3.881a1,1,0,0,1,1.94,0l5.719,22.877A1,1,0,0,1,12.719,28H1.281a1,1,0,0,1-.97-1.243Z" transform="translate(16.298 66.033) rotate(180)" fill="#505050"/>
      <path id="Path_10181" data-name="Path 10181" d="M5.713,4.159A1.034,1.034,0,0,1,6.8,3.3c0,.816.444,19.59.444,24.822H1.412A1.144,1.144,0,0,1,.3,26.713Z" transform="translate(2.473 0.333)" fill="#c20000"/>
      <path id="Path_10182" data-name="Path 10182" d="M5.713,27.305a1.034,1.034,0,0,0,1.09.858c0-.817.444-19.62.444-24.861H1.412A1.145,1.145,0,0,0,.3,4.716Z" transform="translate(2.473 34.306)" fill="#3a3a3a"/>
      <g id="Ellipse_1111" data-name="Ellipse 1111" transform="translate(0.298 24.033)" fill="#fff" stroke="#505050" stroke-width="3">
        <circle cx="9" cy="9" r="9" stroke="none"/>
        <circle cx="9" cy="9" r="7.5" fill="none"/>
      </g>
    </g>
    <rect id="Rectangle_4855" data-name="Rectangle 4855" width="68" height="68" transform="translate(31 90)" fill="none"/>
  </g>
</svg>
