<svg xmlns="http://www.w3.org/2000/svg" width="357" height="357" viewBox="0 0 357 357">
  <g id="Group_5917" data-name="Group 5917" transform="translate(-33 18191)">
    <path id="Path_10186" data-name="Path 10186" d="M129,31a98,98,0,1,0,98,98,98.111,98.111,0,0,0-98-98m0-31A129,129,0,1,1,0,129,129,129,0,0,1,129,0Z" transform="translate(82 -18138)"/>
    <circle id="Ellipse_1109" data-name="Ellipse 1109" cx="58" cy="58" r="58" transform="translate(153 -18067)"/>
    <rect id="Rectangle_4851" data-name="Rectangle 4851" width="21" height="72" rx="10.5" transform="translate(201 -18191)"/>
    <rect id="Rectangle_4854" data-name="Rectangle 4854" width="21" height="74" rx="10.5" transform="translate(33 -18002) rotate(-90)"/>
    <rect id="Rectangle_4852" data-name="Rectangle 4852" width="21" height="75" rx="10.5" transform="translate(201 -17909)"/>
    <rect id="Rectangle_4853" data-name="Rectangle 4853" width="21" height="76" rx="10.5" transform="translate(314 -18002) rotate(-90)"/>
  </g>
</svg>
