<svg xmlns="http://www.w3.org/2000/svg" width="25.076" height="26.732" viewBox="0 0 25.076 26.732">
  <g id="Group_5592" data-name="Group 5592" transform="translate(-10.81 71.512) rotate(-90)">
    <path id="Path_9931" data-name="Path 9931" d="M73.023,39.02a4.614,4.614,0,0,0,4.6-4.594q0-.026,0-.051a8.859,8.859,0,0,0-4.119-7.5V26.66a8.775,8.775,0,1,0-17.55,0v.173a8.859,8.859,0,0,0-4.176,7.54v.051a4.614,4.614,0,0,0,4.6,4.6Z" transform="translate(-6.557 -6.557)" fill="#d2eff9"/>
    <path id="Path_9932" data-name="Path 9932" d="M70.311,73.963c2.524,0,4.588-1.636,4.6-3.67v-.04a6.891,6.891,0,0,0-4.119-5.99v-.168c0-3.9-3.929-7.066-8.776-7.066a10.452,10.452,0,0,0-4.209.864,8.859,8.859,0,0,0-1.9,5.505v.173a8.859,8.859,0,0,0-4.176,7.54v.051a4.6,4.6,0,0,0,.892,2.705,5.7,5.7,0,0,0,1.045.1Z" transform="translate(-6.51 -43.294)" fill="#ebf9fc"/>
    <path id="Path_9933" data-name="Path 9933" d="M45.329,26.883a.413.413,0,0,1-.068-.005.443.443,0,0,1-.37-.506,9.328,9.328,0,0,1,.566-2.057.443.443,0,0,1,.823.332,8.389,8.389,0,0,0-.513,1.862A.443.443,0,0,1,45.329,26.883Zm21.137,6.023H61.879a.443.443,0,0,1,0-.886h4.587a4.179,4.179,0,0,0,4.159-4.154v-.049a8.387,8.387,0,0,0-3.913-7.128.443.443,0,0,1-.206-.384v-.2a8.332,8.332,0,1,0-16.664,0v.165a.443.443,0,0,1-.209.385,8.452,8.452,0,0,0-2.575,2.508.443.443,0,0,1-.74-.489,9.372,9.372,0,0,1,2.637-2.637,9.219,9.219,0,1,1,18.438.04,9.267,9.267,0,0,1,4.117,7.74v.054A5.067,5.067,0,0,1,66.466,32.906Zm-6.865,0H49.825a5.056,5.056,0,0,1-5.045-5.034.443.443,0,0,1,.443-.443h0a.443.443,0,0,1,.443.443,4.169,4.169,0,0,0,4.159,4.148H59.6a.443.443,0,1,1,0,.886Z" fill="#3d0256"/>
    <path id="Path_9934" data-name="Path 9934" d="M124.442,154.492a.443.443,0,0,1-.361-.7,4.8,4.8,0,0,1,3.237-2.194,3.428,3.428,0,0,1,1.651.152.444.444,0,0,1-.333.823c-.09-.034-2.058-.768-3.83,1.733A.443.443,0,0,1,124.442,154.492Zm-9.852,1.869a.438.438,0,0,1-.08-.008,4.243,4.243,0,0,1-3.266-2.38,4.576,4.576,0,0,1-.433-1.861.443.443,0,0,1,.886.018,3.413,3.413,0,0,0,2.974,3.354.443.443,0,0,1-.08.879Z" transform="translate(-61.852 -131.846)" fill="#3d0256"/>
    <path id="Path_9935" data-name="Path 9935" d="M7.579,10.014H5.757v-8.6a1.415,1.415,0,1,0-2.829,0v8.6H1.062a1.062,1.062,0,0,0-.876,1.661l3.157,4.619a1.062,1.062,0,0,0,1.736.025L8.439,11.7a1.062,1.062,0,0,0-.859-1.686Z" transform="translate(62.482 35.444) rotate(180)" fill="#5dc4e8"/>
    <path id="Path_9936" data-name="Path 9936" d="M6.282,10.02H4.46V1.414A1.414,1.414,0,0,0,3.045,0a.953.953,0,0,0-.113,0c0,.037,0,.075,0,.113V8.722H1.062a1.062,1.062,0,0,0-.876,1.661L3.342,15a1.059,1.059,0,0,0,1.079.443l2.721-3.738a1.062,1.062,0,0,0-.86-1.688Z" transform="translate(62.483 34.151) rotate(180)" fill="#81d3f7"/>
    <path id="Path_9937" data-name="Path 9937" d="M4.663,17.642H4.64a1.507,1.507,0,0,1-1.22-.656L.263,12.368a1.5,1.5,0,0,1,1.242-2.355H2.929V1.858a1.858,1.858,0,1,1,3.716,0v8.156H8.024A1.505,1.505,0,0,1,9.239,12.4L5.878,17.024A1.506,1.506,0,0,1,4.663,17.642ZM1.505,10.9a.619.619,0,0,0-.511.968l3.157,4.619a.613.613,0,0,0,.5.27h.01a.611.611,0,0,0,.5-.253l3.361-4.619a.619.619,0,0,0-.5-.983H6.2a.443.443,0,0,1-.443-.443v-8.6a.972.972,0,1,0-1.943,0v8.6a.443.443,0,0,1-.443.443Z" transform="translate(62.926 35.886) rotate(180)" fill="#3d0256"/>
  </g>
</svg>
